<?xml version="1.0" encoding="UTF-8"?>
<svg id="Layer_2" data-name="Layer 2" xmlns="http://www.w3.org/2000/svg" xmlns:xlink="http://www.w3.org/1999/xlink" viewBox="0 0 150 150">
  <defs>
    <style>
      .cls-1 {
        fill: #cd7d17;
      }

      .cls-2 {
        fill: #78451d;
      }

      .cls-3 {
        fill: #eea96c;
      }

      .cls-4 {
        fill: #a1907b;
      }

      .cls-5 {
        fill: #cdc6b7;
      }

      .cls-6 {
        fill: #f9f8f8;
      }

      .cls-7 {
        fill: #f4961b;
      }

      .cls-8 {
        fill: #c8c6c0;
      }

      .cls-9 {
        fill: #f5f6f1;
      }

      .cls-10 {
        fill: #897d6e;
      }

      .cls-11 {
        fill: #c1b6aa;
      }

      .cls-12 {
        fill: #8c775c;
      }

      .cls-13 {
        fill: #998d7d;
      }

      .cls-14 {
        fill: #695239;
      }

      .cls-15 {
        fill: #e3d5aa;
      }

      .cls-16 {
        fill: #b67c41;
      }

      .cls-17 {
        fill: #94877a;
      }

      .cls-18 {
        fill: #d4a157;
      }

      .cls-19 {
        fill: #543614;
      }

      .cls-20 {
        fill: #f7c071;
      }

      .cls-21 {
        fill: #d69323;
      }

      .cls-22 {
        fill: url(#linear-gradient);
        stroke: #c3fcd2;
        stroke-width: 3px;
      }

      .cls-22, .cls-23 {
        stroke-miterlimit: 10;
      }

      .cls-24 {
        fill: #eac88a;
      }

      .cls-25 {
        fill: #bb9f87;
      }

      .cls-26 {
        fill: #54422d;
      }

      .cls-27 {
        fill: #735134;
      }

      .cls-28 {
        fill: #611c05;
      }

      .cls-29 {
        fill: #e0d3c6;
      }

      .cls-30 {
        fill: #ea9628;
      }

      .cls-31 {
        fill: #422d18;
      }

      .cls-32 {
        fill: #d78120;
      }

      .cls-33 {
        fill: #c37611;
      }

      .cls-34 {
        fill: #934910;
      }

      .cls-35 {
        fill: #833404;
      }

      .cls-36 {
        fill: #b3ab96;
      }

      .cls-37 {
        fill: #fde592;
      }

      .cls-38 {
        fill: #d1cfca;
      }

      .cls-39 {
        fill: #5d4a2e;
      }

      .cls-40 {
        fill: #bfb29b;
      }

      .cls-41 {
        fill: #c2965a;
      }

      .cls-42 {
        fill: #ddd7c7;
      }

      .cls-43 {
        fill: #987b5b;
      }

      .cls-44 {
        fill: #9c826a;
      }

      .cls-45 {
        fill: #a39989;
      }

      .cls-46 {
        fill: #8b4413;
      }

      .cls-47 {
        fill: #cd6c14;
      }

      .cls-48 {
        fill: #e9ede8;
      }

      .cls-49 {
        fill: #c6c4bc;
      }

      .cls-50 {
        fill: #6e4221;
      }

      .cls-51 {
        fill: #cdc3b8;
      }

      .cls-52 {
        fill: #43220c;
      }

      .cls-53 {
        fill: #ccbfb0;
      }

      .cls-54 {
        fill: #7d6c5f;
      }

      .cls-55 {
        fill: #a16124;
      }

      .cls-56 {
        fill: #a14f16;
      }

      .cls-23 {
        fill: none;
        stroke: #52ff87;
        stroke-width: 2.1px;
      }

      .cls-57 {
        fill: #9f6737;
      }

      .cls-58 {
        fill: #85674e;
      }

      .cls-59 {
        fill: #dbd4c9;
      }

      .cls-60 {
        fill: #4e2d0f;
      }

      .cls-61 {
        fill: #b6a595;
      }

      .cls-62 {
        fill: #faf9eb;
      }

      .cls-63 {
        fill: #b4a48e;
      }

      .cls-64 {
        fill: #dbd2c9;
      }

      .cls-65 {
        fill: #f8f2ec;
      }

      .cls-66 {
        fill: #6f4115;
      }

      .cls-67 {
        fill: #dd9b3c;
      }

      .cls-68 {
        fill: #6e5f53;
      }

      .cls-69 {
        fill: #160a05;
      }

      .cls-70 {
        fill: #944e14;
      }

      .cls-71 {
        fill: #e7e2d2;
      }

      .cls-72 {
        fill: #250e04;
      }

      .cls-73 {
        fill: #50391d;
      }

      .cls-74 {
        fill: #cb770e;
      }

      .cls-75 {
        fill: #62513d;
      }

      .cls-76 {
        fill: #fdce87;
      }

      .cls-77 {
        fill: #5e2004;
      }

      .cls-78 {
        fill: #703a1c;
      }

      .cls-79 {
        fill: #b1a898;
      }

      .cls-80 {
        fill: #c6b79a;
      }

      .cls-81 {
        fill: #614d39;
      }

      .cls-82 {
        fill: #e9ac59;
      }

      .cls-83 {
        fill: #da7718;
      }

      .cls-84 {
        fill: #6e370e;
      }

      .cls-85 {
        fill: #2e0e04;
      }

      .cls-86 {
        fill: #e1dbd1;
      }

      .cls-87 {
        fill: #6f4a26;
      }

      .cls-88 {
        fill: #efe8e0;
      }

      .cls-89 {
        fill: #fdc12f;
      }

      .cls-90 {
        fill: #e89017;
      }

      .cls-91 {
        fill: #635538;
      }

      .cls-92 {
        fill: #6e624e;
      }

      .cls-93 {
        fill: #442e1b;
      }

      .cls-94 {
        fill: #321403;
      }

      .cls-95 {
        fill: #c07226;
      }

      .cls-96 {
        fill: #c8b8a5;
      }

      .cls-97 {
        fill: #ad6817;
      }

      .cls-98 {
        fill: #cda87c;
      }

      .cls-99 {
        fill: #cfcdca;
      }

      .cls-100 {
        fill: #cdc5b7;
      }

      .cls-101 {
        fill: #aa9881;
      }

      .cls-102 {
        fill: #dc720c;
      }

      .cls-103 {
        fill: #c48320;
      }

      .cls-104 {
        fill: #f3e5a3;
      }

      .cls-105 {
        fill: #5e4428;
      }

      .cls-106 {
        fill: #fabb78;
      }

      .cls-107 {
        fill: #e38e1a;
      }

      .cls-108 {
        fill: #b0aba2;
      }

      .cls-109 {
        fill: #d2c7bc;
      }

      .cls-110 {
        fill: #e8ded1;
      }

      .cls-111 {
        fill: #e4a129;
      }

      .cls-112 {
        fill: #ac7c40;
      }

      .cls-113 {
        fill: #f6af27;
      }

      .cls-114 {
        fill: #9a9ea6;
      }

      .cls-115 {
        fill: #984604;
      }

      .cls-116 {
        fill: #ba5f13;
      }

      .cls-117 {
        fill: #f0ecde;
      }

      .cls-118 {
        fill: #e4e2da;
      }

      .cls-119 {
        fill: #1e120a;
      }

      .cls-120 {
        fill: #cf8417;
      }

      .cls-121 {
        fill: #bc701a;
      }

      .cls-122 {
        fill: #caae96;
      }

      .cls-123 {
        fill: #835b3b;
      }

      .cls-124 {
        fill: #614935;
      }

      .cls-125 {
        fill: #8f6b37;
      }

      .cls-126 {
        fill: #a05306;
      }

      .cls-127 {
        fill: #be701e;
      }

      .cls-128 {
        fill: #e28315;
      }

      .cls-129 {
        fill: #694c30;
      }

      .cls-130 {
        fill: #91836f;
      }

      .cls-131 {
        fill: #ce9673;
      }

      .cls-132 {
        fill: #633416;
      }

      .cls-133 {
        fill: #fcfcf7;
      }

      .cls-134 {
        fill: #fbfaf8;
      }

      .cls-135 {
        fill: #e19b1f;
      }

      .cls-136 {
        fill: #f4af30;
      }

      .cls-137 {
        fill: #6d5239;
      }

      .cls-138 {
        fill: #61341a;
      }

      .cls-139 {
        fill: #95816f;
      }

      .cls-140 {
        fill: #41250b;
      }

      .cls-141 {
        fill: #77654c;
      }

      .cls-142 {
        fill: #92846a;
      }

      .cls-143 {
        fill: #a87036;
      }

      .cls-144 {
        fill: #c8baad;
      }

      .cls-145 {
        fill: #b8b1a5;
      }

      .cls-146 {
        fill: #3d240f;
      }

      .cls-147 {
        fill: #c5a99a;
      }

      .cls-148 {
        fill: #f7b326;
      }

      .cls-149 {
        fill: #cfcac4;
      }

      .cls-150 {
        fill: #ce6d12;
      }

      .cls-151 {
        fill: #dcb994;
      }

      .cls-152 {
        fill: #6f4215;
      }

      .cls-153 {
        fill: #745b40;
      }

      .cls-154 {
        fill: #d9c5a8;
      }

      .cls-155 {
        fill: #facd7d;
      }

      .cls-156 {
        fill: #db8c16;
      }

      .cls-157 {
        fill: #f5f3f0;
      }

      .cls-158 {
        fill: #7c603c;
      }

      .cls-159 {
        fill: #34210e;
      }

      .cls-160 {
        fill: #aa712d;
      }

      .cls-161 {
        fill: #a86610;
      }

      .cls-162 {
        fill: #dfd9cb;
      }

      .cls-163 {
        fill: #a45617;
      }

      .cls-164 {
        fill: #d97214;
      }

      .cls-165 {
        fill: #948371;
      }

      .cls-166 {
        fill: #8b7763;
      }

      .cls-167 {
        fill: #837968;
      }
    </style>
    <linearGradient id="linear-gradient" x1="134.52" y1="109.96" x2="16.57" y2="40.26" gradientUnits="userSpaceOnUse">
      <stop offset="0" stop-color="#b6ff93"/>
      <stop offset=".19" stop-color="#56ed86"/>
      <stop offset="1" stop-color="#006833"/>
    </linearGradient>
  </defs>
  <polygon class="cls-22" points="137.97 111.14 137.97 38.87 75.38 2.73 12.78 38.87 12.78 111.14 75.38 147.28 137.97 111.14"/>
  <path class="cls-23" d="M72.28,113c-3.66-.37-8.57-.78-13.45-1.42-1.55-.2-3.07-.86-4.51-1.52-1.54-.71-1.86-1.66-1.68-3.32,.17-1.5,.28-3.02,.3-4.53,.47-12.64,.17-25.25-.91-37.85-.21-3.1-.6-6.18-.93-9.27-.04-.33-.14-.71-.34-.96-1.5-1.89-1.19-4.31,.81-5.83,1.73-1.11,3.77-2.28,4.85-4.07,4.6-8.89,20.44-7.06,27.98-3.27,2.6,1.22,5.15,2.58,7.81,3.64,4.84,1.93,5.85,5.89,5.5,10.08-.1,1.17,.3,1.45,1.25,1.54,1.89,.19,3.81,.26,5.67,.6,5.84,.88,9.01,4.71,10.22,10.35,2.23,8.48,.29,17.22-1.58,25.56-1.8,7.87-10.68,9.68-17.69,9.34-1.55-.02-1.72,.21-1.65,1.77-.04,3.34,.6,5.59-3.23,6.72-6.48,1.89-11.03,2.03-18.42,2.43Zm21.16-26.93c.05,0,.11,0,.16,0,0,1.75,0,3.5,0,5.25,0,1.48,.16,1.66,1.58,1.61,2.72-.3,7,.56,7.89-2.88,1.38-5.3,1.94-10.75,2.11-16.21-.06-3.29,.57-8.58-4.14-8.43-1.59-.03-3.18-.01-4.76,0-1.69,0-1.88,.14-1.96,1.83-.32,6.28-.6,12.55-.9,18.83Z"/>
  <g>
    <path class="cls-86" d="M88.54,43.93c3.27,1.06,6.55,2.11,7.78,5.9,.16,.48,.26,.94,.23,1.44,.06,1.42-.02,2.79-.87,4.02-1.2,1.76-1.74,1.97-3.86,1.36-.59-.09-1.22,.07-1.79-.23-.36-.5,.06-.7,.38-.86,.58-.3,1.21-.44,1.88-.32,1.41,.25,2.22-.21,2.74-1.52,1.42-3.58-.12-6.67-3.78-7.8-3.36-1.04-6.77-1.83-10.23-2.46-.97-.18-1.81,0-2.61,.54-.82,.55-1.67,1.07-2.41,1.73-.69,.62-1.51,1.02-2.42,1.23-.75,.18-1.48,.41-2.12,.83-.79,.51-.75,1.29,.11,1.66,.64,.27,1.06,.65,1.35,1.28,.3,.65,.96,.96,1.58,1.27,.76,.37,1.58,.57,2.38,.82,1.33,.41,2.56,.96,3.3,2.27,.37,.65,.96,1.01,1.74,.68,1.48-.63,2.84-.2,4.17,.46,.71,.36,1.4,.78,2.21,.92,.14,.14,.17,.31,.17,.5-.06,.36-.12,.72-.2,1.08-.15,.43-.06,.89-.13,1.33-.11,.74-.46,1.18-1.29,.96-.63-.48-.41-1.18-.42-1.8-.04-1.62-.22-1.85-1.83-2.2-.3-.06-.59-.13-.89-.19-.47-.11-.83,.02-1.02,.48-.25,.61-.73,1.06-1.16,1.54-.73,.82-1.27,.71-1.57-.37-.2-.73-.65-1.38-.63-2.17,0-.24-.19-.4-.35-.57-.71-1.1-1.63-1.73-3.01-1.73-.7,0-1.36-.48-2.1-.44-.12-.02-.24-.05-.36-.08-1.13-.45-2.29-.83-3.49-1.07-.87-.18-1.63-.65-2.32-1.19-.78-.61-.93-1.82-.3-3.16,.73-1.54,1.62-2.96,3.49-3.35,.36-.07,.83-.19,.82-.66-.01-.45-.49-.51-.82-.68-1.7-.88-3.47-.71-5.24-.29-.6,.14-1.19,.27-1.81,.22-.45-.03-.97-.02-1.11-.6-.14-.61,.3-.89,.75-1.14,.85-.47,1.79-.67,2.75-.69,1.55-.03,3.1,.19,4.67,.05,4.87-.42,9.5,1.1,14.23,1.81,1.2,.18,2.28,.83,3.44,1.17Z"/>
    <path class="cls-109" d="M73.63,53.34c.08,0,.15,0,.23,0,.89,.29,1.73,.66,2.67,.81,1.14,.18,1.98,.89,2.55,1.9,.22,.67,.71,1.3,.34,2.07-.11,.08-.22,.09-.33,.02-.52-.5-.77-1.18-1.33-1.69-1.32-1.19-2.8-1.61-4.53-1.45-.68,.06-1.38,.07-2.02-.26-.55-.3-1.12-.59-1.67-.9-.36-.2-.53,0-.78,.11-.52,.06-.93-.26-1.38-.43-1.21-.51-2.43-1.02-3.51-1.8-.13-.1-.25-.21-.37-.33-1.02-.31-1.3-.93-.91-1.94,.18-.46,.03-.98-.01-1.47-.08-1.01-.65-1.49-1.6-1.63-.45-.07-.92-.05-1.37-.11-1.39-.2-1.83-.92-1.39-2.26,.14-.43,.37-.82,.53-1.18-.58,.28-.64,1.39-1.67,1.1,1.08-2.23,2.99-3.47,5.2-4.31,.84-.32,1.75-.47,2.63-.69,.4,.42,.92,.34,1.4,.29,3.17-.33,6.31,.1,9.45,.4,1.75,.16,3.44,.66,5.15,1.03,.59,.13,1.21,.26,1.48,.93-.52,.63-1.19,.37-1.8,.26-2.37-.4-4.71-1.01-7.11-1.11-3.15-.14-6.32-.43-9.45,.34-1.01,.25-1.82,.77-2.46,1.57-.46,.57-.34,1,.38,1.17,.74,.17,1.5,.27,2.26,.3,1.84,.07,2.67,1.56,1.77,3.18-.3,.55-.47,1.11-.58,1.72-.12,.72-.08,1.18,.64,1.71,1.72,1.25,1.66,1.34,3.69,1.75,1.3,.26,2.58,.61,3.89,.88Z"/>
    <path class="cls-59" d="M73.63,53.34c-2.39-.13-4.74-.47-6.93-1.5-.44-.21-1.01,.12-1.38-.36,.17-.4,.69,0,.85-.39-1.23-.45-1.64-2.43-.61-3.69,.66-.81,.54-1.53,.23-2.33-.34-.85-1.11-.61-1.78-.67-.79-.07-1.59-.12-2.37-.3-.94-.21-1.05-.82-.46-1.6,1.35-1.77,3.33-2.08,5.3-2.19,4.84-.27,9.64,.13,14.37,1.26,.47,.11,.98,.06,1.48,.08,.55-.36,.98,.08,1.46,.22,.61,.18,1.11,.63,1.76,.68,1.01,.42,2.09,.71,2.98,1.38-.89,.22-1.62-.35-2.39-.57-2.12-.61-4.31-.83-6.46-1.24-1.34-.26-2.64-.72-4.02-.75-1.26-.02-2.53-.09-3.79-.12-1.3-.02-2.59,.31-3.93,.02-1.54-.33-3.11-.13-4.54,.65-.31,.17-.64,.33-.52,.77,.11,.4,.48,.31,.77,.32,1.46,.06,2.83-.47,4.26-.61,1.51-.15,2.71,.59,3.97,1.13,.49,.21,.56,.81-.06,1.17-.2,.11-.4,.25-.62,.29-2.79,.53-3.55,2.63-3.96,5.04-.08,.47,.2,.7,.51,.93,1.02,.77,2.18,1.22,3.44,1.43,.87,.14,1.66,.49,2.42,.93Z"/>
    <path class="cls-87" d="M53.21,78.32c-.16-3.1-.31-6.21-.47-9.31-.09-2-.18-4-.38-6.19,.92,.55,.91,1.26,.94,1.89,.03,1,.48,1.49,1.48,1.43,.45,.36,.34,.88,.37,1.35,.06,1.08-.13,2.17,.15,3.24,.09,.42,.08,.84,.09,1.27,0,2.46,0,4.93,0,7.39,0,.49-.02,.99,.16,1.46,.05,1.52,.34,3.05-.19,4.55-.34,.13-.39-.1-.4-.34-.02-1.14-.01-2.29,0-3.43-.14,2.91,.32,5.82,.22,8.73-.05,1.25-.2,2.49-.34,3.72q-.49,.28-.82-.43c-.16,.33,.09,.87-.51,.97-.33-.69-.12-1.41-.12-2.13,.15-4.34,.06-8.69,.05-13.03-.17-.36,.05-.8-.22-1.15Z"/>
    <path class="cls-144" d="M57.08,43.92c.93-.39,1.3-1.42,2.26-1.94,.02,.82-.61,1.29-.83,1.93-.48,1.41-.1,2.16,1.36,2.06,3.37-.22,3.47,2.25,2.73,4.71,.32,.29,1.04-.04,1.12,.66-.47,.35-.96,.04-1.44,.04-.6-.03-1.19,0-1.79-.02-.45-.06-.89-.06-.99-.71-.14-.9-.79-1.14-1.61-.98-1.03,.2-1.97,.26-2.58-.85-.22-.39-.67-.26-1.05-.22-1,.12-1.74,.71-2.52,1.27-.37,.26-.78,.76-1.23,.07,.59-1.23,1.84-1.67,2.87-2.34,1.49-.98,2.7-2.21,3.7-3.66Z"/>
    <path class="cls-61" d="M50.52,49.92c.41,.29,.68,.04,.98-.23,.93-.81,1.97-1.38,3.24-1.51,.42-.04,.75,.04,.85,.35,.41,1.38,1.43,.97,2.32,.82,1.14-.19,1.69,.19,1.82,1.38,.04,.42,.4,.23,.62,.32-.1,.62-.66,.46-1.04,.6-.38,.15-.8,.13-1.17,.34-.71,.35-1.46,.55-2.26,.5-.79,.06-1.32-.43-1.91-.85-.59-.42-1.17-1.15-2-.72-.86,.46-1.26,1.27-1.14,2.28,.02,.19,.02,.38-.11,.53-.59-.23-.74-.69-.72-1.28,.02-.88,.14-1.73,.52-2.54Z"/>
    <path class="cls-140" d="M87.38,110.17c-2.16,.67-4.4,.81-6.63,1.04-4.83,.49-9.67,.43-14.51,.16,.89-.64,1.9-.39,2.85-.29,.55,.06,1.1,.13,1.92,.17-.45-.04-.65-.02-.84-.04-.27-.03-.67,.13-.72-.33-.05-.46,.47-.21,.65-.45-.82,.27-1.64,.41-2.47,.29-.36-.05-.88,.03-.86-.61,1.29-.55,2.64-.32,3.94-.23,2.56,.18,5.1-.05,7.64-.16,1.71-.07,3.43,0,5.13-.3,1.2,.37,2.4,.49,3.63,.13,.27-.08,.66-.09,.7,.33,.02,.17-.3,.17-.45,.28Z"/>
    <path class="cls-137" d="M54.61,66.17c-.05,.23-.08,.76-.3,.55-.48-.45-1.52-.46-1.32-1.54,.12-.67-.04-1.34-.39-1.97,.09,1.93,.29,3.86,.15,5.79-.23-2.93-.46-5.85-.7-8.78,.1-.7,.77-1.06,.97-1.76,.38-1.31-.16-2.36-.63-3.47,.11-.51-.52-1.26,.48-1.47,1.2,.7,1.76,1.72,1.61,3.12-.06,.57,.04,1.13,.17,1.69,.02,2.15,.36,4.28,.3,6.44-.01,.48,.07,.99-.33,1.39Z"/>
    <path class="cls-72" d="M66.75,110.19c1.16,.52,2.4,.05,3.58,.31-.09,.34-.62-.03-.71,.46,.5,.35,1.16-.02,1.68,.4h-5.07c-3.71-.07-7.35-.57-10.84-1.91-.84-.32-1.71-.66-2.17-1.55-.2-.58,.11-.56,.51-.44,.41,.18,.84,.33,1.27,.5,1.13,.36,2.28,.64,3.45,.85,2.1,.52,4.26,.58,6.4,.82,.67,.07,1.37,.03,1.91,.56Z"/>
    <path class="cls-51" d="M85.56,42.55c-.75,.29-1.3-.3-1.95-.45-.43-.11-.85-.3-1.27-.45-.59-.63-1.41-.72-2.17-.88-3.21-.68-6.44-1.19-9.75-1.23-1.39-.02-2.77-.21-4.17,.03-.51,.09-1.21,.23-1.33-.65,6.58-1.16,12.91-.41,18.94,2.52,.6,.29,1.13,.74,1.7,1.12Z"/>
    <path class="cls-142" d="M54.61,94.39c.3-4.35,.15-8.71,.3-13.06,.32,1.36-.1,2.78,.33,4.13,.38,.29,.38,.72,.38,1.14-.01,3.72,.03,7.44-.05,11.15-.37,1.14-.11,2.32-.26,3.48-.07,.56-.53,1.16,.27,1.62,.21,.12,.19,.55,.12,.86-.09,.39-.46,.29-.71,.4-.32,.14-.77,.16-.71,.69-.07,.38,.24,.58,.39,.86,0,.36-.21,.57-.51,.72-.67,.01-.87-.54-1.16-.98,.08-2.53,.16-5.05,.25-7.58,.87,.38,.37,1.17,.53,1.77,.08,1.2-.19,2.42,.33,3.82-.42-1.42-.28-2.64-.25-3.85,.25-1.29,.24-2.6,.4-3.9,.06-.44-.02-.91,.35-1.26Z"/>
    <path class="cls-79" d="M98.42,101.05c-1.62,.4-3.24,.06-4.85-.03,.14-.63,.61-.21,.93-.32-.57-.12-1.15-.01-1.72-.03-.3-.14-.53-.31-.32-.69,.64-.6,1.42-.65,2.25-.59,3.71,.26,7.28-.44,10.78-1.64,.48-.16,.81-.57,1.25-.8,.54-.29,1.06-.47,1.54,.11,.08,.59-.41,.77-.78,1-2.3,1.4-4.74,2.35-7.47,2.54-.89,.06-1.79,.2-2.69,.32-.14,.07,.02,.21-.04,.07-.01-.03,.02-.04,.09-.07,.38-.13,.74-.19,1.05,.15Z"/>
    <path class="cls-96" d="M89.91,56.31h2.05c1.53,1.44,1.62,1.42,3.11-.15,.4-.42,.69-.88,.91-1.41,.15-.35,.2-.86,.8-.74,0,.34,.1,.72-.02,1.01-.54,1.35,.28,1.29,1.19,1.27,1.46-.04,2.92,0,4.33,.47-1.13,.72-2.28,.18-3.39,0-.52-.09-.14,.26-.27,.3-.34,.26-.72,.21-1.1,.16-.34-.05-.68-.13-1.02-.11-.51,.03-1.3-.09-1.29,.57,.01,.61,.79,.37,1.24,.37,.88,0,1.74,.18,2.6,.29,.32,.04,.81,0,.62,.61-.92,.42-1.87,.13-2.81,.16-1.25,.04-2.51,.14-3.76,.01-.12-.02-.24-.06-.35-.11-.36-.19-.37-.69-.7-.87-.6-.33-.97-1.3-1.81-.93-.88,.39-1.56,1.08-1.64,2.16-.03,.34,0,.7-.23,.98-.15,.18-.31,.19-.4-.07,.05-.56-.11-1.12,.1-1.67,.05-.31-.09-.68,.24-.92,.35-.6,.73-1.17,1.45-1.38,.05,0,.11,0,.16,0Z"/>
    <path class="cls-26" d="M98.66,56.97c-.16-.1-.31-.19-.65-.41,1.54,.07,2.9,.14,4.27,.2,3.25,.48,6.33,1.35,8.54,4.03,.8,.97,1.4,2.07,1.78,3.28,.18,.41,.03,.59-.4,.58-.51-.34-.59-.95-.87-1.44-1.46-2.58-3.78-3.98-6.53-4.81-1.5-.45-3.04-.67-4.58-.91-.55-.09-1.15-.07-1.58-.53Z"/>
    <path class="cls-44" d="M52.74,53.54c-.53,.41,.24,1-.2,1.42-.56,.32-.8-.16-1.11-.46-.23-.25-.47-.5-.7-.75-.32-.7-.29-1.36,.1-2.05,.72-1.26,1.34-1.43,2.62-.79,.79,.39,1.22,1.42,2.3,1.27,.1,.09,.1,.19,.03,.3-.99,.42-2,.75-3.03,1.06Z"/>
    <path class="cls-71" d="M93.09,101.91c.04,1.48,.29,2.97,0,4.44-.1,.49,.22,1.36-.81,1.31-.21,.11-.42,.21-.67,.16-.17-.05-.3-.16-.38-.32,.03-.68,.75-.86,.99-1.39,.03-.07,.26-.27-.08-.13-.07,.03-.13,.06-.21,.09-.52,.06-.95,.62-1.54,.3,.35-.5-.12-.36-.33-.42-.33-.09-.64-.24-.97-.31-.34-.12-.63-.29-.68-.69,.38-.86,1.36-.7,1.97-1.15,.68-.19,1.06-.89,1.76-1.06,.1-.17,.37,.44,.38-.07,0-.42,.05-.75,.57-.75Z"/>
    <path class="cls-17" d="M98.42,101.05c-.41-.03-.82-.07-1.23-.1,3.93-.58,7.84-1.17,11.04-3.83,.11-.47,.55-.71,.75-1.12,.65-.68,1.11-1.54,1.86-2.14,.21-.02,.27,.13,.34,.28-.84,2.31-2.52,3.85-4.69,4.86-2.1,.98-4.25,1.87-6.64,1.81-.49-.01-.92,.37-1.44,.25Z"/>
    <path class="cls-75" d="M112.19,64.56c.31-.02,.39-.23,.42-.49,1.03,2.16,1.34,4.49,1.7,6.81,.43,2.8,.41,5.6-.08,8.39-.32-1.96-.06-3.93-.13-5.89-.02-.59-.03-1.18,.01-1.65-.11,.35-.01,.84-.02,1.32-.02,1.67,0,3.35-.02,5.02,0,.33,.24,.79-.31,.96-.6-.67-.29-1.49-.34-2.25-.03-.44,0-.89,0-1.34,.06-3.2,.03-6.4-.96-9.49-.12-.46-.56-.87-.26-1.41Z"/>
    <path class="cls-105" d="M51.43,54.5c.46-.06,.67,.48,1.11,.46,.87,1.11,1.06,2.3,.74,3.7-.18,.83-.78,1.09-1.24,1.57-.19-1.91-.62-3.8-.62-5.74Z"/>
    <path class="cls-19" d="M91.51,107.67c.26,0,.52,0,.77-.01-.19,.23-.38,.46-.57,.69-.49,.23-.93,.54-1.36,.88-.96,.42-1.91,.89-2.98,.94-.06-.15,.54-.24,.06-.4-.18-.06-.43,.11-.64,.17-1.08,.34-2.13,.3-3.14-.25,.04-.27,.23-.4,.46-.43,2.51-.33,4.92-1.1,7.39-1.6Z"/>
    <path class="cls-54" d="M111.19,94.13c-.08-.09-.17-.18-.25-.28-.23-.73,.23-1.33,.44-1.95,.99-2.93,1.12-6.02,1.68-9.03,.17-.42,.09-.87,.14-1.31,.05-.39-.02-.84,.49-1,.4,.5-.05,1.14,.28,1.65-.38,4.1-.89,8.16-2.78,11.91Z"/>
    <path class="cls-158" d="M53.49,99.66c-.16-.61,.19-1.28-.24-1.85-.01-6.49-.02-12.99-.04-19.48,.35,.23,.2,.6,.25,.91,.22,.59,.1,1.2,.1,1.8,.01,3.45,0,6.9,0,10.35,0,.37,.08,.76-.09,1.12,.05,.7-.22,1.43,.2,2.09,.54,.61,.36,1.36,.35,2.05,0,.86,.11,1.73-.11,2.59-.06,.22-.15,.41-.42,.42Z"/>
    <path class="cls-64" d="M96.78,54.02c-.85,.76-.95,1.97-1.88,2.75-1.59,1.34-1.93,1.37-2.94-.45,1.85,.76,3.02,.12,3.93-1.98,.44-1,.22-2.1,.65-3.07,.44,.88,.17,1.83,.24,2.74Z"/>
    <path class="cls-55" d="M92.21,102.76c-.61,.3-.92,1.03-1.64,1.18-.74-.13-.78-.54-.43-1.09,.5-.02,.43-.42,.48-.74,.15-.46,.09-.92,0-1.38-.02-.71-.23-1.43,.07-2.13,.4-.36,.57-.01,.73,.26,.14,.25,.18,.55,.4,.75,.19,.35,.27,.74,.44,1.1,.02,.11,0,.19-.09,.26-.31,.35-.3,.69,.04,1.02,.23,.26,.25,.52,.02,.78Z"/>
    <path class="cls-31" d="M53,105.39c.36,.32,.71,.64,1.07,.96,.31-.03,.53,.15,.77,.3,1.47,.95,3.24,.99,4.82,1.6,.2,.17,.34,.35,.22,.63-.21,.17-.45,.17-.7,.14-1.31-.3-2.66-.46-3.94-.88-.49-.18-.94-.48-1.49-.48-.23-.03-.51-.17-.52,.26-.52-.8-.3-1.67-.22-2.52Z"/>
    <path class="cls-93" d="M113.97,82.22c-.48-.48-.08-1.1-.26-1.62-.36-.54-.39-1.07,.08-1.57,.39-1.1,.15-2.25,.19-3.37,.05-1.4,.01-2.79,.25-4.19,0,2.61,0,5.22,0,7.83-.07,.98-.39,1.94-.26,2.94Z"/>
    <path class="cls-12" d="M92.16,100.97c0-.05,0-.11,0-.16,.17-.28,.49-.11,.71-.23,.61-.57,1.18,.23,1.79,.04-.32,.28-.83,.02-1.1,.4-.48,.43-.94-.06-1.41-.05Z"/>
    <path class="cls-68" d="M92.21,102.76c0-.26-.01-.52-.02-.78,.32,.25,.53-.85,.9-.07-.34,.18-.47,.43-.28,.81,.09,.19,.05,.39-.17,.44-.28,.06-.24-.32-.44-.4Z"/>
    <path class="cls-129" d="M90.36,109.23c.24-.62,.64-1,1.36-.88-.26,.59-.77,.8-1.36,.88Z"/>
    <path class="cls-88" d="M88.3,57.24c-.4,.24-.72,.19-1.15-.06-1.75-1.04-3.54-1.98-5.67-.92-.65,.32-1.16-.27-1.39-.73-.89-1.73-2.53-2.17-4.19-2.64-.92-.26-1.81-.59-2.58-1.18-.27-.21-.68-.45-.71-.71-.11-.86-.64-1.1-1.36-1.25-.46-.1-.75-.5-.75-.91,0-.47,.1-1.01,.65-1.23,.74-.3,1.46-.69,2.23-.86,1-.23,1.84-.65,2.59-1.34,.87-.8,1.88-1.42,2.91-1.99,1.42-.78,2.83-.06,4.22,.18,2.99,.52,5.95,1.24,8.81,2.27,2.78,1,4.75,3.67,3.69,6.99-.21,.68-.28,1.4-.83,1.97-.73,.76-1.36,1.28-2.55,.79-.78-.32-1.71-.05-2.32,.73,0,0,0,.01,0,.01-.69,.02-.89,.92-1.6,.91Z"/>
    <path class="cls-29" d="M79.35,58.16c.18-.76-.3-1.38-.45-2.07-.11-.25,.02-.37,.23-.46,.23,.13,.68,.27,.58,.46-.5,1.01,.72,1.64,.51,2.57-.03,.14,.21,.41,.39,.52,.25,.15,.43-.07,.54-.27,.37-.71,1.19-1.07,1.35-1.95,.08-.46,.4-.59,.95-.48,3.14,.61,3.15,.58,3.27,4.4-.06,.02-.12,.03-.17,.05-.55-.42-.38-1.04-.38-1.58,0-.78-.38-1.12-1.1-1.11-.9,0-1.82-.17-2.65,.37-.68,.29-.82,.87-.76,1.51,.12,1.17,.08,2.35,.25,3.52,.2,1.39,.17,2.77-1.3,3.59-.3,.13-.61,.3-.93,.03-1.27-1.23-.81-2.74-.6-4.17,.22-1.47,.23-2.93,.13-4.4-.01-.2,.01-.37,.14-.53Z"/>
    <path class="cls-59" d="M79.13,55.63c-.08,.15-.15,.3-.23,.46-.9-1.14-2.03-1.78-3.52-1.88-.57-.04-1.07-.49-1.53-.87,1.29,0,2.49,.5,3.74,.7,.84,.13,1.08,1,1.53,1.59Z"/>
    <path class="cls-29" d="M88.06,58.61c.01,.62,.03,1.25,.04,1.87,.21,.57-.13,.87-.58,1.01-.44,.14-.82,.01-.85-.56,0,0,.05-.05,.05-.05,.85,.14,1.18-.24,1.14-1.08-.02-.4-.16-.84,.21-1.18Z"/>
    <path class="cls-29" d="M88.3,57.24c.56-.25,.81-1.05,1.6-.91-.54,.46-1.07,.91-1.61,1.37,0-.15,0-.3,0-.45Z"/>
    <path class="cls-138" d="M67.5,53.33c.4,.17,.81,.34,1.21,.51,.97,.14,1.7,.85,2.61,1.13,.2,.1,.4,.22,.54,.41,.05,.11,.05,.23,.02,.35-.11,.19-.29,.24-.48,.23-1.76-.11-3.44,.44-5.17,.62-.98,.1-1.89,0-2.72-.55-.71-.47-.7-.96,.08-1.33,.79-.38,1.62-.67,2.5-.73,.5-.03,.87-.2,1.1-.65,.12-.07,.23-.07,.33,.02Z"/>
    <path class="cls-70" d="M67.5,53.33c-.09,.01-.18,.02-.26,.04-.41,.63-.98,.45-1.52,.29-.62-.18-1.16-.56-1.75-.83-.84-.38-1.67-.48-2.49,.05-.98,.63-2,.06-3,.08-.26-.04-.52-.09-.7-.32,.01-.28,.21-.42,.43-.44,1.93-.21,3.81-.98,5.8-.62,1.17,.58,2.33,1.17,3.5,1.75Z"/>
    <path class="cls-164" d="M64,51.57c-1.82,.28-3.64,.57-5.47,.85-.26,.04-.54-.01-.74,.22-.59,.69-1.46,.48-2.2,.67-.27,.07-.69,.07-.74-.31-.06-.38,.3-.45,.62-.47,.13,0,.2-.08,.27-.16,0-.07,0-.13,0-.2,.79,.02,1.57-.04,2.28-.45,1.46-.2,2.91-.51,4.38-.65,.44,.09,.88,.17,1.32,.26,.09,.08,.18,.16,.27,.24Z"/>
    <path class="cls-98" d="M71.79,55.38c-.17-.06-.33-.12-.5-.17,.13-.29-.8-.33-.18-.74,1.18,.44,2.41,.18,3.61,.24,1.81,.08,3.98,1.73,4.43,3.43-.05,.03-.1,.05-.15,.08-.42-.05-.64-.37-.87-.67-1.47-1.95-3.38-2.7-5.78-2.14-.19,.04-.38,.03-.56,0Z"/>
    <path class="cls-98" d="M79.35,58.16c.43,1.68,.31,3.37,0,5.05-.26,1.42-.33,2.8,.48,4.08-.17,.17-.36,.17-.57,.08-.98-.93-.58-2.16-.7-3.28,.13-1.72,.59-3.43,.28-5.18-.05-.26,.04-.53,.23-.73,0,0,.07-.05,.07-.06,.06,.02,.13,.03,.2,.03Z"/>
    <path class="cls-151" d="M71.11,54.46c-.36,.35,.73,.35,.18,.74-.94-.3-1.82-.72-2.58-1.37,.26-.06,.22-.67,.74-.32,.53,.35,1.2,.45,1.66,.94Z"/>
    <path class="cls-119" d="M55.27,97.99c0-4.18-.01-8.36-.02-12.54,0-1.53,.02-3.06,.03-4.59-.21-2.57-.03-5.15-.1-7.73-.01-.41,.11-.84-.11-1.23,0-.38,0-.76,0-1.14-.22-.81-.06-1.63-.09-2.45,0-.22,.11-.34,.34-.34,.58,1.12,.29,2.37,.52,3.54,.11,.55,.02,1.13,.02,1.7,.05,1.1-.14,2.2,.15,3.29,.22,1.37-.12,2.77,.24,4.14,.15,.92,.1,1.85,.09,2.78-.09,2.41,.09,4.83-.07,7.24-.35,1.43-.12,2.88-.17,4.32-.04,1.25,.05,2.51-.22,3.75-.07,.33-.07,.69-.49,.93-.35-.55-.19-1.12-.11-1.68Z"/>
    <path class="cls-159" d="M55.28,68.01c-.47,.89-.1,1.84-.23,2.76-.46-.81-.11-1.68-.23-2.52-.1-.69,.2-1.42-.22-2.07,.14-2.68-.3-5.35-.25-8.03,.88,.05,1.07,.75,1.04,1.38-.13,2.41,.35,4.8,.23,7.2-.02,.45,.03,.93-.34,1.29Z"/>
    <path class="cls-112" d="M53.68,99.38c0-1.59,0-3.19,0-4.78,.01-.46,.02-.91,.04-1.37,0-.2,.08-.39,.31-.4,.23,0,.3,.17,.34,.38,.07,.4-.12,.85,.25,1.19,.02,1.78-.15,3.54-.48,5.29-.26,.06-.36-.11-.44-.3Z"/>
    <path class="cls-60" d="M53.48,92.51c0-4.42-.01-8.84-.02-13.27,.2,.16,.22,.39,.22,.62,0,4.01,0,8.01,0,12.02,0,.23,.01,.46-.2,.63Z"/>
    <path class="cls-159" d="M55.06,71.91c.29,.22,.23,.55,.23,.84,0,2.7-.01,5.41-.02,8.11-.36-.56-.18-1.19-.19-1.78-.03-2.39-.02-4.79-.02-7.18Z"/>
    <path class="cls-78" d="M62.4,51.08c-1.43,.42-2.87,.74-4.38,.65,.77-.22,1.55-.45,2.32-.67,.69,0,1.37-.15,2.06,.02Z"/>
    <path class="cls-133" d="M59.23,108.79c.21,0,.42,0,.63,0,2.46-.66,4.93-.12,7.39-.05,2.95,.09,5.85-.39,8.77-.61,2.42-.18,4.89,.05,7.26-.67,1.26-.4,2.56-.65,3.85-.93,.9-.11,1.8-.3,2.7-.41,.19-.02,.37,.02,.51,.15,.65,.17,1.05-.64,1.71-.43-.37,1.19-1.47,1.41-2.43,1.79-.84,.34-1.75,.43-2.61,.69-.41,.02-.83-.01-1.2,.22,.52-.33,1.15-.06,1.68-.36,.93-.14,1.82-.4,2.69-.72,.34-.13,.68-.36,1.05-.07,.09,.09,.19,.18,.28,.27-1.42,.71-2.95,1.05-4.49,1.37-1.12,.23-2.24,.44-3.36,.66-4.86,.5-9.74,.73-14.63,.53-.76-.03-1.52-.03-2.28-.04-2.61-.36-5.26-.41-7.86-.91-.23-.05-.43-.11-.61-.25,.18-.6,.61-.27,.95-.24Z"/>
    <path class="cls-84" d="M55.28,68.01c.23-2.85-.44-5.69-.15-8.55,.05-.5-.26-1.03-.77-1.32-.41-.54-.21-1.17-.19-1.75,.03-.93-.07-1.72-1-2.21-.2-.11-.29-.43-.43-.65,.81-.87,1.95-.92,3-1.16-.1,.36-.65,.19-.77,.72,.99-.16,1.91-.31,2.83-.46,.23,0,.46,.01,.69,.02-.12,.73-.77,.61-1.23,.73-1.27,.33-1.32,.32-.85,1.51,.43,1.08,.58,2.17,.5,3.31,.32,2.19,.37,4.4,.32,6.61-.01,.65-.07,1.31-.31,1.91-.7,1.77-.89,3.61-.85,5.49,0,.34-.01,.68-.19,.98-.09,.13-.2,.15-.34,.07-.08-1.75-.17-3.5-.25-5.25Z"/>
    <path class="cls-42" d="M59.23,108.79c-.3,.15-.7-.07-.95,.24-1.19-.16-2.37-.33-3.47-.87-.06-.25,.02-.37,.29-.3,1.34,.5,2.78,.53,4.14,.92Z"/>
    <path class="cls-25" d="M55.1,107.86c-.1,.1-.19,.2-.29,.3-.36-.17-.71-.35-1.07-.52,.54-.47,.91,.08,1.35,.22Z"/>
    <path class="cls-85" d="M55.27,97.99v1.36c.69-2.34,.4-4.73,.49-7.09,.02-.52-.18-1.07,.18-1.55,.46,.4,.37,.96,.38,1.47,.02,1.96-.07,3.92,0,5.87,.04,.11,.07,.23,.09,.35,.12,.69,.11,1.36-.49,1.94,.66-.24,1.28-.33,1.92-.27,.17,.01,.34,.04,.5,.09,.14,.05,.28,.12,.43,.14,1.49,.18,2.39,.95,2.57,2.48,.07,.36-.01,.69-.24,.98-.46,.2-.57-.22-.74-.46-.29-.4-.65-.69-1.08-.92-.23-.14-.48-.23-.74-.3-1.23-.29-1.83,.12-1.85,1.39-.01,.67-.16,1.03-.9,.9-.1-.05-.19-.12-.25-.21-.02-.05-.04-.11-.05-.16,.02-.49-.03-.97-.3-1.43-.09,.19-.16,.35-.24,.52-.05,0-.1,0-.15-.01,.16-1.69,.31-3.39,.47-5.08Z"/>
    <path class="cls-152" d="M53.68,99.38c.15,.1,.29,.2,.44,.3,0,1.22-.03,2.45,.05,3.68-1.19-1.08-.53-2.46-.69-3.7,.06-.09,.13-.19,.19-.28Z"/>
    <path class="cls-80" d="M54.58,106.78c-.17-.14-.34-.29-.51-.43,.17-.25,.33-.51,.5-.76,.15-.67,.85-.77,1.22-1.21,.33-.03,.67-.08,.92,.21,.32,.59-.03,.91-.49,1.18-.39,.23-.83,.37-1.09,.78-.15,.17-.35,.2-.56,.23Z"/>
    <path class="cls-122" d="M54.14,104.93c-.11-.31-.17-.94-.09-.89,.53,.31,.98-.83,1.44-.03,0,0,.04,.01,.04,.01,.03,1-.46,1.31-1.39,.92Z"/>
    <path class="cls-91" d="M54.14,104.93c.73,.1,1.36,.04,1.39-.92,.08,.07,.16,.14,.24,.2,.07,.06,.09,.12,.06,.18-.03,.05-.05,.08-.08,.08-.02,.76-.81,.71-1.18,1.11-.62-.11-.69-.22-.44-.66Z"/>
    <path class="cls-8" d="M109.1,96.17c-.13,.46-.5,.71-.87,.94-.43-.22-.83-.32-1.27,.01-2,1.54-4.4,1.92-6.79,2.27-1.97,.29-3.96,.67-5.97,.25-.65-.14-1.15,.36-1.74,.44-.1-.08-.14-.19-.13-.32,.2-.99,1-1.07,1.77-1.1,1.14-.04,2.29-.2,3.42-.21,2.13-.02,4.15-.53,6.17-1.09,.37-.1,.74-.28,1.11-.28,1.38,.03,2.14-.86,2.82-1.85,.97-1.4,2.13-2.74,1.9-4.64-.02-.15-.04-.3-.26-.41-.47,.27-.63,.8-.87,1.25-.41,.74-.81,1.48-1.39,2.09-.36,.38-.78,.71-1.19,.03-.17-.66,.24-1.11,.59-1.58,.26-.31,.38-.67,.44-1.06,.28-1.19,.81-2.3,1.06-3.5,.06-.29,.14-.61,.51-.69,.14,.08,.3,.11,.35-.09,.31-1.34,.8-2.59,1.57-3.76,.51-.78,.41-1.77,.5-2.67,.26-2.73,.86-5.42,.86-8.17,0-1.14-.03-2.29-.47-3.36-.35-.85-.26-1.55,.5-2.12,.71,.29,.52,1.01,.68,1.54,.13,.42,.24,.86,.27,1.31,.04,1.15,.36,2.28,.25,3.45,0,1.33,0,2.65,0,3.98-.02,.61,.03,1.23-.07,1.84-.29,.77-.17,1.58-.25,2.37-.28,2.5-1.04,4.9-1.38,7.38-.14,.98-.24,1.96,.11,2.93,.1,1.6-.88,2.75-1.67,3.97-.18,.28-.55,.43-.54,.83Z"/>
    <path class="cls-73" d="M92.43,99.87c.01,.07,.02,.15,.04,.22,.02,.26,.2,.39,.41,.48-.17,.28-.46,.2-.71,.23-.51-.25-.37-.76-.47-1.18-.25-.31-.18-.67-.16-1.03,.14-.38,.11-.85,.55-1.07,.13,.02,.22,.09,.28,.2,.26,.7,.07,1.42,.07,2.14Z"/>
    <path class="cls-45" d="M92.91,58.86c2.28,0,4.57-.02,6.85-.03,.74-.21,1.47-.06,2.21,.01,1.34,.39,2.73,.59,4,1.19,.47,.22,1,.37,1.19,.95,0,.33-.31,.44-.44,.68,.19,.84,.79,1.46,1.13,2.22,.82,1.86,1.27,3.82,1.5,5.83,.49,4.21,.27,8.41-.08,12.61-.03,.42,.02,.96-.59,1.09-.86-.42-.92-1.24-.98-2.04-.32-3.97-.42-7.96-.75-11.93-.09-1.06,.27-2.33-.78-3.19-1.3-1.56-2.78-2.77-4.99-2.55-.22,0-.44,0-.67,0-.25-.03-.53,0-.63-.19,.37,.48,1.02,.49,1.63,.61,.25,.09,.42,.25,.45,.52,.03,.5-.18,.88-.69,.81-1.8-.23-3.61,.07-5.4-.23,.07-.84-1.1-.93-1.07-1.75,.16-.61,.67-.52,1.12-.53,2.77-.06,5.54-.31,8.47,.28-.91-1.04-2-1.39-3.1-1.48-1.85-.15-3.72-.15-5.58,.03-.87,.08-1.51,.41-1.89,1.21-.62-.13-.49-.65-.55-1.06-.03-.65,.06-1.31-.1-1.96-.04-.38-.42-.69-.25-1.12Z"/>
    <path class="cls-162" d="M102.04,59.08c-.76-.06-1.55,.14-2.28-.24-1.31-.41-2.66-.45-4.01-.46-.45,0-1.17,.21-1.14-.52,.02-.61,.46-1.13,1.23-1.08,.94,.06,1.88,.13,2.83,.2,3.61,.51,7.27,.87,10.36,3.13,1.56,1.14,2.6,2.63,3.17,4.46,.15,.37,.3,.74,.45,1.11,.11,.36,.04,.61-.4,.6-.81-.6-.75-1.66-1.28-2.42-.17-.52-.43-1-.71-1.46-1.62-1.84-3.58-2.99-6.11-2.97-.72,0-1.39-.3-2.1-.36Z"/>
    <path class="cls-143" d="M86.66,60.93c.77,.78,1.13,.24,1.43-.45,.26-1.12,.23-2.31,1.31-3.15,.76-.59,1.35-.8,2.06-.04,.45,.48,1.24,.69,1.25,1.53-.47,.27-.71-.29-1.1-.3-.25-.06-.48-.16-.67-.34-.72-.35-.46,.3-.53,.55-.13,.43,.11,1.04-.63,1.14-.32-.03-.46-.39-.78-.46-.31,.38-.18,.87-.31,1.29-.24,.75-.7,1.17-1.49,1.12-.82-.05-1.17-.57-1.26-1.34-.06-.47,.13-.99-.27-1.4-.57-.44-1.03-.48-1.29,.33-.07,.22-.17,.43-.48,.37-.27-.43-.45-1-1.18-.65-.32,.15-.79,.5-1.01,.14-.29-.46,.38-.61,.59-.92,1.1-.76,2.3-.51,3.48-.28,.56,.11,.73,.55,.71,1.12-.02,.58-.3,1.2,.17,1.74Z"/>
    <path class="cls-125" d="M91.71,58.43c.5-.31,.6,.45,1.01,.38,.06,0,.13,.02,.19,.05,.16,.28,.31,.57,.47,.85-.1,.16-.25,.19-.42,.18-.48-.17-.76-.59-1.14-.88-.15-.17-.26-.35-.11-.58Z"/>
    <path class="cls-77" d="M90.27,102.83c-.36,.49-.11,.82,.3,1.11-.67,.33-1.34,.65-2.02,.98-.41,.69-1.1,.5-1.72,.53-.36-.06-.83-.03-.89-.51-.05-.46,.4-.58,.73-.74,.24-.11,.48-.22,.68-.4,.27-.25,.4-.55,.31-.91-.1-.36-.37-.57-.73-.62-.41-.06-.83-.07-1.23,.06-.99,.21-1.48,1.19-2.38,1.54-.1,.03-.21,.04-.32,.03-.16-.03-.28-.12-.39-.24-.3-.36-.77-.43-1.15-.66-.2-.11-.42-.19-.58-.36-.11-.11-.21-.24-.16-.4,.06-.22,.27-.26,.46-.26,.43,0,.82,.18,1.21,.3,.52,.16,.8-.02,.85-.56,.26-.84,.99-1.12,1.72-1.36,1.42-.47,2.86-.83,4.28,.03,.18,.16,.34,.26,.55,.02,.2-.22,.38-.15,.52,.1,.13,.77,.28,1.54-.05,2.3Z"/>
    <path class="cls-43" d="M90.35,106.28c-.14,.02-.27,.04-.41,.06-2.89,.53-5.81,.27-8.72,.23-.21-.05-.39-.13-.51-.32-.02-.15,.03-.26,.16-.33,1.07-.28,2.14-.52,3.26-.31,1.7,.32,3.39,.13,5.08-.17,.42,.13,.86,.2,1.25,.39,.53,.25-.12,.29-.11,.46Z"/>
    <path class="cls-124" d="M86.94,108.14c1.82-.5,3.74-.78,5.12-2.28,.22-.19,.45-.38,.78-.67-.12,1.17-.87,1.69-1.61,2.22-1.26,.39-2.5,.85-3.82,1-.23,.05-.51,.18-.46-.26Z"/>
    <path class="cls-27" d="M89.21,105.43c.01,.11,.04,.3,.04,.3-1.69,.24-3.37,.61-5.07,.12,.31-.36,.8-.41,1.18-.64,.44-.2,.91,.26,1.34-.05,.63-.01,1.26,.07,1.85-.24,.09,.33,.33,.47,.66,.51Z"/>
    <path class="cls-110" d="M109.1,96.17c-.31-.31,.02-.46,.16-.65,.88-1.19,1.62-2.45,1.94-3.92-.13-.21-.12-.45-.06-.66,.68-2.43,.99-4.92,1.39-7.4,.06-.38,.13-.82,.47-1.01,.39-.21,.42,.08,.29,.39-.51,3.7-.78,7.46-2.36,10.93-.51,.85-1.11,1.64-1.83,2.32Z"/>
    <path class="cls-145" d="M113.3,82.92s-.02-.08-.04-.11c-.04-.05-.09-.09-.14-.13-.37,.76-.36,1.6-.49,2.41-.35,2.2-.63,4.41-1.42,6.51-.79-.85-.54-1.92-.38-2.83,.34-1.89,.59-3.8,1.16-5.66,.31-1.03,.26-2.17,.37-3.26,.04-.37-.11-.77,.22-1.08,.36,1.43,0,2.81-.2,4.36,.38-2.06,.4-4,.46-5.94,.13-.44,.07-.9,.17-1.34,.08-.38,.2-.77,.74-.52,0,1.23,.02,2.46,.02,3.68-.03,.52-.05,1.05-.08,1.57-.43,.72,.03,1.6-.41,2.32Z"/>
    <path class="cls-63" d="M113.76,75.34c-.53,.05-.46,.46-.48,.82-.02,.35,.11,.74-.22,1.02-.36-.39-.22-.87-.23-1.31-.06-2.1,.13-4.2-.17-6.29-.21-1.14-.73-2.23-.49-3.43,.35,.04,.4-.23,.47-.47,1.14,3.13,1.18,6.39,1.11,9.66Z"/>
    <path class="cls-41" d="M91.77,98.48c-.02,.38-.05,.77-.07,1.15-.25,.14-.42,.11-.41-.22,0-.39-.07-.73-.47-.92-.27-.27-.59-.51-.41-.97,.98-.79,1.13-1.79,.48-3.33,.01-.25,.13-.45,.3-.63,.16-.12,.32-.22,.53-.13,.35,.3,.31,.72,.34,1.11,.02,1.32,.04,2.63-.28,3.93Z"/>
    <path class="cls-130" d="M90.36,97.6c.25,.24,.54,.47,.45,.89-.1,.8,.2,1.6-.01,2.39-.21,.39-.12,.78,0,1.17,0,.23,.03,.45,.01,.67,0,.13-.04,.34-.13,.38-.22,.1-.3-.15-.42-.28-.29-.81-.07-1.66-.16-2.49-.18-.19-.19-.42-.16-.66,.37-.67-.32-1.47,.25-2.12,.06,.01,.11,.03,.17,.04Z"/>
    <path class="cls-48" d="M90.8,102.05c-.57-.03-.44-.47-.46-.81-.03-.34,.13-.47,.47-.36,.32,.39,.35,.78,0,1.17Z"/>
    <path class="cls-42" d="M83.5,107.68c-1.04,.52-2.22,.62-3.31,.62-4.9-.01-9.74,1.08-14.65,.74-1.65-.11-3.31-.45-4.97,0-.25,.07-.54,.02-.71-.24-.09-.14-.18-.27-.28-.41,.2-.24,.44-.26,.54-.21-.51-.08-1.2-.15-1.85-.36-.31-.1-.91-.1-.57-.75,1.27-.19,2.5,.14,3.7,.43,3.08,.77,6.2,.42,9.31,.53,1.15,.04,.48-.87,.77-1.27,.2-.21,.43-.23,.69-.14,.45,.59,1.04,.8,1.78,.75,1.04-.07,2.04-.23,3.01-.6,.38-.14,.74-.38,1.18-.35-.3-.08-.68,.18-.91-.19,0-.14,.05-.24,.17-.32,.97-.32,1.95-.22,2.93-.04,.36,.23,.41,.57,.19,.88-.58,.81,.04,.78,.55,.82,.42,.03,.83-.09,1.25-.14,.41-.05,.84-.13,1.17,.24Z"/>
    <path class="cls-117" d="M57.58,107.22c.97,.72,2.36,.32,3.34,1.2-.51,.29-.91-.24-1.33-.03-1.73-.35-3.51-.55-5.01-1.61,.07-.26,.29-.23,.48-.26,.4-.29,.77-.03,1.16,.04,.46,.2,1.05,.15,1.36,.66Z"/>
    <path class="cls-65" d="M87.15,47.22c0-1.41,.32-1.75,1.7-1.41,1.78,.43,3.4,1.3,4.88,2.38,.75,.55,1.14,3.23,.7,4.07-.17,.32-.41,.51-.77,.62-1.89,.6-3.49,.15-4.67-1.5-.89-1.24-2.02-2.42-1.84-4.15Z"/>
    <path class="cls-131" d="M82.31,58.35c-.17,.27-.34,.54-.56,.88,1.94-.91,2.13-.86,2.2,.52,.22,.19,.29,.46,.25,.72-.25,1.57-.03,3.15-.23,4.72-.42,1.19,.1,2.46-.32,3.64-1.26,1.05-3.08,.85-4.3-.47-.16-.38,.11-.54,.37-.69,.29-.17,.62-.27,.77-.61,1.33-.88,1.41-2.2,1.1-3.53-.29-1.2-.1-2.42-.3-3.62-.11-.65,.21-1.35,1.03-1.56Z"/>
    <path class="cls-16" d="M80.48,67.07q-.13,.63-1.13,.98c-.78,.38-1.22-.11-1.65-.64-.82-1.2-.61-2.54-.44-3.85,.21-1.62,.24-3.24,.15-4.86-.52-2.1-2.35-3.26-4.42-2.78-.15,.03-.3,.03-.45,.01-.16-.03-.31-.07-.45-.15-.14-.08-.17-.26-.32-.32,0,0,.02-.08,.02-.08,2.27-1.04,4.82-.37,6.57,1.94,.23,.3,.48,.58,.73,.86,.45,1.99,.04,3.95-.19,5.92-.23,.81-.08,1.63-.08,2.44,0,.42,.23,.6,.54,.77,.16,0,.32-.01,.48-.02,.22-.08,.43-.15,.65-.23Z"/>
    <path class="cls-2" d="M71.77,55.46c.1,.07,.2,.15,.3,.22,.16,.25,.13,.48-.06,.7-.51,.35-1.1,.26-1.66,.23-.84-.05-1.58,.12-2.17,.74-.11,.06-.23,.11-.36,.14-.94,.05-1.86,.26-2.81,.31-1.35,.08-2.61-.24-3.87-.67-.91-.34-1.74-.13-2.58,.28-.58,.29-1.16,.76-1.9,.5-.24-.04-.57-.22-.39-.4,1.2-1.18-.13-2.09-.45-2.95-.34-.89-.12-1,.54-1.26,.7-.27,1.52-.11,2.13-.66,.42,0,.83-.02,1.24,.13,.43,.16,1.02,.27,1.33,0,1.41-1.21,2.64-.49,3.92,.22,.69,.38,1.42,.79,2.25,.36,.18,.81-.37,.89-.93,.89-.99-.01-1.83,.46-2.73,.73-.52,.16-.55,.45-.05,.76,.78,.48,1.6,.67,2.5,.57,1.89-.22,3.74-.79,5.68-.65,.02,0,.04-.13,.06-.2Z"/>
    <path class="cls-131" d="M79.36,67.31c-.55,0-.99-.09-.75-.83,.25-.77-.19-1.63,.29-2.38,0,1.09-.12,2.2,.46,3.21Z"/>
    <path class="cls-56" d="M61.02,56.78c1.44,.45,2.88,.85,4.42,.69,.82-.09,1.62-.37,2.47-.23,.07,.19-.03,.27-.19,.32,.1,.05,.17-.02,.26-.04,.67-.16,1.35-.3,2.13-.39-.73-.12-1.32,.41-1.98,.1,.28-.69,.83-.91,1.53-.9,.79,0,1.59,0,2.38,0,.05,.05,.09,.1,.14,.15,.32,.85,.12,1.74,.17,2.61,.03,.57-.02,1.15,.18,1.7,.06,2.12,.19,4.24-.07,6.35-.26,.43-.5,.17-.72-.04-.73-.68-1.56-.8-2.54-.67-1.21,.17-2.43,.14-3.64-.15-1.82-.43-2.22-.21-2.97,1.45-.16,.36-.34,.71-.84,.59-.16-.12-.23-.28-.28-.46,.14-1.46-1.1-1.03-1.79-1.24-.79-.24-1,.42-1.17,1.05-.21,.75-.16,1.51-.14,2.26,.02,1.07-.24,2.03-.99,2.81-.87,.91-1.22,1.98-1.06,3.22,.02,.78,.03,1.56,0,2.34,0,.61,.04,1.22-.04,1.82-.05,.21-.13,.4-.31,.52-.37-1.37-.06-2.77-.22-4.15-.15-1.06-.15-2.12,0-3.19,.01-.31,.03-.62,.04-.92,.84-1.01,1.23-2.17,1.3-3.47,.07-1.28,.42-2.53,1.04-3.61,.87-1.51,.55-3.02,.42-4.56,0-.08-.03-.15-.05-.22-.55-2.51-.17-3.09,2.35-3.62,.07-.02,.13-.07,.2-.11Z"/>
    <path class="cls-161" d="M56.19,98.48c-.39-.46-.23-1.02-.23-1.53-.03-2.08-.02-4.16-.02-6.25,.02-2.45,.04-4.89,.06-7.34,.61,.14,.5,.66,.53,1.07,.04,.59-.02,1.19,0,1.78,.02,.33-.02,.65,0,.98-.12,1.01,.14,1.68,1.11,2.32,1.84,1.23,1.46,3.43-.69,4.9-.6,.44-.34,1.09-.41,1.66-.1,.8,.25,1.67-.35,2.4Z"/>
    <path class="cls-90" d="M56.22,86.34c-.14-.98,.2-2.01-.23-2.97-.02-.91-.03-1.82-.05-2.73,.03-.15,.06-.3,.09-.45,.62-.21,1.22-.12,1.82,.07,1.72,1.71,1.5,3.76-.6,5-.49,.29-.39,1.01-1.03,1.08Z"/>
    <path class="cls-159" d="M55.73,73.3c0,1.06,0,2.12,0,3.19-.42-1.06-.12-2.15-.19-3.23,.06,.01,.13,.03,.19,.04Z"/>
    <path class="cls-53" d="M83.5,107.68c-.88-.16-1.7,.29-2.57,.23-.46-.03-.97,.02-1.16-.49-.18-.49,.33-.57,.6-.8,.11-.09,.09-.34,.13-.52,.08-.07,.15-.08,.23,0,.08,.07,.15,.15,.23,.22,1.13,.35,2.3,.27,3.45,.24,.94-.03,1.87-.06,2.78,.22-1.23,.3-2.46,.6-3.69,.9Z"/>
    <path class="cls-36" d="M87.19,106.78c-1.74-.16-3.48,.3-5.21-.02-.38-.07-.89,.19-1.02-.44,2.99-.19,5.99,.29,8.98,.02-.9,.28-1.82,.4-2.75,.44Z"/>
    <path class="cls-108" d="M86.94,108.14c.15,.09,.31,.17,.46,.26-.75,.34-1.54,.3-2.34,.28,.59-.34,1.19-.59,1.88-.54Z"/>
    <path class="cls-46" d="M61.02,56.78c-.35,.75-1.22,.51-1.81,.96-.77,.59-.86,1.19-.62,1.83,.47,1.25,.21,2.57,.54,3.83,.05,.19-.03,.47-.13,.65-1.14,2.02-1.56,4.24-1.9,6.5-.11,.76-.38,1.58-1.33,1.82-.09-1.88,.1-3.69,.74-5.49,.75-2.13,.43-4.38,.27-6.57-.06-.8-.05-1.59-.11-2.39,.9-.4,1.84-.74,2.7-1.22,.62-.34,1.11,.15,1.66,.08Z"/>
    <path class="cls-115" d="M59.42,102.16c.84,.23,1.11,1.03,1.6,1.62,1.12-1.24,2.71-1.59,4.2-1.83,2.1-.33,4.26-.28,6.13,1.07,.24,.18,.53,.3,.84,.34,.12,.02,.23,.07,.33,.14,.1,.15,.12,.32,.07,.49-.16,.39-.58,.57-.79,1.04,.57,.17,1.2-.06,1.73,.23,.16,.13,.22,.29,.16,.49-.35,.46-.83,.36-1.3,.29-1.31-.25-2.64-.34-3.98-.37-3.32-.06-6.6-.44-9.85-1.15-.51-.11-.94-.35-1.14-.85-.2-.48-.23-.98,.07-1.43,.28-.42,.74-.33,1.15-.25,.26,.05,.54,0,.78,.16Z"/>
    <path class="cls-74" d="M61.23,102.81s-.1-.03-.1-.04c-.2-1.71-1.63-1.96-2.88-2.42,.3-.35,.71-.3,1.1-.33,.38-.01,.75,.01,1.11,.11,.41,.2,.67,.21,.77-.36,.16-.94,.6-1.81,.71-2.76,.04-.33,.16-.75,.56-.76,.41-.01,.5,.41,.59,.74,.1,.41,.12,.83,.27,1.23,.62,1.63,1.43,2.19,3.19,2.16,.38,0,.76,.1,1.14,.11,.34,.01,.67,.02,.97-.22,.94-.76,.94-.75,1.7,.05,.35-.82,.48-1.7,.85-2.49,.18-.39,.34-1.05,1.02-.49,.25,1.13,.07,2.27,.13,3.4-.01,.4,.02,.82-.19,1.19-.49,.59-1.05,.38-1.66,.19-2.56-.79-5.12-.95-7.64,.17-.52,.23-1.06,.41-1.62,.54Z"/>
    <path class="cls-28" d="M59.42,102.16c-.27,0-.53,0-.8,.01-.47,.02-1.04-.15-1.05,.66,0,.66,.07,1.24,.85,1.38,3.65,.68,7.32,1.22,11.05,1.18,1.02-.01,2.02,.11,2.99,.43-.26,.31-.61,.33-.98,.33-1.44,0-2.88,0-4.31,0-2.57,.04-5.08-.49-7.42-.8,.61,.1,1.38,.35,2.18,.47,.25,.04,.54,.13,.47,.51-.47,.36-1.01,.31-1.52,.21-.99-.21-1.98-.44-2.95-.74-.61-.18-1.05-.52-1.32-1.08-.25-.19-.53-.32-.86-.25,0-.09,.01-.17,.02-.26,.27-.07,.79,.17,.67-.42-.43-2.06,1.33-2.65,2.98-1.64Z"/>
    <path class="cls-69" d="M61.23,102.81c1.05-.83,2.22-1.52,3.57-1.56,2.1-.07,4.27-.41,6.23,.74,.37,.21,.66-.07,.99-.03,.33,.29,.28,.72,.39,1.09,.02,.17,0,.34-.1,.49-.41,.49-.69,.01-.95-.16-2.38-1.55-4.89-1.68-7.51-.73-.95,.35-1.89,.75-2.83,1.13,.07-.32,.14-.64,.21-.96Z"/>
    <path class="cls-102" d="M59.42,100.33c-.39,0-.78,0-1.17,.01-.15-.01-.31-.02-.46-.04-.13-.08-.28-.12-.43-.09-.85,.15-1.19-.19-1.04-1.05,.04-.21,.06-.45-.11-.65,0,0-.02-.04-.02-.04,0-1.16,.02-2.32,.01-3.47,0-.49,.02-.93,.69-.86,.44,.49,.94,.92,1.32,1.47,.16,.71,.05,1.44,.2,2.15,.19,.92-.05,1.99,1.01,2.56Z"/>
    <path class="cls-161" d="M56.21,98.53c.05,.05,.15,.11,.15,.15-.14,1.1,.47,1.52,1.44,1.63-.78-.07-1.48,.09-2.07,.76-.57-1.08,.83-1.64,.49-2.54Z"/>
    <path class="cls-39" d="M56.61,104.73c1.75,1.16,3.72,1.5,5.77,1.56,.77-.49,1.55-.47,2.33,0-.05,.52-.48,.56-.84,.57-2.56,.08-5.13,.5-7.68-.07-.37-.09-.75-.17-1.12-.26-.37-.55,.2-.47,.41-.65,.4-.35,1.29-.23,1.13-1.14Z"/>
    <path class="cls-38" d="M92.43,99.87c-.32-.74-.31-1.51-.16-2.29,.4-.41,.92-.3,1.4-.31,1.86-.05,3.71,.06,5.57-.24,2.45-.39,4.62-1.22,6.15-3.3,.13-.18,.29-.36,.57-.28,.54,.81,.81-.01,.97-.25,.63-.94,1.18-1.94,1.75-2.91,.19-.33,.39-.74,.82-.68,.56,.08,.31,.6,.35,.94,.27,2.19-1.14,3.67-2.26,5.26-.64,.9-1.47,1.3-2.62,1.61-3.62,.98-7.25,1.53-10.98,1.52-.69,0-1.23,.28-1.54,.91Z"/>
    <path class="cls-99" d="M106.42,61.34l.66-.21c.71-.33,1.09,.19,1.51,.6,.99,1.49,1.33,3.25,1.89,4.98,.69-.49,.18-1.37,.82-1.73,.48,.46,.67,.98,.39,1.62-1,1.36,.19,2.62,.24,3.93,.08,2.05-.08,4.06-.33,6.07-.21,1.69-.43,3.37-.61,5.06-.09,.85-.28,1.65-.91,2.27-.64,.63-.61,1.53-.89,2.3-.17,.46-.25,.94-.67,1.38-.03-.34-.06-.59-.08-.84-.45-.85-.47-1.67,.13-2.46,.42,0,.52-.26,.61-.64,1.6-6.25,1.32-12.46-.33-18.64-.33-1.22-.94-2.23-1.97-3-.21-.16-.59-.27-.45-.69Z"/>
    <path class="cls-165" d="M108.74,84.28c-.52,.78-.2,1.66-.3,2.48-.45,1.46-.9,2.93-1.36,4.39-.61-.05-.59-.6-.73-.99-.6-1.62-1.15-3.27-2.62-4.37-.15-.55-.08-1.03,.45-1.36,.76,.05,1.21,.57,1.67,1.09,.19,.21,.29,.62,.68,.48,.32-.12,.37-.48,.39-.78,.13-1.56,.12-3.12,0-4.68-.23-3.3-.72-6.59-.61-9.91,.04-1.18,0-2.36-.28-3.52-.1-.41-.21-.82,.14-1.18,.69,.45,.85,1.03,1,1.9,.63,3.54-.04,7.16,.76,10.67,.18,.8,.09,1.67,.06,2.51-.03,.87,.18,1.66,.71,2.35,.26,.29,.26,.59,.03,.89Z"/>
    <path class="cls-101" d="M103.92,85.9c1.71,.52,1.78,2.22,2.46,3.47,.3,.56,.3,1.25,.71,1.78-.02,.37-.16,.69-.44,.93-.41-.12-.52,.92-1.06,.27,0-1.03-.07-2.05-.54-2.99-.33-.66-.71-.64-1.03,0-.31,.61-.62,1.22-.93,1.83-.7,1.37-1.87,1.99-3.31,2.35-1.87,.46-3.76,.48-5.66,.45-.82-.01-1.49-.28-1.87-1.06-.14-.58-.22-1.17,.1-1.72,.1-.1,.22-.12,.36-.06,.4,.71,1.04,.86,1.81,.85,.81,0,1.65-.18,2.44,.21,.15,.61-.31,.54-.65,.55-.68,.03-1.37,0-2.05,0,1.58,.01,3.16,.03,4.73-.31,1.24-.27,2.29-.78,3-1.87,.67-1.07,1.07-2.25,1.39-3.47,.11-.43,.15-.91,.55-1.22Z"/>
    <path class="cls-139" d="M105.74,92.55c.25-.13,.34-.38,.47-.61,.26-.43,.37-.15,.43,.15-.29,.43-.66,.82-.69,1.38-1.95,3.14-5.11,3.84-8.44,4.08-1.74,.12-3.5,.03-5.24,.04-.05,.02-.1,.03-.15,.03-.09-.19-.07-.37,.06-.54,.86-.4,1.78-.25,2.68-.27,2.64-.06,5.19-.47,7.58-1.66,1.14-.4,2.12-1.01,2.66-2.15,.16-.23,.35-.43,.65-.45Z"/>
    <path class="cls-10" d="M112.83,69.38c.4,.46,.2,1.02,.21,1.53,.03,2.09,.02,4.18,.02,6.27-.06,1.99-.23,3.97-.59,5.93-.22-1.45,.33-2.88,.11-4.33,0-.6,.02-1.21,.03-1.81,.17-1.39,.16-2.78,0-4.16-.08-1.14-.15-2.28-.23-3.42,.58,.19,.24,.61,.28,.91,.19-.24-.09-.64,.17-.92Z"/>
    <path class="cls-92" d="M112.83,69.38c-.01,.29-.03,.59-.05,1-.31-.34-.05-.8-.4-.99-.23-.93-.46-1.86-.68-2.79-.09-.55-.19-1.09-.47-1.58-.4-.26-.49-.64-.42-1.08,.07-.17,.16-.31,.38-.26,.43,.78,.72,1.62,.98,2.47,.22,1.08,.44,2.15,.66,3.23Z"/>
    <path class="cls-145" d="M112.61,72.8c.31,1.39,.33,2.78,0,4.16,0-1.39,0-2.78,0-4.16Z"/>
    <path class="cls-94" d="M92.24,97.1c-.04,.17-.08,.34-.13,.51-.12,.29-.23,.58-.35,.86,0-1.36,.01-2.73,.02-4.09,.27-.21-.33-1,.54-.82,.33,1.05,.17,2.12,.12,3.19-.04,.13-.11,.25-.21,.35Z"/>
    <path class="cls-166" d="M106.18,65.95c.85,3.51,.17,7.11,.69,10.64,.38,2.63,.52,5.28,.46,7.94,0,.34,.02,.7-.09,1.01-.16,.44-.1,1.11-.69,1.21-.58,.09-.63-.56-.85-.93-.38-.61-1.01-.91-1.56-1.3-.37-.72-.38-1.43,.03-2.14,.85-.12,1.39-.54,1.41-1.46,.11-4.4,.67-8.8-.13-13.2-.33-1.81-1.34-2.9-3.05-3.47-.46-.15-1.09-.15-1.25-.81,2.2-.22,3.81,.76,5.05,2.5Z"/>
    <path class="cls-6" d="M108.74,84.28c0-.3-.02-.59-.03-.89,.47-.47,.29-1.09,.31-1.63,.27-5.03,.64-10.06-.53-15.03-.43-1.81-1.19-3.45-2.26-4.96-.23-.33-.22-.34,.19-.43,1.74,.89,2.51,2.46,2.94,4.25,1.41,5.97,1.74,11.95,.14,17.94-.13,.5,.08,1.09-.4,1.54-.13-.28-.25-.54-.36-.79Z"/>
    <path class="cls-153" d="M101.13,63.44c.73,.6,1.72,.43,2.53,.95,1.63,1.06,2.08,2.61,2.28,4.36,.27,2.35,.22,4.69,.1,7.05-.07,1.37-.16,2.78-.09,4.18,.03,.58-.12,1.13-.2,1.69-.14,.98-.64,1.08-1.42,.76-.31-.31-.25-.72-.21-1.08,.23-2.14,.35-4.29,.61-6.43,.3-2.5,.33-5.07-.49-7.52-.25-.76-.77-1.46-1.32-2.09-.3-.35-.61-.69-1.1-.78-.16-.07-.31-.13-.47-.2-.28-.21-.65-.18-.95-.35-.4-.22-.24-.39,.05-.55,.22,0,.45,0,.67,0Z"/>
    <path class="cls-49" d="M93.8,62.95c-.18-1.01,.31-1.32,1.26-1.4,2.61-.22,5.22-.54,7.8,.26,.78,.25,1.46,.65,1.97,1.3,.12,.15,.23,.32,.14,.52-.11,.24-.3,.14-.48,.08-2.67-.91-5.42-.52-8.14-.39-.44,.02-1.18-.65-1.41,.34-.54,.27-.87-.04-1.19-.41-.05-.12-.03-.22,.05-.32Z"/>
    <path class="cls-100" d="M108.49,61.83c-.46-.25-.83-.68-1.41-.7-.8-.9-1.95-1.06-3.01-1.43-.67-.24-1.42-.21-2.04-.62,1.85-.06,3.68,.01,5.42,.76,1.25,.54,2.22,1.42,3.04,2.5-.07,.18-.03,.43-.31,.45-.59-.28-.87-1.1-1.69-.97Z"/>
    <path class="cls-52" d="M92.81,59.7c.19,0,.38,0,.57,0,.31,.68,.14,1.4,.18,2.1-.31,.28-.62,.58-1.04,.16-.22-.8-.49-1.6,.28-2.27Z"/>
    <path class="cls-50" d="M93.84,63.17c.37,.17,.73,.34,1.1,.51,.41,.33,.82,.66,1.25,1-.2,.11-.39,.21-.58,.32-.21,.02-.42,.04-.63,.06-.18,.11-.28,0-.36-.14-.08-.61-.77-.62-1.04-1.05-.1-.3-.4-.67,.26-.69Z"/>
    <path class="cls-125" d="M93.84,63.17c-.4,.21-.12,.46-.03,.7-.07,.07-.16,.12-.26,.12-.34-.36-.66,.41-1,.02-.26-.68-.39-1.34,.15-1.95,.29-.08,.58-.17,.87-.25,.03,.39-.13,.82,.23,1.14,0,.07,.02,.15,.04,.22Z"/>
    <path class="cls-166" d="M100.46,63.45c-.19,.79,.81,.38,.9,.89-.67,.05-1.23-.15-1.71-.72,.26-.28,.55-.17,.82-.17Z"/>
    <path class="cls-13" d="M110.31,62.73c.03-.15,0-.32,.19-.39,.23,.45,.47,.89,.7,1.33-.08,.09-.17,.17-.25,.26-.56-.22-.77-.62-.63-1.2Z"/>
    <path class="cls-163" d="M85.77,58.84c.8,.22,.4,.87,.43,1.33,.05,.69,.1,1.32,.95,1.41,.94,.1,1.25-.54,1.36-1.31,.07-.51-.14-1.26,.36-1.45,.61-.23,.47,.84,1.03,.95,.4,.43,.28,.92,.15,1.4-.97,3.42-1.06,6.92-.96,10.44,.02,.76,.15,1.43,.74,1.95,.19,2.05,.44,4.1-.14,6.13-.47,.1-.52-.3-.5-.54,.14-1.97-.87-3.67-1.26-5.52-.16-.74-.26-1.5-.53-2.21-.09-.24-.17-.51-.55-.57-.43,.49-.23,1.14-.36,1.71-.08,.34-.2,.74-.6,.7-.35-.03-.37-.44-.4-.73-.05-.49-.03-.99-.04-1.48,.08-3.64-.18-7.26-.19-10.89,0-.47-.25-1.1,.51-1.3Z"/>
    <path class="cls-127" d="M85.77,58.84c-.44,1.2-.31,2.47-.18,3.65,.32,2.91,.08,5.82,.18,8.73-.13,.07-.24,.05-.33-.07-.43-1.01,0-2.22-.74-3.17-.16-.2-.19-.54-.42-.66-.93-.5-.74-1.28-.58-2.06,0-1.84-.03-3.68,.24-5.51,.06-.09,.17-.17,.19-.26,.28-1.3,.51-1.39,1.63-.65Z"/>
    <path class="cls-34" d="M89.67,73.51c-.7-.07-.93-.46-.92-1.16,.03-2.24-.11-4.49,.05-6.72,.11-1.53,.57-3.03,.93-4.53,.11-.45,.18-.89,.17-1.34,.47-.51,.06-1.18,.31-1.74,.12-.27,.21-.61,.62-.52,.37,.08,.36,.32,.21,.6,.05,.3,.04,.6-.05,.89-.2,.73,0,1.49-.19,2.21-.28,.97,0,1.99-.22,2.97-.5,1.32-.33,2.71-.35,4.07-.02,1.48,.1,2.97-.23,4.44-.07,.3-.07,.61-.32,.83Z"/>
    <path class="cls-9" d="M90.77,58.76c.09-.22,.18-.44,.27-.66,.22,.11,.45,.22,.67,.33,0,.19,.04,.36,.22,.46,.17,.15,.19,.33,.12,.53-.22,.48-.66,.79-1.1,.58-.48-.23-.21-.8-.18-1.24Z"/>
    <path class="cls-154" d="M91.94,59.28c0-.13-.01-.25-.02-.38,.43,.12,.73,.38,.88,.81-.31,.77-.11,1.57-.11,2.36,0,.7-.19,1.41,.14,2.09,.37,.25,.47,.6,.35,1.02-1.13,.36-1.13-.6-1.22-1.19-.17-1.07-.3-2.16-.38-3.25-.04-.52,.24-.97,.36-1.45Z"/>
    <path class="cls-103" d="M89.23,100.78c-1.19-1.02-2.52-.57-3.76-.24-.78,.21-1.81,.31-2.02,1.43-.15,.11-.3,.11-.46,.01-.19-.28-.07-.54,.05-.8,.05-.1,.1-.21,.16-.31,.65-.88,1.7-1.38,2.17-2.45,.19-.44,.64-.29,.95,.04,.23,.25,.4,.55,.69,.75,.81,.57,1.3,.34,1.45-.64,.17-1.09,.02-2.19,.26-3.28,.17-.78-.81-1.8-1.72-1.97-1.52-.29-1.96-.81-1.99-2.39-.02-.99,0-1.98-.02-2.97,0-1.36,.01-2.72-.02-4.08-.02-.76-.04-1.51,.08-2.26,.31-.83,.04-1.72,.28-2.56,.57-.88,.58-1.86,.58-2.86,0-.44-.07-1.01,.49-1.16,.61-.16,.99,.28,1.27,.76,.55,.94,.58,2.04,.94,3.04,.35,.96,.68,1.93,1.07,2.88,.14,2.44,.03,4.87,.06,7.31,0,.53-.03,1.07,.14,1.58,.12,.62,.12,1.25,.09,1.88-.02,.55,.02,1.1-.09,1.64-.24,1.64-.64,3.27-.07,4.92,.18,.52,.06,1.05-.09,1.56-.08,.28-.28,.32-.52,.15Z"/>
    <path class="cls-67" d="M80.73,106.1l-.11-.02s-.11,.02-.11,.02c-1.06,0-2.12,0-3.17,0-.29,.22-.62,.28-.97,.26-.31-.01-.68,0-.82-.3-.18-.37,.24-.51,.44-.69,.43-.39,.76-.76,.67-1.44-.06-.46,.1-.97,.43-1.37,.14-.04-.16-.2-.04-.1-.51,.36-.97,.35-1.39-.15,.26-.5,.75-.47,1.19-.46,1.44,.04,2.97-.36,4.18,.84,.15,.15,.45,.01,.63,.19,.33,.31,1.09-.11,1.14,.68-.46,1.52-1.58,2.09-2.99,2.18,.25,.06,.57-.14,.88,0,.09,.07,.13,.16,.12,.28l-.06,.08Z"/>
    <path class="cls-58" d="M81.64,102.87c-1.59-.52-3.19-.91-4.89-.7-.37,.05-.77-.09-1.09,.22-1.03,.49-2.02,1.08-3.19,1.19-.06-.01-.11-.02-.17-.03-.03-.13-.06-.27-.09-.4,.05-.63,.43-1,.97-1.25,3.27-1.39,6.54-1.66,9.8,.05,.16,.01,.31,.02,.47,.03,.05,.64-.14,.96-.84,.7-.28-.1-.57-.2-.86-.26-.28-.05-.53-.33-.85-.13,.06,.44,.62,.23,.74,.58Z"/>
    <path class="cls-35" d="M80.75,105.83h-1.59c1.64-.1,2.71-1.06,3.63-2.28,.09,.08,.17,.16,.26,.25-.19,1.34,.77,.42,1.18,.59,.35-.01,.67-.14,1.01-.18,.68-.08,1.13-.39,1.25-1.11,.13-.78-.71-.55-.94-.94,.46-.39,1.02-.24,1.52-.18,.48,.06,.95,.26,1.01,.89,.05,.58-.08,1.06-.63,1.33-.3,.15-.64,.23-.94,.38-.17,.08-.51,.14-.32,.44,.07,.11,.34,.1,.52,.14-.4,.4-.91,.15-1.37,.23-1.54-.04-3.04,.43-4.58,.44Z"/>
    <path class="cls-126" d="M85.54,102.16c.45,.19,1.34-.41,1.32,.55-.01,.76-.17,1.63-1.25,1.74-.49,.05-.97,.15-1.45,.23-.09-.53-.61-.63-.92-.93,.79-.5,1.26-1.46,2.3-1.6Z"/>
    <path class="cls-66" d="M89.23,100.78c.88-.33,.46-1.03,.32-1.51-.52-1.72-.28-3.4,.07-5.09,.29,.19,.35,.49,.35,.8,0,1.55,.03,3.09,.18,4.63-.01,.24-.03,.49-.04,.73-.39-.05,.08,1.62-.88,.44Z"/>
    <path class="cls-33" d="M83.25,103.75c.5,.12,1.55-.31,.92,.93-.19,.01-.37,.02-.56,.04-.39,.03-.88,.45-1.13,.04-.26-.42,.42-.6,.56-.97,.07,0,.14-.02,.2-.04Z"/>
    <path class="cls-97" d="M80.75,105.83c1.17-.21,2.28-.79,3.51-.67,.36,.03,.77-.1,1.06,.23-.24,.51-.72,.44-1.15,.47-1.14-.18-2.25,.3-3.38,.16-.03-.06-.04-.12-.04-.19Z"/>
    <path class="cls-160" d="M91.52,93.43l-.18,.24c-.5-.2-.78-.62-.98-1.09-.14-.59-.12-1.2-.1-1.8,0-3.46,.37-6.9,.21-10.36,.07-.92-.01-1.83,.06-2.75,.04-.49,.19-.96,.76-.98,.6-.02,.71,.48,.75,.95,.06,.76,.01,1.53,.04,2.29,.02,3.5,0,7,.01,10.5,0,.61-.02,1.21,.08,1.82,.09,.53-.05,.99-.64,1.18Z"/>
    <path class="cls-14" d="M91.52,93.43c.35-.44,.39-.88,.33-1.47-.15-1.36-.12-2.74-.13-4.11,0-2.63,.01-5.27,.02-7.9,.21-.4,.12-.83,.1-1.24-.12-2.36-.08-4.71,.1-7.07,.13-.4,.14-.82,.21-1.24,.05-.3,.14-.65,.54-.61,.37,.04,.29,.38,.3,.63,.01,.19,0,.38,0,.57-.29,6.62-.58,13.23-.46,19.86,0,.12-.05,.22-.09,.33v1.82c.11,.14,.13,.29,.04,.45-.09,.08-.19,.08-.29,0-.37,.21-.12,.69-.41,.93-.09-.32,.04-.7-.26-.96Z"/>
    <path class="cls-62" d="M90.6,92.75c.28,.28,.67,.47,.74,.92-.1,.15-.21,.31-.31,.46-.04,.82-.21,1.61-.39,2.41-.09,.39-.13,.85-.71,.84-.34-1.56-.07-3.14-.14-4.7,.32-.49,.56-.19,.8,.08Z"/>
    <path class="cls-24" d="M90.09,97.32c.5-1.01,.26-2.24,.95-3.19,.82,.86,.46,1.92,.4,2.89-.03,.52-.61,.57-1.08,.58,0,0-.02-.04-.02-.04-.1-.06-.24-.08-.26-.24Z"/>
    <path class="cls-11" d="M90.09,97.32c.09,.08,.17,.16,.26,.24-.51,.64,.47,1.42-.19,2.05-.57-1.77-.47-3.61-.53-5.43,.03-.54,.06-1.08,.09-1.61,.07-.08,.14-.09,.21-.01,0,1.59-.25,3.19,.16,4.77Z"/>
    <path class="cls-4" d="M56.19,106.77c2.54,.12,5.07-.25,7.61-.27,.3,0,.61,.06,.87-.16,.86-.58,1.83-.16,2.74-.26,1.32-.13,2.62,.3,3.94,.44,.12,.05,.22,.13,.3,.23,0,.18-.09,.44,0,.54,1.11,1.29-.03,1.03-.72,1.06-4.31,.19-8.58-.12-12.79-1.14-.18-.04-.38-.01-.57-.02-.45-.2-.98-.12-1.39-.45Z"/>
    <path class="cls-82" d="M71.65,106.77c-.11-.03-.21-.05-.32-.08,.22-.65,.83-.48,1.29-.66,.34-.13,.94,.27,1.03-.44-.09-.07-.18-.14-.28-.21-.47-.35-.98-.67-.92-1.37,0-.15,.01-.3,.02-.44,1.02-.53,2-1.14,3.19-1.19,.53,0,1.06,0,1.69,0-.69,1.2-.03,2.88-1.8,3.63,.7,.03,1.24,.06,1.77,.08-.02,.06-.04,.11-.06,.17-.12,.16-.29,.28-.48,.29-1.51,.08-3.03,.16-4.54,.19-.2,0-.4,.02-.59,.03Z"/>
    <path class="cls-157" d="M72.25,106.74c1.63-.66,3.34-.38,5.02-.47,.38,.02,.75,.04,1.18,.07-1.65,1.07-3.43,1.4-5.32,1.36-.72-.02-.96-.29-.87-.95Z"/>
    <path class="cls-3" d="M77.94,67.35c.34,.5,.85,.65,1.42,.7,1.14,1.4,2.6,1.25,4.12,.88,.3,.27,.32,.62,.33,.98-.11,1.52,.22,3.05-.14,4.56-.54,.57-.81-.23-1.27-.27-2.05-.15-4.01-.74-5.96-1.4-.93-.31-1.96-.31-2.8,.45-.3,.27-.64,.62-1.07,.15-.31-1.47-.17-2.95-.09-4.43,1.2-1.96,2.24-2.39,4.36-1.73,.37,.12,.75-.02,1.11,.12Z"/>
    <path class="cls-32" d="M83.51,69.86c-.01-.31-.02-.62-.03-.93,.16-1.22-.24-2.47,.23-3.67,.04,.72-.25,1.5,.93,1.81,.29,.08,.95,1.31,.91,2.22-.03,.64,0,1.28,0,1.92,0,1.55,.66,3.08,.17,4.65-.26,.36-.52,.16-.56-.11-.17-1.3-.58-2.42-1.45-3.47-.47-.57,.02-1.62-.2-2.43Z"/>
    <path class="cls-131" d="M77.94,67.35c-.35,.17-.59,.55-1.12,.3-1.78-.84-2.35-.7-3.62,.76-.13,.15-.26,.26-.46,.28-.31-.24-.33-.58-.32-.93,.07-2.81,.21-5.61-.14-8.41-.06-.49-.2-1.07,.28-1.5,1.76-.11,3.49,.05,5.19,.52,.17,2.28-.03,4.55-.31,6.8-.1,.8,.25,1.47,.51,2.18Z"/>
    <path class="cls-104" d="M72.68,57.91c-.32,.36-.23,.81-.18,1.2,.41,3.19,.09,6.39,.23,9.57,0,1.6,0,3.21,.01,4.81,.54,.87,.24,1.83,.3,2.76,.04,1.01,.04,2.02,0,3.03,.05,3.01,.02,6.01,.02,9.02-.07,.58,.03,1.17-.11,1.75-.33,1.87-.05,3.75-.17,5.63-.03,.45,.19,1.09-.6,1.18-.25-.28-.26-.63-.25-.97,.05-5.44-.14-10.87-.01-16.31,0-.94-.05-1.88-.02-2.82,.09-.92-.04-1.85,0-2.77,.05-.78,.01-1.57,0-2.35,.04-1.01,0-2.03-.01-3.04,0-.45-.03-.91,.31-1.28,0-2.21,0-4.42-.01-6.64-.19-1.45,.09-2.92-.15-4.37,0,0-.03,0-.03,0,.01-.21,.03-.42,.04-.63,.14-.02,.29-.04,.43-.06,.32,.74,.56,1.49,.19,2.29Z"/>
    <path class="cls-147" d="M72.68,57.91c-.21-.75-.21-1.52-.19-2.29,1.77-.47,3.24-.02,4.44,1.38,.36,.42,.55,.91,.8,1.37-1.71,.07-3.4-.07-5.06-.46Z"/>
    <path class="cls-95" d="M68.11,57.22c.69-.22,1.37-.47,2.11-.44,.26,.01,.59-.03,.59,.36,0,.29-.29,.33-.52,.31-.95-.08-1.86,.45-2.83,.19,0-.28,.4-.16,.44-.4,.07,0,.14-.01,.21-.02Z"/>
    <path class="cls-128" d="M72.21,73.96c0,.92,0,1.83,0,2.75-.08,0-.19,0-.21-.05-.6-1.58-1.88-1.75-3.34-1.73-.97,.01-1.9-.5-2.93-.28-1.58,.35-3.02,1.06-2.82,3.3,.15,1.66,.01,3.35,.03,5.03-.08,.81,.19,1.65-.24,2.42-.12,.1-.25,.1-.38,0-.42-.69-.19-1.46-.24-2.19-.05-.71,.07-1.42-.16-2.11-.15-.86-.09-1.73-.1-2.6,.09-.88-.04-1.75-.19-2.61-.03-.18-.04-.42-.24-.48-.26-.07-.41,.15-.53,.34-.39,.65-.41,1.37-.45,2.1-.05,.86,.2,1.76-.24,2.58-.79,.44-1.57,0-2.36-.03-.59-.04-1.21,.13-1.77-.2,0-.61-.02-1.23-.03-1.84,.77-.63,1.58-1.18,2.51-1.55,.84-.33,1.27-.9,1.2-1.85-.07-.93,.13-1.81,.61-2.63,.45-.77,.48-1.67,.65-2.53,.09-.45,.17-.98,.85-.57,.4,.95,.07,2,.37,2.96,.06,.53,0,1.07,.08,1.74,.06-.84,.01-1.53,.05-2.23,.01-.18,.04-.35,.08-.52,.19-.82,.35-1.64,.69-2.41,.19-.44,.46-.81,.99-.83,.47-.01,.81,.29,.97,.69,.76,1.89,2.21,2.61,4.16,2.55,.19,0,.38,.05,.56,.1q2.2,.52,2.42,2.69Z"/>
    <path class="cls-47" d="M61.7,69.17c-.8,.21-.42,.89-.45,1.33-.09,1.35-1.16,2.36-1.2,3.72,0,.29-.09,.57,.01,.87,.2,.63-.08,1.27-.55,1.49-1.18,.56-2.19,1.46-3.49,1.76,0-.84-.01-1.69-.02-2.53,.4-.51,.7-1.1,1.21-1.5,1.1-.85,1.29-2.02,1.15-3.27-.08-.72-.02-1.44-.18-2.15-.08-.38,.04-.75,.22-1.1,.23-.44,.57-.72,1.09-.67,.54,.06,.62,.48,.68,.91,.02,.19,.01,.38,.17,.68,.22-.48,.11-.93,.23-1.32,.12-.38,.31-.79,.73-.75,.53,.04,.19,.54,.28,.83,.03,.11,.05,.22,.12,.31,0,.15,0,.3,0,.45,.22,.32,.28,.63-.02,.93Z"/>
    <path class="cls-116" d="M61.7,69.17c0-.31,.01-.62,.02-.93,.49-.05,.58-.44,.66-.81,.26-1.22,1.18-1.97,2.39-1.67,1.73,.43,3.42,.49,5.18,.25,.91-.13,1.85,.28,2.26,1.31,0,1.45,0,2.9,0,4.36-.59-.13-.45-.63-.49-1.01-.05-.61-.31-.89-.91-1.13-.94-.37-1.88-.52-2.88-.58-1.07-.06-2.06-.37-2.91-1.15-.96-.88-1.9-.47-2.07,.83-.12,.86-.17,1.73-.33,2.59v.46c-.29,.18,.12,1.04-.69,.69-.38-1.04-.18-2.13-.24-3.2Z"/>
    <path class="cls-116" d="M61.71,67.78c-.35-.23-.15-.64-.33-1.02-.83,.42-.52,1.17-.59,1.77-.04,.36,.1,.85-.51,.81-.51-.03-.35-.48-.41-.79-.09-.44,.33-1.26-.58-1.17-.74,.07-1.03,.76-.99,1.45,.04,.67,.24,1.33,.33,2.01,.18,1.39,.18,2.74-1.2,3.63-.56,.36-.62,1.27-1.45,1.35-.28-1.37,.29-2.46,1.21-3.38,.68-.68,.87-1.47,.85-2.38-.02-.99-.01-1.96,.22-2.94,.14-.62,.46-.92,1.08-.94,.7-.02,1.3,.39,2.05,.34,.55-.04,.21,.82,.31,1.27Z"/>
    <path class="cls-16" d="M72.05,56.31c.3,1.45,.18,2.91,.15,4.37-.33-1.45-.16-2.91-.15-4.37Z"/>
    <path class="cls-107" d="M57.81,80.39c.76-.62,1.53,.15,2.29,0,.41,.39,.29,.91,.32,1.39,.06,1.17-.11,2.34,.12,3.5,.12,.52,.14,1.05,.12,1.57-.03,1.29,.53,2.21,1.67,2.8,.32,1.37,.2,2.75,.09,4.14-.64,1.76-.48,3.67-.97,5.47-.13,.49-.09,1.12-.88,1.09-.38,0-.76,0-1.15,0-.22-.29-.54-.22-.83-.24-.29-.02-.59-.11-.48-.45,.44-1.39-.42-2.75-.06-4.13,.06-.42,.37-.65,.65-.9,1.46-1.31,1.83-5.16,.62-6.75-.58-.77-1.5-.61-2.31-.69-.26-.02-.5,.19-.78,.08,0-.3,0-.61,0-.91,.21-.77,.46-1.36,1.43-1.58,.83-.19,1.15-1.12,1.03-1.94-.12-.84-.28-1.73-.87-2.43Z"/>
    <path class="cls-120" d="M56.22,87.25c1.15-.88,3.13-.34,3.64,.98,.68,1.76,.58,3.56,.15,5.33-.24,1-1.31,1.3-1.97,1.96-.64-.24-1.07-.65-1.14-1.37,1.86-1.52,2.11-2.67,.88-4.2-.09-.12-.19-.3-.31-.32-1.54-.22-1.29-1.35-1.24-2.39Z"/>
    <path class="cls-83" d="M73.65,105.59c.19,.02,.43,.07,.45,.26,.03,.28-.24,.19-.4,.21-.82,.09-1.62,.25-2.37,.62-.95,.25-1.85-.14-2.76-.26-1.31-.18-2.61,.12-3.9-.09-.76-.02-1.53-.04-2.29-.06-.62-.44-1.4-.14-2.07-.48-.58-.3-1.26-.42-1.86-.74,2.86,.1,5.66,.79,8.51,.79,1.54,.15,3.08,.15,4.62,0,.3-.01,.6-.02,.89-.04,.41,0,.84,.15,1.18-.23Z"/>
    <path class="cls-1" d="M72.46,104.01c.31,.46,.61,.92,.92,1.37-.68,0-1.36,0-2.14,0,.27-.69,.65-1.11,1.22-1.37Z"/>
    <path class="cls-20" d="M73.18,102.16c-.32,.33-.64,.66-.96,.99-.31-.35-.18-.78-.2-1.18,.02-.38,.04-.77,.05-1.15,.06-.07,.13-.08,.21-.04-.24-2.42,.54-4.79,.33-7.21,.42-.39,.59,.05,.78,.27,.25,.29,.37,.66,.6,.97,.93,1.28,1.86,1.25,2.49-.19,.55-1.26,1.51-1.9,2.74-1.83,1.89,.1,2.65-1.17,3.5-2.42,.16-.23,.09-.78,.65-.48,.15,.22,.18,.48,.21,.74,.08,2.49-.06,4.98,0,7.47,.08,1.08,.04,2.15-.34,3.18h-.03c-.62,.47-1.22,.15-1.84-.03-2.86-.84-5.59-.42-8.21,.94Z"/>
    <path class="cls-113" d="M72.25,100.79c-.06,0-.12,0-.18,.02-.02-1.23-.04-2.45-.06-3.68-.36-.36-.34-.83-.34-1.28,.02-1.63-.02-3.26,.02-4.88-.03-.91,.06-1.82-.03-2.83-.36,.15-.52,.45-.73,.67-2.05,2.2-5.01,2.11-7.08-.08-1.03-1.09-1.56-2.13-1.15-3.65,.18-.67,.03-1.44,.03-2.16,0-.61,0-1.22,0-1.83,0-2.53,1.49-3.91,4.04-3.68,1.45,.13,2.8,.71,4.25,.9,.64,.08,.86,.69,1.19,1.15,0,5.16,.01,10.31,.02,15.47,0,.65,.02,1.3,.03,1.95,.26,1.3,.1,2.6-.01,3.9Z"/>
    <path class="cls-156" d="M72.01,90.71c0,2.14,0,4.28,0,6.42-.85,.73-.88,1.8-1.12,2.77-.09,.38-.08,.76-.56,.87-.57,.13-.44-.38-.57-.64-.08-.16-.05-.41-.32-.39-.22,.02-.35,.21-.36,.39-.03,.67-.49,.67-.97,.65-.97-.04-2.01,.14-2.89-.16-1.43-.48-2.14-1.72-2.36-3.2-.05-.38-.01-.76-.44-1.11-.32,1.28-.7,2.51-.92,3.76-.17,.95-.43,.87-.94,.25,1.2-.81,.54-2.15,.9-3.2,.36-1.04-.07-2.26,.69-3.23,.03,.02,.06,.04,.09,.07,.03,.03,.04,.06,.07,.09,.24-.48,.21-1,.24-1.51,.03-.48-.07-.98,.23-1.41,.71-.31,.89,.3,1.06,.71,.51,1.28,1.36,2.39,1.87,3.67,.31,.77,.84,1.35,1.52,1.82,.63,.43,1.09,.3,1.38-.35,.32-.72,.84-1.27,1.35-1.83,.1-.11,.19-.32,.31-.33,1.12-.09,.73-.92,.76-1.53,.03-.46-.04-.92,.04-1.37,.1-.56,.19-1.15,.93-1.23Z"/>
    <path class="cls-115" d="M71.58,105.86c-1.54,.33-3.08,.31-4.62,0,1.54,0,3.08,0,4.62,0Z"/>
    <path class="cls-134" d="M110.31,62.73c.21,.4,.42,.8,.63,1.2,.1,.36,.19,.72,.29,1.08-.07,.59,.12,1.21-.21,1.78-.11,.19-.2,.44-.47,.42-.28-.02-.36-.28-.4-.48-.36-1.7-1.02-3.3-1.66-4.9,.29-.37,.59-.54,.96-.09,.28,.34,.57,.66,.86,.99Z"/>
    <path class="cls-81" d="M102.93,65.32c.09-.04,.26-.12,.26-.12,.6,1.17,1.47,2.11,1.73,3.56,.33,1.8-.03,3.57,.31,5.34,.17,.89-.4,1.74-.48,2.67-.15,1.89-.4,3.77-.42,5.67-.41,.66-.14,1.39-.21,2.08-.1,.46-.33,.89-.21,1.38-.3,1.68-.74,3.32-1.66,4.79-.21,0-.38-.03-.26-.3,1.29-2.7,1.59-5.63,1.82-8.54,.3-3.79,.74-7.58,.6-11.4-.06-1.71-.34-3.32-1.47-4.69-.07-.09-.02-.29-.02-.44Z"/>
    <path class="cls-123" d="M92.44,91.18c0-3.7-.15-7.41,.03-11.1,.15-3,.09-6,.4-8.99,.04-.36-.03-.73-.05-1.28-.71,.63-.09,1.43-.62,1.88-.36-.32-.33-.75-.31-1.16,.05-1.43-.18-2.87,.2-4.29,.21-.78-.58-1.09-.81-1.66-.43-.9-.36-1.86-.26-2.81,.05-.46,.21-.9,.72-1.07,.51,1,.35,2.09,.48,3.15,.07,.54-.04,1.33,.95,1.18,.25-.28,.61-.31,.94-.4,.24-.02,.47-.01,.62,.22,.09,.07,.17,.14,.26,.22-.86,.11-1.46,.13-1.55,1.45-.6,8.21-.86,16.42-.81,24.64-.06,0-.12,.02-.18,.03Z"/>
    <path class="cls-40" d="M92.39,93.42c.01-.14,.02-.28,.03-.42,.58,.57,1.27,.67,2.07,.72,1.92,.1,3.8-.14,5.66-.54,1.72-.37,2.59-1.75,3.27-3.24,.02-.03,.01-.08,.03-.11,.32-.57,.38-1.58,1.17-1.49,.67,.07,.88,1.03,1.01,1.66,.17,.82,.5,1.69,.11,2.56-.15,.16-.31,.31-.46,.47-.52-.54-.22-1.24-.37-1.86-.08-.33-.08-.77-.47-.84-.36-.07-.45,.34-.6,.59-1.32,2.21-3.11,3.56-5.83,3.59-1.25,.01-2.51,.21-3.77,.16-.75-.03-1.45-.17-1.85-.91-.07-.12-.07-.23,0-.34Z"/>
    <path class="cls-141" d="M102,90.38c.09,.1,.18,.2,.26,.3-.82,1.34-2.07,1.88-3.57,2.14-1.89,.32-3.77,.1-5.66,.04,1.28-.58,2.7-.02,3.97-.55,1.88-.09,3.76-.17,4.99-1.93Z"/>
    <path class="cls-118" d="M92.24,97.1c-.03-.06-.03-.13,0-.2,.17-.81,.02-1.63,.09-2.44,.16-.23,.35-.13,.46,.02,.68,.95,1.6,.94,2.65,.81,1.59-.2,3.14-.5,4.71-.81,1.43-.28,2.22-1.17,2.92-2.3,.31-.49,.45-1.43,1.34-1.03,.87,.4,.37,1.18,.25,1.82-.21,1.12-1.06,1.71-1.92,2.29-2,1.26-4.26,1.6-6.54,1.78-1.31,.11-2.64,.22-3.96,.04Z"/>
    <path class="cls-5" d="M102.73,95.28c.84-.92,1.74-1.8,1.88-3.17,.04-.41,0-.68-.36-.83-.33-.14-.51,.12-.59,.38-.88,2.81-3.27,3.24-5.69,3.63-1.08,.17-2.17,.35-3.26,.45-1.02,.09-1.87-.24-2.23-1.33-.24-.23-.23-.46,0-.69,.86,.85,1.96,.7,3.01,.66,1.25-.04,2.5-.09,3.73-.26,2.15-.3,3.46-1.73,4.44-3.53,.2-.37,.29-.88,.78-.86,.5,.02,.55,.54,.69,.93,.28,.78,.06,1.59,.16,2.37-.38,1.28-1.34,1.9-2.54,2.26Z"/>
    <path class="cls-101" d="M92.47,93.71c0,.23,0,.46,0,.69-.13,.83,.05,1.69-.24,2.51-.01-1.15-.02-2.3-.04-3.45,.07,0,.13-.01,.2-.04,.02,.1,.05,.19,.07,.29Z"/>
    <path class="cls-15" d="M94.72,64.84c-.24,0-.48,0-.72,0-.52-.14-.7-.44-.41-.94,.07,.02,.14,.01,.21-.03,.3,.14,.6,.26,.89,.41,.32,.16,.34,.36,.03,.56Z"/>
    <path class="cls-146" d="M93.6,63.9c.03,.36,.16,.67,.41,.94-.24,.25-.55,.17-.85,.18-.27-.23-.22-.58-.33-.87,.04-.25,.01-.67,.14-.72,.34-.14,.33,.42,.63,.47Z"/>
    <path class="cls-121" d="M85.54,76.04c0-1.61,0-3.21,0-4.82,.07,0,.15,0,.22,0,0,.62,0,1.25,0,1.87,.65-.5,.4-1.12,.46-1.69,.05-.5,.1-1.11,.64-1.2,.56-.1,.66,.57,.79,.96,.53,1.57,.58,3.29,1.33,4.79,.61,1.23,.36,2.51,.47,3.77,.41,.61,.42,1.22-.02,1.82-.9-1.37-1.23-2.94-1.61-4.49-.07-.29-.16-.58-.27-.86-.19-.47-.48-1.02-1.01-.93-.62,.1-.27,.75-.31,1.14-.08,.92,.18,1.91-.7,2.62-.53-.99-.52-1.98-.01-2.98Z"/>
    <path class="cls-132" d="M89.44,81.53c0-.61,.01-1.21,.02-1.82,.41-1.56,.11-3.15,.21-4.72,.03-.49,0-.98,0-1.48,.31-2.58,.2-5.17,.24-7.76,0-.57,.16-1.12,.41-1.63,.47,.41,.4,.98,.39,1.49-.04,3.85-.21,7.69-.45,11.53-.13,2.06,.07,4.12-.03,6.18,.1,2.12-.19,4.23-.23,6.35,0,.38-.03,.76-.35,1.04-.34-.48-.18-1.03-.18-1.55-.03-2.55-.03-5.09-.04-7.64Z"/>
    <path class="cls-167" d="M89.91,83.37c-.1-4.64,.21-9.26,.39-13.89,.07-1.78,.01-3.57,.02-5.36,.21-.99-.18-2.03,.26-3,.58,.75,.27,1.67,.44,2.5,.1,.52,.16,1.03,.45,1.49,.3,1.28,.23,2.59,.12,3.87-.25,2.71-.53,5.43-.85,8.14-.13,1.08-.17,2.2,.07,3.29,.13,3.51-.23,7.02-.23,10.53-.68-.17-.53-.75-.55-1.21-.06-1.71,.18-3.42,.1-5.14-.02-.41,.08-.85-.22-1.21Z"/>
    <path class="cls-149" d="M91.28,65.05c-.56-.06-.46-.51-.49-.87-.07-1.02-.14-2.04-.21-3.07,.18-.78-.24-1.6,.19-2.36,.18,.33-.22,.89,.29,1.05,.36,.11,.67-.21,.88-.54,.05,.49,.03,.97-.21,1.42-.75,1.25-.48,2.56-.23,3.87-.01,.19-.05,.37-.23,.49Z"/>
    <path class="cls-21" d="M83.25,101.25c0-1.07,0-2.14,0-3.21,1.29-.72,1.46-1.96,1.5-3.25,.06-2.06-.07-4.12,.07-6.18,.03-.13,.08-.25,.15-.36,.1-.11,.21-.14,.34-.07,0,.99,0,1.98,0,2.97,.02,1.29,.49,1.78,1.74,1.85,1.28,.07,2.23,1.67,1.86,2.87-.24,.8,.09,1.7-.16,2.54-.15,.49,.37,1.23-.47,1.43-.82,.2-1.49-.18-1.98-.82-.17-.22-.11-.68-.51-.64-.35,.03-.38,.43-.47,.7-.18,.54-.59,.93-1.05,1.16-.47,.24-.75,.6-1.02,1Z"/>
    <path class="cls-136" d="M83.27,90.48c-.01-.23-.02-.46-.03-.68-.64-1.23-.21-2.55-.31-3.83-.04-.57-.01-1.14,.09-1.71,.31-1.28,.08-2.59,.16-3.88,.05-.87-.14-1.76,.15-2.61,.67-.58,1.07-.02,1.37,.41,.71,1.01,.91,2.15,.64,3.36,0,.76,0,1.53,0,2.29-.25,1.04-.05,2.09-.12,3.14-.03,.41,.11,.83-.11,1.22-.3,.52-.39,1.14-.77,1.61-.27,.34-.48,.79-1.05,.68Z"/>
    <path class="cls-30" d="M85.32,81.54c-.06-1.56-.17-3.1-1.83-3.91-.46-.99-.99-1.98-.03-2.98,.02-1.6,.04-3.2,.06-4.79,.32,.31,.18,.72,.2,1.08,.02,.74-.11,1.42,.86,1.86,.53,.24,.72,1.18,.75,1.93,.02,.44-.17,.92,.21,1.3,0,.99,0,1.98,.01,2.98-.13,.84,.25,1.72-.23,2.53Z"/>
    <path class="cls-114" d="M89.91,83.37c.64,.12,.43,.63,.43,1.01,.03,1.82,.02,3.65,.04,5.47,0,.37-.11,.77,.2,1.08,0,.61,.02,1.21,.02,1.82-.23-.07-.45-.13-.68-.2,0,0-.11,0-.11,0,0,0-.11,.02-.11,.02-.02-.61-.04-1.23-.05-1.84,.08-2.45,.17-4.9,.25-7.35Z"/>
    <path class="cls-18" d="M73.18,102.16c.7-1.01,1.92-1.07,2.91-1.29,1.98-.43,4.04-.62,6.02,.25,.33,.14,.74,.09,1.11,.12-.08,.23-.16,.46-.23,.7-.33,.02-.61,.28-.98,.06-2.85-1.65-5.67-.94-8.49,.1-.1,.04-.22,.04-.33,.06Z"/>
    <path class="cls-111" d="M85.09,88.18c.12-1.45-.26-2.93,.23-4.36,0,1.45,0,2.9,0,4.35-.07,0-.15,0-.22,0Z"/>
    <path class="cls-57" d="M91.28,65.05c.08-.16,.15-.33,.23-.49,.84,.61,1.07,1.21,.78,2.39-.37,1.49-.09,3.14-.09,4.73-.08,2.54-.17,5.09-.25,7.63,0,.23-.02,.46-.21,.62,0-.8,0-1.6-.01-2.4,0-.29,.02-.68-.42-.65-.37,.02-.48,.31-.48,.65,0,.95,0,1.9,0,2.85-.42-.54-.24-1.18-.2-1.76,.13-1.97,.03-3.94,.31-5.94,.34-2.49,.6-5.08,.36-7.65Z"/>
    <path class="cls-106" d="M83.45,74.65c-.53,1,.1,1.99,.03,2.98,0,1.86,0,3.72-.02,5.58,0,.37,.11,.77-.2,1.08-.64-.86-.26-1.86-.36-2.79,.04-.53,.03-1.06,.03-1.59q0-1.93-1.82-2.6c-.5-.19-1.04-.21-1.55-.35-1.1-.29-2.23-.36-3.32-.72-.88-.29-1.85-.46-2.78,.03-.23,.12-.5,.21-.74-.02,0-.92,.01-1.83,.02-2.75,.99-.97,2.19-1.46,3.54-1.1,.88,.23,1.71,.62,2.63,.81,1.31,.27,2.55,.87,3.96,.64,.59-.1,.22,.65,.59,.8Z"/>
    <path class="cls-37" d="M83.24,81.31c0,1,.02,1.99,.03,2.99,0,.53-.01,1.06-.02,1.6-.5,.74-1.18,1.3-1.88,1.81-1.28,.93-2.38,.94-3.92,.08-.41,.43-.44,1.03-.67,1.55-.36,.8-.92,1.08-1.75,.8-.95-.32-1.87-.69-2.31-1.7,0-3.06,0-6.13,0-9.19,.58-.2,1.19-.19,1.78-.33,1.76-.41,2.25-.13,3.01,1.7,.45-1.38,1.62-1.32,2.61-1.31,1.39,.01,2.29,1.02,3.12,2.02Z"/>
    <path class="cls-155" d="M72.71,88.42c.74,.59,1.46,1.17,2.41,1.46,.76,.23,1.16,.03,1.41-.67,.06-.18,.11-.36,.17-.54,.16-.46,.2-1.11,.53-1.35,.58-.41,.67,.47,1.06,.68,.79,.41,2.33,.06,3.34-.86,.5-.46,.93-1.01,1.6-1.25,0,1.3-.01,2.6-.02,3.9-.14,1.17-1.13,1.79-1.74,2.65-.34,.47-.92,.61-1.53,.57-1.57-.09-2.74,.41-3.37,2.03-.52,1.34-1.47,1.38-2.53,.35-.59-.57-.6-1.5-1.34-1.94-.18-1.15-.18-2.29,0-3.44,0-.53,0-1.06,0-1.59Z"/>
    <path class="cls-76" d="M83.24,81.31c-.44-.3-.95-.52-1.29-.9-.97-1.08-2.15-.84-3.34-.69-.85,.1-.52,1.13-1.13,1.42-.06-.04-.14-.06-.16-.11-.81-2.23-.94-2.31-3.19-1.73-.49,.13-.94,.28-1.4-.05,0-1,0-1.99,0-2.99,1.51-.83,2.95-.63,4.54-.02,.77,.3,1.74,.44,2.63,.47,1.13,.03,1.98,.77,3.02,.99,.4,.08,.32,.47,.32,.76,0,.95,0,1.91,0,2.86Z"/>
    <path class="cls-7" d="M72.21,79.47c-.27,.14-.37,.06-.46-.23-.13-.43-.47-.71-.94-.69-1.27,.06-2.38-.62-3.62-.75-1.41-.15-2.67-.04-3.7,1.11-.44,.48-.7,.94-.66,1.61,.05,.79,0,1.59,0,2.39-.07,.1-.15,.1-.22,0,0-1.9,0-3.8,0-5.7,0-1.18,1-2.52,2.17-2.74,1.03-.2,2.09-.44,3.12,.01,.43,.19,.89,.18,1.34,.18,2.11,0,2.28,.13,2.95,2.05,0,.92,0,1.84,0,2.77Z"/>
    <path class="cls-150" d="M62.63,71.22c0-.91,.01-1.83,0-2.74-.02-.78,.5-1.15,1.09-1.46,.6-.32,1.09,.01,1.41,.42,.71,.91,1.73,1.23,2.72,1.2,1.22-.04,2.29,.36,3.42,.62,.48,.11,.78,.41,.78,.98,0,.48-.17,1,.18,1.44,0,.76,0,1.53,0,2.29-.26-.25-.21-.57-.18-.86,.06-.74-.41-.98-1-1.17-1.09-.36-2.22-.47-3.35-.59-1.26-.14-2.05-.88-2.58-2-.23-.48-.31-1.25-1.06-1.16-.71,.08-.65,.85-.9,1.34-.28,.54-.15,1.2-.52,1.71Z"/>
    <path class="cls-37" d="M72.71,90.02c0,1.15,0,2.29,0,3.44,.18,2.69-.44,5.35-.08,8.25-.48-.4-.32-.68-.38-.91,0-1.3,0-2.6,.01-3.9,.47-1.47,.08-2.97,.22-4.46,.08-.81-.26-1.65,.22-2.42Z"/>
    <path class="cls-135" d="M62.63,82.91c.07,0,.15,0,.22,0,0,.69-.06,1.38,.03,2.05,.11,.87-.32,1.76,.33,2.61,1.26,1.62,2.84,2.66,4.89,2.62,1.43-.03,2.31-1.19,3.16-2.21,.19-.22,.24-.64,.62-.5,.29,.11,.13,.47,.14,.72,.02,.84,0,1.67,0,2.51-.65,.55-.72,1.27-.69,2.06,.04,.93,0,1.87,0,2.84-.7-.05-.24-.71-.7-.85-.5,.94-1.53,1.48-1.88,2.61-.22,.71-.81,.85-1.55,.35-.96-.65-1.53-1.53-2-2.55-.57-1.23-1.22-2.43-1.82-3.64-.11-.22-.27-.36-.52-.37-.69-1.88-.82-3.79-.25-5.73,0-.84,.01-1.69,.02-2.53Z"/>
    <path class="cls-148" d="M62.16,89.56c-1.81-.31-1.37-.35-1.8-2.43-.11-.54-.03-1.13-.03-1.7-.22-1.94-.1-3.88-.07-5.82,0-.61,.29-1.19,.8-1.59,.51-.41,.89-.34,1.1,.32,0,.91,0,1.83,.01,2.74,.15,2.26,.15,4.53,.22,6.79-.06,.56,.17,1.17-.24,1.69Z"/>
    <path class="cls-90" d="M62.16,78.33c-.3-.38-.6-.53-.98-.06-.52,.64-.87,1.3-.86,2.16,.02,1.67,0,3.33,0,5-.5-1.16-.11-2.38-.21-3.57-.04-.49,0-.98,0-1.48,.09-1.4-.2-2.82,.21-4.2,.06-.22,.07-.48,.21-.63,.29-.32,.52-.88,1.03-.78,.54,.11,.32,.68,.39,1.07,.15,.82,.29,1.64,.22,2.49Z"/>
    <path class="cls-74" d="M62.16,89.56c0-.53,0-1.06,.01-1.6,.31-.82-.09-1.71,.23-2.53,.07,0,.14,0,.21,0-.03,1.91,.05,3.82,.25,5.73,.03,1.25-.01,2.49-.34,3.72-.52-.19-.29-.64-.36-.97,0-1.45,0-2.9,0-4.36Z"/>
    <path class="cls-47" d="M61.94,72.36c.5,.04,.38-.53,.68-.69,0,.79,0,1.57-.02,2.36,0,.22-.07,.48-.37,.44-.21-.02-.28-.24-.28-.43-.01-.56-.01-1.12-.02-1.68Z"/>
    <path class="cls-135" d="M62.4,85.43c-.13,.84,.24,1.72-.23,2.53,0-2.3,0-4.59,0-6.89,.49,1.43,.09,2.91,.23,4.36Z"/>
    <path class="cls-111" d="M83.27,90.48c1-.45,.99-1.7,1.82-2.29,0,2.16-.02,4.31,0,6.47,.01,.81-.2,1.56-.38,2.33-.19,.8-.66,1.15-1.47,1.06,0-2.52,.01-5.04,.02-7.56Z"/>
    <path class="cls-89" d="M66.46,80.16c2.35,.11,4.58,1.36,4.64,2.83,.09,2.27-1.78,4.26-3.98,4.28-1.77,.01-3.12-1.92-3.11-4.44,0-1.81,.8-2.67,2.46-2.67Z"/>
  </g>
</svg>