<?xml version="1.0" encoding="UTF-8"?>
<svg id="Layer_2" data-name="Layer 2" xmlns="http://www.w3.org/2000/svg" xmlns:xlink="http://www.w3.org/1999/xlink" viewBox="0 0 150 150">
  <defs>
    <style>
      .cls-1 {
        fill: url(#linear-gradient);
        stroke: #939393;
        stroke-miterlimit: 10;
        stroke-width: 3px;
      }
    </style>
    <linearGradient id="linear-gradient" x1="131.7" y1="40.8" x2="15.27" y2="110.12" gradientUnits="userSpaceOnUse">
      <stop offset="0" stop-color="#56a186"/>
      <stop offset=".23" stop-color="#578772"/>
      <stop offset="1" stop-color="#58635e"/>
    </linearGradient>
  </defs>
  <polygon class="cls-1" points="136.84 111.14 136.84 38.87 74.25 2.73 11.66 38.87 11.66 111.14 74.25 147.28 136.84 111.14"/>
  <path d="M103.97,60.58c1.58,2.69,.33,6.14,.23,9.1-.13,.85-.03,1.21,.74,1.6,5.98,2.98,12.89,8.04,12.66,15.45-2.49,18.09-31.17,22.9-46.13,21.49-13.37-.57-41.69-7.78-36.25-25.97,.29-.7,.28-1.24-.16-1.83-5.58-8.62-.27-19.34,10.58-14.44,1.76,.59,1.8-1.71,1.91-2.86,2.88-10.44,18.79-11.33,27.88-11.96,9.79,.67,21.82,1.07,28.54,9.43Zm-67.33,17.26c1.31,1.42,2.28-1.36,3.4-1.9,1.53-1.19,3.07-2.4,4.73-3.39,3.46-2.2-2.27-5.27-4.59-4.71-5.8-.62-7.45,6.55-3.54,10Z"/>
</svg>