<?xml version="1.0" encoding="UTF-8"?>
<svg id="Layer_2" data-name="Layer 2" xmlns="http://www.w3.org/2000/svg" xmlns:xlink="http://www.w3.org/1999/xlink" viewBox="0 0 150 150">
  <defs>
    <style>
      .cls-1 {
        fill: url(#linear-gradient);
        stroke: #939393;
        stroke-miterlimit: 10;
        stroke-width: 3px;
      }
    </style>
    <linearGradient id="linear-gradient" x1="132.7" y1="41.8" x2="16.27" y2="111.12" gradientUnits="userSpaceOnUse">
      <stop offset="0" stop-color="#56a186"/>
      <stop offset=".23" stop-color="#578772"/>
      <stop offset="1" stop-color="#58635e"/>
    </linearGradient>
  </defs>
  <polygon class="cls-1" points="137.84 112.14 137.84 39.87 75.25 3.73 12.66 39.87 12.66 112.14 75.25 148.28 137.84 112.14"/>
  <path d="M73.59,110.04c-1.69-.21-3.88-.21-5.92-.78-3.37-.93-6.53-2.46-9.11-4.9-1.77-1.67-3.47-3.43-5.04-5.29-.53-.63-.52-1.71-.81-2.56-.12-.37-.3-.8-.59-1.02-3.66-2.7-4.7-6.65-5.26-10.84-.17-1.26-.27-2.54-.43-3.8-.41-3.18,.61-5.98,2.23-8.63,.32-.53,.55-1.11,.8-1.68,.44-1.04,.39-2.02-.44-2.87-.76-.78-.83-1.65-.53-2.67,1.58-5.32,4-10.16,8.24-13.85,3.59-3.13,7.69-5.37,12.4-6.3,.74-.15,1.64-.12,2.33,.15,1.88,.75,3.66,.42,5.54-.03,3.88-.92,7.73-2.04,11.77-2.15,3.21-.09,6.16,.59,8.87,2.27,1.07,.66,2.03,1.5,3.06,2.24,.41,.3,.85,.75,1.29,.77,1.82,.08,3.15,1.05,4.28,2.27,3.02,3.28,5.81,6.75,7.56,10.92,.61,1.46,1.02,2.98,.8,4.63-.08,.58,.03,1.28,.29,1.8,.63,1.26,.51,2.54,.34,3.84-.1,.72-.22,1.43-.29,2.15-.26,2.68-1.52,4.85-3.45,6.65-1.83,1.7-4.94,1.01-6.31-.15-1.26-1.07-2.2-2.37-2.31-4.13-.02-.29-.27-.67-.52-.82-.82-.51-1.64-1.1-2.55-1.34-.59-.15-1.44,.09-1.98,.45-1.64,1.09-3.39,1.86-5.33,2.13-.5,.07-1.04,.07-1.51-.07-.65-.19-.92,.04-1,.63-.05,.41-.05,.83-.06,1.24-.02,2.9-1.34,5.03-3.88,6.36-1.37,.72-2.8,1.33-4.24,1.91-1.14,.46-1.62,1.31-2.02,2.42-.41,1.17-1.07,2.28-1.77,3.31-.37,.55-.52,.91-.08,1.44,.86,1.05,1.56,2.18,1.67,3.6,.02,.23,.49,.45,.78,.62,1.56,.92,3.31,1.63,4.65,2.79,2.2,1.9,1.95,4.38-.48,6.2-2.2,1.64-4.75,2.49-7.47,2.81-1.03,.12-2.06,.16-3.53,.27Z"/>
</svg>