<?xml version="1.0" encoding="UTF-8"?>
<svg id="Layer_2" data-name="Layer 2" xmlns="http://www.w3.org/2000/svg" xmlns:xlink="http://www.w3.org/1999/xlink" viewBox="0 0 150 150">
  <defs>
    <style>
      .cls-1 {
        fill: #b85c11;
      }

      .cls-2 {
        fill: #aa5f17;
      }

      .cls-3 {
        fill: #f19e16;
      }

      .cls-4 {
        fill: #e0860f;
      }

      .cls-5 {
        fill: #f0b13f;
      }

      .cls-6 {
        fill: #c88d23;
      }

      .cls-7 {
        fill: #bb6e1d;
      }

      .cls-8 {
        fill: #d17509;
      }

      .cls-9 {
        fill: #e39c28;
      }

      .cls-10 {
        fill: #b66d1c;
      }

      .cls-11 {
        fill: url(#linear-gradient);
        stroke: #c3fcd2;
        stroke-width: 3px;
      }

      .cls-11, .cls-12 {
        stroke-miterlimit: 10;
      }

      .cls-13 {
        fill: #a05210;
      }

      .cls-14 {
        fill: #924d10;
      }

      .cls-15 {
        fill: #dd9622;
      }

      .cls-16 {
        fill: #a47225;
      }

      .cls-17 {
        fill: #eba52b;
      }

      .cls-18 {
        fill: #cf9537;
      }

      .cls-19 {
        fill: #f6cc61;
      }

      .cls-20 {
        fill: #a45515;
      }

      .cls-21 {
        fill: #f0a123;
      }

      .cls-22 {
        fill: #9d5415;
      }

      .cls-23 {
        fill: #e1b348;
      }

      .cls-24 {
        fill: #efb646;
      }

      .cls-25 {
        fill: #f4ae1b;
      }

      .cls-26 {
        fill: #dc9c31;
      }

      .cls-27 {
        fill: #9d5910;
      }

      .cls-28 {
        fill: #c48f36;
      }

      .cls-29 {
        fill: #b66c18;
      }

      .cls-30 {
        fill: #d9a730;
      }

      .cls-31 {
        fill: #e48c18;
      }

      .cls-32 {
        fill: #c57c1b;
      }

      .cls-33 {
        fill: #ce8324;
      }

      .cls-34 {
        fill: #945216;
      }

      .cls-35 {
        fill: #c3731d;
      }

      .cls-36 {
        fill: #fbc957;
      }

      .cls-37 {
        fill: #aa651b;
      }

      .cls-38 {
        fill: #df9628;
      }

      .cls-39 {
        fill: #e39b26;
      }

      .cls-12 {
        fill: none;
        stroke: #52ff87;
        stroke-width: 2.07px;
      }

      .cls-40 {
        fill: #f3bb51;
      }

      .cls-41 {
        fill: #935215;
      }

      .cls-42 {
        fill: #f5b126;
      }

      .cls-43 {
        fill: #af6119;
      }

      .cls-44 {
        fill: #cd821f;
      }

      .cls-45 {
        fill: #b37c30;
      }

      .cls-46 {
        fill: #d3a23f;
      }

      .cls-47 {
        fill: #af7020;
      }

      .cls-48 {
        fill: #d69a3b;
      }

      .cls-49 {
        fill: #d78424;
      }

      .cls-50 {
        fill: #c67d25;
      }

      .cls-51 {
        fill: #a45d19;
      }

      .cls-52 {
        fill: #f9df7e;
      }

      .cls-53 {
        fill: #e2b450;
      }

      .cls-54 {
        fill: #cb963a;
      }

      .cls-55 {
        fill: #d08523;
      }

      .cls-56 {
        fill: #8d4f12;
      }

      .cls-57 {
        fill: #894913;
      }

      .cls-58 {
        fill: #c78b33;
      }

      .cls-59 {
        fill: #d38b1c;
      }

      .cls-60 {
        fill: #cc7319;
      }

      .cls-61 {
        fill: #834813;
      }

      .cls-62 {
        fill: #d67f13;
      }

      .cls-63 {
        fill: #cf8a2a;
      }

      .cls-64 {
        fill: #ec9f28;
      }

      .cls-65 {
        fill: #bf7e2a;
      }

      .cls-66 {
        fill: #ba6b1b;
      }

      .cls-67 {
        fill: #925115;
      }

      .cls-68 {
        fill: #b46e23;
      }

      .cls-69 {
        fill: #915617;
      }

      .cls-70 {
        fill: #ee9c17;
      }

      .cls-71 {
        fill: #dea645;
      }
    </style>
    <linearGradient id="linear-gradient" x1="136.71" y1="40.04" x2="11.13" y2="111.63" gradientUnits="userSpaceOnUse">
      <stop offset="0" stop-color="#b6ff93"/>
      <stop offset=".19" stop-color="#56ed86"/>
      <stop offset="1" stop-color="#006833"/>
    </linearGradient>
  </defs>
  <polygon class="cls-11" points="137.97 111.14 137.97 38.87 75.38 2.73 12.78 38.87 12.78 111.14 75.38 147.28 137.97 111.14"/>
  <path class="cls-12" d="M72.03,109.98c-8.41-.05-18.37-5.43-21.15-13.71-6.17-6.07-8.75-16.9-4.11-24.62,.76-1.41,1.78-3.25,.36-4.61-2-5.35,4.02-13,7.81-16.75,4.12-3.31,9.42-6.97,14.93-6.23,1.91,.76,3.71,.43,5.61-.03,8.73-2.83,18.24-3.48,25.33,3.18,5.99,1.43,9.24,8.32,12,13.36,1.2,2.02,.46,4.4,1.11,6.52,.64,1.28,.52,2.57,.35,3.89,.45,8.63-9.72,14.98-12.52,4.57-.79-1.62-3.47-2.9-5.12-1.74-2.05,1.28-4.48,2.51-6.94,2.09-2.22-.29,.23,6.4-5,8.34-5.24,1.95-5.73,2.9-8.14,7.76-1.08,1.76,1.91,3.05,1.61,5.11,.02,.23,.5,.45,.79,.63,13.22,5.41,2.22,12.68-6.92,12.23Z"/>
  <g>
    <path class="cls-42" d="M70.75,44.21l1.05,.38c.22,.26,.4,.55,.54,.86,.18,.83,.6,1.53,1.1,2.21,1.32,2.36,2.69,4.7,3.71,7.21,.1,.25,.24,.51,.02,.77-.51,.17-.68-.24-.87-.55-.65-1.09-1.79-1.59-2.75-2.29-.51-.37-.83-.1-.86,.51-.02,.49,.1,.94,.37,1.37,1.22,1.96,2.19,4.05,2.94,6.23,.43,1.24,.06,2.15-1.12,2.76-.97,.5-1.52,1.28-1.74,2.3-.36,1.74-1.7,3.1-3.44,3.27-.79,.08-1.44,.3-2.08,.76-.79,.57-1.7,.9-2.69,.97-.7,.05-1.07,.32-.84,1.14,.22,.8-.07,1.21-.87,1.28-3.27,.27-6.2-.52-8.61-2.86-1.02-.99-1.01-1.41-.14-2.56,.04-.06,.07-.13,.13-.16,1.64-.84,1.69-2.32,1.59-3.89-.12-1.81,.09-3.57,.91-5.22,.32-.49,.82-.82,1.37-.82,2.31,0,3.72-1.61,5.32-2.88,.21-.17,.37-.41,.59-.58,1.25-.96,1.67-2.29,1.76-3.8,.07-1.23,.4-1.46,1.64-1.28,.14,.02,.27,.06,.4,.08,1.14,.23,1.77-.25,1.87-1.41,.05-.62-.02-1.24,.03-1.86,.03-.45-.06-.93,.67-1.07,.45-.09-.25-.58,0-.9Z"/>
    <path class="cls-49" d="M45.28,74.8c.33-1.17,.87-2.25,1.52-3.27,.2-.02,.27,.12,.33,.27,.07,.34-.06,.62-.22,.9-.14,.24-.28,.48-.37,.74-.29,.78-.06,1.34,.78,1.44,3.65,.46,6.83,2.27,10.2,3.53,1.4,.52,2.62,1.48,3.98,2.14,1.58,.77,3.19,1.25,4.95,1.12,.58,.11,1.24,.06,1.46,.82-.2,.26-.52,.33-.78,.5-.97,.64-1.07,.91-.65,1.99,.25,.65,.13,1.17-.49,1.5-1.05,.54-2.02,1.17-2.81,2.07-.33,.38-.86,.43-1.35,.41-1.84-.07-3.64,.08-5.43,.54-.77,.2-1.58,.16-2.34-.13-1.72-.66-2.61-2.62-1.97-4.55,.21-.64,.1-1.08-.25-1.62-.68-1.01-1.38-1.91-2.57-2.43-.94-.42-1.71-1.15-2.03-2.23-.12-.4-.37-.78-.79-.9-.88-.26-1.17-.88-1.14-1.72,0-.37,.04-.73-.01-1.1Z"/>
    <path class="cls-3" d="M70.75,44.21c.15,.23,.32,.45,.45,.69,.12,.22,.5,.41,.25,.7-.3,.36-.45-.1-.66-.2-.46-.23-.45,.11-.45,.39-.01,.72,0,1.45,0,2.17-.03,1.45-.9,2.11-2.26,1.73-1.32-.37-1.64-.19-1.65,1.19-.02,2.37-1.68,3.65-3.21,5.03-.61,.55-1.33,.97-1.99,1.46-.63,.47-1.33,.72-2.11,.69-.69-.02-1.27,.23-1.81,.62-.76,1.34-.97,2.85-1.33,4.3-.31,1.27-.98,2.11-2.27,2.38-.68,.14-1.08,.53-1.3,1.18-.17,.49-.35,1.01-1.05,.89-.53-2.06-.38-4,.98-5.74,.37-.47,.57-1.02,.73-1.59,.7-2.36,2.22-4.08,4.25-5.41,.26-.17,.57-.31,.73-.57,1.69-2.77,4.78-3.99,6.93-6.25,.32-.33,.75-.52,1.2-.56,1.27-.12,2.08-.8,2.59-1.93,.35-.75,.83-1.34,1.79-1.19,.07,0,.14,0,.2,0Z"/>
    <path class="cls-4" d="M70.55,44.2c-.96,.14-1.39,.86-1.74,1.63-.47,1.03-1.23,1.59-2.37,1.69-.36,.03-.83,.11-1.05,.35-1.05,1.1-2.3,1.93-3.51,2.84-.52,.39-.94,.88-1.53,1.2-.44,.24-.92,.62-1.11,1.05-.61,1.39-1.9,2.03-2.99,2.87-1.02,.78-1.87,1.72-2.3,2.84-.66,1.73-1.59,3.33-2.36,5-.36,.77-.37,1.52-.16,2.3,.13,.49,.12,.95-.12,1.4-.02,.43-.15,.79-.62,.91-.7-.12-1.33-.47-2.01-.67-.94-.28-.35-.86-.08-1.41-.41,.5-.81,.73-1.26,.15l-.14-.22c-.29-1.2,.72-1.95,1.05-2.94,.17-.51,.52-.96,.58-1.53,.04-.35,.18-.7,.47-.89,.79-.52,1.23-1.32,1.6-2.12,1.16-2.46,3.05-4.27,4.96-6.12,1.73-1.67,3.6-3.19,5.2-5,.77-.86,1.92-1.28,2.75-2.12,.56-.56,1.48-.09,2.13-.6,.85-.67,1.87-.94,2.94-1.01,.59-.04,1.12,.2,1.66,.4Z"/>
    <path class="cls-55" d="M47.34,66.35c.82,.46,.88-.15,.95-.93,.48,.53,1.21,.78,.26,1.37-.15,.09-.31,.22-.18,.4,.09,.13,.28,.29,.4,.27,.79-.12,1.32,.4,1.92,.74,.28,.11,.44,.36,.63,.57,2.33,1.76,4.83,3.26,7.37,4.7,.96,.54,1.91,1.08,2.87,1.62,1.05,1.01,2.6,.82,3.78,1.53,.62,.37,1.31,.6,1.96,.92,.49,.21,1.01,.73,1.24-.32,.09-.43,.69-.38,1.08-.47,.85-.19,1.57-.39,1.95-1.39,.37-.96,1.36-1.45,2.36-1.68,1.26-.29,2.14-1,2.81-2.08,.31-.49,.49-.95,.41-1.54-.11-.78,.15-1.49,.61-2.13,.37-.51,.81-.78,1.46-.83,1.43-.1,1.68-.56,1.02-1.86-.64-1.26-1.32-2.49-1.86-3.8-.22-.53-.47-1.19,.53-1.26,.72,.32,1.13,.99,1.69,1.49,.49,.65,1.16,1.2,1.21,2.11-.32,.55,.32,.89,.32,1.37,.08,1,.8,1.72,1.17,2.59,.12,.28,.32,.53,.44,.81,.38,.92,.23,1.31-.71,1.5-.93,.18-1.56,.69-2.03,1.45-.53,.86-1.19,1.59-2.07,2.12-.42,.25-.72,.63-1.01,1.02-.34,.46-.77,.74-1.35,.86-1.06,.23-1.79,1.02-2.34,1.86-.39,.6-.71,.86-1.38,.69-.27-.07-.55-.09-.82-.04-.51,.1-.83,.25-.54,.9,.29,.65,.06,.92-.61,.77-.63-.14-1.21-.57-1.82,.16-.2,.24-.69-.14-1.02-.31-.75-.4-1.42-.98-2.33-1.02-1.1-.16-1.89-.95-2.82-1.45-3.39-1.82-6.68-3.83-9.98-5.8-.93-.69-1.93-1.28-2.92-1.88-.48-.39-.92-.31-1.37,.07-.24,.2-.45,.53-.86,.36-.02,0-.03-.05-.03-.08,0-.03,.02-.06,.04-.09,.5-1.19,.39-2.29-.45-3.3Z"/>
    <path class="cls-64" d="M76.11,43.76c.55-.13,1.1-.26,1.66-.38,.24,.15,.48-.05,.72,0,.64-.1,1.09,.32,1.58,.6,.34,.2,.43,.53,.23,.88-.17,.3-.23,.63-.3,.96-.25,1.12,.07,1.94,1.15,2.4,.45,.38,.59,.92,.75,1.45,.31,.95,.63,1.9,1.2,2.74,.54,2.13,1.96,3.77,3.16,5.51,.82,1.2,2.2,1.84,3.28,2.8,.04,.04,.08,.04,.09,.05,.33,.14,.79,.24,.98-.02,.65-.9,2.26-.11,2.62-1.61,.18-.74,.12-1.67,.9-2.2,.72,.16,.71,.85,.98,1.34,.14,2.37-1.45,4.98-3.36,5.6-.88,.29-1.67,.18-2.27-.49-.97-1.1-2.31-1.72-3.37-2.69-.56-.51-.76-.18-.81,.41-.05,.51,.09,1.04-.21,1.51-.23,.15-.4,.02-.57-.13-.89-2.57-2.68-4.69-3.6-7.27-.5-1.39-1.41-2.67-2.24-3.93-1.18-1.8-2.03-3.74-2.66-5.79-.18-.6,.07-1.15,.09-1.73Z"/>
    <path class="cls-2" d="M79.86,97.4c1.7,.73,3.19,1.75,4.24,3.3,.87,1.28,.83,2.15-.1,3.48-.28,.02-.45-.12-.57-.36-.1-.22-.24-.21-.39-.06-1.38,1.4-3.29,1.44-5.03,1.83-.98,.22-1.81,.46-2.49,1.23-.38,.43-.81,.84-1.43,1.07,.46,.37,1.09,0,1.43,.47-2.84,.32-5.67,.33-8.49-.25-.02-.15,.04-.3,.18-.32,1.91-.27,3.32-1.68,5.09-2.27,1.52-.66,2.6-1.89,3.75-3,.71-.69,1.35-1.47,2.04-2.19,.34-.35,.92-.73,.38-1.28-.56-.57-1.02-.05-1.39,.34-.96,1.01-2.08,1.81-3.23,2.58-.61,.41-1.26,.7-1.94,.97-.51,.06-1,.25-1.52,.1-.19-.76,.58-.73,.88-1.09,1.82-1.35,3.72-2.61,5.44-4.11,.56-.49,1.25-.52,1.95-.5,.4,.01,.8,.24,1.21,.07Z"/>
    <path class="cls-8" d="M68.89,43.8c-1.18,.42-2.4,.75-3.33,1.65-.15,.15-.28,.11-.45,.02-.73-.37-1.25,.07-1.65,.56-.3,.36-.6,.7-1,.85-1.05,.38-1.66,1.25-2.34,2.03-.52,.6-1.18,1.05-1.74,1.6-1.76,1.71-3.6,3.33-5.25,5.18-1.04,1.17-1.53,2.58-2.41,3.79-.37,.52-.56,1.17-1.26,1.42-.13,.04-.26,.26-.28,.41-.22,1.79-1.56,3.11-1.99,4.82-.71-.56-.67-1.22-.43-2.03,1.46-4.87,3.51-9.44,7.21-13.04,3.54-3.45,7.78-5.78,12.57-7.08,.77-.21,1.55-.3,2.35-.17Z"/>
    <path class="cls-37" d="M103.64,78.99c-1.25-1.14-2.47-2.28-2.31-4.19,.04-.47-.34-.64-.66-.83-.87-.53-1.75-1.05-2.62-1.57-.28-.45-.35-.9,.04-1.33,.2-.11,.42-.09,.58,.05,1.08,.93,2.25,.59,3.41,.25,.49-.14,.98-.34,1.49-.41,.83-.12,1.04,.12,.94,1.05-.47,.33-.11,.68-.02,1.03-.62,.64-1.55,.87-2.11,1.61,.28,.33,.63,.28,.96,.23,1.65-.27,3.15-.92,4.54-1.84,.7-.46,.96-1.24,1.4-1.88,.59-.87,1.16-1.77,1.55-2.76,.38-.54,.95-.9,1.38-1.39,.13-.14,.29-.35,.52-.23,.2,.1,.23,.34,.22,.54-.04,1.89,.27,3.81-.23,5.65-.32,1.18-1.16,2.17-2.36,2.56-2.28,.74-4.46,1.62-6.24,3.3-.13,.12-.31,.14-.49,.15Z"/>
    <path class="cls-60" d="M45.28,74.8c.38,.29,.19,.7,.23,1.06-.22,.84-.07,1.45,.9,1.71,.57,.15,.9,.67,1.01,1.22,.19,.94,.71,1.49,1.6,1.83,.79,.31,1.56,.71,2.06,1.47,.52,.79,.64,1.56,.49,2.53-.41,2.57,.08,4.57,2.35,5.89,1.43,.83,3.1,.99,4.71,.66,1.69-.35,3.36-.74,5.07-.95,.51-.06,1-.24,1.48-.46,.35-.17,.56-.43,.38-.83-.43-.93,.04-1.56,.76-1.99,.72-.44,1.03-.99,1.13-1.82,.11-.89,.77-1.51,1.43-2.08,1.03,.58,1.14,1.05,.43,1.89-.18,.21-.4,.41-.41,.7-.04,.95-.59,1.5-1.39,1.88-.21,.1-.48,.22-.47,.49,0,.37,.37,.35,.62,.42,.4,.11,.84,.2,.94,.69,.1,.51-.27,.83-.61,1.12-.4,.35-.9,.5-1.4,.64-1.89,.52-3.78,.97-5.74,1.22-2.05,.27-4.06,.15-6.07-.1-1.7-.22-2.92-1.34-3.8-2.76-.93-1.5-1.67-3.1-2.08-4.82-.18-.78-.63-1.08-1.33-1.2-.54-.09-1.11-.07-1.56-.46-.97-1.02-.68-2.33-.82-3.49-.16,.48,.31,1.08-.13,1.59-.27-2.03-.52-4.07,.21-6.07Z"/>
    <path class="cls-59" d="M98.91,46.49c.2,.21,.41,.42,.61,.63,.26,.12,.39,.33,.38,.61-.43,1.9-.31,3.81-.17,5.72,.18,2.56,.13,5.12-.02,7.68-.54,.64-.61-.05-.68-.3-.23-.86-.4-1.74-.69-2.58-.11-.31-.06-.83-.45-.84-.47-.01-.42,.54-.54,.87-.36,1-.29,2.11-.74,3.1-.43,1.72-1.71,2.94-2.58,4.4-.28,.47-.69,.87-1.15,1.16-.72,.46-1.42,.29-1.86-.43,1.63-.11,2.3-1.19,2.93-2.55,.8-1.75,1.6-3.47,1.69-5.43,.15-1.48,.46-2.94,.49-4.43-.02-1.03,.08-2.07-.11-3.1-.11-1.1-.34-2.13-1.26-2.88-.33-.27-.6-.66-.48-1.16,.28-.32,.51-.06,.67,.12,.65,.73,.94,.31,1.18-.34,.21-.57,.45-1.14,1.08-1.39,.79,.05,1.1,.83,1.73,1.12Z"/>
    <path class="cls-23" d="M99.73,47.51c-.07-.13-.14-.26-.21-.39,.84,.03,1.72-.2,2.48,.37,.66,3.14,.75,6.34,.97,9.53,.19,2.79-.44,5.39-1.06,8.03-.22,.95-.77,1.76-1.22,2.62-.28,.55-.64,1.22-1.36,1.03-.75-.2-.44-.97-.49-1.52,.23-.98,.2-2,.48-2.97,.34-2.2,.47-4.43,.5-6.65,.02-1.36,.39-2.64,.51-3.98,.15-1.69,.28-3.36-.38-4.98-.15-.36-.02-.76-.21-1.1Z"/>
    <path class="cls-19" d="M81.74,63.84c-.24-.8-.88-1.36-1.28-2.06-.25-.41-.51-.82-.77-1.23-.68-1.33-1.48-2.6-2.25-3.88-.2-.33-.56-.64-.3-1.1-.71-1.85-1.6-3.61-2.56-5.34-.47-.83-.9-1.69-1.35-2.53,.14-.98-.87-1.43-1.04-2.27-.38-.17-.44-.49-.4-.86,.2,0,.41,.01,.61,.02,.42,.4,.99,.59,1.45,.9,1.2,.82,1.95,2.04,2.45,3.4,.05,.12-.03,.26-.1,.38-.26,.14-.57,.22-.27,.65,1.46,2.04,2.66,4.25,3.97,6.39,.6,.99,1.07,2.04,1.85,2.93,.31,.36,.37,.2,.55-.01,.79,.59,.92,1.58,1.41,2.35,.98,1.53,.98,3.26,1.15,4.96,.05,.49-.03,.97-.5,1.28-.18,.06-.37,.04-.47-.11-.81-1.25-1.78-2.41-2.16-3.9Z"/>
    <path class="cls-34" d="M89.17,75.04c-.94-.19-1.09,.32-1.07,1.11,.05,2.14-.33,4.15-1.93,5.74-.3,.1-.51,.11-.59-.3-.17-.88-.78-.93-1.48-.71-.59,.19-1.19,.34-1.77,.55-.76,.28-1.53,.37-2.32,.2-.76-.27-1.65-.09-2.31-.67-.13-.73,.25-.93,.88-.84,.34,.05,.66,.17,1,.25,.57,.14,.96-.01,1.04-.64,.09-.64,.45-.97,1.08-1.04,.65-.06,.99-.5,1.32-1.02,.64-1.02,1.11-2.24,2.61-2.36,.46-.04,.51-.49,.45-.9-.12-.72-.42-1.37-.78-2-.25-.67-.68-1.29-.64-2.05,.28-.6,.52-.22,.7,.06,.33,.52,.58,1.08,.83,1.64,.12,.28,.2,.59,.36,.85,.25,.41,.33,1.21,.9,1.06,.69-.17,.15-.86,.18-1.32,0-.07,0-.14,0-.2,.04-.1,.11-.17,.21-.2,.86,.24,1.54,.83,2.14,1.42,.42,.41,.74,.71,1.34,.71,.29,0,.73-.07,.75,.45-.23,.2-.51,.24-.81,.22-.7,.14-1.39,.14-2.09,0Z"/>
    <path class="cls-62" d="M97.24,45.43c-.42,.41-.75,.86-.94,1.44-.42,1.26-.72,1.31-1.56,.33-.11-.13-.27-.21-.4-.31-.46,.12-.69-.23-.96-.48-.36-.32-.72-.63-1.09-.95-2.4-2.1-5.09-1.49-7.72-.74-1.01,.29-1.76,.35-2.5-.47-1.03-1.14-2.4-.68-3.66-.68-.24,0-.48,.04-.65-.19,3.81-.97,7.62-1.98,11.62-1.5,1.3,.41,2.67,.56,3.95,1.06l-.02-.02c1.09,.64,2.24,1.16,3.31,1.82,.27,.17,.7,.21,.61,.7Z"/>
    <path class="cls-20" d="M71.37,102.14c-.26,.38-.85,.35-1.03,.83-.19,.57-.65,.72-1.18,.78-.44,0-.76,.3-1.12,.48-.97,.46-1.93,.54-3,.28-1.61-.39-3.27-.34-4.9-.02-.53,.1-1,.18-1.5-.06-.83-.43-1.45-1.13-2.18-1.68,.01-.41,.31-.27,.53-.27,1.01,0,1.94-.21,2.86-.71,1.06-.57,2.31-.59,3.21,.22,.95,.85,1.94,.83,2.97,.59,3.19-.76,5.8-2.44,7.78-5.07,.48-.63,.8-1.37,.62-2.12-.25-1.02-.14-1.97,.07-2.95,.02-.11,.06-.2,.13-.29,.21-.19,.44-.32,.73-.18,.12,0,.18,.05,.17,.17,.16,.31,.38,.57,.61,.83,.36,.4,.5,.82,.13,1.3-.2,.26-.24,.55-.24,.87,.04,2.27-.98,4-2.74,5.38-.66,.52-1.53,.8-1.93,1.62Z"/>
    <path class="cls-63" d="M99.1,67.17c0,.07,0,.14,0,.21,.09,.4-.28,1.04,.29,1.16,.51,.11,.76-.47,1.01-.88,1.64-2.71,2.08-5.78,2.34-8.83,.12-1.43-.04-2.94-.15-4.4-.14-1.87-.42-3.73-.58-5.6-.04-.43-.64-.89-.02-1.33,.17,0,.3,.07,.37,.24,.22,.39,.71,.46,.97,.82,.25,.4,.93,.55,.73,1.22-.62,1.89-.35,3.82-.24,5.73,.1,1.76,.21,3.5-.02,5.25-.1,.81,.05,1.44,.65,2.05,1.26,1.3,.95,3.15-.65,3.95-1.08,.54-1.98,1.23-2.53,2.33-.19,.37-.43,.7-.71,1.01-.73,.8-1.35,.81-2.18,.04-.26-.63,.03-1.22,.11-1.83,.14-.36,.11-.76,.33-1.1,.09-.09,.18-.1,.29-.03Z"/>
    <path class="cls-27" d="M107.34,52.89c2.19,2.57,4.05,5.33,5.03,8.61,.2,1.73-.4,2.32-2.06,1.96-.64-.14-1.23,.01-1.83,.1-1.24,.18-1.98-.45-1.97-1.72,0-.69,.08-1.4,.32-2.03,.76-2.04,.73-4.09,.31-6.17-.05-.27-.25-.61,.21-.75Z"/>
    <path class="cls-29" d="M112.56,62.61c.22,.26,.15,.56,.13,.85-.06,.3-.16,.6-.14,.91,.05,.75-.29,1.16-1.04,1.23-.61,.08-1.21,.21-1.84-.01-.53-.19-.95,.12-1.28,.48-.79,.86-1.63,1.68-2.17,2.75-.17,.32-.34,.82-.79,.65-.51-.19-.34-.69-.18-1.08,.68-1.71,.42-3.45,.18-5.19-.05-.34-.18-.68-.42-.93-1.02-1.08-1.2-2.41-.98-3.77,.22-1.4-.02-2.74-.17-4.11-.16-1.48-.18-2.95,.72-4.26,1.41,.55,2.21,2.09,1.76,3.43-.08,.25-.14,.45,0,.67,.81,1.29,.67,2.67,.1,3.94-.85,1.91-.16,3.63,.41,5.38,.16,.48,.59,.68,1.09,.53,.85-.25,1.68-.26,2.52,.04,.37,.13,.79,.05,1.02-.3,.31-.46,.84-.71,1.09-1.22Z"/>
    <path class="cls-24" d="M76.13,49.37c-.09-1.27-1.69-3.36-2.83-3.75-.47-.16-.82-.47-.89-1.01,1.23-.28,2.47-.57,3.7-.85,.1,.13,.31,.29,.29,.4-.36,1.88,.55,3.42,1.37,4.94,.99,1.83,2.36,3.49,3.08,5.4,1.03,2.76,3.06,5.01,3.76,7.9,.57,1.77,.95,3.58,1.29,5.4,0,.05,0,.08,0,.1-.03,.48-.01,1.06-.49,1.29-.49,.23-.76-.31-1.09-.59-.17-.24-.34-.49-.16-.8,.34-.25,.5-.61,.43-.99-.26-1.56,0-3.22-.93-4.66-.58-.91-.8-2.02-1.54-2.85-.41-.12-.53-.5-.7-.83-.92-1.86-1.99-3.64-2.98-5.46-.45-1.37-1.4-2.42-2.3-3.5,0-.05-.02-.09-.03-.14Z"/>
    <path class="cls-67" d="M103.64,78.99c1.77-1.86,3.95-2.98,6.43-3.59,1.33-.33,2.67-2.21,2.68-3.65,.02-1.58,0-3.16,0-4.86-.66,.62-1.26,1.17-1.86,1.73-.37,.7-.88,1.21-1.71,1.32-.42-.43,0-.7,.25-.89,1.2-.86,1.85-2.15,2.63-3.34,.11-.16,.14-.45,.38-.41,.33,.05,.12,.41,.24,.6,1.06,4.85,.85,9.38-3.01,13.13-1.57,1.52-4.36,1.18-6.04-.04Z"/>
    <path class="cls-68" d="M74.7,92.2c0,.07,0,.14-.01,.22-.61,.73-1.11,1.46-.68,2.5,.16,.4-.18,.78-.47,1.09-.84,.88-1.48,1.9-1.91,3.04-.42,1.14-1.47,1.6-2.41,2.16-1.51,.89-3.02,1.22-4.82,.59-1.84-.65-3.8-.91-5.78-.29-1.15,.36-2.32,.32-3.35-.45-.21-.16-.45-.15-.69-.07-1.06-.85-1.97-1.83-2.64-3.02-.07-.12-.04-.19,.09-.24,.72-.05,1.24,.35,1.73,.78,.64,.56,1.35,.83,2.22,.93,1.47,.18,2.91,.18,4.39,.09,1.59-.1,3.18,.43,4.76,.73,1.1,.21,2.17,.27,3.24-.14,.97-.38,1.69-.93,2.07-1.98,.35-.96,.88-1.86,1.7-2.55,.26-.22,.4-.46,.21-.8-.5-.9-.02-1.49,.64-2.02,.29-.24,.67-.36,.85-.73,.35-.23,.68-.39,.86,.18Z"/>
    <path class="cls-43" d="M54.57,100.98c.24-.38,.59-.37,.88-.13,.99,.8,2.13,.71,3.19,.37,2.04-.65,4.05-.34,5.93,.34,1.54,.56,2.82,.3,4.13-.37,1.35-.69,2.61-1.47,3.06-3.1,.26-.94,.96-1.65,1.63-2.34,.31-.32,.51-.6,.36-1.08-.43-1.32-.3-1.59,.93-2.26-.19,1.13,.04,2.26,.03,3.39-.01,1.95-1.62,3.03-2.87,4.2-1.6,1.5-3.62,2.37-5.74,2.84-1,.22-2.14,.56-3.1-.6-.66-.81-1.96-.84-2.79-.34-1.21,.72-2.43,.85-3.75,.85-.79-.42-1.16-1.29-1.9-1.77Z"/>
    <path class="cls-51" d="M98.69,68.21l-.22,1.86c.05,.37,.1,.73-.2,1.03-.38,.38-.13,.87-.23,1.3-.51-.22-.91-.14-1.4,.2-1.41,.97-2.82,1.97-4.58,2.22-.23-.29-.56-.21-.86-.2-.63,.03-1-.07-1.4-.76-.4-.68-1.37-1.03-2.1-1.52-.63-.19-.52-.73-.56-1.2,.03-.1,.08-.18,.15-.26,.44-.46,.54,.82,1.12,.17,.51-.57,1.06-.03,1.55,.28,.5,.31,.66,.85,.91,1.34,.43,.85,.94,1.03,1.76,.59,1.26-.69,2.29-1.58,2.76-3.04,.38-1.18,1.18-2.16,1.89-3.17,.26-.37,.59-.73,1.1-.58,.62,.18,.36,.72,.38,1.14,.01,.2,.05,.41-.09,.59Z"/>
    <path class="cls-13" d="M51.12,94.69c-2.88-1.84-4.48-4.54-5.22-7.81-.11-.2-.05-.4,0-.6,.25-.85,.58-.96,1.21-.36,.75,.72,1.34,1.57,1.84,2.47,.86,1.56,2.06,2.81,3.48,3.86,.48,.27,.87,.64,1.19,1.1,.39,.58,.39,1.07-.24,1.47-.49,.24-1.01,.3-1.54,.36-.41,.04-.63-.11-.71-.5Z"/>
    <path class="cls-69" d="M77.79,80.82c.7,.42,1.59,.16,2.28,.62,.11,.18,.18,.38,.17,.58-.06,1.03,.4,1.89,.88,2.74-.31,.14-.6,.31-.92,.41-1.08,.34-1.83,1.01-2.18,2.1-.36-.17-.65-.41-.73-.82,.44-.67,.16-1.07-.5-1.34-.21-.09-.4-.24-.6-.36-.64-.32-1.23-.74-1.88-1.05-1.36-.78-2.65-1.68-4.05-2.4-.3-.15-.62-.32-.64-.74,.23-.51,.6-.33,.94-.17,.37,.18,.72,.39,1.06,.61,1.24,.78,2.54,1.48,3.57,2.23-.14-.05-.43-.25-.65-.53-.3-.38-.23-.85,.2-.9,1.09-.12,2.01-.7,3.03-1Z"/>
    <path class="cls-57" d="M77.38,86.41c.11,.37,.65,.42,.65,.87-.12,1.58-.85,2.86-1.98,3.93-.24,.23-.45,.5-.67,.76-.23,.08-.45,.15-.68,.23-.28-.27-.56-.28-.84,0-.31,.29-.7,.27-1.08,.28-.14,0-.27,0-.41-.02-.33-.05-.74,0-.84-.43-.09-.38,.21-.63,.45-.87,.27-.27,.59-.47,.93-.63,.58-.28,.96-.75,1.3-1.28,.27-.42,.33-.79-.04-1.2-.45-.52-.46-1.11,.1-1.53,.67-.51,.33-.71-.17-.98-.25-.14-.7-.3-.25-.72,.74-.18,1.27,.34,1.88,.57,.54,.36,1.22,.49,1.65,1.01Z"/>
    <path class="cls-37" d="M112.56,62.61c-.54,1.78-1.21,2.16-2.88,1.56-.59-.21-1.1,.04-1.59,.2-.78,.24-1.3,.07-1.52-.71-.55-1.88-1.32-3.69-.33-5.75,.55-1.15,.8-2.58-.34-3.73-.16-.16-.26-.42-.1-.56,1.09-.94,.24-1.68-.21-2.47-.23-.4-.5-.74-.91-.96-.28-.13-.56-.27-.62-.62-.27-.34-.55-.69-.82-1.03,.07-.09,.14-.09,.22-.02,1.21,.9,2.16,2.06,3.04,3.26,.27,.37,.75,.6,.83,1.11,.15,1.06,.34,2.11,.44,3.17,.16,1.78-.68,3.39-.95,5.1-.26,1.7,.25,2.36,1.89,2.06,.67-.12,1.28-.21,1.99,.07,.91,.36,1.59-.45,1.65-1.79,.22,.34,.17,.73,.19,1.1Z"/>
    <path class="cls-41" d="M75.53,108.37c-.48,0-.96,0-1.44-.03-.19,0-.45,.06-.52-.2-.06-.23,.13-.41,.31-.48,.96-.36,1.59-1.09,2.25-1.82,.62-.69,1.58-.28,2.35-.55,1.03-.35,2.1-.58,3.16-.81,.82-.18,1.12-.98,1.85-1.4,.17,.38,.04,.92,.52,1.11-2.13,2.79-5.19,3.73-8.47,4.18Z"/>
    <path class="cls-56" d="M58.65,104.43c1.71-.34,3.42-.55,5.17-.43,.24,.02,.52-.07,.71,.02,1.54,.72,2.92,.39,4.23-.55,.19-.13,.39-.08,.53,.12-.05,.31-.3,.46-.52,.64-.89,.82-1.81,1.6-2.7,2.42-.49,.35-.75,1.11-1.56,.89-1.97-1.02-4.15-1.62-5.87-3.11Z"/>
    <path class="cls-1" d="M52.33,92.41c-1.59-.96-2.72-2.33-3.62-3.92-.59-1.04-1.26-2.02-2.22-2.81-.34,.37-.51,.76-.59,1.2-.59-1.96-.81-3.98-.84-6.02,0-.61,0-1.23,0-1.84,.34,1.24,.42,2.53,1.07,3.66,.31,.3,.66,.4,1.1,.44,.83,.08,1.42,.43,1.69,1.36,.76,2.59,1.54,5.19,3.29,7.35,.13,.16,.22,.35,.13,.57Z"/>
    <path class="cls-61" d="M81.12,84.76c-1.26-.82-1.16-2.07-1.05-3.32,1.35,.2,2.54-.39,3.77-.77,1.37-.42,1.75-.27,2.05,1.14,0,.04,.18,.05,.28,.07-1.39,1.47-3.19,2.24-5.05,2.88Z"/>
    <path class="cls-58" d="M51.12,94.69c.75,.59,1.5-.04,2.25,0,.48-.29,.98-.36,1.51-.15,.46,.47-.06,.54-.29,.56-.66,.06-1.26,.35-1.9,.47-.29,.05-.69,.04-.74,.42-.06,.45,.39,.51,.69,.63,.99,.4,1.97,.83,2.89,1.36,.77,.44,1.53,.34,2.38,.18,2.31-.44,4.57-1.29,6.99-1.11,.32,.02,.6-.16,.85-.34,.28-.2,.57-.38,.9-.5,.84-.31,.86-.33,1.21-.94,.09-.06,.19-.1,.3-.12,.23-.03,.44,0,.6,.19,.08,.15,.1,.33,.19,.48,.58,1.01,.37,1.67-.77,1.92-1.44,.32-2.9,.68-4.4,.45-.53-.08-1.06-.05-1.53,.13-1.39,.55-2.86,.74-4.3,1.04-.74,.15-1.41,.14-2.12-.14-.98-.39-2.05-.55-2.88-1.3-.24-.21-.64-.24-.99-.12,0,.05-.01,.1-.03,.15-.89-.94-.92-2.08-.81-3.26Z"/>
    <path class="cls-14" d="M71.37,102.14c-.64-.17-.11-.4,.01-.51,.54-.46,1.17-.81,1.73-1.26,1.5-1.2,2.48-2.67,2.68-4.6,.07-.67-.29-1.39,.47-1.94,.21-.15-.11-.56-.28-.81-.19-.27-.51-.48-.44-.88,1.24,1.15,2.24,2.42,2.06,4.25-.04,.41,.13,.58,.5,.58,.62,0,1.18,.24,1.75,.44-.09,.05-.19,.17-.25,.15-2.05-.48-3.3,.95-4.66,2.02-1.16,.91-2.39,1.69-3.56,2.57Z"/>
    <path class="cls-47" d="M68.69,104c.2-.14,.41-.28,.61-.42,.35-.21,.69-.41,1.04-.62,.54-.17,1.09-.26,1.65-.21,.06,.47-.36,.52-.62,.69-1.1,.71-1.89,1.72-2.91,2.72,.69,.16,1.08-.16,1.51-.29,.79-.23,1.57-.7,2.43-.23-1.23,.87-2.71,1.28-3.91,2.21-.38,.3-1.02-.14-1.47,.26-.87-.05-1.73-.14-2.52-.58,.69-.07,.92-.8,1.48-1.06,1.06-.65,1.98-1.45,2.7-2.48Z"/>
    <path class="cls-37" d="M112.7,65.9c-.08-.14-.17-.27-.23-.36-.79,1.24-1.4,2.61-2.66,3.52-.26,.19-.7,.31-.56,.8,.03,.1,.05,.23-.03,.29-1.1,.89-2.24,1.73-3.66,2.04-.26-.36,.03-.61,.25-.77,1.87-1.37,3.14-3.3,4.68-4.98,.32-.4,.49-.93,1.02-1.15,.59,.04,.87-.24,.83-.84-.02-.38,.11-.72,.35-1.01,0,.82,0,1.63,0,2.45Z"/>
    <path class="cls-16" d="M97.24,45.43c-1-.93-2.34-1.28-3.44-2.05-.2-.14-.42-.21-.48-.47,2.13,.77,4.15,1.71,5.58,3.58-.73-.07-1.08-.75-1.66-1.06Z"/>
    <path class="cls-26" d="M47.78,69.65c.47,.14,.57-.33,.83-.52,.53-.39,1.01-.52,1.45,.1-1.09,.76-1.99,1.76-3.1,2.5-.06-.07-.12-.14-.17-.2,.33-.63,.66-1.25,.99-1.88Z"/>
    <path class="cls-16" d="M93.34,42.93c-1.34-.27-2.73-.34-3.95-1.06,1.38,.12,2.73,.34,3.95,1.06Z"/>
    <path class="cls-29" d="M103.46,48.53c-.07,0-.15,.01-.22,.02-.32-.24-.87-.24-.87-.82,.42,.19,.82,.42,1.1,.8Z"/>
    <path class="cls-51" d="M89.17,75.04c.7,0,1.39,0,2.09,0-.7,.24-1.39,.35-2.09,0Z"/>
    <path class="cls-17" d="M77.15,55.58c.73,1.25,1.47,2.5,2.19,3.77,.22,.38,.48,.74,.52,1.2-.42,.16-.59-.27-.9-.37-.9-.86-1.52-1.93-2.24-2.93-.2-.45-.55-.75-1.04-1.13,.15,1.21,.67,2.11,1.1,3.03,.54,1.19,1.2,2.33,1.73,3.52,.54,1.22,.45,1.47-.61,2.23-.42,.3-.87,.54-1.36,.73-1.08,.42-1.46,1.09-1.35,2.25,.04,.41,.19,.8,.3,1.2,.36,1.36,0,2.19-1.33,2.68-1.58,.6-3.08,1.33-4.45,2.32-.32,.23-.65,.44-.63,.87,.03,.64-.35,.92-.88,1.1-.29,.1-.56,.25-.85,.36-.95,.37-1.82,.54-2.82-.09-.91-.57-2.1-.59-3.09-1.1-1.67-.91-3.37-1.76-5-2.73-1.66-.99-3.26-2.09-4.87-3.16-.19-.13-.32-.35-.47-.53,.98-.99,2.22-1.21,3.51-.62-.88,.78-.57,1.45,.16,2.14,1.49,1.39,3.23,2.4,5.2,2.73,1.02,.17,2.16,.12,3.24,.09,.63-.01,.93-.28,.63-1.01-.45-1.09-.26-1.38,.97-1.45,1.26-.07,2.34-.53,3.25-1.37,.39-.36,.82-.3,1.26-.29,1.47,.03,2.36-.97,3.33-1.84,.22-.2,.15-.51,.17-.79,.11-1.36,.65-2.42,1.98-2.98,.9-.38,1.37-1.26,1.03-2.19-.82-2.25-1.69-4.48-3.07-6.46-.48-.69-.48-1.48-.28-2.18,.19-.66,.85-.36,1.2-.08,1.07,.88,2.47,1.41,3.06,2.8,.08,.18,.23,.24,.41,.26Z"/>
    <path class="cls-21" d="M54.61,68.2c-1.22-.1-2.42-.02-3.51,.62-.14-.21-.28-.42-.42-.62,.21-.27,.42-.55,.63-.82,.52-.07,.74-.39,.84-.89,.16-.84,.69-1.28,1.55-1.4,1.06-.15,1.67-.92,1.97-1.95,.45-1.51,.65-3.13,1.63-4.45-.95,2.21-.9,4.55-.81,6.88,.04,.95-.25,1.61-1.14,1.95-.36,.14-.48,.48-.74,.69Z"/>
    <path class="cls-24" d="M72.2,45.44c.38,.47,.75,.95,1.14,1.41,.29,.34,.22,.61-.11,.85-.55-.66-1.07-1.34-1.04-2.27Z"/>
    <path class="cls-44" d="M68.89,83.1c0,.35-.27,.53-.46,.78-.27,.35-.75,.76-.71,1.1,.15,1.28-.59,1.83-1.52,2.4-.54,.33-.92,.84-.32,1.54,.47,.55-.01,.86-.46,1.08-.87,.43-1.83,.6-2.78,.66-1.82,.11-3.5,1-5.35,.93-2.37-.09-4.47-.7-5.62-3.05-.56-1.15-.67-2.42-.49-3.6,.32-2.18-.4-3.68-2.55-4.25-.88-.23-1.19-.65-1.27-1.46-.08-.74-.46-1.29-1.19-1.53-1.03-.33-1.07-1.01-.66-1.85,.01,.81,.25,1.38,1.17,1.57,.38,.07,.67,.5,.78,.91,.35,1.35,1.39,1.98,2.53,2.49,1.36,.61,1.76,2.04,2.62,3.07,.07,.08,.09,.32,.03,.38-.92,.9-.24,1.97-.27,2.94-.02,1.02,1.32,2.01,2.59,2.08,.62,.04,1.22,0,1.83-.18,1.56-.47,3.18-.5,4.79-.43,.81,.04,1.42-.15,1.93-.89,.51-.75,1.4-1.09,2.21-1.46,.69-.31,.95-.85,.44-1.37-.87-.88-.27-1.33,.33-1.88,.39-.36,.8-.65,1.36-.63,.5-.26,.91-.1,1.28,.27,.03,.2-.09,.28-.24,.36Z"/>
    <path class="cls-15" d="M56.47,82.37c1.25,.35,2.54,.61,3.75,1.07,1.43,.55,2.7,1.52,4.31,1.63,.33,.02,.83,.1,.81,.62-.02,.44-.39,.62-.74,.78-1.48,.68-3.06,1.03-4.63,1.36-1.4,.3-2.82,.55-4.24,.78-.9,.15-1.88,.22-2.45-.63-.59-.88-.43-1.81,.21-2.68,.48-.66,1.01-1.28,1.3-2.09,.27-.76,.98-.76,1.68-.84Z"/>
    <path class="cls-5" d="M46.97,71.73c.85-1.06,1.74-2.06,3.1-2.5,1.06,.47,2.05,1.07,2.91,1.85-.22,.25-.51,.23-.76,.14-.96-.36-1.82,.03-2.71,.28-.69,.2-.68,.62-.32,1.08,.51,.66,1.12,1.23,1.88,1.58,1,.46,1.99,.96,3.05,1.25,1.71,.48,3.19,1.42,4.72,2.27,1.53,.85,3.18,1.46,4.75,2.24,.41,.2,.69,0,1.01-.26,.82-.68,1.86-.44,2.48,.52-.12,.13-.29,.21-.45,.17-.75-.21-1.1,.04-1.01,.85,0,.07-.13,.14-.23,.18-.63,.17-1.11-.26-1.66-.43-3.44-1.08-6.64-2.76-9.95-4.16-1.86-.78-3.79-1.42-5.56-2.41-.74-.41-1.39-.9-1.45-1.85,.15-.25,.23-.52,.22-.82Z"/>
    <path class="cls-71" d="M65.37,81.24q-.13-1.37,1.45-1.04c.07,.01,.14,0,.21,0,.32-.14,.51-.41,.68-.7,.8,.13,1.5,.45,2,1.13,1.59,.97,3.17,1.94,4.76,2.9-.13,.62-.62,.08-.91,.29-.2,.24,.47,.73-.19,.88-.87-.08-1.59-.57-2.41-.81-.61-.34-1.38-.41-1.86-.99-.35-.31-.83-.27-1.23-.42-.4-.41-.94-.47-1.45-.61-.39-.13-.99,.08-1.04-.62Z"/>
    <path class="cls-26" d="M65.37,81.24c.23,.39,.76,.29,1.04,.62-1.88,.33-3.56-.28-5.17-1.16-2.87-1.57-5.83-2.96-8.92-4.08-1.68-.61-3.31-1.24-5.11-1.43-1.38-.15-1.51-1.11-.46-2.64,.97,1.86,2.9,2.38,4.61,3.03,2.3,.88,4.52,1.91,6.75,2.92,1.78,.81,3.6,1.46,5.43,2.11,.61,.21,1.12,.7,1.82,.64Z"/>
    <path class="cls-7" d="M69.71,80.62c-.74-.24-1.26-.92-2.06-1.02-.83-.1-1.55-.37-1.87-1.25,.85-.31,1.33,.48,2,.7,.35,.11,.65,.38,.98,.55,.11,.06,.25,.05,.37,.07,.25-1.69,1.07-.11,1.6-.27,.22-.07,.48,.29,.75,.03,.01-.04,.03-.07,.03-.1-.02-.44-.86-.56-.52-1.08,.38-.57,1.06-.67,1.68-.51,.76,.19,.96,.1,1.42-.72,.39-.7,1.25-1.72,2.43-1.79,.36-.02,.71-.07,.91-.38,.98-1.58,2.95-2.22,3.76-4.02,.26-.58,.94-1.03,1.78-1.02,.7,0,1.03-.38,.59-1.07-.5-.81-.75-1.76-1.38-2.49-.31-.36-.22-.77-.24-1.18,.38-.07,.47,.24,.58,.47,.78,1.57,1.91,2.96,2.32,4.7,0,.75,.55,1.34,.63,2.07-.1,.46-.44,.72-.85,.8-1.6,.31-2.49,1.81-3.94,2.36-.16,.06-.28,.23-.3,.4-.08,.77-.49,1.06-1.26,.96-.56-.07-.74,.35-.88,.82-.44,1.41-.83,1.69-2.29,1.74-.24,0-.48,0-.72,.03-.55,.1-.93,.25-.55,.95,.35,.64-.03,.9-.59,.65-.89-.4-1.68-.26-2.48,.17-.67-.06-1.03-1.07-1.87-.61Z"/>
    <path class="cls-39" d="M76.96,57.23c.69,.96,1.38,1.93,2.07,2.89,.05,.05,.07,.1,.05,.14-.02,.05-.04,.07-.05,.07-.85,0-.67,.49-.44,.97,.61,1.26,1.24,2.51,1.87,3.76,.86,1.71,.56,2.24-1.31,2.31-1,.04-1.87,1.28-1.78,2.57,.11,1.68-1.2,3.42-2.91,3.85-.91,.23-1.77,.54-2.41,1.28-.09,.1-.26,.19-.27,.3-.17,1.69-1.61,1.41-2.66,1.73-.22,.07-.5,.02-.51,.37-.05,.96-.05,.96-.97,.56-.15-.07-.27-.19-.41-.29-.09-1.13,.06-1.3,1.19-1.42,.27-.03,.55-.06,.82-.11,.56-.1,.96-.28,.51-.94-.26-.38-.15-.72,.2-.99,1.13-.91,2.28-1.74,3.81-1.88,1.58-.15,2.37-1.36,1.96-2.93-.19-.71-.32-1.41-.26-2.14,.06-.76,.4-1.3,1.2-1.48,.47-.11,.92-.27,1.37-.46,.44-.18,.88,.03,1.51,.02-.46-1.05-.81-2.06-1.28-3.02-.76-1.54-1.62-3.03-2.22-4.65-.12-.31-.49-.72,.02-.99,.46-.23,.66,.2,.89,.49Z"/>
    <path class="cls-40" d="M65.77,78.35c.53,.56,1.24,.84,1.87,1.25,.09,.21,.31,.43,.13,.65-.23,.27-.49-.1-.75-.05-1.24-.86-1.43-.86-2.54,.05-.25,.21-.52,.18-.77,.04-1.78-1.01-3.76-1.61-5.51-2.71-1.65-1.03-3.48-1.72-5.32-2.36-1.43-.49-2.8-1.11-3.82-2.32-.75-.89-.59-1.25,.43-1.7,1.19-.52,2.31-.39,3.48-.13,2.63,1.51,5.26,3.03,7.9,4.53,1.63,.93,3.26,1.83,4.9,2.74Z"/>
    <path class="cls-9" d="M76.96,57.23c-.31-.08-.53-.62-.88-.29-.25,.23,.04,.58,.14,.85,.92,2.37,2.26,4.54,3.33,6.84,.18,.39,.48,.76,.19,1.13-.32,.4-.58-.17-.89-.19-1.01-.04-2.03,.3-2.76,.84-.75,.56-.52,1.67-.22,2.51,.39,1.07,.23,2-.34,2.94-.3,.5-.8,.84-1.25,.79-1.81-.19-2.98,.98-4.3,1.84-.47,.31-.13,.59,.12,.82,.61,.56,.4,.86-.3,1.01-.47,.1-.94,.31-1.4,.26-.8-.07-1.22,.03-.86,.95,0,.01-.21,.12-.32,.18-.7-.16-1.37-.44-1.95-.84-1.11-.77-2.66-.35-3.63-1.43-.07-.07-.15-.14-.22-.21,1.3,.17,2.58,.45,3.67,1.22,.82,.58,1.41-.26,2.14-.26,.44,0,.87-.37,1.31-.54,.23-.09,.38-.25,.28-.46-.39-.86,.31-1.03,.81-1.38,1.44-1.04,3.01-1.8,4.69-2.38,.94-.32,1.21-1.14,.95-2.15-.15-.56-.41-1.09-.4-1.7,.03-1.28,.36-1.87,1.58-2.2,.74-.2,1.21-.77,1.86-1.09,.48-.24,.27-.63,.14-.99-.5-1.4-1.3-2.66-1.91-4.01-.44-.97-.93-1.92-1.17-2.96-.05-.23-.18-.5,.1-.64,.23-.12,.38,.11,.5,.26,.34,.41,.92,.65,.98,1.28Z"/>
    <path class="cls-51" d="M84.82,70.27c-.61-1.11-1.22-2.23-1.84-3.34-.34-.62-.7-1.23-1.05-1.84,.01-.43-.84-.73-.18-1.25,.81,1.32,1.62,2.64,2.43,3.96,.09,.2,.17,.4,.26,.6,.58,1,1.61,1.66,2.05,2.75,.47,.41,.38,1.32,1.24,1.39,.31,.21,.17,.57,.31,.85,.25,.5-.12,.81-.46,1.01-.43,.26-.64-.21-.77-.46-.54-1.03-1.01-2.11-1.53-3.16-.1-.2-.07-.56-.45-.52Z"/>
    <path class="cls-9" d="M79.03,60.34c0-.07,0-.14,0-.21,.36-.03,.54,.3,.83,.42,.47,.28,.5,.78,.6,1.24-.55-.41-1.04-.88-1.43-1.45Z"/>
    <path class="cls-25" d="M94.13,57.03c-.29,.9-.56,1.81-.86,2.71-.16,.46-.32,.92-1.02,.64-.41-.17-.8,.01-1.1,.35-.6,.67-1.37,.61-1.93,.09-.81-.75-1.86-1.23-2.53-2.08-1.52-1.91-3.19-3.77-3.73-6.27,.89-.04,1.31,.63,1.79,1.2,.28,.34,.49,.83,1.02,.74,.56-.1,.5-.65,.66-1.05,.55-1.43,.68-2.94,1.01-4.41,.54-2.36,2.05-2.78,3.78-1.12,.1,.1,.19,.21,.3,.29,2.85,2.09,3.1,5.09,2.87,8.25-.02,.24-.07,.48-.26,.65Z"/>
    <path class="cls-70" d="M94.13,57.03c-.09-1.57,.14-3.14-.18-4.72-.23-1.12-.63-2.08-1.49-2.85-.66-.6-1.24-1.29-1.91-1.88-1-.9-2.15-.61-2.62,.64-.23,.6-.42,1.23-.43,1.89,0,1.43-.69,2.69-.99,4.04-.21,.95-1.12,1.03-1.67,.15-.49-.8-1.13-1.36-1.9-1.83-.84-.79-.96-1.92-1.35-2.92-.16-.41-.34-.81-.51-1.22,.26-.29,.63-.26,.96-.32,1.11-.21,2.09-.67,2.88-1.51,2.36-2.53,4.98-1.99,7.06,.01,1.09,1.05,2.22,2.07,3,3.39,1.2,2.44,1.03,5.01,.63,7.58-.06,.36-.14,.77-.66,.78-.47-.28-.26-1.02-.83-1.24Z"/>
    <path class="cls-31" d="M94.75,49.78c-1-1.07-1.97-2.16-3.04-3.16-1.94-1.83-4.39-2.3-6.49-.02-1.12,1.21-2.49,1.77-4.13,1.74-1.36-.46-1.6-.8-1.38-2.16,.08-.52-.25-1.17,.46-1.52,.13-.07,.06-.36-.11-.42-.56-.2-.98-.75-1.66-.67,1.54-.51,3.01-.68,4.18,.78,.37,.46,.78,.55,1.36,.3,1.83-.8,3.79-.98,5.74-.83,1.34,.11,2.31,1.13,3.35,1.89,.47,.34,.86,.78,1.29,1.17,.05,.51,.32,.92,.71,1.21,.93,.69,1.11,1.67,1.15,2.72-.76,.05-1.11-.49-1.45-1.03Z"/>
    <path class="cls-38" d="M94.75,49.78c.48,.34,.97,.69,1.45,1.03,.43,1.08,.11,2.21,.21,3.31-.32,1.5-.59,3.01-.62,4.55,.03,1.43-.28,2.76-.97,4.02-.39,.72-.76,1.45-1.07,2.21-.56,1.39-1.28,1.84-2.72,1.63-.71-.02-1.02-.63-1.48-1.01-.1-.09-.19-.2-.29-.29-.53-.48-1.04-1.19-1.82-.87-.73,.3-.46,1.13-.49,1.76-.06,1.13-.15,1.22-1.16,1.07-.11-1.55-.76-3.01-.76-4.59,0-.62-.01-1.24,.01-1.86,.01-.31,.09-.64,.42-.77,.32-.12,.51,.15,.69,.34,1.12,1.17,2.66,1.8,3.74,3.05,.6,.71,2.59,.33,3.24-.52,1.04-1.35,1.77-2.85,1.83-4.59,.66-.57,.53-1.43,.57-2.12,.11-1.98,.3-4-.71-5.86-.08-.14-.05-.34-.07-.51Z"/>
    <path class="cls-46" d="M85.03,62.61c.28,1.38,1.21,2.66,.69,4.18-.03,.1,.09,.25,.15,.37,.8,.71,.66,1.83,1.18,2.66,.12,.4,.17,.82,.15,1.24-.15,.68-.51,.53-.91,.24-.4-1.11-1.58-1.71-1.85-2.9,.29,.24,.57,.47,.89,.73,.77-1.35,.04-2.59-.22-3.81-.21-.97-.49-1.92-.48-2.92,.14,.07,.28,.14,.41,.21Z"/>
    <path class="cls-65" d="M72.41,105.65c-1.23-.08-2.3,.52-3.44,.84-.27,.08-.61,.32-.8-.09-.15-.33,.17-.49,.35-.67,1.08-1.08,2.08-2.26,3.48-2.97,1.96-1.06,3.79-2.3,5.32-3.94,.46-.49,.98-.4,1.44,.06,.49,.49,.27,.91-.15,1.32-1.7,1.67-3.26,3.49-5.07,5.05-.32,.28-.69,.44-1.13,.42Z"/>
    <path class="cls-35" d="M111.51,65.3c-.28,.41-.55,.83-.83,1.24-.99-.45-1.71-.06-2.32,.71-1.12,1.4-2,2.97-3.24,4.28-.24,.26-.36,.71-.86,.6,.21-1.02,.14-1.1-.84-.85-.73,.19-1.44,.46-2.18,.62-1.12,.25-2.17,.17-2.97-.81,.05-.35-.13-.74,.2-1.03,.77,.63,1.48,.58,1.98-.29,.89-1.55,1.94-2.83,3.69-3.54,1.07-.43,1.14-2.53,.14-3.23-.93-.65-.91-1.44-.79-2.36,.23-1.68,.16-3.34,0-5.03-.17-1.88-.14-3.77,.04-5.66,.03-.32,.25-.37,.5-.4,.28,.13,.49,.34,.62,.62-.81,1.76-.79,3.61-.38,5.42,.33,1.43-.14,2.79-.06,4.19,.04,.69,.15,1.36,.62,1.8,.92,.88,1.05,1.99,1.04,3.12-.01,1.38,.33,2.82-.56,4.1-.08,.11-.01,.32,.11,.54,.61-.93,1.16-1.87,1.93-2.65,.41-.41,.78-.87,1.21-1.26,.25-.22,.61-.5,.93-.28,.66,.45,1.31,.23,1.98,.13Z"/>
    <path class="cls-28" d="M105.52,72.13c1.29-.68,2.63-1.27,3.73-2.26,.55-.41,1.1-.83,1.65-1.24,.11,.85-.64,1.31-.94,1.98-1.26,2.85-3.76,4.01-6.63,4.59-.33,.07-.61-.02-.9-.12-.19-.07-.45-.08-.49-.31-.04-.22,.18-.36,.35-.47,.71-.47,1.35-1.05,2.18-1.33,.22-.44,.57-.73,1.06-.83Z"/>
    <path class="cls-6" d="M105.52,72.13c-.24,.43-.69,.57-1.06,.83-.13-.4-.65,.06-.71-.26-.04-.25,.28-.42,.52-.56,1.17-1.24,2.22-2.58,3.12-4.02,.39-.62,.9-1.12,1.4-1.63,.64-.66,1.29-.68,1.9,.05-1.56,2.01-3.24,3.92-5.17,5.59Z"/>
    <path class="cls-66" d="M69.09,82.89c.65,.21,1.32,.4,1.89,.79,.37,.37,.87,.48,1.34,.66,.71,.26,.83,.57,.45,1.21-.18,.3-.47,.5-.7,.75-.72,.78-.71,1.38,0,2.13,.61,.63,.52,.88-.14,1.49-1.53,1.41-3.29,2.3-5.33,2.67-.49,.09-.87,.26-.63,.88-1.07,.53-2.26,.5-3.39,.61-2.41,.23-4.81,.56-7.22,.72-.13,0-.24-.03-.34-.11-.55,0-1.1,0-1.65,0,.61-.55,.21-1.03-.16-1.46-.25-.31-.59-.55-.89-.82-1.19-1.35-2.01-2.94-2.66-4.59-.41-1.03-.71-2.13-.97-3.21-.24-1.01-.88-1.31-1.68-1.26-.62,.04-.75-.24-.89-.66,2.2-.07,3.06,1.2,3.57,3.19,.43,1.67,1.25,3.27,2.57,4.5,.96,.89,2.05,1.29,3.39,1.47,2.46,.34,4.86,0,7.25-.31,1.58-.21,3.11-.79,4.63-1.3,.41-.14,.93-.54,.86-1.05-.08-.54-.66-.49-1.11-.5-.39,0-.72-.18-.8-.53-.1-.41,.28-.59,.59-.74,.85-.41,1.71-.78,1.49-2-.02-.13,.11-.37,.23-.44,1.16-.59,.73-1.23,.08-1.88,.07-.07,.13-.14,.2-.21Z"/>
    <path class="cls-32" d="M99.1,67.17c-.06,0-.13,0-.19,0-.31-.94,.03-1.9-.06-2.85-.08-.84-.23-.94-1.03-.64-.45,.17-.74,.48-.94,.9-.2,.44-.46,.87-.56,1.33-.48,2.04-1.99,3.21-3.53,4.37-.56,.42-1.01,.28-1.45-.17q-1.61-1.64-3.07,.05c-.53,.62-.71,.56-1.03-.31,.33-.9,.56-1.84,.86-2.75,.34-1.05,.97-1.25,1.84-.54,.64,.52,1.14,1.19,1.66,1.82,.45,.55,.86,.58,1.38,.1,.71-.67,1.34-1.38,1.52-2.38,.31-1.71,1.59-3.02,1.92-4.72,.34-1.21,.41-2.48,.81-3.69,.13-.39,.25-.77,.66-.81,.51-.05,.51,.44,.61,.79,.34,1.23,.68,2.47,1.03,3.7,.21,.96,.13,1.93,0,2.89-.14,.97-.28,1.93-.42,2.9Z"/>
    <path class="cls-33" d="M96.41,61.37c-.17,.98-.37,1.93-.95,2.79-.33,.5-.57,1.13-.65,1.72-.16,1.31-.99,2.14-1.86,2.98-.56,.54-1.01,.45-1.45-.14-.46-.6-.91-1.21-1.43-1.74-.32-.32-.7-.75-1.23-.61-.49,.13-.43,.63-.54,1.02-.2,.72-.55,1.4-.61,2.17-.01,.2-.2,.25-.38,.28-.14,0-.28,0-.42,0-.64-.78-.65-1.81-1.02-2.69,.69,0,.89-.32,.84-1-.05-.79-.33-1.85,.68-2.16,.84-.26,1.49,.47,2.08,1.07,.5,.51,1.04,.99,1.57,1.48,1.16,1.03,2.12,.12,2.97-1.2,.84-1.3,1.9-2.47,2.41-3.97Z"/>
    <path class="cls-30" d="M99.52,64.26c0-.96,0-1.93,0-2.89,0-2.29,.09-4.59-.03-6.88-.08-1.4-.15-2.79-.18-4.19-.02-.96,0-1.91,.43-2.8,1.13,1.74,1.19,3.68,.96,5.63-.3,2.57-.79,5.11-.79,7.72,0,1.13-.04,2.3-.38,3.41Z"/>
    <path class="cls-31" d="M95.79,58.68c-.33-1.59,.13-3.07,.62-4.55-.11,1.53-.24,3.06-.62,4.55Z"/>
    <path class="cls-52" d="M78.62,52.89c1.31,2.06,2.43,4.23,3.52,6.41,.02,.17,.1,.44,.04,.48-.3,.19-.4-.14-.54-.3-1.26-1.36-1.94-3.1-2.92-4.65-1-1.59-1.91-3.23-3-4.76-.04-.06-.1-.1-.12-.16-.11-.27-.45-.57-.16-.83,.26-.22,.44,.23,.7,.28,0,0,0,0,0,0,.95,1.09,1.79,2.25,2.48,3.52Z"/>
    <path class="cls-51" d="M71.58,81.23c.84-1.48,1.96-.45,2.96-.28,.03-.11,.06-.18,.05-.23-.07-.39-.81-.51-.54-.98,.3-.51,.88-.58,1.46-.58,1.95-.02,1.94-.03,2.49-1.93,.19-.65,.65-.82,1.28-.63,.47,.14,.83,.15,.7-.55-.08-.42,.21-.69,.59-.87,.91-.42,1.75-.91,2.42-1.68,.23-.26,.66-.48,1-.49,.62,0,1-.38,1.45-.68,.7,.65,.82,1.55,.97,2.41,.05,.29-.06,.92-.53,.86-1.62-.18-1.99,1.14-2.58,2.1-.45,.73-.84,1.31-1.79,1.26-.49-.03-.62,.33-.63,.76,0,.95-.47,1.22-1.34,.89-.35-.13-.73-.19-1.09-.31-.48-.16-.62,.1-.67,.5-.81,.52-1.5,1.3-2.63,1.07-.2-.04-.5,.09-.57,.35-.08,.29,.18,.43,.37,.56,.37,.24,.76,.46,1,1.17-1.58-.99-2.98-1.86-4.37-2.73Z"/>
    <path class="cls-33" d="M86.28,71.3c.3,.02,.65,.28,.82-.2,.07-.08,.13-.08,.2,0,.14,.41,.12,.88,.41,1.24,0,.07,0,.14,.01,.21-.03,.19,.06,.44-.2,.52-.2,.06-.33-.11-.37-.27-.16-.58-.62-.98-.87-1.49Z"/>
    <path class="cls-10" d="M87.3,71.1h-.1s-.1,0-.1,0c-.27-.38-.21-.82-.22-1.24,.03-.11,0-.3,.17-.26,.1,.02,.17,.17,.25,.26,.2,.32,.32,.94,.76,.15,.18-.32,.45-.6,.69-.89,.71-.86,1.31-.88,2.06-.07,.23,.25,.43,.54,.63,.81,.45,.61,.89,.72,1.35,0,.09-.14,.21-.31,.35-.37,2.14-.84,2.57-2.89,3.28-4.7,.39-1,1.1-1.41,2.02-1.65,.59-.16,.63,.25,.64,.65,.02,1.13,.06,2.26-.19,3.38-.06,.35,.11,.74-.21,1.03-.14-.53,.34-1.36-.39-1.54-.65-.16-.83,.68-1.19,1.12-.94,1.16-1.39,2.58-2.11,3.85-.57,1.01-1.58,1.52-2.55,2.02-.69,.36-1.35,.17-1.7-.64-.11-.25-.23-.5-.34-.75-.5-1.15-1.43-1.42-2.34-.7-.36,0-.18-.84-.77-.47Z"/>
    <path class="cls-19" d="M78.62,52.89c-.92-1.1-1.78-2.26-2.48-3.52,1.24,.88,2.02,2.09,2.48,3.52Z"/>
    <path class="cls-50" d="M51.96,97.81c.48-.57,1.02-.29,1.37,.06,.88,.88,2.21,.62,3.15,1.32,.14,.1,.42,.1,.6,.03,1.33-.47,2.78-.26,4.1-.86,.89-.41,1.83-.57,2.88-.42,1.43,.21,2.85-.22,4.24-.55,.33-.08,1.72-.41,.34-1.26-.34-.21-.09-.56,.03-.84,.07-.12,.16-.25,.29-.27,1.56-.25,2.25-1.79,3.55-2.42,.05-.03,.04-.12,.02-.19-.02-.09,0-.16,.07-.22,.41,0,.83,0,1.24,0,.03,.58-.57,.53-.83,.83-.47,.53-1.18,1-.27,1.75,.43,.35,.14,.65-.16,.81-1.06,.58-1.56,1.62-1.9,2.62-.64,1.9-2.12,2.38-3.76,2.45-1.95,.08-3.85-.52-5.77-.85-.27-.05-.53-.21-.8-.1-1.8,.69-3.58-.06-5.37-.07-.55,0-.92-.49-1.27-.82-.53-.49-1.12-.77-1.77-1.01Z"/>
    <path class="cls-54" d="M73.43,84.55c.15-.12,.1-.24-.02-.32-.25-.16-.41-.3-.22-.63,.2-.36,.43-.19,.67-.09,.2,.08,.4,.3,.61,.02,.62,.35,1.23,.69,1.85,1.04-.05,.43-.51,.63-.61,1.03-.65-.12-1.15-.63-1.82-.67-.17-.1-.52,.02-.45-.37Z"/>
    <path class="cls-45" d="M75.71,85.6c-.24-.61,.31-.75,.61-1.03,.29,.17,.57,.38,.88,.51,.83,.35,.8,.79,.18,1.33-.61-.16-1.17-.42-1.67-.81Z"/>
    <path class="cls-22" d="M73.43,84.55c.15,.12,.3,.25,.45,.37,.02,.6,.59,.49,.91,.69,.5,.31,.59,.49,.03,.83-1,.62-1.01,.76-.22,1.64,.27,.3,.34,.55,.09,.9-.52,.75-.94,1.6-1.92,1.9-.19,.06-.37,.19-.51,.33-.22,.24-.68,.43-.57,.78,.13,.39,.6,.14,.91,.21,0,.06-.01,.12-.02,.18-.06,.1-.14,.17-.24,.22-.66,.31-1.39,.21-2.07,.42-.56,.08-1.11,.19-1.67,.28-.53,.01-1.06,.03-1.59,.16-.36,.08-.73,.08-1.03-.22-.24-.07-.63,.14-.71-.21-.08-.36,.31-.37,.56-.45,.42-.13,.84-.33,1.28-.37,2.03-.22,3.41-1.59,4.95-2.69,.43-.31,.29-.56-.11-.87-.98-.74-.96-1.84-.01-2.63,.18-.15,.42-.27,.54-.46,.27-.43,.65-.88-.3-1.08-.43-.09-1.06-.16-1.2-.8,.82,.29,1.63,.58,2.44,.87Z"/>
    <path class="cls-20" d="M68.69,104c-.53,1.22-1.38,2.11-2.7,2.48,.9-.83,1.8-1.65,2.7-2.48Z"/>
    <path class="cls-48" d="M70.31,92.8c.66-.35,1.42-.15,2.1-.38,.26,.38-.06,.49-.3,.59-.77,.33-1.38,.8-1.91,1.48-.5,.64-1.39,.61-2.13,.82h0c-.11,.09-.28,.07-.37,.16-1.21,1.04-2.6,1.58-4.19,1.69-1.99,.14-3.9,.69-5.84,1.1-.76,.16-1.49,.2-2.22-.05-1.06-.55-2.14-1.07-3.27-1.46-.37-.13-.71-.28-.66-.77,.06-.55,.47-.58,.88-.67,.88-.19,1.75-.41,2.63-.62,.07,0,.13,0,.2,0,1.12-.09,2.23-.33,3.36-.3,.39,.24,.1,.38-.1,.48-.53,.28-1.12,.31-1.71,.31-.94-.01-1.84,.19-2.74,.43-.19,.05-.44,.12-.41,.38,.02,.18,.22,.26,.38,.3,1.36,.38,2.73,.71,4.16,.52,1.91-.26,3.8-.57,5.72-.75,.82-.07,1.51-.48,2.17-.9,1.28-.82,2.58-1.57,4.01-2.08,.13-.05,.25-.11,.22-.28Z"/>
    <path class="cls-18" d="M55.44,98.21c1.91,.09,3.7-.54,5.54-.9,.87-.17,1.75-.24,2.63-.36,1.23-.17,2.4-.49,3.4-1.28,.3-.24,.65-.39,1.05-.35-.09,.1-.21,.19-.28,.3-.24,.39,.76,.46,.26,.88-.35,.29-.66-.28-1.04-.19-.03,0-.06,.03-.09,.06-1.79,1.48-4.11,.71-6.08,1.43-1.05,.38-2.2,.38-3.27,.76-.71,.25-1.49,.17-2.14-.33Z"/>
    <path class="cls-18" d="M68.06,95.31c.94-.38,1.98-.58,2.48-1.69,.14-.31,.65-.57,1.13-.61,.34-.03,.68-.16,.72-.59,.06-.01,.13-.02,.19-.03,.14,.02,.31-.01,.4,.06,.22,.19-.02,.3-.14,.35-.94,.4-1.59,1.11-2.28,1.84-.4,.43-1.24,.46-1.89,.66-.21,0-.41,0-.62,0Z"/>
    <path class="cls-36" d="M59.11,76.9c-.96-.06-1.77-.57-2.6-.95-1.29-.59-2.68-.81-4-1.31-.99-.37-1.86-.86-2.55-1.67-.52-.62-.41-1,.35-1.29,1.18-.45,2.28-.05,3.26,.49,2.04,1.13,3.98,2.42,5.82,3.85,.22,.17,.61,.36,.46,.71-.12,.3-.49,.11-.75,.17Z"/>
    <path class="cls-58" d="M58.75,94.48c-1.18-.06-2.34,.35-3.52,.2,1.48-.43,3.01-.42,4.52-.62,2.08-.27,4.2-.27,6.25-.83,.91,.08,1.78-.34,2.69-.21-.06,.54-.52,.48-.85,.54-2.69,.49-5.4,.84-8.12,1.15-.34,.04-.69,.04-.95-.24Z"/>
    <path class="cls-53" d="M58.75,94.48c2.92-.21,5.8-.68,8.68-1.16,.41-.07,.91,.1,1.26-.29,.54-.08,1.08-.15,1.62-.23,.16,.02,.33,.05,.49,.07-2.18,.92-4.05,2.35-6.13,3.35-.67,.32-1.54,.24-2.32,.33-1.25,.15-2.53,.21-3.76,.47-1.69,.36-3.26-.08-4.84-.51-.3-.08-.76-.18-.7-.62,.05-.39,.48-.44,.8-.55,1.44-.49,2.99-.3,4.45-.64,.16-.04,.3-.14,.45-.21Z"/>
  </g>
</svg>