<?xml version="1.0" encoding="UTF-8"?>
<svg id="Layer_2" data-name="Layer 2" xmlns="http://www.w3.org/2000/svg" xmlns:xlink="http://www.w3.org/1999/xlink" viewBox="0 0 150 150">
  <defs>
    <style>
      .cls-1 {
        fill: url(#linear-gradient);
        stroke: #939393;
        stroke-miterlimit: 10;
        stroke-width: 3px;
      }
    </style>
    <linearGradient id="linear-gradient" x1="131.7" y1="41.8" x2="15.27" y2="111.12" gradientUnits="userSpaceOnUse">
      <stop offset="0" stop-color="#56a186"/>
      <stop offset=".23" stop-color="#578772"/>
      <stop offset="1" stop-color="#58635e"/>
    </linearGradient>
  </defs>
  <polygon class="cls-1" points="136.84 112.14 136.84 39.87 74.25 3.73 11.66 39.87 11.66 112.14 74.25 148.28 136.84 112.14"/>
  <path d="M72.03,109.83c-9.93-.43-19.18-3.52-27.15-10.1-3.81-3.15-7.04-6.76-9.1-11.31-.05-.12-.15-.23-.17-.35-.28-1.94-1.32-2.88-3.36-2.79-.85,.04-1.08-.83-.68-1.41,.66-.96,1.37-2.08,2.35-2.6,1.65-.88,1.76-2.04,1.5-3.61-.39-2.33,.32-4.31,2.17-5.84,.16-.14,.32-.33,.51-.38,1.78-.47,2.34-1.87,2.82-3.43,.53-1.72,2.04-2.39,3.61-2.75,1.15-.26,1.84-.9,2.5-1.8,3.01-4.06,6.97-6.34,12.13-6.36,.46,0,1-.39,1.36-.75,3.52-3.56,7.56-6.23,12.62-6.86,1.96-.24,3.99,.08,5.98,.07,.48,0,1.08-.13,1.42-.43,1.75-1.57,3.45-3.19,5.11-4.85,.82-.81,1.52-.82,2.47-.15,1.91,1.37,2.68,1.16,4.15-.69,.71-.9,1.57-1.68,2.39-2.49,.72-.71,1.55-.72,2.35-.19,3.73,2.51,7.31,1.65,10.86-.42,.55-.32,1.11-.67,1.71-.87,.3-.1,.79-.03,1.03,.16,.16,.12,.14,.66,0,.92-.53,1.07-1.22,2.08-1.68,3.18-.18,.43-.1,1.31,.21,1.55,3.56,2.78,4.91,6.81,5.84,10.89,2.09,9.12,1.48,18.15-2.06,26.86-3.66,9-10.1,15.57-18.34,20.49-6.85,4.09-14.29,6.08-22.56,6.3Z"/>
</svg>