<?xml version="1.0" encoding="UTF-8"?>
<svg id="Layer_2" data-name="Layer 2" xmlns="http://www.w3.org/2000/svg" xmlns:xlink="http://www.w3.org/1999/xlink" viewBox="0 0 150 150">
  <defs>
    <style>
      .cls-1 {
        fill: url(#linear-gradient);
        stroke: #939393;
        stroke-miterlimit: 10;
        stroke-width: 3px;
      }
    </style>
    <linearGradient id="linear-gradient" x1="132.7" y1="40.8" x2="16.27" y2="110.12" gradientUnits="userSpaceOnUse">
      <stop offset="0" stop-color="#56a186"/>
      <stop offset=".23" stop-color="#578772"/>
      <stop offset="1" stop-color="#58635e"/>
    </linearGradient>
  </defs>
  <polygon class="cls-1" points="137.84 111.14 137.84 38.87 75.25 2.73 12.66 38.87 12.66 111.14 75.25 147.28 137.84 111.14"/>
  <path d="M49.83,55.05c2.85,1.38,4.23-2.65,7.13-2.3,.43,.02,1.02-.74,1.29-.95,1.41,.49,2.41-1.01,3.82-.74,.71-1.87,1.18-.81,2.43-.17,1.71-.26,3.47,.68,5.16-.28,.3-.17,.85,.03,1.26,.14,2.27,1.14,5.13,1.01,7.55,1.69,1.95,1.73,4.43,1.4,6.71,1.65,13.08,1.21,39.56,8.07,32.45,25.86-15.42,29.92-67.22,29.93-82.56-.18-6.45-12.08,9.28-16.97,14.77-24.72Z"/>
</svg>