<?xml version="1.0" encoding="UTF-8"?>
<svg id="Layer_2" data-name="Layer 2" xmlns="http://www.w3.org/2000/svg" xmlns:xlink="http://www.w3.org/1999/xlink" viewBox="0 0 150 150">
  <defs>
    <style>
      .cls-1 {
        fill: #544b41;
      }

      .cls-2 {
        fill: #bca366;
      }

      .cls-3 {
        fill: #c08d31;
      }

      .cls-4 {
        fill: #b29243;
      }

      .cls-5 {
        fill: #b0aeb2;
      }

      .cls-6 {
        fill: #f3f6e7;
      }

      .cls-7 {
        fill: #f7f6f3;
      }

      .cls-8 {
        fill: #f2d041;
      }

      .cls-9 {
        fill: #78190a;
      }

      .cls-10 {
        fill: #f3de5c;
      }

      .cls-11 {
        fill: #ece99a;
      }

      .cls-12 {
        fill: #764d27;
      }

      .cls-13 {
        fill: #e02e13;
      }

      .cls-14 {
        fill: #eaf0f1;
      }

      .cls-15 {
        fill: #db2f10;
      }

      .cls-16 {
        fill: #f4f4f5;
      }

      .cls-17 {
        fill: #8d662c;
      }

      .cls-18 {
        fill: #b18944;
      }

      .cls-19 {
        fill: #f8d751;
      }

      .cls-20 {
        fill: #ead1ab;
      }

      .cls-21 {
        fill: #f8df39;
      }

      .cls-22 {
        fill: #81776d;
      }

      .cls-23 {
        fill: #ae9747;
      }

      .cls-24 {
        fill: #89290d;
      }

      .cls-25 {
        fill: #8d180c;
      }

      .cls-26 {
        fill: #f3d439;
      }

      .cls-27 {
        fill: url(#linear-gradient);
        stroke: #c3fcd2;
        stroke-width: 3px;
      }

      .cls-27, .cls-28 {
        stroke-miterlimit: 10;
      }

      .cls-29 {
        fill: #e1dce4;
      }

      .cls-30 {
        fill: #c19521;
      }

      .cls-31 {
        fill: #f1d63f;
      }

      .cls-32 {
        fill: #d6d7df;
      }

      .cls-33 {
        fill: #f4c81e;
      }

      .cls-34 {
        fill: #b09f42;
      }

      .cls-35 {
        fill: #8c5925;
      }

      .cls-36 {
        fill: #cfcde5;
      }

      .cls-37 {
        fill: #eec92f;
      }

      .cls-38 {
        fill: #e8c04d;
      }

      .cls-39 {
        fill: #cc270e;
      }

      .cls-40 {
        fill: #dca834;
      }

      .cls-41 {
        fill: #d2a247;
      }

      .cls-42 {
        fill: #7a7979;
      }

      .cls-43 {
        fill: #c8a048;
      }

      .cls-44 {
        fill: #f1c128;
      }

      .cls-45 {
        fill: #bb8229;
      }

      .cls-46 {
        fill: #906f35;
      }

      .cls-47 {
        fill: #e6e4da;
      }

      .cls-48 {
        fill: #9f9f9f;
      }

      .cls-49 {
        fill: #f1f6f6;
      }

      .cls-50 {
        fill: #d1a472;
      }

      .cls-51 {
        fill: #ceced6;
      }

      .cls-52 {
        fill: #f7cd3a;
      }

      .cls-53 {
        fill: #e5d67f;
      }

      .cls-54 {
        fill: #f0ce27;
      }

      .cls-55 {
        fill: #cc9950;
      }

      .cls-56 {
        fill: #e6c874;
      }

      .cls-57 {
        fill: #eeefef;
      }

      .cls-58 {
        fill: #a57329;
      }

      .cls-59 {
        fill: #94817e;
      }

      .cls-60 {
        fill: #c9c9ce;
      }

      .cls-61 {
        fill: #d8ae53;
      }

      .cls-62 {
        fill: #f7ea6f;
      }

      .cls-63 {
        fill: #c7a234;
      }

      .cls-64 {
        fill: #b69b49;
      }

      .cls-65 {
        fill: #d19d5b;
      }

      .cls-66 {
        fill: #cae0c4;
      }

      .cls-67 {
        fill: #b4b4b4;
      }

      .cls-68 {
        fill: #c2c4c3;
      }

      .cls-69 {
        fill: #c29763;
      }

      .cls-70 {
        fill: #323231;
      }

      .cls-71 {
        fill: #626567;
      }

      .cls-72 {
        fill: #ececed;
      }

      .cls-73 {
        fill: #828487;
      }

      .cls-74 {
        fill: #bfc0c0;
      }

      .cls-75 {
        fill: #b11d0c;
      }

      .cls-76 {
        fill: #e1eae9;
      }

      .cls-77 {
        fill: #cfd3d5;
      }

      .cls-78 {
        fill: #cea32c;
      }

      .cls-79 {
        fill: #7d8084;
      }

      .cls-80 {
        fill: #b98b65;
      }

      .cls-81 {
        fill: #f3eff1;
      }

      .cls-82 {
        fill: #f9e865;
      }

      .cls-83 {
        fill: #ede8e8;
      }

      .cls-84 {
        fill: #efecf0;
      }

      .cls-85 {
        fill: #c0a666;
      }

      .cls-86 {
        fill: #efd142;
      }

      .cls-87 {
        fill: #a8a9a8;
      }

      .cls-88 {
        fill: #d4ab4a;
      }

      .cls-89 {
        fill: #f5d845;
      }

      .cls-90 {
        fill: #e7e5ed;
      }

      .cls-91 {
        fill: #f6f0e9;
      }

      .cls-92 {
        fill: #f6f7f1;
      }

      .cls-93 {
        fill: #8f918f;
      }

      .cls-94 {
        fill: #f0ce3f;
      }

      .cls-95 {
        fill: #d0d9e6;
      }

      .cls-96 {
        fill: #f8e652;
      }

      .cls-97 {
        fill: #bca137;
      }

      .cls-98 {
        fill: #e3d5cf;
      }

      .cls-99 {
        fill: #e5cb62;
      }

      .cls-100 {
        fill: #d5d5da;
      }

      .cls-101 {
        fill: #7d7166;
      }

      .cls-102 {
        fill: #e0c240;
      }

      .cls-103 {
        fill: #3a3a3b;
      }

      .cls-104 {
        fill: #e1e1e1;
      }

      .cls-105 {
        fill: #d6d6d7;
      }

      .cls-106 {
        fill: #ebc117;
      }

      .cls-107 {
        fill: #b9a779;
      }

      .cls-108 {
        fill: #b9a055;
      }

      .cls-109 {
        fill: #d6be64;
      }

      .cls-110 {
        fill: #5a5b5b;
      }

      .cls-111 {
        fill: #b28f3d;
      }

      .cls-112 {
        fill: #d5c7db;
      }

      .cls-113 {
        fill: #b0afaf;
      }

      .cls-114 {
        fill: #86674a;
      }

      .cls-115 {
        fill: #e9bf27;
      }

      .cls-116 {
        fill: #bdbabb;
      }

      .cls-117 {
        fill: #f6cb47;
      }

      .cls-118 {
        fill: #e3e9de;
      }

      .cls-119 {
        fill: #8a8a8c;
      }

      .cls-120 {
        fill: #94845e;
      }

      .cls-121 {
        fill: #e2e5e9;
      }

      .cls-122 {
        fill: #f8e441;
      }

      .cls-123 {
        fill: #d4d4d4;
      }

      .cls-124 {
        fill: #b0a7a0;
      }

      .cls-125 {
        fill: #ded25a;
      }

      .cls-126 {
        fill: #f5e16e;
      }

      .cls-127 {
        fill: #bbbbb7;
      }

      .cls-128 {
        fill: #d93116;
      }

      .cls-129 {
        fill: #d6a94c;
      }

      .cls-130 {
        fill: #d6e7f2;
      }

      .cls-131 {
        fill: #e5ceb4;
      }

      .cls-132 {
        fill: #e4db70;
      }

      .cls-133 {
        fill: #88210b;
      }

      .cls-134 {
        fill: #d4a452;
      }

      .cls-135 {
        fill: #e2e3e4;
      }

      .cls-136 {
        fill: #ea3719;
      }

      .cls-137 {
        fill: #b99863;
      }

      .cls-138 {
        fill: #e6e9eb;
      }

      .cls-139 {
        fill: #af943a;
      }

      .cls-140 {
        fill: #9e9f9f;
      }

      .cls-141 {
        fill: #e7e7ed;
      }

      .cls-142 {
        fill: #efc648;
      }

      .cls-143 {
        fill: #c7a93f;
      }

      .cls-144 {
        fill: #747473;
      }

      .cls-145 {
        fill: #b1921d;
      }

      .cls-146 {
        fill: #baa55f;
      }

      .cls-147 {
        fill: #f6cd5b;
      }

      .cls-148 {
        fill: #f0f0ed;
      }

      .cls-149 {
        fill: #a38635;
      }

      .cls-150 {
        fill: #f2ce40;
      }

      .cls-151 {
        fill: #8a8b8a;
      }

      .cls-152 {
        fill: #e2a81f;
      }

      .cls-153 {
        fill: #d1b048;
      }

      .cls-154 {
        fill: #897c68;
      }

      .cls-155 {
        fill: #ebac28;
      }

      .cls-156 {
        fill: #b3a27c;
      }

      .cls-157 {
        fill: #b47c26;
      }

      .cls-158 {
        fill: #f3f2ee;
      }

      .cls-159 {
        fill: #dee1c6;
      }

      .cls-160 {
        fill: #d9d2dc;
      }

      .cls-161 {
        fill: #bec3cf;
      }

      .cls-162 {
        fill: #b99f4b;
      }

      .cls-163 {
        fill: #a5a8a9;
      }

      .cls-164 {
        fill: #9b6833;
      }

      .cls-165 {
        fill: #edba17;
      }

      .cls-166 {
        fill: #aaa;
      }

      .cls-167 {
        fill: #f4d153;
      }

      .cls-168 {
        fill: #f0ecee;
      }

      .cls-169 {
        fill: #cca849;
      }

      .cls-170 {
        fill: #babab6;
      }

      .cls-171 {
        fill: #fdfdfc;
      }

      .cls-172 {
        fill: #c2ad62;
      }

      .cls-173 {
        fill: #f4f6ee;
      }

      .cls-174 {
        fill: #f8e153;
      }

      .cls-175 {
        fill: #cc9c3b;
      }

      .cls-176 {
        fill: #c82b0e;
      }

      .cls-177 {
        fill: #f4f54b;
      }

      .cls-178 {
        fill: #c3c5c3;
      }

      .cls-179 {
        fill: #9b651d;
      }

      .cls-180 {
        fill: #f4f845;
      }

      .cls-181 {
        fill: #d99d1d;
      }

      .cls-182 {
        fill: #eed765;
      }

      .cls-183 {
        fill: #59544e;
      }

      .cls-184 {
        fill: #b9913f;
      }

      .cls-185 {
        fill: #515151;
      }

      .cls-186 {
        fill: #d4d4d5;
      }

      .cls-187 {
        fill: #f6d242;
      }

      .cls-188 {
        fill: #d4a130;
      }

      .cls-189 {
        fill: #ba9d67;
      }

      .cls-190 {
        fill: #fbdc5c;
      }

      .cls-191 {
        fill: #c1aa6b;
      }

      .cls-192 {
        fill: #f1cc1a;
      }

      .cls-193 {
        fill: #eeefec;
      }

      .cls-194 {
        fill: #dacab2;
      }

      .cls-195 {
        fill: #d3ba60;
      }

      .cls-196 {
        fill: #e3c361;
      }

      .cls-197 {
        fill: #bbb;
      }

      .cls-198 {
        fill: #ebc841;
      }

      .cls-199 {
        fill: #8f250b;
      }

      .cls-200 {
        fill: #cb9724;
      }

      .cls-201 {
        fill: #e6cc76;
      }

      .cls-202 {
        fill: #cac2c5;
      }

      .cls-203 {
        fill: #e3dddc;
      }

      .cls-204 {
        fill: #f0c66a;
      }

      .cls-205 {
        fill: #c6962e;
      }

      .cls-206 {
        fill: #e7e2e9;
      }

      .cls-207 {
        fill: #9aa0a3;
      }

      .cls-208 {
        fill: #d3b198;
      }

      .cls-28 {
        fill: none;
        stroke: #52ff87;
        stroke-width: 2.04px;
      }

      .cls-209 {
        fill: #e4ce91;
      }

      .cls-210 {
        fill: #e7b743;
      }

      .cls-211 {
        fill: #ece3a7;
      }

      .cls-212 {
        fill: #a15322;
      }

      .cls-213 {
        fill: #97999b;
      }

      .cls-214 {
        fill: #b88332;
      }

      .cls-215 {
        fill: #b6b7bf;
      }

      .cls-216 {
        fill: #a52f16;
      }

      .cls-217 {
        fill: #7d5d3a;
      }

      .cls-218 {
        fill: #e3e1da;
      }

      .cls-219 {
        fill: #c0c29d;
      }

      .cls-220 {
        fill: #926f11;
      }

      .cls-221 {
        fill: #acacac;
      }

      .cls-222 {
        fill: #d5c4c6;
      }

      .cls-223 {
        fill: #eaeff2;
      }

      .cls-224 {
        fill: #b51c0a;
      }

      .cls-225 {
        fill: #e5edf2;
      }

      .cls-226 {
        fill: #e6c747;
      }

      .cls-227 {
        fill: #f9eb58;
      }

      .cls-228 {
        fill: #dddde7;
      }

      .cls-229 {
        fill: #f6e330;
      }

      .cls-230 {
        fill: #eee;
      }

      .cls-231 {
        fill: #916321;
      }

      .cls-232 {
        fill: #bca644;
      }

      .cls-233 {
        fill: #f4d221;
      }

      .cls-234 {
        fill: #a07a44;
      }

      .cls-235 {
        fill: #c3b19e;
      }

      .cls-236 {
        fill: #efc74b;
      }

      .cls-237 {
        fill: #ebe4e7;
      }

      .cls-238 {
        fill: #e7e3ce;
      }

      .cls-239 {
        fill: #c59b54;
      }

      .cls-240 {
        fill: #d8a942;
      }

      .cls-241 {
        fill: #efd997;
      }

      .cls-242 {
        fill: #9f9b99;
      }

      .cls-243 {
        fill: #ca3320;
      }

      .cls-244 {
        fill: #f5f1e9;
      }

      .cls-245 {
        fill: #6c6e6f;
      }

      .cls-246 {
        fill: #b72918;
      }

      .cls-247 {
        fill: #f5d47b;
      }

      .cls-248 {
        fill: #c08617;
      }

      .cls-249 {
        fill: #d1ae65;
      }

      .cls-250 {
        fill: #c4300c;
      }

      .cls-251 {
        fill: #71737f;
      }

      .cls-252 {
        fill: #e2dfa9;
      }

      .cls-253 {
        fill: #b89349;
      }

      .cls-254 {
        fill: #c19f39;
      }

      .cls-255 {
        fill: #dbad44;
      }

      .cls-256 {
        fill: #dedfec;
      }

      .cls-257 {
        fill: #d4c1bb;
      }

      .cls-258 {
        fill: #e0e0df;
      }

      .cls-259 {
        fill: #dfdfdf;
      }
    </style>
    <linearGradient id="linear-gradient" x1="135.96" y1="110.13" x2="14.3" y2="40.18" gradientUnits="userSpaceOnUse">
      <stop offset="0" stop-color="#b6ff93"/>
      <stop offset=".19" stop-color="#56ed86"/>
      <stop offset="1" stop-color="#006833"/>
    </linearGradient>
  </defs>
  <polygon class="cls-27" points="137.47 111.14 137.47 38.87 74.88 2.73 12.28 38.87 12.28 111.14 74.88 147.28 137.47 111.14"/>
  <path class="cls-28" d="M66.47,50.6c-2.93,1.08-5.36,3.5-8.33,3.55,1.22-3.91,7.13-4.38,9.08-7.92,.9-2.11,2.03-2.41,3.96-1.32,2.31,.89,3.3-2.91,5.7-1.79,.21,.08,.63-.24,.88-.45,3.7-3.62,5.6,1.11,9.14,1.83,.82,.16,1.7,.26,2.42,.64,9.22,3.57,19.25,.04,28.76-.4,2.13-.21,.86,3.22,1.28,4.54,.04,.97-.34,1.46-1.38,1.49-7.74,.02-15.53,.95-23.25,.19-3.18-1.31-6.62-2.11-10.07-2.55-.11,3.16,.12,6.27,.46,9.35-.3,.65-.66,1.82-1.01,1.82-1.09,0-.7-1.06-.79-1.75-.21-1.61-.4-3.21-.55-4.41-5.59-1.59-3.61,3.39-3.88,6.85,1.12,1.66,4.03,.88,5.81,1.46,6.54,1.03,12.64,3.25,18.12,7.02,9.47,5.66,14,18.77,7.09,28.14-8.47,11.81-24.23,15.65-38.06,15.06-17.6-.05-43.84-14.93-32.4-35.26,5.71-9.52,16.38-12.86,26.57-15.14,.97-.25,1.37-.51,1.23-1.66-.42-3.12-.36-6.12-.8-9.27Zm4.65,10.49c2.95-.02,3.12-.21,2.73-3.09-.23-3.25-.87-7.06-3.67-9.02-2.38,.73-.49,8-.88,10.35,.05,1.7,.11,1.77,1.82,1.76Zm4.96-7.21c-.66,1.07-.33,5.56,.49,6.7,.78-1.25,.44-5.88-.49-6.7Zm-.37-3.19l.51-3.19c-.15-.02-.31-.04-.46-.06-.7,1-.25,2.17-.05,3.25Z"/>
  <g>
    <path class="cls-167" d="M79.02,53.64c-.21,2.39-.35,4.77,.09,7.15,.13,.16,.25,.34,.29,.54,.05,.87,.07,1.75,.44,2.57,.03,.2,0,.4-.1,.58-.13,.2-.4,.09-.56,.23,.14-.08,.29-.06,.41,.03,.11,.08,.12,.22,.1,.35-.51,.96-.09,1.36,.87,1.44,.6,.05,1.22-.04,1.81,.09,.51,.11,1.17,.07,1.26,.83-1.16,.48-2.4-.17-3.58,.28-.49,.18-1.09,.16-.93,.94,.02,.19,.04,.39,.04,.58,.01,.27,.01,.54,.01,.8,0,.14,0,.27,0,.41-.02,.48,.04,.98-.25,1.42-.11,.1-.23,.12-.37,.08-.48-.84-.25-2.06-1.36-2.57-.22-.27-.21-.64-.38-.95-.48,.2-.3,.83-.74,1.01-.39,.17-.78,.16-1.15-.03-.27-.2-.34-.49-.37-.8-.06-.66-.03-1.34-1-1.36-.98-.02-2.07,.62-2.27,1.42-.09,.38-.03,.78-.18,1.16-.44,.27-1.12,.37-.9,1.16-.04,.12-.11,.2-.23,.25-.12,.02-.24,.02-.35-.01-.8-.23-.47,.42-.51,.71-.13,.8,.22,1.68-.35,2.42-.14,.03-.26,0-.36-.09-.42-.75-.18-1.58-.31-2.36-.05-.8,.25-1.63-.21-2.4-.01-.12,.01-.23,.08-.32,.54-.52-.28-.46-.32-.73,.21-.79,.32-1.57,.1-2.37-.24-.61-.84-.08-1.18-.37-.04-.03-.1-.06-.1-.08,.03-.33-.1-.56-.41-.68,.05-.35,.31-.55,.6-.61,.9-.19,1.02-.82,.95-1.57-.16-.87,.48-1.69,.13-2.56-.11-1.84-.21-3.67-.32-5.51-.18-1.04-.15-2.08,0-3.12,.1-.71,.41-1.39,1.17-1.34,.66,.04,.47,.81,.57,1.29,.05,.21,.12,.42,.16,.64,.23,2.91,.64,5.81,.62,8.74,.12,.85-.35,1.78,.32,2.55,1.02,.31,2.07,.2,3.09,.11,1.32-.11,.7-1.23,.86-1.94,.02-.37,.02-.73-.04-1.09-.18-2.52-.74-5-.67-7.53,.05-1.38-.05-2.74-.23-4.11-.11-.58-.12-1.16-.07-1.74,.03-.43,.18-.83,.26-1.25,.1-.55,.51-.98,.55-1.55,.28-.33,.35-.84,.83-1.01,.76-.04,1.59-.18,1.43,1.04,0,.26-.04,.52-.1,.78-.14,.48-.46,.91-.44,1.44,0,.2,0,.4,0,.6,0,.5,0,.99-.11,1.48-.23,.82-.26,1.67-.08,2.46,.3,1.36,.23,2.67-.13,3.99,.2-.21-.01-.59,.3-.75,.58,.22,.57,.75,.56,1.21-.05,1.67,.24,3.31,.35,4.96,0,.89-.06,1.79,.39,2.85,.27-1.14-.14-2.01-.16-2.91-.07-2.37,.09-4.74-.26-7.09-.11-2.11,.02-4.19,.48-6.26,.83-.5,1.25-.05,1.55,.67,.29,.68,.24,1.44,.47,2.14,.17,1.23,.12,2.45-.09,3.66Z"/>
    <path class="cls-259" d="M79.12,61.35c0-.19,0-.38-.01-.57,3.52,.69,7.19,.56,10.61,1.83,1.55,.73,3.23,1.06,4.81,1.69,3.8,1.42,7.24,3.49,10.47,5.92,.91,.79,1.75,1.63,2.54,2.54,.03,.13,.02,.25-.02,.38-.16,.39-.15,.78-.01,1.16,.37,1.05,.74,2.08-.1,3.12-.22,.27-.1,.67,.05,1.01,.92,2.07,.79,4.24,.58,6.4-.04,.45-.01,.88,.09,1.31,.18,.72,.11,1.39-.33,2.02-.15,.22-.29,.45-.34,.71-.13,.59,.14,1.11,.56,1.4,.5,.35,.74-.28,1.03-.55,.32-.3,.52-.71,.8-1.05,.28-.33,.55-.76,1.08-.57,.49,.18,.52,.67,.56,1.11,.02,.18,.01,.35,.02,.53,.02,.72-.22,1.53,.65,1.97-.18,.84-.52,1.61-.98,2.32-.29,.3-.53,.86-1.03,.62-.45-.22-.31-.77-.24-1.2,.03-.17,.08-.34,.11-.52,.08-.39,.22-.86-.14-1.12-.48-.34-.6,.34-.93,.47-.17,.07-.32,.13-.5,.1-.78-.51-1.85-.53-2.33-1.54-.17-.35-.62-.19-.96-.07-.31,.1-.65,.44-.94,.06-.33-.43-.22-.91,.03-1.35,.31-.53,.84-.89,1.19-1.39,.2-.29,.32-.62,.38-.97,.9-2.37,.61-4.67-.43-6.92-.57-1.24-1.23-2.44-2.03-3.55-.44-1.06-1.68-1.6-1.82-2.85,.14-.22,.34-.41,.54-.57,.49-.38,.5-.67-.11-.94-1-.44-1.73-1.34-2.81-1.68-.66-.21-.47-.69-.03-1.29-1.15,.37-1.88,.03-2.54-.55-1.24-1.08-2.67-1.84-4.15-2.51-.49-.22-.97-.35-1.51-.4-1.39-.12-2.64-.73-3.95-1.14-1.75-.55-3.41-1.34-5.19-1.79-1.03-.26-2.21-.36-2.66-1.61Z"/>
    <path class="cls-104" d="M67.75,60.22c.4,.87,.16,1.79,.17,2.68-1.15,.02-2.16,.55-3.21,.9-1.07,.35-2.16,.6-3.24,.93-.41-.03-.78,.09-1.14,.27-4.12,2.05-8.49,3.56-12.18,6.48-1.23,.97-2.76,1.66-4.11,2.56-.69,.46-1.42,.93-1.31,1.96,.02,.22-.06,.48-.28,.56-1.48,.55-1.69,2.04-2.39,3.16-.42,.67-.78,1.51-1.79,.7,.41-1.59,1.01-3.08,2.18-4.28-.03-.42,.31-.64,.5-.94,2.08-2.93,4.74-5.25,7.71-7.24h-.01c3.33-2.04,6.89-3.6,10.64-4.72,.44-.13,.96-.14,1.29-.56,2.07-.8,4.24-1.2,6.41-1.5,.84-.12,.71-.48,.77-.95Z"/>
    <path class="cls-22" d="M109.03,50.72c-4.87,.45-9.73-.03-14.59-.26-.71-.03-1.23-.42-1.6-1.02-.02-.31-.42-.5-.27-.87,.1-.13,.22-.24,.33-.36,.3-.37,.11-.92,.49-1.26,.19-.09,.37-.09,.56,0,.41,.29,.58,.75,.85,1.14,.38,.51,.93,.41,1.45,.41,2.5,0,4.99,.02,7.49,.02,.91,.02,1.83-.04,2.74-.02,.88,.02,1.75,.13,2.62-.08,.14-.05,.29-.08,.43-.1,1.12-.08,2.23-.14,3.35,.03,.14,.04,.26,.11,.37,.2,.1,.7-.48,.62-.85,.65-.74,.06-1.4,.05-1.75,.95-.25,.63-1.16,.1-1.62,.57Z"/>
    <path class="cls-71" d="M84.19,43.32c1.21,.84,2.69,.85,4.04,1.29,.66,.21,1.32,.4,1.98,.6-.16,.69-.83,1.18-.75,1.96-.09,.4-.22,.77-.54,1.04-1.22,.47-2.26-.4-3.41-.48-.42-.03-.83-.28-1.24,.03-.16,.15-.35,.13-.54,.06-.38-.21-.85-.17-1.19-.47-.07-.18-.04-.41,.12-.45,1.69-.48,1.18-1.76,1.07-2.9-.02-.13,0-.25,.03-.37,.09-.18,.24-.29,.44-.31Z"/>
    <path class="cls-110" d="M109.03,50.72c.04-.39,.29-.51,.64-.5,.6,.02,1.03-.05,.83-.89-.14-.56,.43-.39,.73-.44,.68-.11,1.41,.21,2.05-.25,2-.53,4-1.07,6.06-.28-.16,.71,.78,2.06-1.04,1.79-1.32-.48-2.66-.09-3.59-.15q.71-.11,1.54,.25c-2.39,.43-4.8,.5-7.22,.46Z"/>
    <path class="cls-73" d="M108.05,98.99c-3.02,3.5-6.8,5.94-10.93,7.9-4.81,2.28-9.92,3.46-15.15,4.23-1.13,.17-2.25,.33-3.39,.22-.07-.14-.04-.26,.08-.36,1.92-.75,3.99-.6,5.97-.98,7.17-1.36,13.86-3.79,19.58-8.47,.79-.7,1.51-1.47,2.27-2.2,.34-.33,.64-.74,1.19-.75,.2,.07,.32,.21,.38,.41Z"/>
    <path class="cls-79" d="M62.1,109.83c-5.47-1.19-10.49-3.4-15.01-6.71-3.19-2.33-5.98-5.03-7.74-8.65-.11-.26,.04-.34,.26-.38,1.08,.93,1.69,2.21,2.56,3.3,1.11,1.38,2.47,2.49,3.7,3.73,.41,.48,.96,.79,1.44,1.18,4.11,3.18,8.84,5.09,13.75,6.61,.5,.15,1.05,.18,1.42,.64-.01,.24-.09,.39-.37,.29Z"/>
    <path class="cls-10" d="M68.97,52.07c-.4-.49-.03-1.11-.34-1.74-1.64,1.16-1.03,2.89-1.2,4.38-.43-1-.13-2.05-.23-3.07-.05-.5,.15-1.05-.21-1.51-.33-1.12,.06-2.13,.45-3.14,.28-1,.46-2.06,1.53-2.6,1.07-.25,.89,.57,.88,1.12,0,.74-.38,1.44-.36,2.2,.02,.29-.05,.56-.08,.85-.02,.29,0,.58,0,.87-.1,.89,.32,1.87-.45,2.65Z"/>
    <path class="cls-144" d="M66.11,50.44c-2.12,1.07-4.23,2.15-6.36,3.2-.44,.22-1.02,.71-1.41,.11-.35-.54,.36-.8,.67-1.09,1.67-1.51,3.53-2.76,5.51-3.84,.5,.64,.28,1.16-.32,1.54-.52,.32-1.04,.65-1.63,.84,.75-.22,1.36-.79,2.11-.98,.46-.12,1.08-.63,1.42,.23Z"/>
    <path class="cls-123" d="M119.33,45.41c0,.28,0,.56,.01,.85-1.16,.62-2.44,.6-3.7,.64-2.83,.14-5.61,.88-8.46,.78-1.08-.11-2.26,.39-3.23-.48,.03-.17,.12-.29,.27-.37,2.12-.49,4.3-.55,6.45-.83,2.21-.31,4.42-.53,6.63-.85,.7-.1,1.39-.21,2.02,.25Z"/>
    <path class="cls-119" d="M115.65,46.52c1.25,.2,2.44-.53,3.7-.27,0,.7,0,1.41,0,2.11-2.02,.09-4.04,.19-6.06,.28-.1-.02-.19-.03-.29-.05,.85-.74,1.89-1.23,2.66-2.08Z"/>
    <path class="cls-4" d="M82.56,47.27c.42,.13,.94-.19,1.27,.31-.55,.86-.44,1.82-.33,2.76,.08,.68-.11,1.18-.67,1.54-.06,.48-.47,.72-.76,1.04-.65,.02-.59-.52-.7-.9-.25-.84-.17-1.73-.41-2.57-.13-.89-.2-1.79,.03-2.68,.06-.13,.15-.24,.27-.32,.57,.07,.99,.36,1.31,.83Z"/>
    <path class="cls-143" d="M82.83,51.88c.62-1.04,.14-2.17,.24-3.26,.05-.53-.05-1.11,.77-1.04,.11,.06,.22,.11,.33,.17,.07,.13,.1,.27,.1,.42,.44,1.98,.11,4.03,.6,6.01,.03,.62,.07,1.25,.1,1.87-.82-.6-1.48-1.3-1.59-2.38-.22-.59,.29-1.4-.55-1.79Z"/>
    <path class="cls-151" d="M66.11,50.44c-.86-.38-1.56,.12-2.29,.43-.66,.28-1.29,.61-2.24,1.07,.61-1.02,1.37-1.2,2.01-1.49,.75-.34,1.08-.83,.94-1.64,.85-.81,2-1.13,2.91-1.83,.05,1.08-.13,2.12-.45,3.14-.29,.1-.59,.21-.88,.31Z"/>
    <path class="cls-71" d="M104.25,46.97c-.09,.02-.17,.05-.26,.07-.37,.4-.86,.4-1.34,.41-2.45,.03-4.9,.02-7.35,0-.49,0-.97-.05-1.35-.4-.18,0-.36-.01-.55-.02-1-.02-1.85-.34-2.41-1.21-.01-.02,.03-.08,.06-.11,.05-.05,.13-.05,.23,0,1.33,.65,2.73,.73,4.2,.68,2.92-.1,5.85-.08,8.77-.11,.04,.23,0,.46,0,.69Z"/>
    <path class="cls-88" d="M81.23,49.42c.54,1.1,.18,2.42,.84,3.5-.47,.39-.92,.37-1.32-.11-.23-.27-.45-.51-.84-.48-.44-.83-.61-1.74-.6-2.66,0-.66-.22-1.18-.64-1.65-.05-.94-.12-1.89,.62-2.64,.73-.19,.86,.29,.8,.81-.18,1.53,.09,2.95,.87,4.17,.02-.26-.1-.66,.26-.95Z"/>
    <path class="cls-196" d="M83.38,53.67c.26,.97,1.52,1.27,1.59,2.38,.41,.75,.22,1.55,.16,2.32-.03,.36-.16,.82-.69,.84-.55,.02-.63-.41-.65-.82-.08-1.58-.51-3.13-.41-4.72Z"/>
    <path class="cls-195" d="M75.95,44.46c.44-1.17-.81-.67-1.1-1.11,.34-.4,.88-.67,1.29-.49,1.22,.52,1.92-.21,2.75-.86,.83-.65,1.78-1.11,2.86-.48-.28,.31-.7,.3-1.04,.46-1.37,.54-2.08,1.64-2.52,2.97-.14,.41,0,1.02-.7,1.08-.2-.18-.25-.43-.28-.68,.14-1.08-.73-.74-1.25-.87Z"/>
    <path class="cls-183" d="M84.17,47.75c.17-.7,.63-.37,1.05-.32,1.26,.15,2.44,.77,3.75,.63,1.31-.41,2.5-.11,3.63,.59,.08,.26,.83,.32,.25,.79-2.53-.36-5.05-.8-7.51-1.5-.28-.08-.59-.06-.89-.08-.11,.11-.21,.09-.3-.02l.03-.09Z"/>
    <path class="cls-127" d="M74.02,44.36c.2,.59-.14,1.11-.26,1.65-1.34,.74-2.65,1.56-4.26,1.55-.07-1.43,.13-1.68,1.99-2.42,.85-.23,1.85,0,2.53-.78Z"/>
    <path class="cls-67" d="M111.96,79.33c.9,1.15,1.05,2.55,1.2,3.91,.31,2.79,.3,5.58-.7,8.27-.27-.18-.41-.45-.46-.76,.43-2,.33-4.02,.36-6.04,.02-1.37-.07-2.73-.5-4.04-.12-.38-.22-.77-.05-1.16,.05-.06,.1-.11,.15-.17Z"/>
    <path class="cls-93" d="M91.29,45.71c.43,.88,1.51,.74,2.12,1.33-.13,.51,.26,1.13-.32,1.55-.98-1.31-2.5-1.23-3.88-1.52-.06-.83,.18-1.5,.99-1.86,.43,.03,.78,.2,1.08,.5Z"/>
    <path class="cls-70" d="M119.33,45.41c-2.89,.29-5.78,.58-8.66,.87-.47,.16-.92,.13-1.5-.05,.7-.75,1.62-.04,2.23-.55h-.01c1.87-.2,3.73-.49,5.59-.77,.59-.08,1.17-.16,1.76-.24,.6-.08,.77,.2,.6,.75Z"/>
    <path class="cls-87" d="M60.57,62.66c.05,.44-.36,.41-.58,.48-3.69,1.18-7.28,2.56-10.61,4.58-.21,.13-.49,.16-.74,.23,1.08-1.23,2.61-1.73,4.02-2.41,2.54-1.21,5.17-2.2,7.91-2.88Z"/>
    <path class="cls-213" d="M62.1,109.83c.1-.09,.2-.19,.31-.28,.39-.35,.84-.21,1.26-.14,2.69,.47,5.38,.92,8.11,1.07,.39,.02,.8,.06,1.02,.49-.53,.59-1.29,.05-1.88,.36-2.96-.38-5.96-.53-8.82-1.5Z"/>
    <path class="cls-48" d="M105.03,70.44c-2.38-1.7-4.8-3.34-7.44-4.61-1.02-.49-2.08-.89-3.13-1.33-.06-.25,0-.38,.28-.29,3.77,1.36,7.18,3.36,10.3,5.87,.11,.12,.11,.24-.01,.35Z"/>
    <path class="cls-245" d="M112.25,91.04c.07,.16,.14,.31,.21,.47-.74,2.92-2.34,5.34-4.41,7.48-.12-.12-.24-.23-.36-.35-.08-.74,.57-1.02,.93-1.48,.81-1.06,1.64-2.11,2.36-3.24,.56-.59,.59-1.42,.98-2.09,.22-.22-.05-.61,.29-.79Z"/>
    <path class="cls-185" d="M111.39,45.68c-.5,.61-1.26,.1-1.93,.47,.46,.05,.83,.09,1.2,.13-2.13,.27-4.25,.72-6.41,.69-.41-.23-.34-.46,0-.69,.51-.02,1.02-.04,1.54-.06,.88-.32,1.83,.15,2.7-.27,.94-.31,1.92-.29,2.89-.27Z"/>
    <path class="cls-2" d="M71.49,45.14c-.23,.38-.5,.72-.95,.83-.84,.21-1.03,.83-1,1.58-.03,.18-.11,.31-.33,.29-.28-.77,.25-1.42,.3-2.14,.04-.51,.38-1.2-.55-1.33,1.08-.56,1.97-.48,2.52,.76Z"/>
    <path class="cls-87" d="M48.66,67.95c-.49,.9-1.46,1.23-2.21,1.8-2.08,1.57-3.69,3.61-5.49,5.44,.92-2.13,2.73-3.49,4.37-4.98,.99-.9,1.99-1.85,3.34-2.26Z"/>
    <path class="cls-68" d="M40.45,76.13c-.74,1.4-1.65,2.73-2.09,4.28,.3,1.48-.04,2.88-.59,4.24-.61,0-.2-.58-.46-.78,.12-2.71,1.2-5.11,2.46-7.44,.14-.26,.4-.31,.68-.3Z"/>
    <path class="cls-234" d="M78.87,48.12c.34,0,.64,.14,.68,.48,.14,1.24,.24,2.48,.36,3.72-.2,.28-.4,.56-.6,.84-.56-.18-.31-.65-.32-.99-.03-1,.02-2-.15-2.99,.08-.35-.3-.72,.04-1.07Z"/>
    <path class="cls-103" d="M116.24,50.26h-3c1.82-.86,3.47-.41,5.04-.68,.36-.06,.37,0,.02,.58-.68,.03-1.37,.06-2.05,.1Z"/>
    <path class="cls-163" d="M39.63,94.18c-.09,.1-.18,.19-.28,.29-1.23-1.76-1.53-3.84-2.04-5.85,.18-.16,.37-.14,.56-.02,.51,.88,.53,1.93,.93,2.85,.11,.96,1.06,1.67,.83,2.74Z"/>
    <path class="cls-106" d="M80.68,41.73c.3-.34,.71-.21,1.08-.22,.76,.44,1.64,.7,2.14,1.5-.82,.61-1.56,0-2.33-.16-.37-.17-.68-.42-.92-.76-.06-.13-.05-.25,.03-.36Z"/>
    <path class="cls-4" d="M84.14,47.85c.1,0,.2,.01,.3,.02,.3,2.09,.34,4.2,.43,6.31-.78-2.05-.35-4.23-.73-6.33Z"/>
    <path class="cls-197" d="M94.75,64.22c-.09,.1-.19,.19-.28,.29-1.6-.56-3.21-1.11-4.81-1.67-.02,0-.02-.08-.01-.12,.01-.04,.05-.07,.07-.11,1.72,.39,3.43,.83,5.03,1.61Z"/>
    <path class="cls-42" d="M70.92,111.34c.57-.46,1.25-.08,1.85-.25,1.94-.61,3.87-.65,5.8,.03,0,.08,0,.15,0,.23-2.55,.17-5.1,.14-7.65,0Z"/>
    <path class="cls-166" d="M109.31,74.56c1.28,1.37,2.35,2.86,2.65,4.77,0,0-.02,0-.02,0-.04,0-.11,.04-.12,.03-1.03-1.47-2.09-2.91-2.63-4.65,.04-.05,.08-.1,.12-.15Z"/>
    <path class="cls-185" d="M116.97,44.91c-1.84,.44-3.66,.97-5.59,.78,1.83-.53,3.71-.64,5.59-.78Z"/>
    <path class="cls-113" d="M37.76,88.61c-.15,0-.3,0-.45,0,0-1.58,0-3.16,0-4.74,.29,.2,.2,.51,.24,.78,.5,1.3,.73,2.61,.21,3.96Z"/>
    <path class="cls-220" d="M81.52,42.54c.8,.11,1.54,.55,2.38,.47,.1,.1,.2,.2,.3,.31-.1,.09-.21,.19-.31,.28-.86,.53-1.62-.34-2.46-.16-.56-.36-.35-.64,.09-.9Z"/>
    <path class="cls-88" d="M79.1,48.89c.15,1.42-.28,2.87,.21,4.27-.1,.16-.19,.31-.29,.47-.41-1.21-.05-2.46-.18-3.68-.1-.4-.43-.86,.26-1.06Z"/>
    <path class="cls-166" d="M105.03,70.44c0-.12,0-.23,.01-.35,1.03,.75,1.92,1.65,2.76,2.59-.11,.12-.24,.14-.38,.04-.8-.76-1.6-1.52-2.4-2.28Z"/>
    <path class="cls-221" d="M107.44,72.72c.13-.01,.25-.02,.38-.04,.55,.58,1.27,1.03,1.5,1.87,0,0-.01,.02-.01,.02-1.02-.06-1.45-.78-1.79-1.6-.02-.08-.04-.17-.06-.25Z"/>
    <path class="cls-71" d="M108.5,45.95c-.85,.58-1.8,.2-2.7,.27,.88-.32,1.79-.31,2.7-.27Z"/>
    <path class="cls-57" d="M39.63,94.18c-.3-.91-1-1.65-1.06-2.65,.36-1.35,.17-2.72,.21-4.08,.01-.4-.01-.8,.05-1.19,.07-.44,.15-.96,.64-1.06,.54-.11,.69,.42,.92,.79,.21,.34,.15,1.03,.75,.91,.58-.12,.51-.74,.56-1.21,.18-1.61,.15-3.17-.28-4.77-.24-.87,.33-1.85,.9-2.56,.44-.54,.69-.95,.45-1.63-.15-.42-.18-.98,.33-1.15,1.5-.49,2.17-2.02,3.52-2.69,.23-.11,.4-.39,.65-.44,1.76-.35,2.98-1.59,4.38-2.55,.91-.63,1.83-1.2,2.97-1.37,.67-.1,1.12-.65,1.66-1.03,1.61-1.13,3.32-2.09,5.08-2.96,1.51-.46,3.02-.9,4.52-1.38,.36-.11,.79-.14,1.03-.5,.59-.88,.74-.1,1,.26,.24,.99,.11,1.72-1.16,1.74-.23,0-.45,.24-.68,.37-.04,.36-.33,.48-.61,.63-2.25,1.15-2.69,1.94-2.42,4.33,.02,.13-.03,.26-.09,.38-.42,.38-.88,.27-1.35,.13-1.48-.47-2.99-.35-4.49-.19-.54,.17-1.14,.29-1.57,.65-2.05,1.71-4.45,2.75-6.86,3.81-1.54,.68-2.3,2.11-3.12,3.47-.36,.69-.24,1.49-.51,2.2-.05,.19-.11,.37-.18,.55-.1,.24-.22,.47-.35,.7-1.11,1.8-1.75,3.75-1.89,5.87-.14,1.43,.71,2.55,1.17,3.79,.06,.95,.68,1.3,1.52,1.44,.99,.65,2.19,.96,2.97,1.92-.25,1.4-.85,1.7-1.9,.9-.98-.74-2.04-1.38-2.91-2.26-.35-.35-.71-.51-1.15-.16-.24,.07-.48-.22-.59-.15-.22,.15-.03,.41,.07,.57,1.3,2.16,2.01,4.7,4.13,6.34,.42,.33,1.08,.77,.52,1.52-.27,.11-.51,.04-.74-.11-2.54-1.95-4.54-4.35-6.1-7.14Z"/>
    <path class="cls-136" d="M69.84,71.13c.08,0,.16,0,.24,0,.36,.28,.39,.69,.38,1.07-.07,2.45,.26,4.91-.2,7.35-.06,.31,0,.63-.01,.74,0-1.65,.59-2.26,2.45-2.26,.4,0,.79-.06,1.18-.04,1.43,.08,2.42,1.19,2.32,2.61-.02,.32-.27,.7,.21,.9,.45,.12,.9,.18,1.33-.09,.39-.41,.39-.96,.56-1.45,.5-1.41,1.43-1.95,2.86-1.56,1.1,.3,2.17,.69,3.27,1.02,1.03,.32,1.64,1.13,2.22,1.97,.78,1.53,.51,2.47-.95,3.27-.31,.17-.62,.37-.96,.42-2.86,.39-5.68,1.23-8.61,.81-1.43-.21-2.9,.07-4.33-.34-.32-.09-.56,.19-.84,.32-.88,.4-1.37,.08-1.23-.9,.14-.94,.1-1.83-.2-2.72-.21-3.3-.07-6.6-.08-9.91,0-.44,.03-.89,.4-1.21Z"/>
    <path class="cls-176" d="M68.29,71.62c.53,.83,.2,1.75,.28,2.63,.57,.99,.26,2.07,.31,3.11,.05,1.01,.03,2.03,0,3.04,0,.23-.06,.45-.17,.64-.9,.32-.73-.46-.76-.84-.09-1.31-.03-2.63-.04-3.95,0-.35,.02-.7-.07-1.05-.08-.28-.24-.47-.54-.5-.26-.02-.41,.16-.47,.38-.22,.81-.89,.93-1.55,1.22-1.32,.57-2.61,1.28-3.65,2.3-1.29,1.27-1.34,3.15-.04,4.51,1.11,1.16,2.07,2.38,2.72,3.84,.39,.87,1.26,1.19,1.95,1.72,1.12,.85,.95,2.43,1.92,3.36,.15,.45,.28,.9,.68,1.24,.27,.22,.49,.57,.17,.91-.31,.34-.73,.29-1.09,.08-.72-.41-1.15-1.1-1.4-1.84-.33-.98-.93-1.51-1.92-1.75-1.13-.27-1.94-1.15-2.96-1.62-.83,.1-1.29-.19-1.72-1-.52-.97-1.63-1.53-2.13-2.62-.49-1.07-1.16-2.05-1.16-3.31,0-.49-.35-.89-.63-1.28-.14-.2-.25-.42-.32-.66-.04-.25,.01-.49,.08-.72,.04-.18,.11-.35,.2-.51,1.33-1.85,2.91-3.43,4.86-4.64,.28-.1,.52-.27,.76-.43,.2-.12,.42-.23,.64-.32,.7-.21,1.32-.61,2-.86,.52-.2,1.07-.27,1.58-.48,.69-.3,1.36-.63,2.12-.71,.13,0,.25,.04,.35,.11Z"/>
    <path class="cls-39" d="M78.81,71.84c0-.5,0-1,0-1.49,1.51-.34,2.97-.34,4.32,.57,2.41,.3,4.22,1.73,6.01,3.2,1.18,1.02,2.15,2.3,3.61,2.97,.55,.22,.78,.75,1.12,1.17,.3,.54,.84,.95,.88,1.63,0,1-.24,2.01,.22,2.98,.17,.36,.06,.71-.16,.99-1.5,1.99-2.99,3.98-4.33,6.09-.16,.25-.46,.4-.75,.52-.44,.17-.89,.32-1.38,.28-.74-.14-1.27-.52-1.45-1.28,.03-.47,.46-.58,.75-.82,.27-.26,.25-.56,.07-.84-.6-.93-.09-1.47,.64-1.95,.81-.54,1.57-1.14,2.39-1.65,.65-.4,.88-.85,.79-1.63-.15-1.26-.5-2.43-1.29-3.41-.9-1.13-1.6-2.43-2.78-3.34-.28-.21-.49-.51-.52-.89,.39-1-.28-.54-.66-.48-1.43-.9-3.02-1.02-4.65-.97-1.49,.04-1.73,.22-2.23,1.66-.1,.3,0,1.26-.81,.47-.14-1.28-.38-2.56,.21-3.79Z"/>
    <path class="cls-13" d="M76.47,81.71c-.05,.2-.07,.5-.38,.28-.41-.29-.51-.71-.35-1.18,.22-.65,.28-1.15-.32-1.76-1.21-1.23-2.69-.77-3.9-.55-1.27,.23-1.24,1.72-1.44,2.88,0-3.42,0-6.83,0-10.25,.02-.06,.04-.12,.04-.19,.17-.3,.47-.38,.79-.42,.88-.06,1.74-.27,2.6-.42,.48-.09,.96-.15,1.4,.15,.56,.84,.27,1.79,.34,2.69,.06,.82-.11,1.66,.25,2.48,.63-1.48,.08-3.1,.48-4.6,.27-.62,.53-1.25,1.39-.72,.6,1.71,.29,3.49,.25,5.22-.04,1.71-.25,3.42-.54,5.11-.08,.48-.18,.96-.61,1.27Z"/>
    <path class="cls-230" d="M79.12,61.35c.95,.76,2.11,.98,3.2,1.43,1.8,.74,3.78,.98,5.49,2.06,.56,.36,1.56,.65,2.28,.66,2.9,0,4.91,1.8,7.08,3.27,.49,.33,.79,.57,1.37,.35,.39-.14,.94-.34,1.13,.22,.19,.55-.63,.35-.77,.87,1.46,.25,2.37,1.49,3.69,2.06,.6,.26,1.09,.76-.08,1.01-.38,.08-.4,.86-1,.54-1.07-.27-1.72-1.19-2.6-1.75-.97-.62-1.91-1.26-3.02-1.61-.93-.3-1.76-.79-2.54-1.39-.95-.73-1.99-1.32-3.25-1.29-1.07-.16-2.16,.45-3.22-.08-.63-.35-1.01-1.03-1.7-1.3-1.28-.92-2.68-1.58-4.24-1.86-.46-.08-.94-.19-1.3-.55-.73-.77-.59-1.71-.52-2.63Z"/>
    <path class="cls-177" d="M76.47,81.71c.66-3.84,.93-7.7,.75-11.59-.16-.34-.8-.01-.76-.46,.03-.39,.46-.41,.81-.37,1.68,.28,1.18,1.65,1.35,2.69,.2,1.69-.05,3.39,.25,5.07-.33,1.56-.29,3.2-1.11,4.64-.43,.32-.85,.56-1.29,.02Z"/>
    <path class="cls-180" d="M68.53,81.21c0-.17,0-.33,0-.5,.25-1.64,.04-3.29,.11-4.94,.02-.47-.09-.96,.09-1.42,.01-.96,.01-1.92,.05-2.87,.01-.37-.19-.87,.28-1.05,.57-.21,.41,.56,.77,.7,.02,3.8,.04,7.6,.06,11.41,.06,.6,.21,1.2,.02,1.81-.14,.46-.38,.8-.91,.77-.46-.02-.74-.32-.78-.74-.11-1.07-.4-2.17,.32-3.16Z"/>
    <path class="cls-193" d="M74.58,61.6q.1,2.36-2.24,2.36c-.83,0-1.65-.02-2.48-.04-.05-.07-.13-.15-.13-.22,.06-2.61-.67-2.57,2.42-2.6,.81,0,1.78-.42,2.43,.5Z"/>
    <path class="cls-49" d="M68.05,65.82c0,.9,.76,1.91-.4,2.62-.96,.69-2.07,1.04-3.2,1.33-1.38-.34-.92-1.24-.64-2.08,1.06-1.43,2.47-2.07,4.24-1.87Z"/>
    <path class="cls-82" d="M79.1,48.89c-.38,.28-.22,.7-.26,1.06-.48-.4-.21-.98-.33-1.47-.18-.71-.47-1.25-1.22-1.45-.11-.07-.19-.17-.23-.3-.05-.19-.04-.39,.04-.57,.11-.16,.23-.32,.46-.18,.37-1.35,.72-2.69,1.87-3.65,.38-.32,.72-.65,1.26-.6,.02,.09,.03,.17,.04,.26-.14,1.27-.72,2.38-1.35,3.46-.35,.85-.37,1.77-.5,2.67,.08,.26,.15,.51,.23,.77Z"/>
    <path class="cls-177" d="M76.25,70.89c-.01,1.41-.02,2.82-.04,4.22-.01,.53-.02,1.18-.75,1.16-.71-.02-.56-.67-.57-1.12-.04-1.58-.05-3.17-.07-4.75-.31-.39-.43-.77,.08-1.11,.43,0,.85,0,1.28,0,.35,.52,.14,1.07,.08,1.6Z"/>
    <path class="cls-97" d="M74.88,69.3c-.09,.36-.2,.73-.08,1.11-1.34-.16-2.59,.61-3.93,.4-.21-.24-.23-.49-.05-.76,.03-2.57,.65-2.63,2.1-3.05,1.39-.4,1.91,.07,1.93,1.51,0,.26,.02,.52,.04,.78Z"/>
    <path class="cls-108" d="M76.99,53.39c-.89-.22-1.51-.13-1.26,1.03-.04,.25-.08,.5-.12,.76,.13-2.2-.86-4.35-.29-6.56,.59,.39,.3,1.02,.46,1.58,.39-1.14,.29-2.42,1.07-3.4,.11-.08,.22-.1,.35-.07,.03,.1,.06,.2,.09,.3-.1,2.12-.4,4.23-.3,6.37Z"/>
    <path class="cls-121" d="M83.64,67.4c-1.02-.67-2.19-.41-3.3-.49-.6-.05-1.14-.21-1.35-.83-.18-.53,.03-.93,.59-1.1,1.76-.49,3.06,.61,4.47,1.3,.44,.22,.96,.48,.93,1.14-.28,.31-.63,.32-1,.24-.14-.05-.26-.13-.34-.26Z"/>
    <path class="cls-162" d="M73.89,52.85c-1.01-1.44-2.38-2.66-2.8-4.46,.28-.75,.88-.94,1.59-.91,.5,.33,.37,1.03,.82,1.39,.49,1.29,.32,2.65,.38,3.98Z"/>
    <path class="cls-233" d="M62.88,70.11c-.72-1.97,.17-3.91,2.12-4.68,.36-.14,.72-.28,1.08-.42,.39-.02,.65,.1,.61,.55,.06,.53-.42,.48-.69,.57-.79,.29-1.42,.77-1.96,1.39-.67,.81-.22,1.77-.37,2.65-.06,.13-.16,.21-.3,.24-.23,0-.34-.19-.49-.31Z"/>
    <path class="cls-152" d="M83.64,67.4c.08,0,.16,.01,.24,.04,.21,.23,.71-.02,.77,.35,.05,.36-.36,.43-.62,.57-1.52,.79-3.19,.35-4.78,.55-.15,0-.29-.04-.42-.12-.33-.84-.13-1.24,.85-1.39,1.34-.2,2.64-.14,3.97,0Z"/>
    <path class="cls-33" d="M79.64,63.99c2.14,.2,4.1,.86,5.81,2.18,.37,.46,.55,.85-.3,.9-1.63-1.31-3.65-1.77-5.51-2.58,0-.17,0-.34,0-.51Z"/>
    <path class="cls-44" d="M64.54,69.56c.99-.51,1.99-.98,3.11-1.12,.13,.02,.25,.02,.38,.05,.31,.06,.82-.17,.86,.28,.04,.51-.48,.48-.86,.5-.86,.63-1.89,.9-2.86,1.28-.68-.04-1-.3-.63-.99Z"/>
    <path class="cls-7" d="M69.21,47.85c.11-.1,.22-.19,.33-.29,1.42-.47,2.69-1.35,4.22-1.54-.12,.35-.23,.69-.35,1.04-.08,.48-.43,.43-.78,.4-.91,.17-1.72,.64-2.58,.93-.34,.11-.65,.3-.96-.03,.04-.17,.09-.34,.13-.51Z"/>
    <path class="cls-173" d="M68.29,71.62c-.1,.02-.2,.05-.3,.07-.48,.23-.87,.01-1.25-.25-.36-.27-.84-.42-.94-.94,.58-.72,1.37-.97,2.25-1.03,.59,.66,.56,1.39,.26,2.16Z"/>
    <path class="cls-238" d="M76.37,60.83c.28-.02,.56-.04,.84-.07,.15,.82,.38,1.63,.31,2.48-.03,.37-.04,.72-.53,.75-.5,.03-.6-.3-.57-.68,.07-.83-.36-1.65-.05-2.48Z"/>
    <path class="cls-116" d="M74.58,61.6c-1.41-.57-2.87-.14-4.3-.2-.41-.02-.44,.37-.44,.68,0,.62,.01,1.23,.02,1.85-.57-.93-.15-1.95-.26-2.93,1.65-.25,3.34-.04,4.98-.42,0,.34,0,.68,0,1.02Z"/>
    <path class="cls-184" d="M79.64,64.5c2.02,.41,3.92,1.09,5.54,2.42,.32,.18,.59,.45,.23,.76-.27,.24-.55,.13-.54-.31-1.46-1.46-3.3-2.07-5.28-2.39-.11-.24-.5-.07-.55-.39,.2-.03,.4-.06,.61-.09Z"/>
    <path class="cls-159" d="M78.83,70.04c0-.25,.01-.49,.02-.74,1.18-.66,2.35-.49,3.52,.02,.56,.59,.28,.87-.38,.99-1.06,.03-2.13,.07-3.15-.28Z"/>
    <path class="cls-111" d="M70.07,65.52c1.59,.34,3.08-.43,4.62-.15,0,.61-.41,.46-.67,.46-.8,0-1.64-.08-2.34,.29-.81,.43-1.18,.07-1.62-.61Z"/>
    <path class="cls-55" d="M76.25,70.89c-.03-.53-.06-1.07-.08-1.6,.02-.22,.05-.44,.04-.66-.02-.48,.22-.81,.66-.81,.55,0,.33,.5,.38,.81,.03,.22,.02,.44,.02,.66-.21,.13-.43,.26-.64,.39,.2,.14,.39,.29,.59,.43-.67-.17-.77,.36-.97,.78Z"/>
    <path class="cls-47" d="M77.55,45.98c-.12,.1-.23,.2-.35,.3-.54,.44-1.14,.45-1.77,.24-.16-.56,.21-.92,.49-1.32,.52-.43,1.06-.45,1.6-.03,.01,.27,.03,.54,.04,.8Z"/>
    <path class="cls-253" d="M64,67.42c.59-1.06,1.76-1.28,2.69-1.85,.33-.07,.65-.15,.99-.2,.34-.05,.64-.03,.38,.45-1.56,.23-2.96,.78-4.05,1.98-.11-.12-.11-.25,0-.38Z"/>
    <path class="cls-250" d="M78.83,70.04c1.08,.05,2.15,.09,3.23,.14,.44,.03,.94-.07,1.17,.48,.09,.27,.05,.52-.15,.73-1.19-1.32-2.87-.61-4.27-1.05,0-.1,.01-.2,.02-.3Z"/>
    <path class="cls-250" d="M78.54,77.12c.03-1.71,.05-3.43,.08-5.14,.07-.04,.13-.09,.19-.14,.01,1.35,.02,2.71,.03,4.06,.61,.92,.51,1.79-.09,2.79-.45-.59-.3-1.09-.21-1.58Z"/>
    <path class="cls-128" d="M68.74,74.36c-.08,2.12,.23,4.25-.2,6.36,0-2.15,.02-4.31,.03-6.46,.06,.03,.12,.07,.18,.1Z"/>
    <path class="cls-215" d="M77.51,45.18c-.53,.01-1.06,.02-1.6,.03,.01-.25,.03-.5,.04-.75,1.46-.7,1.47-.69,1.56,.72Z"/>
    <path class="cls-207" d="M82.16,69.53c-1.09-.35-2.2-.25-3.32-.22,0-.18-.01-.35-.02-.53,.12-.04,.24-.07,.37-.11,.81-.14,1.61,.12,2.42,.12,.37,0,.77,.18,.55,.73Z"/>
    <path class="cls-18" d="M68.03,69.47c-.75,.36-1.61,.53-2.23,1.14-.28,.14-.47,.13-.48-.25,.78-.68,1.7-1,2.72-1.09-.02,.07-.02,.13,0,.2Z"/>
    <path class="cls-252" d="M70.83,70.06c.02,.25,.03,.5,.05,.76-.25,.05-.5,.09-.76,.14-.24-.21-.18-.5-.14-.74,.04-.26-.04-.7,.35-.71,.16,0,.33,.36,.5,.55Z"/>
    <path class="cls-1" d="M75.43,46.52c.59-.08,1.18-.16,1.78-.24,0,.15,0,.3,0,.45-.09,.03-.19,.06-.28,.09-.49,.04-.98,.09-1.47,.13,0-.14-.01-.28-.02-.42Z"/>
    <path class="cls-105" d="M107.5,72.97c.6,.53,1.2,1.07,1.79,1.6,.88,1.59,1.76,3.17,2.64,4.76,.62,2.16,.89,4.36,.82,6.62-.05,1.71-.07,3.42-.51,5.09-.02,.29-.01,.59-.29,.79-1.11-.38-.75-1.32-.82-2.11-.04-.5,.27-1.26-.34-1.42-.58-.16-.68,.69-1.04,1.05-.12,.12-.16,.33-.29,.44-.52,.46-.9,1.38-1.64,1.21-.65-.15-.88-2.19-.43-2.84,.41-.6,.63-1.15,.38-1.95-.19-.62-.6-1.44,.21-2.05,.2-.15,.07-.42-.01-.62-.43-1.06-.23-2.17-.28-3.27-.02-.39,.13-.85-.18-1.15-.91-.88-.81-1.63-.01-2.6,.57-.69-.26-1.47-.38-2.23-.08-.52-.6-1.12,.38-1.33Z"/>
    <path class="cls-218" d="M106.07,87.22c.03,.85-.56,1.34-1.09,1.86-.49,.47-.94,.94-.59,1.75,.98-.69,1.87-1.24,2.46,.49,.15,.43,1.37,.16,1.65,1,.08,1.21-.89,1.88-1.44,2.76-.27,.43-.7,.75-1.05,1.13-3.3,3.62-7.41,6-11.93,7.72-.25,.09-.5,.18-.77,.17-.18,0-.36-.03-.42-.24-.06-.19,.05-.33,.18-.46,.22-.23,.53-.31,.8-.44,1.62-.78,3.29-1.45,4.84-2.4,.68-.42,1.26-.88,.94-1.81-.34-.16-.6-.37-.55-.8,.09-.32,.31-.53,.57-.7,.11-.06,.22-.1,.34-.13,.96-.45,1.2-1.47,1.77-2.23,.72-1.22,.54-2.57,.55-3.89,.02-.41,.05-.82,.35-1.14,1-.6,1.96-1.24,2.66-2.2,.18-.24,.39-.47,.74-.43Z"/>
    <path class="cls-223" d="M105.84,96.02c.99-1.16,1.98-2.32,2.65-3.7,.16-.14,.33-.27,.47-.43,.26-.3,.35-.95,.91-.64,.46,.25,.63,.73,.53,1.34-.11,.62-.53,1.21-.23,1.89,.44,.05,.42-.54,.81-.56-.63,1.9-1.98,3.3-3.29,4.72-1.05,.99-2.1,1.97-3.14,2.96-.4,.1-.81,.26-1.18-.09-.17-.64,.34-.94,.66-1.34,1.08-1.33,2.24-2.6,2.91-4.34-.38,.15-.71,.53-1.09,.19Z"/>
    <path class="cls-115" d="M106.07,87.22c-.87,1.12-1.74,2.24-3.16,2.72-.31-.59-.91-1.16-.14-1.84,1.17-1.15,2.5-2.2,2.47-4.08-.08-1.21-.58-2.31-.88-3.45-.12-.48-.42-.82-.8-1.12-.69-1.15-2.06-1.73-2.54-3.05,.8-1.08,1.63-.22,2.46-.05,1.87,2.51,3.26,5.19,3.19,8.45-.02,.88-.38,1.61-.59,2.4Z"/>
    <path class="cls-26" d="M103.47,76.37c-.04,.26-.09,.62-.43,.27-.64-.64-1.3-.56-2.01-.2-.26,.18-.45,.09-.59-.16,.02-.49,.17-1-.3-1.38-.06-.1-.11-.21-.16-.31-.66-1.09-1.48-1.98-2.72-2.4-.41-.14-.81-.28-1.17-.53-.65-.51-1.53-.36-2.21-.78-.52-.29-1.1-.52-1.35-1.14-.58-.94-1.91-.96-2.43-1.97,0-.13,.04-.24,.13-.33,1.31-.06,2.37,.58,3.33,1.32,.7,.54,1.39,1.04,2.24,1.31,2.26,.71,4.05,2.14,5.71,3.75,.65,.86,1.5,1.55,1.96,2.55Z"/>
    <path class="cls-138" d="M61.36,64.51c-.64,.68-1.44,1.15-2.22,1.63-1.1,.68-2.42,1.02-3.24,2.18-.22,.31-.77,.51-1.18,.53-1.47,.06-2.71,.87-3.55,1.77-1.56,1.66-3.91,1.76-5.48,3.24-.48,.45-.82,1.21-1.37,1.4-1.34,.45-1.53,1.17-1,2.35,.13,.29-.1,.53-.44,.69-.55,.26-1.2,.57-.55,1.36,.06,.07,.02,.33,.01,.33-1.66,.15-.44,.95-.35,1.51,.28,1.73,.12,3.46-.06,5.18-.04,.35-.63,.83-1.04,.9-.59,.11-.46-.62-.63-.97-.21-.42-.27-.92-.67-1.31-.53,.39-.49,.91-.49,1.42,0,1.19,0,2.38,0,3.57,0,.5,0,.99-.55,1.22-.54-.9-.64-1.92-.81-2.92-.16-1.32-.3-2.63-.21-3.96,.27-1.41,.54-2.83,.8-4.24,.67,.27,1.16,0,1.32-.64,.23-.91,.78-1.68,1.24-2.41,.58-.94,1.29-1.88,1.96-2.71,1.03-1.27,2.58-2.29,4.24-2.88,.82-.29,1.37-.94,2.04-1.41,2.44-1.71,5.06-3.07,7.82-4.18,1.14-.46,2.22-1.04,3.35-1.53,.31-.14,.63-.59,1.04-.13Z"/>
    <path class="cls-74" d="M93.96,47.06c3.35,0,6.69-.01,10.04-.02,1.02,.55,2.13,.11,3.19,.28,.35,.33,.78,.3,1.23,.31,.59,0,1.21,.12,.88,1h0c-.86,.34-1.79-.08-2.66,.23-.97,0-1.94,0-2.9,.01,.11,.14-.17-.2-.01-.15,.06,.02,.13-.19-.02-.18-2.57,.15-5.14-.21-7.71-.08-.49,.02-1.06,.19-1.45-.33-.16-.38-.65-.58-.57-1.08Z"/>
    <path class="cls-140" d="M109.29,48.63c-.07-.57-.34-.89-.95-.71-.59,.17-1.02,.07-1.15-.61,2.37,.07,4.68-.46,7.02-.72,.48-.05,.96-.05,1.44-.08-.5,1.18-1.34,1.94-2.66,2.08-1.23,0-2.46,.02-3.69,.03Z"/>
    <path class="cls-258" d="M94.53,48.14c3.31-.18,6.62,.05,10,.29-.29,.16-.55,.3-.8,.44-2.66,0-5.33,.02-7.99-.05-.41-.01-1.31,.4-1.21-.69Z"/>
    <path class="cls-178" d="M89.22,47.07c.2-.21,.32-.46,.75-.31,.74,.27,1.51,.46,2.28,.63,.68,.15,1.01,.49,.85,1.2-.17,.02-.33,.04-.5,.07-1.21-.2-2.42-.4-3.63-.59,.08-.33,.17-.66,.25-.99Z"/>
    <path class="cls-140" d="M106.63,48.87c.85-.47,1.77-.17,2.66-.23-.85,.49-1.77,.19-2.66,.23Z"/>
    <path class="cls-251" d="M82.56,47.27c-.38-.23-1.01-.08-1.09-.74,.23-.46,.4-.93,.49-1.45,.24-1.24,.52-1.41,1.87-1.25,.81,.88-.12,2.03,.63,3.08-.78-.06-1.46-.25-1.91,.36Z"/>
    <path class="cls-242" d="M83.84,43.83c-1.15-.02-1.68,.53-1.56,1.69,.06,.59-.06,1.05-.8,1.01-.08,0-.17,0-.25,0-.67-1.16-.53-2.28,.21-3.36,.91-.41,1.6,.48,2.45,.43-.02,.07-.03,.15-.04,.23Z"/>
    <path class="cls-77" d="M103.47,101.6c.36-.26,.71-.25,1.07,0-2.09,1.99-4.55,3.42-7.11,4.68-5.95,2.92-12.31,4.25-18.85,4.84-1.93-.01-3.87-.02-5.8-.03-1.86-.25-3.72-.47-5.57-.74-1.6-.24-3.19-.53-4.79-.79-5.13-1.21-9.89-3.27-14.27-6.2-.39-.26-.85-.47-1.1-.92-.1-.28,.07-.39,.29-.49,.47-.1,.86,.11,1.23,.35,6.5,4.22,13.68,6.45,21.34,7.18,8.62,.82,16.98-.29,25-3.61,2.51-1.04,5.07-2.06,7.24-3.78,.38-.3,.8-.55,1.33-.47Z"/>
    <path class="cls-138" d="M47.34,102.1c-.1,.11-.19,.21-.29,.32-.51-.28-.98-.61-1.32-1.1,.27,0,.54,0,.82-.01,.58-.05,.84,.21,.79,.79Z"/>
    <path class="cls-154" d="M72.72,47.32c.02,.09,.01,.17-.02,.25-.54,.27-1.07,.55-1.61,.82-.78-.04-1.35,.53-2.05,.71,.02-.25,.03-.5,.05-.76,1.29-.07,2.3-1.14,3.64-1.03Z"/>
    <path class="cls-236" d="M81.43,43.18c-.22,1.11-.26,2.23-.21,3.36,0,.96,0,1.92,0,2.89-.07,.37,.11,.77-.18,1.19-1.54-1.07-1.34-2.67-1.32-4.18,0-.41,.39-.86-.35-.98,.15-1.27,.68-2.39,1.35-3.46,.41-.03,.5,.41,.8,.55-.08,.2-.33,.38-.09,.63Z"/>
    <path class="cls-171" d="M47.34,102.1c-.18-.35-.44-.61-.79-.79-.17-.91-.98-1.3-1.53-1.9-1.11-1.19-2.17-2.39-2.46-4.06-.11-.65-.86-.87-1.01-1.49-.13-.52-.5-1.03-.17-1.6,.55,.04,.57,.64,.94,.85,1.03,.65,1.62,1.71,2.41,2.59,3.02,3.35,6.87,5.45,10.87,7.34,2.68,1.27,5.58,1.85,8.36,2.8,.79,.27,1.04-.57,1.65-.56,.27-.04,.53-.01,.8,.05,2.29,.98,4.69,1.16,7.14,.93,2.24,.28,4.47,.29,6.7-.03,3.23-.73,6.6-.77,9.75-1.9,1.29-.46,2.41-1.24,3.42-2.15,.87-.46,1.89-.52,2.75-1.01,1.28-.53,2.31-1.37,3.17-2.44,.1-.08,.22-.1,.34-.08,.2,.2,.67-.61,.56,0-.13,.74-.12,1.63-1.12,2.12-1.92,.95-3.82,1.93-5.8,2.75-.1,.04-.17,.17-.53,.54,2.71-1.01,5.03-1.95,7.16-3.31,2.14-1.37,4.13-2.91,5.91-4.73,.66,.04,.87-.68,1.54-.92-.12,1.2-.64,2.15-1.29,3.01-.78,1.03-1.67,1.99-2.49,2.99-.1,.12-.09,.33-.13,.49-6.31,4.5-13.42,6.87-21.02,7.96-7.4,1.06-14.71,.54-21.9-1.43-3.95-1.08-7.64-2.86-11.24-4.8-.68-.37-1.11-1.15-1.98-1.23Z"/>
    <path class="cls-244" d="M65.62,105.54c-.82,.99-1.63,.62-2.69,.26-1.31-.43-2.67-.76-4-1.17-4.85-1.5-9.16-3.96-13.01-7.23-1.43-1.21-2.65-2.67-3.62-4.3,0-.75,.32-1.08,.93-.49,.98,.95,2.1,1.71,3.19,2.52,1.15,.86,1.23,.89,1.73-.47,.39-.16,.74,.01,1.1,.12,.52,.24,1.06,.42,1.54,.74,1.18,.7,2.42,1.14,3.83,.89,.67-.12,1.12,.14,.95,.94-.21,.47-.43,.94-.77,1.34-.17,.07-.4-.05-.49,0-.19,.11,.07,.18,.12,.24,.96,1.08,1.89,2.09,3.46,2.43,1.17,.25,2.21,1.04,3.4,1.36,.38,.1,.55,.41,.7,.73,.2,.44,.54,.67,1,.75,.11,.04,.22,.09,.33,.15,.45,.19,.7,.96,1.39,.5,.46,.01,.89,.06,.91,.66Z"/>
    <path class="cls-8" d="M44.41,81.49c.07-.19,.02-.45,.31-.5,.61,.06,1.12,.08,1.5-.64,.5-.97,.95-.96,1.97-.26,.07,.47-.39,.56-.6,.83-.94,.65-.98,1.36-.22,2.22,.28,.31,.43,.75,.74,1.07,.54,.77,1.37,1.18,2.11,1.7,.53,.38,.88,.19,1.13-.34,.2-.31,.3-.72,.76-.8,.38,.04,.56,.32,.7,.63,.05,.12,.08,.25,.09,.38,.06,.49-.14,.95-.19,1.43-.14,1.23,.05,2.28,1.3,2.86,.72,.52,1.41,.75,1.92-.26,.2-.25,.42-.47,.71-.6,.48-.13,1.05-.25,1.31,.25,.35,.71-.5,1.03-.73,1.66,.46,.34,.93,.28,1.44,.09,1.94-.74,2.03-.68,2.36,1.33,.01,.08,.11,.14,.17,.2,.24,.4,.77,.73,.29,1.28-.81,.44-1.4-.53-2.18-.32-.33,.16-.62,.4-1,.46-.83,.09-1.45-.07-1.33-1.12-.89-1.04-1.19,.17-1.73,.45-1.01,.26-1.33-.11-.98-1.08-.03-.58-.59-.71-.93-1.07,.13,.47,.54,.79,.6,1.27,.05,.59-.16,1.04-.69,1.33-.13,.04-.26,.03-.38-.02-.36-.86-.85-1.64-1.59-2.24-.35-.32-.53-.73-.56-1.2,.02-.74-.13-1.44-.83-1.82-2.38-1.29-4-3.22-4.93-5.74-.14-.5-.51-.92-.54-1.46Z"/>
    <path class="cls-54" d="M45.28,78.03c1.36-2.58,3.43-4.19,6.32-4.81,.64-.14,1.22-.69,1.75-1.13,1.05-.88,2.14-1.68,3.49-2.03,1.93-.21,3.85-.32,5.65,.63,.42,.22,.91,.36,1.05,.91-.63,.7-1.35,.19-2.04,.17-1.48-.31-2.96-.69-4.48-.13-.7,.26-1.41,.45-1.82,1.15-.17,.34-.42,.48-.82,.51-.73,.06-1.14,.56-1.38,1.21-.92,1.48-1.96,2.88-3.04,4.24-1.09,.15-1.16,.04-.89-1.44,.12-.84,.86-1.29,1.37-2.13-1.71,.84-2.78,2.05-3.59,3.52-.23,.42-.44,.86-.73,1.26-.13,.15-.29,.26-.49,.3-.55,.01-.43-.36-.45-.71-.03-.52,.21-1.01,.09-1.53Z"/>
    <path class="cls-122" d="M44.41,81.49c.34,.35,.91,.62,.53,1.27,.19,1.07-.15,2.06-.48,3.03-.18,.55-.27,1.08-.1,1.64,.07,2,1.19,3.3,2.82,4.28,1.16,.69,2.32,1.39,3.55,1.96,.35,.16,.67,.36,.98,.58,.68,.61,1.51,.87,2.38,1.06,.43,.21,.97,.35,.68,1.03-.86,.56-1.76,.33-2.59,0-.55-.22-1.11-.39-1.64-.64-.45-.2-.9-.41-1.35-.61-1.14-.97-2.54-1.51-3.79-2.29-1.73-1.09-2.38-2.71-2.82-4.53-.06-.25-.05-.52-.24-.73,.17-2.2,.7-4.27,2.08-6.06Z"/>
    <path class="cls-89" d="M49.42,77.17c-.07,.34-.19,.67-.21,1.01-.05,.68,.34,.57,.75,.37,.76-.12,1.53-.11,2.3-.11,.12,.04,.22,.11,.3,.21,.68,.95,1.58,.17,2.36,.29,.39,.02,.8-.1,1.15,.19,0,.15-.02,.3-.03,.44-.48,.37-.74,1.09-1.53,.97-1.84,.07-3.66-.61-5.52-.11-.3,.08-.61-.03-.84-.28-.81-.43-1.45-.48-1.81,.61-.34,1.06-.97,.89-1.62,.24,.02-.19,.04-.37,.06-.56,.3-.17,.7,0,.97-.29,.1-.09,.19-.18,.29-.28,.12-.24,.31-.42,.56-.51,.87-.32,1.63-.76,2-1.69,.13-.32,.42-.55,.83-.49Z"/>
    <path class="cls-146" d="M42.33,87.55c.14,.09,.39,.17,.4,.27,.26,3.44,2.82,4.93,5.42,6.38,.4,.22,.96,.29,1.04,.9-.35-.14-.7-.29-1.04-.43-.96-.67-2.13-.99-3.01-1.8-.72-.24-1.28-.65-1.48-1.43-.65-1.23-1.56-2.36-1.33-3.88Z"/>
    <path class="cls-182" d="M63.5,71.68c-1.94-1.7-4.28-1.73-6.65-1.62,1.63-.44,3.26-.35,4.87,.09,.4,.11,.79,.47,1.17-.03,.11,.06,.22,.12,.33,.17,.81,.53,1.94,.56,2.46,1.55-.09,.33-.33,.53-.61,.69-.68,0-1.24-.21-1.57-.85Z"/>
    <path class="cls-8" d="M45.74,80.14c-.21,.48-.52,.6-.97,.29,.26-.78,.12-1.65,.51-2.4,.58,.61-.29,1.53,.46,2.11Z"/>
    <path class="cls-244" d="M43.66,91.43c.49,.48,.98,.95,1.48,1.43-1.08,.12-1.63-.29-1.48-1.43Z"/>
    <path class="cls-128" d="M68.53,81.21c-.01,.96-.02,1.92-.04,2.89,0,.44,.11,.79,.62,.83,.5,.04,.55-.37,.6-.7,.09-.56,.12-1.13,.18-1.69,.48,.82,.38,1.67,.11,2.52-.1,.33-.16,.62,.21,.78,.31,.14,.51-.09,.63-.33,.36-.69,.81-.7,1.39-.25,.13,.1,.33,.17,.49,.16,2.74-.18,5.47,.64,8.24-.15,1.44-.41,3.05-.14,4.47-.88,1.49-.77,1.71-1.52,.82-2.93,.78-.4,1.18,.14,1.42,.7,.37,.87,.51,1.77-.24,2.59-.47,.52-1.64,.48-1.29,1.69,.22,.78,.7,1.3,1.3,1.76,.21,.16,.36,.38,.39,.67-.26,.18-.53,.35-.79,.53-.94,.53-1.73-.04-2.44-.48-1.21-.74-2.38-.82-3.65-.27-.77,.33-1.61,.46-2.39,.76-1.19,.45-2.26,.29-3.11-.73-.42-.5-.8-.63-1.28-.05-.33,.39-.82,.49-1.33,.48-.35,0-.74-.03-1.04,.14-1.99,1.13-3.81,.12-5.68-.39-1.32-.41-2.17-1.35-2.59-2.6-.38-1.11-1.18-1.82-1.95-2.6-1.97-2-1.71-4.78,.75-6.08,1.16-.61,2.02-1.89,3.57-1.78,.3,.02,.66-.3,.57-.75-.12-.6-.06-.94,.71-.81,.61,.1,1.1,.11,1.07,.96-.06,1.59-.02,3.17,0,4.76,0,.42-.14,.9,.28,1.23Z"/>
    <path class="cls-15" d="M87.84,88.87c-.82-.67-1.8-1.12-2.06-2.39-.17-.84-.09-1.28,.67-1.52,.75-.24,1.27-.62,1.2-1.47-.08-.92-.13-1.91-1.4-2.03-1.36-2.31-3.89-2.27-6.05-2.84-.94-.25-1.37,.77-1.69,1.66-.17,.48,.19,1.34-.76,1.42,.26-1.52,.52-3.05,.78-4.57,.03,.38,.06,.75,.09,1.13,.07,0,.15,0,.22,0,0-.78,0-1.57,0-2.35,.62-.55,.03-1.4,.61-2.06,.95-1.09,2.14-.74,3.21-.73,1.36,0,2.77,.16,3.86,1.2,.29,.06,.47,.24,.53,.53,1.2,1.26,2.3,2.6,3.39,3.97,1.08,1.36,1.27,2.94,1.59,4.51,.09,.42-.22,.61-.53,.81-.99,.65-1.95,1.36-2.95,1.98-.74,.46-1.25,.83-.39,1.68,.36,.35,.45,.91-.31,1.08Z"/>
    <path class="cls-246" d="M88.37,90.46c.44-.09,.88-.18,1.32-.26,0,1.44-1.01,2.16-2.05,2.86-.71,.48-1.59,.66-2.17,1.39-.32,.41-.88,.26-1.36,.25-.57,0-1.05,.23-.72,.85,.57,1.08-.1,1.49-.86,1.92-.8,.34-1.62,.28-2.45,.13-.96-.25-1.3-1.24-2.09-1.7-1.21-.23-2.29,.27-3.4,.61-1.1,.19-1.88-.45-2.68-1.02,.13,.13-.19-.2-.03-.14,.03,0,.07-.15,.07-.15-.92,.04-1.81,.24-2.67,.54-.76,.27-1.46,.28-2.06-.35-.68-1.01-.92-2.27-1.89-3.11-.56-.49-1.11-.94-1.81-1.27-1-.46-1.87-1.13-1.91-2.39,1.4,.85,2.72,1.82,4.36,2.21,.42,.1,.6,.55,.69,1.03,.17,.88,.71,1.58,1.36,2.17,.23,.2,.63,.26,.83-.03,.19-.27-.09-.49-.33-.6-.6-.29-.57-.82-.56-1.35,.6-.15,.97,.32,1.42,.55,1.28,.64,1.93,.54,2.87-.55,.69-.8,1.48-1.18,2.56-.96,1.07,.23,2.18,.29,3.22,.66,.68,.24,1.41,.29,2.09,.17,2.59-.45,5.23-.54,7.79-1.18,.17-.04,.31-.17,.44-.29Z"/>
    <path class="cls-243" d="M88.37,90.46c-.02,.39-.2,.75-.6,.75-1.37,.02-2.63,.79-4.02,.56-1.19-.19-2.21,.49-3.36,.57-2.02,.14-3.85-.71-5.81-.94-.99-.12-1.55,.24-2.02,.82-1.09,1.31-1.91,1.53-3.41,.67-.41-.24-.78-.56-1.17-.84-1.3-.66-.84-2.35-1.85-3.18,1,.02,2.04-.18,2.89,.6,.31,.29,.65,.09,.99,0,1.08-.27,2.07-.95,3.28-.67,.27,.06,.73-.16,.87-.5,.5-1.18,.88-.71,1.39,.01,.64,.9,1.47,1.35,2.62,.85,.95-.42,1.98-.62,2.96-.96,1.17-.4,2.44-.54,3.58,.42,.63,.53,1.49,.72,2.33,.78,.33,.49,.65,.99,1.32,1.06Z"/>
    <path class="cls-75" d="M61.63,88.61c.68,1.15,1.57,1.93,2.87,2.5,1.11,.49,1.98,1.64,2.43,2.92,.15,.41,.35,.8,.52,1.2-.69,.35-.77-.32-1.07-.63-.53-.55-.71-1.46-1.65-1.58-.27-.01-.57-.07-.76,.13-.65,.66-1.22,.6-1.71-.17-.37-.57-.78-.05-1.17-.07-.29-.2-1.35,0-.42-.83,.3-.27,.18-.54-.08-.78-.32-.3-.72-.43-1.07-.15-.96,.76-1.96,.83-3.06,.2,.24-.72,1.2-1.01,1.42-1.82-.45-.35-.88-.07-1.29-.08-.2,.05-.32-.06-.42-.21-.12-.24-.16-.53-.4-.71-.61-.35-1.31-.57-1.77-1.15-.45-.63-.8-1.3-.75-2.1,.22-.71,1.06-.96,1.27-1.68,.13-.32,.18-.66,.3-.98,.05-.1,.1-.2,.16-.3,.12-.7-.27-1.73,1.06-1.64,.77,.21,.97,.97,1,1.51,.11,2.16,1.18,3.74,2.72,5.1,.23,.2,.65,.34,.62,.63-.13,1.26,.64,.81,1.24,.71Z"/>
    <path class="cls-148" d="M56.06,79.13c-.36,.2-.71,.16-1.04-.08-.13-.29,.11-.44,.25-.62,.24-.25,.6-.31,.83-.54-.39,.25-.83,.45-1.15,.81-.6,.34-1.19,.75-1.88,.18,.1-.72,.51-1.22,1.08-1.63,1.86-1.04,3.9-1.7,5.71-2.84,.62-.39,.65-.35,1.17,.14-2.03,1.12-3.42,2.94-4.96,4.58Z"/>
    <path class="cls-150" d="M62.15,73.8c-.16,.09-.32,.18-.48,.27-1,.27-2.02-.05-3.02,.12-.53-.05-1.09-.01-1.55-.36-.07-.13-.07-.26-.02-.39,.59-.58,1.31-.25,1.98-.31-.72,.03-1.44-.12-2.15,.12-.62,.03-1.33,.34-1.68-.51,1.36-.75,2.84-.73,4.31-.55,.77,.09,1.47,.04,2.15-.32,.76-.12,.98,.37,1.12,.97,0,.47-.32,.72-.65,.96Z"/>
    <path class="cls-45" d="M58.7,73.99c1-.44,1.98,.05,2.97,.08-.15,.25-.35,.44-.65,.48-.49-.47-.76,.09-1.1,.25-1.92,.89-3.84,1.79-5.75,2.69-.08-.57,.4-.73,.72-1,.91-.6,1.93-.98,2.92-1.44,.37-.17,1.03-.16,.9-.89,0-.06-.01-.11-.02-.17Z"/>
    <path class="cls-169" d="M62.69,72.93c-.29-.33-.31-.89-.86-.98-.36-.01-.58-.15-.48-.56,.72,.02,1.4,.4,2.14,.28,.53,.26,1.06,.51,1.59,.77,.28-.2,.54-.23,.8,.03-.52,.28-1.08,.42-1.67,.46-.51-.11-1.02,.37-1.53,0Z"/>
    <path class="cls-133" d="M56.05,80.66c-.44,.34-1.18,.53-.57,1.34,.13,.18-.05,.41-.29,.5-.74-.39-1.24,.5-1.94,.36-.33-.2-.34-.49-.23-.81,.48-.48,1.13-.74,1.58-1.26,.45-.19,.78-.62,1.3-.67,.05,.18,.1,.37,.15,.55Z"/>
    <path class="cls-201" d="M55.9,80.11c-.3,.38-.69,.63-1.14,.8-.7,.1-1.41,.26-2.12,.03-.25-.47-.01-.66,.43-.65,.56,.01,1.13-.12,1.68,.1,.5-.16,.7-.78,1.28-.81-.04,.18-.08,.36-.13,.54Z"/>
    <path class="cls-241" d="M65.89,72.48c-.27,0-.54-.02-.8-.03-.01-.39,.23-.52,.56-.56,.15-.18,.37-.22,.57-.3,.25-.09,.45-.28,.67-.42,.34,.23,.61,.59,1.09,.52-.7,.26-1.4,.52-2.1,.78Z"/>
    <path class="cls-11" d="M62.69,72.93c.51-.13,1.02-.35,1.53,0-.61,.47-1.28,.8-2.07,.86,.18-.29,.36-.57,.54-.86Z"/>
    <path class="cls-224" d="M87.57,92.84c.97-.67,1.62-1.59,2.12-2.64,.32-.29,.74-.53,.94-.89,.92-1.64,1.82-3.31,3.26-4.55,1.13-.97,.61-2.12,.5-3.19-.07-.63,.1-1.19,.1-1.79,.13-.03,.24,0,.35,.07,.4,.45,.84,.89,.96,1.52,.07,.58,.28,1.08,.84,1.37,.07,.09,.13,.19,.17,.3,.11,.46,.34,.86,.58,1.26,.17,.34,.26,.69,.17,1.07-.06,.24-.16,.47-.25,.7-.21,.43-.07,1.01-.59,1.3-1.07,.03-1.1,1.09-1.63,1.66-1.14,.77-1.61,1.86-1.75,3.21-.13,1.24-1.06,1.84-2.82,2.05-.2-.02-.35-.12-.46-.28-.16-.93-.95-.58-1.5-.72-.35-.11-.74-.13-.99-.45Z"/>
    <path class="cls-78" d="M93.65,78.27c-.35-.34-.7-.68-1.05-1.01-.22-.11-.36-.3-.49-.51-.16-.52-.59-.88-.76-1.39-.04-.33,.07-.61,.29-.85,.18-.17,.39-.3,.65-.26,.37,.28,.09,.78,.36,1.09,.65,.72,1.23,1.49,1.81,2.27,.18,.5,1.06,.82,.41,1.54-.62,0-.78-.64-1.23-.88Z"/>
    <path class="cls-216" d="M83.08,71.39c0-.26,0-.51,0-.77,.91-.4,1.58,.29,2.33,.54,.5,.16,.96,.45,1.42,.7,.83,.74,2.02,1.11,2.4,2.32-.03,.05-.07,.11-.1,.16-.71-.26-1.26-.74-1.83-1.22-1.21-1.03-2.57-1.73-4.22-1.73Z"/>
    <path class="cls-216" d="M92.34,76.78c.09,.16,.18,.31,.27,.47-1.54-.51-2.47-1.75-3.47-2.91,.03-.03,.07-.07,.1-.1,1.48,.3,2.26,1.46,3.1,2.54Z"/>
    <path class="cls-56" d="M93.65,78.27c.64-.12,.75,.5,1.09,.79,.62,.26,1.07,.74,1.45,1.27,.18,.25,.34,.55-.12,.72-.7-.12-.94-.77-1.39-1.18-.06-.04-.12-.07-.19-.08-.04-.64-.88-.84-.84-1.52Z"/>
    <path class="cls-250" d="M87.05,74.84c-.25-.1-.43-.28-.53-.53,.14-.62,.56-.71,.92-.3,.29,.33,.16,.75-.39,.83Z"/>
    <path class="cls-86" d="M86.8,72.14c-1.24-.52-2.4-1.22-3.72-1.52-.34-.15-.68-.3-1.02-.45,.27-.18,.76-.33,.1-.65-.29-.83-1.01-.47-1.57-.55-.47-.08-.94-.2-1.41-.3,.56-.39,1.19-.2,1.78-.18,1.06,.03,2.09-.04,3.05-.52,.13-.06,.43,.1,.36-.18-.04-.15-.32-.24-.5-.35,.33-.02,.66-.05,.98-.07,.14,.07,.34,.23,.39,.19,.3-.23-.04-.43-.08-.65,.67-.04,.24-.47,.27-.74,.62,.22,.93,.78,1.36,1.21,.23,.33,.45,.67,.31,1.1-.92,.65-2.13,.27-3.06,.85,.19,.21,.48,.24,.69,.38,1.02,.66,1.89,.56,2.57-.5,.64,.08,.72,.63,.93,1.07,.13,.59-.2,1.07-.41,1.58-.22,.59-.68,.23-1.04,.28Z"/>
    <path class="cls-99" d="M87.07,68.46c-.24-.32-.32-.68-.26-1.08,1.13,.63,2.29-.22,3.43,.06,0,.09-.02,.18-.02,.28,.01,.1-.45,.06-.09,.28,.22,.14,.62,.2,.32,.61-.27,.21-.59,.31-.93,.35-.81-.2-1.73,.14-2.45-.5Z"/>
    <path class="cls-182" d="M66.9,71.18c0,.38-.15,.65-.56,.72-.94-.54-2.08-.73-2.84-1.6,.03-.98-.33-2.03,.5-2.88,0,.13,0,.25,0,.38,.04,.63-.79,1.53,.54,1.76-.07,.59,.22,.82,.77,.8,.16,.08,.32,.16,.48,.25,.36,.19,.73,.38,1.09,.57Z"/>
    <path class="cls-76" d="M74.33,67.97c-.03,.44,.32,1.07-.28,1.25-.73,.21-1.59,.37-2.26-.03-.47-.28-.5-.89,.14-1.25,.8,.25,1.6-.15,2.4,.03Z"/>
    <path class="cls-202" d="M74.33,67.97c-.8,.21-1.61,.99-2.4-.03,.81-.49,1.62-1.04,2.4,.03Z"/>
    <path class="cls-248" d="M63.5,70.29c.89,.64,2.09,.72,2.84,1.6-.23,0-.46,0-.69,0-.74-.65-1.9-.64-2.44-1.6,.1,0,.2,0,.29,0Z"/>
    <path class="cls-19" d="M90.18,93.92l.32,.18c1.73,.18,2.62-.62,2.76-2.39,.05-.6,.25-1.2,.57-1.73,.16-.27,.46-.64,.76-.07-.02,.54-.39,.99-.46,1.52-.02,.18,.22-.04,.05,0,0-.69,.61-1.21,.53-1.92,.07-.24,.12-.49,.33-.67,.18-.47,.36-.94,.55-1.4,.22-.56,.57-.57,1-.23,.71,.48,.35,1.1,.23,1.68-.22,.84-.27,1.7-.48,2.54-.23,.67-.51,1.32-.86,1.94-.39,.53-.78,1.05-1.23,1.67,.47-.59,.83-1.13,1.23-1.64,.19-.35,.37-.69,.53-1.06,.23-.55,.6-1.2,1.21-.88,.75,.39,.31,1.03-.07,1.54-.32,.4-.68,.78-.84,1.28-.15,.49-.41,1.04,.04,1.45,.41,.37,.89,.11,1.31-.11,.39-.2,.43-.61,.56-.96,.44-.74,.77,.47,1.2,.06,.21-.09,.42-.19,.64-.04,.15,.27,.27,.41,.54,.06,.28-.36,.36-1.05,1.1-.8,.18,.3,.18,.61,.08,.94-.51,.9-.83,1.94-1.86,2.44h-.07c-.65,.16-.99,.9-1.71,.95-1.01-.1-2.03-.15-3.01,.2-.46-.06-.65-.55-1.07-.67-.71-.36-1.49-.45-2.24-.68-.12-.03-.23-.06-.34-.1-1.05-.23-1.73,.67-2.64,.88-.43,.15-.87,.27-1.33,.3-.66-.05-1.29,.35-1.95,.12-.74-.52-.52-1.08,.18-1.17,1.26-.16,2.26-.9,3.43-1.22,.08-.02,.17,0,.24-.07-.04-.02-.07-.05-.11-.07-.32-.3-.69-.51-1.06-.73-.26-.19-.5-.4-.66-.7,.34-1.12,1.45-1.31,2.58-.45Z"/>
    <path class="cls-187" d="M101.68,93.92c-.42,.26-.67,.67-.84,1.12-.16,.42-.49,.75-.86,.57-.39-.19,.14-.61,.02-.94-.2-1.03,.46-1.93,.47-2.92-.64-.1-1.08,.08-1.16,.79,.3,.8,.3,1.63,.18,2.46-.68,.89-.74,.2-.86-.34,0-.02-.08-.04-.12-.03-.04,0-.07,.05-.1,.08-.67-.1-.63-.71-.66-1.13-.11-1.36-.53-2.65-.75-3.99-.12-.75-.1-1.48,0-2.22,.12-.23,.32-.26,.55-.22,.64,.43,.54,1.21,.86,1.8,.21,.38,.28,.8,.41,1.21,1.2,.06,1.89-.48,1.93-1.53,.02-.47,.03-.95-.1-1.41-.04-.12-.06-.23-.09-.35-.03-.68-.19-1.32-.53-1.92-.05-.12-.08-.25-.11-.38-.05-.51-.6-1.07,.11-1.5,.62-.38,1.15-.2,1.59,.35,.83,1.53,.68,3.31,1.26,4.9-.78,.55,.34,1.06,.02,1.6-.34,.27-.24,.65-.25,1-.27,.56-.24,1.17-.26,1.77-.02,.52-.04,1.06-.72,1.2Z"/>
    <path class="cls-96" d="M91.5,96.8c.1,.02,.19,.03,.29,.05,.88,.45,1.31,1.38,2.08,1.95,.57,.46,1.19,.87,1.55,1.68,.14-.93,1.08-.89,1.46-1.46,.13-.13,.28-.25,.45-.34,.68-.22,1.24-.76,2-.78-.15,.37,.28,.47,.34,.74,0,0-.07,0-.07,0-1.01,1.22-2.2,2.17-3.72,2.69-.41,.21-.84,.33-1.3,.17-.56-.43-1.04-.97-1.69-1.28-.15-.09-.31-.18-.45-.28-.26-.17-.46-.39-.59-.67-.14-.35-.37-.63-.6-.92-.64-1.22-.62-1.35,.26-1.56Z"/>
    <path class="cls-5" d="M101.68,93.92c.83-.82,.11-2.16,.98-2.97-.02,1.47,.28,3-.78,4.29-.16-.02-.27-.11-.34-.26,.05-.35,.09-.71,.14-1.06Z"/>
    <path class="cls-101" d="M101.54,94.98c.11,.08,.22,.17,.34,.25-.4,.63-.81,1.25-1.18,1.9-.2,.36-.44,.35-.75,.21,.61-.74,1.22-1.46,1.59-2.36Z"/>
    <path class="cls-139" d="M99.32,97.9c-.74,.22-1.19,.97-2,1.05-.02-.62,.3-.89,.9-.87,.5-.37,.98-.77,1.66-.75-.18,.19-.37,.38-.55,.57Z"/>
    <path class="cls-186" d="M102.89,88.34c-.8-.16-.59-.86-.68-1.36-.21-1.15-.34-2.31-.84-3.39-.21-.22-.17-.5-.17-.77,.69-1.05,1.67-1.7,2.87-2.05,1.23,.82,1.01,2.27,1.5,3.41,0,1.96-1.38,3.03-2.67,4.15Z"/>
    <path class="cls-198" d="M103.97,80.93c-.86,.62-1.71,1.25-2.57,1.87-1.22,.19-2.42,.5-3.66,.52-.41,.02-.84,.08-1.11-.35-.05-.04-.06-.09-.04-.15-.25-.13,.62-.61-.2-.6-.21,0-.37-.32-.42-.58,.23-.2-.04-.48,.12-.69-.03-.93-1.1-1.11-1.34-1.88,.52-.72-.54-.81-.53-1.32,.34-.34,.74-.3,1.16-.2,.98,.6,1.34,1.69,2,2.55,.9,1.18,1.49,1.29,2.73,.43,.32-.41,.7-.72,1.24-.75,.98,.86,1.61-.31,2.43-.42,.44,.21,.88,.43,.76,1.04-.03,.34-.31,.42-.55,.54Z"/>
    <path class="cls-161" d="M103.76,79.34c-.25,.23-.53,.44-.74,.7-.65,.83-1.19,.6-1.7-.13-1.02-.61-.66-1.86-1.24-2.68,0-.37-.32-.89,.41-.96,.18,.06,.36,.12,.54,.17,.93,.94,2.12,1.65,2.73,2.9Z"/>
    <path class="cls-34" d="M103.97,80.93c.18-.18,.37-.36,.55-.54,.61,1.19,.95,2.46,1.04,3.8-.7-1-.45-2.47-1.6-3.26Z"/>
    <path class="cls-14" d="M100.29,74.61c-.01,.08,0,.16,.05,.23,.09,.19,.13,.39,0,.58-.4,.27-.76,.14-1.07-.16-1.23-1.15-2.55-2.16-4.1-2.85-.39-.17-.78-.44-.84-.95,.7-1.01,1.33-.09,1.99,.07,.24,.29,.73,.03,.93,.42,1.34,.52,2.19,1.59,3.04,2.66Z"/>
    <path class="cls-175" d="M96.31,71.53c-.46-.12-.91-.26-1.37-.35-.37-.07-.44,.15-.35,.46-.08,.1-.18,.15-.31,.17-.51-.01-.8-.52-1.29-.59-.24-.05-.48-.1-.72-.18-.38-.28-1.37-.3-.49-1.12,.13-.02,.26-.02,.38,0,.6,.16,1.1,.59,1.73,.66,.73,.5,1.83,.04,2.4,.94Z"/>
    <path class="cls-232" d="M100.29,74.61c-.97-.94-1.94-1.88-3.04-2.66,1.54,.29,2.4,1.35,3.04,2.66Z"/>
    <path class="cls-30" d="M90.51,68.47c-.17-.13-.36-.24-.52-.39-.11-.09-.39-.09-.27-.3,.05-.09,.32-.05,.49-.07,.72,.72,1.96,.78,2.4,1.86-.1,.08-.21,.12-.34,.13-.68-.29-1.41-.49-1.76-1.23Z"/>
    <path class="cls-109" d="M100.29,75.37c.02-.18,.03-.35,.05-.53,.82,.4,.54,.91,.15,1.43-.35,.26-.15,.63-.19,.95-1.03-.69-1.04-1.23-.01-1.85Z"/>
    <path class="cls-99" d="M92.33,69.57c.1,0,.19,0,.29,0,.43,.34,.86,.68,1.29,1.02-.66,0-1.29-.08-1.84-.49-.01-.23,.09-.4,.26-.53Z"/>
    <path class="cls-174" d="M80.42,106.54c-2.37,.48-4.74,.37-7.11,.06-1.01-.31-2.14-.34-2.9-1.23-.22-1.16,.59-1.08,1.32-1.09,1.6,.26,3.13,.85,4.77,.9,.44,0,.88,.03,1.31,.12,.76,.25,1.54,.12,2.31,.16,.47,.02,.96-.04,1.34,.33,.04,.78-.75,.43-1.04,.76Z"/>
    <path class="cls-203" d="M70.64,105.34c.84,.54,1.88,.62,2.67,1.26-2.38,.16-4.75,.2-6.92-1.05,.46-.43,1.1-.46,1.62-.74,.2-.07,.41-.1,.62-.12,.76-.06,1.44,.12,2,.65Z"/>
    <path class="cls-85" d="M80.42,106.54c.23-.41,.61-.49,1.04-.48,.79-.86,1.9-.79,2.92-1.02,1.42-.32,2.87-.41,4.29-.78,1.43-.37,2.77-.86,3.88-1.88,.29-.27,.62-.51,1.07-.36,.14,.1,.16,.21,.04,.34-2.37,2.51-5.53,3.06-8.72,3.39-1.53,.16-2.95,.81-4.5,.79Z"/>
    <path class="cls-191" d="M68.01,105.07c-.46,.41-1.03,.46-1.61,.48-.26,0-.51,0-.77-.01-.27-.38-.67-.42-1.08-.45-.57,.06-.92-.34-1.32-.63h.01c-.76-.4-1.32-.9-.83-1.86,.3-.04,.49,.15,.64,.36,.9,1.23,2.2,1.61,3.64,1.71,.46,.03,.97-.06,1.31,.4Z"/>
    <path class="cls-120" d="M95.88,101.13c1.45-.51,2.54-1.55,3.71-2.49-.65,1.41-1.87,2.14-3.24,2.7-.22,.07-.49,.26-.47-.21Z"/>
    <path class="cls-124" d="M95.88,101.13c.16,.07,.31,.14,.47,.21-.79,.65-1.81,.66-2.71,1.02,0-.1-.01-.2-.02-.3-.23-.51,.08-.74,.48-.91,.14-.02,.27,0,.39,.05,.47,.18,.92,0,1.38-.06Z"/>
    <path class="cls-31" d="M54.71,98.66c-.03-.51,.24-.89,.56-1.25,.17-.21,.41-.35,.47-.64,.14-.58,.62-.81,1.09-1.02,1.17-.53,1.6-.2,1.55,1.17-.2,.41-.59,.42-.96,.49-.25,.04-.53,.06-.44,.44,.93,.95,2.22,1.25,3.34,1.82-.03,.53,.36,.27,.59,.31,.97,.15,1.52,.96,1.23,1.82-2.93,.04-5.43-.94-7.42-3.13Z"/>
    <path class="cls-171" d="M54.71,98.66c2.25,1.57,4.62,2.82,7.44,2.97,.5,.21,.59,.54,.28,.98-.14,.8,.42,1.29,.82,1.86-.77,.08-1.41-.06-1.6-.95-.05-.21-.04-.4-.34-.45-1.67-.26-2.98-1.52-4.66-1.76-1.13-.16-1.5-1.27-2.23-1.91-.37-.32-.71-.7-1.22-.97,.7-.63,1.07,.03,1.53,.22Z"/>
    <path class="cls-107" d="M55.82,97.06c-.18,.12-.36,.23-.55,.35,.18-.48,.23-.95-.5-.74-1.61,.48-2.95-.09-4.23-.97,.82-.1,1.46,.44,2.2,.63,.71,.18,1.34,.18,1.99-.1,.78-.27,1.23-.11,1.09,.83Z"/>
    <path class="cls-171" d="M63.23,104.46c.44,.21,.88,.42,1.32,.63,.04,.17,.28,.5-.17,.36-.5-.16-.95-.44-1.14-.98Z"/>
    <path class="cls-147" d="M55.82,97.06c-.06-.68-.52-.82-1.09-.83,.03-.56-.61-.38-.78-.72-.02-.22-.17-.38-.28-.55-.25-.33-.54-.63-.51-1.09,.29-.4,.63-.79,.56-1.35,.3-.29,.64-.36,1.03-.22-.3,.6-.69,1.26,.55,1.05,.65-.34,1.28-.78,2.08-.54-.48,1.23,.41,1.09,1.13,1.12,.68,.17,1.38,.12,2.07,.21,.43,.03,.85,.19,1.29,.2,.17,0,.35-.01,.51,.02,1.22,.2,2.2-.05,2.66-1.35,.67,.33,1.02,.92,1.28,1.59,.94,2.57,2.02,3.26,4.79,3.04,.57-.04,1.15-.12,1.47,.54-.2,.71-.99,.49-1.39,.89-.13,.04-.26,.06-.39,.07-.71-.12-1.43-.13-2.15-.12-1.38-.08-2.69-.41-3.93-1.02-.37-.18-.67-.45-.57-.93,.09-.39,.41-.38,.82-.32-.57-.44-1.02-.09-1.48-.05-.11,.04-.23,.08-.34,.11-.93,.42-1.99,.51-2.86,1.1-.84,.48-1.51,.2-2.11-.44-.07-.13-.07-.26,.01-.38-.07-.43,.26-1.19-.33-1.22-.81-.04-1.59,.39-2.03,1.19Z"/>
    <path class="cls-94" d="M52.11,84.9c-.35,.18-.23,.72-.65,.84-1.47-.02-2.7-.52-3.58-1.75-.58-1.06-.5-2.15-.15-3.26,.72-.47,1.43-.88,1.9,.29,.28,.72,0,1.59,.61,2.22,.24,.25,.54,.55,.89,.44,.47-.15,.21-.58,.19-.9-.04-.61-.16-1.21,.14-1.79,.51-.27,.96-.34,1.16,.37-.01,.62-.27,1.29,.4,1.76,.07,.78-.41,1.28-.9,1.77Z"/>
    <path class="cls-60" d="M44.13,87.63c-.42-.57-.19-1.17-.03-1.75,.27-1.04,.56-2.08,.85-3.11,.32,.05,.63,.17,.7,.5,.49,2.49,2.3,3.86,4.3,5.04,.85,.5,1.28,1.15,1.07,2.15-.09,.09-.2,.14-.33,.14-2.27-1.13-3.77-3.03-5.09-5.11-.8,.53-.98,1.44-1.47,2.13Z"/>
    <path class="cls-210" d="M65.01,93.11c-.36,1.63-.54,1.66-3.21,1.51-.19-.21-.57-.3-.45-.71,.33-.45-.41-.6-.27-1,1.17-1.63,1.36,.22,2.07,.56,.45-.34,.74-1.36,1.67-.67,.24,0,.35,.08,.18,.32Z"/>
    <path class="cls-29" d="M50.77,90.47c.08,0,.16,0,.24-.01,.06,.42,.05,.88,.56,1.06,.24,.89,1.08,1.44,1.33,2.32,.08,.04,.16,.05,.25,.03,.28,.37,.57,.74,.85,1.11-.05,.48-.37,.39-.65,.28-.63-.24-1.28-.45-1.84-.86-.26-.17-.52-.33-.78-.5-.38-1.15-.96-2.3,.03-3.44Z"/>
    <path class="cls-41" d="M56.08,88.3c.4,.22,.24,.55,.18,.86-.45,.49-1.05,.52-1.64,.53-.33,0-.61,0-.51,.46-.01,.12-.06,.21-.15,.29-2.33-1.07-1.59-2.98-1.32-4.77,.12-.07,.23-.06,.33,.02,.19,.73,.22,1.53,1.04,1.91-.04,.5-.77,.37-.81,.98,.98,0,1.94,0,2.88-.29Z"/>
    <path class="cls-188" d="M52.38,81.44c.03-.59-.59-.24-.77-.52-.84-.74-1.51-.27-2.16,.3-.28-.94-.94-.76-1.61-.53-.15,.14-.33,.17-.52,.08,.09-.44,.64-.28,.82-.62,1.84-.42,3.68-.22,5.52-.02,.37,.04,.79-.11,1.09,.26-.51,0-1.02,.01-1.53,.03-.34,.01-.62,.08-.39,.53,.29,.18,.28,.44,.17,.72-.34,.3-.47,.01-.61-.22Z"/>
    <path class="cls-158" d="M47.32,80.77c.17-.03,.34-.06,.52-.08,.14,1.13-.29,2.31,.29,3.41,.12,.27-.02,.3-.24,.27-.53-.74-1.05-1.49-1.61-2.21-.28-.36,.02-.41,.2-.57,.29-.26,.57-.54,.85-.82Z"/>
    <path class="cls-130" d="M47.89,84.36c.08-.09,.16-.18,.24-.27,.95,.88,2.22,1.11,3.33,1.65-.04,.93-.48,1.16-1.22,.63-.83-.6-1.83-1.03-2.35-2Z"/>
    <path class="cls-126" d="M52.11,84.9c-.02-.73,.7-1.14,.78-1.83,.09-.24,.39-.14,.52-.32,.59-.16,1.02-1.39,1.79-.25-.06,0-.11,.01-.14,.06-.93,.86-1.62,1.92-2.44,2.87-.17-.18-.33-.35-.5-.53Z"/>
    <path class="cls-206" d="M53.96,90.17c-.15-.3-.83-.69,.15-.78,.72-.07,1.44-.15,2.15-.22,.11,.09,.22,.18,.33,.27-.17,.18-.35,.35-.52,.53-.62,.96-1.34,.84-2.11,.2Z"/>
    <path class="cls-205" d="M52.61,85.43c.4-1.31,1.16-2.31,2.44-2.87-.07,.35,.02,.73-.25,1.03-.6,.48-1.14,1.01-1.51,1.69-.03,.24-.01,.51-.39,.42-.08,0-.17,0-.25-.01-.01-.09-.02-.17-.03-.26Z"/>
    <path class="cls-235" d="M54.74,92.31c-.32,.17-.65,.33-1.03,.22-.32-.56-1.06-.91-.85-1.72,.63,.22,1.14,.64,1.65,1.05,.12,.1,.16,.3,.23,.45Z"/>
    <path class="cls-69" d="M57.37,92.82c-.68,.23-1.27,.8-2.08,.54,.44-1.24,1.18-1.44,2.08-.54Z"/>
    <path class="cls-12" d="M61.36,93.91c.21,.2,.67,.24,.45,.71-.4-.07-.8-.14-1.21-.22-.58-.21-1.24-.31-1.4-1.06,.86-.33,1.33,.81,2.16,.57Z"/>
    <path class="cls-20" d="M59.2,93.35c.47,.35,.94,.71,1.4,1.06-.71-.1-1.55,.37-2.1-.47,.23-.2,.47-.39,.7-.59Z"/>
    <path class="cls-147" d="M52.9,93.85c-.66-.65-1.33-1.29-1.33-2.32,.56,.71,1.52,1.19,1.33,2.32Z"/>
    <path class="cls-137" d="M53.96,90.17c.74,.3,1.46,.47,2.11-.2-.41,1.46-1.26,.96-2.11,.48,0-.09,0-.19,0-.28Z"/>
    <path class="cls-228" d="M57.12,73.74c.52,.08,1.05,.17,1.57,.25,0,0,.05,.07,.05,.07-.16,.75-.86,.81-1.39,1.04-1.02,.43-2.03,.85-2.94,1.49-.93,.38-1.21,1.47-2.09,1.91-.79,.34-1.58,.46-2.39,.04,.77-1.54,1.92-2.83,2.9-4.23,.93-.98,2.67-1.22,4.27-.58Z"/>
    <path class="cls-92" d="M61.35,71.4c.16,.19,.32,.37,.48,.56-.24,.65-.83,.84-1.37,.71-1.74-.42-3.45-.1-5.16,.12-.11,.07-.22,.06-.32-.02,.06-1.03,.98-1.1,1.64-1.35,1.56-.61,3.16-.48,4.74-.02Z"/>
    <path class="cls-225" d="M49.42,77.17c-.79,1.33-1.75,2.44-3.39,2.69,.74-2.24,2.2-3.87,4.26-4.99,.16-.09,.31-.37,.56-.13,.27,.26,.07,.45-.08,.68-.41,.61-1.17,.96-1.34,1.75Z"/>
    <path class="cls-165" d="M54.97,72.77c.11,0,.21,.01,.32,.02,.58,.39,1.22,.13,1.84,.19,.02,.59-.36,.33-.59,.4,.12,.1,.43-.07,.59,.14,0,.08,0,.15,0,.23-1.41,.3-2.95-.34-4.27,.58q.4-.88,2.12-1.55Z"/>
    <path class="cls-91" d="M50.77,90.47c-.52,1.14,.19,2.29-.03,3.44-2.47-1.14-5.1-2.04-6.41-4.76-.24-.5-.27-1-.21-1.52-.29-1.22,1.06-1.73,1.23-3.15,1.43,2.59,3.19,4.53,5.42,6Z"/>
    <path class="cls-172" d="M51.52,94.4c.86,.05,1.53,.92,2.48,.58,.25,.21,.16,.38-.06,.53-.96-.05-1.81-.32-2.43-1.11Z"/>
    <path class="cls-192" d="M52.34,78.51c.34-.93,1.07-1.52,1.78-2.13,.33,0,.78-.34,.88,.31-.28,.27-.55,.53-.83,.8-.32,.45-.65,.91-.97,1.36-.31,.23-.59,.18-.84-.09,0-.09,0-.17-.02-.25Z"/>
    <path class="cls-201" d="M52.36,78.76c.28,.03,.56,.06,.84,.09,.63,.27,1.11-.32,1.7-.3,.12-.12,.23-.11,.33,.03-.07,.16-.15,.31-.22,.47-1.59,.65-2.24,.58-2.66-.29Z"/>
    <path class="cls-227" d="M89.36,95.71c.32,.08,.72-.04,1.03,.53-1.8-.41-2.88,1.39-4.6,1.15-.45-.06-.51,.37-.32,.75,.23,.35,.05,.54-.26,.68-.15,.03-.29,.04-.44,.02-1.4-.06-2.77,.17-4.15,.35-.65,.08-1.3,.09-1.96,.09-1.29-.3-2.69-.34-3.59-1.54,.37-.79,1.11-.74,1.8-.76,.48-.02,.96,0,1.44-.03,.56,0,1.11,.1,1.6,.4,.9,.03,1.8,.11,2.66-.25,1.33-.52,2.7-.89,4.09-1.17,.9-.08,1.74-.85,2.69-.23Z"/>
    <path class="cls-62" d="M72.5,98.16c-1.04-.7-2.17,.16-3.3-.21-.69-.23-1.41-.45-2.01-.81-.86-.51-.82-1.58-1.11-2.43,.69,.2,.98,.9,1.59,1.21,.93,.84,2.03,.82,3.16,.64,.25-.03,.5-.1,.81-.08-.33-.18-.61,.04-.89,0-.21-.01-.4-.08-.5-.28,.09-1.11,.68-1.3,1.61-.89,.95,.22,1.66,1.12,2.73,.98,.37-.23,.63-.13,.56,.31-.08,.5-.09,1.06-.55,1.42-.11,.07-.24,.12-.36,.16-.58,.07-1.17,.47-1.74-.02Z"/>
    <path class="cls-199" d="M86.77,96.27c-1.39,.31-2.75,.81-4.2,.84,.65-.34,1.12-.68,.46-1.49-.57-.7,.25-1.31,.59-1.21,1.6,.46,2.23-1.17,3.46-1.42,.17-.03,.33-.1,.5-.15,.36,.04,.74-.09,1.06,.19-.13,.34-.46,.35-.74,.43-.9,.29-.61,.63-.05,.98,.17,.17,.35,.34,.52,.52-.04,.05-.09,.09-.13,.14-.97,.38-1.98,.11-2.97,.21-.35,.04-.85-.26-1.01,.35,.44,.41,.91,.15,1.38,.12,.44-.03,.98-.22,1.13,.48Z"/>
    <path class="cls-38" d="M74.56,97.8c0-.51,.54-1,.04-1.52,1.12-.7,2.35-.89,3.64-.77,.49,1.01-.62,.98-.95,1.46-.17,.05-.02,.12,0,.09,.45-.39,.81-.33,1.05,.25-1.06,.21-2.23-.31-3.19,.5-.07,.12-.17,.18-.3,.19-.13-.02-.23-.08-.3-.2Z"/>
    <path class="cls-25" d="M71.87,95.3c-.68,.06-1.38,.1-1.51,.99-1.03,.61-1.97,.05-2.93-.22-.45-.46-.89-.91-1.34-1.37-.18-.65-.61-1.13-1.08-1.59-.06-.11-.12-.21-.18-.32,1.21-.21,1.1,1.1,1.76,1.56,.32,.22,.3,.84,.86,.88,.88,.84,1.76,.19,2.57-.09,.7-.24,1.39-.26,2.03-.12,.37,.08-.14,.16-.19,.28Z"/>
    <path class="cls-179" d="M78.35,97.31c-.39-.39-.93-.1-1.4-.32,.04-.83,1.45-.48,1.29-1.48,.56,.61,1.11,1.23,1.67,1.84-.52-.02-1.04-.03-1.56-.05Z"/>
    <path class="cls-117" d="M56.08,88.3c-.02,.48-.35,.54-.73,.55-.48,.01-.97,.02-1.44,.09-.48,.07-1.06,.55-1.25-.32-.21-.94,.59-.74,1.09-.87,.08-.02,.14-.1,.21-.14,.04-.2,.13-.31,.35-.27,.49,.51,1.22,.58,1.77,.97Z"/>
    <path class="cls-98" d="M54.3,87.33c-.12,.09-.23,.18-.35,.27-1.71,.12-1.08-1.06-1.06-1.9,.09-.17,.17-.34,.26-.51,.11-.15,.21-.14,.3,.01,.12,.77,.36,1.5,.85,2.13Z"/>
    <path class="cls-204" d="M53.45,85.2c-.1,0-.2,0-.3-.01,.43-.65,.57-1.61,1.64-1.61,0,.91-.9,1.08-1.34,1.62Z"/>
    <path class="cls-59" d="M55.24,78.58c-.11,0-.22-.02-.33-.03,.55-.64,1.28-.98,2.26-1.45-.53,.95-1.33,1.08-1.93,1.48Z"/>
    <path class="cls-54" d="M57.13,73.51c-.28-.01-.55-.03-.89-.05,.27-.34,.73-.12,.89-.49,.71,0,1.41,0,2.12,0-.68,.44-1.48,.09-2.12,.54Z"/>
    <path class="cls-150" d="M55,76.69c-.21-.33-.57-.25-.88-.31,1.35-1.15,3.15-1.41,4.63-2.31,.49,.21,.98,.42,.11,.82-1.29,.6-2.58,1.2-3.86,1.8Z"/>
    <path class="cls-81" d="M52.85,81.75c0-.27-.02-.54-.02-.81,.64-.45,1.28-.42,1.94-.04-.4,.54-.84,1.03-1.56,1.14-.25,.06-.35-.06-.36-.3Z"/>
    <path class="cls-8" d="M52.85,81.75c.12,.1,.24,.2,.36,.3,.04,.24-.06,.53,.2,.71-.09,.24-.3,.28-.52,.32-1.56-.11-.46-1.05-.51-1.63,.16,.1,.31,.21,.47,.31Z"/>
    <path class="cls-254" d="M97.1,87.28c.23,2.52,.57,5.02,1.31,7.44-.06,.39,.19,.89-.41,1.07-.62-.39-.42-1.08-.6-1.63-.15-.45-.27-.92-.58-1.29,.16-.2,.36-.37,.47-.59,.1-.19,.1-.47-.11-.59-.22-.12-.43,.05-.55,.23-.39,.57-.75,1.15-1.12,1.73-.11-.04-.18-.11-.22-.22,.26-.64,.51-1.29,.77-1.93,1.02-.71,.61-1.71,.52-2.64-.04-.54,.36-1.08,0-1.63,.47-.32,.06-.97,.48-1.31,.46,.44,.38,.9,.04,1.37Z"/>
    <path class="cls-3" d="M97.89,82.98c1.17-.03,2.33-.44,3.51-.19-.01,.27-.02,.53-.03,.8-.32-.46-.76-.61-1.2-.27-.59,.44,.29,.88,.08,1.35-.17,.13-.35,.12-.53,.03-.23-.14-.44-.73-.72-.05-.13,.32-.23,.68-.7,.61-.54-.23-.24-.74-.3-.99-.3,.29,.28,1.08-.65,1.15,.03-.36,.02-.72-.18-1.04,.07-.56,.38-.98,.73-1.39Z"/>
    <path class="cls-24" d="M94.49,89.91c-.79,.33-1.02,.87-.95,2.1,.07,1.14-.85,1.6-1.57,2.18-.51,.41-1.01,.51-1.46-.09,1.42-.37,2.68-.76,2.63-2.71-.03-1.15,.75-2.08,1.91-2.55-.03,.27-.07,.54-.1,.81-.07,.21-.19,.34-.44,.26Z"/>
    <path class="cls-255" d="M87.84,94.45c-.5,.05-.98-.1-.94-.63,.02-.43,.46-.71,.95-.73,.26-.01,.52-.04,.79-.06,.57,.2,1.75-.66,1.55,.89-.75-.39-1.5-.21-2.24,0-.33,.09-.13,.34-.1,.52Z"/>
    <path class="cls-125" d="M97.34,85.42c.5-.3,.12-1.04,.69-1.32,.31,.29-.07,.87,.42,1.08,.16,.08,.32,.17,.35,.37,0,.12-.03,.24-.09,.34-.4,.43-.47,1.11-1.07,1.39-.18,0-.36,0-.54,0-.01-.46-.02-.91-.04-1.37,.09-.16,.18-.33,.28-.49Z"/>
    <path class="cls-247" d="M96.06,81.53c.26,.42,.64,.68,1.13,.83-.22,.17-.42,.31-.61,.46-.98,.09-.9-.67-1.02-1.27,.16-.25,.33-.24,.5-.01Z"/>
    <path class="cls-66" d="M97.89,82.98c.07,.63-.27,1.04-.73,1.39-.37-.4-.73-.8-.53-1.41,.42,0,.84,.01,1.26,.02Z"/>
    <path class="cls-9" d="M96.06,81.53c-.17,0-.33,.01-.5,.02,0-.71-.85-.98-.88-1.67,.64,.13,.86,.82,1.4,1.07,.05,.2,.37,.41-.02,.59Z"/>
    <path class="cls-37" d="M100.29,75.37c-.83,.62-.43,1.23,.01,1.85,.71,.76,.65,1.8,1.03,2.69-.34,.25-.67,.5-1.01,.75-.94-.98-1.06-2.34-1.64-3.49-.21-1.23-1.15-1.9-2.04-2.6-.18-.11-.38-.21-.55-.33-.95-.71-1.79-.6-2.54,.31-.49,.16-.51,1-1.22,.84-.5-.37,.11-.73,.01-1.1-.27-.25-.13-.55-.11-.84,.06-.34-.1-.71,.1-1.04,.62-.24,1.11-.82,1.86-.73,.13,0,.26-.01,.4-.02,1.87,1.02,3.69,2.1,5.19,3.64,.1,.1,.34,.06,.51,.09Z"/>
    <path class="cls-102" d="M91.8,74.58l-.25,.81c-1.31-.27-2.48-1.46-2.4-2.43,.42-.56,.88-1.1,.69-1.88,.04-.26,.17-.46,.42-.57,1.04-.07,1.52,.52,1.69,1.46,.01,.06,.02,.13,.04,.19,.01,.13,0,.25-.03,.38-.07,.18-.2,.31-.35,.42-.31,.18-.59,.37-.21,.75,.24,.24,.44,.5,.41,.87Z"/>
    <path class="cls-53" d="M89.4,72.95c-.48,.9,.48,1.02,.81,1.47,.34,.46,.86,.69,1.34,.96,.4,.39,.86,.74,.79,1.4-1.03-.85-2.07-1.69-3.1-2.54-.81-.7-1.62-1.4-2.43-2.1,.15-.43,.62,.15,.78-.24,.16-.19,.29-.41,.6-.27,.37,.47,.94,.76,1.22,1.31Z"/>
    <path class="cls-132" d="M92.34,75.38c.61-.08,.33-1.1,1.08-1.03,.23,.4,.16,.98,.73,1.17,.23,.28,0,.79,.49,.94,.1,.06,.2,.12,.3,.19,.26,.38,.98,.46,.75,1.15,0,.02-.07,.03-.1,.02-.04-.01-.07-.04-.11-.07-.42,0-.85-.02-1.27-.02-.62-.79-1.25-1.57-1.87-2.35Z"/>
    <path class="cls-209" d="M91.8,74.58c-.17-.2-.29-.49-.51-.59-1.49-.74-.53-.96,.24-1.24,.4,.21,.88,.31,1.06,.8-.08,.25-.16,.49-.25,.74-.18,.1-.37,.2-.55,.3Z"/>
    <path class="cls-40" d="M87.07,68.46c.87,.05,1.77-.07,2.6,.31,.2,0,.35,.1,.47,.25,.26,.4,.16,.7-.24,.93-.18,.05-.36,.03-.53-.05-.16-.11-.3-.27-.51-.35-.04,.35,.48,.4,.34,.75-.34,.37-.69,.33-1.06,.06-.27-.36-.54-.72-.82-1.09-1.14,.12-2.28,.29-3.42,.05-.68-.23-.19-.39,.05-.43,1.03-.17,2.08-.28,3.12-.42Z"/>
    <path class="cls-160" d="M83.9,69.31c1.14-.28,2.27-.7,3.42-.05-.44,1.35-.85,1.64-2.02,1.01-.46-.25-1.43,.03-1.4-.97Z"/>
    <path class="cls-181" d="M89.42,69.79c.17,0,.34,.02,.51,.02,.39,.14,.54,.38,.33,.78-.1,.17-.2,.34-.3,.51-.51,.59-1.18,.65-1.9,.56-.16,.08-.32,.16-.48,.24,.18-.52,.37-1.04,.55-1.56,.36-.05,.8,.15,1-.35,.02-.18,.09-.28,.29-.21Z"/>
    <path class="cls-211" d="M89.95,69.04c-.09-.09-.18-.18-.28-.27,.2-.32,.53-.27,.84-.3,.61,.37,1.21,.73,1.82,1.1,.02,.23-.05,.41-.26,.53,0,0,0-.01,0-.01-.9,.05-1.53-.46-2.12-1.05Z"/>
    <path class="cls-256" d="M87.58,97.86c.46-.08,.92-.16,1.39-.25,.09,.42-.22,.65-.44,.92-.49,.49-1.01,.94-1.35,1.56-.38,.52-.7,1.11-1.29,1.45-.48,.13-.78,.81-1.41,.5-.88-.39-.76-.98-.32-1.63,.25-.35,.61-.58,.91-.88,.7-.76,1.49-1.4,2.52-1.67Z"/>
    <path class="cls-141" d="M96.82,92.86c.48-.05,.8,.03,.84,.65,.05,.76,.22,1.52,.34,2.28-.58,.67-1.5,.74-2,.32-.66-.55-.15-1.47,.08-2.2,.12-.39,.49-.7,.75-1.05Z"/>
    <path class="cls-83" d="M99.49,95.01l-.56-2.67c.55-.47,1.06-1.03,1.9-.8-.12,1.09-.36,2.14-.82,3.13-.17,.11-.34,.22-.51,.34Z"/>
    <path class="cls-84" d="M98.22,98.08c-.3,.29-.6,.58-.9,.87-.08,.06-.17,.12-.25,.17-1.47,.93-1.54,.92-2.2-.47,0-.15,.07-.25,.2-.31,.99-.76,2.06-.61,3.14-.26Z"/>
    <path class="cls-164" d="M88.36,98.41c.2-.26,.41-.53,.61-.79,.88-.18,1.41-1.4,2.53-.82-1.05,.61,0,1.08,.11,1.61,.05,.12,.07,.25,.03,.38-.6-.68-1.18,.69-1.78,.01-.08-.27,0-.5,.2-.75-.62,.14-1.03,.74-1.69,.66-.07-.06-.1-.13-.08-.2,.02-.07,.04-.11,.06-.11Z"/>
    <path class="cls-212" d="M86.77,96.27c-.46-.44-.94-.21-1.44-.07-.56,.16-1.11,.19-1.46-.43,.58-.56,1.31-.34,1.98-.39,.85-.06,1.75,.12,2.52-.43,0,0-.01,.02-.01,.02,.41,.14,.97,.1,1,.75-.93-.11-1.7,.48-2.59,.55Z"/>
    <path class="cls-50" d="M93.66,98.93c-.86-.48-1.29-1.35-1.87-2.08,.82,.15,1.65,.29,2.39,.7,.02,.27,.17,.51,.13,.79-.12,.3-.15,.7-.64,.59Z"/>
    <path class="cls-170" d="M96.59,88.85c.93,1.51,.78,2.26-.52,2.64,.09-.9,.1-1.81,.52-2.64Z"/>
    <path class="cls-43" d="M87.58,97.86c-.95,.48-1.63,1.31-2.45,1.97-.25-.4-.15-.79,.02-1.18,.24-.08,.28-.29,.3-.5,.71-.09,1.41-.19,2.12-.28Z"/>
    <path class="cls-231" d="M95.3,93.41c.07,.07,.15,.15,.22,.22-.52,.77-.96,1.61-1.99,1.92,.59-.71,1.18-1.42,1.77-2.14Z"/>
    <path class="cls-214" d="M94.22,98.15c-.31-.18-.29-.38-.04-.6,.46,.08,.77,.33,.9,.79,.01,.14,.03,.28,.04,.42-.81,.56-.74-.21-.91-.61Z"/>
    <path class="cls-58" d="M94.49,89.91c.15-.09,.29-.17,.44-.26-.09,.75-.5,1.34-.93,2.15-.11-.85,.28-1.34,.49-1.89Z"/>
    <path class="cls-51" d="M98.45,90.51c-.07-.45,0-.93-.27-1.34-.27-1.46,.3-2.64,1.61-3.2,1.24-.53,.69,.7,1.02,1.06h-.01c.47,2.53-.16,3.48-2.35,3.49Z"/>
    <path class="cls-240" d="M100.81,87.03c-.29-.86-.59-1.25-1.39-.32-.64,.74-1.61,1.24-1.24,2.46-.4-.57-.44-1.23-.53-1.89,.26-.58,.32-1.27,.99-1.59,.46-.42,.89-.9,1.61-.82,.61,.61,.63,1.38,.56,2.16Z"/>
    <path class="cls-64" d="M98.45,90.51c2.09-.56,2.3-.87,2.35-3.5,.75,2,.11,3.32-1.86,3.87-.37,.1-.46-.08-.49-.38Z"/>
    <path class="cls-46" d="M100.83,91.54c-.74,0-1.23,.63-1.9,.8,.55-.93,1.4-1.29,1.9-.8Z"/>
    <path class="cls-217" d="M100.24,84.87c-.56,.23-.92,.84-1.61,.82,.05-.07,.08-.15,.09-.24,.22-.46,.39-.98,1.06-.88,.15,.04,.31,.07,.46,.11,.02,.06,.02,.13,0,.19Z"/>
    <path class="cls-190" d="M84.62,101.86c.47,.07,.68-.46,1.11-.48,.16,.22,.09,.4-.09,.56,.55,.21,.66,.56,.2,.93-.37,.29-.8,.27-1.1-.17,.48,.72,1.1,.13,1.66,.15,.76,0,1.29-.44,1.8-.93,.62-.58,1.47-.94,1.78-1.83,.35-.28,.57-1.14,.98-.81,.68,.55,.43,1.41,0,2.12-.06,.1-.03,.19,0,.16,.1-.14,.05,.08,.1-.09,.68-.42,.9-1.23,1.5-1.71,.11,.08,.23,.16,.34,.25,.35,.51,1.27,.44,1.27,1.29-.18,.26-.35,.51-.53,.76-1.74,1.47-3.69,2.48-5.97,2.79-1.08,.15-2.17,.28-3.25,.42-1.92,.39-3.86,.31-5.79,.26-1.38-.63-2.95-.7-4.29-1.43-.43-.37-.74-1.2-1.47-.38-.36,.28-.8,.34-1.22,.48-1.06,.26-2.06,.73-3.15,.85-.16,0-.32,.02-.48,.03-.99-.08-1.98,0-2.96-.29-1.2-.36-2.02-1.11-2.62-2.16-.09-.33-.18-.66-.28-.98-.41-.85-.82-1.63-2.04-1.43-.22,.04,.15-.25,.19-.41,.03-.08,.09-.19,.15-.19,1.63,.04,1.69-1.02,1.56-2.22,.24-.51,.78-.61,1.21-.84h-.02c1.14-.19,.63,.79,.87,1.22,.23,1.61-.33,3.29,.43,4.85,.74,.81,1.61,.93,2.58,.47,.57-.11,1.1-.64,1.71,.14,.19,.25,.67-.64,1.21-.69,.24-.14,.5-.24,.69-.44,.35-.37,.79-.64,1.11-1.04,.22-.22,.48-.39,.77-.5,.63-.17,1.25-.36,1.87-.55,.41-.08,.8-.1,1.18,.12,.02,.85,.48,1.27,1.31,1.34,.1,.1,.12,.23,.05,.35-.11,.16-.29,.17-.67,.2,.69,.31,1.19,.28,1.69,.06,.52-.23,1.03-.49,1.63-.42,.79,.21,1.68-.17,2.41,.41-.02,.72-.54,.78-.9,.83,.68-.51,2.11,.75,2.58-.91,.26-.32,.56-.35,.89-.12Z"/>
    <path class="cls-249" d="M91.02,101.6c-.21,.3-.38,.67-1.04,.67,.87-.84,1.24-1.73,.96-2.83-.44,.12-.36,.73-.81,.79-.42-.65-.92,.49-1.35-.06,0-.81,.36-1.34,1.17-1.53,.55-.08,1.09-.15,1.64-.23,.31,.17,.46,.44,.45,.79-.36,.79-.22,1.79-1.03,2.39Z"/>
    <path class="cls-19" d="M94.22,98.15c.37,.1,.29,.88,.91,.61,.43,1.29,1.25,.5,1.95,.36-.04,.29-.34,.41-.44,.61-.14,.29-1.29-.1-.57,.82,.05,.06-.84,.39-.94,.02-.23-.83-1.1-.99-1.46-1.64,.18-.26,.37-.52,.55-.78Z"/>
    <path class="cls-194" d="M91.02,101.6c.5-.73,.07-1.86,1.03-2.39,.16,.18,.33,.37,.49,.55-.18,.88-.61,1.56-1.52,1.84Z"/>
    <path class="cls-63" d="M94.15,101.3c-.23-.62-1.07-.65-1.27-1.29,.67,.22,1.33,.46,1.62,1.19-.12,.03-.23,.07-.35,.1Z"/>
    <path class="cls-135" d="M95.48,77.76c0-.53-.78-.54-.73-1.1,.68-.89,1.73-1.05,2.69-1.15,.96-.1,1.15,.9,1.5,1.58,.56,1.15,1.05,2.33,1.38,3.57-.95,1.1-2.08,1.15-2.9,.04-.7-.94-1.3-1.96-1.94-2.95Z"/>
    <path class="cls-99" d="M89.95,69.04c.71,.35,1.41,.7,2.12,1.05-.14,.07-.4,.12-.4,.2-.03,.46,.53,.25,.68,.55-.14,.45-.16,.95-.51,1.32-.28-.77-.7-1.38-1.57-1.56-.11-.26-.22-.52-.33-.78,.17-.26,.2-.51,.01-.78Z"/>
    <path class="cls-16" d="M91.83,72.16c.09-.47-.44-1.18,.51-1.32,.25,.04,.49,.08,.74,.12,.26,1.19,.01,1.43-1.24,1.23v-.02Z"/>
    <path class="cls-99" d="M91.84,72.18c.96,.14,1.31-.33,1.24-1.23,.53-.02,.78,.41,1.11,.71-.68,.11-.9,1.26-1.83,.81-.19,.14-.37,.14-.55-.03,.01-.09,.02-.18,.03-.27Z"/>
    <path class="cls-222" d="M71.69,103.88c.28-.31,.84-.05,1.06-.51,.66-.28,1.16-.02,1.6,.45,1.08,.31,2.14,.64,3.23,.9,.36,.09,.68,.13,.78,.55-.15,.25-.39,.27-.64,.27-.4,0-.81-.01-1.21-.02-1.41-.45-2.89-.59-4.29-1.06-.25-.13-.46-.29-.53-.59Z"/>
    <path class="cls-129" d="M77.72,105.54c.21-.09,.43-.18,.64-.27,2.02,0,4.03,0,6.05,0-.98,.26-1.97,.53-2.95,.79-.7-.52-1.5-.14-2.25-.24-.5-.07-1.05,.14-1.48-.28Z"/>
    <path class="cls-190" d="M72.21,104.26c1.38,.59,2.97,.48,4.3,1.27-1.66-.1-3.25-.5-4.82-1.04,.12-.21,.21-.45,.52-.23Z"/>
    <path class="cls-153" d="M72.21,104.26c-.17,.08-.35,.16-.52,.23-.45,.16-1.35-.23-1.05,.85-.71-.14-1.41-.36-2.15-.3,1.07-.39,2.14-.78,3.21-1.16,.22,.06,.44,.13,.52,.38Z"/>
    <path class="cls-32" d="M62.18,97.4c.5,2.02,.28,2.3-1.88,2.39-1.43-.29-2.75-.8-3.78-1.9,.32-1.05,1.08-.67,1.77-.54,.64,.39,1.29,.76,2.04,.27,.62,0,1.16-.71,1.85-.22Z"/>
    <path class="cls-149" d="M58.29,97.36c-.62,.09-1.37-.26-1.77,.54-.36-.51-.17-.79,.39-.84,.41-.03,.84,.02,1.26,.04,.04,.09,.08,.17,.12,.26Z"/>
    <path class="cls-157" d="M63.77,97.86c-.18-.44,.34-1.18-.56-1.31,1.12-.75,1.89-.49,2.32,.81-.3,.16-.37-.13-.53-.24-.2-.14-.44-.44-.64-.12-.23,.35,.09,.55,.38,.68,1.21,.53,2.47,.85,3.78,1.01,.36,.19,.76,.07,1.13,.1,.69,.07,.78,.4,.42,.94-.47,.11-.86-.26-1.33-.2-.75-.01-1.48-.31-2.25-.2-.59,0-.99-.43-1.49-.66-.54-.09-1.3,.16-1.23-.82Z"/>
    <path class="cls-200" d="M69.9,99.72c.3-.42,.23-.7-.32-.78-.36-.05-.77,.1-1.07-.24,.83-.02,1.68-.18,2.47,.25,.79,.62,.7,1.61,1,2.43-.36,.31-.73,.62-1.09,.93-1.07-.33-1.41-1.22-.99-2.59Z"/>
    <path class="cls-36" d="M71.97,101.38c-.96-.55-.48-1.7-1-2.43,.07,.02,.14,0,.21-.02,.46-.32,.92-.33,1.38-.02,.38,.63,.37,1.26,0,1.89-.19,.19-.39,.39-.58,.58Z"/>
    <path class="cls-157" d="M72.52,98.95c-.44,0-.89-.02-1.33-.03,.08-.88,1.03-.26,1.32-.77,.62-.1,1.25-.2,1.87-.29,.11,.3-.06,.49-.25,.67-.5,.29-.99,.59-1.61,.41Z"/>
    <path class="cls-157" d="M62.18,97.4c-.62,.07-1.23,.15-1.85,.22,.92-.49,1.86-.89,2.9-1.08-.35,.28-.7,.57-1.05,.85Z"/>
    <path class="cls-90" d="M49.45,81.21c.09-.84,.63-1.02,1.38-1.04,.58-.02,.8,.2,.78,.74-.02,.82-.09,1.63,.16,2.45,.23,.76-.13,.99-.9,.72-1.44-.5-1.43-1.67-1.42-2.87Z"/>
    <path class="cls-229" d="M82,102.18c-.76-.35-1.66,.2-2.4-.36-.03-.22,.09-.34,.25-.45,.89-.46,1.96-.56,2.7-1.31,.48-.58,1.17-.85,1.76-1.26,.22-.12,.47-.12,.72-.13,0,0,.12,0,.12,0,.37,.4,.03,.79-.02,1.18-.08,.38-.49,.39-.69,.64-.71,.55-1.11,1.48-2.08,1.72-.12,.04-.24,.04-.36,0Z"/>
    <path class="cls-134" d="M82.81,100.21c-.73,.92-1.88,.97-2.85,1.4-.25-.29-.53-.55-.85-.75-.24-.37,.25-.88-.24-1.19-.14-.11-.26-.23-.34-.38-.04-.11-.03-.22,.04-.32,1.71-.08,3.41-.25,5.1-.52,.47-.07,.97-.17,1.38,.21-.22,.12-.43,.24-.65,.35-1.17,.14-2.31,.57-3.53,.49,.47,.74,1.33,.41,1.95,.71Z"/>
    <path class="cls-157" d="M78.55,98.97c.03,.07,.06,.14,.09,.21-.34,.4-.78,.35-1.22,.29-.94-.23-1.86-.53-2.75-.93-.3-.31-.02-.48,.16-.68,.11-.01,.22-.03,.32-.04,1.1,.46,2.22,.91,3.39,1.15Z"/>
    <path class="cls-114" d="M77.27,99.16c.46,0,.91,0,1.37,.01,.08,.1,.16,.19,.25,.29-.43,.92-1.33,.67-2.06,.84-.92-.14-1.78-.47-2.6-.9-.32-.26-.44-.56-.2-.95,.12-.2,.24-.39,.35-.59,.06-.02,.12-.04,.19-.06,.09,.02,.18,.03,.28,.05-.07,.2-.15,.4-.22,.59,.84,.41,1.66,.89,2.66,.71Z"/>
    <path class="cls-219" d="M67.43,96.07c1.01-.35,1.94,.36,2.93,.22,.13,0,.27,0,.4,0,.31,.1,.27,.27,.08,.46-1.27,.42-2.44,.38-3.41-.68Z"/>
    <path class="cls-35" d="M70.84,96.76c-.03-.15-.05-.3-.08-.46,.54-.49,1.06-.37,1.62,.03-.45,.56-1,.46-1.54,.42Z"/>
    <path class="cls-226" d="M88.37,94.95c-.13,.88-.88,.71-1.41,.75-1.03,.09-2.06,.05-3.1,.07-.93-.65-.17-.75,.3-.76,1.4-.06,2.81-.04,4.21-.06Z"/>
    <path class="cls-118" d="M99.79,84.57c-.35,.29-.71,.59-1.06,.88-.09-.09-.18-.18-.27-.27,.08-.24,.18-.48,.25-.73,.09-.32,.01-.82,.44-.83,.56-.01,.62,.49,.64,.95Z"/>
    <path class="cls-95" d="M94.16,75.61c-1.43,.27-.91-.6-.74-1.27,1.22-1.34,1.62-1.34,3.3-.04,.5,.39,.12,.57-.19,.77-.8,.12-1.51,.67-2.37,.54Z"/>
    <path class="cls-23" d="M96.39,74.9c.31-.09,.48-.25,.34-.59,1.06,.68,2.05,1.4,2.21,2.78q-1.18-1.57-4.19-.43s-.03-.07-.03-.07c-.12-.93,.69-.81,1.19-1.04,.29-.13,.8-.07,.48-.65Z"/>
    <path class="cls-145" d="M91.81,72.45c.18,0,.37,.02,.55,.03,.19,.33,.27,.68,.23,1.06-.2-.48-1.07-.04-1.06-.8,.09-.1,.19-.2,.28-.29Z"/>
    <path class="cls-72" d="M88.06,71.66c.57-.38,1.24-.44,1.9-.56,.66,.87-.02,1.34-.56,1.85-.55-.32-1.26-.47-1.34-1.29Z"/>
    <path class="cls-37" d="M96.39,74.9c.26,.11,.53,.22,.85,.35-.66,.85-2.02,.3-2.52,1.33-.31,.13-.56,.13-.79-.2-.28-.4,.2-.51,.24-.78,.73-.28,1.35-.9,2.22-.71Z"/>
    <path class="cls-6" d="M89.42,69.79c-.1,.07-.19,.14-.29,.21-.41,.11-.81,.17-.9-.4-.04-.27,.06-.55,.39-.58,.52-.04,.83,.2,.8,.77Z"/>
    <path class="cls-21" d="M89.97,98.64c-.37,.54-.98,.93-1.09,1.65,.04,.89-.82,1.25-1.14,1.94-.35,.41-.84,.62-1.25,.95-.73-.12-1.65,.34-2.1-.7,.37-.16,.47,.17,.67,.3,.26,.18,.52,.11,.7-.1,.24-.28,.07-.39-.19-.57-.4-.27,.3-.43,.15-.72,.42-.46,.84-.91,1.26-1.37,.44-.44,.75-1.02,1.37-1.26,.7-.46,1.4-.93,2.16-1.43,.12,.67-.31,.95-.55,1.32Z"/>
    <path class="cls-239" d="M82.23,102.14c.69-.62,1.38-1.23,2.21-1.66-.2,.49-.78,1.04,.18,1.39-.27-.01-.55-.05-.75,.19-.51,.71-1.08,.27-1.64,.09Z"/>
    <path class="cls-156" d="M88.36,98.75c-.45,.43-.76,1.01-1.37,1.26,.26-.7,.8-1.16,1.37-1.6,0,.11,0,.22,0,.34Z"/>
    <path class="cls-142" d="M65.09,98.38c.42,.29,.85,.59,1.27,.88,.7,.35,.87,1.23,1.58,1.58,.72,.6,1.49,1.16,2.15,1.84-.09,.51-.87,.34-.92,.94-.01,.11-.64,.33-.65,.13-.1-1.09-.89-.29-1.28-.53-.71,.05-.91-.5-1.17-.99-.33-.94-1.24-1.6-1.37-2.64-.06-.45-.44-1.04,.4-1.21Z"/>
    <path class="cls-100" d="M70.09,102.67c-1.06-.11-1.51-1.07-2.25-1.62-1.08-1.2-1.07-1.23,.98-1.79,.42,0,.92-.17,1.07,.47,.26,.89,.02,1.97,.99,2.59-.15,.37-.51,.28-.79,.35Z"/>
    <path class="cls-52" d="M76.71,100.05c.71-.26,1.51-.18,2.18-.59,1.47,.22,.4,.82,.2,1.3-.51,.73-1.16,1.12-2.09,.86-.55-.03-1.09-.06-1.72-.09,.15-.46,.27-.86,.4-1.25,.28-.39,.72-.02,1.04-.22Z"/>
    <path class="cls-237" d="M66.38,102.19c.29,.34,.57,.68,.86,1.02-.97,.99-1.92,.28-2.87-.04-.36-.57-.3-1.23-.33-1.86-.01-.33,.16-.59,.49-.69,.31-.09,.65-.07,.83,.22,.3,.49,.8,.81,1.01,1.36Z"/>
    <path class="cls-61" d="M66.38,102.19c-.13-.11-.24-.26-.39-.34-.52-.29-.61-1.43-1.42-.98-.67,.38-.3,1.24-.28,1.91,0,.13,.06,.25,.09,.38-.79-.91-.59-2.02-.61-3.07-.02-.74,0-1.48,.02-2.22,.14,.95,1.03-.03,1.32,.51-.49,.81,.02,1.45,.33,2.14,.26,.6,1,.91,.95,1.67Z"/>
    <path class="cls-208" d="M77,101.62c.7-.29,1.39-.57,2.09-.86,.49,.08,1.27-.14,.87,.85-.12,.07-.23,.14-.35,.21-.62,.18-1.18,.49-1.77,.73-.57,.23-1.27,.29-1.74-.4,.11-.52,.72-.17,.9-.52Z"/>
    <path class="cls-155" d="M74.02,98.45c.08,.3,.05,.65,.37,.83,.28,.35,.19,.69-.03,1.03-.56,.31-1.15,.5-1.8,.48-.01-.61-.03-1.23-.04-1.84,.46-.3,.98-.41,1.5-.5Z"/>
    <path class="cls-112" d="M87.59,102.05c.43-.59,.87-1.18,1.3-1.77,.52-.14,.62-.83,1.19-.91,.23,.27,.1,.57,.07,.85-.14,1.02-.99,1.39-1.71,1.87-.29,.21-.58,.26-.85-.04Z"/>
    <path class="cls-131" d="M82.23,102.14c.52-.49,1.11,.33,1.64-.09,.18,.85-.03,1.29-1.03,1.15-.69-.1-1.4-.02-2.42-.02,.69-.43,1.14-.71,1.58-1,.08-.01,.15-.03,.23-.05Z"/>
    <path class="cls-257" d="M74.36,100.31c.01-.34,.02-.68,.04-1.03,.77,.26,1.55,.51,2.32,.77-.3,.27-.7,.12-1.04,.22-.44,.01-.88,.03-1.32,.04Z"/>
    <path class="cls-80" d="M87.59,102.05c.28,.02,.56,.03,.85,.05-.52,.58-1.07,1.1-1.93,1.07,.1-.63,.73-.74,1.09-1.12Z"/>
    <path class="cls-17" d="M74.35,103.82c-.56-.06-1-.52-1.6-.45,.88-1.07,1.22-.22,1.6,.45Z"/>
    <path class="cls-189" d="M68.83,99.25c-.17,.13-.33,.36-.51,.38-1.28,.11-.96,.73-.47,1.41-.84-.31-1.11-1.09-1.48-1.79,.82-.82,1.64,.16,2.46,0Z"/>
    <path class="cls-168" d="M82.81,100.21c-1.15,.69-1.86-.21-2.68-.84,1.45,.09,2.78-.84,4.26-.36-.53,.4-1.05,.8-1.58,1.2Z"/>
    <path class="cls-65" d="M77.27,99.16c-1.09,.53-1.98,.3-2.66-.71,1-.2,1.76,.54,2.66,.71Z"/>
  </g>
</svg>