<?xml version="1.0" encoding="UTF-8"?>
<svg id="Layer_2" data-name="Layer 2" xmlns="http://www.w3.org/2000/svg" xmlns:xlink="http://www.w3.org/1999/xlink" viewBox="0 0 150 150">
  <defs>
    <style>
      .cls-1 {
        fill: #c82e32;
      }

      .cls-2 {
        fill: #b8382f;
      }

      .cls-3 {
        fill: #f85a62;
      }

      .cls-4 {
        fill: #fc6269;
      }

      .cls-5 {
        fill: #f15158;
      }

      .cls-6 {
        fill: #f7d786;
      }

      .cls-7 {
        fill: #ea978c;
      }

      .cls-8 {
        fill: #f58c8e;
      }

      .cls-9 {
        fill: #dfe1d6;
      }

      .cls-10 {
        fill: #f9787d;
      }

      .cls-11 {
        fill: #d1d7cc;
      }

      .cls-12 {
        fill: #c7beb2;
      }

      .cls-13 {
        fill: #fda043;
      }

      .cls-14 {
        fill: #c74a2a;
      }

      .cls-15 {
        fill: #f6cda7;
      }

      .cls-16 {
        fill: #fdb742;
      }

      .cls-17 {
        fill: #d3d0c3;
      }

      .cls-18 {
        fill: #dc3537;
      }

      .cls-19 {
        fill: #f79c9c;
      }

      .cls-20 {
        fill: #cfd0c4;
      }

      .cls-21 {
        fill: #bbbdaf;
      }

      .cls-22 {
        fill: #fc500d;
      }

      .cls-23 {
        fill: #f7d7c8;
      }

      .cls-24 {
        fill: url(#linear-gradient);
        stroke: #c3fcd2;
        stroke-width: 3px;
      }

      .cls-24, .cls-25 {
        stroke-miterlimit: 10;
      }

      .cls-26 {
        fill: #f97582;
      }

      .cls-25 {
        stroke: #52ff87;
        stroke-width: 2.04px;
      }

      .cls-25, .cls-27 {
        fill: none;
      }

      .cls-28 {
        fill: #f0360f;
      }

      .cls-29 {
        fill: #fda737;
      }

      .cls-30 {
        fill: #e26863;
      }

      .cls-31 {
        fill: #bdbeba;
      }

      .cls-32 {
        fill: #f44b54;
      }

      .cls-33 {
        fill: #fca93a;
      }

      .cls-34 {
        fill: #f7cb87;
      }

      .cls-35 {
        fill: #f5414b;
      }

      .cls-36 {
        fill: #fa7f84;
      }

      .cls-37 {
        fill: #d5d0c4;
      }

      .cls-38 {
        fill: #fb9440;
      }

      .cls-39 {
        fill: #f4818a;
      }

      .cls-40 {
        fill: #e3ded3;
      }

      .cls-41 {
        fill: #f7e8b4;
      }

      .cls-42 {
        fill: #f97881;
      }

      .cls-43 {
        fill: #a6a08f;
      }

      .cls-44 {
        fill: #fc767f;
      }

      .cls-45 {
        fill: #e36966;
      }

      .cls-46 {
        fill: #9c2715;
      }

      .cls-47 {
        fill: #e52e32;
      }

      .cls-48 {
        fill: #bfc6bd;
      }

      .cls-49 {
        fill: #f5848b;
      }

      .cls-50 {
        fill: #f8c69d;
      }

      .cls-51 {
        fill: #eb9594;
      }

      .cls-52 {
        fill: #f66c74;
      }

      .cls-53 {
        fill: #f6d2cd;
      }

      .cls-54 {
        fill: #faa275;
      }

      .cls-55 {
        fill: #f6964e;
      }

      .cls-56 {
        fill: #9e3334;
      }

      .cls-57 {
        fill: #f5565e;
      }

      .cls-58 {
        fill: #fba775;
      }

      .cls-59 {
        fill: #fb6f13;
      }

      .cls-60 {
        fill: #cbcbbd;
      }

      .cls-61 {
        fill: #f3c860;
      }

      .cls-62 {
        fill: #f6b7b0;
      }

      .cls-63 {
        fill: #fd6b70;
      }

      .cls-64 {
        fill: #fb7126;
      }

      .cls-65 {
        fill: #fb9699;
      }

      .cls-66 {
        fill: #f5bdb6;
      }

      .cls-67 {
        fill: #fc9250;
      }

      .cls-68 {
        fill: #d9d9d1;
      }

      .cls-69 {
        fill: #f5b5b5;
      }

      .cls-70 {
        fill: #cacab9;
      }

      .cls-71 {
        fill: #f3a04c;
      }

      .cls-72 {
        fill: #dd3336;
      }

      .cls-73 {
        fill: #fcb139;
      }

      .cls-74 {
        fill: #f85918;
      }

      .cls-75 {
        fill: #c6c8be;
      }

      .cls-76 {
        fill: #faad67;
      }

      .cls-77 {
        fill: #f98888;
      }

      .cls-78 {
        fill: #f9cdc8;
      }

      .cls-79 {
        fill: #f1f0ec;
      }

      .cls-80 {
        fill: #f8787a;
      }

      .cls-81 {
        fill: #c52729;
      }

      .cls-82 {
        fill: #fa5963;
      }

      .cls-83 {
        fill: #dadad1;
      }

      .cls-84 {
        fill: #f2b7ad;
      }

      .cls-85 {
        fill: #ef353a;
      }

      .cls-86 {
        fill: #f0aba3;
      }

      .cls-87 {
        fill: #f6cb9f;
      }

      .cls-88 {
        fill: #cfc9b9;
      }

      .cls-89 {
        fill: #e9e8e3;
      }

      .cls-90 {
        fill: #f5c4bd;
      }

      .cls-91 {
        fill: #faacac;
      }

      .cls-92 {
        fill: #bdbeb1;
      }

      .cls-93 {
        fill: #f79248;
      }

      .cls-94 {
        fill: #842a2a;
      }

      .cls-95 {
        fill: #fab3b1;
      }

      .cls-96 {
        fill: #e7333d;
      }

      .cls-97 {
        fill: #8a3b32;
      }

      .cls-98 {
        fill: #ab3b25;
      }

      .cls-99 {
        fill: #fcc9a7;
      }

      .cls-100 {
        fill: #c65638;
      }

      .cls-101 {
        fill: #fab189;
      }

      .cls-102 {
        fill: #d8dcd3;
      }

      .cls-103 {
        fill: #f7b4b0;
      }

      .cls-104 {
        fill: #faa564;
      }

      .cls-105 {
        fill: #f5434c;
      }

      .cls-106 {
        fill: #f3c2c3;
      }

      .cls-107 {
        fill: #9c998b;
      }

      .cls-108 {
        fill: #f6cf68;
      }

      .cls-109 {
        fill: #f94514;
      }

      .cls-110 {
        fill: #fb8488;
      }

      .cls-111 {
        fill: #ef340b;
      }

      .cls-112 {
        fill: #f18583;
      }

      .cls-113 {
        fill: #f4d5c7;
      }

      .cls-114 {
        fill: #d22d33;
      }

      .cls-115 {
        fill: #b4bdae;
      }

      .cls-116 {
        fill: #6b1f1d;
      }

      .cls-117 {
        fill: #f8a166;
      }

      .cls-118 {
        fill: #f9d1b4;
      }

      .cls-119 {
        fill: #fb9327;
      }

      .cls-120 {
        fill: #fa7c23;
      }

      .cls-121 {
        fill: #e3e2db;
      }

      .cls-122 {
        fill: #bbbcae;
      }

      .cls-123 {
        fill: #f7616c;
      }

      .cls-124 {
        fill: #f96066;
      }

      .cls-125 {
        fill: #c2d2ca;
      }

      .cls-126 {
        fill: #fc9e43;
      }

      .cls-127 {
        fill: #f8be60;
      }

      .cls-128 {
        fill: #cccaba;
      }

      .cls-129 {
        fill: #ae9d8e;
      }

      .cls-130 {
        fill: #b6282c;
      }

      .cls-131 {
        fill: #fd9b5d;
      }

      .cls-132 {
        fill: #fcac5d;
      }

      .cls-133 {
        fill: #fc7c7f;
      }

      .cls-134 {
        fill: #c3c4b8;
      }

      .cls-135 {
        fill: #f7abac;
      }

      .cls-136 {
        fill: #c0cbbf;
      }

      .cls-137 {
        fill: #fa9194;
      }

      .cls-138 {
        fill: #fb701c;
      }

      .cls-139 {
        fill: #c02929;
      }

      .cls-140 {
        fill: #c8a999;
      }

      .cls-141 {
        fill: #f96570;
      }

      .cls-142 {
        fill: #fb9769;
      }

      .cls-143 {
        fill: #f4370f;
      }

      .cls-144 {
        fill: #f7af82;
      }

      .cls-145 {
        fill: #c9cabd;
      }

      .cls-146 {
        fill: #fc5915;
      }

      .cls-147 {
        fill: #f76168;
      }

      .cls-148 {
        fill: #eaeae3;
      }

      .cls-149 {
        fill: #f5e4dd;
      }

      .cls-150 {
        fill: #ef333b;
      }

      .cls-151 {
        fill: #fae081;
      }

      .cls-152 {
        fill: #f8521a;
      }

      .cls-153 {
        fill: #f9bb88;
      }

      .cls-154 {
        fill: #e8e7e2;
      }

      .cls-155 {
        fill: #fd9496;
      }

      .cls-156 {
        fill: #f95055;
      }

      .cls-157 {
        fill: #f5e3dd;
      }

      .cls-158 {
        fill: #fa6873;
      }

      .cls-159 {
        fill: #c0c0b0;
      }

      .cls-160 {
        fill: #f5bab1;
      }

      .cls-161 {
        fill: #cf6a5c;
      }

      .cls-162 {
        fill: #dedace;
      }

      .cls-163 {
        fill: #f7956b;
      }

      .cls-164 {
        fill: #fa5d11;
      }

      .cls-165 {
        fill: #fb6f74;
      }

      .cls-166 {
        fill: #f97e82;
      }

      .cls-167 {
        fill: #fc9b9e;
      }

      .cls-168 {
        fill: #fba833;
      }

      .cls-169 {
        fill: #f48984;
      }
    </style>
    <linearGradient id="linear-gradient" x1="134.7" y1="42.28" x2="17.6" y2="107.84" gradientUnits="userSpaceOnUse">
      <stop offset="0" stop-color="#b6ff93"/>
      <stop offset=".19" stop-color="#56ed86"/>
      <stop offset="1" stop-color="#006833"/>
    </linearGradient>
  </defs>
  <polygon class="cls-24" points="138.84 111.14 138.84 38.87 76.25 2.73 13.66 38.87 13.66 111.14 76.25 147.28 138.84 111.14"/>
  <rect class="cls-27" x="11.44" y="25.01" width="141.12" height="98.98"/>
  <path class="cls-25" d="M51.23,69.47c-8.92-2.59-10.69-12.23-3.47-17.99,7.65-6.97,18.64-7.62,28.48-7.46,12.69-.25,48.11,8.38,36.5,26.45-1.02,4.81-2.43,7.34-7.89,7.75,8.74,5.41,14.85,12.98,8.7,23.08-.88,2.51-3.56,3.34-4.57,5.82-1.95,2.83-5.96,3.99-9.26,3.86-10.53-1.93-62.67-6.18-61.46-18.69,.05-1.65-2.06-1.66-1.94-3.32-.63-9.45,6.88-16.15,14.91-19.51Z"/>
  <image width="736" height="520" transform="translate(14 32) scale(.17)" xlink:href="../Awards/Emoji_PNG/sushi.png"/>
  <g>
    <path class="cls-58" d="M98.13,48.68c.07,.06,.13,.12,.2,.18,1.12,.88,2.26,1.72,3.43,2.53,1.52,1.05,2.97,2.21,4.4,3.38,.89,.73,1.81,1.42,2.83,1.93,.66,.33,1.18,.73,1.54,1.36,.36,.62,.86,1.09,1.52,1.41,.12-.36-.31-.66-.03-.98,.78,.68,1.13,1.61,1.51,2.53,.39,.81,.4,1.68,.31,2.54-.09,.87-1.03,1.5-2.2,1.57-.77-.06-1.56,.18-2.3-.2-.13-.17,.01-.3,.07-.45,.3-.85,.35-1.67-.26-2.44-.45-.57-.75-1.25-1.02-1.92-.4-1-1.24-1.53-2.06-2.11,.09-.59,.67-.45,.95-.65-.59-.03-1.12,.62-1.82,.28,.06-1.38-1.11-1.81-1.98-2.34-2.83-1.73-5.81-3.16-8.98-4.14-.51-.16-1.04-.2-1.58-.25-.36-.03-.74-.04-.97-.4,.04-.29,.27-.31,.48-.36,2.7-.27,5.03,.81,7.33,2.01,.79,.41,1.53,.95,2.55,1.06-.27-.4-.59-.65-.92-.89-1.23-.87-2.45-1.74-3.49-2.84-.21-.22-.56-.43-.35-.76,.19-.31,.54-.16,.83-.05Z"/>
    <path class="cls-95" d="M108.81,81.77c.86,.53,1.54,1.26,2.2,2.01,.14,.34,.41,.59,.65,.86,.14,.16,.43,.36,.05,.59-1.63-.99-3.51-.7-5.27-1-.7-.12-1.38,.11-2.06,.24-1.05,.25-2.11,.5-3.09,.99-1.02,.5-2.06,.96-3.08,1.45-.49,.25-.97,.53-1.55,.51-1.27,.45-2.59,.35-3.9,.34-.92-.01-1.84,.05-2.76-.06-.11-.03,.02,.03-.08-.02-.4-.19-1.14-.15-1.06-.69,.06-.45,.51-.96,1.13-1.04,.19-.01,.38,0,.57,.04,.95,.2,1.89,.43,2.87,.44,1.09,.21,2.18,.17,3.26-.08,.41-.12,.83-.21,1.24-.33,.79-.22,1.48-.66,2.21-1.01,.57-.24,1.08-.59,1.68-.75,.36-.08,.71-.22,1.07-.32,1.48-.47,3.02-.64,4.72-.74-.82-.53-1.44-1.08-2.21-1.4-.76-.32-1.41-.79-2.04-1.33-1.15-.99-2.35-1.94-3.97-2.04-.25-.02-.56-.04-.64-.32-.17-.59-.69-.8-1.13-1.07-2.59-1.55-5.28-2.9-8.02-4.14-.37-.17-.76-.19-1.15-.21-.33,0-.68,.06-.96-.2,.06-.45,.43-.38,.71-.39,2.39-.12,4.7,.2,6.92,1.15,1.69,.71,3.3,1.51,4.72,2.68,.24,.2,.54,.29,.83,.4,.4,.15,.85,.27,1.09,.61,1.03,1.41,2.7,1.89,4.05,2.82,.48,.33,1,.62,1.4,1.05,.44,.47,1.04,.66,1.58,.96Z"/>
    <path class="cls-54" d="M44.26,56.95c.57-2.16,2.03-3.71,3.62-5.15,2.27-2.05,4.85-3.61,7.71-4.68,2.05-.77,4.14-1.38,6.33-1.69,2.05-.28,4.08-.73,6.16-.82,.58-.14,1.17-.03,1.76-.06,.33,.12,.52,.37,.45,.71-.06,.33-.38,.38-.66,.42-1.17,.19-2.24,.69-3.37,1.02-.57,.17-1.13,.31-1.72,.36-2.49,.19-5.01,.29-7.32,1.35-1.05,.48-2.15,.69-3.21,1.06-1.19,.42-2.31,1.12-3.34,1.9-.55,.41-1.33,.51-1.69,1.19-1.5,1.52-2.85,3.16-3.95,5.01-.2,.35-.44,.91-.89,.68-.34-.17-.11-.7,.04-1.07,.03-.08,.04-.16,.09-.23Z"/>
    <path class="cls-145" d="M84.98,107.94c-.46,.04-.91-.02-1.35-.18-.43-.26-.88-.33-1.35-.16-2.73-.29-5.48-.49-8.11-1.37-.38-1.03-.98-1.73-2.19-1.89-1.3-.17-2.59-.43-3.88-.76-1.24-.32-2.56-.18-3.84-.38-.75-.11-.23,.57-.4,.84-.85-.16-1.7-.32-2.55-.49,.14-.19,.36-.21,.57-.24,.48-.03,.7-.4,1.03-.75-1.04-.4-2.02-.35-3.02-.14-.73-.05-1.46-.1-1.98-.72,.17-.54,.62-.38,.98-.35,.39,.03,.72,.04,.94-.35,.21-.36,.57-.32,.9-.21,.53,.18,1.04,.13,1.57-.04,.62-.2,1.29-.23,1.62,.46,.52,1.09,1.49,1.39,2.5,1.39,1.43,0,2.76,.47,4.14,.71,1.57,.27,3.2,.37,4.32,1.77,.27,.33,.73,.52,1.16,.66,.27,.09,.58,.17,.77-.11,.19-.27,.02-.54-.13-.77-.17-.26-.44-.43-.64-.66-.41-.46-.32-.74,.3-.84,.36-.06,.71-.15,1.07-.22,.42-.07,.74,0,.7,.54-.59,.65-.56,.6,.16,1.07,1.12,.73,2.2,.48,3.28-.04,.99-.47,2.02-.85,3.01-1.33,.81-.4,2.28,.52,2.35,1.42,.03,.42-.29,.44-.58,.4-.67-.09-1.35-.07-2.02-.06-.8,.01-1.82,.37-2.5,.85-.01,.06,0,.13,.05,.14,1.77,.35,3.55,.38,5.32-.04,.86-.2,2.54,.97,2.54,1.84,0,.7-.52,.66-1.03,.53-.39-.07-.82,.13-1.17-.17,.08-.12,.22-.17,.32-.26,.2-.17,.7-.14,.49-.6-.2-.42-.56-.64-1.03-.44-.77,.32-1.53,.67-2.31,.96Z"/>
    <path class="cls-12" d="M110.68,73.35c-.99,2.53-3.3,4.12-6.1,4.2-.28,0-.56,0-.84,0-.28,.21-.57,.1-.79-.06-1.96-1.43-4.15-2.44-6.2-3.71-.78-1-1.71-1.86-2.45-2.89-.28-.4-.47-.78-.11-1.22,.26-.32,.15-.56-.14-.78-.27-.2-.51-.49-.81-.6-1.15-.44-1.91-1.45-3.03-1.94-.58-.26-.97-.84-1.56-1.21-.05,.28,.31,.58,0,.76-.34,.21-.59-.09-.79-.31-.79-.87-1.68-1.58-2.81-1.94-.63-.22-1.23-.48-1.94-.22-.42,.15-1.71-.71-1.84-1.14-.14-.47,.18-.54,.52-.5,.61,.07,1.19,.27,1.78,.48,.94,.34,1.89,.69,2.92,.62,.35-.03,.68,.07,1.01,.16,1.41,.7,3,1.05,4.25,2.08,.15,.49,.41,.92,.84,1.21,.97,.65,2.02,1.17,3.05,1.72,.3,.16,.6,.06,.89-.04,.12-.01,.23,.02,.34,.08,.14,.07,.26,.17,.32,.32,.05,.35,.34,.14,.51,.21,1.14,.58,2.16,1.37,3.21,2.1,.17,.23,.4,.43,.3,.76-.45,.1-.93,0-1.38,.23-.38,.2-.69-.09-.96-.35-.72-.68-1.45-1.32-2.33-1.8-.31-.17-.61-.26-.96-.1-.59,.27-.69,.65-.34,1.2,.94,1.47,2.11,2.67,3.72,3.44,1.09,.52,2.13,1.14,3.18,1.74,.23,.13,.51,.37,.52-.21,0-.53,.37-.4,.64-.2,.41,.31,.87,.51,1.33,.72,.34,.16,.7,.2,1.07,.13,.84-.15,1.12-.47,1.17-1.34,.27-.4,.58-.18,.88-.05,.85,.36,1.18,.26,1.67-.53,.25-.4,.45-.84,.77-1.2,.27-.3,.38-.25,.49,.17Z"/>
    <path class="cls-144" d="M98.13,48.68c-.25,.06-.64-.18-.72,.19-.06,.25,.31,.35,.48,.52,1.12,1.22,2.52,2.1,3.83,3.1,.32,.24,.69,.51,.73,1.02-1.18-.01-2.1-.68-3.07-1.18-2.24-1.15-4.5-2.22-7.12-1.97,.02-.42,.38-.34,.62-.4,.5-.12,1.02-.18,1.51-.34-.75,.05-1.48,.17-2.19,.41-.39,.13-.8,.29-1.21,.02-.12-.12-.23-.25-.42-.25-.97,0-1.88-.31-2.82-.48-.17-.03-.36-.08-.5-.02-1.05,.49-2.06,.28-3.08-.12-.32-.12-.67-.05-1,0-1.27,.2-2.51-.03-3.74-.34-.19-.05-.4-.1-.35-.38,.97-.43,1.98-.11,2.97-.19,2.07-.16,4.13,.28,6.19,.02,.56-.07,1.07-.14,1.05-.9,0-.3,.24-.43,.51-.47,.33-.05,.56-.24,.75-.49,.18-.07,.37-.09,.55,.02,2.41,.55,4.81,1.12,7.06,2.21Z"/>
    <path class="cls-20" d="M88.68,108.45c.34,0,.74,.04,.88-.34,.11-.31-.21-.55-.39-.78-.27-.33-.58-.61-.89-.9-.28-.26-.58-.24-.98-.2-1.33,.12-2.62,.84-4.01,.24-.41-.17-.94-.04-1.42-.06-.21,0-.49,.08-.56-.23-.06-.27,.18-.4,.38-.49,.81-.36,1.6-.82,2.53-.79,.73,.02,1.46-.12,2.18,.1,.13,.04,.3,.09,.35-.09,.02-.08-.04-.21-.1-.29-.28-.35-.55-.71-.86-1.03-.39-.4-.82-.22-1.24,0-1.3,.65-2.64,1.21-4.01,1.71-.78,.28-1.41,.13-2.07-.21-.17-.09-.33-.21-.5-.31-.27-.15-.77-.09-.7-.56,.05-.38,.46-.44,.79-.51,.02,.03,.05,.06,.07,.1,.62,.73,1.33,.33,1.99,.12,.42-.13,.79-.41,1.23-.54,.41-.13,.8-.24,1.16,.16,.29,.33,.62,.11,.93-.02,.49-.2,.92-.54,1.45-.67,.55-.13,.95,.01,1.33,.46,.74,.87,1.46,1.79,2.65,2.1,.28,.07,.45,.33,.69,.47,.17,.1,.38,.18,.54,0,.14-.15,.03-.32-.05-.46-.21-.39-.48-.76-.66-1.17-.07-.15-.13-.33,0-.48,.17-.19,.37-.06,.54,.02,.31,.16,.52,.43,.71,.7,.82,1.2,1.98,1.76,3.41,1.82,.14,0,.3,.07,.39-.06,.12-.16,0-.32-.07-.47-.13-.25-.35-.44-.48-.69-.09-.17-.21-.36-.06-.55,.15-.18,.36-.15,.54-.06,.94,.43,1.89,.87,2.75,1.44,.59,.39,1.16,.76,1.85,.95,.2,.05,.48,.06,.41,.41-.1,.09-.21,.13-.34,.15-.55,.03-1.12,0-1.61,.35-.11,.08-.3,.14-.4,.07-.65-.48-1.23-.24-1.89,.05-.45,.2-.99,.08-1.45-.2-.19-.12-.38-.25-.59-.3-.44-.11-.94-.15-1.32,.02-.57,.27-.11,.78-.09,1.19,0,.12-.02,.22-.09,.31-.96-.16-1.92-.33-2.89-.49Z"/>
    <path class="cls-69" d="M38.18,90.2c-.86-.33-1.32-.88-1.37-1.86-.24-4.56,1.31-8.48,4.14-11.99,1.99-2.47,4.66-3.97,7.35-5.48,1.02-.57,2.17-.89,3.11-1.61,.26-.32,.61-.5,1.01-.54,.66-.06,1.24-.32,1.79-.66,1.91-.51,3.88-.58,5.84-.82,3-.36,6-.45,9.01-.44,1.24,0,2.46,.3,3.7,.11,.37-.06,.64,.18,.77,.53,.01,.63-.41,.7-.85,.57-.78-.25-1.54-.26-2.32-.02-.28,.09-.56,0-.82-.11-1.19-.48-2.37-.55-3.62-.18-.8,.24-1.65,.3-2.5,.27-1.28-.04-2.48,.3-3.72,.59-1.77,.41-3.44,1.25-5.29,1.31-.39,.01-.78,.15-1.13,.32-1.79,.83-3.81,1.12-5.42,2.36-.45,.3-.91,.57-1.37,.85-.22,.1-.46,.16-.7,.17-.75-.04-1.23,.51-1.77,.86-2.56,1.65-4.23,4.04-5.43,6.8-.13,.29-.22,.56,.02,.84-.03,.69-.42,1.27-.63,1.9-.51,1.48-.68,2.99-.58,4.54,.01,.07,.03,.15,.06,.22,.07,.24,.19,.45,.36,.64,.12,.13,.3,.18,.42,.31,.04,.06,.06,.13,.07,.21,0,.12-.04,.22-.13,.3Z"/>
    <path class="cls-118" d="M69.94,44.64c-.62-.01-1.24-.02-1.86-.03,1.01-.32,2.06-.11,3.09-.16,2.69-.14,5.38-.04,8.07,.04,2.23,.07,4.45,.29,6.6,.97-.29,.31-.68,.29-1.02,.24-2-.31-3.89,.29-5.8,.65-.91,.17-1.83,.35-2.75,.34-1.55-.02-2.96,.59-4.44,.86-.2,.03-.36,.15-.54,.23-.43,.22-.92,.28-1.36,.44-.71,.2-1.25,.73-1.96,.94-1.32,.69-2.55,1.51-3.51,2.67-.85,.79-1.58,1.71-2.65,2.24-.27,.13-.51,.34-.83,.36-.91-.12-.42-.46-.13-.77,1.45-.94,2.56-2.26,3.79-3.44,.93-.47,1.58-1.37,2.58-1.73,1.73-.86,3.4-1.82,4.97-2.95,.18-.13,.46-.23,.38-.49-.08-.26-.37-.17-.59-.19-.68-.08-1.4,.18-2.06-.2Z"/>
    <path class="cls-155" d="M104.24,84.3c.82-.24,1.66-.39,2.52-.3,1.02,.11,2.04,.29,3.06,.28,.85,0,1.33,.61,2.01,.88,.67,.23,.9,.86,1.23,1.39,.2,.33,.4,.66,.62,.98,.02,.18-.03,.39,.17,.51,.62,1.97,.57,3.98,.26,5.99-.34,.26-.39-.06-.42-.25-.06-.53-.19-1.05-.12-1.59,.09-.8-.12-1.4-.96-1.74-.77-.31-1.33-.95-1.9-1.51-1.44-1.43-3.22-2.44-4.64-3.89-.23-.23-.52-.31-.84-.35-.36-.04-.73-.07-1-.38Z"/>
    <path class="cls-50" d="M71.12,47.66c1.27-.68,2.68-1.05,4.06-1.13,2.21-.12,4.36-.54,6.51-.98,1.4-.29,2.77-.01,4.15-.1,1.8,.06,3.51,.58,5.24,1.01-.17,0-.34,.02-.51,.02-.37,.53-.92,.51-1.45,.42-1.21-.21-2.41-.17-3.61,0-.28,.04-.6-.02-.8,.19-.62,.62-1.4,.58-2.19,.68-3.04,.4-6.07-.12-9.1-.03-.42,.01-.84,0-1.25,.11-.35,.08-.73,.11-1.03-.19Z"/>
    <path class="cls-64" d="M44.77,63.2c-.39-.46-.78-.91-1.17-1.37-.27-.35-.44-.71-.27-1.16,.83-.51,1.62-1.09,2.58-1.34,.93-.24,1.76-.72,2.62-1.12,1.68-.78,3.42-1.39,5.23-1.8,.61-.14,1.1-.55,1.72-.67,.31-.06,.62-.18,.73,.28,0,.18-.07,.34-.19,.47-.65,.45-1.06,1.14-1.59,1.71-.21,.22-.35,.52-.72,.49-.35-.2-.69-.13-1.05,.03-1.95,.84-3.91,1.69-5.83,2.6-.53,.25-1.11,.59-1.19,1.31-.02,.22-.32,.21-.31,.43,0,.07-.02,.14-.07,.2-.1,.06-.2,.08-.32,.06-.07-.03-.13-.06-.19-.12Z"/>
    <path class="cls-70" d="M44.77,63.2c.06,.01,.12,.02,.18,.03,1.87,.01,2.56,1.56,3.57,2.67,.08-.35-.23-.96,.54-1,.2,.51,.53,.67,1.06,.46,.51-.21,.82-.11,.91,.55,.12,.85,1.86,1.47,2.55,.91,1.09-.91,2.35-1.28,3.73-1.36,.27-.02,.64-.14,.7,.24,.06,.35-.32,.43-.58,.5-.84,.23-1.7,.41-2.44,.9-.42,.28-1.01,.46-.91,1.17-.14,.25-.32,.43-.62,.5-.68,.16-1.36,.34-2.04,.51-.45-.63-1.23-.53-1.85-.79-1.53-.66-2.84-1.5-3.8-2.9-.51-.74-1.16-1.37-.99-2.38Z"/>
    <path class="cls-90" d="M96.81,73.66c1.8,.99,3.61,1.94,5.37,2.99,.51,.3,.9,.83,1.55,.9-.07,.41,.21,.57,.5,.77,1.41,.99,2.8,2,4.19,3.02,.15,.11,.26,.28,.39,.43-.54,.06-1.05-.14-1.39-.49-1.3-1.37-3.04-2.02-4.58-3-.05-.03-.12-.04-.15-.08-1.16-1.63-3.16-2.09-4.65-3.28-.86-.68-2-1.08-3.06-1.52-2.28-.94-4.65-1.19-7.08-1.08-.13,0-.25,.1-.38,.15-.17,.23-.45,.23-.68,.34-.48,.2-1.01,.18-1.49,.35-2.08,.73-4.25,1.18-6.25,2.16-.91,.32-1.79,.74-2.75,.91-.32-.07-.87,.08-.56-.59,1.6-.82,3.33-1.32,4.96-2.07,.97-.45,1.99-.75,3.03-.98,.77-.17,1.55-.3,2.32-.45,.47-.05,.88-.34,1.35-.37,.74-.2,1.62,.03,2.17-.73,.68-.14,1.23,.29,1.86,.4,.47,.09,.9,.29,1.38,.33,.89,.25,1.67,.83,2.61,.94,.64,.05,.89,.65,1.34,.96Z"/>
    <path class="cls-163" d="M112.01,58.49c.05,.44,.43,.79,.37,1.38-.76-.3-1.37-.69-1.78-1.34-.5-.79-1.12-1.35-1.99-1.81-1.31-.7-2.44-1.74-3.65-2.62-1.31-.95-2.48-2.07-3.88-2.92-1.01-.61-2.12-1.22-2.76-2.32,4.12,1.58,7.84,3.83,11.14,6.77,.96,.86,1.87,1.76,2.55,2.86Z"/>
    <path class="cls-48" d="M111.66,101.17c.05,1.08-.86,1.49-1.52,2.02-.67,.55-1.37,1.03-1.7,1.87-.43,.22-.46-.16-.53-.4-.12-.46-.4-.71-.88-.75-1.13-.33-2.25-.68-3.42-.88-1.11-.19-1.95-.93-2.86-1.52-.33-.22-.64-.46-1.05-.49-.7-.27-1.33-.65-1.98-1.01-.44-.39-.95-.65-1.52-.81-.49-.07-.87-.39-1.3-.6-.44-.35-.98-.52-1.45-.8-.62-.33-1.19-.77-1.93-.82-.13-.02-.24-.05-.36-.11-.65-.62-1.49-.89-2.25-1.3-.32-.18-.9-.34-.69-.79,.19-.41,.69-.15,1.06,0,3.97,1.65,7.75,3.69,11.55,5.68,.75,.39,1.46,.98,2.4,.9,.13-.01,.26,0,.39,.03,1.11,.39,2.15,.96,3.35,1.06,1.02,.08,2.01-.04,2.96-.44,.55-.05,.9-.42,1.26-.78,.14-.08,.28-.15,.45-.08Z"/>
    <path class="cls-132" d="M113.02,67.75c-.3,.53-.46,1.16-.99,1.54-.31-.43,.18-.7,.23-1.06,.04-.31,.31-.52,.37-.99-.31,.61-.65,1-1.24,1.05-1.76,.22-3.3-.33-4.64-1.41-.62-.5-1.54-.6-1.89-1.46-.07-.18-.41-.14-.63-.14-.59,0-1.18,.02-1.77-.02-.28-.02-.65,.08-.76-.34,1.1-.48,2.26-.5,3.43-.41,2.34,.18,4.65,.61,7,.64,.34,0,.68,.02,.94,.29,.58,.78,.14,1.54-.04,2.31Z"/>
    <path class="cls-145" d="M91.57,108.95c-.06-.18-.12-.37-.19-.55-.37-.94-.17-1.1,.82-1.22,.69-.09,1.14,.15,1.7,.42,.58,.28,1.28,.46,1.78-.25,.29-.4,.58-.23,.83,.05,.33,.38,.63,.48,1.05,.08,.41-.4,.96-.14,1.45-.2,.17,.29,.39,.53,.6,.8,.17,.22,.33,.45,.39,.73q.14,.76,.72,1.02c-.74,.38-1.5,.1-2.22-.03-2.29-.41-4.62-.47-6.92-.83Z"/>
    <path class="cls-17" d="M110.68,73.35c-.11-.48-.3-.19-.41-.02-.23,.34-.42,.7-.61,1.07-.53,1.03-1.09,1.21-2.07,.66-.22-.13-.41-.32-.65-.03-.05,.02-.12,.05-.16,.03-1-.75-1.96-1.54-2.87-2.39-.1-.09-.02-.2,.08-.27,1.08-.08,2.08-.47,3.1-.77,.62-.16,1.24-.23,1.89-.16,.81,.09,1.53-.09,2.01-.83,.07,.93-.08,1.83-.31,2.73Z"/>
    <path class="cls-134" d="M63.86,104.04c-.21-.3-.5-.61-.27-.98,.23-.37,.59-.12,.91-.06,.49,.09,1,.23,1.49,.2,2.08-.13,3.98,.81,6,.91,.89,.04,1.41,.47,1.92,1.03,.27,.3,.63,.62,.28,1.09-3.4-.91-6.87-1.5-10.31-2.19Z"/>
    <path class="cls-21" d="M51.52,101.05c-2.29-.39-4.49-1.07-6.64-1.94-1.71-.69-3.29-1.54-4.52-2.94-.11-.13-.21-.26-.32-.39-.06-.06-.11-.15-.08-.23,.26-.81,.99-.37,1.49-.52,.38-.12,.63,.25,.57,.62-.08,.51,.21,.67,.59,.87,.59,.31,1.19,.62,1.76,.96,.81,.49,1.52,.45,2.21-.18,.45-.35,.94-.6,1.49-.74,.29-.08,.65-.21,.81,.17,.18,.43-.18,.59-.5,.72-.13,.06-.26,.09-.4,.13-.49,.28-1.15,.35-1.21,1.1,.94,.67,2,.76,3.1,.63,.49-.06,.94,0,1.03,.58,.07,.48,.87,.53,.62,1.15Z"/>
    <path class="cls-75" d="M46.63,97.47c-.77,.73-1.29,.79-2.16,.31-.73-.41-1.47-.79-2.21-1.17-.36-.18-.6-.38-.45-.85,.16-.5-.02-.7-.55-.52-.23,.08-.47,.13-.74,.06-.38-.1-.5,.13-.48,.47-.93-1.41-1.49-2.93-1.51-4.63,0-.36,.07-.74-.36-.94,0-.11,0-.22,0-.34,.68-.38,1.45-.26,2.17-.39,.27-.05,.55,.01,.82-.09,.54-.03,1.07-.32,1.63-.13,.47,.51,.01,.77-.33,.96-.69,.38-1.3,.87-1.99,1.25-.37,.2-.74,.38-.23,.84,.15,.13,.04,.37-.05,.55-.11,.36-.77,.61-.28,1.07,.43,.41,.76,1.12,1.6,.71,.58-.28,.86,0,.81,.6-.04,.48,.2,.66,.64,.68,.22,.01,.52,0,.64,.17,.67,.98,1.74,1.03,2.75,1.22,.11,.02,.21,.08,.28,.17Z"/>
    <path class="cls-99" d="M43.45,60.64c-.12,.42,.04,.8,.15,1.2-.71-.51-.58-1.2-.37-1.87,.31-1.02,.68-2.02,1.03-3.02,.07,.41-.32,.79-.08,1.26,.65-.41,.88-1.12,1.27-1.7,.97-1.45,2.01-2.84,3.38-3.95,1.1-.81,2.33-1.39,3.54-2,.3-.15,.67-.27,.88,.13,.19,.38-.16,.53-.41,.7-.21,.14-.42,.28-.6,.45-.84,.62-1.69,1.25-2.6,1.77-1.23,.69-2.04,1.78-2.84,2.89-.57,.79-1.29,1.46-1.72,2.35-.41,.72-1,1.26-1.62,1.79Z"/>
    <path class="cls-60" d="M107.11,103.72c.59,0,.91,.32,1.01,.87,.04,.23,.03,.45,.33,.47-.53,.73-1.06,1.47-1.61,2.19-.18,.24-.45,.41-.75,.5-1.17,.44-2.41,.71-3.54,1.2-.92,.4-1.56,.12-2.19-.47-.38-.35-.6-.81-.9-1.22-.11-.35,.09-.58,.31-.8,.47-.41,.98-.43,1.57-.27,1.08,.29,2.19,.48,3.24,.89,.61,.23,1.16,.07,1.64-.35,.25-.22,.49-.47,.72-.7,.9-.91,.9-.95,.21-2-.07-.1-.08-.2-.04-.32Z"/>
    <path class="cls-21" d="M62,103.55c-.23,0-.46,0-.69,.01-1.22-.12-2.4-.44-3.56-.83-1.66-.57-3.43-.67-5.06-1.34-.09-.12-.1-.25-.03-.38,.31-.28,.71-.38,1.09-.51,.16-.04,.34-.01,.49-.06,1.2-.39,2.22-.05,3.14,.73,.23,.13,.46,.26,.56,.53,.66,.25,1.29,.57,2.03,.51,.51,.12,1.04,.09,1.56,.18,.84,.15,.96,.43,.47,1.17Z"/>
    <path class="cls-120" d="M111.5,68.1c.72-.09,.79-.75,1.12-1.33,.54,1.1-.53,1.69-.59,2.53-.29,.33-.58,.65-.87,.98-.06,.06-.13,.09-.21,.09-.41-.05-.78,.13-1.18,.14-.48-.04-.94,.14-1.42,.14-.52,0-.99-.19-1.4-.5-1.82-1.35-3.89-2.33-5.74-3.63-.38-.27-.71-.53-.9-.95,.02-.22,.17-.28,.36-.31,1.02,.18,1.65,1,2.49,1.49,1.53,.89,3.1,1.68,4.74,2.33,.84,.34,1.72,.32,2.43-.37,.34-.33,.8-.38,1.18-.59Z"/>
    <path class="cls-156" d="M111.66,101.17c-.1,.05-.21,.1-.31,.16-.07-.05-.13-.1-.19-.17-.24-.5-.06-1,.07-1.47,.24-.88,.18-1.09-.7-1.36-.89-.28-1.74-.63-2.59-1-1.54-.69-3-1.53-4.37-2.52-.18-.13-.48-.25-.34-.59,.4-.24,.75-.11,1.09,.12,1.5,1,3.15,1.72,4.79,2.45,.92,.41,1.85,.59,2.83,.05,.69-.38,1.03-.09,.98,.72-.02,.31-.01,.62-.06,.92-.11,.89-.61,1.62-1.02,2.39-.06,.11-.12,.21-.19,.32Z"/>
    <path class="cls-106" d="M111.85,100.85c.28-.78,.57-1.57,.85-2.35,.23-.97,.37-1.96,.67-2.92,.21-.48,.16-1.05,.49-1.49,.27-.25,.16-.58,.16-.87,0-1.73,.07-3.47-.17-5.19,.53,.78,.78,1.65,.85,2.57,.13,1.69-.15,3.34-.63,4.96-.49,1.64-.73,3.37-1.8,4.79-.13,.18-.19,.41-.43,.5Z"/>
    <path class="cls-122" d="M99.51,107.26c.29,.02,.4,.2,.53,.45,.56,1.1,1.37,1.44,2.46,1.01,1.08-.43,2.29-.51,3.28-1.18,.22-.14,.29,.03,.32,.21-.63,.65-1.41,1.02-2.28,1.14-1.09,.14-2,.85-3.1,.92-.33,0-.67,0-1.11,0,.45-.91,.11-1.53-.57-2.03-.24-.18-.08-.34-.02-.51,.11,0,.22,0,.34,0,.06-.08,.11-.07,.16,0Z"/>
    <path class="cls-92" d="M84.98,107.94c.74-.72,1.74-.9,2.64-1.28,.26-.11,1.18,.77,1.17,1.05,0,.25-.21,.21-.36,.24-.32,.08-.55,.4-.92,.33-.86,0-1.7-.13-2.53-.34Z"/>
    <path class="cls-15" d="M113.02,67.75c.12-.74,.25-1.47,0-2.21-.22-.38-.59-.2-.91-.25-.25-.03-.64,.09-.44-.42,1.31-.03,2.01-.76,2.03-2.06,.01-.61-.07-1.21-.18-1.8,.48,.54,.5,1.23,.49,1.88-.03,1.67-.3,3.31-.99,4.86Z"/>
    <path class="cls-134" d="M52.71,101.02c0,.12,0,.24-.01,.37-.39-.11-.78-.22-1.17-.33-.27-.5-1.01-.68-.94-1.43,.01-.12-.3-.16-.45-.11-.58,.19-1.15-.01-1.72,.01-.83,.04-1.39-.41-1.97-.87,.33-.3,.68-.18,1.03-.07,.94,.31,1.89,.52,2.89,.52,.23,0,.48,0,.65,.14,.62,.53,1.23,1.08,1.69,1.77Z"/>
    <path class="cls-140" d="M110.98,70.25c.06,0,.12,.02,.18,.03-.06,.12-.12,.23-.18,.35-.32,.97-.67,1.25-1.9,1.1-.68-.08-1.32,0-1.97,.09-.06-.08-.06-.16,0-.24,.43-.45,1.04-.3,1.56-.44,.8-.22,1.48-.73,2.3-.88Z"/>
    <path class="cls-106" d="M113.69,87.52c-.77-.67-1.12-1.66-1.85-2.36-.19-.51-.94-.68-.83-1.37,1.34,.93,2.14,2.24,2.68,3.74Z"/>
    <path class="cls-20" d="M82.28,107.61c.53-.61,.96-.37,1.35,.16-.46,0-.93,.09-1.35-.16Z"/>
    <path class="cls-131" d="M106.1,57.96c.99,.25,1.62,.89,2.08,1.78,.46,.89,.81,1.84,1.5,2.62,.45,.5,.13,2.08-.37,2.36-.35,.34-.75,.09-1.11,.08-1.58-.08-3.14-.42-4.73-.35-.19,0-.39-.05-.55-.18,.03-.64,.55-.36,.87-.46,.24-.03,.49,.04,.9-.13-1.1-.24-1.2-.97-1.2-1.76,0-.31-.06-.61-.09-.92-.05-.78-.42-1.15-1.23-1.15-.58,0-1.13-.28-1.71-.38-.17-.03-.41-.11-.24-.39,.77-.36,1.6,0,2.38-.25,.81-.19,1.61-.41,2.39-.74,.34-.15,.71-.38,1.11-.12Z"/>
    <path class="cls-117" d="M91.74,50.53c.53,.23,1.11,.11,1.65,.24,2.25,.56,4.4,1.33,6.44,2.47,1.04,.59,2.15,1.07,3.2,1.64,.71,.39,1.26,1,2.02,1.35,.51,.24,.26,.89,.21,1.38-.48,.62-1.1,.88-1.88,.72,.24-1.27-.76-1.84-1.48-2.55-.59-.58-1.34-.92-2.11-1.19-1.35-.48-2.71-.9-4-1.55-.5-.25-1.07-.33-1.62-.42-.39-.06-.78-.15-1.11-.37-.95-.63-2.01-.81-3.13-.83-.32,0-.69,.07-.92-.27,.81-.66,1.73-.84,2.74-.62Z"/>
    <path class="cls-6" d="M102.9,64.19c2.16-.08,4.28,.3,6.41,.53,.77,.35,1.58,.08,2.36,.17,.05,.41,.37,.31,.63,.34,.27,.03,.64-.14,.72,.33-.85-.34-1.76-.19-2.64-.28-1.82-.18-3.65-.36-5.47-.53-1.08-.1-2.15,.08-3.21,.3-.22,.46-.69,.18-1.01,.34-.14,0-.27,.03-.35,.17-.13,.16-.31,.19-.51,.17-.71-.4-.16-.61,.13-.85,.66-.35,1.35-.61,2.08-.76,.29-.06,.59-.16,.86,.08Z"/>
    <path class="cls-87" d="M91.74,50.53c-.91,.21-1.86,.24-2.71,.67-.43,.38-.91,.54-1.48,.44-.2-.12-.37-.27-.41-.52,.01-.03,.01-.07,.03-.07,1.23-.6,2.49-1.09,3.89-1.03,.93,0,1.74-.59,2.68-.58,.08,0,.16-.07,.24-.06,.37,.02,.95-.22,1.01,.26,.05,.39-.54,.15-.83,.28-.61,.26-1.32,.15-1.92,.45-.19,0-.38-.02-.51,.17Z"/>
    <path class="cls-34" d="M103.39,58.3c.68-.06,1.26-.4,1.86-.68,.54,.02,.98-.35,1.5-.42,.32-.04,.63-.13,1.03,.06-.56,.38-1.22,.33-1.68,.71-1.15,.26-2.17,.95-3.37,1.02-.79,.14-1.57,.09-2.47,.02,.39-.56,.94-.34,1.33-.52,.6-.07,1.16-.53,1.81-.18Z"/>
    <path class="cls-57" d="M100.2,85.16c-.69,.42-1.38,.86-2.2,1.01-1.28,.1-2.51-.08-3.62-.76-.64-.4-1.3-.62-2.04-.73-1.11-.16-2.17-.59-3.27-.81-.36-.07-.71-.18-1.08-.17-.72,.01-.85,.21-.54,.84,.37,.76,.11,1.25-.76,1.31-.81,.06-1.54,.26-2.18,.75-.18,.05-.35,.05-.52-.03-.24-.19-.39-.47-.66-.64-.19-.12-.36-.31-.24-.56,.11-.24,.36-.24,.59-.23,.31,0,.61,.12,.92,.1,.47-.04,.65-.23,.29-.63-.35-.4-.6-.88-1-1.24-.14-.12-.41-.3-.22-.46,.56-.49,.71-1.35,1.54-1.59,.7-.2,1.36-.52,1.96-.98-.68-.12-1.25,.15-1.78,.49-.71,.46-1.41,.43-2.13,.08,.06-.41,.44-.39,.7-.49,.99-.39,2.03-.63,3.02-1.03,.78-.16,1.54-.43,2.33-.54,1.75-.26,3.04,.64,4.35,1.62,1.25,.94,2.54,1.86,4.01,2.45,.88,.35,1.6,.92,2.31,1.52,.21,.18,.43,.39,.22,.72Z"/>
    <path class="cls-124" d="M98.16,86.68c1.01-.45,2.03-.91,3.04-1.36,.28-.14,.6-.12,.89-.19,1.06-.26,1.81,.08,2.56,.92,1.02,1.13,2.25,2.09,3.42,3.1,.93,.81,1.86,1.61,2.29,2.83,.38,1.08,.42,1.07-.48,1.81-.29,.2-.62,.19-.94,.2-.84,.07-1.68,.29-2.53,.12-.98-.03-1.49-.59-1.96-1.43-1.32-2.39-3.21-4.09-6-4.62-.69-.13-.73-.43-.29-1.38Z"/>
    <path class="cls-63" d="M98.16,86.68c-.27,.94,.2,1.14,1.05,1.38,1.94,.54,3.64,1.52,4.66,3.41,.37,.68,.98,1.2,1.24,1.97,.18,.56,.86,.11,1.16,.49,.07,.08-.61,.21,0,.25,1.23,.08,2.46,.06,3.67-.23,.09-.02,.17-.03,.26-.04,.2,0,.4,.03,.57,.13,.63,.39,1.22,.38,1.76-.17,.12-.12,.27-.2,.44-.24,.51-.12,.82,.13,.75,.66-.05,.44-.06,.89-.2,1.32-.2,.98-.38,1.97-.83,2.88,0-.39-.04-.78,.05-1.17,.12-.52-.21-.68-.56-.42-1.36,1.01-2.62,.31-3.85-.21-1.22-.52-2.39-1.17-3.58-1.78-.5-.26-.85-.85-1.54-.65-.17,.19-.4,.21-.64,.21-.18,0-.36-.03-.52-.11-.33-.22-.67-.39-.61-.9,.04-.36-.32-.4-.56-.53-1.77-.98-3.67-1.67-5.52-2.49-1.23-.55-2.45-1.11-3.7-1.61-.39-.16-.86-.3-1-.81,.18-.39,.54-.37,.87-.33,.92,.12,1.82,.32,2.64,.81,2.12,1.28,4.34,2.36,6.7,3.13,.27,.09,.53,.18,.81,.23,.11,.02,.22,.03,.4-.12-.8-1.18-1.92-1.97-3.18-2.59-.61-.29-1.27-.45-1.88-.75-.64-.31-.68-.67-.23-1.23,.56,.11,.88-.39,1.35-.51Z"/>
    <path class="cls-133" d="M113.54,95.62c.02-.44-.04-.89,.07-1.33,.13-.53-.4-.67-.57-.47-.9,1.12-1.88,.73-2.89,.28,.03-.43,.4-.42,.67-.49,.49-.14,.97-.31,1.33-.58-.76,.13-1.42,.8-2.33,.59,.03-.4,.74-.25,.62-.67-.21-.72-.37-1.49-.91-2.06-1.44-1.53-3.07-2.85-4.65-4.22-.04-.04-.12-.05-.14-.09-.76-1.63-2.23-1.2-3.55-1.24,.93-.58,1.98-.82,3.04-1.02,1.5-.08,2.38,.99,3.43,1.8,1.69,1.29,3.17,2.84,4.92,4.04,.67,.45,1.33,.81,1.24,1.63-.09,.79,.14,1.55,.04,2.32-.01,.53-.05,1.05-.34,1.52Z"/>
    <path class="cls-137" d="M86.83,72.65c.18-.23,.45-.14,.68-.17,1.99-.31,3.53,.89,5.18,1.63,1.66,.74,3.19,1.75,4.81,2.59,.44,.23,.75,.7,1.3,.73,.04,0,.13,.07,.12,.1-.25,.98,.53,.68,.95,.73,1.3,.15,2.37,.87,3.21,1.7,1.23,1.23,2.88,1.7,4.19,2.75,.25,.2,.54,.36,.8,.64-1.77,.13-3.49,.36-5.18,.8-.06-.15,0-.28,.1-.38,.39-.4,.31-.79-.09-1.07-1.64-1.14-2.71-3.01-4.7-3.72-.32-.12-.68-.29-.76-.71-.45-.31-.94-.07-1.41-.12-.8-.09-1.62,.15-2.4-.16,.17-.42,.17-.43,.66-.45,.76-.03,1.52,.01,2.45-.03-1.63-1.14-3.43-1.64-4.99-2.58-1.56-.94-3.11-1.87-4.92-2.25Z"/>
    <path class="cls-52" d="M100.2,85.16c-.52-1-1.47-1.51-2.41-1.96-1.72-.82-3.36-1.75-4.75-3.07-.29-.27-.73-.41-1.13-.53-.36-.1-.7-.16-.93-.5-.17-.25-.44-.25-.68-.15-.3,.12-.6,.11-.91,.1,.06-.46,.48-.44,.76-.49,.71-.14,1.42-.3,2.15-.25,.28,.01,.56,0,.84,.03,1.05,.08,1.94,.34,2.78,1.13,1.51,1.43,3.38,2.39,5.17,3.42,.86,.5,1.03,.8,.79,1.56-.56,.23-1.12,.47-1.68,.7Z"/>
    <path class="cls-166" d="M101.87,84.46c.06-.67-.27-1.05-.86-1.37-1.83-1-3.73-1.95-5.2-3.41-1.04-1.03-2.17-1.06-3.4-1.13,0-.3,.25-.35,.46-.38,1.46-.18,2.93-.14,4.4-.07,.09,0,.14,.08,.21,.13,.77,.76,1.93,.9,2.69,1.68,.12,.12,.28,.19,.39,.31,.73,.72,1.4,1.49,2.24,2.11,1.04,.78,.97,.88,.08,1.8-.34,.11-.68,.22-1.01,.33Z"/>
    <path class="cls-44" d="M96.81,87.19c-.36,.61-.1,.95,.49,1.14,1.26,.4,2.45,.91,3.51,1.75,.54,.43,.94,.95,1.41,1.42,.13,.13,.37,.26,.23,.48-.12,.19-.34,.26-.6,.18-.95-.32-1.97-.52-2.86-.95-1.6-.78-3.26-1.44-4.78-2.41-1.03-.66-2.2-1.1-3.49-.77-.64,.21-1.19,.16-1.53-.53,.23-.1,.46-.09,.69,.02,2.31-.09,4.64,.27,6.92-.32Z"/>
    <path class="cls-158" d="M84.47,86.49c.47-.72,1.23-.78,1.98-.83,.37-.02,.75,.01,.97-.37,.24-.42-.14-.59-.34-.84-.34-.44-.2-.89,.36-.97,.38-.06,.79-.03,1.17,.04,1.48,.27,2.88,.85,4.39,1.03,.5,.06,1,.28,1.44,.63,.52,.42,1.17,.69,1.87,.64,.61-.05,1.07,.51,1.69,.36-.37,.2-.77,.28-1.18,.34-1.3,.43-2.58-.15-3.87-.11-.33,.03-.65-.08-.98-.09-.64-.27-1.31-.35-2.01-.25-1.51,.03-3.03-.17-4.47,.51-.33,.16-.71,.23-1.02-.08Z"/>
    <path class="cls-49" d="M84.47,86.49c.65,.14,1.2-.21,1.76-.4,1.28-.43,2.54-.32,3.82-.1,.06,.04,.08,.07,.06,.11-.02,.04-.04,.06-.06,.06-.69-.11-.4,.99-1.1,.9,.31,.15,.62,.3,.94,.45-.23,0-.46,0-.69,0-.07,.06-.15,.08-.24,.07-.5-.13-1.01-.24-1.53-.18-1.14-.06-2.28-.2-3.4,.16-.28,.01-.56,.02-.84,0-.22-.02-.49-.02-.56-.28-.06-.26,.17-.38,.36-.5,.14-.09,.3-.14,.46-.21,.17-.07,.34-.16,.53-.07,.17,0,.34,0,.5,0Z"/>
    <path class="cls-39" d="M92.92,86.16c.72,.06,1.42-.09,2.14,.38,.41,.27,1.16,0,1.76-.03-1.12,.38-2.25,.4-3.39,.16-.17-.17-.62-.05-.51-.5Z"/>
    <path class="cls-49" d="M92.92,86.16c.17,.17,.34,.34,.51,.5-.98-.03-1.95-.17-2.88-.5,.45-.31,.91-.16,1.37,0h1.01Z"/>
    <path class="cls-39" d="M91.91,86.16c-.46,0-.91,0-1.37,0-.17,0-.33,0-.5,0,0-.06,0-.11,0-.17,.65-.23,1.28-.34,1.86,.17Z"/>
    <path class="cls-101" d="M52.04,51.72c.27-.19,.54-.39,.81-.58,.15-.11,.41-.16,.25-.42-.11-.17-.27-.14-.45-.07-.36,.16-.8,.23-1.06,.48-.7,.68-1.72,.76-2.44,1.4-.07,.06-.22,.02-.33,.03,.07-.47,.41-.8,.78-.93,.94-.34,1.62-1.14,2.48-1.47,1-.39,1.79-1.38,3.03-1.14,.48,.09,.79-.26,1.18-.45,1.15-.55,2.31-1.17,3.62-1.23,1.79-.08,3.54-.47,5.33-.63,1.1-.1,2.35-.43,3.36-1.11,.26-.17,.55-.14,.82-.11,.79,.09,.84-.25,.53-.84,.78,0,1.56-.02,2.35,0,.25,0,.6-.13,.68,.29,.06,.33-.17,.52-.41,.67-1.47,.9-2.84,1.95-4.44,2.64-.3,.13-.51,.45-.89,.42-.39-.27-.81-.32-1.28-.27-1.92,.2-3.85,.37-5.77,.6-2.22,.27-4.36,1.02-6.33,2.15-.55,.31-1.03,.94-1.81,.59Z"/>
    <path class="cls-20" d="M52.71,101.02c-.51-.36-1.1-.63-1.38-1.27-.11-.24-.37-.43-.69-.41-1.22,.05-2.38-.18-3.51-.64-.2-.08-.44-.03-.67-.04,.16-.72,.8-.91,1.35-1.18,.65,.81,1.57,.93,2.51,.95,.96,.02,1.81,.25,2.59,.84,.79,.61,1.74,.42,2.6,.28,.84-.14,1.7-.4,2.23-1.21,.28-.43,.65-.38,1.01-.09,.51,.41,.89,.93,1.32,1.41,.59,.67,.84,.68,1.51,.1,.28-.25,.6-.42,.96-.51,.53-.14,1.01-.32,1.36-.78,.08-.11,.21-.23,.34-.24,1.04-.04,1.71-.77,2.49-1.29,.27-.18,.56-.32,.75,.11,0,.35-.18,.65-.28,.97-.4,.74-.81,1.47-1.56,2.03,.73,.31,1.21,.91,1.92,1.12,.05,.02,.11,.04,.15,.08,1.41,1.62,3.53,1.26,5.3,1.88,.36,.13,.78,.04,1.15-.13,.32-.14,.64-.2,.99-.11,.21,.05,.42,.12,.63,.17,.55,.18,1.05,0,1.56-.17,.53-.17,1.07-.39,1.63-.37,.4,.01,.72,.24,.38,.64-.31,.36-.7,.74-1.29,.54,0,0,0,0,0,0-.04-.33-.16-.54-.55-.4-.4,.14-.79,.28-1.23,.24-.13-.01-.31,0-.34,.17-.03,.16,.12,.23,.22,.32,.26,.21,.53,.42,.74,.67,.28,.34,.48,.78,.18,1.16-.29,.38-.8,.3-1.17,.12-.7-.34-1.72-.62-1.95-1.2-.46-1.12-1.27-.82-2.03-.95-1.92-.32-3.76-1-5.75-1.02-.99-.01-2.06-.32-2.45-1.53-.19-.59-.75-.56-1.13-.4-.75,.3-1.45,.38-2.18,.03-.16-.08-.38-.07-.41,.14-.11,.79-.58,.63-1.12,.5-.3-.07-.67-.15-.95,.13-.17-.11-.34-.22-.51-.33-.11-.08-.26-.14-.33-.25-.69-1.15-1.69-.85-2.67-.57-.24,.07-.5-.04-.71,.14-.33,.14-.62,.38-1.01,.34Z"/>
    <path class="cls-134" d="M62,103.55c.17-.55,.35-1.02-.61-.94-.44,.04-.99-.1-1.42-.41,.97-.33,1.93-.08,2.9,0,.18,.02,.34,.07,.4,.25,.06,.18-.1,.24-.21,.32-.37,.24-.54,.74-1.06,.77Z"/>
    <path class="cls-40" d="M96.81,73.66c-.58-.07-.8-.73-1.35-.85-.79-.22-1.49-.59-2.08-1.19-.95-.96-2.09-1.67-3.22-2.4,.71,.45,1.4,.93,2.08,1.43,.42,.32,.85,.67,.69,1.31-.87-.05-1.67-.39-2.49-.64-.29-.09-.59-.14-.89-.2-.24,.2-.48,.07-.71-.02-1.94-.78-3.99-1.22-5.93-2.01-.95-.32-1.85-.77-2.92-.68-.54,.05-1.06-.33-1.58-.54-.58-.24-1.13-.29-1.72-.1-1.07,0-2.16,.31-3.19-.2-.26-.36-.52-.51-1.05-.39-.81,.18-1.67-.06-2.5-.08-2.69-.08-5.41-.2-8.07,.19-2.4,.34-4.87,.21-7.22,.95-.18,.06-.39,.02-.59,.02-.42,0-.64-.1-.26-.51,.72-.78,1.62-1.26,2.64-1.53,.49-.13,1.01-.18,1.41-.53-1.54,.04-3.05,.19-4.21,1.37-.26,.26-.49,.38-.89,.23-.57-.21-1.15-.38-1.68-.69-.2-.12-.45-.25-.37-.49,.28-.86-.08-.75-.67-.51-.81,.33-1.02,.17-1.05-.72,.42-1.59,1.03-2.16,2.59-2.25,.93-.05,1.72-.49,2.55-.8,1.6-.6,3.14-.31,4.68,.13,.33,.1,.54,.2,.7-.2,.06-.16,.28-.18,.45-.17,.72,.06,1.46-.07,2.18,.11,.24,.09,.42,.28,.62,.42,.29,.21,.55,.23,.83-.03,.32-.3,.7-.51,1.14-.46,.87,.09,1.59-.19,2.22-.76,.16-.06,.4-.11,.48,0,.49,.71,1.02,.29,1.57,.12,.85-.28,1.74-.37,2.63-.4,.22,0,.44,.02,.66,.06,.37,.14,.79,.06,1.13,.31,.52,.49,1.13,.7,1.85,.65,.59-.04,1.18,.08,1.74,.26,.52,.17,.83,.5,.43,1.13,.27-.21,.39-.47,.59-.67,.35-.37,.69-.47,1.18-.18,.7,.41,1.53,.48,2.28,.76,.38,.14,.82,.14,1.17,.4,.14,.1,.29,.2,.46,.1,.7-.38,1.36,0,2.03,.09,.82,.21,1.54,.59,2.15,1.2,.4,.39,.7,.91,1.29,1.12,.16-.47-.71-.73-.26-1.02,.36-.23,.68,.35,1.01,.58,1.66,1.16,3.32,2.32,5.01,3.45,.43,.29,.48,.5,.1,.82-.43,.36-.29,.63-.01,1.05,.69,1.06,1.76,1.81,2.38,2.92Z"/>
    <path class="cls-111" d="M91.72,65.26c-1.33-.82-2.82-1.31-4.21-2-.5-.56-1.12-.36-1.72-.28-.92-.31-1.87-.54-2.7-1.08-.58-.43-1.28-.58-1.94-.74-3.34-.82-6.7-1.47-10.17-1.47-1.29,0-2.57,.13-3.86,.03-.42-.03-.87,.04-1.09-.45-.09-.36,.18-.5,.41-.65,1.1-.69,2.28-1.19,3.57-1.39,2.01,.15,3.98,.6,5.98,.87,.81,.11,1.61,.25,2.4,.47,1.22,.33,2.46-.09,3.69,.16,1.5,.31,3,.63,4.42,1.22,.13,.41-.19,.55-.45,.69-.32,.17-.65,.31-.93,.49,.82-.35,1.64-.83,2.6-.85,.63-.06,1.09,.22,1.6,.57,1.55,1.08,3,2.34,4.66,3.24,.95,.52,2.05,.88,3.15,1.1,.38,.08,.88,.06,.94,.64-.59,.77-1.57,.95-2.29,1.52-.2,.06-.41,.06-.57-.06-1.09-.81-2.37-1.29-3.49-2.04Z"/>
    <path class="cls-162" d="M103.9,72.48c1.08,.76,2.06,1.65,3.04,2.53,.28,.47,.2,.8-.3,1.11-1.02,.63-2.15,.53-3.26-.36-.17-.13-.28-.36-.54-.35-.21,.3,.48,.6,0,.87-.37,.21-.57-.14-.82-.28-1.28-.68-2.55-1.39-3.83-2.07-1.54-.82-2.5-2.2-3.44-3.6-.27-.4,.13-.55,.32-.75,.39-.42,.85-.64,1.42-.31,.92,.54,1.78,1.16,2.51,1.95,.37,.4,.77,.53,1.15,.14,.44-.44,.7,.14,1.05,.09,1.05-.05,1.95,.27,2.7,1.02Z"/>
    <path class="cls-28" d="M96.78,68.2s-.1-.04-.15-.07c-.24-.16-.52-.29-.56-.63,.03-.21,.14-.38,.32-.47,.9-.49,1.76-1.08,2.78-1.34,.61-.02,1.08,.25,1.47,.69,.51,.57,1.12,1,1.8,1.36,.62,.32,1.2,.73,1.78,1.12,1.07,.71,2.11,1.48,3.39,1.83,.21,.06,.54,.04,.53,.41-1.41,.53-2.83,.95-4.32,.28-1.97-.48-3.79-1.32-5.49-2.42-.48-.31-.94-.71-1.55-.77Z"/>
    <path class="cls-37" d="M83.3,61.85c.84,.32,1.67,.63,2.51,.95,.24,.05,.51,.02,.69,.25-1.06,.28-1.99-.22-2.94-.53-.71-.24-1.4-.46-2.18-.57,.39,.92,1.3,1.38,2.13,1.16,.61-.16,1.12,.17,1.64,.43-.7,.14-1.39-.11-2.14,.04-.5,.1-1.31-.2-1.76-.46-.75-.44-1.69-.17-2.34-.87-.41-.44-.68,.18-.89,.43-.3,.37-.53,.76-1.05,.8-.02-.09-.04-.12-.03-.14,.66-1.09,.66-1.07-.64-1.38-.36-.09-.72-.14-1.08-.1-.75,.07-1.38-.14-1.89-.68,.24-.25,.57-.23,.88-.28,.61,.02,1.21,.11,1.81,.21,.73,.13,1.42,.17,1.88-.58,1.87,.17,3.67,.62,5.41,1.32Z"/>
    <path class="cls-107" d="M96.09,67.55c.24,.13,.48,.27,.54,.58-.34,.34-.69,.4-1.12,.12-1.16-.76-2.54-1.16-3.54-2.19-.24-.25-.37-.47-.25-.8,1.26,.28,2.27,1.04,3.34,1.68,.24,.15,.45,.31,.74,.29,.15,.06,.21,.19,.28,.32Z"/>
    <path class="cls-129" d="M103.9,72.48c-.9-.34-1.8-.68-2.7-1.02-.09-.23-.37-.37-.35-.66,.83-.3,1.49,.27,2.24,.42,1.08,.3,2.17,.54,3.3,.34,.23-.04,.5-.15,.72,.08,0,.06,0,.11,0,.17-1.05,.3-2.05,.88-3.21,.67Z"/>
    <path class="cls-46" d="M103.07,71.32c-.79,.04-1.44-.47-2.21-.51-1.15-.55-2.11-1.38-3.18-2.05-.18-.11-.41-.13-.55-.31-.12-.08-.23-.16-.35-.24,.31-.22,.56-.09,.84,.1,1.72,1.17,3.61,2,5.54,2.77,.17,.07,.38,.05,.58,.07-.12,.45-.41,.23-.66,.18Z"/>
    <path class="cls-2" d="M86.5,63.04c-.23-.08-.46-.16-.69-.25,.63-.09,1.35-.48,1.7,.46-.34-.07-.68-.14-1.01-.22Z"/>
    <path class="cls-107" d="M97.13,68.44c.26-.03,.42,.11,.55,.31-.13,.04-.27,.07-.4,.12-.14,.05-.3,.1-.37-.04-.11-.21,.18-.24,.22-.39Z"/>
    <path class="cls-76" d="M91.06,50.02c-1.16,.2-2.22,.74-3.4,.89-.17,.02-.33,.2-.49,.3-.49,.46-.98,.89-1.72,.49,.14-.37,.31-.74-.27-.93-.12-.04-.23-.18-.19-.34,.05-.2,.23-.22,.4-.25,.44-.08,.81,.18,1.24,.28-.63-.42-1.23-.53-1.87-.08-.3,.21-.64,.15-.98,.11-2.17-.29-4.41-.34-6.51-.84-2.14-.5-4.33-.11-6.43-.7-.58-.16-1.23-.08-1.83,.14-.37,.13-.76,.24-1.11-.08,.62-.33,1.24-.67,1.86-1,.45,.1,.88-.03,1.31-.09,2.51-.36,4.98,.18,7.46,.36,.2,.01,.39,.07,.52,.23,1.42,.38,2.83,.71,4.32,.4,.6-.13,1.22,0,1.76,.35,.37,.24,.73,.32,1.1,.09,.71-.43,1.46-.36,2.19-.14,.71,.21,1.4,.38,2.14,.31,.37-.03,.51,.15,.49,.5Z"/>
    <path class="cls-153" d="M79.07,48.51c-1.79-.01-3.59-.16-5.33-.43-1.09-.16-2.06,.29-3.09,.09-.29-.06-.62,.1-.88-.16,.45-.12,.9-.23,1.35-.35,.81-.06,1.61-.11,2.42-.17,1.77-.11,3.52,.12,5.29,.18,1.52,.06,3.02-.2,4.53-.19,.24,0,.56-.04,.72-.19,1.25-1.17,2.78-.73,4.21-.72,.76,0,1.52,.26,2.27-.08,.23,.55-.27,.57-.53,.62-.41,.08-.68,.07-.52,.64,.16,.56-.28,.66-.74,.76-1.45,.32-2.9,.03-4.35,0-1.78-.03-3.57,0-5.36,0Z"/>
    <path class="cls-68" d="M78.05,103.72c.13-.05,.3-.06,.38-.15,.25-.3,1.03-.27,.81-.75-.17-.38-.76,.02-1.16,.08-.8,.12-1.52,.79-2.4,.31,1.85-.71,3.72-1.26,5.69-1.61,1.63-.29,2.89,.5,4.28,.86,.67,.18,1.36,.71,2,1.16,.27,.19,.53,.4,.96,.35-.31-.84-.95-1.37-1.41-2.02-.28-.39-.62-.74-.5-1.28,.31-.51,.64-.3,.92,0,.34,.36,.56,.81,.86,1.2,.47,.64,1.12,1.09,1.69,1.63,.35,.33,2.11,.39,2.51,.11,.38-.27,.72-.24,1.07,.03,.86,.65,1.79,1.14,2.86,1.36,.25,.05,.5,.14,.65,.35,.65,.87,1.55,1.19,2.59,1.22-.09,.23-.36,.38-.34,.67,0,0-.08,0-.08,0,0,0-.08,0-.08,0-1.99-.49-3.45-2.05-5.46-2.69,.12,.76,.99,1.12,.91,1.95-.43,.19-.88-.08-1.32-.07-1.56,.02-2.4-1-3.22-2.09-.1-.13-.23-.25-.36-.35-.11-.08-.24-.13-.46-.25,.12,.67,.56,1.07,.8,1.57,.12,.26,.5,.53,.13,.79-.33,.24-.8,.27-1.06-.1-.24-.36-.56-.41-.9-.52-.99-.31-1.65-1.11-2.2-1.85-.55-.74-1.01-.75-1.69-.45-.51,.23-1,.49-1.5,.74-.19,.09-.44,.18-.54,0-.58-1.1-1.33-.3-1.79-.03-.74,.43-1.47,.47-2.25,.48-.59,.01-.61-.25-.37-.68Z"/>
    <path class="cls-91" d="M73.49,67.59c1.13,0,2.26,0,3.38,0,.34-.02,.67-.01,1.01,.03,.16,.02,.35,.05,.39,.25,.05,.24-.12,.35-.29,.46-.3,.18-.65,.2-.98,.21-.87,.04-1.65,.53-2.53,.49-.87-.55-1.87-.29-2.78-.31-2.49-.07-4.98-.2-7.47,.11-.34,.04-.65,.17-.99,.19-.09,.03-.18,.04-.28,.04-.14,0-.28-.06-.42-.03-2.26,.49-4.62,.5-6.81,1.35-.08,.04-.17,.07-.26,.09-1.21,.07-2.27,.63-3.33,1.13-1.29,.62-2.7,.73-4.06,1.04-.17,.04-.33-.01-.46-.15,.82-.59,1.71-1.05,2.62-1.48,.37-.18,.71-.46,1.18-.23,.18,.09,.38-.03,.53-.18,.65-.6,1.52-.87,2.31-.92,1.21-.08,2.29-.5,3.42-.8,2.18-.58,4.33-1.32,6.66-1.15,1.11,.08,2.14-.61,3.28-.49,.11,.01,.23-.03,.34,0,1.35,.42,2.73,.53,4.13,.34,.45-.06,.92,.76,1.38-.01Z"/>
    <path class="cls-1" d="M41.22,89.54c-.99,.3-2.02,.31-3.04,.33,0-.05,0-.11-.02-.16,0-.3,.14-.55,.23-.81,.54-.61,.35-1.43,.59-2.12,.07-.22,.17-.41,.39-.5,.65,.08,1.21-.24,1.75-.47,1.11-.48,2.27-.78,3.44-1.05,.34-.08,.61-.27,.93-.37,.5-.17,1.03-.28,1.49,.13,.05,.25-.12,.4-.23,.59-.32,.96-.84,1.89-.45,2.96-.58,.59-1.38,.67-2.12,.83-.99,.22-2,.33-2.98,.64Z"/>
    <path class="cls-65" d="M45.79,73.5c.2-.12,.42-.2,.66-.18,.34-.25,.71-.17,1.04-.03,.57,.25,1.07,.1,1.6-.14,1.4-.64,2.65-1.55,4.1-2.1,.78-.3,1.6-.48,2.38-.76h0c1.77-.41,3.57-.71,5.36-1.01,.69-.11,1.37-.26,2.07-.34h0c.79-.17,1.58-.24,2.38-.14,.17,.1,.25,.23,.06,.38-.23,.18-.51,.25-.79,.27-2.92,.22-5.62,1.25-8.37,2.11-1.42,.44-2.89,.66-4.3,1.16-2.13,.75-3.91,2.05-5.67,3.4-1.21,.91-2.47,1.73-3.89,2.27-.48-.08-.57-.32-.24-.68,.35-.38,.82-.57,1.25-.84,.61-.38,1.29-.7,1.44-1.54-.7-.12-1.29,.39-1.96,.24-.07-.56,.46-.64,.75-.85,.66-.47,1.26-1.08,2.13-1.2Z"/>
    <path class="cls-80" d="M37.31,88.87c-.38-1.54-.13-3.03,.35-4.5,.26-.81,.56-1.62,.85-2.43,.09-1.06,.63-1.91,1.29-2.7,.39-.19,.78-.45,1.25-.22,.13,.24,.03,.46-.13,.61-1.4,1.29-1.62,3.06-1.94,4.78-.16,.86-.74,1.57-.76,2.46-.22,.7-.54,1.36-.9,2Z"/>
    <path class="cls-167" d="M55.58,70.29c-.16,.11-.31,.28-.48,.32-2.3,.45-4.12,1.94-6.2,2.87-.44,.2-.8,.39-1.31,.07-.3-.19-.75-.15-1.14-.21,.28-.44,.83-.5,1.19-.84,1.93-.31,3.84-.69,5.6-1.61,.72-.37,1.49-.66,2.34-.59Z"/>
    <path class="cls-78" d="M39.82,79.39c-.57,.78-.89,1.69-1.32,2.54-.3,.16-.48,.23-.29-.25,.58-1.46,1.32-2.83,2.23-4.11,1.22-1.71,2.86-2.95,4.61-4.04,.22-.14,.48-.36,.74-.03-.99,.63-2.04,1.18-2.87,2.02-1.03,1.29-2.08,2.57-3.1,3.87Z"/>
    <path class="cls-85" d="M37.31,88.87c-.13-.8,.6-1.3,.7-2.02,.15-.35,.28-.71,.44-1.05,.1-.21,.19-.53,.49-.46,.3,.06,.25,.37,.25,.62-.03,.21-.12,.4-.19,.6-.05,.86-.57,1.62-.49,2.5-.04,.27-.12,.51-.36,.67-.17,.01-.35,.04-.42-.19,.02-.31-.19-.48-.38-.67l-.05,.02Z"/>
    <path class="cls-1" d="M37.36,88.85c.49,.02,.75,.17,.38,.67-.24-.16-.41-.36-.38-.67Z"/>
    <path class="cls-13" d="M67.91,49.01c.62,.18,1.13-.4,1.69-.32,2.42,.38,4.9,.1,7.31,.72,1.25,.32,2.6,.3,3.9,.45,.72,.08,1.43,.25,2.15,.29,.74,.05,1.5,.37,2.24-.19,.33-.25,.9-.25,1.25,.12,.28,.3,.68,.2,1.03,.43-.84,.63-1.58-.4-2.38-.08,.18,.49,.83,.06,.97,.51,.16,.5-.35,.54-.59,.78-.09,.31-.35,.43-.6,.54-1.66,.71-3.31,1.45-5.05,1.97-.26,.08-.52,.24-.79,.03-.03-.25,.1-.37,.34-.39-.25-.15-.52-.2-.81-.19-.26,.01-.46,.2-.69,.29-.51,.22-1.14,.36-1.51-.05-.85-.94-1.99-.92-3.03-.95-2.05-.07-4.09-.12-6.1-.55-.32-.07-.61-.09-.81,.25-.17,.3-.37,.63-.79,.42-.41-.21-.62-.56-.51-1.04,.03-.13,.11-.25,.09-.39-.31-.08-.57,.33-.88,.06,.92-1.25,2.16-2.07,3.55-2.7Z"/>
    <path class="cls-168" d="M64.36,51.71c.26,.02,.41-.15,.58-.3,.2-.18,.46-.31,.67-.09,.22,.21,.01,.42-.15,.57-.28,.24-.22,.49-.04,.74,.12,.18,.24,.41,.51,.37,.24-.03,.28-.25,.3-.45,.06-.45,.34-.54,.73-.45,2.16,.52,4.34,.69,6.57,.59,.79-.04,1.59,.27,2.38,.44,.14,.03,.27,.19,.37,.32,.41,.53,1.12,.68,1.6,.24,.27-.24,.52-.28,.84-.29,.27,0,.53,.02,.67,.26,.2,.34-.32,.32-.32,.57-.05,.07-.11,.12-.18,.15-.49,.1-1.04,.01-1.43,.45-.08,.04-.15,.08-.24,.1-.89,.05-1.7,.6-2.62,.4-.86-.57-1.89-.49-2.79-.42-1.5,.11-2.97-.24-4.46-.08-1.95,.22-3.94-.04-5.86,.5-.55,.15-1.03-.19-1.55-.3-.24-.19-.09-.31,.06-.45,.29-.27,.68-.18,1.01-.31,1.38-.51,2.27-1.65,3.35-2.55Z"/>
    <path class="cls-67" d="M64.71,50.37c-1.17,1.2-2.21,2.55-3.72,3.37-.27,.15-.51,.41-.86,.2-.23-.58,.33-.6,.57-.9-1.29,.56-2.85-.18-4.03,.91-.23,.21-.59,.2-.89,.13-.66-.16-1.26,.03-1.89,.23-1.57,.5-3.16,.96-4.73,1.49-.43-.74,.18-1.07,.59-1.47,2.15-1.27,4.27-2.6,6.62-3.52,.6-.24,1.19-.51,1.83-.6,.98-.14,1.94-.34,2.88-.64,.48-.15,.97-.28,1.49-.12,.36,.11,.65-.11,.95-.26,.29-.15,.67-.49,.9-.14,.24,.36,.7,.77,.29,1.32Z"/>
    <path class="cls-142" d="M64.71,50.37c.14-.45-.55-.66-.32-1.18,.06-.13-.28-.1-.47,.01-.55,.33-1.03,.78-1.82,.39-.33-.16-.92,.12-1.36,.29-.53,.21-1.07,.31-1.62,.4-3.03,.5-5.6,2.03-8.15,3.6-.36,.22-.71,.46-1.13,.53-.72-.12-.54-.55-.34-.99,.92-.46,1.71-1.11,2.54-1.71,.63,.01,1.11-.4,1.58-.7,1.11-.71,2.35-1.07,3.56-1.54,3.01-1.16,6.24-.74,9.31-1.43,.45-.1,.67,.18,.73,.6-.93,.43-1.57,1.3-2.52,1.71Z"/>
    <path class="cls-151" d="M60.15,53.93c.28-.06,.56-.12,.84-.19,.35,.16-1.06,.4,.02,.52-.4,.22-.8,.44-1.2,.66-.02,.03-.04,.07-.06,.1-.51,.39-1.22,.32-1.73,.72-.59,.35-1.22,.63-1.82,.96-.18-.01-.35-.03-.3-.29,.07-.1,.13-.2,.2-.3,.51-.75,1.27-1.16,2.08-1.5,.64-.27,1.27-.59,1.97-.69Z"/>
    <path class="cls-33" d="M60.15,53.93c-.18,.35-.55,.37-.85,.46-1.2,.34-2.2,1.04-3.2,1.73-.53-.62-1,.02-1.39,.18-.71,.29-1.4,.55-2.16,.67-.84,.12-1.58,.53-2.36,.81-1.68,.6-3.2,1.57-4.95,2.03-.61,.16-1.07,.8-1.78,.84-.06-.62,.69-.6,.86-1.08,.1-.29,.41-.51,.62-.76,.59-.88,1.63-1.4,1.96-2.49,.07-.22,.35-.43,.52-.33,.66,.38,1.18-.1,1.75-.22,.71-.53,1.56-.74,2.38-1,.9-.29,1.81-.58,2.72-.8,1.24-.3,2.52-.27,3.75-.84,.74-.34,1.76,.04,2.61-.37,.16-.08,.57-.17,.62,.19,.04,.25-.17,.46-.48,.46-.36,0-.6,.13-.61,.52Z"/>
    <path class="cls-159" d="M62.17,61.85c-.62,0-1.24,.02-1.85-.01-.59-.03-1.33-.24-.41,1-1.19-1.05-2.45-.93-3.58-1.15-.99-.19-2.05,.25-2.96,.68-.55,.26-1.1,.46-1.65,.46-1.07,0-1.84,.33-2.23,1.38-.09,.25-.32,.45-.49,.67-.66,.42-.04,1.09-.29,1.68-.73-1.03-1.48-1.93-2.34-2.75-.44-.42-1.11-.02-1.42-.58,.1-.01,.21-.02,.31-.04,1.33-.32,2.59-.87,3.92-1.18,.33-.08,.64-.21,.96-.31,.09-.03,.18-.05,.27-.07,1.02-.11,2.01-.43,3.03-.53,1.49-.27,2.96-.24,4.41,.23,.27,.09,.56,.04,.83-.06,1.9-.69,3.89-.46,5.84-.52,.23,0,.45,.03,.64,.17,.12,.14,.07,.3-.05,.35-.95,.34-1.88,.84-2.95,.57Z"/>
    <path class="cls-152" d="M50.32,61.86h-.04s-.04,0-.04,0c-1.42,.17-2.72,.74-4.07,1.14-.29,.09-.58,.2-.88,.03-.03,0-.06,0-.08,0-.03,0-.05-.02-.08-.02,.57-.22,.26-.9,.79-1.31,.81-.63,1.74-.99,2.62-1.39,1.39-.64,2.8-1.27,4.23-1.84,.34-.14,.73-.4,.97,.17,0,.12-.05,.23-.13,.32-.4,.47-.9,.84-1.23,1.36-.19,.29-.26,.61-.25,.95-.03,.08-.08,.13-.16,.16-.54,.15-1.15,.07-1.63,.44Z"/>
    <path class="cls-100" d="M45.28,63.03c.64,0,1.22-.29,1.8-.49,1.03-.36,2.02-.8,3.15-.68-1.67,.41-3.19,1.39-4.98,1.34,0-.06,.02-.11,.03-.17Z"/>
    <path class="cls-127" d="M53.55,58.8c.06-.06,.11-.12,.17-.18,.57-.41,.91-1.03,1.38-1.53,.24-.26,.39-.62,.8-.67,.07,.14,.19,.18,.34,.18,.13,.5-.35,.64-.55,.95-.31,.29-.6,.62-.94,.88-.31,.18-.53,.49-.84,.66-.27,.14-.53,.19-.35-.28Z"/>
    <path class="cls-32" d="M76.36,76.03c.9-.29,1.79-.57,2.69-.86,.49,.03,1,.17,1.29-.44,.07-.15,.28-.18,.45-.13,.23,.07,.3,.28,.24,.47-.2,.59,.19,.66,.59,.86,1.04,.53,2.26,.66,3.14,1.54,.35,.34,.92,.38,1.4,.53,.34,.11,.62,.28,.64,.68,.02,.38-.27,.5-.55,.66-.57,.33-1.25,.32-1.81,.65-.08,.03-.16,.06-.24,.08-1.18,0-2.16,.58-3.16,1.08-.4,.35-.92,.35-1.39,.48-.96,.04-1.86,.47-2.83,.37-1.41-.1-2.76,.39-4.15,.42-1.59,.03-3.14,.31-4.71,.52-.27-.08-.54-.14-.83-.12-1.01,.06-2.02,.06-3.03-.1-1.01-.16-2.01,.13-3.03,.15-1.71,.03-3.42-.24-5.13,.06-.75,.13-1.43,.5-2.2,.54-.32,.02-.62,.09-.85-.2-.18-.28,0-.43,.19-.6,.26-.19,.54-.35,.88-.34,.74,.09,1.39-.25,1.97-.61,.87-.54,1.79-.67,2.74-.5,.99,.17,1.95,.09,2.93-.05,1.25-.18,2.5-.34,3.75-.5,.25-.03,.56-.04,.6-.35,.04-.3-.25-.42-.47-.52-.83-.39-1.7-.57-2.61-.52-.65,.03-1.08-.21-1.24-.87-.02-.09-.01-.17,.03-.25,.47-.24,1.08-.15,1.45-.62,.11-.08,.23-.14,.35-.19,.81-.26,1.67-.25,2.5-.4,3.49-.04,6.95-.46,10.4-.95Z"/>
    <path class="cls-3" d="M83.79,72.81c-2,.39-3.78,1.37-5.66,2.07-.76,.28-1.52,.55-2.27,.83-1.09,.75-2.38,.67-3.6,.9-1.71,.32-3.45,.16-5.18,.17-.25,0-.5,0-.74,.11-1.15,.3-2.36,.23-3.51,.55-.76-.09-1.06-.52-1.1-1.67-.02-.59,.35-.76,.89-.74-.13-.29-.4-.41-.61-.59-.16-.13-.3-.28-.23-.5,.07-.22,.27-.26,.47-.29,.3-.04,.63,0,.84-.3,.79-.48,1.7-.55,2.56-.8,1.44-.41,2.79-1.02,4.13-1.65,.25-.12,.5-.24,.78-.31,.58-.08,1.05-.51,1.66-.52,2.91-.1,5.72,.53,8.54,1.12,.91,.19,1.83,.32,2.72,.6,.63,.2,.69,.41,.32,1.03Z"/>
    <path class="cls-147" d="M84.32,79.94c.5-.63,1.37-.38,1.95-.84,.18-.14,.41-.16,.37-.45-.03-.26-.21-.36-.45-.42-.88-.21-1.63-.6-2.38-1.15-.73-.54-1.71-.76-2.62-1.02-.54-.16-.79-.29-.41-.83,.12-.17,.22-.37-.04-.49-.18-.08-.36,0-.4,.19-.24,1.15-.81,.5-1.3,.25,1.55-.91,3.31-1.25,4.99-1.82,.42-.14,.85-.24,1.28-.36,.91-.24,1.71-.13,2.49,.51,1.11,.9,2.33,1.65,3.5,2.49,.44,.32,.79,.72,1.03,1.2,.26,.53,.11,.81-.48,.85-.33,.02-.6,.07-.83,.3-1.49,.45-3.03,.71-4.49,1.22-.74,.12-1.4,.68-2.21,.37Z"/>
    <path class="cls-36" d="M91.05,78.2c.06-.32,.19-.53,.57-.38,.22,.09,.48,.13,.62-.08,.19-.26-.08-.45-.2-.66-.22-.36-.48-.67-.84-.91-1.33-.92-2.66-1.84-3.95-2.82-.61-.46-1.27-.33-1.93-.36,.47-.26,1.01-.21,1.51-.34,1.42-.17,2.56,.57,3.64,1.26,1.76,1.11,3.69,1.84,5.51,2.81,.44,.23,.88,.46,1.35,1-1.02,0-1.9-.01-2.77,0-.32,0-.68-.11-.97,.15-.83,.27-1.63,.67-2.54,.33Z"/>
    <path class="cls-10" d="M83.79,72.81c.21-.54,.1-.75-.55-.86-1.73-.29-3.46-.64-5.15-1.08-.94-.24-1.89-.26-2.82-.37-1.03-.12-2.07-.44-3.13-.21,.1-.52,.58-.52,.94-.64,.41-.14,.85-.2,1.26-.35,.09-.03,.18-.05,.27-.06,1.7-.04,3.36,.03,5.05,.48,1.58,.42,3.12,1.04,4.74,1.3,.58,.09,1.13,.33,1.62,.66,.21,.15,.54,.32,.13,.62-.79,.17-1.58,.33-2.37,.5Z"/>
    <path class="cls-103" d="M82.95,68.94c2.2,.73,4.43,1.35,6.59,2.2,.23,.58-.3,.57-.58,.64-.47,.12-.97,.14-1.45,.2-.25-.37-.6-.55-1.05-.61-.98-.13-1.89-.46-2.8-.84-1.84-.77-3.75-1.27-5.76-1.37-.37-.02-.85,.19-1.04-.38,.28-.31,.66-.25,1.02-.27,1.7-.06,3.4-.01,5.06,.42Z"/>
    <path class="cls-19" d="M76.87,68.93c2.61-.08,5.06,.55,7.43,1.64,.69,.32,1.47,.52,2.26,.58,.44,.04,1.19-.09,.96,.82-.49-.06-.85,.42-1.35,.34,.15-.24,0-.34-.2-.43-.79-.37-1.56-.76-2.46-.74-.11,0-.26,.03-.33-.02-1.46-1.09-3.36-.75-4.92-1.53-.68-.34-1.49-.09-2.24-.13-.5-.03-1.01,0-1.51-.01,.7-.6,1.47-.85,2.37-.5Z"/>
    <path class="cls-8" d="M66.21,76.69c.26-.24,.59-.14,.88-.14,1.9-.01,3.8,.08,5.69-.2,1.03-.15,2.05-.43,3.07-.65-.15,.6,.36,.19,.5,.32-1.24,.54-2.59,.61-3.89,.79-2.17,.29-4.39,.28-6.58,.39-.06-.26,.16-.23,.29-.3,.07-.04,.17,.03,.22-.06-.08-.03-.15-.08-.19-.15Z"/>
    <path class="cls-88" d="M92.92,71.97c-.23-.98-1.07-1.38-1.81-1.88-.49-.33-.98-.63-1.52-.98,.24-.26,.46-.17,.71-.01,1.15,.74,2.34,1.46,3.28,2.46,.54,.58,1.3,.76,1.87,1.25-.79,.2-1.33-.46-2.02-.62-.17-.04-.31-.23-.51-.23Z"/>
    <path class="cls-121" d="M88.36,102.03c-.27-.38-.56-.76-.82-1.14-.18-.27-.34-.55-.7-.21-.6,.81-1.37,.41-2.09,.26-.47-.1-.83-.46-1.21-.75-.46-.34-.79-.38-1.25,.18-.63,.75-1.65,1.02-2.57,1.32-1.23,.4-2.49,.69-3.77,.89-.44,.07-.93,.28-1.19-.27-.26-.55,.13-.89,.53-1.19,.09-.07,.18-.13,.27-.2,1.13-.77,2.41-1.15,3.88-1.38-.72-.11-1.28,.15-1.86,.09-.59-.27-1.13-.24-1.61,.26-.18,.19-.43,.26-.7,.21-.42-.07-.8-.08-.85,.5-.01,.15-.1,.29-.26,.27-.74-.11-1.43,.29-2.17,.17-.6-.09-.69-.25-.35-.75,.4-.59,.9-1.07,1.55-1.38,.25-.12,.53-.19,.65-.53-.69,.34-1.39,.64-2.03,1.09-.37,.26-.77,.44-1.02-.16-.04-.17-.05-.34,0-.5,.13-.48,.11-.75-.53-.57-.38,.1-.69-.37-1.11-.27-.31,.08-.68-.02-.98,.32,.4,.29,.77,.6,.33,1.13-.36,.44-1.23,.73-1.67,.52-.33-.15-.43-.4-.32-.76,.13-.43,.42-.78,.55-1.21,0-.33,.07-.62,.34-.84,.04-.3,.24-.54,.31-.87-.82,.07-1.6,.17-2.34,.43-.44,.15-.84,.17-1.03-.37-.12-.32-.33-.34-.6-.19-.37,.2-.78,.31-1.17,.47-.53,.22-.94,.18-1.09-.47-.08-.36-.22-.49-.57-.25-.55,.38-1.23,.37-1.85,.52-.41,.1-.81,.14-1.19,.36-.25,.14-.49,.13-.56-.24-.13-.73,1.05-2.52,1.83-2.78,.05,.54,.32,.66,.84,.53,.68-.17,1.33-.47,2.06-.39,.35,.04,.68,.07,.81,.47,.18,.53,.47,.35,.76,.11,.39-.32,.82-.59,1.28-.81,1.15,0,.38,.77,.49,1.29,1.13-.58,2.32-.02,3.47-.32,.33-.09,.71-.1,.91,.25,.2,.36-.16,.54-.36,.76-.05,.06-.13,.1-.08,.25,.4-.2,.76-.46,1.18-.62,.92-.36,1.82-.51,2.77-.07,.53,.25,1.12,.39,1.72,.31,.31-.04,.65-.13,.84,.2,.2,.34-.11,.57-.26,.83-.08,.14-.22,.25-.28,.49,.8,.14,1.61-.02,2.4,.15,.55,.12,.98,.29,1.29,.82,.36,.63,2.13,1.04,2.83,.72,.44-.2,.86-.42,1.34-.51,.57-.11,.99,0,.93,.69-.03,.42,.17,.62,.52,.75,.26,.1,.52,.21,.79,.29,1.26,.36,1.63,.18,2.17-1.01,.13-.29,.12-.88,.67-.61,.39,.19,.61,.69,.33,1.09-.49,.69-.16,.9,.45,1.11,.73,.26,1.38,.75,2.24,.53,.27-.07,.53,.15,.76,.32,.38,.29,.77,.56,1.16,.84,1.11,.72,2.35,1.16,3.59,1.61,.08,.03,.19,.07,.24,.03,.97-.73,2.02,.12,3.01-.15,.31-.09,.6,.07,.85,.28,.24,.2,.47,.4,.73,.57,.3,.19,.5,.73,.97,.4,.33-.23,.15-1.14-.19-1.52-.82-.91-1.96-1.26-3.03-1.73-.65-.29-1.22-.68-1.7-1.21-.18-.2-.44-.38-.29-.72,.17-.07,.33-.06,.48,.05,.62,.34,1.24,.67,1.87,1.01,1.25,.62,2.33,1.52,3.53,2.22,.33,.19,.54,.51,.49,.92-.06,.5,.21,.79,.6,1.01,.39,.23,.79,.45,1.03,.85,.28,.48,.13,.81-.42,.91-.46,.08-.91-.03-1.33-.14-1.43-.38-2.94-.56-4.15-1.48,.02,.08-.06-.08-.05-.05,.16,.38,.3,.8-.12,1.05-.44,.26-1.03,.26-1.32-.16-.84-1.25-2.19-1.49-3.46-1.88-.36-.11-.63-.36-.95-.53-.46-.26-.86-.78-1.5-.41-.09,.05-.23,.01-.33-.04-.82-.42-1.71-.54-2.6-.7-.29-.05-.51-.24-.74-.39Z"/>
    <path class="cls-83" d="M88.36,102.03c1.14,.35,2.4,.25,3.45,.94,.06,.04,.21,.07,.23,.04,.65-.74,1,.03,1.38,.32,.76,.59,1.68,.77,2.54,1,.8,.21,1.36,.6,1.83,1.21,.09,.11,.15,.25,.25,.34,.36,.32,.86,.36,1.16,.1,.34-.31,.12-.72-.23-.99-.1-.08-.26-.13-.2-.32,.12-.12,.27-.09,.38,0,1.48,1.32,3.4,1.47,5.2,1.91,.3,.07,.77,.19,.92-.17,.16-.39-.24-.65-.52-.87-.28-.22-.61-.4-.93-.57-.35-.18-.53-.44-.37-.82,.22-.5-.07-.71-.42-.94-1.01-.66-2-1.33-3-2-.13-.09-.24-.23-.35-.34,.99-.04,1.52,.79,2.26,1.21,.56,.32,1.12,.68,1.73,.77,1.19,.18,2.31,.56,3.44,.89,1.13,1.32,1.07,1.26-.16,2.65-.95,1.07-1.95,1.3-3.19,.7-.89-.43-1.91-.38-2.81-.76-.42-.18-.74,.14-1.1,.28-.73,.3-1.98-.04-2.46-.75-.26-.38-.56-.57-1-.66-1.04-.21-1.95-.71-2.76-1.37-.37-.3-.66-.32-.91,.06-.26,.4-.55,.42-.93,.21-.12-.07-.27-.18-.39-.16-1.6,.29-2.14-1.09-3.04-1.89Z"/>
    <path class="cls-130" d="M110.15,102.17c-2.32,1.09-4.48,.49-6.58-.65-.36-.3-.83-.42-1.19-.72-.18-.15-.48-.23-.31-.57,.45-.65,1.48-.07,1.65-.43,.4-.87,1-.5,1.56-.54,1.04-.07,1.97,.35,2.92,.68,.5,.17,.74,.55,.87,1.04,.08,.3,.04,.71,.49,.8,.23,.08,.55,.02,.59,.38Z"/>
    <path class="cls-114" d="M110.15,102.17c-.19-.21-.44-.12-.67-.15-.39-.3-.35-.75-.39-1.16-.06-.69-.38-1.11-1.03-1.39-1.6-.68-3.27-1.27-4.66-2.33-1.14-.87-2.55-1.39-3.47-2.55-.07-.09-.12-.18-.1-.3,.73-.54,1.47-.59,2.23-.05,.17,0,.33,.02,.5,.03,.85,.67,1.51,1.56,2.46,2.13,1.38,.84,2.7,1.77,4.33,2.11,.61,.13,.96,.8,1.62,.96,.25,.06,.17,.43,.07,.67-.11,.29-.33,.52-.38,.88,.18,.19,.49-.1,.65,.14,.01,.05,.03,.1,.05,.15-.31,.41-.59,.86-1.21,.85Z"/>
    <path class="cls-102" d="M103.23,101.52c-.25,.34-.54,.1-.75,0-1.75-.87-3.5-1.74-5.22-2.68-1.91-1.04-3.87-1.98-5.86-2.86-.76-.34-1.53-.67-2.27-1.04-.27-.13-.51-.21-.84-.09,.8,.96,2.28,.85,2.95,1.95-.32,.43-.71,.35-1.13,.16-1.3-.59-2.55-1.27-3.67-2.18-.27-.22-.6-.3-.91-.42-.29-.11-.68-.14-.72-.58,.47-.4,.97-.2,1.46-.09-.25-.13-.57-.1-.81-.3-.35-.3-.3-.51,.17-.59,1.48,.19,2.76,.93,4.09,1.52,2.72,1.2,5.34,2.62,7.98,4,1.54,.84,3.1,1.66,4.64,2.49,.33,.18,.74,.28,.87,.71Z"/>
    <path class="cls-154" d="M97.31,99.84c.82,1.19,2.05,1.79,3.37,2.2,.94,.29,1.54,1.02,2.18,1.65,.34,.34,.09,1.06-.13,1.56-.11,.24-.45,.21-.67,.05-.18-.13-.32-.32-.5-.45-.65-.45-1.15-1.26-2.19-.83-.27,.11-.69-.14-1.05-.21-.19-.04-.49-.13-.56-.05-.77,.88-1.54,.18-2.17-.11-.84-.4-1.87-.46-2.5-1.27,.74-.16,1.34,.28,1.96,.54,.69,.28,1.37,.29,2.1,.33,1.43,.09,2.88-.27,4.3,.25-.28-.45-.61-.8-1.09-1.01-.17-.08-.42-.2-.51,.05-.32,.79-.82,.37-1.24,.18-.43-.19-.81-.5-1.32-.49-.33-.09-.72-.14-.71-.57,0-.48,.55-.39,.77-.58-.89-1.19-2.15-1.67-3.52-2-.46-.11-1.13-.21-.85-1.02,.73-.2,1.32,.26,1.97,.42,.51,0,.81,.58,1.34,.52,.31,.31,.77,.44,1.02,.83Z"/>
    <path class="cls-9" d="M94.95,98.48c-.73,.19-1.33-.39-2.03-.33-.94,.11-1.77,.07-2.6-.61-1.14-.94-2.6-1.4-3.96-1.97-.41-.18-.84-.31-1.19-.6-.47-.38-1-.62-1.6-.66-.7-.05-1.14-.54-1.65-.93-.13-.13-.23-.27-.18-.47,.06-.07,.14-.11,.23-.13,.18-.04,.35-.01,.51,.07,.33,.37,.73,.56,1.24,.54,.36-.01,.71,.06,1.02,.27,.03,.03,.05,.07,.08,.1,1.97,.76,3.51,2.28,5.46,3.08,.37,.15,.65-.01,.97-.04,.11,0,.22,0,.34,0,.62,.4,1.28,.72,2.02,.84,.41,.34,1.06,.32,1.36,.84Z"/>
    <path class="cls-94" d="M103.23,101.52c-1.54-.83-3.09-1.66-4.63-2.49-.32-.17-.62-.36-.93-.54,.09-.16,.24-.23,.41-.25,.74,.04,1.29,.52,1.88,.88,.69,.41,1.45,.73,2.08,1.24,.47,.3,.91,.65,1.44,.83,.21,.07,.28,.17,.1,.34-.11,0-.23,0-.34,0Z"/>
    <path class="cls-102" d="M93.59,97.64c-.83,.09-1.55-.06-2.02-.84,.8-.01,1.37,.52,2.02,.84Z"/>
    <path class="cls-102" d="M97.31,99.84c-.46-.13-.79-.41-1.02-.83,.55,.2,1.09,.41,1.52,.84-.17,0-.33,0-.5,0Z"/>
    <path class="cls-29" d="M100.69,65.38c.34-.11,.68-.22,1.01-.34,.98,0,1.96,0,2.94,.01,.21,0,.45-.06,.58,.21,.57,1.21,1.82,1.77,2.85,2.21,1,.42,2.18,1.14,3.44,.62-.91,.58-1.61,1.56-2.91,1.37-.43-.06-.8-.21-1.19-.38-2.16-.93-4.27-1.94-6.13-3.41-.18-.14-.35-.29-.59-.3Z"/>
    <path class="cls-68" d="M59.13,93.76c-.89,.75-1.39,1.73-1.64,2.92,1.06-.85,2.55-.25,3.61-1.21,.45-.41,.56,.08,.56,.43,0,.64,.22,.82,.82,.51,.44-.23,.95-.3,1.38-.6,.38-.27,.65-.14,.67,.34,.02,.51,.3,.59,.67,.4,.82-.43,1.75-.3,2.6-.59,.41-.14,.31,.25,.22,.4-.16,.29-.41,.53-.62,.79-.12-.28-.27-.3-.51-.09-.36,.31-.74,.6-1.12,.88-.24,.18-.46,.43-.81,.4-.53-.06-.92,.11-1.18,.61-.15,.28-.48,.34-.79,.42-.6,.15-1.17,.29-1.55,.89-.38,.58-.88,.24-1.22-.09-.55-.52-1.02-1.11-1.53-1.67-.34-.37-.63-.45-.88,.09-.37,.8-1.21,.92-1.9,1.09-1.18,.29-2.42,.51-3.49-.46-.52-.46-1.2-.56-1.89-.55-.76,.01-1.5-.1-2.21-.41-.34-.15-.56-.37-.51-.77,.23-.35,1.15-.06,.9-.68-.15-.38-.79,.1-1.2,.21-.31,.09-.59,.31-.88,.48-1.09-.17-2.35,.08-3.01-1.19-.11-.21-.4-.17-.62-.15-.73,.06-1.09-.19-.86-.97,.05-.18,.07-.33-.09-.45-.18-.12-.32,0-.45,.1-.49,.42-.91,.31-1.28-.18-.05-.07-.12-.12-.18-.18q-.82-.81-.1-1.71c.08-.06,.16-.05,.23,.02,.5,1.12,.52,1.14,1.84,1.04,.27-.02,.53,.02,.67,.25,.32,.5,.73,.43,1.18,.25,.38-.16,.74-.2,1.1,.1,.76,.61,1.68,.77,2.61,.81,.98,.04,1.96,0,2.95,.14,.85,.11,1.66-.25,2.48-.41,.33-.07,.46-.39,.63-.65,.46-.71,1.14-1.09,1.95-.86,.92,.27,1.71,.03,2.52-.33,.44-.2,.89-.35,1.34-.5,.19-.06,.39-.11,.54,.08,.15,.2,.04,.39-.09,.53-.23,.27-.43,.61-.88,.53Z"/>
    <path class="cls-11" d="M40.21,92.75c-.06,0-.12,0-.17,0,.04-.15,.23-.36,.02-.44-1.29-.5-.11-.77,.13-.94,.72-.51,1.51-.91,2.27-1.36,.25-.15,.45-.33,.43-.66,.03-.03,.07-.06,.1-.09,.5-.17,1.03-.25,1.54-.39,.82-.23,1.64-.21,2.48-.17,1.2,.07,2.38-.12,3.55-.41,.46-.11,.92-.22,1.4-.11,1.28,.46,2.58,.66,3.94,.47,.06,.08,.08,.16,.05,.26-.23,.38-.61,.48-1.01,.5-.76,.05-1.53,.08-2.25-.21-.8-.32-1.6-.31-2.4-.08-1.01,.28-2.02,.49-3.06,.54-.48,.02-.97,.11-.98,.79,0,.34-.3,.45-.6,.48-.5,.07-.99,.19-1.5,.19-1.21,0-2.24,.45-3.14,1.24-.23,.2-.42,.47-.79,.39Z"/>
    <path class="cls-97" d="M41.22,89.54c-.11-.02-.29,0-.31-.06-.08-.21,.17-.23,.24-.22,1,.07,1.89-.46,2.85-.56,.81-.08,1.53-.4,2.26-.7,.02-.04,.05-.08,.07-.13,1.25-.43,2.53-.66,3.85-.6,.43,.06,.9-.09,1.3,.19,.05,.55-.41,.43-.68,.46-2.19,.24-4.34,.68-6.49,1.12-.47,.13-.95,.22-1.43,.32,0,0,0,0,0,0-.56,.06-1.12,.13-1.67,.19Z"/>
    <path class="cls-104" d="M49.16,55.76c-.2,.29-.65,.3-.74,.74-.06,.28-.29,.21-.41,0-.15-.28-.35-.44-.67-.36-.41,.1-.36,.43-.38,.74,0,.11-.03,.31-.06,.31-1,.12-1.01,1.46-1.97,1.62,1.28-2,2.58-3.98,4.57-5.37,.03,.36-.12,.78,.34,.99-.24,.44-.84,.7-.67,1.35Z"/>
    <path class="cls-134" d="M53.72,100.68c.72-.38,1.54-.43,2.31-.66,.32-.09,.58,.03,.76,.36,.18,.34,.43,.65,.65,.97-.18-.06-.42-.07-.54-.2-.75-.83-1.65-.75-2.6-.49-.18,.05-.39,.01-.58,.02Z"/>
    <path class="cls-74" d="M108.13,70.97c-.88-.08-1.69-.39-2.41-.84-1.29-.82-2.51-1.73-3.88-2.43-.49-.25-.97-.63-1.32-1.12-.32-.45-.76-.72-1.35-.68,.04-.52,.51-.1,.69-.32,.16,0,.32-.02,.49-.02,2.1,1.75,4.65,2.83,6.82,4.47,.48,.36,1.08,.56,1.74,.32,.28-.1,.61-.05,.91-.06-.29,.66-.93,.92-1.69,.68Z"/>
    <path class="cls-14" d="M108.13,70.97c.65,0,1.23-.2,1.69-.68,.39,.08,.76-.38,1.16-.04-1.13,.9-2.49,1.16-3.86,1.4-1.05,.08-2.09,.23-3.14,0-.32-.07-.67-.03-.91-.33,.22-.05,.49,.06,.66-.18,1.49,.69,2.94,.22,4.4-.17Z"/>
    <path class="cls-150" d="M111.31,101.17c-.14,.03-.28,.04-.41,.08-.14,.03-.25,.29-.42,.06-.1-.14-.17-.3-.06-.47,.13-.22,.27-.42,.4-.64,.22-.39,.28-.71-.34-.7-.13,0-.35-.01-.39-.09-.49-.93-1.54-.7-2.27-1.11-1.94-1.09-4.02-2-5.26-4.01,.22,0,.45,0,.67-.01,1.63,1.22,3.37,2.25,5.26,3.05,.78,.33,1.57,.58,2.35,.86,.84,.31,.96,.65,.64,1.47-.19,.48-.31,1-.17,1.54Z"/>
    <path class="cls-126" d="M100.18,59.15c.81,.13,1.56,.53,2.4,.5,.65-.02,.94,.25,1,.92,.06,.61,.15,1.21,.16,1.82,0,.5,.14,.96,.78,.97,.25,0,.55-.03,.53,.35-.02,.38-.33,.31-.57,.32-.19,0-.39,0-.59,0-2.41-1.24-4.91-2.28-7.29-3.57-.54-.29-1.14-.46-1.7-.72-.47-.22-.75-.53-.26-1.02,1.87-.26,3.74-.42,5.53,.42Z"/>
    <path class="cls-16" d="M94.61,58.97c-.23,.46,.17,.53,.43,.62,2.7,.94,5.06,2.62,7.76,3.58,.43,.15,.81,.49,1.11,.86-.33,.06-.71-.12-1.01,.15-1.02,.08-1.96,.46-2.89,.86-.1-.23-.3-.33-.52-.42-2.49-1.6-4.94-3.28-7.51-4.75-.23-.13-.59-.16-.43-.57,.99-.37,1.98-.68,3.05-.34Z"/>
    <path class="cls-108" d="M94.61,58.97c-1.02,.11-2.05,.18-3.04,.51-.61,.53-1.39,.3-2.08,.47-.38,.08-.74,.21-1.1,.33-.13,.03-.26,.04-.39,.04-.22,0-.45,0-.53-.28,.02-.14,.1-.25,.2-.33,.51-.28,1.04-.49,1.61-.62,1.46-.37,2.93-.65,4.43-.81,1.93-.39,3.87-.29,5.79,.03,.73,.13,1.53-.16,2.2,.35-.34,.32-.8,.05-1.16,.33,.73,0,1.45,0,2.18,0-.83,.37-1.7,.07-2.54,.17-1.58-.33-3.18-.41-4.79-.34-.27,.01-.56-.08-.79,.16Z"/>
    <path class="cls-38" d="M101.7,58.65c-1.52,.09-3-.28-4.51-.34-1.2-.05-2.4,0-3.6,.16-.65-.24-1.07-.83-1.72-1.08-1.4-.53-2.75-1.12-4.01-1.99-.73-.51-1.69-.7-2.39-1.33-.28-.25-.67-.24-1.03-.32-.39-.08-.87-.02-1.06-.52,.03-.27,.26-.34,.45-.44,.97-.5,2.03-.79,3.02-1.25,.2-.09,.43-.12,.65-.01,.51-.11,1.01-.22,1.52-.34,1.56-.05,3.08,.06,4.4,1.02,.21,.15,.49,.11,.72,.18,2.67,.86,5.4,1.6,7.79,3.15,.57,.37,.95,1,1.53,1.4,.65,.45-.22,.88-.07,1.35-.56,.12-1.13,.24-1.69,.35Z"/>
    <path class="cls-93" d="M99.68,64.55c.32,.03,.52,.14,.33,.5-.11,.16-.64,.19-.16,.53-.23,.11-.46,.21-.69,.32-1.1,.41-2.18,.87-3.07,1.66-.23,.01-.28-.13-.28-.32,.58-.68,1.44-.91,2.18-1.35,.11-.11,.18-.25,.33-.31,.32-.12,.61-.29,.88-.5,.22-.13,.29-.39,.49-.53Z"/>
    <path class="cls-41" d="M87.51,51.54c-1.35,.57-2.77,.98-4.06,1.68-.07,.24-.27,.35-.47,.45-1.56,.79-3.17,1.41-4.89,1.76-.3,.06-.61,.07-.92,.01-.19-.06-.38-.14-.36-.37,.03-.35,.41-.15,.57-.32v-.02c.43-.41,1.01-.36,1.53-.48,.05,0,.11,0,.16-.02,2.22-.62,4.32-1.58,6.42-2.52,.65,.11,1.1-.43,1.69-.5,.21,0,.33,.11,.33,.33Z"/>
    <path class="cls-105" d="M83.97,86.5c-.11,.06-.22,.12-.33,.18-.55-.04-.94,.64-1.55,.34,.25-1.22,.24-1.16-1.1-1.51-2.16-.55-4.39-.64-6.54-1.16-1.68-.4-3.35-.67-5.07-.77-.37-.02-.72,.05-1.08,.13-.32,.08-.66,.21-.92-.14,.16-.4,.54-.43,.88-.55,1.72-.59,3.52-.55,5.3-.64,1.09-.06,2.17-.16,3.25-.26,1.01-.19,2.04-.26,3.04-.49,.57-.05,1.1-.32,1.66-.41,.54,.02,1.06-.03,1.53-.34,.08-.02,.16-.01,.24,.03,1.03,.21,1.94-.14,2.79-.66,.42-.26,.84-.21,1.36-.06-.44,.78-1.21,.97-1.91,1.24-.5,.2-1.04,.28-1.08,.99-.02,.38-.5,.29-.7,.52,.74,.49,1.04,1.3,1.64,1.88,.3,.29-.04,.51-.32,.59-.41,.12-.83,.07-1.24-.07-.19-.06-.49-.16-.59,.12-.09,.25,.18,.3,.36,.36,.35,.1,.39,.37,.38,.66Z"/>
    <path class="cls-84" d="M91.05,78.2c.86,.02,1.66-.44,2.54-.33,1.49,0,2.97,0,4.54,0-.2,.45-.46,.3-.65,.35-1.51,.03-3.02-.1-4.53,.16-.19,.03-.4,0-.54,.16-1.04,0-2.06,.11-3.04,.51-.79,.17-1.58,.35-2.36,.52-.15-.14-.42,.04-.54-.2,1.48-.56,3.03-.87,4.58-1.18Z"/>
    <path class="cls-113" d="M86.47,79.39c.19,.04,.41-.02,.54,.2-1.19,.61-2.54,.77-3.74,1.33-.05,0-.11,0-.15,.03-.45,.34-1,.35-1.51,.49-.58,.01-1.06,.49-1.68,.35-.18,.06-.42,.16-.51-.07-.09-.23,.23-.17,.32-.29,.33-.32,.94,0,1.19-.5,1.16-.22,2.19-.89,3.39-1,0,0,0,0,0,0,.72-.18,1.43-.37,2.15-.55Z"/>
    <path class="cls-77" d="M109.99,94.1c-1.48,.46-2.96,.47-4.64,.09,.43-.34,.69-.22,.92-.26,.91,.09,1.81-.12,2.71-.16,.26,.34,.75-.01,1.01,.33Z"/>
    <path class="cls-160" d="M109.99,94.1c-.29,0-.58,0-.88,0-.28,0-.19-.18-.13-.33,.28-.05,.6,.09,.85-.17,.94-.17,1.75-.78,2.81-.86-.61,1.03-1.73,.85-2.49,1.35-.05,0-.11,0-.16,0Z"/>
    <path class="cls-5" d="M102.05,94.25c-.76-.29-1.5-.18-2.21,.17-.18,.19-.39,.19-.61,.09,.09-.37-.32-.26-.43-.44,.3-.64,1.02-.31,1.51-.66-.6-.45-1.29-.66-1.93-.98-2.8-1.39-5.65-2.66-8.46-4.02-.61-.29-1.28-.42-1.91-.66-.21-.08-.6-.06-.43-.49,.51-.07,.98,.1,1.45,.24,.05,0,.11,0,.16,0,.47,.29,.98,.44,1.53,.5,1,.8,2.24,1.11,3.37,1.64,2.08,.98,4.22,1.85,6.32,2.8,.33,.15,.64,.33,.99,.44,.25,.08,.48,.35,.4,.45-.39,.48,.21,.6,.26,.9Z"/>
    <path class="cls-72" d="M87.52,87.33c1.31,.52,2.67,.91,3.94,1.55,1.89,.96,3.84,1.81,5.75,2.72,1.07,.51,2.13,1.04,3.19,1.58,.15,.08,.46,.04,.37,.34-.06,.22-.29,.22-.5,.24-.5,.04-.99,.1-1.45,.32-.33,.44-.79,.48-1.28,.44-1.46-.36-2.71-1.19-4.02-1.85-1.75-.88-3.38-1.98-5.19-2.74-.75-.31-1.44-.78-2.25-.9-.95-.15-1.41-.96-2.1-1.46-.06-.07-.06-.15,0-.23,1.16-.4,2.34-.24,3.52-.16,.07,.02,.1,.05,.08,.09-.01,.04-.03,.06-.05,.06Z"/>
    <path class="cls-45" d="M83.97,87.34c0,.05,0,.11,0,.16-.54,.4-1.19,.26-1.79,.35-1.1,.15-1.88,.67-2.45,1.59-.14,.22-.24,.61-.59,.45-.35-.16-.24-.53-.13-.83,.25-.71,.67-1.3,1.35-1.67,.58-.17,1.07-.72,1.76-.39,.54,.05,.96-.47,1.53-.33-.23,.28-.71,.17-.94,.67h1.27Z"/>
    <path class="cls-44" d="M87.52,87.33c-.01-.05-.02-.1-.03-.15,.54-.03,1.08-.04,1.55,.32-.5-.06-1.01-.12-1.51-.17Z"/>
    <path class="cls-83" d="M70.96,99.33c.14,.36,.42,.29,.6,.1,.57-.58,1.41-.7,1.99-1.25,.24-.23,.5-.3,.71,.02,.21,.32-.09,.48-.3,.57-.98,.41-1.81,.98-2.36,1.96,.86,.48,1.74-.37,2.69,0-.31-.87,.19-1.02,.84-.88,.38,.09,.63,.04,.88-.25,.47-.52,1-.56,1.55-.12-.63,.49-1.49,.7-1.86,1.52-.11,.3-.43,.34-.62,.54-.19,.2-.28,.43-.17,.69,.13,.29,.35,.27,.64,.21,1.43-.34,2.87-.64,4.3-1,.75-.19,1.3-.87,2.12-.91,.08,0,.18-.14,.23-.23,.5-.85,.88-.9,1.65-.19,.88,.81,1.88,1.03,3,.55-.01,.86,.75,1.26,1.14,1.89,.26,.42,.6,.8,.87,1.22,.07,.12,.17,.31,.03,.47-.14,.17-.32,.09-.46,0-.84-.49-1.82-.73-2.49-1.49-.05-.06-.13-.17-.18-.16-1.12,.07-1.98-.95-3.01-.87-1.25,.09-2.52,.11-3.76,.55-1.06,.38-2.13,.83-3.29,.92-.19,0-.38,.03-.51-.17-.09-.07-.24-.1-.28-.18-.43-.94-1.07-.54-1.75-.35-1.5,.43-2.94,.05-4.35-.49-.2-.07-.33-.22-.33-.44,0-.26,.15-.41,.37-.51,.05-.02,.11-.06,.16-.05,1.03,.09,1.57-.36,1.6-1.41,0-.15,.12-.32,.35-.28Z"/>
    <path class="cls-68" d="M70.96,99.33c-.25,.23-.3,.6-.27,.85,.14,.94-.38,1.04-1.09,1.02-.25,0-.5,.02-.75,.07-.14,.03-.22,.17-.23,.32,0,.17,.11,.23,.25,.28,1.46,.49,2.92,.92,4.47,.37,.59-.21,1.25,.04,1.64,.54,.07,.09,.13,.18,.19,.27-.57-.17-.99,.3-1.52,.34-.83,.07-1.61-.17-2.38-.39-.94-.27-1.88-.53-2.85-.64-.13-.01-.35-.08-.36-.15-.15-1.16-1.55-.88-1.97-1.72-.03-.06-.14-.08-.21-.12-.2-.12-.54,.31-.63-.09-.08-.35,.28-.5,.54-.66,.64-.38,.74-1.17,1.26-1.64,.06,.45-.24,.8-.37,1.19-.17,.53,.05,.7,.51,.65,.42-.04,.83-.15,1.13-.49,.24-.29,.49-.58-.15-.67-.2-.03-.43-.02-.4-.31,.03-.28,.26-.53,.49-.5,.58,.09,1.25-.56,1.77,.2,.1,.15,.3,.05,.45-.05,.17-.11,.3-.44,.54-.23,.17,.15,.09,.43,.06,.65-.04,.3-.1,.6-.15,.91Z"/>
    <path class="cls-53" d="M76.87,68.93c-.81,.06-1.62,.16-2.37,.5-.05,0-.1,.01-.16,.01-.33,.15-.43,0-.41-.31,.14-.23,.3-.37,.58-.2,1.15-.53,2.45-.51,3.75-.9-.45-.47-1.03-.11-1.38-.45,1.01-.52,1.78,.29,2.66,.49,.16,.04,.33,.23,.52,.18,1.1-.3,1.96,.34,2.9,.69-1.74,.01-3.46-.29-5.2-.17-.3,.02-.62-.1-.88,.16Z"/>
    <path class="cls-128" d="M62.17,61.85c1.02-.27,2.1-.32,3.04-.85,.06-.07,.14-.12,.23-.16,.46-.08,.92-.13,1.37,.06,.03,.03,.06,.07,.1,.1-.39,.68-.97,.94-1.75,.85-.63-.08-1.23,.02-1.62,.62-.24,.36-.46,.13-.7-.02-.26-.17-.53-.31-.67-.61Z"/>
    <path class="cls-128" d="M71.63,60.83c-1.19,.1-2.39,.11-3.45,.78-.28,.18-.55,.22-.6-.22-.05-.48-.39-.38-.68-.39,0,0,0,0,0,0,.02-.4,.35-.35,.6-.39,.32-.06,.63-.18,.93-.28,1.1-.44,2.13-.14,3.16,.26,.08,.07,.1,.15,.05,.25Z"/>
    <path class="cls-128" d="M74.17,61c-.24,.28-.56,.13-.84,.17-.26-.35-.76,.01-1.03-.33,.43-.37,.92-.22,1.4-.17,.19,.06,.36,.15,.47,.34Z"/>
    <path class="cls-31" d="M73.83,60.84c-.51,0-1.02,0-1.53,0-.22,0-.44,0-.67,0,0-.06,0-.11,0-.17,.73-.37,1.46-.39,2.19,.02,0,.05,0,.1,0,.15Z"/>
    <path class="cls-22" d="M87.68,59.82c-.05,.06-.1,.12-.15,.17-.3,.27-.63,.42-1.01,.16-.78-.55-1.76-.43-2.62-.75-1.25-.47-2.57-.64-3.93-.45-1.26,.17-2.46-.45-3.71-.56-1.24-.11-2.44-.44-3.7-.51-.86-.04-1.69-.56-2.61-.45,.15-.54,.69-.44,1.04-.65,1.24-.43,2.45-.97,3.74-1.24,2.51-.2,4.82,.7,7.17,1.3,1.8,.46,3.5,1.23,5.27,1.78,.85,.27,.91,.51,.52,1.19Z"/>
    <path class="cls-109" d="M98.32,65.73c-.11,.05-.23,.1-.34,.15-.02-.15-.07-.29-.23-.31-1.2-.14-2.24-.82-3.42-1.03-.16-.03-.33-.07-.46-.16-1.7-1.22-3.39-2.45-5.07-3.7-.36-.27-.75-.14-1.13-.19-.07-.31,.27-.18,.35-.33,.11,0,.22,0,.32,0,.9-.28,1.63-.2,2.33,.59,.53,.59,1.44,.7,2.13,1.14,1.61,1.02,3.3,1.91,5.02,2.73,.39,.19,1.06,.43,.5,1.12Z"/>
    <path class="cls-98" d="M83.3,61.85c-1.6-.37-3.2-.74-4.81-1.11-.19-.04-.39-.06-.58-.08-.63,.06-1.24-.05-1.85-.18-3.41-.54-6.86-.55-10.3-.57-.53,0-1.07,.07-1.58-.11-.2-.4-.19-.4,.53-.58,.44,.06,.86-.3,1.31-.09,.26,.31,.59,.34,.98,.36,1.42,.07,2.84-.05,4.27-.03,2.14,.03,4.27,.2,6.33,.61,1.75,.35,3.52,.73,5.22,1.32,.22,.08,.36,.26,.47,.46Z"/>
    <path class="cls-55" d="M66.02,59.13c-.38,.02-.7,.4-1.12,.17-.11-.38,.22-.47,.44-.61,.59-.37,1.22-.68,1.84-1.01,.18-.09,.37-.17,.57-.24,.94-.28,1.8-.78,2.79-.9,.04,.25,.31,.27,.44,.44-.35,.16-.69,.32-1.04,.47-1.41,.31-2.71,.88-3.91,1.69Z"/>
    <path class="cls-71" d="M88.02,60.16c-.12,.11-.23,.22-.35,.33-1.11,.03-2,.76-3.19,1.06,.53-.86,1.41-.93,2.03-1.39,.34-.05,.68-.11,1.01-.16,.12,.19,.32,.13,.5,.16Z"/>
    <path class="cls-31" d="M76.21,60.32c.59,.01,1.16,.11,1.7,.33-.22,.8-.69,.9-1.47,.73-.74-.17-1.53-.17-2.27-.37-.14,0-.26-.03-.34-.16,0,0,0,0,0,0,.7-.61,1.52-.67,2.38-.51Z"/>
    <path class="cls-167" d="M74.5,68.94l-.49,.18c-.12,.09-.26,.13-.41,.12-2.28-.06-4.56-.13-6.85-.06-.41,.01-.85,.09-1.2-.24-.85,0-1.69,0-2.54,0,.84-.43,1.77-.46,2.67-.49,1.88-.06,3.75-.03,5.63,0,.93,.01,1.86,.11,2.79,.16,.23,.01,.37,.09,.39,.34Z"/>
    <path class="cls-167" d="M63.01,68.94c-.68,.57-1.54,.4-2.32,.55-1.7,.32-3.36,.86-5.12,.8,.78-.56,1.71-.63,2.6-.81,1.33-.26,2.71-.28,4.03-.69,.28-.09,.55,0,.81,.14Z"/>
    <path class="cls-96" d="M46.96,84.59c-.6-.18-1.11-.1-1.72,.17-.97,.44-2.08,.55-3.1,.9-.68,.23-1.42,.39-2.01,.83-.37,.28-.54,.07-.75-.17-.13-.76,.6-1.01,.9-1.52,.34-.31,.73-.49,1.19-.54,.82,.15,1.56-.05,2.36-.3,.97-.3,1.99-.54,3.03-.47,.35,.02,.65-.16,.98-.21,.36-.05,.73-.12,1.01,.21-.46,.66-1.12,.97-1.88,1.1Z"/>
    <path class="cls-51" d="M46.96,84.59c.59-.38,1.18-.76,1.86-.98,.21-.26,.48-.36,.8-.23,.19-.04-.22,.48,.23,.24,.26-.14,.56-.24,.83,.03-.05,.45-.43,.45-.74,.53-.74,.19-1.46,.4-2.15,.74-.14,.09-.29,.16-.44,.23q-.69,.26-.73-.18c.11-.13,.23-.26,.34-.38Z"/>
    <path class="cls-30" d="M46.62,84.97c.22,.61,.45-.22,.67,0-.39,.99-.72,2.01-1.02,3.03,0,0,0-.01,0-.01-.26-.02-.32-.18-.32-.4,.02-.93,.24-1.8,.67-2.62Z"/>
    <path class="cls-4" d="M38.52,89.04c-.29-.03-.43-.26-.3-.46,.41-.64,.35-1.41,.64-2.08,.14,.08,.19,.24,.31,.33-.23,.73,.06,1.62-.65,2.21Z"/>
    <path class="cls-169" d="M39.16,86.83c-.43,.2-.26-.18-.31-.33,.06-.17,.12-.34,.17-.51,.2-.27-.03-.76,.45-.89,.14-.23,.05,.5,.27,.06,.11-.22,.32-.38,.6-.2-.24,.52-.85,.77-.97,1.36-.07,.17-.14,.33-.22,.5Z"/>
    <path class="cls-110" d="M65.55,68.94c1.47-.12,2.93,.06,4.42-.15,.69-.1,1.61-.04,2.35,.22,.48,.17,.94-.35,1.35,.1,.04,.31-.21,.37-.41,.43-.76,.22-1.43,.76-2.28,.63-.11-.33,.05-.41,.16-.41-1.65,.35-3.55,.02-5.36,.47-1.55,.38-3.2,.63-4.35,1.99-.35,.42-1.09,.54-.92,1.32-.38,.37-.86,.45-1.35,.52-2.06,.4-4.03,1.1-5.98,1.83-.28,.11-.54,.3-.87,.23-.7-.45-1.34-1.16-2.27-.43-.21,.17-.44,.06-.62-.08-.42-.33-.79-.22-1.23,0-.64,.31-1.3,.64-2.05,.43,1.71-1.4,3.49-2.65,5.59-3.43,1.89-.7,3.88-1.02,5.8-1.59,.84-.25,1.57-.7,2.42-.91,1.73-.43,3.5-.67,5.25-.99,.13-.02,.24-.11,.37-.17Z"/>
    <path class="cls-4" d="M46.12,76.04c.81-.26,1.71-.28,2.4-.87,.04-.03,.1-.05,.15-.07,.54-.28,.88,1,1.63,.1,.43-.51,1.17,.34,1.83,.36,.32,.01,.12,.28,.05,.45-.15,.24-.43,.31-.62,.5-2.1,.98-3.93,2.34-5.52,4.03-1.56,1.26-2.94,2.76-4.92,3.42-.65,.22-.98,.9-1.59,1.19-.33,.18-.24,.62-.51,.84-.04-.18,.06-.38-.11-.58-.3,.48-.6,.95-.9,1.43,.06-.5,.24-.95,.4-1.42,.33-.99,.54-2.01,.77-3.03,.24-1.07,.65-2.03,1.48-2.78,.16-.15,.26-.36,.39-.54,.24-.62,.86-.63,1.35-.84,1.31-.62,2.55-1.34,3.72-2.19Z"/>
    <path class="cls-42" d="M42.4,78.23c-.36,.43-.94,.5-1.35,.84-.44-.02-.82,.22-1.23,.32,.76-1.5,1.8-2.79,3.1-3.87,.6-.18,1.21-.35,1.8-.55,.18-.06,.32-.1,.44,.06,.12,.15,.06,.29,0,.46-.35,.82-1.04,1.26-1.78,1.64-.4,.21-.77,.45-1.11,.74-.29,.25-.09,.3,.13,.35Z"/>
    <path class="cls-138" d="M55.56,57.44c.22-.28,.45-.56,.67-.84,.41-.62,1.18-.6,1.71-1.01,.61-.25,1.28-.31,1.85-.67,0,0,0,0,0,0,1.77,.37,3.5-.24,5.26-.22,1.3,.02,2.63-.21,3.93-.09,1.6,.15,3.2-.06,4.79,.15,.33,.04,.75,0,.87,.47-.65,.52-1.34,.9-2.21,.69,.07-.52-.11-.66-.68-.73-1.13-.13-2.16,.32-3.25,.35-1.46,.04-2.93,.12-4.34,.43-1.65,.37-3.34,.37-4.98,.81-.95,.26-1.98,.22-2.87,.79-.23,.15-.55,.12-.77-.13Z"/>
    <path class="cls-61" d="M72.48,55.93c.73-.23,1.45-.46,2.18-.7,.93-.05,1.77-.57,2.72-.48,.08,.22-.9,.08-.17,.51,.05,.1,.03,.18-.06,.24-.81,.24-1.67,.08-2.48,.25-1.23,.4-2.46,.81-3.7,1.21-.16-.07-.57,.12-.35-.34,.53-.46,1.12-.78,1.86-.7Z"/>
    <path class="cls-13" d="M78.91,54.26c-.51,.16-1.02,.32-1.53,.48,.35-.67,.98-.46,1.53-.48Z"/>
    <path class="cls-168" d="M59.8,54.92c-.53,.46-1.17,.63-1.85,.67,.53-.47,1.23-.46,1.85-.67Z"/>
    <path class="cls-43" d="M76.21,60.32c-.86-.13-1.57,.41-2.38,.51-.71-.35-1.47-.08-2.2-.16-.46,.03-.89-.07-1.31-.23-.64-.25-1.27-.01-1.9,.06-1,.24-2.02,.4-3.04,.5h-.08s-.08,0-.08,0c-1.94,.08-3.92-.26-5.8,.37-1.07,.36-2.01,.14-3.01-.12-1.01-.26-2,.03-3,.09,0-.43,.4-.33,.61-.46,.08-.03,.17-.05,.25-.06,.96,.02,1.84-.35,2.76-.51,1.98-.49,4.02-.59,6.04-.86,.33-.04,.67-.05,.94,.22,1.12,0,2.24,0,3.36,.03,2.8,.05,5.6,.01,8.37,.48,.16,.03,.31,.1,.47,.15Z"/>
    <path class="cls-100" d="M54.06,61.01c-.15,.24-.52,.06-.66,.33-1.05,.06-2.03,.5-3.09,.52,.39-.76,1.13-.42,1.73-.55,.63-.41,1.25-.82,2.02-.3Z"/>
    <path class="cls-143" d="M54.06,61.01c-.72-.25-1.33,.31-2.02,.3,0-.04,0-.09,0-.13,.64-1.06,1.46-1.94,2.51-2.6,2.74-.26,5.37-1.18,8.12-1.38,1.12-.08,2.24-.16,3.36-.19,.62-.01,1.29-.04,1.69,.6-.16,.06-.33,.12-.49,.19-1.52,.59-3.1,.97-4.61,1.56-.22,.09-.43,.1-.66,.07-1.08-.16-2.07,.01-3.07,.5-.85,.41-1.79,.42-2.69-.09-.03-.07-.09,.05-.08,.06,.3,.22,.26,.44-.04,.64-.66,.21-1.35,.28-2.02,.46h0Z"/>
    <path class="cls-64" d="M54.4,58.8c-.97,.61-1.42,1.73-2.36,2.37-.38-.53,.09-.89,.33-1.22,.32-.44,.78-.77,1.18-1.15,.03,.24,.12,.27,.31,.11,.28-.23,.47-.57,.86-.65,.15,.34-.18,.38-.33,.53Z"/>
    <path class="cls-146" d="M54.4,58.8c.11-.18,.22-.35,.33-.53,.28-.28,.56-.55,.84-.83,.4,.03,.75-.03,1.11-.25,.58-.35,1.16-.63,1.96-.5,.68,.11,1.41-.46,2.18-.45,1.39,.03,2.76-.31,4.08-.57,1.81-.36,3.69-.02,5.45-.71,.63-.24,1.4-.06,2.06,0,.9,.09,.18,.61,.07,.96-.62,.23-1.24,.47-1.86,.7-.96,.33-1.93,.65-2.89,.98-1.33-.63-2.73-.34-4.09-.25-1.5,.1-2.98,.42-4.47,.59-.48,.06-.94,.2-1.37,.37-1.1,.41-2.28,.19-3.39,.49Z"/>
    <path class="cls-18" d="M47.64,84.79c.67-.46,1.47-.59,2.23-.81,.29-.08,.6-.08,.82-.34,.03-.03,.06-.07,.09-.1,.71-.12,1.33-.65,2.1-.43,.68,.48,1.34,0,1.97-.12,.39-.07,.8-.18,1.19-.28,1.62-.41,3.24,.12,4.84-.11,2.18-.32,4.36,.21,6.53-.06,.21-.02,.38,.06,.51,.23-.64,.72-1.51,.95-2.41,1.1-.5-.08-.89,.31-1.37,.34-1.59,.09-3.18,.17-4.77,.04-.25-.02-.51-.12-.75-.02-.73,.31-1.48,.27-2.24,.14-.93-.16-1.8-.03-2.71,.28-1.35,.46-2.78,.71-4.2,.87-.73,.08-1.42,.01-1.82-.73Z"/>
    <path class="cls-123" d="M61.64,78.2c.31,.98,1.09,.88,1.87,.88,.85,0,1.65,.27,2.4,.68,.25,.13,.52,.31,.45,.64-.07,.34-.33,.49-.67,.53-1.74,.22-3.48,.46-5.22,.66-.44,.05-.89,.03-1.34-.06-1.11-.22-2.16-.15-3.2,.46-.58,.35-1.24,.89-2.05,.49,.71-.89,1.74-1.27,2.72-1.74,.56-.02,1.12-.01,1.63-.33,.22-.14,.47-.15,.73-.06,1.56,.54,1.97,.21,3.42-.35-.29-.28-.65-.14-.94-.24-.54-.18-1.2-.22-1.2-1.03,.37-.42,.77-.77,1.39-.52Z"/>
    <path class="cls-149" d="M61.64,78.2c-.51,.01-.89,.33-1.32,.54-1.11,.96-2.44,1.55-3.75,2.17-.89,.52-1.79,1.04-2.68,1.56-.22,.1-.45,.21-.67,.31-.82,.36-1.65,.66-2.53,.85,0,0,0,0,0,0-.36,.05-.73,.18-1.06,.12-.35-.06,.1-.17,.05-.28,.1-.23,.3-.34,.51-.41,1.5-.55,2.9-1.32,4.35-1.98,1.08-.42,2.01-1.1,2.97-1.73,1.21-.79,2.51-1.36,3.83-1.9,.46-.19,.93-.16,1.41-.16,.21,.08,.57-.2,.62,.26-.06,.06-.13,.12-.19,.18-.49,.19-1.01,.32-1.52,.46h-.02Z"/>
    <path class="cls-112" d="M65.54,83.77c.79-.33,1.58-.66,2.37-1,2.36-.63,4.82-.43,7.2-.91,.59-.12,1.17-.09,1.75-.09-.03,.38-.34,.31-.57,.32-.42,.02-.84,0-1.25,.1,.61-.07,1.21-.25,1.81,.07-1.06,.27-2.14,.32-3.22,.35-2.02,.06-4.04,.09-5.96,.84-.1,.04-.19,.1-.29,.16-.07,.16-.2,.25-.34,.34-1.25,.55-2.52,1.06-3.66,1.83-.38,.07-.64,.8-1.14,.22,.31-1,1.29-1.24,2.02-1.74,.35-.24,.71-.67,1.26-.5Z"/>
    <path class="cls-86" d="M76.86,82.27h-2.06c.66-.52,1.45-.14,2.07-.49,.98,.1,1.89-.43,2.87-.35-.06,.09-.12,.17-.19,.26,.13,.03,.25,.06,.38,.1-.99,.38-2.04,.36-3.07,.49Z"/>
    <path class="cls-135" d="M63.37,77.56c-.18-.25-.47-.13-.7-.19-.05-.04-.06-.08-.04-.11,.02-.03,.04-.05,.06-.05,1.18-.17,2.35-.35,3.53-.52,.3,.08,.65-.1,.96,.18-.38,.37-.94-.04-1.28,.34-.84,.12-1.68,.24-2.52,.36Z"/>
    <path class="cls-147" d="M84.32,79.93c-1.1,.43-2.18,.94-3.39,1,1.11-.41,2.09-1.23,3.39-1Z"/>
    <path class="cls-51" d="M50.69,83.64c.82-.35,1.65-.66,2.53-.85-.11,.11-.23,.22-.34,.32-.73,.15-1.4,.6-2.19,.52Z"/>
    <path class="cls-123" d="M61.66,78.2c.45-.33,.95-.5,1.52-.46-.39,.54-.95,.53-1.52,.46Z"/>
    <path class="cls-141" d="M62.69,77.22c0,.05-.01,.1-.02,.15-1.75,.3-3.28,1.09-4.78,1.99-1.1,.65-2.06,1.54-3.32,1.91-.02-.18-.06-.27-.3-.21-.4,.11-.82,.14-1.23,.26-.44,.11-.87,.2-1.33,.13-.36-.05-.64-.22-.77-.56-.12-.33,.07-.51,.33-.67,.36-.21,.12-.41-.05-.6-.35-.41-.87-.8,.12-1.11,.39-.12,.3-.49,.08-.76-.15-.18-.41-.17-.58-.33,.03-.75,.76-.74,1.18-1.06,1.47-.52,2.89-1.18,4.4-1.61,1.24-.35,2.51-.55,3.74-.93,.77-.28,1.6-.3,2.39-.5,.22-.06,.45,0,.62,.17-.05,.42-.38,.31-.65,.34-.21,.03-.51-.11-.6,.14-.1,.3,.27,.27,.41,.4,.28,.25,.51,.56,.76,.85-.26,.2-.42,.01-.6-.02-.17-.03-.34-.04-.46,.11-.15,.18-.29,.51-.09,.59,.65,.25-.28,1.31,.72,1.31Z"/>
    <path class="cls-157" d="M63.18,73.5l-3.03,.51c-.35,0-.76,.37-1.02-.17,.48,0,.89-.26,1.34-.38,.88-.61,1.95-.64,2.93-.91,2.31-.66,4.58-1.44,6.83-2.26,.61,.1,.63,.12,.37,.5-2.36,1.22-4.88,2-7.43,2.72Z"/>
    <path class="cls-91" d="M70.61,70.78c.2-.43-.17-.27-.33-.32,.07-.41,.36-.41,.68-.35,.94-.24,1.84-.57,2.71-1,.12,0,.23,0,.35,0,0,.23,.13,.31,.33,.33-.67,.45-1.57,.3-2.2,.84-.56,0-.96,.52-1.53,.49Z"/>
    <path class="cls-148" d="M40.21,92.75c.59-.32,.94-.9,1.55-1.25,1.19-.69,2.49-.54,3.74-.76,.42-.07,.72-.07,.51-.63-.13-.33,.1-.53,.44-.56,1.61-.13,3.18-.49,4.76-.83,.4-.09,.82,.01,1.23,.16,1.15,.41,2.33,.59,3.49,0,.52-.39,1.04-.2,1.51,.05,1.06,.56,2.24,.74,3.34,1.18,.24,.1,.5,.09,.75,.02,.93-.26,1.72,.07,2.45,.59,.78,.55,1.37,.5,1.92-.28,.33-.47,.76-.5,1.18-.31,.69,.32,1.41,.39,2.14,.34,1.65-.11,3.11,.67,4.66,1.01,.9,.19,1.79,.1,2.67,.28,1.46,.49,3.04,.3,4.5,.8,.27,.07,.55,.13,.73,.37l.17,.34c-.33,.32-.74,.24-1.12,.15-1.38-.33-2.8-.17-4.18-.46-.29-.06-.58-.07-.6,.35-.03,.62-.47,.76-.98,.84-.35,.05-.74,.02-1.04,.38,.31,.22,.6,.07,.87,0,.79-.23,1.41,0,1.81,.68,.46,.8,1.1,1.1,2.02,1.05,.9-.05,1.02,.1,.98,1.02-.03,.62,.32,.72,.79,.68,1.1-.08,2.19-.22,3.17-.76,.69-.38,1.31-.43,1.97,.04,.57,.41,1.22,.36,1.87,.31,.42-.03,.88-.09,.93,.54-.33,.15-.68,.18-.95,.52-.31,.39-.79,0-1.27,.02,.02,.39,.16,.89-.4,1.01-.54,.11-1.11,.04-1.53-.3-.43-.35,0-.62,.23-.89,.14-.16,.58-.19,.34-.53-.16-.23-.47-.13-.7,0-.77,.41-1.63,.57-2.43,.93-.92,.41-1.78-.18-2.64-.47-.22-.07-.23-.39-.2-.61,.06-.56-.2-.67-.69-.6-.42,.06-.83-.13-1.25-.14-.49-.02-.87-.07-.71-.78,.12-.54-.42-1-1-.97-.31,.01-.61,.11-.91,.15-.59,.09-1.14-.03-1.5-.55-.51-.74-1.19-.84-2-.68-.63,.13-1.22,.37-1.88,.44-.94,.1-1.81-.39-2.75-.21-.23,.04-.41-.17-.51-.38-.18-.4-.45-.46-.82-.27-.5,.39-1,.79-1.51,1.17-.21,.15-.56,.26-.62-.09-.21-1.28-1.12-.7-1.74-.62-.39,.05-.81,.18-1.21,.3-.27,.09-.58,.18-.8-.02-.31-.27,.23-.46,.13-.74,.39-.26,.69-.59,.86-1.09-.56,.22-1.11,.44-1.67,.65-.85,.32-1.63,.76-2.64,.33-.76-.32-1.44,.14-1.85,.93-.11,.21-.11,.51-.44,.56-.96,.14-1.9,.61-2.88,.45-.73-.12-1.45-.13-2.18-.14-1.29-.01-2.57-.02-3.57-1.05-.25-.26-.51,.1-.77,.15-.51,.1-1.13,.63-1.36-.39-.06-.29-.38-.21-.65-.12-1.06,.37-1.77-.15-1.78-1.29Z"/>
    <path class="cls-89" d="M64.87,93.76c.45-.28,.87-.48,1.05,.28,.04,.16,.2,.26,.32,.21,.78-.37,1.46,.14,2.19,.2,.76,.06,1.42-.26,2.12-.42,1-.23,1.91-.32,2.51,.82,.26,.49,.81,.46,1.35,.33,.63-.14,1.32-.5,1.86,.35,.3,.46,.47,.77-.17,1.3,1.07-.19,1.85,.34,2.71,.03,.35-.13,.45,.11,.34,.42-.29,.8,.07,1.08,.82,1.34,1.5,.52,2.65-.29,3.89-.82,.33-.14,.59-.45,1-.22,.23,.12,.5,.23,.54,.49,.05,.32-.33,.22-.48,.35-.17,.14-.36,.26-.53,.4-.1,.09-.21,.2-.1,.36,.14,.21,1.49,.37,1.68,.2,.3-.27,.04-.44-.11-.62-.27-.33-.1-.51,.23-.43,.67,.16,1.3,.37,1.82-.32,.03-.04,.3,.08,.46,.13,.36-.06,.47,.26,.64,.44,.96,.99,2.03,1.84,3.17,2.61,.55,.37,1.14,.65,1.76,.12,.35,.01,.31,.34,.44,.54,.14,.22,.33,.43,.61,.31,.25-.1,.06-.34,.05-.52-.01-.11,0-.22,.06-.32,.48-.19,.78,.04,1.07,.4,.39,.48,.87,.84,1.51,1.02,.05-.35-.48-.37-.35-.71,.56-.09,.95,.26,1.38,.51,.26,.14,.56,.21,.97,.35-.42-1.15,.19-.84,.7-.67,.65,.21,1.01,.79,1.48,1.22,.08,.07,.15,.18,.06,.29-.1,.12-.26,.19-.37,.11-1.14-.8-2.48-.02-3.66-.46-.05-.02-.12-.02-.17,0-1.72,.51-3.1-.56-4.61-1.02-.44-.02-.66-.4-.98-.61-.47-.3-.82-.77-1.48-.35-.14,.09-.47-.11-.7-.2-.42-.17-.81-.39-1.23-.54-1-.36-1.02-.37-.38-1.19,.4-.51-.08-.74-.25-1.2-.24,.53-.39,.97-.62,1.36-.35,.58-.81,.99-1.57,.69-.47-.18-.95-.33-1.43-.48-.47-.15-.73-.42-.58-.94,.15-.51-.07-.62-.52-.52-.22,.05-.48,.05-.64,.17-1.07,.81-2.15,.52-3.26,.11-.22-.08-.49-.11-.56-.32-.35-1.12-1.31-.96-2.14-1.03-.63-.06-1.27-.01-2.03-.01,.34-.45,.6-.8,.87-1.15,.08-.11,.24-.19,.15-.35-.09-.18-.27-.21-.44-.14-.79,.33-1.53,.02-2.19-.29-1.23-.56-2.23-.05-3.26,.45-.12,.06-.21,.2-.33,.26-.21,.1-.47,.36-.67,.07-.18-.26,.1-.45,.29-.62,.2-.17,.63-.24,.5-.56-.14-.34-.54-.22-.83-.12-.47,.16-.96,.13-1.42,.08-.65-.07-1.27-.16-1.84,.27-.17,.13-.38,.1-.53-.07-.18-.21,.02-.34,.1-.52,.14-.33,.67-.79-.23-.84Z"/>
    <path class="cls-68" d="M75.69,101.02c-.13-.73,.51-.9,.92-1.2,.26-.19,.62-.22,.94-.32,.57-.09,1.15-.17,1.72-.27,.25-.05,.49-.07,.55,.2,.06,.3-.25,.37-.44,.38-1.34,.09-2.52,.63-3.69,1.21Z"/>
    <path class="cls-81" d="M63.34,85.64c1.11-.88,2.42-1.37,3.73-1.84,2.75,.18,5.46,.59,8.04,1.59,1.5,.58,3.12,.71,4.61,1.33,.36,.15,.89,.16,.7,.8-.71,.59-1.32,1.24-1.25,2.27,.32-.27,.43-.67,.68-.99,.83-1.04,2-1.15,3.18-1.26,.31-.03,.62-.02,.93-.03,.3,.02,.58-.04,.73,.38,.16,.44,.56,.71,1.02,.8,1.4,.26,2.57,1.06,3.84,1.63,2.22,.98,4.22,2.36,6.38,3.44,.4,.2,.82,.37,1.28,.35,.24-.01,.4,.02,.27,.32-.09,.36-.41,.44-.68,.58-.38,.2-.74,.41-.9,.78,.94-.74,2-1.31,3.29-1.35,.22,0,.44,0,.65,0,.46,.2,.99,.3,1.08,.92,.01,.07,.1,.17,.16,.18,1.06,.17,1.7,1.01,2.54,1.54,1.56,.98,3.26,1.67,4.94,2.4,.58,.25,.7,.78,.73,1.32,.02,.42,.07,.83,.18,1.24-.59-.01-.53-.53-.58-.87-.1-.65-.47-.91-1.05-1.14-1.09-.43-2.22-.52-3.35-.62-.28-.02-.69-.01-.43,.51,.3,.62-.31,.49-.43,.38-.58-.55-1.08-.12-1.6,.06-1.01-.19-1.76-.88-2.63-1.35-.46-.25-.92-.5-1.41-.68-.89-.12-1.57-.7-2.34-1.08-2.79-1.36-5.5-2.89-8.41-3.97-2.55-.94-5.1-1.87-7.74-2.55-2.65-.69-5.32-1.31-8.03-1.73-.48-.07-.94-.11-1.41,.03-.35,.04-.72,.12-.99-.21-.16-.07,.34-.28-.05-.27-.36,.01-.71,.02-1.07-.08-1.05-.32-2.13-.41-3.22-.39-.55,0-1.06-.08-1.44-.52-.13-.65-.56-1.3,.05-1.93Z"/>
    <path class="cls-116" d="M70.08,88.85c1.02-.41,1.99,.05,2.95,.21,1.92,.33,3.83,.68,5.71,1.18,2,.53,3.96,1.21,5.92,1.86,4.3,1.43,8.29,3.57,12.31,5.62,.35,.18,.68,.4,1.01,.6-.07,.13-.2,.15-.33,.16-2.91-1.41-5.72-3-8.69-4.28-1.1-.47-2.2-.97-3.36-1.28-1.41-.23-2.7-.85-4.07-1.21-1.42-.38-2.8-.88-4.28-1.02-.29-.03-.6-.12-.86-.29-1.74-.58-3.57-.75-5.35-1.14-.35-.08-.74-.06-.96-.42Z"/>
    <path class="cls-125" d="M81.6,91.54c1.37,.35,2.74,.74,4.01,1.38-.3,.09-.32,.19-.02,.33,.45,.21,.89,.43,1.3,.76-.68-.37-1.39-.25-2.08-.26,0,0,0,0,0,0-.36-.22-.75-.35-1.18-.34-.48,.02-.86-.18-1.19-.5-.17,0-.33,0-.5,0-.57-.34-.55-.83-.34-1.37Z"/>
    <path class="cls-79" d="M97.31,102.03s.03,.05,.05,.07c.23,.28,.98,.3,.7,.75-.31,.51-.77-.06-1.16-.19-.73-.25-.92-1.24-1.79-1.31-.86-.14-1.29-.87-1.84-1.32,.25,.37,.76,.69,.66,1.32-.1,.63-.53,.53-.96,.44-.81-.16-1.39-.73-2-1.19-.95-.73-1.89-1.48-2.62-2.46-.1-.43-.37-.48-.76-.4-.82,.16-1.61,.14-2.3-.45-.42-.35-.84-.3-1.31-.02-1.16,.7-2.47,.85-3.79,.92-.74,.04-.96-.35-.73-1,.25-.69-.11-.82-.65-.74-1.07,.17-1.84-.18-2.33-1.16-.33-.66-.85-.85-1.54-.56-.08,.03-.17,.02-.25,.04-.4,.1-.97,.39-1.1-.13-.14-.57,.56-.57,.95-.71,.23-.08,.51,0,.75-.06,.36-.07,.66-.26,.51-.69-.22-.63,.03-.63,.56-.56,1.85,.23,3.71,.41,5.57,.6,1.11,1.02,2.66,1.05,3.93,1.83,1.18,.73,2.58,1.24,3.9,1.83,.39,.17,.7,.44,1.03,.7,.33,.26,.65,.73,1.21,.27,.32-.25,.56,.32,.9,.27,.16,.55,.64,.74,1.1,.77,1.56,.12,2.57,1.19,3.74,2,.08,.05,.14,.18,.14,.27,0,.14-.15,.14-.26,.15-.08,.01-.17,0-.25,0-.25,0-.6-.05-.65,.24-.07,.38,.32,.37,.58,.44Z"/>
    <path class="cls-102" d="M81.6,91.54c.04,.48,.09,.95,.34,1.37-.06,0-.12,0-.17,0-.25,.02-.46-.05-.67-.17-.81-.44-1.7-.43-2.58-.51-.34-.03-.72,.06-.99-.25,.46-.53,1.11-.17,1.7-.35-1.03-.2-1.93-.67-2.91-.89-.22-.05-.51-.19-.44-.42,.09-.31,.39-.19,.62-.09,1.53,.35,3.08,.61,4.57,1.11,.18,.06,.36,.14,.54,.21Z"/>
    <path class="cls-102" d="M82.44,92.92c.73,.44,1.74,.12,2.37,.84-.52-.04-1.02-.19-1.54-.19-.38,0-.77-.15-.82-.65Z"/>
    <path class="cls-136" d="M76.5,90.22h-.48c-.01,.06-.03,.11-.04,.17,1.1,.33,2.2,.67,3.3,.99,.2,.06,.53-.02,.5,.29-.03,.27-.34,.22-.56,.23-.56,0-1.11,0-1.67,0-.04,0-.09,0-.13,0-.52,.03-1-.25-1.53-.17-.72,.05-1.34-.1-1.99-.5-1.01-.62-2.24-.67-3.38-.96-2.87-.74-5.83-.74-8.76-1.01-.98-.09-1.95-.24-2.93-.06-.3,.06-.64-.01-.9-.17-.64-.39-1.32-.4-2.02-.34-1.35,.58-2.63,.2-3.89-.34,.56-.43,1.15-.11,1.71-.04,.75,.09,1.38,.02,1.97-.47,.41-.34,.92-.47,1.43-.36,1.12,.23,2.24,.11,3.37,.12,2.21,.08,4.38,.45,6.57,.68,.67,.12,1.36,.18,2,.44,.32,.18,.66,.13,1,.14,1.8,.34,3.61,.68,5.41,1.04,.34,.07,.73,.04,1.01,.33Z"/>
    <path class="cls-9" d="M55.92,88.69c.63-.31,1.21-.45,1.88,.03,.37,.27,.89,.33,1.44,.21,1.16-.27,2.35,.05,3.5,.16,1.04,.1,2.09,.16,3.14,.24,2,.16,3.96,.5,5.9,1.02,1.05,.28,2.12,.38,3.02,1.12,.26,.21,.81,.07,1.23,.09,.14,.18,.44-.03,.54,.24-.01,.03-.02,.07-.03,.1-1.98,.08-3.84-.39-5.69-1.09-.62-.24-1.39-.19-2.08-.13-.62,.05-1.14-.06-1.69-.33-.41-.2-.89-.42-1.05,.39-.13,.64-1.5,.79-2.09,.3-.74-.62-1.52-1.12-2.54-.62-.1,.05-.23,.09-.32,.06-1.14-.38-2.3-.72-3.4-1.21-.58-.26-1.13-.45-1.76-.42,0-.06,0-.11,0-.17Z"/>
    <path class="cls-115" d="M60.5,87.84c-1.14-.02-2.29,.11-3.43-.14-.35-.08-.79-.08-1.04,.2-.92,1.06-2.06,.68-3.17,.54-.28-.04-.55-.05-.83-.08-.65-.06-1.27,.12-1.89,.27-1.29,.3-2.58,.44-3.9,.24-.62-.1-1.2,.22-1.82,.19-.09,.06-.16,.04-.21-.05,2.19-.66,4.42-1.16,6.71-1.33,.22-.02,.45,0,.64-.15,.31-.33,.72-.26,1.1-.26,1.73-.01,3.47,0,5.2,.02,.6,.08,1.21,.15,1.82,.16,.31,0,.69-.05,.81,.4Z"/>
    <path class="cls-75" d="M44.22,89.01c.07,.02,.14,.03,.21,.05-.49,.22-.99,.37-1.53,.3,.41-.23,.86-.3,1.32-.35Z"/>
    <path class="cls-139" d="M60.5,87.84c-.82-.31-1.7-.05-2.53-.31-2.05-.16-4.09-.48-6.14-.16-.56,.09-1.12-.06-1.66,.13-1.33-.11-2.59,.36-3.89,.51-.02-1.13,.23-2.17,1.02-3.03,.12-.06,.23-.12,.35-.19,1.02,.89,2.2,.53,3.27,.27,1.24-.29,2.52-.44,3.72-.99,.73-.34,1.59,.14,2.39,.13,.19,0,.44,.16,.57,.09,1.35-.77,2.8,.14,4.19-.27,.7-.21,1.52,.25,2.31-.03,.25-.09,.53-.08,.79-.23,.18-.1,.46-.41,.66,.02-1.18,.58-2.3,1.24-3.21,2.21-.18,1.06-.09,1.19,1,1.52,1.15,.63,2.46,.18,3.66,.5,.37,.1,.76,.1,1.09,.34-.32,.2-.68,.03-1.01,.11-2.19-.2-4.37-.58-6.57-.61Z"/>
    <path class="cls-56" d="M50.17,87.5c1.67-.43,3.41-.78,5.07-.41,.91,.21,1.88-.02,2.73,.44-2.13,0-4.27,0-6.4,0-.47-.01-.94-.02-1.4-.03Z"/>
    <path class="cls-119" d="M99.68,64.55c0,.28-.03,.55-.34,.67-2.72-1.75-5.52-3.34-8.29-5-.53-.32-1.19-.01-1.68-.41,.71-.26,1.48-.16,2.21-.33,1.9,.97,3.72,2.08,5.45,3.33,.51,.37,.99,.79,1.65,.9,.48,.08,.56,.69,1.01,.83Z"/>
    <path class="cls-73" d="M77.21,55.43c0-.05,0-.11,0-.16,1.85-.09,3.51-.83,5.17-1.55,.36-.16,.71-.33,1.06-.5,1.6,.12,2.74,1.32,4.2,1.78,.29,.09,.64,.2,.82,.42,1.02,1.26,2.7,1.2,3.97,1.99,.49,.31,.8,.69,1.17,1.06-1.47,.28-2.93,.55-4.4,.83-.43-.7-1.21-.75-1.88-1-1.97-.73-3.9-1.55-5.93-2.1-1.12-.31-2.26-.37-3.39-.54-.27-.04-.57,0-.78-.23Z"/>
    <path class="cls-59" d="M77.21,55.43c2.33-.04,4.52,.58,6.7,1.31,1.51,.51,2.92,1.31,4.51,1.62,.45,.09,.83,.37,.78,.94-.51,.17-1.02,.35-1.52,.52,.16-.5,.09-.78-.51-.96-2.86-.85-5.61-2-8.55-2.63-1.32-.28-2.61-.49-3.95-.47,.83-.26,1.7-.24,2.55-.33Z"/>
    <path class="cls-164" d="M89.36,59.81c1.29-.21,2.25,.51,3.29,1.11,1.37,.79,2.69,1.67,4.14,2.35,.79,.37,1.39,1.17,2.28,1.46,.18,.06,.27,.28,.27,.49-.33,.19-.61,.48-1.02,.51,.09-.31,.12-.58-.27-.74-.38-.16-.71-.46-1.1-.6-1.79-.65-3.28-1.84-4.95-2.7-.75-.38-1.55-.62-2.12-1.37-.32-.42-1.01-.09-1.53-.17,.3-.22,.66-.29,1.02-.34Z"/>
    <path class="cls-47" d="M80.42,87.51c-.02-.21-.09-.4-.3-.46-.82-.25-1.65-.5-2.48-.72-.89-.23-1.8-.39-2.66-.76-1.45-.63-3.01-.81-4.53-1.13-1.12-.24-2.31-.15-3.38-.64,.11-.06,.21-.12,.32-.17,.88,0,1.71-.27,2.63-.23,1.74,.08,3.35,.62,5.03,.87,2.04,.3,4.09,.58,6.1,1.06,.14,.03,.28,.04,.41,.08,1.35,.36,1.4,.52,.54,1.61-.61,.01-1.09,.44-1.68,.51Z"/>
    <path class="cls-57" d="M81.61,81.43c.47-.26,1-.37,1.51-.49-.37,.57-.96,.49-1.51,.49Z"/>
    <path class="cls-7" d="M99.19,94.43c-.6,.22-1.21,.43-1.81,.65-.72,.26-1.3,.73-1.82,1.38,.08-1.1,.13-1.15,1.92-2.04,.45-.11,.89-.22,1.34-.34,.18,.05,.53-.07,.36,.35Z"/>
    <path class="cls-159" d="M65.38,61c1.01-.18,2-.54,3.04-.5-.41,.45-1.07,.18-1.52,.5-.51,0-1.02,0-1.52,0Z"/>
    <path class="cls-111" d="M56.09,60.46c.57-.27-.59-.52-.01-.78,.41-.18,.65,.31,1.01,.29,.7-.03,1.38,.15,2.04-.44,.57-.52,1.61-.59,2.2-.44,1.25,.32,2.14-.37,3.16-.63,.92-.23,1.81-.57,2.76-.67-.7,.63-1.69,.8-2.34,1.5-.21,.34-.67,.04-.89,.36-2.2,.14-4.4,.35-6.57,.81-.16,.03-.34,.02-.5,.03-.29,.1-.58,.16-.86-.03Z"/>
    <path class="cls-35" d="M53.05,81.1c.62-.12,1.23-.24,1.85-.36,.11,.36-.29,.32-.33,.53-1.59,.83-3.2,1.6-4.89,2.21-.29,.04-.58,.09-.86,.13-.17-.2-.42-.2-.62-.14-1.66,.44-3.46,.18-5.04,1.01-.62,.33-1.2-.02-1.8-.03,.44-.63,1.15-.84,1.8-1.14,.74,.12,1.38-.23,2.04-.44,2.31-.73,4.7-1.08,7.07-1.51,.28-.05,.55-.09,.78-.27Z"/>
    <path class="cls-62" d="M43.09,83.46c-.51,.45-1.14,.68-1.73,.99-.38,.08-.7,.3-1.01,.52-.23,.01-.38,.17-.53,.31-.19,.17-.26,.08-.28-.12,.53-.87,1.3-1.4,2.25-1.71,1.12-.37,1.9-1.23,2.8-1.92,.46-.36,.9-.75,1.35-1.12,.16,.02,.32,.05,.4,.22-.07,.62-.67,.77-1.03,1.13-.66,.66-1.34,1.32-2.22,1.71Z"/>
    <path class="cls-165" d="M70.96,70.11c-.23,.12-.45,.23-.68,.35-2.36,1.02-4.82,1.78-7.3,2.44-.82,.22-1.63,.57-2.51,.57-.37-.42-.45-.8,.2-.99,.73-.21,.97-.99,1.6-1.3,1.43-.71,2.94-1.2,4.51-1.33,1.56-.13,3.13-.09,4.84-.34-.25,.36-.62,.34-.68,.63Z"/>
    <path class="cls-66" d="M59.13,73.84c.29,.32,.68,.08,1.02,.17-1.29,.34-2.57,.69-3.87,1.02-1.28,.32-2.48,.85-3.69,1.38-.17,.08-.37,.09-.56,.13-.16-.11-.4,.03-.53-.18,.14-.28,.4-.35,.69-.35,1.91-.72,3.83-1.39,5.8-1.94,.38-.1,.74-.29,1.14-.23Z"/>
    <path class="cls-23" d="M51.5,76.35c.19,.03,.4-.03,.53,.18-.4,.28-.81,.55-1.21,.83-.05,.15-.18,.23-.31,.31-.39,.2-.78,.41-1.1,.72-1.11,.64-1.94,1.69-3.16,2.18-.14,0-.25-.05-.32-.18,1.58-1.73,3.41-3.12,5.57-4.04Z"/>
    <path class="cls-100" d="M56.09,60.46c.29,.01,.57,.02,.86,.03-.94,.28-1.87,.6-2.87,.5,.62-.37,1.29-.57,2.02-.54Z"/>
    <path class="cls-26" d="M56.57,80.91c1.14-.91,2.47-1.49,3.75-2.17,.15,.66,.73,.69,1.23,.82,.21,.05,.45,.02,.67,.01,.3-.02,.5,.12,.55,.4,.06,.35-.28,.32-.46,.36-.85,.18-1.69,.84-2.55,.44-1.14-.54-2.12,.37-3.19,.14Z"/>
    <path class="cls-161" d="M63.33,87.5c-.61,.41-.96-.12-1.23-.45-.25-.32-.22-.79,.22-1.07,.5,.36,.6-.45,1.01-.35-.29,.62,.18,1.25,0,1.87Z"/>
    <path class="cls-82" d="M50.49,77.5c.11-.05,.22-.09,.32-.14,.31,.08,.69-.12,.91,.27,.17,.32,.19,.65,.08,.98-.16,.46-.55,.05-.86,.21,.09,.39,.41,.59,.69,.84,.32,.3,.43,.64-.17,.76-.19,.04-.43,.02-.4,.31,.03,.28,.24,.46,.5,.51,.51,.1,1,0,1.49-.14-.55,.57-1.34,.47-2.01,.64-1.54,.38-3.08,.76-4.67,.93-.68,.07-1.36,.46-2.02,.73-.47,.19-.84,.19-1.27,.07,.89-.78,1.78-1.57,2.67-2.35,.19-.16,.42-.28,.49-.54,.99-.83,1.96-1.68,3.06-2.36,.43-.17,.84-.38,1.18-.72Z"/>
    <path class="cls-79" d="M60.56,92.94c.94-.88,1.79-1.86,3.32-1.41,.72,.21,1.5-.08,2.23-.25,.69-.16,1.3,0,1.82,.41,.41,.34,.83,.66,1.28,.95,.19,.12,.4,.27,.37,.53-.04,.31-.33,.33-.57,.41-.47,.16-.96,.19-1.38-.03-.69-.35-1.41-.31-2.14-.3-1.12,.02-2.23-.13-3.33-.32-.53-.09-1.04,.04-1.59,0Z"/>
    <path class="cls-79" d="M58.44,91.9c-1,.06-1.65-.37-2.18-1.02-.12-.14-.23-.35-.09-.54,.11-.15,.31-.16,.46-.11,.63,.23,1.32,.09,1.94,.43,.4,.22,.92,.39,.83,.89-.1,.59-.71,.23-.96,.35Z"/>
    <path class="cls-79" d="M72.64,93.79c-.23-.1-.47-.19-.69-.31-.16-.08-.41-.12-.37-.39,.03-.25,.23-.43,.45-.45,.61-.05,1.22-.09,1.83-.06,.4,.02,.34,.31,.15,.54-.35,.42-.88,.45-1.37,.66Z"/>
    <path class="cls-9" d="M77.55,91.9c.7,.3,1.46,.23,2.19,.32,.52,.07,.98,.17,1.36,.53-1.49-.46-3.11-.2-4.56-.84,0,0,0,0,0,0,.34-.18,.68-.1,1.01,0h0Z"/>
    <path class="cls-154" d="M93.93,101.36c-.26-.69-.9-1.16-1.13-1.9,.78,.64,1.5,1.32,2.31,1.9,0,.03,0,.06,0,.08,0,.32,.5,.52,.23,.9-.13,.18-.31,.23-.51,.14-.37-.17-.81-.28-.76-.84,0-.09-.1-.18-.15-.28Z"/>
    <path class="cls-116" d="M67.07,88.45c.32-.18,.68-.06,1.01-.11,.51,.07,1.05-.08,1.64,.17-.22,.25-.46,.15-.64,.2-.67-.09-1.34-.17-2.01-.26Z"/>
    <path class="cls-130" d="M101.76,99.01c.27,.03,.48,.16,.51,.44,.02,.15-.08,.34-.28,.36-.32,.02-.39-.28-.5-.48-.11-.2,.09-.27,.26-.32Z"/>
    <path class="cls-130" d="M102.9,98.75c.42-.12,.75-.17,1.3,.13-.57,.1-.9,.24-1.3-.13Z"/>
    <path class="cls-102" d="M77.55,91.9c-.34,0-.68,0-1.01,0-.17-.11-.34-.22-.51-.34,.53-.01,1.05,.05,1.52,.34Z"/>
    <path class="cls-141" d="M50.49,77.5c-.26,.46-.64,.72-1.18,.72,.34-.33,.76-.52,1.18-.72Z"/>
  </g>
</svg>