<?xml version="1.0" encoding="UTF-8"?>
<svg id="Layer_2" data-name="Layer 2" xmlns="http://www.w3.org/2000/svg" xmlns:xlink="http://www.w3.org/1999/xlink" viewBox="0 0 150 150">
  <defs>
    <style>
      .cls-1 {
        fill: #e45a59;
      }

      .cls-2 {
        fill: #b93a36;
      }

      .cls-3 {
        fill: #f25f5c;
      }

      .cls-4 {
        fill: #f87571;
      }

      .cls-5 {
        fill: url(#linear-gradient);
        stroke: #c3fcd2;
        stroke-width: 3px;
      }

      .cls-5, .cls-6 {
        stroke-miterlimit: 10;
      }

      .cls-7 {
        fill: #fbbab7;
      }

      .cls-8 {
        fill: #f55862;
      }

      .cls-9 {
        fill: #78943f;
      }

      .cls-10 {
        fill: #82221b;
      }

      .cls-11 {
        fill: #4a951b;
      }

      .cls-12 {
        fill: #6a8034;
      }

      .cls-13 {
        fill: #99b263;
      }

      .cls-14 {
        fill: #e9635d;
      }

      .cls-15 {
        fill: #6b873f;
      }

      .cls-16 {
        fill: #afc675;
      }

      .cls-17 {
        fill: #541e0a;
      }

      .cls-18 {
        fill: #7f9e52;
      }

      .cls-19 {
        fill: #455920;
      }

      .cls-20 {
        fill: #629e42;
      }

      .cls-21 {
        fill: #df433e;
      }

      .cls-22 {
        fill: #9d1e1b;
      }

      .cls-23 {
        fill: #a91f1e;
      }

      .cls-24 {
        fill: #b71f1e;
      }

      .cls-25 {
        fill: #a72f2b;
      }

      .cls-26 {
        fill: #b23533;
      }

      .cls-27 {
        fill: #fd7473;
      }

      .cls-28 {
        fill: #db3c39;
      }

      .cls-29 {
        fill: #e8403b;
      }

      .cls-30 {
        fill: #88a054;
      }

      .cls-31 {
        fill: #60921b;
      }

      .cls-32 {
        fill: #982120;
      }

      .cls-33 {
        fill: #931e1c;
      }

      .cls-34 {
        fill: #d52d29;
      }

      .cls-35 {
        fill: #b42322;
      }

      .cls-36 {
        fill: #577923;
      }

      .cls-37 {
        fill: #da3b37;
      }

      .cls-38 {
        fill: #8fa55a;
      }

      .cls-39 {
        fill: #ca4444;
      }

      .cls-40 {
        fill: #fc9390;
      }

      .cls-41 {
        fill: #b62523;
      }

      .cls-6 {
        fill: none;
        stroke: #52ff87;
        stroke-width: 2.1px;
      }

      .cls-42 {
        fill: #6f883b;
      }

      .cls-43 {
        fill: #f1726c;
      }

      .cls-44 {
        fill: #cd4342;
      }

      .cls-45 {
        fill: #e3524b;
      }

      .cls-46 {
        fill: #3d500c;
      }

      .cls-47 {
        fill: #741d18;
      }

      .cls-48 {
        fill: #c42222;
      }

      .cls-49 {
        fill: #e66160;
      }

      .cls-50 {
        fill: #ed5e5b;
      }

      .cls-51 {
        fill: #6d1a16;
      }

      .cls-52 {
        fill: #240b05;
      }
    </style>
    <linearGradient id="linear-gradient" x1="137.14" y1="38.32" x2="7.7" y2="113.38" gradientUnits="userSpaceOnUse">
      <stop offset="0" stop-color="#b6ff93"/>
      <stop offset=".19" stop-color="#56ed86"/>
      <stop offset="1" stop-color="#006833"/>
    </linearGradient>
  </defs>
  <polygon class="cls-5" points="136.47 111.14 136.47 38.87 73.88 2.73 11.28 38.87 11.28 111.14 73.88 147.28 136.47 111.14"/>
  <path class="cls-6" d="M65.99,108.06c-7.04-.15-13.83-1.4-20-4.97-3.83-2.22-6.97-5.28-9.55-8.87-.6-.83-.9-1.99-1.02-3.03-.17-1.59,.83-2.67,2.45-2.61,1.28,.05,2.57,.39,3.82,.72,2.83,.74,5.6,1.94,8.46,2.24,5.14,.54,9.68-1.2,13.2-5.11,3.61-4.02,5.91-8.82,8.03-13.73,1.85-4.3,3.53-8.71,6.37-12.51,1.63-2.17,3.56-3.99,6.1-5.09,.56-.24,1.08-.66,1.49-1.11,.66-.71,1.38-1.05,2.35-.89,2.32,.38,4.57,.03,6.74-.81,3.93-1.51,4.99-3.57,4.03-7.71-.77-3.3-3.06-4.41-6.12-2.97-1.3,.61-2.15,.07-2.11-1.34,.02-.81,.4-1.26,1.23-1.26,1.2,0,2.4,.01,3.6-.01,2.42-.04,4.08,1.18,5.18,3.21,1.2,2.2,1.61,4.53,1.36,7.05-.45,4.62-.09,9.11,2.65,13.1,.32,.46,.64,.99,.72,1.52,.08,.53-.13,1.11-.26,1.66-.1,.42-.43,.85-.38,1.23,.45,3,.04,5.95-.76,8.8-2.45,8.74-6.78,16.43-13.38,22.71-5.93,5.65-13.04,8.96-21.23,9.77-.98,.1-1.97,.01-2.96,.01Z"/>
  <g>
    <path class="cls-47" d="M79.99,104.74c-4.05,1.92-8.3,2.92-12.79,2.98-7.2,.1-14.07-1.26-20.41-4.71-4.03-2.2-7.19-5.46-9.95-9.11-.84-1.11-.88-2.39-.74-3.69,.09-.87,.78-1.16,1.49-1.39,.24,.53-.3,.65-.5,.94-.66,.85-.64,1.1,.09,1.73,.96,.81,1.87,1.66,2.63,2.67,.74,1.16,2,1.79,2.85,2.83,.41,.5,.8,1.04,1.37,1.4,2.98,2.41,6.4,3.85,10.06,4.86,3.73,1.03,7.52,1.37,11.36,1.39,5.39,.02,10.31-1.66,14.87-4.33,2.36-1.38,4.44-3.23,6.57-4.98,3.67-3.03,6.67-6.58,8.88-10.81,.73-1.39,1.41-2.79,2.03-4.23,1.04-2.44,2.55-4.64,3.75-7,.2-.38,.36-.86,.92-.91,.51,.53,.33,1.14,.04,1.64-1.31,2.22-1.98,4.73-3.41,6.92-.88,1.34-1.51,2.9-2.05,4.45-.34,.99-.92,1.86-1.18,2.89-.2,.81-1.12,1.12-1.53,1.82-.18,.3-.62,.56-.57,.85,.19,1.16-.57,1.36-1.39,1.58-.26,.07-.48,.28-.67,.49-2.56,2.89-5.74,5.02-8.91,7.15-.9,.6-1.68,1.36-2.55,1.99-.21,.15-.36,.37-.17,.63,.22,.28,.47,.24,.72,.01,1.2-1.12,2.79-1.53,4.22-2.23,.53-.26,1.07-.48,1.54-.86,.26-.21,.62-.51,.9-.15,.26,.33-.17,.52-.35,.75-.26,.33-.72,.44-.92,.83-.49,.62-1.38,.65-1.88,1.25-.46,0-.75,.31-1.03,.62-.52,.43-1.11,.71-1.72,.98-.59,.1-1.14,.29-1.58,.73Z"/>
    <path class="cls-41" d="M45.77,90.67c1.87,.37,3.66,1.08,5.61,1.06,6.05-.06,10.71-2.59,14.2-7.55,3.33-4.75,5.48-10.07,7.79-15.32,1.56-3.55,3.21-7.03,5.89-9.91,.19-.2,.4-.38,.6-.57,.3-.12,.62-.22,.83,.12,.25,.4-.17,.52-.37,.72-.2,.2-.41,.4-.45,.67-.1,.77-.38,1.45-.88,2.05-.23,.28-.11,.58-.02,.88,.01,.18-.01,.36-.11,.5-2.52,4.01-4,8.52-6.07,12.74-1.14,2.07-2.04,4.27-3.28,6.3-1.71,2.78-3.71,5.31-6.15,7.47-.49,.44-1.06,.79-1.66,1.08-1.53,.9-3.15,1.61-4.87,2.06-.9,.23-1.81,.53-2.71-.01,.04-.46,.49-.41,.7-.56-1.88,.34-3.83,.43-5.75-.03-1.05-.25-2.13-.37-3.12-.8-.34-.15-1.19-.4-.17-.89Z"/>
    <path class="cls-51" d="M86.2,101.15c.12-.7,1.04-.79,1.21-1.68-.91,.53-1.61,1.18-2.54,1.46-.94,.28-1.8,.82-2.71,1.23-.42,.18-.84,.38-1.1,.75-.18,.25-.24,.66-.65,.48-.32-.15-.76-.29-.86-.66-.1-.38,.3-.6,.56-.82,1.79-1.43,3.68-2.71,5.58-3.98,1.61-1.08,2.9-2.59,4.61-3.55,.75-.42,.84-1.53,1.71-1.92,.12-.06,.21-.2,.34-.24,.6-.22,1.5-.03,1.09-1.29-.12-.37,.67-1.18,1.19-1.58,.71-.55,.96-1.22,1.3-2.01,.62-1.46,1.14-2.98,1.91-4.38,1.63-3,3.04-6.11,4.56-9.17,.22-.43,.12-.89,.15-1.34-.21-.95-.05-1.84,.56-2.6,.31-.38,.38-.78,.42-1.23,.03-.37-.1-.86,.48-.98,.24,3.96-.44,7.77-1.83,11.47-3.02,8.01-7.38,15.11-14.03,20.65-.61,.51-1.21,1.05-1.93,1.41Z"/>
    <path class="cls-10" d="M103.98,67.62c-.26,.21-.19,.5-.2,.78-.03,.66,.1,1.25-.64,1.79-.61,.44-.27,1.52-.61,2.25-.56,.32-.72,.94-1,1.43-1.23,2.18-2.53,4.35-3.5,6.64-.74,1.74-1.65,3.37-2.48,5.04-.96,1.94-2.25,3.65-3.72,5.24-.91,.99-1.79,2.01-2.64,3.04-.57,.69-1.37,1.06-2.04,1.61-2.84,2.34-5.59,4.81-8.99,6.34-2.75,1.23-5.52,2.55-8.55,2.83-2.65,.24-5.31,.37-8.01,.18-2.79-.2-5.5-.73-8.18-1.4-2.32-.58-4.52-1.56-6.59-2.78-1.05-.62-2.24-1.11-2.95-2.2,.48-.39,.82,.04,1.2,.21,.08,.05,.16,.11,.24,.17,.82,.85,1.77,1.49,2.91,1.81,1.78,.71,3.62,1.25,5.4,1.96,.63,.25,1.32,.1,1.96,.28,.75,.33,1.54,.5,2.34,.61,.58,.16,1.19,.08,1.78,.2,1.45,.17,2.9,.29,4.36,.18,1.46-.1,2.92,.04,4.38-.23,3.09-.56,6.12-1.32,8.95-2.74,1.5-.75,2.98-1.54,4.32-2.54,3.03-2.27,5.95-4.64,8.56-7.44,3.3-3.54,5.51-7.65,7.45-12,1.02-2.29,2.33-4.45,3.45-6.7,.68-1.35,1.22-2.75,1.05-4.31,.05-.57-.46-1.07-.25-1.67,.21-.33,.57-.44,.88-.61,.28-.12,.57-.27,.89-.17,.19,.12,.31,.27,.25,.51-.51,.55,.13,1.13-.03,1.69Z"/>
    <path class="cls-22" d="M45.77,90.67c-.24,.24-.47,.45,.08,.62,2.65,.79,5.33,1.27,8.11,1.04,.43-.04,.7-.49,1.16-.41,.22,.04,.55-.1,.6,.24,.03,.24-.23,.29-.42,.39-.37,.19-.84,.08-1.15,.41-.09,.1-.19,.17-.31,.21-1.18,.16-2.37,.04-3.55,.08-1.13-.04-2.23-.24-3.29-.63-1.03-.27-2.06-.54-3.12-.65-1.52-.46-3.06-.85-4.6-1.23-.52-.31-.85-1.04-1.73-.36-.48,.37-.85-.14-.57-.77,.08-.37,.64-.36,.63-.8,.81-.42,1.64-.22,2.44-.02,1.95,.48,3.85,1.14,5.73,1.88Z"/>
    <path class="cls-12" d="M97.09,51.35c.26-.25,.53-.5,.79-.75,1.33-1.26,1.95-2.74,1.54-4.59-.12-.53-.41-1.06-.11-1.62,.43-.21,.86-.25,1.3-.01,.98,2.34,.78,4.76,.5,7.19-.2-.13-.25-.33-.25-.54,0-.18,.05-.34,.05-.35-.33,.32-.1,.89-.17,1.4-.07,.53,.16,1.14-.38,1.55-.61-.36-.33-.97-.41-1.47-.04-.26,.08-.61-.22-.74-.26-.12-.43,.16-.59,.32-.72,.72-1.7,.67-2.59,.87-.51-.72,.4-.81,.54-1.24Z"/>
    <path class="cls-31" d="M100.25,53.58c.38-.65,.14-1.36,.18-2.04,.03-.47,.03-.91,.6-1.12,.03,.39,.05,.77,.08,1.14,.05,1.7-.08,3.4,.27,5.09,.47,2.28,1.57,4.28,2.66,6.29,.17,.3,.33,.61,.5,.91,.49,.86,.44,1.59-.52,2.09-.08-.14-.15-.27-.23-.41-.91-1.86-1.54-3.84-2.51-5.68-.67-1.2-.82-2.54-1.07-3.85,.07-.8-.61-1.62,.03-2.41Z"/>
    <path class="cls-15" d="M85.12,54.92c.07-.11,.14-.23,.22-.34,.59,.23,1.22-.27,1.79,.11,.49,1.07-.68,1.18-1.15,1.92,2.08-.12,4.05-.13,6.01-.16,1.14,.16,2.01,.79,2.53,1.77,.55,1.03,1.35,1.86,1.98,2.82-.98,.78-1.48,.68-2.05-.35-.28-.52-.45-1.09-.75-1.6-.67-1.12-1.62-1.63-2.92-1.67-1.59-.05-3.11,.29-4.63,.67-.94,.24-1.72,.12-2.35-.64-.31-.64,.03-1.1,.43-1.55,.29-.33,.74-.5,.89-.96Z"/>
    <path class="cls-25" d="M85.12,54.92c.05,.61-.43,.91-.79,1.24-.37,.34-.51,.7-.44,1.17,.05,.05,.07,.11,.07,.17,0,.06-.01,.1-.03,.1-1.46,1.36-3.1,2.54-4.07,4.37-.2,.38-.53,.73-1.02,.83-.49-.27-.51-.61-.15-1,.49-.54,.82-1.12,.85-1.91,.02-.58,.46-1.02,1.09-1.17-.22-.39-.53-.3-.78-.35,1.14-1.33,2.59-2.19,4.16-2.88,.38-.17,.74-.38,1.11-.57Z"/>
    <path class="cls-19" d="M99.37,44.38c.12,.57,.22,1.15,.35,1.72,.4,1.73-.22,3.16-1.36,4.42-.13,.14-.28,.36-.49,.08,1.46-3.06,1-5.89-1.02-8.53,.18-.24,.43-.39,.7-.49,1.04,.65,1.7,1.55,1.8,2.81Z"/>
    <path class="cls-9" d="M99.37,44.38c-.51-.98-.95-2.01-1.87-2.7-.79,.12-1.32-.38-1.88-.81-.22-.38-.3-.75,0-1.12,2.13,0,3.29,1.41,4.31,2.99,.31,.49,.45,1.08,.67,1.63-.41,0-.82,0-1.24,.01Z"/>
    <path class="cls-46" d="M95.82,40.81c.56,.29,1.12,.58,1.67,.86-.03,.43-.35,.37-.63,.39-1.48-.95-2.99-.84-4.53-.16-.5,.22-1,.77-1.59,.2-.56-.55-.78-1.19-.41-1.94,.26-.28,.55-.28,.81-.02,.57,.57,1.23,.46,1.93,.33,.94-.17,1.91-.41,2.75,.34Z"/>
    <path class="cls-20" d="M97.09,51.35c-.02,.5-.68,.66-.63,1.19-.07,.66-.68,.69-1.1,.91-.66,.35-1.43,.46-2.05,.92-.84,.41-1.7,.78-2.68,.71-.51-.08-.78-.49-1.11-.82-.09-.4,.21-.32,.43-.37,.34-.08,.71,.18,1.02-.13,2.12-.59,4.26-1.15,6.11-2.42Z"/>
    <path class="cls-36" d="M95.82,40.81c-1.02-.36-2.05-.27-3.06,0-.74,.2-1.36,.17-1.8-.53-.18-.29-.41-.18-.64-.13,.14-.56,.62-.5,1.01-.52,1.43-.07,2.86-.11,4.28,.1-.04,.37,.02,.73,.2,1.07Z"/>
    <path class="cls-11" d="M90.97,53.77s.07,.02,.1,.03c.09,.04,.2,.14,.07,.18-.52,.13-1.11-.18-1.6,.23-.78,.49-1.59,.76-2.51,.43-.56,.01-1.15,.75-1.69-.06,.38-.81,1.05-1.06,1.88-1,1.25,.09,2.49,.29,3.75,.19Z"/>
    <path class="cls-51" d="M79.99,104.74c.27-.58,.79-.82,1.58-.73-.5,.3-1,.6-1.58,.73Z"/>
    <path class="cls-51" d="M83.29,103.03c.13-.55,.41-.86,1.03-.62-.3,.28-.61,.53-1.03,.62Z"/>
    <path class="cls-32" d="M36.97,89.61c.01,.27-.05,.62,.28,.69,.29,.06,.44-.12,.51-.47,.07-.38,.44-.23,.65-.09,.31,.2,.58,.47,.87,.71-.07,.08-.15,.14-.25,.18-.36,.15-.93-.07-1.06,.48-.13,.56,.36,.87,.71,1.19,1.15,1.05,2.47,1.91,3.42,3.17,.04,.15,.03,.3-.06,.43-1.1-.11-1.65-1.01-2.35-1.67-1.05-.93-1.96-2.01-3.08-2.89-.58-.46-.42-1.27,.36-1.72Z"/>
    <path class="cls-33" d="M39.69,94.22c.77,.56,1.54,1.12,2.31,1.68,.64,.28,1.1,.85,1.75,1.12,.25,.22,.47,.46,.69,.71,.21,.39,.83,.51,.71,1.11-.46,0-.75-.55-1.26-.42-.73-.03-.83-.76-1.24-1.13-.78-.71-1.5-1.49-2.34-2.15-.29-.22-.61-.47-.61-.91Z"/>
    <path class="cls-51" d="M78.06,103.41c-.08,.23-.09,.33-.14,.42-.36,.66-1.03,.54-1.62,.63-.14,.02-.32-.1-.27-.23,.22-.58,.83-.53,1.28-.73,.21-.09,.47-.06,.75-.1Z"/>
    <path class="cls-51" d="M77.97,103.46c.49-.61,.74-.31,1.07-.03-.4,.39-.69-.06-1.07,.03Z"/>
    <path class="cls-44" d="M61.68,90.66c2.7-1.84,4.78-4.23,6.59-6.96,1.57-2.36,2.81-4.86,4.05-7.38,.06-.12,.17-.21,.25-.32,.14,.11,.2,.26,.22,.43-.18,1.42-1,2.59-1.62,3.81-1.67,3.3-3.69,6.38-6.29,9.05-1.64,1.68-3.31,3.36-5.57,4.12-2.64,.88-5.33,1.58-8.18,1.22-2.8-.35-5.52-.98-8.19-1.88-.69-.23-1.44-.23-2.14-.44-.17-.05-.36-.03-.46,.15-.11,.2,.05,.33,.17,.44,.47,.42,.99,.77,1.5,1.13,.38,.45,1.23,.47,1.2,1.3-.14,.1-.3,.14-.47,.13-1.18-.36-1.91-1.35-2.87-2.03-.37-.26-.63-.65-1-.92-.34-.25-.51-.59-.38-1.01,.14-.46,.53-.61,.98-.64,.71-.05,1.38,.15,2.03,.38,2.54,.87,5.18,1.33,7.8,1.9,2.3,.5,4.65,.32,6.89-.08,1.94-.35,3.89-1.08,5.49-2.41Z"/>
    <path class="cls-26" d="M61.68,90.66c-1.09,1.35-2.74,1.69-4.24,2.26-1.77,.67-3.68,.67-5.53,.81-.92,.07-1.9-.28-2.85-.43-2.93-.47-5.82-1.17-8.63-2.15-.1-.03-.2-.06-.31-.06-.51,0-1.13-.15-1.41,.41-.29,.57,.28,.87,.61,1.2,1.02,1.05,2.17,1.93,3.49,2.57,.16,.12,.36,.22,.21,.48-.17,.13-.37,.15-.58,.12-.22-.04-.33-.22-.45-.38-1.15-.98-2.32-1.95-3.45-2.96-.47-.42-1.18-.8-.9-1.6,.29-.84,1.08-.33,1.63-.48,1.54,.42,3.07,.84,4.61,1.26,1.02,.33,2.06,.61,3.14,.63,1.02,.36,2.06,.6,3.14,.63,1.26,.17,2.51,.17,3.77,0,.07,0,.14,0,.21,0,2.4,.07,4.56-.71,6.61-1.9,.3-.17,.57-.38,.93-.41Z"/>
    <path class="cls-39" d="M72.58,76.42c0-.14,0-.28,0-.43,2.04-4.42,3.65-9.05,6.28-13.2,1.36-1.59,2.36-3.5,4.17-4.7,.28-.19,.45-.54,.85-.54,.32,.22,.87,.24,.71,.86-.4,.66-1.13,.91-1.72,1.32-2,1.41-3.24,3.42-4.51,5.42-1.48,2.34-2.4,4.94-3.53,7.44-.28,.56-.61,1.11-.82,1.7-.09,.23-.16,.46-.26,.69-.4,.46-.34,1.3-1.17,1.42Z"/>
    <path class="cls-33" d="M102.52,67.82c.21,2.52-1.12,4.54-2.18,6.64-1.04,2.07-2.11,4.13-3.09,6.24-1.04,2.22-2.26,4.36-3.57,6.45-1.09,1.73-2.46,3.18-3.82,4.59-1.92,1.99-3.78,4.14-6.35,5.44-.8,.4-1.41,1.17-2.17,1.72-1.57,1.12-3.26,2.01-5.02,2.75-3.4,1.44-6.94,2.34-10.67,2.44-1.62,.04-3.24-.03-4.87-.03-.33,0-.71,.12-.98-.2,.57-.41,1.23-.49,1.89-.41,2.76,.34,5.47-.06,8.2-.49,3.19-.5,6.01-1.94,8.87-3.3,.9-.43,1.75-1.03,2.5-1.69,1.75-1.52,3.62-2.89,5.33-4.47,2.33-2.16,4.3-4.54,6.08-7.12,.08-.12,.14-.24,.19-.37,1.76-2.4,3.06-5.06,4.35-7.71,1.3-2.66,2.96-5.12,4.05-7.88,.18-.45,.33-.92,.43-1.4,.21-.44,.05-1.16,.84-1.2Z"/>
    <path class="cls-32" d="M93.1,86.05c-.95,1.74-2.14,3.31-3.45,4.79-1.81,2.05-3.8,3.94-5.92,5.63-2.91,2.32-6.05,4.33-9.63,5.6-3.65,1.29-7.39,1.84-11.23,1.76-1.03-.02-2.06-.09-3.08,.03-.63-.09-1.3,.21-1.89-.21-.77-.22-1.57-.28-2.3-.63-2.75,.01-5.09-1.35-7.54-2.31-1.08-.46-2.06-1.09-2.93-1.89,0,0,0,0,0,0-.12-.48-.79-.51-.84-1.05,.22-.11,.43-.03,.64,.06,3.71,2.77,8.11,3.74,12.47,4.84,.17,.04,.35,.05,.52,.05,1.85,.02,3.69,.1,5.53,.18,3.21,.14,6.35-.4,9.45-1.33,2.05-.62,3.78-1.75,5.64-2.69,3.6-1.82,6.52-4.54,9.31-7.37,1.41-1.42,2.96-2.77,3.98-4.55,.26-.45,.57-.99,1.27-.92Z"/>
    <path class="cls-2" d="M102.52,67.82c-.58,.24-.32,.89-.62,1.27-.49,1.18-.86,2.43-1.98,3.22-.16,.11-.34,.21-.52,.29-.28,.11-.55,.27-.86,.08-.12-.67,.52-1.02,.64-1.59,.28-.76,1.02-1.3,1.05-2.19,.2-.81,1.15-1.2,1.2-2.09-.11-.14-.25-.26-.2-.47,.1-.11,.22-.17,.36-.21,.18-.04,.37-.11,.53,.06-.08,.59,.5,1.03,.4,1.63Z"/>
    <path class="cls-38" d="M101.5,59.85c.96,1.81,1.93,3.63,2.29,5.68-.27,.08-.54,.15-.82,.23-1.03,.1-1.3-.55-1.39-1.39,.42-.86,.42-1.74,.06-2.62-.2-.48-.43-.96-.38-1.5,.03-.16,.09-.3,.23-.39Z"/>
    <path class="cls-42" d="M101.68,64.27c.17,.72,.52,1.29,1.29,1.48-.22,.27-.55,.32-.85,.44-.14,.05-.28,.1-.42,.14-.58-.7-.86-1.57-1.28-2.36-.5-.95-.93-1.94-1.76-2.66-.13-.12-.21-.27-.1-.46,.23-.18,.49-.17,.76-.1,1.25,.86,1.99,2.07,2.36,3.51Z"/>
    <path class="cls-33" d="M45.14,98.83c.98,.63,1.95,1.26,2.93,1.89-1.25-.2-2.19-.89-2.93-1.89Z"/>
    <path class="cls-33" d="M55.61,103.02c.79,.13,1.58,.26,2.3,.63-.82,0-1.63-.07-2.3-.63Z"/>
    <path class="cls-41" d="M47.02,92.34c-1.13,.2-2.16-.09-3.14-.63,1.08,.07,2.1,.38,3.14,.63Z"/>
    <path class="cls-41" d="M53.93,92.96c-1.26,.34-2.51,.34-3.77,0,1.26,0,2.51,0,3.77,0Z"/>
    <path class="cls-30" d="M93.3,54.2c.3-.67,1.04-.51,1.54-.8,.53-.29,1.13-.45,1.61-.86,.32-.19,.6-.48,1.03-.43,.73,.08,1.27-.28,1.68-.83,.21-.27,.42-.49,.77-.38,.4,.13,.28,.51,.29,.8,.02,.62,.02,1.25,.02,1.87-.15,.85,.3,1.66,.19,2.51-.74-.28-.77-1-.89-1.6-.16-.86-.61-1.14-1.4-.87-1.36,.46-2.86,.11-4.18,.76-.22,.11-.48,.04-.66-.17Z"/>
    <path class="cls-13" d="M93.3,54.2c.1,0,.23,.04,.31,0,1.5-.84,3.25-.36,4.81-.95,.83-.32,1.3,.14,1.36,.93,.05,.72,.39,1.29,.66,1.91,.34,1.26,.54,2.55,1.06,3.76,0,.15-.01,.3-.02,.44-.6-.15-.75-.73-.9-1.16-.39-1.13-1.15-2.06-1.57-3.17-.28-.74-.88-1.01-1.65-1.05-1.41-.08-2.77,.19-4.14,.47-.23,.05-.53,.07-.54,.39,0,.22,.21,.36,.4,.45,1.11,.52,1.71,1.53,2.32,2.49,.58,.91,1.28,1.38,2.39,1.34,.64-.02,1.46-.12,1.59,.88-.29,0-.57,0-.86,0-.13,.15-.3,.21-.49,.24-.54,0-1.11,.17-1.59-.23-1.16-.49-1.51-1.63-2.12-2.58-.53-.84-1.24-1.47-2.27-1.64-.76-.38-1.58-.15-2.37-.18-.27-.01-.55,.06-.83,0-.36-.08-.84,.04-.91-.5-.07-.56,.36-.78,.79-.96,.59-.25,1.25-.02,1.84-.24,.98,.09,1.8-.44,2.71-.64Z"/>
    <path class="cls-17" d="M96.45,60.94c.56,0,1.13,0,1.69,0,.17,.1,.34,.21,.18,.44-.39,.2-.83-.11-1.22,.12-.22,.09-.45,.19-.68,.25-.46,.07-.85,.36-1.32,.38-1.03-.25-1.18-1.2-1.49-1.97-.61-1.48-1.69-2.23-3.26-2.32-.92-.06-1.78,.18-2.67,.35-.98,.19-1.84,.85-2.89,.76-.22-.11-.35-.28-.3-.54,.04-.46-.49-.51-.62-.85,0-.08,.01-.15,.02-.23,.76,.67,1.59,.66,2.53,.41,1.37-.37,2.77-.61,4.22-.62,1.81-.01,2.95,.84,3.64,2.44,.11,.26,.2,.52,.31,.78,.53,1.2,.57,1.21,1.86,.6Z"/>
    <path class="cls-18" d="M90.59,54.84c-.41,.51-1.01,.36-1.54,.44-.4,.06-.94,.17-.9,.68,.05,.57,.61,.3,.94,.32,.66,.04,1.32,.02,1.98,.01,.39,0,.78-.02,.99,.41-1.96,.07-3.92,0-5.87,.21-.25,.03-.63,.15-.72-.21-.07-.3,.26-.44,.48-.61,.49-.39,1.3-.56,1.08-1.47,.84-.14,1.67-.29,2.51-.43,.6-.2,.57,.64,1.05,.64Z"/>
    <path class="cls-22" d="M41.99,95.48c.14,.07,.28,.14,.42,.2,.51,.41,1.35,.54,1.26,1.47-.71-.22-1.3-.6-1.67-1.26,0-.14,0-.28,0-.41Z"/>
    <path class="cls-35" d="M43.67,97.15c-.21-.67-.99-.84-1.26-1.47,.21,0,.42,0,.62,0,.26,.03,.42,.2,.6,.37,.34,.48,.84,.75,1.37,.98,.25,.18,.52,.33,.78,.49,3.1,1.73,6.38,2.91,9.93,3.34,1.66,.2,3.31,.38,4.98,.52,.3,.21,.49,.54,.9,.62,.21,.04,.5,.18,.22,.5-1.1,.3-2.23,.06-3.3-.05-3.99-.4-7.88-1.23-11.47-3.16-.78-.42-1.38-1.17-2.32-1.31-.14-.07-.28-.14-.42-.21-.28-.14-.49-.35-.63-.63Z"/>
    <path class="cls-28" d="M43.46,96.1c-.14-.14-.29-.28-.43-.42-.07-.14-.14-.28-.21-.42,.14,0,.29,0,.43,0,.4-.29,.71,0,1.04,.18,1.65,.85,3.28,1.74,5.04,2.37,.69,.26,1.41,.44,2.04,.83,.75,.43,1.55,.57,2.41,.55,1.64-.04,3.27,.11,4.84,.66,.41,.14,.82,.2,1.22,.02,1.26-.56,2.59-.52,3.91-.47,.93,.03,1.8-.13,2.64-.53,.22-.11,.44-.27,.67-.29,2.01-.15,3.34-1.54,4.84-2.62,.32-.23,.56-.53,.76-.86,.24-.4,.55-.78,.98-.91,1.11-.31,1.78-1.18,2.57-1.9,.6-.54,.7-1.09,.25-1.75-.12-.17-.24-.34-.36-.52-.72-1.13-.43-1.91,.89-2.08,.98-.13,1.72-.38,2.09-1.4,.19-.53,.71-.79,1.27-.76,1.22,.08,1.97-.51,2.72-1.42,.6-.73,1.15-1.46,1.65-2.25,.41-.65,.28-.96-.33-1.32-.7-.42-1.33-.95-1.11-1.93,.04-.17,.15-.31,.28-.44,1.52-.74,3.14-.87,4.79-.7,.8,.08,1.43-.11,2.03-.59,2.83-2.27,5.48-4.73,8.19-7.13,.62-.38,.9-1.29,1.85-1.14,.19,1.01-.76,1.5-1.04,2.3-1.7,1.84-3.4,3.69-5.63,4.95-.85,.48-1.64,1.06-2.42,1.64-.97,.72-2.06,1-3.25,.87-.53-.06-1.04-.04-1.54,.19-.25,.12-.56,.23-.59,.54-.03,.32,.26,.47,.49,.62,.39,.24,.84,.35,1.23,.58,.4,.23,.79,.51,.74,1.04-.05,.55-.5,.76-.95,.83-.91,.15-1.43,.64-1.63,1.53-.12,.55-.49,.91-.97,1.17-.37,.2-.73,.43-.93,.82-.4,.79-1.07,1.05-1.91,1.01-.88-.05-1.56,.11-1.75,1.18-.14,.8-.86,.9-1.56,.93-.33,.01-.78-.08-.9,.33-.12,.39,.28,.59,.51,.85,.09,.1,.21,.18,.31,.28,.94,.87,.91,1.9-.28,2.4-1.52,.64-2.4,2.14-3.96,2.67-.16,.05-.28,.21-.38,.36-1.35,2.07-3.42,2.97-5.71,3.51-.55,.13-1.05,.38-1.56,.6-1.49,.63-3,.82-4.65,.86-2.39,.05-4.69-.45-7.04-.58-1.41-.08-2.83-.31-4.19-.8-2-.72-4.06-1.28-5.87-2.44-.6-.19-1.05-.62-1.54-.99Z"/>
    <path class="cls-1" d="M72.58,76.42c.53-.36,.48-1.14,1.04-1.48,.35,.41,.11,.81-.07,1.17-1.09,2.22-2.11,4.46-3.27,6.65-1.68,3.18-4.01,5.86-6.45,8.44-1.2,1.28-2.63,2.39-4.4,2.9-2.38,.69-4.76,1.37-7.28,1.22-1.96-.11-3.85-.56-5.74-1.05-1.58-.41-3.12-.98-4.81-1.25-.04,.46,.42,.67,.42,1.04-.02,.05-.03,.1-.05,.15-.83-.24-1.34-.97-2.06-1.38-.2-.11-.24-.33-.08-.54,.2-.27,.48-.47,.81-.36,1.43,.49,2.97,.56,4.38,1.17,1.37,.59,2.86,.75,4.31,.99,2.54,.41,5.07,.51,7.6-.26,2.24-.68,4.37-1.46,6.1-3.12,2.98-2.85,5.54-6.02,7.4-9.71,.76-1.5,1.64-2.95,2.12-4.58Z"/>
    <path class="cls-1" d="M49.32,97.99c-1.8-.41-3.31-1.46-4.97-2.2-.37-.16-.67-.49-1.1-.53-.35-.43-.97-.53-1.26-1.04,0,0,0,0,0,0,.11-.12,.25-.16,.41-.16,.82,.14,1.34,.86,2.13,1.06,1.29,.72,2.68,1.25,3.95,2.02,.28,.25,.7,.33,.88,.71-.01,.05-.03,.09-.04,.14Z"/>
    <path class="cls-49" d="M42.41,94.22c-.14,0-.28,0-.42,0-.2-.54-1.2-.81-.88-1.37,.36-.64,1.07,.03,1.58,.15,1.89,.43,3.77,.96,5.64,1.49,4.14,1.17,8.16,.56,12.02-1.03,1.43-.59,2.67-1.68,3.74-2.92,1.33-1.56,2.81-3,3.96-4.7,1.26-1.87,2.46-3.77,3.32-5.88,.59-1.44,1.36-2.81,2.06-4.2,.13-.26,.21-.52,.19-.8,.01-.23-.03-.48,.21-.63,.38-.51,.49-1.15,.84-1.67,.25-1.34,.97-2.51,1.48-3.75,1.14-2.77,2.72-5.31,4.61-7.63,1-1.23,2.35-2.08,3.74-2.85,.08,.13,.16,.25,.24,.38,.16,.48-.12,.74-.5,.85-.57,.16-.71,.59-.8,1.08-.68,.89-1.67,1.45-2.44,2.26-.48,.51-.95,1.02-1.33,1.61-2.36,3.69-4.06,7.69-5.55,11.78-.04,.1-.04,.21-.09,.3-1.28,1.92-1.88,4.18-3.09,6.14-1.72,2.8-3.82,5.3-5.92,7.82-.93,1.12-2,2.01-3.08,2.93-.27,.23-.55,.46-.87,.57-4.04,1.35-8.11,2.29-12.39,1.12-1.71-.47-3.46-.8-5.16-1.33-.45-.14-.82-.1-1.11,.29Z"/>
    <path class="cls-1" d="M74.67,72.64c-.2,.6-.21,1.29-.84,1.67,.11-.65,.33-1.23,.84-1.67Z"/>
    <path class="cls-23" d="M44.72,97.98c.27-.34,.53-.06,.73,.07,2.06,1.4,4.36,2.3,6.71,3.06,1.62,.53,3.35,.52,5,.87,1.57,.34,3.17,.14,4.74,.4,.23-.23,.51-.23,.81-.19,.71,.17,1.41,.19,2.12,0,.17-.04,.33-.07,.5-.08,.79-.06,1.59,.08,2.38-.13,.54-.09,1.08-.21,1.63-.29,.73-.08,1.45-.19,2.12-.5,2.93-1.37,6.04-2.47,8.62-4.44,1.89-1.44,3.81-2.89,5.52-4.61,1.59-1.6,3.25-3.14,4.73-4.84,3.24-3.74,5.7-7.99,7.81-12.45,.44-.94,.92-1.88,1.69-2.62,.91-.9,1.46-2.05,2.09-3.14-.26,1.56-.9,3.01-1.78,4.28-.76,1.1-1.25,2.31-1.87,3.47-1.59,2.98-2.91,6.11-4.96,8.84-.08,.11-.13,.25-.19,.37-.43,.25-.75,.62-1.03,1.02-2.45,3.4-5.5,6.21-8.7,8.89-1.96,1.64-4.26,2.71-6.37,4.1-2.42,1.59-5.16,2.17-7.79,2.79-2.21,.52-4.67,.69-7.04,.24-.44-.08-.91-.11-1.35-.06-3.21,.34-6.18-.75-9.17-1.6-2.51-.71-4.85-1.85-6.94-3.44Z"/>
    <path class="cls-34" d="M44.93,96.94c2.03,.9,4.1,1.7,6.21,2.4,1.26,.42,2.56,.63,3.86,.71,1.15,.07,2.29,.13,3.39,.47,.61,.19,1.19,.21,1.84,.05,.59-.14,1.29-.19,1.87-.03,1.65,.46,3.09-.13,4.53-.75,.8-.35,1.65-.52,2.46-.81,1.71-.61,3.48-1.22,4.5-2.94,.29-.49,.65-.89,1.25-1.01,.46-.09,.8-.4,1.12-.74,.59-.64,1.24-1.17,2.1-1.49,1.25-.47,1.33-1.29,.32-2.13-.05-.04-.11-.09-.15-.14-.34-.42-1.05-.71-.85-1.32,.22-.67,.95-.44,1.48-.43,.79,.01,1.28-.23,1.27-1.12,0-.81,.6-.99,1.21-.97,1.13,.04,2.17,.04,2.62-1.31,.07-.2,.44-.32,.69-.44,.54-.25,.87-.59,.98-1.23,.14-.84,.57-1.45,1.59-1.5,.38-.02,1.02-.06,1.03-.67,.01-.53-.5-.7-.91-.89-.16-.07-.34-.09-.49-.17-.55-.28-1.42-.5-1.35-1.14,.08-.72,.99-.85,1.65-1.04,.56-.16,1.1,.2,1.64,.12,1-.14,1.86-.59,2.75-1.12,2.89-1.72,5.33-3.98,7.86-6.15-.09,.6-.58,.97-.84,1.47,.18,.51-.13,.89-.38,1.24-1.32,1.84-2.61,3.69-4.3,5.23-1.03,.94-1.96,1.99-2.53,3.3-.26,.6-.65,1.05-1.24,1.36-1.06,.55-1.82,1.39-2.21,2.54-.41,1.24-1.15,2.22-2.46,2.47-1.73,.34-2.7,1.56-3.56,2.86-1.01,1.53-2.23,2.75-3.95,3.44-1.1,.44-1.94,1.27-2.72,2.09-1.48,1.54-3.34,2.22-5.3,2.76-.3,.08-.63,.1-.91,.22-3.07,1.32-6.3,1.5-9.55,1.14-3.83-.43-7.68-.8-11.26-2.47-.88-.41-1.76-.8-2.6-1.28-.3,0-.51-.14-.63-.42-.07-.05-.09-.1-.07-.14,.02-.04,.05-.07,.07-.07Z"/>
    <path class="cls-45" d="M100.43,68.88c-.7,.22-1.06,.91-1.67,1.25-1.24,.71-2.67,.97-3.92,1.68-.27,.15-.6,.22-.83,.43-1.23,1.18-2.75,1.68-4.38,2.02-1.03,.22-1.84,.97-2.63,1.64-.67,.56-1.32,1.13-2.08,1.56-.47,.24-1,.3-1.48,.51-.77,.34-.91,.73-.55,1.5q.92,1.98-1.02,2.94c-.42,.21-.57,.49-.38,.92,.1,.22,.25,.42,.35,.65,.42,.95,.08,1.55-.97,1.7-.28,.04-.56,.05-.84,.03-.78-.05-1.28,.2-1.33,1.07-.04,.67-.5,.96-1.11,1.04-.31,.04-.62,.07-.94,.07-1.51,.04-1.86,.56-1.33,1.97,.56,1.5,0,2.92-1.46,3.53-.53,.22-.85,.56-1.04,1.08-.24,.69-.69,1.21-1.37,1.5-.5,.22-.85,.59-1.13,1.05-.43,.69-1.01,1.13-1.86,1.19-.41,.03-.84,.12-1.21,.27-1.62,.66-3.25,.95-4.98,.46-.63-.18-1.22,.18-1.76,.52-.72,.46-1.46,.52-2.3,.3-1.21-.31-2.47-.48-3.71-.5-1.12-.03-2.21-.08-3.28-.44-.63-.28-1.26-.56-1.89-.84,0,0,0-.01,0-.01,.35-.32,.76-.26,1.15-.13,.58,.2,1.19,.27,1.79,.35,.86,.25,1.75,.07,2.62,.14,1.94,.43,3.84,.58,5.69-.42,.69-.37,1.51-.29,2.26-.16,1.88,.34,3.65-.34,5.47-.54,.6-.07,.82-.62,.99-1.11,.26-.75,.68-1.26,1.51-1.4,.66-.12,.86-.65,.85-1.26,0-.8,.28-1.41,1.01-1.81,.58-.31,.69-.83,.54-1.43-.09-.37-.2-.74-.24-1.12-.17-1.59,1-2.78,2.59-2.62,1.31,.13,1.44-.05,.97-1.27-.27-.72-.62-1.41-.79-2.16-.27-1.18,.04-1.72,1.19-2,.54-.13,.96-.33,1.27-.8,.34-.51,.82-.88,1.48-.82,.61,.06,.78-.31,.9-.79,.11-.44,.1-.9,.25-1.33,.21-.6,.56-1.12,1.24-1.11,1.6,.04,2.79-.8,3.91-1.76,.9-.77,1.89-1.29,3.04-1.53,1.5-.3,2.78-1.11,4.08-1.82,1.42-.77,2.88-1.37,4.47-1.69,.9-.18,1.65-.72,2.21-1.48,.48-.65,1.02-1.23,1.9-1.32,.39,.28,.15,.52-.05,.76-.4,.51-.8,1.02-1.21,1.52Z"/>
    <path class="cls-48" d="M45.56,97.57c2.19,.96,4.41,1.79,6.72,2.45,1.96,.56,3.98,.55,5.96,.86,3.31,.51,6.62,.59,9.83-.71,.99-.4,2.07-.58,3.11-.86,1.95-.53,3.41-1.83,4.8-3.18,.64-.62,1.35-1.11,2.16-1.44,1.55-.64,2.54-1.83,3.48-3.16,.87-1.23,1.68-2.62,3.49-2.89,1.32-.2,2.17-1.14,2.55-2.46,.36-1.24,1.2-2.1,2.35-2.66,.43-.21,.75-.47,.95-.91,.77-1.76,2.17-2.99,3.46-4.37,1.57-1.68,3.14-3.45,4.13-5.59,.28-.07,.56-.14,.84-.21-.5,1.29-1.16,2.51-1.86,3.69-1.73,2.94-3.55,5.84-5.79,8.41-1.74,1.98-3.31,4.11-5.34,5.84-1.5,1.28-3.02,2.55-4.39,4.01-1.32,1.41-3.05,2.41-4.72,3.41-1.29,.77-2.6,1.49-3.95,2.14-3.51,1.67-7.25,2.14-11.09,2.07-.47,0-1.09,.17-1.39-.45-4.39-.07-8.67-.69-12.71-2.55-.9-.42-1.86-.69-2.58-1.43Z"/>
    <path class="cls-24" d="M60.85,101.55c1.36,.43,2.77,.24,4.14,.17,1.48-.08,2.94-.41,4.4-.68,2.4-.44,4.46-1.68,6.58-2.79,1.78-.93,3.34-2.2,5.03-3.28,1.14-.73,1.69-2,2.84-2.73,1.16-.74,2.14-1.77,3.12-2.72,1.66-1.62,3.15-3.41,4.63-5.2,1.19-1.44,2.35-2.92,3.36-4.49,1.55-2.41,2.97-4.91,4.45-7.38,.09-.17,.25-.21,.42-.21-1.44,2.57-2.7,5.23-4.11,7.82-1.55,2.83-3.45,5.38-5.52,7.79-1.18,1.37-2.49,2.66-3.8,3.94-1.64,1.61-3.52,2.9-5.19,4.45-1.17,1.09-2.56,1.79-3.93,2.52-1.43,.76-2.98,1.28-4.36,2.16-.42,.27-.87,.42-1.37,.43-.66,.32-1.45,.24-2.09,.63-.57,.01-1.1,.31-1.68,.21-.82,.28-1.69-.09-2.51,.21h-.42c-.7-.13-1.4,.26-2.09,0-.28,0-.56,0-.84,0-.18-.27-.47-.18-.72-.22-.4-.05-.51-.26-.33-.62Z"/>
    <path class="cls-3" d="M101.68,66.59c-.98,.46-1.54,1.35-2.25,2.1-1.08,1.13-2.67,1.03-4,1.57-1.33,.54-2.55,1.25-3.8,1.91-.81,.43-1.63,.74-2.52,.89-1.17-.04-2.05,.5-2.97,1.21-1.23,.95-2.7,1.42-4.31,.98-.28-.36-.09-.73-.03-1.1,.07-.21,.19-.39,.38-.47,1.66-.72,2.97-2.03,4.66-2.7,.79-.32,1.43-.82,1.91-1.54,.5-.75,1.09-1.44,1.82-1.98,1.29-.76,2.6-.73,3.86,.03,.85,.51,1.77,.81,2.7,1.08,.94,.27,1.5,.03,2.03-.8,.41-.64,.59-1.42,1.13-1.99,.28-.22,.47,0,.68,.14,.15,.13,.3,.27,.3,.49,.14,.06,.28,.12,.43,.18Z"/>
    <path class="cls-52" d="M101.26,66.41c-.11-.1-.22-.19-.32-.29-.53-.58-.67-1.34-.98-2.02-.44-.98-1.07-1.84-1.64-2.74-.06-.14-.12-.28-.18-.42,.13,0,.26,0,.39-.01,1.15,.72,1.66,1.9,2.18,3.06,.35,.78,.91,1.47,1,2.35-.15,.02-.3,.05-.45,.08Z"/>
    <path class="cls-16" d="M99.38,60.92c-.4-.7-1.09-.69-1.74-.62-1.16,.12-1.84-.43-2.42-1.38-.62-1.01-1.25-2.07-2.44-2.57-.31-.13-.69-.31-.63-.73,.06-.38,.47-.39,.75-.45,1.52-.34,3.05-.64,4.62-.53,.77,.05,1.35,.31,1.7,1.1,.69,1.54,1.5,3.04,2.25,4.56,.17,1.2,.99,2.27,.65,3.57-.07,.28,0,.58-.44,.41-.73-1.15-1.31-2.39-2.3-3.35Z"/>
    <path class="cls-8" d="M83.26,60.7c-.01-.64-.1-1.3,.88-1.28,.38,.01,.45-.38,.6-.64,1.3-.2,2.46-.88,3.76-1.07,.8-.12,1.6-.19,2.39-.1,1.43,.17,2.38,.97,2.94,2.33,.31,.76,.36,1.74,1.37,2.04,0,.31-.24,.35-.46,.41-.71,.11-1.23-.29-1.63-.77-1.62-1.97-3.7-2.24-6.02-1.71-.84-.13-1.6-.06-2.3,.56-.38,.33-.95,.61-1.52,.22Z"/>
    <path class="cls-40" d="M94.8,62.19c.13-.07,.27-.13,.4-.2,.4-.2,.77-.52,1.28-.41-.07,1.07-.13,2.14,.74,2.99,.21,.21,.35,.6,.73,.46,.39-.15,.36-.56,.33-.9-.04-.67-.33-1.27-.58-1.87-.1-.24-.35-.45-.17-.76,1.04,0,1.44,.83,1.91,1.52,.27,.39,.47,.85,.58,1.32-.19,1.08-.23,2.22-.92,3.15-.72,.97-1.63,1.02-2.28,.02-.55-.84-1.21-1.61-1.7-2.48-.49-.87-.96-1.8-.32-2.82Z"/>
    <path class="cls-7" d="M97.52,61.51c.61,.9,1.03,1.85,1.03,2.96,0,.47-.15,.84-.6,.99-.44,.15-.56-.27-.77-.53-.82-1-1.51-2.01-.71-3.35,.18-.08,.36-.16,.54-.25,.23-.11,.45-.2,.51,.17Z"/>
    <path class="cls-37" d="M97.52,61.51c-.17-.06-.34-.12-.51-.17,.44-.4,.87-.04,1.3,.03,1.55,1.21,2.05,3.01,2.62,4.76-.16-.14-.32-.27-.48-.41-.75-.23-.36-.99-.66-1.43-.48-1.15-1.03-2.25-2.27-2.77Z"/>
    <path class="cls-48" d="M44.93,96.94c0,.07,0,.14,0,.21-.69-.07-1.16-.43-1.46-1.04,.6,.09,.96,.58,1.47,.84Z"/>
    <path class="cls-21" d="M51.21,98.83c2.42,.18,4.83,.35,7.22,.77,.56,.1,1.15,.19,1.61-.18,1.08-.89,2.27-.95,3.54-.58,.17,.05,.33,.1,.5,.13,1.26,.28,2.19-.77,3.4-.8,1.21-.04,2.36-.37,2.83-1.72,.04-.12,.15-.28,.26-.32,1.23-.45,2.01-1.28,2.3-2.59,.05-.25,.43-.3,.71-.37,1.37-.37,2.07-1.82,1.52-3.1-.79-1.85-.28-2.56,1.73-2.43,1.09,.07,1.44-.22,1.61-1.39,.08-.57,.34-.88,.96-.84,.45,.03,.91,.03,1.36,0,1.03-.06,1.29-.54,.76-1.43-.13-.21-.28-.4-.4-.61-.37-.66-.09-1.06,.54-1.28,.22-.08,.48-.06,.72-.12,1.15-.32,1.3-.71,.66-1.69-.13-.2-.28-.4-.4-.61-.62-1.03-.43-1.61,.69-1.98,.52-.18,1.07-.29,1.61-.43,.26,.48-.06,.69-.41,.88-.27,.14-.6,.18-.85,.38-.37,1.1-.17,1.59,1.07,2.19,.8,.39,.81,.61,.35,1.43-.65,1.16-1.61,2.02-2.34,3.08-.47,.67-1.14,.91-1.91,.83-.94-.1-1.54,.22-1.8,1.17-.18,.66-.73,.89-1.37,.93-.38,.02-.75,.06-1.13,.17-.71,.21-.76,.63-.47,1.2,.09,.18,.22,.35,.35,.51,1,1.31,.88,1.52-.25,2.66-.77,.78-1.48,1.51-2.55,1.82-.42,.12-.55,.63-.85,.86-1.39,1.09-2.37,2.75-4.33,3.07-.57,.09-1.14,.26-1.68,.54-.96,.52-1.99,.77-3.1,.69-1.32-.09-2.65-.08-3.89,.5-.37,.17-.74,.12-1.12-.02-1.65-.63-3.38-.75-5.12-.7-.87,.03-1.64-.16-2.35-.64Z"/>
    <path class="cls-29" d="M83.68,78.51c.25-.58,1.27-.4,1.26-1.26,1.17-.92,2.33-1.85,3.51-2.75,.44-.33,.95-.53,1.52-.62,1.31-.21,2.49-.67,3.54-1.59,.99-.87,2.31-1.24,3.54-1.73,.54-.21,1.14-.29,1.71-.43-1.91,1.74-3.78,3.51-5.74,5.19-.76,.65-1.61,1.19-2.32,1.91-.69,.7-1.49,.99-2.54,.75-1.11-.26-2.25,.11-3.37,.28-.37,.06-.74,.17-1.11,.25Z"/>
    <path class="cls-43" d="M83.26,60.7c.73-.09,1.44-.23,1.93-.86,.54-.71,1.23-.07,1.84-.18,.04,.66-.52,.81-.94,.95-2.21,.74-3.71,2.42-5.3,3.97-.35,.35-.58,.8-.76,1.24-.93,2.24-2.4,4.26-2.62,6.77-.06,.62-.7,.96-.78,1.57-.04,.25-.28,.6,.11,.71,.32,.09,.49-.26,.53-.53,.22-1.76,1.36-2.3,2.97-2.46,1.09-.11,1.89-.76,2.37-1.82,.7-1.56,2.4-2.05,3.89-1.2,1.05,.59,1.17,.58,2.02-.3,.39-.4,.74-.84,1.3-1.03,.27-.09,.54-.16,.78,.08-1.66,2.8-4.56,4.05-7.16,5.67-.46,.29-1.03,.4-1.42,.82-.13,.12-.29,.19-.46,.24-1.35,.44-1.84,1.05-1.74,2.45,.07,1-.29,1.6-1.22,1.9-1.12,.36-1.99,1.14-2.93,1.79-.73,.51-1.01,1.35-.86,2.23,.17,.95-.14,1.63-.9,2.16-.29,.2-.51,.48-.64,.81-.62,1.54-1.5,2.97-1.96,4.59-.21,.73-.24,1.41-.07,2.14,.28,1.17,0,1.59-1.18,1.63-.87,.03-1.08,.41-.99,1.18,.09,.79-.15,1.45-.93,1.81-.1,.05-.2,.09-.31,.11-.91,.2-1.91-.19-2.74,.45-.65,.29-1.31,.35-2.02,.25-1.14-.16-2.28-.05-3.36,.38-1.3,.52-2.61,.65-3.95,.17-.69-.25-1.46,.05-2.14-.29-.25-.69,.38-.61,.69-.71,.62-.2,1.25,0,1.86,.13,.84,.17,1.67,.19,2.47-.11,1.37-.51,2.79-.6,4.23-.53,.69,.03,1.3-.1,1.82-.61,.59-.58,1.36-.43,2.09-.4,.97,.04,1.15-.09,1.01-1.05-.15-1.04,.17-1.78,1.09-2.26,.44-.23,.68-.54,.6-1.09-.24-1.78,.35-3.29,1.58-4.57,.47-.49,.71-1.03,.58-1.7-.13-.69-.37-.78-.88-.33-.37,.32-.68,.71-.93,1.13-.67,1.12-1.59,2.02-2.51,2.93-.47,.46-1.01,.89-1.3,1.49-.83,1.7-2.3,2.76-3.71,3.88-1.16,.92-2.6,.94-3.95,1.23-.54,.12-1.1,.16-1.63,.35-1.89,.69-3.83,.66-5.78,.32-1.98-.35-4.04-.35-5.88-1.35-.5-.27-.47,.15-.52,.44-.87,0-1.34-.81-2.09-1.05-.19-.75,.02-.92,.79-.69,2.35,.71,4.73,1.35,7.16,1.75,2.55,.42,5.01,.12,7.51-.46,2.16-.5,4.1-1.33,5.66-2.84,1.21-1.17,2.17-2.6,3.3-3.87,1.48-1.67,2.63-3.56,3.86-5.4,.13-.2,.32-.39,.4-.61,.96-2.6,2.48-4.92,3.44-7.54,1.35-3.68,2.97-7.26,5.2-10.51,.93-1.35,2.24-2.36,3.54-3.34Z"/>
    <path class="cls-4" d="M44.51,95.27c-.02-.36-.74-.37-.48-.8,.28-.46,.73-.09,1.02,.05,3.02,1.33,6.24,1.52,9.47,1.57,.51,0,1.04-.14,1.52-.32,1.41-.53,2.92-.57,4.36-.93,.27-.07,.6-.07,.79-.23,1.32-1.08,3.02-1.7,3.88-3.34,.46-.89,1.05-1.73,1.84-2.38,1.51-1.22,2.41-2.96,3.72-4.34,.73-.77,1-.7,1.24,.33,.17,.76,.16,1.46-.5,2.1-1.34,1.29-2.03,2.85-1.54,4.77,.11,.42-.04,.66-.48,.87-1.41,.67-1.46,.84-1.2,2.43,.15,.89-.24,1.22-1.17,1.11-.91-.1-1.88-.34-2.52,.7-.21,.33-.68,.3-1.07,.29-1.71-.07-3.41-.03-5.03,.63-.98,.4-1.93,.08-2.86-.1-.73-.14-1.37-.13-1.97,.3-.76,.55-1.61,.24-2.38,.12-.9-.15-1.81-.35-2.65-.75-1.31-.72-2.76-1.19-3.98-2.09Z"/>
    <path class="cls-50" d="M48.49,97.36c1.67,.28,3.3,.84,5.03,.63,1.02,.07,2.01-.03,3.04,.34,1.12,.41,2.29-.16,3.42-.48,1.38-.39,2.84-.14,4.26-.28,.27-.03,.53-.13,.79-.2,.94-.38,1.97-.14,2.93-.42h0c.8-.22,1.06-.76,1.06-1.56,0-1.03,.32-1.33,1.28-1.36,.92-.03,1.21-.29,.98-1.2-.27-1.04-.23-1.82,.87-2.33,.45-.21,.36-.73,.3-1.13-.15-.97,.27-1.77,.74-2.55,.36-.6,.95-.75,1.6-.84,1.07-.14,1.13-.25,.88-1.26-.13-.51-.19-1.02-.24-1.54-.12-1.22,.24-2.12,1.34-2.81,.9-.57,1.62-1.4,2.76-1.58,.55-.09,.53-.67,.56-1.11,.04-.55-.08-1.11,.12-1.66,.3-.8,.72-1.04,1.57-.85,1.93,.05,3.68-.33,5.08-1.81,.63-.67,1.46-.44,2.25-.28-1.55,.41-2.76,1.37-3.97,2.36-.73,.6-1.57,1.09-2.57,.98-1.13-.13-1.47,.54-1.62,1.45-.07,.44-.15,.89-.22,1.33-.08,.49-.41,.68-.83,.54-.83-.27-1.32,.23-1.59,.81-.25,.55-.56,.66-1.1,.72-1.23,.12-1.57,.63-1.19,1.83,.25,.79,.63,1.54,.9,2.33,.14,.4,.48,.86,.07,1.27-.37,.36-.84,.2-1.29,.1-1.54-.35-2.77,.85-2.47,2.4,.06,.31,.12,.62,.23,.91,.33,.87,.13,1.5-.76,1.85-.61,.24-.8,.73-.76,1.34,.06,1.02-.3,1.71-1.43,1.76-.48,.02-.72,.34-.79,.71-.26,1.5-1.34,1.92-2.64,2-1.61,.1-3.18,.67-4.84,.25-.82-.21-1.66,.06-2.41,.48-1.6,.89-3.23,.44-4.86,.13-.89-.3-1.83,.08-2.72-.21-1.03,.18-1.92-.53-2.93-.43-.28-.21-.56-.42-.84-.62Z"/>
    <path class="cls-35" d="M62.73,102.39c.7,.14,1.4-.57,2.09,0-.7,.33-1.4,.33-2.09,0Z"/>
    <path class="cls-35" d="M69.43,101.97c.6-.53,1.35-.56,2.09-.63-.59,.59-1.4,.42-2.09,.63Z"/>
    <path class="cls-35" d="M65.24,102.39c.81-.44,1.68-.1,2.51-.21-.81,.44-1.68,.1-2.51,.21Z"/>
    <path class="cls-1" d="M52.26,98.41c.9,.12,1.84-.25,2.72,.21-.9-.11-1.84,.25-2.72-.21Z"/>
    <path class="cls-27" d="M90.59,67.62c-.66,.03-1.18,.3-1.6,.83-.32,.4-.73,.75-1.15,1.05-.35,.25-.68,.28-1.1-.09-1.4-1.26-3.26-.81-3.98,.92-.53,1.28-1.56,1.81-2.84,1.89-1.34,.09-2.16,.76-2.32,2.06-.05,.45-.21,.8-.64,.99-.23,.1-.47,.17-.69-.02-.18-.16-.15-.39-.08-.58,.21-.54,.14-1.2,.71-1.57,.24-.16,.3-.39,.27-.64-.12-1.1,.35-2.05,.86-2.95,.75-1.34,1.03-2.88,1.94-4.15,1.43-1.98,3.06-3.71,5.38-4.69,.59-.25,1.27-.4,1.67-1,.47-.07,.96-.11,1.42-.22,2.19-.51,3.63,.76,5,2.14,.39,.39,.79,.65,1.35,.61-.19,1.44,.3,2.64,1.28,3.7,.25,.27,.45,.62,.61,.95,.29,.59,.67,1.19,1.35,1.13,.76-.08,1.18-.85,1.28-1.48,.13-.75,.47-1.45,.48-2.22,.39,.4,.35,1,.66,1.43-.38,.81-.68,1.67-1.16,2.42-.45,.69-1.13,1.11-2.05,.77-1-.37-2.06-.58-2.97-1.21-1.19-.81-2.44-.57-3.68-.07Z"/>
    <path class="cls-14" d="M81.79,75.16c-1.14,.2-1.56,.74-1.44,1.84,.18,1.68,.09,1.76-1.4,2.23-1.25,.39-2.28,1.33-3.01,2.27-.66,.86-.27,2.21,.03,3.32,.3,1.12,.22,1.29-.87,1.43-1.68,.22-2.51,1.34-2.35,3.03,.07,.67,.33,1.49-.84,1.66-.55,.08-.7,.65-.55,1.18,.12,.41,.16,.81,.17,1.23,.01,.72-.14,1.14-1.03,.92-.88-.22-1.28,.23-1.29,1.13,0,.81-.17,1.56-1.25,1.53,.77-.44,.99-1.13,.82-1.95-.19-.9,.18-1.2,1.04-1.2,1.36,0,1.45-.13,1.09-1.47-.21-.77-.16-1.49,.15-2.22,.51-1.2,.86-2.44,1.53-3.59,.47-.8,.7-1.69,1.58-2.22,.37-.22,.51-.67,.4-1.2-.31-1.48,.14-2.36,1.38-3.14,.96-.62,1.85-1.34,2.97-1.69,.68-.21,.64-.76,.59-1.36-.18-1.78,.75-2.78,2.49-2.78,.02,.37-.01,.72-.21,1.04Z"/>
    <path class="cls-14" d="M67.97,96.94c-.94,.39-1.93,.44-2.93,.42,.89-.78,1.96-.27,2.93-.42Z"/>
  </g>
</svg>