<?xml version="1.0" encoding="UTF-8"?>
<svg id="Layer_2" data-name="Layer 2" xmlns="http://www.w3.org/2000/svg" xmlns:xlink="http://www.w3.org/1999/xlink" viewBox="0 0 150 150">
  <defs>
    <style>
      .cls-1 {
        fill: #bb6c31;
      }

      .cls-2 {
        fill: #eeb45a;
      }

      .cls-3 {
        fill: #f5b65b;
      }

      .cls-4 {
        fill: #fed585;
      }

      .cls-5 {
        fill: #faca72;
      }

      .cls-6 {
        fill: #f7c56b;
      }

      .cls-7 {
        fill: #f8ce84;
      }

      .cls-8 {
        fill: #d49957;
      }

      .cls-9 {
        fill: #e19543;
      }

      .cls-10 {
        fill: url(#linear-gradient);
        stroke: #c3fcd2;
        stroke-width: 3px;
      }

      .cls-10, .cls-11 {
        stroke-miterlimit: 10;
      }

      .cls-12 {
        fill: #f5d59b;
      }

      .cls-13 {
        fill: #a3582f;
      }

      .cls-14 {
        fill: #f5cb84;
      }

      .cls-15 {
        fill: #e5a349;
      }

      .cls-16 {
        fill: #b8672d;
      }

      .cls-17 {
        fill: #d6a965;
      }

      .cls-18 {
        fill: #766658;
      }

      .cls-19 {
        fill: #cb7e36;
      }

      .cls-20 {
        fill: #e6be7c;
      }

      .cls-21 {
        fill: #c99750;
      }

      .cls-22 {
        fill: #be997d;
      }

      .cls-23 {
        fill: #e5a44b;
      }

      .cls-24 {
        fill: #efb15e;
      }

      .cls-25 {
        fill: #ad713d;
      }

      .cls-26 {
        fill: #fde8b7;
      }

      .cls-27 {
        fill: #d78e3c;
      }

      .cls-28 {
        fill: #fcd07c;
      }

      .cls-29 {
        fill: #fac471;
      }

      .cls-30 {
        fill: #fee3af;
      }

      .cls-11 {
        fill: none;
        stroke: #52ff87;
        stroke-width: 2.06px;
      }

      .cls-31 {
        fill: #d79442;
      }

      .cls-32 {
        fill: #f2ce8f;
      }

      .cls-33 {
        fill: #d1a25e;
      }

      .cls-34 {
        fill: #f7cd7d;
      }

      .cls-35 {
        fill: #eebf74;
      }

      .cls-36 {
        fill: #c06d2f;
      }

      .cls-37 {
        fill: #bf6f31;
      }

      .cls-38 {
        fill: #e8c385;
      }

      .cls-39 {
        fill: #fddf9a;
      }

      .cls-40 {
        fill: #e3b46e;
      }

      .cls-41 {
        fill: #ddaa65;
      }

      .cls-42 {
        fill: #c78a4b;
      }

      .cls-43 {
        fill: #fcdb9b;
      }

      .cls-44 {
        fill: #edbf75;
      }

      .cls-45 {
        fill: #f6bf5e;
      }

      .cls-46 {
        fill: #f5c16e;
      }

      .cls-47 {
        fill: #f9da9f;
      }

      .cls-48 {
        fill: #fde2aa;
      }

      .cls-49 {
        fill: #b38b6c;
      }

      .cls-50 {
        fill: #c7813a;
      }

      .cls-51 {
        fill: #d89a4a;
      }

      .cls-52 {
        fill: #ae5f2d;
      }

      .cls-53 {
        fill: #c77534;
      }

      .cls-54 {
        fill: #ce843a;
      }

      .cls-55 {
        fill: #ddb472;
      }

      .cls-56 {
        fill: #d99955;
      }
    </style>
    <linearGradient id="linear-gradient" x1="132.33" y1="42.28" x2="15.23" y2="107.84" gradientUnits="userSpaceOnUse">
      <stop offset="0" stop-color="#b6ff93"/>
      <stop offset=".19" stop-color="#56ed86"/>
      <stop offset="1" stop-color="#006833"/>
    </linearGradient>
  </defs>
  <polygon class="cls-10" points="136.47 111.14 136.47 38.87 73.88 2.73 11.28 38.87 11.28 111.14 73.88 147.28 136.47 111.14"/>
  <path class="cls-11" d="M95.45,110c-3.08,.07-5.7-1.27-8.04-3.01-3.7-2.75-7.36-5.59-10.79-8.66-5.47-4.9-10.9-9.87-16.06-15.09-5.69-5.77-11.83-11.13-16.73-17.66-2.06-2.75-3.87-5.69-3.54-9.28,.67-7.19,4.97-12.83,13.05-12.47,4.18,.19,7.9,2.01,11.04,4.76,3.61,3.16,7.15,6.41,10.62,9.72,5.23,4.99,10.46,10,15.55,15.14,4.8,4.85,9.76,9.56,13.84,15.09,1.78,2.41,3.04,5.04,3.53,8.01,.9,6.96-5.62,13.46-12.46,13.45Z"/>
  <g>
    <path class="cls-52" d="M87.8,106.66c-3.04-1.72-5.74-3.89-8.33-6.2-2.59-2.31-5.15-4.65-7.73-6.97-.27-.24-.55-.47-.6-.86-2.62-2.08-4.84-4.59-7.29-6.86-3.72-3.43-7.13-7.18-10.72-10.74-.41-.41-.82-.81-1.29-1.14-3.27-3.25-6.38-6.66-8.97-10.48-.97-1.42-1.72-2.96-1.95-4.71-.21-1.72-.23-3.43,.23-5.12,.02-.12,.07-.22,.16-.31,.87-.03,1.11,.65,1.35,1.27,.34,.86,.44,1.8,.67,2.69,.14,1.04,.96,1.53,1.71,2.06,.61,.43,1.33,.69,1.9,1.18,2.17,1.72,3.02,4.38,4.68,6.47,.93,1.18,1.98,2.25,3.01,3.33,.73,.76,1.27,1.51,1.5,2.52,.24,1.04,.67,1.97,1.65,2.54,.13,.08,.26,.16,.4,.24,1.46,.95,2.77,2.13,4.38,2.86,.46,.2,.9,.44,1.39,.53,.41,.13,.86,.18,1.1,.61-.26,1.5,.76,2.22,1.75,3.04,1.48,1.23,3.18,2.08,4.78,3.1,.48,.31,.97,.61,1.41,1,.97,.86,1.28,1.83,.75,3.09-.45,1.06-.23,1.74,.68,2.45,.94,.74,2.03,1.21,3.14,1.65,1.48,.65,2.97,1.28,4.53,1.71,.25,.07,.47,.18,.64,.38,.14,.17,.19,.41,.37,.53,2.7,1.72,4.79,4.33,8.02,5.32,1.67,.51,3.28,1.25,5.01,1.63,1.71,.38,3.41,.43,5.13,.16,.39,.06,.76-.09,1.15-.13,.45-.04,.95-.07,1,.6-.27,.42-.67,.67-1.13,.77-3.76,.8-7.32,.54-10.89-1.18-2.73-1.31-5.42-2.61-7.86-4.41-.94-.69-2.13-.86-3.16-1.36-.41-.2-.87-.3-1.29-.72,.09,.43,.4,.41,.54,.59,.24,.29,.23,.6,.01,.89-.2,.28-.5,.28-.78,.15-.52-.25-.95-.63-1.26-.91,1.7,1.38,3.36,3.07,5.22,4.51,.2,.15,.39,.41,.64,.37,1.44-.21,2.09,.71,2.64,1.78,.17,.33,.42,.51,.78,.43,.9-.21,1.29,.07,1.08,1.02-.02,.08,.1,.18,.13,.29,0,.17-.11,.28-.26,.34Z"/>
    <path class="cls-4" d="M69.67,53.91c.92,.49,1.64,1.25,2.38,1.94,2.51,2.33,5.02,4.64,7.42,7.09,1.95,1.99,3.98,3.89,5.98,5.83,.15,.15,.26,.33,.39,.5-.6,.72-.96,.05-1.29-.28-.55-.55-.97-1.21-1.7-1.59,.62,1.14,.79,2.5,1.93,3.37,.95,.73,1.36,1.92,2.19,2.78,.59,.6,1.54,.71,1.92,1.51,.84,1.74,2.38,2.81,3.83,3.95,1.07,.84,1.87,1.88,2.7,2.92,.2,.25,.23,.51,.19,.81-.05,.35,.09,.64,.34,.87,.53,.49,.83,1.11,.92,1.79,.2,1.61,.91,3.06,1.37,4.58,.06,.18,.04,.35-.1,.5-1.21-.09-2.36-.4-3.41-1.03,.16-.77-.18-1.14-.94-1.26-1.18-.19-2.13-.8-2.88-1.72-1.29-1.61-3.06-2.69-4.53-4.1-.62-.59-1.09-1.25-.98-2.17,.11-.85-.77-.83-1.11-1.27,.52-.73,1.34-.52,2.04-.63,.74-.12,1.48-.16,2.28-.37-.06-.41-.6-.41-.65-.77,.06-.16,.06-.24-.14-.36-4.32-2.65-8.97-4.4-13.94-5.32-.42-.08-.85-.14-1.21-.39-.4-.88-1.04-1.69-.45-2.78,.25-.45-.19-.85-.6-1.12-.65-.44-1.33-.83-1.95-1.32-1.02-.83-1.16-1.32-.52-2.48,.33-.6,.39-1.04-.18-1.47,.24-.7,.87-.67,1.4-.68,1.07,0,2.12-.21,3.31-.3-.94-.91-2.27-1.14-2.99-2.16-.01-.11,.17-.21,.13-.22-.42-.13-.75-.34-.92-.76,.02-1.26-.95-1.87-1.76-2.55-1.03-.86-1.88-1.92-2.95-2.74-.76-.58-1.62-1.08-1.92-2.09-.17-.55-.82-1.12-.28-1.67,.56-.56,1,.26,1.51,.4,.06,0,.12,.03,.18,.05,.22,.93,1.27,1.01,1.74,1.68h0c.52,.57,1.01,1.17,1.73,1.51,.06,0,.13,.02,.18,.06,.15,.76,.79,1.07,1.34,1.46Z"/>
    <path class="cls-39" d="M64.49,49.16c-.14,0-.29,0-.43-.01-.36-.03-.65-.69-1.01-.21-.26,.35,.17,.72,.32,1.07,.37,.86,1.06,1.42,1.7,2.08,.75,.77,1.92,1.07,2.37,2.24,.26,.66,1.15,.99,1.75,1.48,.71,.58,.97,1.18,.88,2.02-.75,.34-1.31-.22-1.88-.48-3.17-1.45-6.47-2.46-9.88-3.12-.35-.07-.7-.14-.99-.38-.97-2.78-2.8-5.05-4.46-7.42-.14-.21-.27-.52-.51-.53-.9-.03-.89-1.12-1.64-1.34-.18-.05-.19-.38,.14-.44,.28-.06,.58,.08,.84-.1,3.56-.4,6.62,1.03,9.58,2.73,1.16,.66,2.4,1.26,3.2,2.42Z"/>
    <path class="cls-29" d="M98.15,90.41c-.78-1.7-1.28-3.5-1.66-5.32-.11-.54-.35-.92-.73-1.27-.37-.34-.59-.62-.44-1.27,.16-.67-.67-1.16-1.07-1.66-1.15-1.44-2.67-2.53-4.2-3.57-.77-.52-.63-1.57-1.37-2.09-.16-.11-.19-.47-.45-.55-1.3-.45-1.96-1.53-2.72-2.57-.9-1.25-2.16-2.25-2.66-3.78-.03-.1-.17-.18-.17-.27,0-.42-.49-.96-.16-1.19,.42-.3,.69,.34,.96,.61,.56,.55,1.05,1.17,1.61,1.72,.16,.15,.45,.44,.74,.08,1.59,1.23,2.86,2.79,4.27,4.21,1.59,1.6,3.1,3.28,4.81,4.76,.16,.13,.24,.35,.36,.52-.25,.39-.5,.7-.01,1.2,1.86,1.92,2.79,4.38,3.77,6.79,.69,1.7,1.42,3.36,3.01,4.44,.09,.06,.18,.12,.26,.19,.26,.24,.64,.5,.4,.89-.22,.36-.58,.06-.87-.04-.2-.07-.39-.18-.59-.26-.81-.31-1.57-.72-2.38-.99-.3-.1-.63-.2-.72-.57Z"/>
    <path class="cls-24" d="M99.25,83.08c2.73,2.97,5.43,5.97,6.94,9.81,.26,.67,.44,1.35,.53,2.06-.32,.28-.41,.66-.47,1.05-.4,2.36-1.6,3.42-3.93,2.83-2.05-.51-4.21-.89-5.98-2.23-.14-.11-.3-.2-.39-.36,.17-.59,.71-.43,1.12-.55,.4-.12,.83-.13,1.22-.3,1.35-.4,2.74-.63,4.06-1.1,.1-.02,.21-.02,.32-.04,1.79-.28,1.95-.64,.85-2.05-1.19-1.52-2.47-2.98-3.63-4.52-.63-.84-.99-1.87-1.49-2.8-.39-.72-.67-1.5-1.25-2.12-.2-.21-.33-.47-.38-.76-.06-.31-.23-.7,.16-.86,.32-.13,.46,.22,.65,.43,.5,.56,1.07,1.05,1.68,1.48Z"/>
    <path class="cls-51" d="M95.99,96.27c.49-.07,.75,.36,1.12,.52,2.09,.89,4.19,1.81,6.52,1.84,1.25,.02,2.25-1.04,2.3-2.3,.02-.58-.19-1.33,.79-1.39,.88,2.94,.04,5.58-1.43,8.11-.09,.16-.22,.29-.42,.3-.35-.46,.04-.81,.21-1.17,.18-.39,.47-.72,.55-1.16,.03-.24,.19-.46,.1-.8-2.37,.95-4.8,.94-7.26,.43-.75-.15-1.46-.38-2.07-.83-.83-.62-1.74-1.14-2.58-1.75-.84-.61-1.74-.95-2.8-.88-.82,.05-1.65,0-2.47,.03-.42-.1-1.03,.17-1.14-.55,.58-.42,1.25-.25,1.89-.27,.64,.02,1.28,0,1.92,0,.93-.03,1.87,.12,2.8-.12,.66-.03,1.33-.48,1.99,0Z"/>
    <path class="cls-28" d="M51.7,44.01c-.22,.32-.61,.12-.89,.27,.07,.44,.41,.31,.65,.37,.17,.04,.32,.12,.48,.18-.73,1.29,1.03,.31,1.09,1.2,.04,.67,.78,1.31,1.26,1.94,1.16,1.53,2.23,3.11,2.93,4.91,.1,.26,.08,.56,.12,.84-.53,.47-1.1,.2-1.66,.1-.25-.02-.5-.04-.75-.04-.96,0-1.51-.45-1.78-1.39-.62-2.13-1.73-4-3.24-5.63-1.26-1.35-2.06-1.4-3.49-.24-.17,.14-.34,.27-.52,.39-.98,.6-1.75,1.43-2.44,2.33-.11,.1-.24,.19-.39,.22-.17,0-.28-.09-.33-.25,.52-.93,1.36-1.58,2.07-2.35,1.88-2.02,4.29-2.67,6.91-2.86Z"/>
    <path class="cls-46" d="M99.25,83.08c-.92-.35-1.65-.94-2.18-1.83-.22,.77-.25,1.04,.18,1.33,.61,.42,.88,1.04,1.15,1.66,1.02,2.39,2.53,4.45,4.19,6.41,.6,.71,1.16,1.45,1.74,2.17,.52,.65,.41,1.08-.42,1.34-.47,.15-.91,.44-1.44,.36,0-.64,.74-.44,.96-.83-.58-.82-1.8-.73-2.31-1.64,0-.18,.11-.27,.26-.34,.38,.18,.77,.35,1.24,.57-.05-.62-.52-.72-.83-.94-1.57-1.13-2.42-2.73-2.98-4.51-.46-1.43-1.3-2.68-1.88-4.05-.47-1.11-1.18-2.02-2.11-2.79-.58-.48-.44-.83,.45-1.24,1.36,1.4,2.77,2.76,3.97,4.31Z"/>
    <path class="cls-49" d="M51.98,73.79c1.49,.96,2.62,2.32,3.81,3.58,4.57,4.84,9.43,9.38,14.21,14,.41,.39,.91,.71,1.14,1.26-1.12-.46-1.95-1.35-2.79-2.15-5.68-5.35-11.18-10.88-16.64-16.45-.03-.22,.04-.32,.27-.24Z"/>
    <path class="cls-22" d="M51.98,73.79c-.09,.08-.18,.16-.27,.24-4.01-3.88-7.79-7.94-10.39-12.96-.38-.74-.66-1.52-.65-2.36,.26-.16,.34,.06,.46,.2,.71,3.07,2.58,5.47,4.51,7.85,1.99,2.45,4.19,4.71,6.34,7.03Z"/>
    <path class="cls-51" d="M87.8,106.66c.06-.09,.12-.19,.18-.28,.37-.27,.67-.03,.98,.15,5,2.87,9.96,2.22,14.09-1.85,.23-.23,.48-.43,.69-.68,.26-.2,.47-.5,.86-.37-.35,1.39-1.53,2.09-2.5,2.92-1,.85-2.14,1.52-3.45,1.81-2.24,.66-4.49,.87-6.76,.21-1.56-.21-2.86-.98-4.09-1.91Z"/>
    <path class="cls-25" d="M104.61,103.64c-.2,.14-.41,.28-.61,.42-.23,.13-.45,.18-.67-.02-.37-.46-.85-.49-1.28-.19-.29,.2-.45,.04-.66-.02-.04-.49,.5-.8,.43-1.31,1.28-.69,2.57-1.35,4.09-1.29-.26,.75-.94,1.3-1.04,2.13-.09,.09-.18,.19-.26,.28Z"/>
    <path class="cls-53" d="M41.13,58.91c-.15-.07-.3-.14-.46-.2,0,0,.03-.01,.03-.01-.17-1.35-.16-2.71-.01-4.06,.08-.39,.16-.77,.24-1.16,.14-.11,.28-.11,.41,.01-.39,1.79-.23,3.61-.21,5.42Z"/>
    <path class="cls-13" d="M91.89,108.57c2.27,.48,4.52,.24,6.76-.21-2.23,.91-4.48,1.09-6.76,.21Z"/>
    <path class="cls-3" d="M42.73,49.21c.11,.06,.22,.12,.34,.17-.04,1.09-.77,1.82-1.39,2.61-.1,.05-.19,.04-.29-.02,.29-.99,.77-1.9,1.34-2.76Z"/>
    <path class="cls-39" d="M68.14,52.4c-.93-.09-1.48-.62-1.73-1.5,.8,.24,1.21,.93,1.73,1.5Z"/>
    <path class="cls-18" d="M40.69,54.64c0,1.35,0,2.71,.01,4.06-.38-1.35-.38-2.71-.01-4.06Z"/>
    <path class="cls-39" d="M69.67,53.91c-.59-.06-.96-.49-1.4-.82-.35-.26-.15-.45,.06-.64,.55,.39,.92,.95,1.34,1.46Z"/>
    <path class="cls-39" d="M66.41,50.9c-.64-.5-1.73-.53-1.74-1.68,.46,.69,1.46,.82,1.74,1.68Z"/>
    <path class="cls-9" d="M41.39,51.97c.05,0,.1,.01,.16,.01,.38,.5,.35,.94-.2,1.29,0,.07-.01,.14-.02,.21-.14,0-.28,0-.41-.01-.02-.56,.23-1.03,.47-1.51Z"/>
    <path class="cls-13" d="M103.33,104.04c.22,0,.44,.01,.67,.02-3.26,3.86-7.36,5.23-12.28,4.08-1.12-.26-2.13-.83-3.06-1.5-.22-.16-.44-.21-.68-.26,.12-.3-1.29-.17-.21-.75,.15-.08,.12-.25,0-.36-.18-.16-.41-.18-.61-.1-.88,.34-1.43,.24-1.39-.88,.02-.66-.91-.24-1.05-.88-.13-.56-.53-.71-1.04-.25-.29,.26-.54-.12-.73-.26-2.15-1.68-4.1-3.57-6.11-5.4-.07-.06-.08-.18-.12-.27,.47-.24,.65,.1,.88,.38,.37,.45,.8,.82,1.35,1.05,.28,.11,.51,.12,.59-.2,.05-.21,.18-.55-.27-.52-.26,.02-.42-.12-.51-.32-.11-.24-.4-.52-.12-.77,.23-.2,.54,.02,.65,.18,.47,.7,1.31,.78,1.94,.97,2.02,.59,3.65,1.8,5.25,3.05,.91,.7,1.92,1.11,2.97,1.46,1.86,.61,3.46,1.84,5.43,2.25,2.47,.51,4.9,.35,7.33-.1,.4-.07,.75-.4,1.13-.61Z"/>
    <path class="cls-37" d="M77.42,94.11c-1.17-.37-2.24-.95-3.24-1.65-.94-.66-1.17-1.63-.75-2.7,.57-1.44,.44-2.06-.9-3.03-1.21-.88-2.55-1.58-3.82-2.37-1.41-.87-2.77-1.89-3.87-3.17-.44-.51,.14-1.03,.05-1.54,.37-.34,.78-.19,1.19-.11,1.2,.17,2.44,.14,3.53,.81,.55,.95,1.4,1.51,2.44,1.8,.56,.16,1.02,.49,1.47,.87,1.19,1.01,1.91,2.42,2.99,3.51,.32,.32,.37,.79,.25,1.22-.13,.46-.08,.92-.1,1.38-.28,.5-.84,.59-1.28,.87-1.32,.76-1.38,1.27-.22,2.21,.47,.39,1.03,.65,1.53,1,.33,.23,.82,.36,.74,.92Z"/>
    <path class="cls-16" d="M101.83,102.75c.3,.16,.5,.34,.09,.59-.21,.13-.43,.24-.53,.49-2.18,.59-4.33,.23-6.43-.33-2.46-.66-4.84-1.6-7.04-2.88-1.85-1.07-3.19-2.86-5.11-3.87-.25-.13-.21-.44-.21-.69,.18-.2,.42-.22,.66-.2,1.33,.21,2.64,.49,3.96,.71,.04,.04,.08,.08,.12,.13,.38,.37,.86,.15,1.3,.22,.86,.39,1.61,.94,2.3,1.58,2.76,2.55,6.03,3.83,9.76,3.96,.39,.01,.8-.04,1.12,.28Z"/>
    <path class="cls-1" d="M57.76,75.53c-1.24-.4-1.61-1.49-1.87-2.56-.26-1.05-.8-1.78-1.54-2.57-1.39-1.5-2.84-2.96-3.94-4.74-.6-.97-1.33-1.87-1.73-2.95-.37-1-1.5-1.21-1.93-2.11,.53-.29,.9,.14,1.34,.28,.51,.27,1.01,.54,1.55,.75,.67,.26,1.21,.71,1.46,1.37,.38,1.03,1.07,1.87,1.57,2.82,.17,.32,.36,.64,.65,.85,1.89,1.41,3.15,3.32,4.29,5.33,.16,.28,.38,.42,.67,.48,.28,.09,.49,.25,.46,.58-.04,.16-.13,.29-.24,.4-1.01,.41-.44,1.39-.74,2.05Z"/>
    <path class="cls-17" d="M58.38,73.37c.08-.08,.16-.16,.24-.24,.85-1.19,2.1-1.49,3.46-1.56,.05,.05,.13,.11,.12,.17-.19,2.64,1.8,3.75,3.56,4.97,.65,.45,1.3,.88,1.85,1.44,.5,.51,.6,.99-.24,1.27-.47,.09-.99,0-1.38,.39-.37-.06-.73-.12-1.1-.18-.3-.28-.71-.31-1.07-.45-.09-.08-.15-.23-.08-.28,.91-.68,.27-1.06-.26-1.47-1.23-.96-2.7-1.43-4.09-2.08-.71-.33-1.48-.69-1.17-1.74,.05-.09,.11-.17,.17-.25Z"/>
    <path class="cls-53" d="M41.35,53.28c.23-.41,.23-.85,.2-1.29,.5-.87,1.01-1.73,1.51-2.6,.07-.07,.15-.14,.22-.22,1.41,.87,1.94,2.26,2.18,3.8,.25,1.56,.23,1.55,1.72,1.14,.51-.14,1.09-.49,1.52,.17-.58,.59-1.43,.6-2.12,.95-.48,.24-.98,.44-1.42,.75-.44,.23-.77,.59-1.13,.91-.27,.24-.48,.63-.95,.51-.15-.7-.29-1.39-.46-2.08-.2-.81-.47-1.59-1.27-2.03Z"/>
    <path class="cls-56" d="M43.08,57.39c.74-.38,1.04-1.33,1.93-1.53,.27,1.06,.96,1.66,1.99,2.03,.94,.34,1.78,.93,2.59,1.53,.57,.42,.82,.91,.13,1.49,.49,.25,1.02,.35,1.52,.53,.29,.19,.81,.19,.66,.76-.5,.26-1,.08-1.42-.13-.79-.4-1.63-.65-2.43-1.01-.43-.15-.86-.3-1.29-.45-1.06-.69-2.27-1.15-3.14-2.12-.29-.32-.62-.6-.53-1.09Z"/>
    <path class="cls-8" d="M58.4,73.58c-.24,.87,.35,1.22,.98,1.52,1.32,.63,2.77,.97,3.93,1.91,.28,.22,.66,.36,.86,.63,.33,.45,1.14,1.09-.24,1.26-.05,0-.07,.19-.11,.28-2.14-.61-3.83-1.97-5.56-3.27-.09-.06-.17-.12-.26-.18-.17-.43-.23-.88-.22-1.34,.01-.41,.1-.79,.63-.81Z"/>
    <path class="cls-42" d="M83.25,96.06c-.22,0-.43,0-.65,0-1.78-.51-3.53-1.11-5.18-1.96-.69-.86-1.81-1.12-2.61-1.84-1.21-1.11-1.1-1.78,.45-2.47-.08,1.49,.13,1.87,1.58,2.49,1.77,.75,3.39,1.85,5.29,2.33,.63,.16,1.27,.56,1.12,1.45Z"/>
    <path class="cls-19" d="M58.4,73.58c-.81,.59-.28,1.43-.41,2.15-.08-.07-.15-.13-.23-.2-.14-.82-.68-1.76,.62-2.17,.02,.07,.02,.14,.02,.21Z"/>
    <path class="cls-30" d="M88.01,77.04c.11,.09,.23,.16,.33,.26,.25,.28,.97-.02,.89,.53-.09,.55-.72,.41-1.15,.52-1.23,.31-2.55,.07-3.74,.62-1.12,.58-2.36,.6-3.57,.73-1.84-.18-3.04-1.09-3.49-2.96-.24-.98-.69-1.88-1.59-2.48-.36-.24-.72-.55-.5-1.06,.22-.51,.68-.41,1.12-.4,1.34,.05,2.62,.4,3.89,.8,.69,.21,1.39,.35,2.1,.37,1.86,.59,3.5,1.63,5.22,2.51,.22,.12,.39,.32,.5,.55Z"/>
    <path class="cls-6" d="M80.66,79.42c1.24,.02,2.41-.5,3.66-.44,.94,0,1.44,.29,1.33,1.4-.14,1.4,1.07,2.09,1.96,2.76,1.09,.83,2.13,1.69,3.03,2.71,1.02,1.17,2.18,2.04,3.77,2.23,.42,.05,.76,.3,.85,.72,.09,.41-.46,.26-.56,.54-.31,.32-.67,.19-1.01,.09-2.1-.61-4.26-.96-6.41-1.37-.49-.18-.76-.49-.7-1.05,.11-.96-.37-1.67-1.12-2.18-1.62-1.09-3.05-2.37-4.17-3.98-.33-.48-.77-.72-1.36-.74-.31-.01-.66,.02-.83-.36,.39-.72,1.1,.04,1.56-.33Z"/>
    <path class="cls-26" d="M70.72,58.69c.94,.58,1.89,1.14,2.83,1.73,.28,.17,.82,.2,.7,.66-.1,.36-.57,.13-.86,.2-1.45,.35-3.01-.12-4.4,.64-1.28,.43-2.6,.62-3.94,.73-.52-.01-.86-.2-.95-.79-.12-.84-.89-1.26-1.33-1.91-.78-1.13-.8-1.29,.23-2.24,.27-.25-.05-.34-.06-.51-.02-.8,.48-1.28,1.11-.89,1.01,.63,2.19,.59,3.24,1.02,.68,.28,1.29,.81,2.1,.66,.51,.1,.98,.29,1.32,.7Z"/>
    <path class="cls-5" d="M64.9,62.36c1.39,.06,2.68-.7,4.09-.44,.96,.23,1.09,.51,.59,1.26-.88,1.32-.78,1.86,.58,2.77,.59,.4,1.18,.79,1.8,1.13,.53,.28,.81,1.03,.64,1.21-.83,.88-.05,1.61,.07,2.39,.02,.1,0,.21,0,.32-.8,.64-1.65,.13-2.45,.04-.74-.09-1.47-.17-2.22-.16-.42,.01-.84,.02-1.24-.14-.6-.58-.07-.96,.31-1.18,1.98-1.17,1.46-1.84,.01-3.29-.69-.69-1.42-1.28-1.24-2.45,.1-.71-.57-.67-1.06-.75-.56-.09-1.23,.26-1.66-.4,.48-.76,1.23,.07,1.77-.3Z"/>
    <path class="cls-21" d="M87.14,87.83c2.35,.25,4.65,.77,6.93,1.42,.2,.06,.42,.06,.63,.09,1.15,.36,2.3,.71,3.45,1.07,1.08,.44,2.15,.88,3.23,1.33-.07,.08-.14,.15-.2,.23-.31,.23-.62,.08-.91-.04-2.24-.92-4.57-1.6-6.92-2.15-1.38-.33-2.8-.54-4.18-.87-2.01-.47-4.05-.26-6.08-.3-.68-.01-1.36,.05-2.03-.07-.12-.03-.24-.09-.34-.17-.19-.42,.15-.48,.4-.54,.38-.08,.77-.14,1.1-.36,.36-.14,.74-.16,1.12-.15,1.3-.04,2.61-.13,3.81,.51Z"/>
    <path class="cls-40" d="M67.92,70.57c1.61-.18,3.15,.52,4.76,.43,5.18,.8,10.05,2.51,14.58,5.15,.36,.21,.68,.51,1.01,.77,0,0-.02,.08-.05,.08-.07,.02-.14,.03-.21,.05-1.8-1.08-3.66-2.07-5.63-2.8-2.33-.64-4.61-1.49-6.99-1.97-1.25-.31-2.52-.5-3.82-.54-.85,0-1.67-.1-2.48-.35-.32-.37-1.05-.16-1.17-.82Z"/>
    <path class="cls-44" d="M70.72,58.69c-.42-.15-.85-.3-1.27-.45-2.46-.94-4.93-1.85-7.46-2.61-1.65-.56-3.4-.64-5.08-1.05-.62-.31-1.41,.11-1.97-.46-.05-.5,.51-.33,.66-.62,.57,.16,1.14,.27,1.73,.21,4.44,.78,8.65,2.26,12.74,4.11,.27,.2,.55,.39,.79,.62,.29,.27-.05,.19-.15,.25Z"/>
    <path class="cls-12" d="M93.4,89.56c2.69,.47,5.24,1.42,7.77,2.41,.78,.77,2.04,.82,2.72,1.83-.5,.26-.96,.5-1.43,.74-1.33,.5-2.72,.78-4.1,1.08-.62,.15-1.25,.03-1.88,.03-.27,0-.65,0-.69-.35-.05-.4,.3-.51,.63-.53-.32-.08-.57,.14-.85,.24-.42,.14-.85,.26-1.3,.16-.65-.17-1.34-.16-1.98-.41-.57-.21-.77-.7-.97-1.22-.31-.77-.76-1.47-1.05-2.25-.39-1.01-.2-1.4,.89-1.51,.75-.08,1.51,0,2.25-.22Z"/>
    <path class="cls-7" d="M95.56,94.76c.58-.27,1.2-.29,1.92-.38-.4,.67-1.12,.42-1.64,.9,.91,.12,1.72,.23,2.53,.34-.72,.48-1.64,.21-2.38,.65-.65,.07-1.3,.15-1.95,.22-.92,.28-1.88-.08-2.79,.19-.65,0-1.3,0-1.95,0-.24-.53,.19-.58,.51-.66,.37-.1,.76-.07,1.13-.19,1.56-.27,3.12-.55,4.62-1.07Z"/>
    <path class="cls-50" d="M101.83,102.75c-5.39,.32-9.51-2.26-13.18-5.82,.29,0,.58,.04,.86-.02,2.52-.48,4.53,.66,6.33,2.17,1.17,.98,2.51,1.26,3.92,1.51,1.61,.28,3.18,.1,4.75-.22,.63-.13,1.13-.52,1.74-.84,.21,.69-.44,1.12-.34,1.7-1.34,.55-2.81,.77-4.08,1.52Z"/>
    <path class="cls-55" d="M91.03,96.05c-.46,.53-1.38-.22-1.73,.63-.65,0-1.3,.02-1.95,.02,0,0,0,0,0,0-.38-.29-.92,.11-1.3-.27,.09-.44,.54-.31,.91-.61-1.58-.5-1.8-2.17-2.92-3.08-.65-.53-1.29-1-2.12-1.24-.83-.24-1.46-.73-1.77-1.6-.35-.99-.3-1.16,.72-1.62,2.58,.07,5.16-.2,7.73,.21,.24,.04,.51-.01,.69,.22-1,.48-2.1,.32-3.14,.48-.96,.15-1.07,.33-.55,1.15,.23,.37,.49,.71,.85,.97,.85,.63,1.53,1.41,2.06,2.32,.48,.84,1.07,1.51,2.03,1.83,.25,.08,.56,.21,.5,.59Z"/>
    <path class="cls-55" d="M91.25,96.68c.91-.43,1.86-.1,2.79-.19-.91,.44-1.86,.12-2.79,.19Z"/>
    <path class="cls-3" d="M55.6,53.5c-.02,.44-.34,.43-.65,.43-.64,.47-1.32,.34-2.01,.16-.23-.01,.05-.51-.46-.38-.79,.2-1.63,.05-2.44,.22-.41,.09-.82-.08-.92-.55-.54-2.52-2.11-4.5-3.47-6.59,.76-.54,1.28-1.38,2.45-1.36,.61,.01,1.02,.13,1.4,.5,1.71,1.64,2.94,3.6,3.73,5.82,.61,1.73,.57,1.74,2.36,1.75Z"/>
    <path class="cls-9" d="M45.66,46.79c.75,.05,.74,.79,1.09,1.21,1.27,1.53,2.18,3.26,2.58,5.21,.11,.52,.43,.57,.77,.46,1.02-.31,2.05-.09,3.09-.19,.02,.33-.36,.21-.4,.43-.07,.1-.17,.17-.28,.22-1.23,.05-2.45,.32-3.69,.32-.04-.04-.09-.08-.13-.12-.82-.5-1.51,.12-2.21,.32-.68,.19-1.2,0-1.19-.61,.04-1.94-.84-3.46-2-4.88,.57-1.02,1.4-1.77,2.37-2.38Z"/>
    <path class="cls-33" d="M80.88,88.28c-1.01,.98-.53,2.52,1.01,2.95,1.62,.45,2.76,1.38,3.51,2.85,.32,.62,.82,1.06,1.43,1.39,.25,.14,.73,.18,.6,.61-.1,.33-.5,.13-.77,.18-.13,.02-.26,.04-.44,.06,.37,.31,.86-.03,1.13,.37-1.41,.06-2.76-.25-4.1-.63-.35-1.17-1.42-1.32-2.36-1.62-1.86-.58-3.49-1.64-5.19-2.53-1.01-.53-1.05-1.15-.43-2.13,.43-.22,.86-.44,1.29-.66,1.26-.79,2.55-1.44,4.1-.86,.08,0,.15,.01,.23,.02Z"/>
    <path class="cls-54" d="M80.65,88.27c-1.46-.13-2.74,.54-4.1,.86-.09-.4-.5-.72-.09-1.23,.24-.3,.23-.88-.11-1.2-1.22-1.12-1.94-2.66-3.23-3.72-.5-.41-1.1-.51-1.64-.77-.78-.37-1.75-.57-1.84-1.69,.41-.43,.92-.31,1.42-.25,.55,.21,1.15,.09,1.7,.27,.5,.4,1.03,.73,1.63,.99,1.17,.5,2.15,1.25,2.71,2.46,.27,.6,.76,1.04,1.24,1.46,.73,.65,1.05,1.35,.26,2.3,.98-.04,1.79-.29,2.62-.39,.34,0,.69-.02,.95,.27-.22,.88-1.15,.09-1.51,.64Z"/>
    <path class="cls-34" d="M71.15,80.5c-.51,0-1.01,.02-1.52,.03-1.18-.41-2.4-.65-3.65-.71,.11-.86,.79-.53,1.28-.61,.83,.05,1.65-.2,2.49-.08,.86,.16,1.71,.11,2.55-.14,1.04-.19,1.98,.2,2.9,.58,.37,.15,.79,.38,.7,.93-.3,.32-.7,.29-1.09,.3-1.23,.04-2.44-.18-3.66-.3Z"/>
    <path class="cls-19" d="M62.09,71.65c-1.23,.32-2.43,.71-3.47,1.48,0-.28-.16-.4-.43-.41-.4-.44-.25-1.03-.42-1.53-.54-1.61-1.51-2.93-2.71-4.07-1.03-.98-1.95-2.02-2.14-3.49-.07-.51-.69-.76-.54-1.34,.42-.29,.86-.16,1.3-.04,.38,.06,.73,.19,1.08,.34,.57,.19,.94,.58,1.28,1.08,1,1.49,2.16,2.86,3.14,4.37,.5,.77,.93,1.55,.83,2.5-.1,.92,.34,.96,1.02,.71,.32-.08,.63-.15,.94-.26,.65-.11,1.34-.62,1.89,.2-.49,.55-1.07,.74-1.77,.47Z"/>
    <path class="cls-36" d="M52.37,62.35c.52,.42,.78,.91,.9,1.61,.2,1.14,.98,1.99,1.8,2.8,1.67,1.64,3.2,3.39,3.12,5.96-.34,0-.64-.02-.81-.39-.98-2.09-2.29-3.91-4.14-5.36-.93-.73-1.47-1.88-1.92-2.94-.52-1.22-1.19-2.08-2.46-2.48-.29-.09-.54-.33-.81-.5,1.36,.13,2.51,1.01,3.89,1.07,.24-.12,.43-.13,.43,.22Z"/>
    <path class="cls-40" d="M62.09,71.65c.57-.15,1.14-.29,1.71-.44,.4-.35,.86-.31,1.33-.18,.55,.45,.04,.66-.22,.88-1.04,.86-1.03,.84-.22,1.91,.81,1.08,1.77,1.99,2.97,2.6,.9,.46,1.47,1.25,2.05,2.02,.21,.28,.44,.6,.16,.97-.86-.11-1.76,.23-2.59-.21,.84-.18,.53-.48,.15-.91-.76-.85-1.79-1.3-2.7-1.92-1.06-.73-1.79-1.73-2.61-2.67-.58-.67-.01-1.37-.02-2.06Z"/>
    <path class="cls-41" d="M51.08,61.69c-.69-.25-1.39-.49-2.08-.74,.13-.58,.97-.05,.94-.69-.03-.55-.56-.71-.94-.93-.94-.57-1.84-1.21-2.91-1.55-.93-.3-1.22-.99-1.07-1.92,1.05-.94,2.33-1.3,3.68-1.53,0,0,0,.05,0,.05,.07,.43,.23,.8,.5,1.16,1.13,1.48,2.29,2.93,3.52,4.31,.19,.21,.39,.42,.51,.68,.37,.75,.12,1.12-.71,1.22-.49,.06-.94-.41-1.43-.06Z"/>
    <path class="cls-35" d="M51.08,61.69c.2-.77,.68-.16,1.03-.2,.34-.05,.8,.18,1-.17,.23-.4-.1-.76-.37-1.04-1.52-1.58-2.76-3.38-4.18-5.04-.36-.42-.17-.61,.12-.85,1.27-.39,2.57-.53,3.89-.45,.07,.21-.07,.33-.2,.45-.95,.89-.97,1.3,.1,2.08,1.53,1.12,2.84,2.42,3.73,4.11,.23,.44,.6,.86,.24,1.39-.37,.55-.94,.42-1.47,.42-.44,0-.92-.32-1.31,.14-.43-.06-.87-.12-1.3-.18-.14-.07-.29-.15-.43-.22-.22-.27-.53-.37-.86-.44Z"/>
    <path class="cls-47" d="M75.47,72.08c2.4,.41,4.73,1.04,6.9,2.17-1.62,.15-3.04-.71-4.59-.96-.63-.1-1.29,.01-1.9-.24-.24-.1-.42,0-.53,.22-.12,.23-.05,.42,.17,.54,1.41,.79,1.81,2.16,2.25,3.6,.4,1.31,1.55,1.9,2.9,2.02-.42,.47-1.1-.04-1.52,.43-.37,.72-1.12,.38-1.67,.59-.17,.03-.34,.02-.5-.03-1.32-.7-2.18-1.85-2.95-3.07-.46-.73-.91-1.45-1.66-1.95-.69-.46-.95-1.25-1.22-1.99-.21-.57,.09-.97,.6-1.22,.8-.4,1.67-.5,2.5-.29,.42,.11,.86-.07,1.24,.19Z"/>
    <path class="cls-2" d="M77.41,80.28c.5-.46,1.23,0,1.74-.43,1.49-.35,2.32,.57,3.02,1.64,.85,1.29,2.08,2.13,3.29,3,.95,.69,1.69,1.44,1.34,2.74-.09,.34,.24,.4,.34,.6-1.29-.15-2.58-.26-3.88-.22,.35-1.77-1.21-2.5-2-3.64-1.03-1.49-2.51-2.53-3.85-3.7Z"/>
    <path class="cls-48" d="M62.09,55.44c2.54,.71,5.06,1.47,7.36,2.8-.91,.31-1.57-.34-2.28-.67-1.02-.47-2.3-.13-3.17-1.05-.13-.14-.37-.24-.59-.08-.28,.2-.27,.5-.23,.78,.05,.28,.36,.5-.25,.68-.58,.17-.68,.81-.33,1.34,.31,.48,.69,.91,1.07,1.34,.39,.45,.95,.77,.74,1.54-.08,.3,.3,.18,.48,.23-.5,.48-1.24-.06-1.75,.42-.22,.26-.53,.28-.83,.3-.35-.01-.72,.02-1.04-.19-.11-.1-.19-.26-.11-.38,.56-1,.06-1.64-.65-2.31-1.3-1.22-2.08-2.83-3.11-4.25-.39-.53-.13-.86,.47-.98,.6-.13,1.22-.18,1.81,0,.79,.23,1.61,.31,2.4,.48Z"/>
    <path class="cls-45" d="M62.3,62.79c.28,0,.57-.01,.85-.02,.68,0,1.37-.05,2.04,.03,.67,.08,1.3,.28,.92,1.24-.33,.81,.33,1.3,.81,1.69,.51,.42,.89,.92,1.32,1.39,.76,.85,.65,1.43-.29,2.13-.49,.37-1.23,.51-1.33,1.29-1.1,.52-2.25,.48-3.41,.27-.22-.73,.44-.98,.8-1.36,.87-.95,.85-1.02,.06-2.06-.67-.88-1.41-1.73-2-2.66-.58-.92-1.32-1.35-2.41-1.26-.6,.05-1.22,.08-1.82-.07-.2-.13-.48-.24-.16-.53,1.13-.29,2.26-.22,3.39-.05,.43,.06,.84,.16,1.25-.02Z"/>
    <path class="cls-17" d="M63.16,70.56c.69,.5,1.37,.04,2.06,0,.47-.02,.93-.01,1.4-.02,.43,0,.86,0,1.29,.01,.23,.44,1.02-.08,1.08,.65-1.22,.55-2.45,.47-3.67,0-.51,0-1.02,0-1.53,0-.65-.54-1.29,.06-1.93,.02,.13-.82,.59-.97,1.29-.66Z"/>
    <path class="cls-38" d="M91.03,96.05c-1.62-.56-2.53-1.84-3.4-3.22-.66-1.05-1.91-1.59-2.55-2.73-.47-.84-.08-1.11,.57-1.14,1.22-.05,2.42-.38,3.64-.25,1.39,.2,2.77,.39,4.1,.86-.35,.62-.95,.52-1.5,.47-.47-.04-.92-.01-1.36,.18-.17,.07-.39,.15-.29,.35,.69,1.33,1.02,2.84,2.06,3.98,.5,.8,1.3,.28,1.94,.43,.46,.08,.86-.14,1.29-.21-.06,.12-.11,.33-.19,.35-1.46,.25-2.83,.93-4.34,.95Z"/>
    <path class="cls-23" d="M77.41,80.28c1.07,.24,1.75,1.09,2.47,1.77,1.22,1.15,2.27,2.48,3.36,3.76,.49,.57,.32,1.2,.02,1.81-.37,0-.73,0-1.1,.01-.36,0-.71,0-1.07,0,.15-1.84-1.31-2.67-2.33-3.79-1.01-1.1-2.23-1.86-3.53-2.56-.77-.41-1.66-.03-2.36-.55-.57-.1-1.2,.2-1.72-.23,1.25,0,2.5,.01,3.75,0,.35,0,.72,.09,1.02-.2,.34-.35,.7-.19,1.06-.04,.14,0,.28,.01,.42,.02Z"/>
    <path class="cls-32" d="M76.99,80.26c-.35,.01-.71,.03-1.06,.04-1.13-.7-2.34-1.13-3.69-1.09-.41-.21-.61-.61-.83-.97-.55-.91-1.26-1.7-2.15-2.23-1.13-.67-1.65-1.77-2.29-2.8-.43-.69-.05-1.33,.9-1.53,.77-.17,1.57-.13,2.36-.15,.46-.01,.93,.13,1.37-.09,1.32,.09,2.64,.16,3.88,.64-1.07,.07-2.14-.23-3.22,.16-.86,.31-1.22,.64-.69,1.54,.4,.68,.69,1.37,1.48,1.77,.57,.29,.83,.97,1.14,1.52,.7,1.28,1.7,2.27,2.81,3.18Z"/>
    <path class="cls-20" d="M71.59,71.43c-.95,.31-1.93,.4-2.92,.43-.4,.01-.78,0-1.15,.2-.57,.29-.6,.59-.3,1.19,.74,1.46,2,2.37,3.2,3.37,.84,.7,1.39,1.6,1.82,2.59-.76,.45-1.56,.37-2.38,.21-.46-1.31-1.34-2.27-2.55-2.88-1.46-.74-2.4-2.01-3.39-3.23-.46-.57-.05-1,.39-1.35,.33-.26,.82-.29,1.02-.74,1.22,0,2.45,0,3.67,0,.88-.05,1.71,.35,2.6,.22Z"/>
    <path class="cls-43" d="M62.09,55.44c-.79,.03-1.59,.05-2.33-.3-.73-.35-1.4,.16-2.11,.13-.3-.01-.27,.28-.11,.47,1.2,1.38,1.94,3.09,3.26,4.39,1.33,1.3,1.38,.97,.42,2.66-1.24,.31-2.53-.08-3.77,.21-.15,.13-.31,.16-.5,.1-.37-.41-.22-.71,.22-.91,.2-.09,.42-.08,.63-.1,.35-.04,.77,.02,.9-.41,.11-.36-.2-.58-.39-.84-1.13-1.53-2.47-2.88-3.76-4.27-.43-.47-1.09-.98-.73-1.77,.37-.81,1.15-.54,1.81-.52,.42,.01,.86-.12,1.26,.1,1.74,.29,3.53,.37,5.19,1.08Z"/>
    <path class="cls-14" d="M56.9,54.36c-.68,0-1.37-.05-2.05,.03-.95,.12-1.13,.61-.57,1.35,1.32,1.74,3.07,3.11,4.3,4.94,.25,.37,.72,.63,.48,1.2-.24,.58-.75,.45-1.2,.47-.44,.02-1.01-.16-.96,.62-.78,.74-1.44-.17-2.16-.16-.36-.1-.72-.19-1.07-.29-.04-.48,.18-.66,.65-.56,.24,.05,.49,.17,.73,.16,.43-.02,.94,.21,1.26-.32,.29-.48-.16-.72-.32-1.04-.78-1.61-1.99-2.85-3.42-3.9-1.73-1.27-1.72-1.72,.01-2.92,.07,0,.14-.01,.21-.02,.72,0,1.44,.01,2.16,.02,.56,.53,1.38-.1,1.95,.43Z"/>
    <path class="cls-7" d="M94.27,94.97c-.4,.29-.9,.19-1.34,.33-.78,.24-.55-.38-.61-.76,.65,.14,1.34,.1,1.94,.43Z"/>
    <path class="cls-31" d="M72.88,80.72c2.18-.26,3.81,.86,5.33,2.2,.85,.75,1.62,1.61,2.48,2.35,.82,.7,.55,1.52,.4,2.35-.97,.19-1.94,.38-2.95,.58q.75-1.76-.63-3.19c-.22-.23-.46-.48-.58-.77-.61-1.44-1.78-2.19-3.18-2.7-.4-.15-.84-.28-.87-.83Z"/>
    <path class="cls-15" d="M63.16,70.56c-.54,.01-1.01,.15-1.29,.66-.23,.3-.57,.17-.86,.21-.63-.19-.32-.63-.16-.88,.64-.99,.34-1.81-.17-2.78-.7-1.34-1.58-2.53-2.49-3.72-.19-.24-.48-.47-.21-.84q3.54-.02,5.53,2.88c.14,.2,.22,.45,.35,.66,.39,.62,1.39,1.02,1.16,1.81-.25,.87-1.14,1.42-1.86,1.99Z"/>
    <path class="cls-27" d="M57.98,63.22c.08,.66,.64,1.08,1.02,1.45,1.05,1.02,1.41,2.41,2.22,3.53,.49,.69,.49,1.36,.05,2.1-.19,.31-.67,.65-.26,1.13-1.32,.53-1.41,.49-1.25-.87,.09-.84-.19-1.55-.65-2.2-1.16-1.66-2.36-3.29-3.5-4.97-.23-.34-.63-.32-.86-.58,.73-.09,1.42,.37,2.16,.16,.14,0,.29,0,.43,0,.08-.06,.15-.05,.2,.04,.1,.17,.26,.2,.44,.21Z"/>
    <path class="cls-14" d="M57.54,63.01c-.07,0-.14-.02-.2-.04,1.28-.42,2.6-.06,3.89-.19,.36,0,.72,0,1.08,.01-1.14,.44-2.32,.11-3.48,.2-.43,.03-.86,0-1.29,.01Z"/>
  </g>
</svg>