<svg width="35" height="35" viewBox="0 0 35 35" fill="none" xmlns="http://www.w3.org/2000/svg">
<path d="M17.5 0C7.835 0 0 7.014 0 15.666C0 19.12 1.259 22.305 3.378 24.893C4.154 25.841 4.509 27.064 4.275 28.266L3.32 33.163C3.16 33.985 4.02 34.628 4.763 34.241L10.576 31.215C11.397 30.788 12.342 30.649 13.245 30.854C14.607 31.163 16.031 31.332 17.5 31.332C27.165 31.332 35 24.318 35 15.666C35 7.014 27.165 0 17.5 0Z" fill="#E2E5E8"/>
<path d="M10.2539 14.208C11.3359 14.208 12.2119 15.085 12.2119 16.166C12.2119 16.685 12.0059 17.183 11.6379 17.551C11.2709 17.918 10.7729 18.125 10.2529 18.125C9.17092 18.125 8.29492 17.248 8.29492 16.167C8.29492 15.086 9.17192 14.209 10.2529 14.209L10.2539 14.208Z" fill="#333D4B"/>
<path d="M24.7458 18.124C25.8272 18.124 26.7038 17.2474 26.7038 16.166C26.7038 15.0846 25.8272 14.208 24.7458 14.208C23.6645 14.208 22.7878 15.0846 22.7878 16.166C22.7878 17.2474 23.6645 18.124 24.7458 18.124Z" fill="#333D4B"/>
<path d="M17.5 18.124C18.5814 18.124 19.458 17.2474 19.458 16.166C19.458 15.0846 18.5814 14.208 17.5 14.208C16.4186 14.208 15.542 15.0846 15.542 16.166C15.542 17.2474 16.4186 18.124 17.5 18.124Z" fill="#333D4B"/>
</svg>
