<svg width="40" height="40" viewBox="0 0 40 40" fill="none" xmlns="http://www.w3.org/2000/svg">
<g clip-path="url(#clip0_247_15226)">
<path d="M11.151 28.849C19.3 36.998 25.481 38.853 30.405 37.681C33.139 37.03 35.576 34.803 37.204 32.95C38.438 31.544 38.205 29.382 36.725 28.237L30.215 23.199C29.565 22.696 28.642 22.754 28.06 23.336L24.603 26.793C24.069 27.327 23.246 27.433 22.603 27.038C21.492 26.356 19.628 25.034 17.298 22.703C14.968 20.373 13.646 18.509 12.963 17.398C12.568 16.755 12.674 15.932 13.208 15.398L16.665 11.941C17.246 11.36 17.305 10.437 16.802 9.78604L11.764 3.27604C10.619 1.79604 8.45596 1.56304 7.05096 2.79704C5.19796 4.42404 2.97096 6.86104 2.31996 9.59604C1.14796 14.521 3.00296 20.701 11.152 28.85L11.151 28.849Z" fill="#23B169"/>
</g>
<defs>
<clipPath id="clip0_247_15226">
<rect width="40" height="40" fill="white"/>
</clipPath>
</defs>
</svg>
