<svg width="92" height="92" viewBox="0 0 92 92" fill="none" xmlns="http://www.w3.org/2000/svg">
<rect width="92" height="92" rx="18" fill="#163300"/>
<path d="M70.3998 71.664C73.4718 68.592 74.6878 83.568 62.1438 83.568C50.8158 83.568 43.7118 59.056 42.1118 52.912C41.7918 52.912 41.5358 52.912 41.2158 52.976C40.0638 61.872 39.9358 70.576 42.3038 76.464C44.6718 82.416 27.7758 77.168 28.4158 64.944C28.8638 56.176 35.4558 35.12 43.1998 17.52C30.9118 19.12 25.4078 29.872 25.4078 34.032C25.4078 37.04 17.4078 35.184 17.4078 27.312C17.4078 18.992 22.5278 9.392 43.0078 9.392C77.3118 9.392 77.7598 47.216 46.7198 52.4C50.6878 58.672 63.8078 78.256 70.3998 71.664ZM50.3678 17.648C48.5118 21.936 44.2238 34.928 41.9198 48.24C65.9198 46.512 70.2718 20.016 49.6637 17.52L50.3678 17.648Z" fill="#9FE870"/>
</svg>
