<svg width="512" height="512" viewBox="0 0 512 512" fill="none" xmlns="http://www.w3.org/2000/svg">
<rect x="72.1042" y="72.1049" width="367.79" height="367.79" rx="18" fill="#163300"/>
<rect x="301.812" width="367.79" height="367.79" rx="18" transform="rotate(55.1458 301.812 0)" fill="#163300"/>
<rect x="179.694" y="7.37952" width="367.79" height="367.79" rx="18" transform="rotate(27.9378 179.694 7.37952)" fill="#163300"/>
<path d="M363.881 379.342C377.321 365.902 382.641 431.422 327.761 431.422C278.201 431.422 247.121 324.182 240.121 297.302C238.721 297.302 237.601 297.302 236.201 297.582C231.161 336.502 230.601 374.582 240.961 400.342C251.321 426.382 177.401 403.422 180.201 349.942C182.161 311.582 211.001 219.462 244.881 142.462C191.121 149.462 167.041 196.502 167.041 214.702C167.041 227.862 132.041 219.742 132.041 185.302C132.041 148.902 154.441 106.902 244.041 106.902C394.121 106.902 396.081 272.382 260.281 295.062C277.641 322.502 335.041 408.182 363.881 379.342ZM276.241 143.022C268.121 161.782 249.361 218.622 239.281 276.862C344.281 269.302 363.321 153.382 273.161 142.462L276.241 143.022Z" fill="#9FE870"/>
</svg>
