<svg width="61" height="75" viewBox="0 0 61 75" fill="none" xmlns="http://www.w3.org/2000/svg">
<path d="M53.3998 62.664C56.4718 59.592 57.6878 74.568 45.1438 74.568C33.8158 74.568 26.7118 50.056 25.1118 43.912C24.7918 43.912 24.5358 43.912 24.2158 43.976C23.0638 52.872 22.9358 61.576 25.3038 67.464C27.6718 73.416 10.7758 68.168 11.4158 55.944C11.8638 47.176 18.4558 26.12 26.1998 8.52C13.9118 10.12 8.40775 20.872 8.40775 25.032C8.40775 28.04 0.40775 26.184 0.40775 18.312C0.40775 9.992 5.52775 0.391998 26.0078 0.391998C60.3118 0.391998 60.7598 38.216 29.7198 43.4C33.6878 49.672 46.8078 69.256 53.3998 62.664ZM33.3678 8.648C31.5118 12.936 27.2238 25.928 24.9198 39.24C48.9198 37.512 53.2718 11.016 32.6637 8.52L33.3678 8.648Z" fill="#9FE870"/>
</svg>
