<svg width="192" height="192" viewBox="0 0 192 193" fill="none" xmlns="http://www.w3.org/2000/svg">
<rect x="27.0391" y="28.0028" width="137.921" height="137.921" rx="18" fill="#163300"/>
<rect x="113.179" y="0.963501" width="137.921" height="137.921" rx="18" transform="rotate(55.1458 113.179 0.963501)" fill="#163300"/>
<rect x="67.3853" y="3.73083" width="137.921" height="137.921" rx="18" transform="rotate(27.9378 67.3853 3.73083)" fill="#163300"/>
<path d="M134.315 139.087C139.115 134.287 141.015 157.687 121.415 157.687C103.715 157.687 92.6148 119.387 90.1148 109.787C89.6148 109.787 89.2148 109.787 88.7148 109.887C86.9148 123.787 86.7148 137.387 90.4148 146.587C94.1148 155.887 67.7147 147.687 68.7147 128.587C69.4147 114.887 79.7148 81.9866 91.8148 54.4866C72.6148 56.9866 64.0147 73.7866 64.0147 80.2866C64.0147 84.9866 51.5147 82.0866 51.5147 69.7866C51.5147 56.7866 59.5147 41.7866 91.5148 41.7866C145.115 41.7866 145.815 100.887 97.3148 108.987C103.515 118.787 124.015 149.387 134.315 139.087ZM103.015 54.6866C100.115 61.3866 93.4148 81.6866 89.8147 102.487C127.315 99.7866 134.115 58.3866 101.915 54.4866L103.015 54.6866Z" fill="#9FE870"/>
</svg>
