<svg width="199" height="199" viewBox="0 0 199 199" fill="none" xmlns="http://www.w3.org/2000/svg">
<rect x="27.8894" y="28.8529" width="142.257" height="142.257" rx="18" fill="#163300"/>
<rect x="116.738" y="0.963501" width="142.257" height="142.257" rx="18" transform="rotate(55.1458 116.738 0.963501)" fill="#163300"/>
<rect x="69.5039" y="3.81787" width="142.257" height="142.257" rx="18" transform="rotate(27.9378 69.5039 3.81787)" fill="#163300"/>
<path d="M137.192 140.832C141.992 136.032 143.892 159.432 124.292 159.432C106.592 159.432 95.4916 121.132 92.9916 111.532C92.4916 111.532 92.0916 111.532 91.5916 111.632C89.7916 125.532 89.5916 139.132 93.2916 148.332C96.9916 157.632 70.5916 149.432 71.5916 130.332C72.2916 116.632 82.5916 83.7322 94.6916 56.2322C75.4916 58.7322 66.8916 75.5322 66.8916 82.0322C66.8916 86.7322 54.3916 83.8322 54.3916 71.5322C54.3916 58.5322 62.3916 43.5322 94.3916 43.5322C147.992 43.5322 148.692 102.632 100.192 110.732C106.392 120.532 126.892 151.132 137.192 140.832ZM105.892 56.4322C102.992 63.1322 96.2916 83.4322 92.6916 104.232C130.192 101.532 136.992 60.1322 104.792 56.2322L105.892 56.4322Z" fill="#9FE870"/>
</svg>
