<svg width="162" height="75" viewBox="0 0 162 75" fill="none" xmlns="http://www.w3.org/2000/svg">
<path d="M52.9935 62.664C56.0655 59.592 57.2815 74.568 44.7375 74.568C33.4095 74.568 26.3055 50.056 24.7055 43.912C24.3855 43.912 24.1295 43.912 23.8095 43.976C22.6575 52.872 22.5295 61.576 24.8975 67.464C27.2655 73.416 10.3695 68.168 11.0095 55.944C11.4575 47.176 18.0495 26.12 25.7935 8.52C13.5055 10.12 8.0015 20.872 8.0015 25.032C8.0015 28.04 0.0015 26.184 0.0015 18.312C0.0015 9.992 5.1215 0.391998 25.6015 0.391998C59.9055 0.391998 60.3535 38.216 29.3135 43.4C33.2815 49.672 46.4015 69.256 52.9935 62.664ZM32.9615 8.648C31.1055 12.936 26.8175 25.928 24.5135 39.24C48.5135 37.512 52.8655 11.016 32.2575 8.52L32.9615 8.648ZM71.451 44.808C72.795 42.696 76.187 44.488 75.291 46.536C74.715 47.752 65.691 61 55.963 61C39.067 61 47.067 27.272 61.595 27.272C74.139 27.272 70.683 51.336 55.707 45.768C56.219 48.328 57.947 50.312 61.595 50.312C65.051 50.312 69.019 48.584 71.451 44.808ZM61.979 32.456C59.547 32.456 56.795 36.744 55.899 41.096C64.219 45.064 65.435 32.456 61.979 32.456ZM90.8935 44.104C91.9175 42.696 94.9255 44.104 94.2855 45.576C93.6455 46.92 87.6935 61 79.5655 61C63.2455 61 74.6375 9.736 87.5655 9.736C97.2295 9.736 89.3575 35.784 80.7815 43.784C80.7175 45.768 81.2295 48.584 84.2375 48.584C87.2455 48.584 89.0375 46.728 90.8935 44.104ZM105.29 44.104C106.314 42.696 109.322 44.104 108.682 45.576C108.106 46.92 103.818 61 95.754 61C88.97 61 88.33 54.408 89.482 48.584C89.738 47.368 90.058 45.768 90.442 44.104C92.554 34.376 92.234 31.624 91.466 29.576C91.018 28.488 91.978 27.272 93.962 27.272C100.17 27.272 101.834 32.264 99.786 42.12C98.89 46.408 99.338 48.584 100.81 48.584C102.474 48.584 103.434 46.728 105.29 44.104ZM97.802 24.84C95.434 24.84 93.514 22.92 93.514 20.552C93.514 18.184 95.434 16.2 97.802 16.2C100.17 16.2 102.09 18.184 102.09 20.552C102.09 22.92 100.17 24.84 97.802 24.84ZM121.072 44.296C117.616 44.296 117.36 42.696 118.96 41.032C122.672 37.064 122.416 32.456 119.984 32.456C117.552 32.456 113.968 37.32 113.52 40.712C112.688 46.984 117.616 49.096 122.672 54.344C127.792 59.656 120.56 69.192 111.664 69.192C98.0315 69.192 101.167 55.752 103.471 58.824C107.312 63.944 118.256 61.768 118.832 58.376C119.472 54.984 101.231 52.168 104.816 39.304C106.864 32.072 112.24 27.016 119.088 27.016C133.104 27.016 128.56 44.296 121.072 44.296ZM157.5 44.104C158.524 42.696 161.532 44.104 160.892 45.576C160.252 46.92 156.028 61 147.9 61C141.18 61 140.54 54.408 141.692 48.584C142.652 43.528 145.724 32.456 144.188 32.456C140.476 32.456 134.396 55.112 135.292 59.592C135.804 60.04 135.036 61 133.372 61C127.227 61 125.947 54.472 126.971 49.928C127.803 46.344 129.34 39.688 131.26 31.368C134.332 18.184 132.284 12.36 131.004 11.08C130.172 10.248 131.324 9.672 132.924 9.672C140.732 9.672 141.82 19.08 139.324 30.472C139.26 30.856 139.196 31.24 139.068 31.624C141.244 29.256 144.124 27.272 147.58 27.272C154.492 27.272 154.172 34.312 153.148 38.6C152.124 42.824 150.268 48.584 153.02 48.584C154.364 48.584 155.644 46.728 157.5 44.104Z" fill="#9FE870"/>
</svg>
