<svg width="40" height="40" viewBox="0 0 40 40" fill="none" xmlns="http://www.w3.org/2000/svg">
<g clip-path="url(#clip0_237_8078)">
<path d="M30.862 4.92C27.384 1.421 21.582 1.584 17.901 5.286L5.37103 17.909C1.70503 21.595 1.52803 27.4 4.96303 30.904L30.903 4.963C30.889 4.949 30.876 4.934 30.862 4.92Z" fill="#FF9C00"/>
<path d="M22.099 34.715L34.629 22.092C38.295 18.406 38.472 12.601 35.037 9.09698L9.09705 35.037C9.11105 35.051 9.12405 35.066 9.13805 35.08C12.616 38.579 18.418 38.417 22.099 34.715Z" fill="#FF9C00"/>
<path d="M28.745 4.75602L4.846 28.796C3.107 30.545 3.107 33.381 4.846 35.131C6.585 36.88 9.405 36.88 11.144 35.131L35.043 11.091C36.782 9.34202 36.782 6.50502 35.043 4.75602C33.304 3.00702 30.484 3.00702 28.745 4.75602Z" fill="#E32939"/>
<path d="M6.16007 34.264C5.71007 34.264 5.34607 33.9 5.34607 33.449C5.34607 30.811 7.48207 28.664 10.1081 28.664H12.0291C13.7571 28.664 15.1631 27.248 15.1631 25.507V22.251C15.1631 19.613 17.2991 17.466 19.9251 17.466H23.1061C24.8341 17.466 26.2401 16.05 26.2401 14.309V11.032C26.2401 8.39303 28.3761 6.24603 31.0021 6.24603H34.4291C34.8791 6.24603 35.2431 6.61003 35.2431 7.06103C35.2431 7.51203 34.8791 7.87603 34.4291 7.87603H31.0021C29.2741 7.87603 27.8681 9.29203 27.8681 11.033V14.31C27.8681 16.949 25.7321 19.096 23.1061 19.096H19.9251C18.1971 19.096 16.7911 20.511 16.7911 22.252V25.508C16.7911 28.147 14.6551 30.294 12.0291 30.294H10.1081C8.38007 30.294 6.97407 31.709 6.97407 33.45C6.97407 33.9 6.61007 34.264 6.16007 34.264Z" fill="#FFD06C"/>
</g>
<defs>
<clipPath id="clip0_237_8078">
<rect width="40" height="40" fill="white"/>
</clipPath>
</defs>
</svg>
