<svg width="40" height="40" viewBox="0 0 40 40" fill="none" xmlns="http://www.w3.org/2000/svg">
<path d="M18.0109 9.53601L17.4579 9.66301V14.296C17.6399 14.276 17.8259 14.263 18.0109 14.247V9.53601Z" fill="#901A18"/>
<path d="M19.0109 14.184C19.2919 14.172 19.5739 14.161 19.8589 14.159C21.8039 13.43 23.7739 13.408 24.8759 14.51C24.9399 14.574 24.9909 14.647 25.0469 14.717C30.1409 15.884 33.7489 18.755 33.7489 22.12C33.7489 22.536 33.6769 22.942 33.5709 23.341C34.8649 22.204 35.7529 20.901 36.1079 19.5C36.1239 19.434 36.1469 19.368 36.1599 19.302C36.1959 19.138 36.2089 18.97 36.2299 18.804C36.2529 18.599 36.2839 18.395 36.2839 18.187C36.2839 13.223 29.6609 9.16402 21.2559 8.79102L19.0089 9.30801V14.185L19.0109 14.184Z" fill="#901A18"/>
<path d="M16.4579 9.89307L15.9049 10.0201V14.5141C16.0859 14.4811 16.2739 14.4601 16.4579 14.4311V9.89307Z" fill="#901A18"/>
<path d="M6.43894 23.3821C6.32494 22.9701 6.24994 22.5501 6.24994 22.1201C6.24994 18.7651 9.83594 15.9001 14.9049 14.7271V10.2511L13.3979 10.5981C13.3419 10.6111 13.2859 10.6141 13.2319 10.6101C13.0079 10.5901 12.8099 10.4311 12.7529 10.2031C12.7069 10.0211 12.7689 9.84106 12.8889 9.71106C7.46394 11.2421 3.71594 14.4571 3.71594 18.1871C3.71594 18.2891 3.73694 18.3881 3.74194 18.4891C3.84094 20.2961 4.82794 21.9701 6.43994 23.3831L6.43894 23.3821Z" fill="#901A18"/>
<path d="M15.0981 22.832C15.0651 22.782 15.0361 22.731 15.0051 22.681C14.9571 22.717 14.9041 22.744 14.8571 22.782C14.9381 22.795 15.0181 22.817 15.0981 22.832Z" fill="#F77F00"/>
<path d="M16.347 16.372C16.383 16.337 16.421 16.303 16.458 16.269V14.432C16.274 14.461 16.086 14.482 15.905 14.515V15.837C16.099 15.969 16.249 16.156 16.347 16.372Z" fill="#F77F00"/>
<path d="M12.882 22.7011C13.102 22.6861 13.323 22.6791 13.544 22.6801C13.849 22.3171 14.196 22.0071 14.573 21.7511C14.517 21.5801 14.468 21.4071 14.434 21.2301C13.833 21.6181 13.303 22.1081 12.882 22.7011Z" fill="#F77F00"/>
<path d="M22.2 25.762C21.412 25.306 20.526 25.106 19.64 25.171C20.214 25.731 20.718 26.368 21.13 27.08C21.224 27.244 21.209 27.435 21.118 27.586C20.844 27.597 20.571 27.607 20.294 27.61C20.286 27.598 20.271 27.593 20.264 27.58C19.57 26.378 18.588 25.41 17.418 24.734C17.152 24.631 16.896 24.501 16.65 24.346C16.286 24.186 15.912 24.045 15.521 23.94C13.507 23.4 11.401 23.676 9.593 24.72C9.354 24.859 9.048 24.776 8.91 24.537C8.772 24.298 8.854 23.992 9.093 23.854C9.9 23.388 10.761 23.063 11.646 22.871C11.648 22.79 11.662 22.709 11.706 22.633C12.344 21.528 13.27 20.655 14.38 20.084C14.397 19.879 14.426 19.673 14.473 19.465C13.167 20.056 12.025 21.039 11.255 22.372C11.162 22.532 10.994 22.622 10.821 22.622C10.736 22.622 10.65 22.601 10.571 22.555C10.332 22.417 10.25 22.112 10.388 21.872C10.481 21.711 10.586 21.561 10.688 21.409C10.628 21.451 10.559 21.482 10.479 21.482H8.803C8.551 21.482 8.36 21.228 8.456 20.995C8.648 20.529 9.106 20.201 9.641 20.201C10.176 20.201 10.634 20.529 10.826 20.995C10.849 21.052 10.855 21.11 10.847 21.165C11.879 19.74 13.317 18.744 14.905 18.228V16.892H14.345C14.093 16.892 13.903 16.638 13.998 16.405C14.155 16.024 14.494 15.746 14.905 15.654V14.724C9.836 15.897 6.25 18.762 6.25 22.117C6.25 22.548 6.325 22.967 6.439 23.379C7.352 24.179 8.46 24.897 9.739 25.5C9.781 25.417 9.838 25.342 9.925 25.292C13.233 23.382 17.44 24.43 19.492 27.601C19.072 27.594 18.653 27.583 18.241 27.558C18.819 27.594 19.405 27.616 20 27.616C21.307 27.616 22.571 27.515 23.788 27.345C23.401 26.699 22.871 26.147 22.2 25.76V25.762Z" fill="#F77F00"/>
<path d="M10.812 25.9631C11.113 26.0831 11.425 26.1941 11.741 26.3021C13.228 25.8001 14.883 25.9431 16.268 26.7491C16.492 26.8801 16.57 27.1561 16.464 27.3881C17.04 27.4621 17.626 27.5221 18.224 27.5591C16.437 25.4071 13.372 24.7161 10.812 25.9631Z" fill="#F77F00"/>
<path d="M11.823 26.3311C12.146 26.4401 12.473 26.5441 12.81 26.6401C12.474 26.5441 12.146 26.4401 11.823 26.3311Z" fill="#F77F00"/>
<path d="M18.011 14.2471C17.826 14.2631 17.641 14.2761 17.458 14.2961V15.4481C17.639 15.3181 17.823 15.1951 18.011 15.0771V14.2481V14.2471Z" fill="#F77F00"/>
<path d="M27.654 26.4971C27.634 26.5031 27.613 26.5091 27.593 26.5161C27.613 26.5101 27.634 26.5041 27.654 26.4971Z" fill="#F77F00"/>
<path d="M10.021 25.6291C9.94496 25.5951 9.86396 25.5641 9.78796 25.5281C9.86296 25.5631 9.94396 25.5941 10.021 25.6291Z" fill="#F77F00"/>
<path d="M16.284 27.361C15.116 27.203 13.999 26.972 12.944 26.676C13.999 26.971 15.116 27.203 16.284 27.361Z" fill="#F77F00"/>
<path d="M26.59 23.8611C27.221 24.5821 27.741 25.4131 28.116 26.3371C28.504 26.2061 28.883 26.0681 29.25 25.9191L29.249 25.9181C28.664 24.9061 27.686 24.1821 26.591 23.8621L26.59 23.8611Z" fill="#F77F00"/>
<path d="M27.3839 20.615C26.5519 20.392 25.7059 20.315 24.8709 20.368C24.7539 20.61 24.6239 20.849 24.4869 21.085C27.2489 20.747 30.0769 22.028 31.5539 24.586C31.5849 24.64 31.5969 24.699 31.6059 24.758C31.8219 24.63 32.0349 24.499 32.2379 24.364C32.1979 24.332 32.1549 24.302 32.1279 24.255C31.0849 22.447 29.3989 21.155 27.3839 20.615Z" fill="#F77F00"/>
<path d="M23.379 22.645C23.23 22.817 23.076 22.983 22.917 23.143C23.125 23.238 23.33 23.341 23.531 23.457C24.882 24.237 25.91 25.411 26.514 26.815C26.732 26.759 26.945 26.698 27.158 26.637C26.411 24.847 25.042 23.46 23.38 22.646L23.379 22.645Z" fill="#F77F00"/>
<path d="M19.859 14.1591C19.573 14.1611 19.292 14.1721 19.011 14.1841V14.5181C19.291 14.3821 19.575 14.2651 19.859 14.1591Z" fill="#F77F00"/>
<path d="M23.031 24.3221C22.721 24.1431 22.399 23.9981 22.07 23.8771C21.825 24.0611 21.58 24.2211 21.334 24.3601C21.805 24.4821 22.267 24.6451 22.701 24.8961C23.644 25.4401 24.384 26.2331 24.86 27.1821C25.083 27.1411 25.299 27.0901 25.518 27.0441C24.99 25.9111 24.139 24.9621 23.032 24.3231L23.031 24.3221Z" fill="#F77F00"/>
<path d="M25.291 19.3531C26.075 19.3481 26.865 19.4401 27.643 19.6491C29.916 20.2571 31.817 21.7161 32.994 23.7541C33.003 23.7691 33.006 23.7861 33.01 23.8021C33.205 23.6511 33.393 23.4971 33.572 23.3401C33.678 22.9411 33.75 22.5351 33.75 22.1191C33.75 18.7541 30.141 15.8821 25.048 14.7161C25.936 15.8101 25.918 17.5781 25.291 19.3531ZM26.776 17.8331C26.968 17.3671 27.426 17.0391 27.961 17.0391C28.496 17.0391 28.954 17.3671 29.146 17.8331C29.242 18.0661 29.051 18.3201 28.799 18.3201H27.123C26.871 18.3201 26.68 18.0661 26.776 17.8331Z" fill="#F77F00"/>
<path d="M24.462 22.0831C24.765 22.2631 25.053 22.4651 25.333 22.6801C25.34 22.6801 25.347 22.6751 25.354 22.6751C27.313 22.6751 29.136 23.7241 30.114 25.4171C30.135 25.4541 30.144 25.4931 30.153 25.5321C30.378 25.4271 30.588 25.3121 30.803 25.2001C30.76 25.1671 30.716 25.1351 30.688 25.0861C29.392 22.8411 26.884 21.7281 24.462 22.0831Z" fill="#F77F00"/>
<path d="M36.109 19.499C35.753 20.9 34.865 22.203 33.572 23.34C33.392 23.498 33.204 23.651 33.01 23.802C33.013 23.813 33.017 23.823 33.021 23.834C32.777 24.022 32.525 24.206 32.258 24.383C32.251 24.377 32.246 24.369 32.238 24.363C32.035 24.498 31.822 24.628 31.606 24.757C31.608 24.769 31.615 24.78 31.616 24.791C31.363 24.94 31.093 25.08 30.823 25.219C30.816 25.213 30.81 25.205 30.803 25.199C30.588 25.311 30.378 25.426 30.153 25.531C30.155 25.537 30.158 25.543 30.159 25.55C29.87 25.684 29.573 25.813 29.268 25.936C29.263 25.928 29.254 25.925 29.249 25.917C28.882 26.066 28.503 26.204 28.115 26.335C28.117 26.341 28.121 26.346 28.123 26.352C27.97 26.403 27.81 26.448 27.653 26.496C27.633 26.502 27.612 26.508 27.592 26.515C27.448 26.558 27.308 26.605 27.162 26.647C27.16 26.643 27.158 26.639 27.157 26.636C26.944 26.697 26.731 26.758 26.513 26.814C26.515 26.818 26.518 26.822 26.52 26.826C26.431 26.849 26.337 26.866 26.247 26.887C26.213 26.895 26.178 26.902 26.144 26.91C25.937 26.957 25.731 27.006 25.521 27.05C25.52 27.047 25.518 27.045 25.517 27.042C25.298 27.088 25.083 27.139 24.859 27.18C24.86 27.183 24.862 27.185 24.864 27.188C24.513 27.251 24.152 27.299 23.792 27.349L23.789 27.345C22.571 27.516 21.307 27.616 20.001 27.616C19.406 27.616 18.82 27.594 18.242 27.558C18.237 27.558 18.231 27.558 18.225 27.558C17.627 27.52 17.042 27.461 16.465 27.387V27.388C16.404 27.38 16.346 27.369 16.285 27.36C15.117 27.202 14.001 26.97 12.945 26.675C12.901 26.663 12.856 26.651 12.811 26.639C12.475 26.543 12.147 26.439 11.824 26.33C11.795 26.32 11.765 26.312 11.737 26.303L11.741 26.302C11.425 26.194 11.114 26.083 10.812 25.963C10.809 25.965 10.805 25.965 10.802 25.967C10.534 25.86 10.278 25.744 10.021 25.629C9.94497 25.595 9.86397 25.564 9.78797 25.528C9.77097 25.52 9.75297 25.513 9.73597 25.506L9.73897 25.503C8.45997 24.899 7.35197 24.182 6.43897 23.382C4.82697 21.969 3.83997 20.295 3.74097 18.488C3.72397 18.446 3.71497 18.419 3.71497 18.419V22.593C3.71497 31.587 11.006 38.878 20 38.878C28.994 38.878 36.285 31.587 36.285 22.593C36.285 22.593 36.302 18.377 36.285 18.419C36.278 18.548 36.247 18.674 36.231 18.802C36.21 18.969 36.197 19.136 36.161 19.3C36.147 19.367 36.126 19.432 36.109 19.498V19.499Z" fill="#CB2C29"/>
<path d="M16.347 16.372C16.25 16.156 16.099 15.969 15.905 15.837V16.833C16.013 16.712 16.121 16.591 16.241 16.471C16.275 16.437 16.312 16.405 16.347 16.372Z" fill="#901A18"/>
<path d="M13.999 16.408C13.903 16.641 14.094 16.895 14.346 16.895H14.906V15.657C14.496 15.749 14.156 16.027 13.999 16.408Z" fill="#901A18"/>
<path d="M10.826 20.997C10.634 20.531 10.176 20.203 9.64105 20.203C9.10605 20.203 8.64805 20.531 8.45605 20.997C8.36005 21.23 8.55105 21.484 8.80305 21.484H10.479C10.559 21.484 10.627 21.453 10.688 21.411C10.742 21.33 10.791 21.245 10.847 21.167C10.854 21.112 10.849 21.054 10.826 20.997Z" fill="#901A18"/>
<path d="M27.123 18.3199H28.799C29.051 18.3199 29.242 18.0659 29.146 17.8329C28.954 17.3669 28.496 17.0389 27.961 17.0389C27.426 17.0389 26.968 17.3669 26.776 17.8329C26.68 18.0659 26.871 18.3199 27.123 18.3199Z" fill="#901A18"/>
<path d="M15.905 10.0211L16.458 9.89409V8.64709L15.879 8.80409C15.891 8.84609 15.905 8.88709 15.905 8.93309V10.0211Z" fill="#3D3D3D"/>
<path d="M17.458 9.663L18.011 9.536V8.224L17.432 8.381C17.443 8.423 17.458 8.464 17.458 8.51V9.663Z" fill="#3D3D3D"/>
<path d="M36.897 4.54906L36.708 3.79406C36.668 3.63306 36.566 3.49706 36.422 3.41306C36.279 3.32906 36.111 3.30706 35.95 3.35006L18.984 7.95906C18.995 8.00106 19.01 8.04206 19.01 8.08806V9.30506L21.257 8.78806L36.439 5.29606C36.601 5.25806 36.739 5.16006 36.825 5.01806C36.912 4.87606 36.938 4.71006 36.897 4.54906Z" fill="#3D3D3D"/>
<path d="M12.7521 10.202C12.8091 10.43 13.0081 10.589 13.2311 10.609C13.2851 10.614 13.3411 10.61 13.3971 10.597L14.9041 10.25V9.06799L13.1341 9.54899C13.0331 9.57599 12.9541 9.63699 12.8871 9.70999C12.7671 9.83999 12.7061 10.02 12.7521 10.202Z" fill="#3D3D3D"/>
<path d="M15.46 8.44405L35.688 2.31205C35.847 2.26305 35.977 2.15605 36.055 2.00805C36.132 1.86105 36.146 1.69205 36.094 1.53405L35.853 0.794054C35.802 0.635054 35.691 0.507054 35.542 0.434054C35.393 0.360054 35.225 0.349054 35.067 0.403054L12.727 8.14405C12.451 8.24005 12.3 8.54405 12.39 8.82105C12.455 9.02205 12.631 9.16005 12.829 9.18905C12.904 9.20005 12.984 9.19505 13.061 9.17105L15.083 8.55805C15.17 8.48305 15.281 8.43305 15.405 8.43305C15.424 8.43305 15.441 8.44205 15.459 8.44405H15.46Z" fill="#3D3D3D"/>
<path d="M14.9049 10.25V18.23C14.9149 18.227 14.9249 18.224 14.9349 18.22C15.1769 17.755 15.4969 17.29 15.9049 16.832V8.93201C15.9049 8.88601 15.8909 8.84501 15.8789 8.80301C15.8259 8.60901 15.6639 8.46601 15.4589 8.44301C15.4399 8.44101 15.4239 8.43201 15.4049 8.43201C15.2809 8.43201 15.1709 8.48201 15.0829 8.55701C14.9759 8.64901 14.9049 8.78001 14.9049 8.93201V10.25Z" fill="#FFAD00"/>
<path d="M16.458 9.89301V16.268C16.771 15.975 17.105 15.7 17.458 15.447V8.51001C17.458 8.46401 17.443 8.42301 17.432 8.38101C17.374 8.16901 17.189 8.01001 16.958 8.01001C16.682 8.01001 16.458 8.23401 16.458 8.51001V9.89301Z" fill="#FFAD00"/>
<path d="M18.011 9.53599V15.076C18.337 14.872 18.67 14.683 19.011 14.518V8.08899C19.011 8.04299 18.996 8.00199 18.985 7.95999C18.927 7.74799 18.742 7.58899 18.511 7.58899C18.235 7.58899 18.011 7.81299 18.011 8.08899V9.53599Z" fill="#FFAD00"/>
<path d="M23.5309 23.456C23.3309 23.34 23.1249 23.237 22.9169 23.142L22.9149 23.144C22.6359 23.423 22.3539 23.663 22.0699 23.877C22.3989 23.998 22.7209 24.143 23.0309 24.322C24.1379 24.961 24.9879 25.91 25.5169 27.043C25.5179 27.046 25.5199 27.048 25.5209 27.051C25.7309 27.007 25.9369 26.958 26.1439 26.911C26.1779 26.903 26.2129 26.896 26.2469 26.888C26.3379 26.867 26.4309 26.849 26.5199 26.827C26.5179 26.823 26.5149 26.819 26.5129 26.815C25.9089 25.41 24.8809 24.237 23.5299 23.457L23.5309 23.456Z" fill="#FFAD00"/>
<path d="M24.8599 27.18V27.19C24.5099 27.25 24.1499 27.3 23.7899 27.35C23.3999 26.7 22.8699 26.15 22.1999 25.76C21.4099 25.31 20.5299 25.11 19.6399 25.17C20.2099 25.73 20.7199 26.37 21.1299 27.08C21.2199 27.24 21.2099 27.44 21.1199 27.59C20.8499 27.6 20.5699 27.61 20.2899 27.61C20.2899 27.6 20.2699 27.59 20.2599 27.58C19.5699 26.38 18.5899 25.41 17.4199 24.73C17.6699 24.83 17.9199 24.91 18.1799 24.96C18.5899 25.03 18.9999 25.04 19.4299 25C20.0499 24.93 20.6899 24.72 21.3299 24.36C21.7999 24.48 22.2699 24.65 22.6999 24.9C23.6399 25.44 24.3799 26.23 24.8599 27.18Z" fill="#FFAD00"/>
<path d="M10.8469 21.1669C10.7909 21.2449 10.7419 21.3299 10.6879 21.4109C10.5859 21.5629 10.4809 21.7129 10.3879 21.8739C10.2499 22.1129 10.3319 22.4189 10.5709 22.5569C10.6499 22.6029 10.7359 22.6239 10.8209 22.6239C10.9939 22.6239 11.1619 22.5339 11.2549 22.3739C12.0239 21.0409 13.1669 20.0579 14.4729 19.4669C14.5649 19.0549 14.7199 18.6389 14.9359 18.2209C14.9259 18.2239 14.9159 18.2269 14.9059 18.2309C13.3169 18.7469 11.8799 19.7419 10.8479 21.1679L10.8469 21.1669Z" fill="#FFAD00"/>
<path d="M16.65 24.35C16.29 24.19 15.91 24.05 15.52 23.94C13.51 23.4 11.4 23.68 9.58995 24.72C9.34995 24.86 9.04995 24.78 8.90995 24.54C8.76995 24.3 8.84995 23.99 9.08995 23.86C9.89995 23.39 10.76 23.06 11.65 22.87C11.65 22.79 11.66 22.71 11.71 22.63C12.34 21.53 13.27 20.66 14.38 20.09C14.35 20.48 14.36 20.86 14.43 21.23C13.83 21.62 13.3 22.11 12.88 22.7C13.1 22.69 13.32 22.68 13.54 22.68C13.85 22.32 14.2 22.01 14.57 21.75C14.68 22.07 14.83 22.38 15.01 22.68C14.96 22.72 14.9 22.74 14.86 22.78C14.94 22.79 15.02 22.82 15.1 22.83C15.28 23.11 15.5 23.38 15.75 23.63C16.03 23.91 16.33 24.15 16.65 24.35Z" fill="#FFAD00"/>
<path d="M27.643 19.6489C26.865 19.4399 26.076 19.3469 25.291 19.3529C25.171 19.6929 25.033 20.0329 24.871 20.3679C25.706 20.3149 26.552 20.3919 27.384 20.6149C29.4 21.1549 31.084 22.4469 32.127 24.2549C32.154 24.3019 32.197 24.3319 32.237 24.3639C32.244 24.3699 32.249 24.3779 32.257 24.3839C32.524 24.2069 32.777 24.0229 33.02 23.8349C33.016 23.8249 33.012 23.8139 33.009 23.8029C33.005 23.7869 33.002 23.7699 32.993 23.7549C31.816 21.7169 29.916 20.2579 27.642 19.6499L27.643 19.6489Z" fill="#FFAD00"/>
<path d="M31.62 24.7899C31.36 24.9399 31.09 25.0799 30.82 25.2199C30.82 25.2099 30.81 25.2099 30.8 25.1999C30.76 25.1699 30.72 25.1399 30.69 25.0899C29.39 22.8399 26.88 21.7299 24.46 22.0799C24.76 22.2599 25.05 22.4599 25.33 22.6799C25.34 22.6799 25.35 22.6799 25.35 22.6699C27.31 22.6699 29.14 23.7199 30.11 25.4199C30.13 25.4499 30.14 25.4899 30.15 25.5299C30.15 25.5399 30.16 25.5399 30.16 25.5499C29.87 25.6899 29.57 25.8099 29.27 25.9399C29.26 25.9299 29.25 25.9299 29.25 25.9199C28.66 24.8999 27.68 24.1799 26.59 23.8599C27.22 24.5799 27.74 25.4099 28.12 26.3399V26.3499C27.97 26.3999 27.81 26.4499 27.65 26.4999C27.63 26.4999 27.61 26.5099 27.59 26.5199C27.45 26.5599 27.31 26.6099 27.16 26.6499V26.6399C26.41 24.8499 25.04 23.4599 23.38 22.6399C23.49 22.5199 23.59 22.3799 23.7 22.2499C23.8 22.1099 23.9 21.9799 24 21.8399C24.17 21.5899 24.34 21.3399 24.49 21.0899C27.25 20.7499 30.08 22.0299 31.55 24.5899C31.58 24.6399 31.6 24.6999 31.6 24.7599C31.61 24.7699 31.61 24.7799 31.62 24.7899Z" fill="#FFAD00"/>
<path d="M9.92496 25.295C9.83896 25.345 9.78196 25.42 9.73896 25.503L9.73596 25.506C9.75296 25.514 9.77096 25.521 9.78796 25.528C9.86296 25.563 9.94396 25.594 10.021 25.629C10.277 25.745 10.533 25.861 10.802 25.967C10.805 25.966 10.809 25.965 10.812 25.963C13.371 24.716 16.436 25.407 18.224 27.559C18.229 27.559 18.235 27.559 18.241 27.559C18.653 27.584 19.072 27.595 19.492 27.602C17.44 24.432 13.233 23.383 9.92496 25.293V25.295Z" fill="#FFAD00"/>
<path d="M16.2679 26.749C14.8829 25.944 13.2269 25.801 11.7409 26.302L11.7369 26.303C11.7659 26.313 11.7959 26.321 11.8239 26.33C12.1469 26.439 12.4749 26.543 12.8109 26.639C12.8549 26.652 12.8999 26.663 12.9449 26.675C13.9999 26.971 15.1169 27.202 16.2849 27.36C16.3459 27.368 16.4039 27.38 16.4649 27.388V27.387C16.5699 27.156 16.4929 26.879 16.2689 26.748L16.2679 26.749Z" fill="#FFAD00"/>
<path d="M18.011 15.076C17.823 15.194 17.639 15.317 17.458 15.447C17.105 15.7 16.771 15.975 16.458 16.268C16.421 16.303 16.383 16.336 16.347 16.371C16.312 16.404 16.275 16.436 16.241 16.469C16.121 16.589 16.013 16.71 15.905 16.831C15.497 17.289 15.176 17.754 14.935 18.219C14.718 18.636 14.564 19.053 14.472 19.465C14.425 19.673 14.396 19.879 14.379 20.084C14.347 20.474 14.363 20.858 14.434 21.229C14.468 21.406 14.517 21.579 14.573 21.75C14.679 22.073 14.825 22.383 15.005 22.679C15.036 22.73 15.065 22.781 15.098 22.83C15.285 23.113 15.501 23.382 15.752 23.632C16.03 23.91 16.332 24.145 16.65 24.344C16.896 24.499 17.153 24.629 17.418 24.732C17.667 24.829 17.922 24.905 18.184 24.954C18.587 25.029 19.005 25.041 19.43 24.994C20.054 24.924 20.694 24.717 21.334 24.359C21.58 24.221 21.826 24.061 22.07 23.876C22.354 23.662 22.636 23.422 22.915 23.143L22.917 23.141C23.076 22.982 23.23 22.816 23.379 22.643C23.49 22.515 23.594 22.381 23.699 22.247C23.804 22.112 23.904 21.975 24.002 21.835C24.174 21.59 24.337 21.34 24.487 21.083C24.624 20.847 24.754 20.608 24.871 20.366C25.033 20.031 25.171 19.691 25.291 19.351C25.918 17.576 25.936 15.808 25.048 14.714C24.992 14.645 24.94 14.571 24.877 14.507C23.775 13.405 21.805 13.427 19.86 14.156C19.576 14.263 19.292 14.38 19.012 14.515C18.671 14.68 18.338 14.869 18.012 15.073L18.011 15.076ZM21.256 18.13C22.296 19.17 22.296 20.855 21.256 21.895C20.216 22.935 18.531 22.935 17.491 21.895C16.451 20.855 16.451 19.17 17.491 18.13C18.531 17.09 20.216 17.09 21.256 18.13Z" fill="white"/>
<path d="M17.4909 18.13C16.4509 19.17 16.4509 20.855 17.4909 21.895C18.5309 22.935 20.2159 22.935 21.2559 21.895C22.2959 20.855 22.2959 19.17 21.2559 18.13C20.2159 17.09 18.5309 17.09 17.4909 18.13Z" fill="#FFCD00"/>
</svg>
