<svg width="40" height="40" viewBox="0 0 40 40" fill="none" xmlns="http://www.w3.org/2000/svg">
<g clip-path="url(#clip0_237_8070)">
<path d="M9.122 35.112C9.604 35.594 10.105 36.044 10.622 36.462C13.277 38.609 17.133 36.386 16.68 33.001C16.417 31.035 16.54 29.029 17.044 27.101H4.354C5.22 30.033 6.808 32.798 9.122 35.112Z" fill="#F77F00"/>
<path d="M26.944 17.305C28.981 16.718 31.115 16.559 33.203 16.839C36.606 17.295 38.802 13.417 36.639 10.752C36.227 10.245 35.785 9.75305 35.313 9.28105C32.9 6.86805 30.006 5.24305 26.945 4.39905V17.306L26.944 17.305Z" fill="#F77F00"/>
<path d="M3.706 15.883C2.42 19.42 2.163 23.245 2.934 26.898C3.123 27.796 3.922 28.438 4.84 28.438H16.748C17.145 26.921 17.767 25.451 18.614 24.08L3.716 15.879C3.716 15.879 3.707 15.879 3.706 15.883Z" fill="#FF9C00"/>
<path d="M15.243 4.21702C16.04 5.66402 23.428 19.086 23.438 19.104C24.818 18.189 26.305 17.51 27.848 17.065V4.59202C27.848 3.87302 27.335 3.26502 26.632 3.11702C22.873 2.32902 18.934 2.63202 15.311 4.03702C15.239 4.06502 15.205 4.14902 15.243 4.21702Z" fill="#FF9C00"/>
<path d="M3.55398 16.163L18.449 24.362C18.449 24.362 18.453 24.362 18.454 24.361C19.162 23.215 20.011 22.132 21.005 21.138C21.861 20.282 22.785 19.539 23.756 18.895L15.514 3.92201C15.027 3.03801 13.928 2.67501 13.023 3.12301C11.018 4.11601 9.12898 5.43401 7.43298 7.07901C5.40598 9.04501 3.83898 11.303 2.73298 13.72C2.32098 14.619 2.68798 15.686 3.55398 16.163Z" fill="#FFB72D"/>
</g>
<defs>
<clipPath id="clip0_237_8070">
<rect width="40" height="40" fill="white"/>
</clipPath>
</defs>
</svg>
