<svg width="40" height="40" viewBox="0 0 40 40" fill="none" xmlns="http://www.w3.org/2000/svg">
<g clip-path="url(#clip0_237_8031)">
<path d="M20 34.717C10.335 34.717 2.5 30.179 2.5 24.581C2.5 31.474 10.335 36.061 20 36.061C29.665 36.061 37.5 31.473 37.5 24.581C37.5 30.179 29.665 34.717 20 34.717Z" fill="#FFCC80"/>
<path d="M30.396 27.469V28.709C33.64 27.211 36.018 24.975 36.994 22.2C37.312 21.295 37.5 20.34 37.5 19.329C37.5 22.669 34.699 25.622 30.396 27.469Z" fill="#FFCC80"/>
<path d="M20 30.808C22.614 30.808 25.085 30.462 27.312 29.837C27.183 29.602 27.103 29.337 27.103 29.049V28.587C24.931 29.147 22.531 29.465 20 29.465C10.335 29.465 2.5 24.927 2.5 19.328C2.5 20.339 2.687 21.294 3.006 22.199C4.858 27.461 11.754 30.808 20 30.808Z" fill="#FFCC80"/>
<path d="M30.396 22.216V23.456C33.64 21.958 36.018 19.722 36.994 16.947C37.312 16.042 37.5 15.087 37.5 14.076C37.5 17.416 34.699 20.369 30.396 22.216Z" fill="#FFCC80"/>
<path d="M20 25.556C20.438 25.556 20.868 25.536 21.298 25.517C21.22 25.326 21.175 25.117 21.175 24.898V24.178C20.785 24.193 20.397 24.212 20 24.212C10.335 24.212 2.5 19.674 2.5 14.076C2.5 15.087 2.687 16.042 3.006 16.947C4.858 22.209 11.754 25.556 20 25.556Z" fill="#FFCC80"/>
<path d="M27.103 23.335C26.259 23.553 25.377 23.728 24.468 23.867V24.899C24.468 25.004 24.456 25.107 24.437 25.206C25.357 25.062 26.249 24.878 27.103 24.646V23.335Z" fill="#FFCC80"/>
<path d="M30.396 28.708V29.049C30.396 29.959 29.659 30.696 28.749 30.696C28.126 30.696 27.591 30.347 27.311 29.837C25.084 30.463 22.613 30.808 19.999 30.808C11.752 30.808 4.85602 27.461 3.00502 22.199C2.68702 22.964 2.49902 23.759 2.49902 24.58C2.49902 30.178 10.334 34.716 19.999 34.716C29.664 34.716 37.499 30.178 37.499 24.58C37.499 23.758 37.312 22.964 36.993 22.199C36.017 24.973 33.64 27.21 30.396 28.708Z" fill="#EC6700"/>
<path d="M30.396 23.456V27.468C34.698 25.621 37.5 22.667 37.5 19.328C37.5 18.506 37.313 17.712 36.994 16.947C36.018 19.721 33.64 21.958 30.396 23.456Z" fill="#EC6700"/>
<path d="M20 29.465C22.531 29.465 24.931 29.147 27.103 28.587V24.646C26.249 24.877 25.357 25.061 24.437 25.206C24.293 25.968 23.626 26.545 22.821 26.545C22.131 26.545 21.542 26.12 21.297 25.518C20.867 25.537 20.437 25.557 19.999 25.557C11.752 25.557 4.85602 22.21 3.00502 16.948C2.68702 17.713 2.49902 18.507 2.49902 19.329C2.49902 24.927 10.334 29.466 19.999 29.466L20 29.465Z" fill="#EC6700"/>
<path d="M20 24.213C20.397 24.213 20.785 24.194 21.175 24.179V21.5C21.175 20.773 20.582 20.14 20.256 20.14L20.259 20.134C20.172 20.135 20.088 20.142 20.001 20.142C12.938 20.142 7.213 16.825 7.213 12.734C7.213 8.64302 12.939 5.32702 20.001 5.32702C27.063 5.32702 32.789 8.64302 32.789 12.734C32.789 13.98 32.252 15.152 31.314 16.183L31.317 16.188C31.303 16.202 31.287 16.219 31.273 16.233C31.238 16.271 31.199 16.307 31.163 16.345C30.807 16.702 30.398 17.134 30.398 17.769V22.219C34.7 20.372 37.502 17.419 37.502 14.079C37.502 8.48102 29.667 3.94202 20.002 3.94202C10.337 3.94202 2.5 8.47802 2.5 14.076C2.5 19.674 10.335 24.213 20 24.213Z" fill="#EC6700"/>
<path d="M27.103 22.157C27.103 21.43 26.513 20.84 25.786 20.84C25.059 20.84 24.469 21.43 24.469 22.157V23.866C25.378 23.727 26.259 23.552 27.104 23.334L27.103 22.157Z" fill="#EC6700"/>
<path d="M32.7901 12.73C32.7901 8.64002 27.0601 5.33002 20.0001 5.33002C12.9401 5.33002 7.21008 8.64002 7.21008 12.73C7.21008 16.82 12.9401 20.14 20.0001 20.14C20.0901 20.14 20.1701 20.13 20.2601 20.13V20.14C20.5801 20.14 21.1801 20.77 21.1801 21.5V24.9C21.1801 25.12 21.2201 25.33 21.3001 25.52C21.5401 26.12 22.1301 26.54 22.8201 26.54C23.6301 26.54 24.2901 25.97 24.4401 25.21C24.4601 25.11 24.4701 25 24.4701 24.9V22.16C24.4701 21.43 25.0601 20.84 25.7901 20.84C26.5101 20.84 27.1001 21.43 27.1001 22.16V29.05C27.1001 29.34 27.1801 29.6 27.3101 29.84C27.5901 30.35 28.1301 30.7 28.7501 30.7C29.6601 30.7 30.4001 29.96 30.4001 29.05V17.77C30.4001 17.13 30.8101 16.7 31.1601 16.34C31.2001 16.31 31.2401 16.27 31.2701 16.23C31.2901 16.22 31.3001 16.2 31.3201 16.19L31.3101 16.18C32.2501 15.15 32.7901 13.98 32.7901 12.73ZM25.3501 11.45L20.9001 14.04C20.3601 14.35 19.6901 14.36 19.1401 14.04L14.6501 11.45C14.0701 11.11 14.0701 10.27 14.6501 9.93002L19.1001 7.35002C19.6401 7.03002 20.3101 7.03002 20.8601 7.34002L25.3501 9.94002C25.9301 10.27 25.9301 11.11 25.3501 11.45Z" fill="#BF270C"/>
<path d="M20.898 14.039L25.35 11.452C25.932 11.114 25.93 10.274 25.348 9.93699L20.856 7.34399C20.313 7.03099 19.643 7.03199 19.101 7.34699L14.649 9.93399C14.067 10.272 14.069 11.113 14.651 11.449L19.143 14.042C19.686 14.356 20.356 14.355 20.898 14.04V14.039Z" fill="#FFE0B2"/>
</g>
<defs>
<clipPath id="clip0_237_8031">
<rect width="40" height="40" fill="white"/>
</clipPath>
</defs>
</svg>
