<svg width="40" height="40" viewBox="0 0 40 40" fill="none" xmlns="http://www.w3.org/2000/svg">
<path d="M20 32.596C11.851 32.596 5.10104 29.167 3.77404 24.666C3.74804 24.883 3.71704 25.099 3.71704 25.32C3.71704 25.362 3.72704 25.402 3.72804 25.443C3.84304 30.595 11.079 34.752 20 34.752C28.921 34.752 36.157 30.595 36.272 25.443C36.272 25.402 36.283 25.362 36.283 25.32C36.283 25.099 36.252 24.883 36.226 24.666C34.899 29.167 28.149 32.596 20 32.596Z" fill="#179614"/>
<path d="M35.847 23.544L21.763 31.152C20.685 31.734 19.386 31.734 18.308 31.152L4.15202 23.505C3.89702 23.367 3.69802 23.184 3.52602 22.984C3.52602 23.007 3.52002 23.028 3.52002 23.051C3.52002 23.603 3.61802 24.14 3.77302 24.666C5.10002 29.167 11.85 32.596 19.999 32.596C28.148 32.596 34.898 29.167 36.225 24.666C36.38 24.14 36.478 23.603 36.478 23.051C36.478 23.041 36.475 23.03 36.475 23.02C36.302 23.221 36.104 23.405 35.847 23.544Z" fill="#6E452C"/>
<path d="M35.732 19.532L35.649 19.493C34.029 24.408 27.644 27.54 20 27.54C12.356 27.54 5.93803 24.393 4.33803 19.458L4.23803 19.507C2.85403 20.181 2.61403 21.926 3.52703 22.984C3.69903 23.183 3.89803 23.367 4.15303 23.505L18.309 31.152C19.387 31.734 20.686 31.734 21.764 31.152L35.848 23.544C36.105 23.405 36.305 23.221 36.477 23.02C37.394 21.953 37.139 20.191 35.733 19.532H35.732Z" fill="#FFD16B"/>
<path d="M20 27.54C27.645 27.54 34.03 24.407 35.649 19.493C35.692 19.362 35.734 19.231 35.77 19.098C33.06 22.582 27.025 25.012 20 25.012C12.975 25.012 6.93998 22.583 4.22998 19.098C4.26298 19.22 4.29898 19.339 4.33798 19.459C5.93898 24.394 12.337 27.54 20 27.54Z" fill="#ED0000"/>
<path d="M20 34.751C11.079 34.751 3.843 30.594 3.728 25.442C3.605 26.007 3.521 26.585 3.521 27.189C3.521 33.679 10.899 38 20 38C29.101 38 36.479 33.68 36.479 27.189C36.479 26.585 36.395 26.007 36.272 25.442C36.157 30.594 28.921 34.751 20 34.751Z" fill="#FF9E26"/>
<path d="M20 25.011C27.025 25.011 33.06 22.582 35.77 19.097C36.746 17.842 37.303 16.454 37.303 14.988C37.303 9.45302 31.012 1.99902 20 1.99902C8.98802 1.99902 2.69702 9.45302 2.69702 14.989C2.69702 16.455 3.25302 17.843 4.23002 19.098C6.94002 22.582 12.975 25.011 20 25.011ZM26.917 7.57302C27.165 7.27402 27.609 7.23302 27.907 7.48102C28.206 7.72902 28.247 8.17302 27.999 8.47102C27.841 8.66102 27.278 8.89302 26.89 9.03602C26.714 9.10102 26.533 8.95102 26.565 8.76602C26.635 8.35802 26.759 7.76302 26.917 7.57302ZM21.983 11.793C22.173 11.635 22.769 11.511 23.177 11.441C23.362 11.409 23.512 11.59 23.447 11.766C23.304 12.154 23.072 12.717 22.882 12.875C22.583 13.123 22.14 13.082 21.892 12.783C21.644 12.484 21.684 12.041 21.983 11.793ZM18.555 5.16702C18.801 5.14402 19.363 5.37802 19.739 5.55202C19.91 5.63102 19.931 5.86402 19.778 5.97302C19.44 6.21202 18.931 6.54602 18.685 6.56802C18.298 6.60402 17.956 6.31902 17.92 5.93202C17.884 5.54502 18.168 5.20302 18.555 5.16702ZM16.072 10.364C16.48 10.434 17.076 10.558 17.266 10.716C17.565 10.964 17.606 11.408 17.358 11.706C17.11 12.005 16.666 12.046 16.368 11.798C16.178 11.64 15.946 11.078 15.803 10.689C15.738 10.513 15.887 10.332 16.072 10.364ZM11.403 8.30502C11.561 8.11502 12.124 7.88302 12.512 7.74002C12.688 7.67502 12.869 7.82502 12.837 8.01002C12.767 8.41802 12.643 9.01402 12.485 9.20402C12.237 9.50302 11.793 9.54402 11.495 9.29602C11.196 9.04802 11.155 8.60302 11.403 8.30502Z" fill="#FF9E26"/>
<path d="M22.882 12.875C23.072 12.717 23.304 12.155 23.447 11.766C23.512 11.59 23.362 11.409 23.177 11.441C22.769 11.511 22.173 11.635 21.983 11.793C21.684 12.041 21.643 12.485 21.891 12.783C22.139 13.082 22.584 13.123 22.882 12.875Z" fill="#FFD16B"/>
<path d="M16.367 11.797C16.666 12.045 17.109 12.004 17.357 11.705C17.605 11.406 17.564 10.963 17.265 10.715C17.075 10.557 16.4789 10.433 16.0709 10.363C15.8859 10.332 15.736 10.512 15.801 10.688C15.944 11.076 16.1759 11.639 16.3659 11.797H16.367Z" fill="#FFD16B"/>
<path d="M26.891 9.03697C27.279 8.89397 27.842 8.66197 28 8.47197C28.248 8.17297 28.207 7.72997 27.908 7.48197C27.609 7.23397 27.166 7.27497 26.918 7.57397C26.76 7.76397 26.636 8.35997 26.566 8.76797C26.534 8.95297 26.715 9.10297 26.891 9.03797V9.03697Z" fill="#FFD16B"/>
<path d="M18.684 6.567C18.93 6.544 19.439 6.211 19.777 5.972C19.93 5.863 19.909 5.629 19.738 5.551C19.362 5.378 18.8 5.14399 18.554 5.16599C18.167 5.20199 17.883 5.544 17.918 5.931C17.954 6.318 18.297 6.60199 18.684 6.567Z" fill="#FFD16B"/>
<path d="M12.486 9.20294C12.644 9.01294 12.768 8.41694 12.838 8.00894C12.87 7.82394 12.689 7.67394 12.513 7.73894C12.125 7.88194 11.562 8.11394 11.404 8.30394C11.156 8.60294 11.197 9.04594 11.496 9.29394C11.795 9.54194 12.238 9.50094 12.486 9.20194V9.20294Z" fill="#FFD16B"/>
</svg>
