<svg width="40" height="40" viewBox="0 0 40 40" fill="none" xmlns="http://www.w3.org/2000/svg">
<g clip-path="url(#clip0_237_8011)">
<path d="M28.7959 4.459L28.7589 6.155L28.6429 11.536V11.586L34.0399 11.704V11.692L35.7419 11.729C37.2329 11.761 38.4669 10.575 38.4999 9.079C38.5319 7.583 37.3499 6.343 35.8599 6.311L34.1589 6.274L34.1959 4.578C34.2279 3.082 33.0459 1.842 31.5549 1.81C30.0639 1.777 28.8299 2.964 28.7969 4.46L28.7959 4.459Z" fill="#D0D5DA"/>
<path d="M29.519 6.98199L33.256 10.9L27.976 15.974L24.24 12.057L29.519 6.98199Z" fill="#D0D5DA"/>
<path d="M14.399 38.191C21.5229 38.191 27.298 32.3944 27.298 25.244C27.298 18.0936 21.5229 12.297 14.399 12.297C7.27508 12.297 1.5 18.0936 1.5 25.244C1.5 32.3944 7.27508 38.191 14.399 38.191Z" fill="#F77F00"/>
<path d="M27.118 27.49L12.245 12.477L25.498 9.72602C25.876 9.64602 26.269 9.76802 26.536 10.048L30.044 13.726C30.311 14.005 30.415 14.403 30.321 14.778L27.118 27.49Z" fill="#F77F00"/>
</g>
<defs>
<clipPath id="clip0_237_8011">
<rect width="40" height="40" fill="white"/>
</clipPath>
</defs>
</svg>
