<svg width="40" height="40" viewBox="0 0 40 40" fill="none" xmlns="http://www.w3.org/2000/svg">
<g clip-path="url(#clip0_237_7929)">
<path d="M24.566 4.85803L14.261 27.214C14.094 27.574 14.248 28.008 14.605 28.182C14.863 28.308 15.163 28.266 15.378 28.1C15.46 28.037 15.529 27.955 15.58 27.857L26.862 5.97803L24.566 4.85803Z" fill="#3D3D3D"/>
<path d="M28.85 2.10005C28.953 1.89905 28.97 1.67005 28.899 1.45505C28.828 1.24105 28.676 1.06805 28.473 0.970053L27.523 0.506053C27.32 0.407053 27.09 0.394053 26.878 0.470053C26.665 0.545053 26.496 0.700053 26.4 0.905053L24.566 4.85805L26.862 5.97805L28.85 2.10005Z" fill="#EF4452"/>
<path d="M29.1851 6.85999L15.8691 27.564C15.6541 27.897 15.7461 28.349 16.0751 28.57C16.3131 28.731 16.6161 28.731 16.8521 28.596C16.9421 28.545 17.0221 28.473 17.0861 28.384L31.3041 8.28898L29.1861 6.85999H29.1851Z" fill="#3D3D3D"/>
<path d="M33.8111 4.72501C33.9411 4.54001 33.9901 4.31601 33.9491 4.09301C33.9081 3.87101 33.7821 3.67901 33.5951 3.55301L32.7191 2.96201C32.5311 2.83501 32.3061 2.79101 32.0851 2.83601C31.8631 2.88101 31.6751 3.01001 31.5511 3.20001L29.1851 6.86001L31.3031 8.28901L33.8111 4.72501Z" fill="#EF4452"/>
<path d="M30.694 36.5791H20V16.9901H34.857L32.165 35.2511C32.087 36.0051 31.452 36.5791 30.694 36.5791Z" fill="#D0D5DA"/>
<path d="M20 16.991L22.761 11.578C23.123 10.868 23.853 10.421 24.65 10.421H37.438C38.297 10.421 38.799 11.389 38.305 12.091L34.857 16.99L20 16.991Z" fill="#AFB7C0"/>
<path d="M20 28.974V31.127H32.773L33.091 28.974H20Z" fill="#BB1B2A"/>
<path d="M9.30607 36.5791H20.0001V16.9901H5.14307L7.83507 35.2511C7.91307 36.0051 8.54807 36.5791 9.30607 36.5791Z" fill="#E5E9EE"/>
<path d="M20 16.991L17.239 11.578C16.877 10.868 16.147 10.421 15.35 10.421H2.56202C1.70302 10.421 1.20102 11.389 1.69502 12.091L5.14302 16.99L20 16.991Z" fill="#D0D5DA"/>
<path d="M20.0001 28.974V31.127H7.22706L6.90906 28.974H20.0001Z" fill="#EF4452"/>
</g>
<defs>
<clipPath id="clip0_237_7929">
<rect width="40" height="40" fill="white"/>
</clipPath>
</defs>
</svg>
