<svg width="40" height="40" viewBox="0 0 40 40" fill="none" xmlns="http://www.w3.org/2000/svg">
<g clip-path="url(#clip0_237_8020)">
<path d="M34.505 16.852C34.591 16.244 34.548 15.619 34.395 15.008L31.155 16.54C31.944 18.205 32.398 20.059 32.398 22.023C32.398 29.114 26.65 34.863 19.559 34.863C12.468 34.863 6.72 29.114 6.72 22.023C6.72 14.932 12.468 9.184 19.559 9.184V5.466C18.443 5.469 17.417 5.849 16.599 6.486C15.966 6.979 15.182 7.189 14.388 7.076C13.354 6.93 12.266 7.113 11.291 7.676C10.32 8.237 9.618 9.083 9.227 10.047C8.925 10.79 8.351 11.364 7.607 11.664C6.638 12.054 5.788 12.757 5.225 13.732C4.664 14.703 4.48 15.786 4.623 16.817C4.734 17.612 4.523 18.396 4.029 19.027C3.385 19.849 3 20.884 3 22.009C3 23.134 3.382 24.161 4.021 24.982C4.514 25.615 4.724 26.399 4.611 27.193C4.465 28.227 4.649 29.315 5.211 30.29C5.772 31.261 6.618 31.963 7.582 32.354C8.325 32.656 8.899 33.23 9.199 33.974C9.589 34.943 10.293 35.793 11.267 36.356C12.238 36.917 13.322 37.101 14.352 36.958C15.147 36.847 15.93 37.058 16.562 37.552C17.384 38.196 18.419 38.581 19.544 38.581C20.669 38.581 21.696 38.199 22.517 37.56C23.15 37.067 23.934 36.857 24.728 36.97C25.762 37.116 26.85 36.932 27.825 36.37C28.796 35.809 29.498 34.963 29.889 33.999C30.191 33.256 30.765 32.682 31.509 32.382C32.478 31.992 33.328 31.289 33.891 30.314C34.452 29.343 34.636 28.259 34.493 27.229C34.382 26.434 34.593 25.65 35.087 25.019C35.731 24.197 36.116 23.162 36.116 22.037C36.116 20.912 35.734 19.885 35.095 19.064C34.602 18.431 34.392 17.647 34.505 16.853V16.852Z" fill="#965220"/>
<path d="M19.558 9.18404C12.301 9.18404 6.45002 15.205 6.72802 22.524C6.97902 29.133 12.449 34.603 19.058 34.853C26.377 35.131 32.397 29.28 32.397 22.023C32.397 20.059 31.943 18.205 31.154 16.54L20.651 21.506C20.143 21.746 19.557 21.376 19.557 20.813V9.18304L19.558 9.18404Z" fill="#FFB95E"/>
<path d="M33.76 12.494L37 10.962C36.893 10.534 36.741 10.111 36.509 9.70903C35.948 8.73803 35.102 8.03603 34.138 7.64503C33.395 7.34303 32.821 6.76903 32.521 6.02503C32.131 5.05603 31.428 4.20603 30.453 3.64303C29.482 3.08203 28.398 2.89803 27.368 3.04103C26.573 3.15203 25.79 2.94103 25.158 2.44703C24.336 1.80303 23.301 1.41803 22.176 1.41803C22.172 1.41803 22.167 1.41903 22.163 1.41903V5.13703C27.29 5.13703 31.701 8.14903 33.76 12.493V12.494Z" fill="#965220"/>
<path d="M22.163 5.13702V16.767C22.163 17.329 22.748 17.7 23.257 17.46L33.76 12.494C31.702 8.15002 27.29 5.13702 22.163 5.13702Z" fill="#FFB95E"/>
<path d="M13.553 21.027C14.4184 21.027 15.12 20.3254 15.12 19.46C15.12 18.5946 14.4184 17.893 13.553 17.893C12.6875 17.893 11.986 18.5946 11.986 19.46C11.986 20.3254 12.6875 21.027 13.553 21.027Z" fill="#BA5300"/>
<path d="M26.395 13.467C27.2604 13.467 27.962 12.7654 27.962 11.9C27.962 11.0346 27.2604 10.333 26.395 10.333C25.5296 10.333 24.828 11.0346 24.828 11.9C24.828 12.7654 25.5296 13.467 26.395 13.467Z" fill="#BA5300"/>
<path d="M25.843 27.356C26.7084 27.356 27.41 26.6545 27.41 25.789C27.41 24.9236 26.7084 24.222 25.843 24.222C24.9776 24.222 24.276 24.9236 24.276 25.789C24.276 26.6545 24.9776 27.356 25.843 27.356Z" fill="#BA5300"/>
<path d="M16.686 30.1211C17.5514 30.1211 18.253 29.4195 18.253 28.5541C18.253 27.6886 17.5514 26.9871 16.686 26.9871C15.8206 26.9871 15.119 27.6886 15.119 28.5541C15.119 29.4195 15.8206 30.1211 16.686 30.1211Z" fill="#BA5300"/>
</g>
<defs>
<clipPath id="clip0_237_8020">
<rect width="40" height="40" fill="white"/>
</clipPath>
</defs>
</svg>
