<svg width="40" height="40" viewBox="0 0 40 40" fill="none" xmlns="http://www.w3.org/2000/svg">
<g clip-path="url(#clip0_237_7945)">
<path d="M33.48 29.571H3V34.341C3 35.446 3.896 36.342 5.001 36.342H33.48V29.571Z" fill="#FFD06C"/>
<path d="M33.48 25.568V21.886C33.48 20.18 32.097 18.797 30.391 18.797H3.472C3.175 19.364 3 19.992 3 20.647V25.568H33.48Z" fill="#FFD06C"/>
<path d="M23.67 3.77001C22.15 3.45001 20.57 3.85001 19.39 4.85001L4.41 17.6C4.01 17.94 3.71 18.35 3.47 18.8H30.39C32.1 18.8 33.48 20.18 33.48 21.89V25.57H3V29.57H33.48V36.34H35C36.1 36.34 37 35.45 37 34.34V18.8C37 18.8 35.91 6.33001 23.67 3.77001ZM23.43 15.18C21.18 15.18 19.36 13.35 19.36 11.1C19.36 8.85001 21.18 6.19001 23.43 6.19001C25.68 6.19001 27.5 8.85001 27.5 11.1C27.5 13.35 25.68 15.18 23.43 15.18Z" fill="#E5E5E5"/>
<path d="M23.4301 15.177C25.6801 15.177 27.5041 13.353 27.5041 11.103C27.5041 8.85301 25.6801 6.18701 23.4301 6.18701C21.1801 6.18701 19.3571 8.85401 19.3571 11.103C19.3571 13.352 21.1811 15.177 23.4301 15.177Z" fill="#EF4452"/>
</g>
<defs>
<clipPath id="clip0_237_7945">
<rect width="40" height="40" fill="white"/>
</clipPath>
</defs>
</svg>
