<svg width="40" height="40" viewBox="0 0 40 40" fill="none" xmlns="http://www.w3.org/2000/svg">
<g clip-path="url(#clip0_237_7880)">
<path d="M29.6251 26.944L26.7291 26.228C26.1791 26.092 25.8441 25.536 25.9801 24.987L30.3891 7.14401C30.5721 6.40501 31.4671 6.11601 32.0471 6.60801L34.5871 8.76201C34.8841 9.01401 35.0131 9.41201 34.9191 9.79001L30.8661 26.194C30.7301 26.744 30.1741 27.08 29.6251 26.944Z" fill="#FFAA00"/>
<path d="M18.9431 26.07H21.9261C22.4921 26.07 22.9511 25.611 22.9511 25.045V6.665C22.9511 5.904 22.1511 5.408 21.4701 5.747L18.4871 7.229C18.1381 7.402 17.9181 7.758 17.9181 8.147V25.044C17.9181 25.61 18.3771 26.07 18.9431 26.07Z" fill="#FFAA00"/>
<path d="M12.0861 26.3661L9.13305 26.7841C8.57205 26.8631 8.05405 26.4731 7.97405 25.9131L5.39705 7.7151C5.29005 6.9621 6.01305 6.3591 6.73505 6.5981L9.89605 7.6471C10.2651 7.7701 10.5341 8.0911 10.5881 8.4761L12.9561 25.2061C13.0351 25.7671 12.6451 26.2851 12.0851 26.3651L12.0861 26.3661Z" fill="#FFAA00"/>
<path d="M17.8941 23.5511L13.5691 22.9571C13.0031 22.9811 12.5261 22.5411 12.5021 21.9761L11.8061 5.34006C11.7901 4.96706 11.9791 4.61506 12.2981 4.42106L15.2091 2.65106C15.8761 2.24606 16.7331 2.70406 16.7661 3.48406L17.8941 23.5511Z" fill="#FFCD00"/>
<path d="M22.6901 22.848L27.1551 24.051L29.6131 4.28304C29.7291 3.53104 29.0141 2.91904 28.2891 3.15004L25.1151 4.15904C24.7441 4.27704 24.4721 4.59504 24.4131 4.98004L21.8341 21.679C21.7481 22.239 22.1311 22.762 22.6911 22.849L22.6901 22.848Z" fill="#FFCD00"/>
<path d="M32.1991 14.5901C31.5641 14.5901 30.9971 14.9241 30.6101 15.4271C28.9481 17.5861 24.8281 19.1161 20.0001 19.1161C15.1721 19.1161 11.0521 17.5861 9.39006 15.4271C9.00206 14.9241 8.43606 14.5901 7.80106 14.5901H4.98706C4.36106 14.5901 3.88606 15.1521 3.98906 15.7691L7.35106 35.8111C7.51406 36.7861 8.35806 37.5001 9.34606 37.5001H30.6531C31.6411 37.5001 32.4851 36.7861 32.6481 35.8111L36.0101 15.7691C36.1131 15.1521 35.6381 14.5901 35.0121 14.5901H32.1991Z" fill="#E32939"/>
</g>
<defs>
<clipPath id="clip0_237_7880">
<rect width="40" height="40" fill="white"/>
</clipPath>
</defs>
</svg>
