<svg width="40" height="40" viewBox="0 0 40 40" fill="none" xmlns="http://www.w3.org/2000/svg">
<g clip-path="url(#clip0_237_8004)">
<path d="M28.5 3.5H11.5C7.08172 3.5 3.5 7.08172 3.5 11.5V28.5C3.5 32.9183 7.08172 36.5 11.5 36.5H28.5C32.9183 36.5 36.5 32.9183 36.5 28.5V11.5C36.5 7.08172 32.9183 3.5 28.5 3.5Z" fill="#786DE7"/>
<path d="M15.406 19.814C15.406 14.493 19.72 10.179 25.041 10.179C25.277 10.179 25.509 10.198 25.741 10.214C24.307 9.49802 22.695 9.08502 20.983 9.08502C15.097 9.08502 10.325 13.849 10.325 19.726C10.325 25.603 15.097 30.367 20.983 30.367C22.534 30.367 24.003 30.029 25.332 29.434C25.235 29.437 25.139 29.449 25.041 29.449C19.72 29.449 15.406 25.135 15.406 19.814Z" fill="white"/>
<path d="M23.988 21.096L24.776 19.01L23.505 17.177L25.733 17.283L27.083 15.507L27.671 17.658L29.777 18.394L27.913 19.618L27.864 21.848L26.124 20.453L23.988 21.096Z" fill="white"/>
</g>
<defs>
<clipPath id="clip0_237_8004">
<rect width="40" height="40" fill="white"/>
</clipPath>
</defs>
</svg>
