<svg width="40" height="40" viewBox="0 0 40 40" fill="none" xmlns="http://www.w3.org/2000/svg">
<g clip-path="url(#clip0_237_7903)">
<path d="M20 37.0761C27.1521 37.0761 32.9501 33.7178 32.9501 29.5751C32.9501 25.4324 27.1521 22.0741 20 22.0741C12.848 22.0741 7.05005 25.4324 7.05005 29.5751C7.05005 33.7178 12.848 37.0761 20 37.0761Z" fill="#BABABA"/>
<path d="M20 34.738C30.2173 34.738 38.5 29.9403 38.5 24.022C38.5 18.1037 30.2173 13.306 20 13.306C9.78273 13.306 1.5 18.1037 1.5 24.022C1.5 29.9403 9.78273 34.738 20 34.738Z" fill="#D9D9D9"/>
<path d="M20 32.8911C27.7094 32.8911 33.959 29.2713 33.959 24.8061C33.959 20.3408 27.7094 16.7211 20 16.7211C12.2907 16.7211 6.04102 20.3408 6.04102 24.8061C6.04102 29.2713 12.2907 32.8911 20 32.8911Z" fill="#995C00"/>
<path d="M17.217 30.4161C17.508 30.4161 17.729 30.1221 17.618 29.8531C17.396 29.3141 16.866 28.9351 16.247 28.9351C15.628 28.9351 15.098 29.3141 14.876 29.8531C14.765 30.1231 14.986 30.4161 15.277 30.4161H17.217Z" fill="#901A18"/>
<path d="M31.227 21.5671C31.732 21.5671 32.068 21.0541 31.88 20.5851C31.491 19.6141 30.541 18.9291 29.431 18.9291C28.321 18.9291 27.372 19.6141 26.982 20.5851C26.794 21.0541 27.13 21.5671 27.635 21.5671H31.227Z" fill="#F77F00"/>
<path d="M21.2181 7.45103C20.8061 5.91303 18.8091 5.11203 16.7581 5.66103C14.7071 6.21003 13.3781 7.90303 13.7911 9.44103L21.2181 7.45103Z" fill="#995C00"/>
<path d="M24.569 30.199C25.074 30.199 25.41 29.686 25.222 29.217C24.833 28.246 23.883 27.561 22.773 27.561C21.663 27.561 20.714 28.246 20.324 29.217C20.136 29.686 20.472 30.199 20.977 30.199H24.569Z" fill="#F77F00"/>
<path d="M31.801 24.5821C32.092 24.5821 32.313 24.2881 32.202 24.0191C31.98 23.4801 31.45 23.1011 30.831 23.1011C30.212 23.1011 29.682 23.4801 29.46 24.0191C29.349 24.2891 29.57 24.5821 29.861 24.5821H31.8H31.801Z" fill="#901A18"/>
<path d="M27.354 26.475C27.718 26.475 27.994 26.108 27.855 25.771C27.578 25.097 26.915 24.623 26.142 24.623C25.369 24.623 24.706 25.097 24.429 25.771C24.29 26.108 24.566 26.475 24.93 26.475H27.354Z" fill="#FFCD00"/>
<path d="M23.9491 20.8721C23.9971 20.5991 23.9581 20.3101 23.8091 20.0511C23.6541 19.7831 23.4111 19.6001 23.1391 19.5081C23.1391 19.2311 23.0501 18.9521 22.8581 18.7231C22.6591 18.4861 22.3881 18.3481 22.1041 18.3051C22.0561 18.0321 21.9201 17.7731 21.6911 17.5811C21.4541 17.3821 21.1631 17.2931 20.8761 17.3001C20.7811 17.0401 20.6031 16.8081 20.3441 16.6591C20.0761 16.5041 19.7741 16.4671 19.4921 16.5241C19.3531 16.2841 19.1381 16.0871 18.8571 15.9851C18.5661 15.8791 18.2621 15.8951 17.9951 16.0001C17.8171 15.7881 17.5701 15.6311 17.2761 15.5791C16.9711 15.5251 16.6751 15.5941 16.4301 15.7431C16.2181 15.5651 15.9481 15.4541 15.6491 15.4541C15.3391 15.4541 15.0591 15.5731 14.8441 15.7631C14.6041 15.6251 14.3191 15.5621 14.0241 15.6141C13.7191 15.6681 13.4641 15.8341 13.2851 16.0581C13.0241 15.9641 12.7331 15.9511 12.4521 16.0531C12.1611 16.1591 11.9391 16.3661 11.8011 16.6191C11.5281 16.5711 11.2391 16.6101 10.9801 16.7591C10.7121 16.9141 10.5291 17.1571 10.4371 17.4291C10.1601 17.4291 9.88206 17.5171 9.65206 17.7091C9.41506 17.9081 9.27706 18.1791 9.23406 18.4631C8.96106 18.5111 8.70206 18.6471 8.51006 18.8751C8.31106 19.1121 8.22206 19.4031 8.22906 19.6901C7.96906 19.7851 7.73706 19.9631 7.58806 20.2221C7.43306 20.4901 7.39606 20.7921 7.45306 21.0741C7.21306 21.2131 6.91406 21.3941 6.91406 21.7091C6.91406 21.7171 6.91906 21.7281 6.92106 21.7371H6.90906C6.90906 24.5531 10.8501 26.8351 15.7111 26.8351C20.5721 26.8351 24.5131 24.5521 24.5131 21.7371C24.5131 21.3151 24.2001 21.0081 23.9471 20.8711L23.9491 20.8721Z" fill="#EBEBEB"/>
<path d="M21.675 7.63702C21.598 7.47202 21.467 7.33002 21.289 7.24702C21.104 7.16102 20.904 7.15402 20.722 7.20702C20.617 7.05802 20.464 6.94102 20.274 6.89002C20.077 6.83702 19.879 6.86502 19.709 6.94902C19.58 6.82002 19.409 6.73102 19.213 6.71402C19.01 6.69602 18.819 6.75802 18.667 6.87002C18.517 6.76602 18.334 6.70802 18.138 6.72502C17.935 6.74302 17.758 6.83702 17.628 6.97402C17.463 6.89702 17.272 6.87202 17.082 6.92302C16.885 6.97602 16.727 7.09902 16.622 7.25702C16.446 7.21002 16.253 7.21902 16.075 7.30202C15.89 7.38802 15.756 7.53702 15.68 7.71002C15.498 7.69402 15.31 7.73602 15.149 7.84902C14.982 7.96602 14.876 8.13602 14.831 8.32002C14.649 8.33602 14.472 8.41002 14.332 8.54902C14.188 8.69302 14.113 8.87902 14.101 9.06802C13.925 9.11502 13.763 9.21902 13.65 9.38002C13.533 9.54702 13.492 9.74302 13.513 9.93102C13.35 10.007 21.862 7.61502 21.674 7.63602L21.675 7.63702Z" fill="#EBEBEB"/>
<path d="M22.7041 8.78406L37.5021 5.40406C37.9781 5.28806 38.2661 4.80306 38.1391 4.33006L37.9361 3.57206C37.8091 3.09906 37.3181 2.82206 36.8471 2.96006L22.3411 7.43106L22.7041 8.78406Z" fill="#3D3D3D"/>
<path d="M13.542 9.78803C13.193 9.88203 13.065 10.312 13.312 10.576C14.021 11.335 15.499 12.482 17.617 11.914C20.676 11.094 21.829 8.98003 22.367 8.84903L22.703 8.78403L22.34 7.43103L13.541 9.78903L13.542 9.78803Z" fill="#BABABA"/>
</g>
<defs>
<clipPath id="clip0_237_7903">
<rect width="40" height="40" fill="white"/>
</clipPath>
</defs>
</svg>
