<svg width="40" height="40" viewBox="0 0 40 40" fill="none" xmlns="http://www.w3.org/2000/svg">
<g clip-path="url(#clip0_237_7739)">
<path d="M19.9999 37.0559C27.1493 37.0559 32.9449 33.699 32.9449 29.5579C32.9449 25.4169 27.1493 22.0599 19.9999 22.0599C12.8506 22.0599 7.05493 25.4169 7.05493 29.5579C7.05493 33.699 12.8506 37.0559 19.9999 37.0559Z" fill="#BABABA"/>
<path d="M20 34.72C30.2134 34.72 38.493 29.9241 38.493 24.008C38.493 18.0919 30.2134 13.296 20 13.296C9.78656 13.296 1.50696 18.0919 1.50696 24.008C1.50696 29.9241 9.78656 34.72 20 34.72Z" fill="#D9D9D9"/>
<path d="M20 32.873C27.706 32.873 33.953 29.2546 33.953 24.791C33.953 20.3274 27.706 16.709 20 16.709C12.294 16.709 6.047 20.3274 6.047 24.791C6.047 29.2546 12.294 32.873 20 32.873Z" fill="#EC4F00"/>
<path d="M26.5061 29.0929C26.2851 29.0929 26.0841 28.9459 26.0241 28.7229C24.9981 24.8949 21.0471 22.6099 17.2201 23.6399C16.9551 23.7069 16.6791 23.5529 16.6081 23.2859C16.5371 23.0189 16.6951 22.7459 16.9621 22.6739C21.3211 21.5099 25.8221 24.1039 26.9911 28.4639C27.0621 28.7319 26.9041 29.0049 26.6371 29.0769C26.5941 29.0879 26.5501 29.0939 26.5071 29.0939L26.5061 29.0929Z" fill="#FFAD00"/>
<path d="M25.021 29.4909C24.8 29.4909 24.598 29.3439 24.539 29.1209C24.149 27.6649 23.213 26.4469 21.905 25.6909C20.596 24.9359 19.073 24.7319 17.618 25.1249C17.353 25.1919 17.077 25.0369 17.006 24.7709C16.935 24.5029 17.093 24.2299 17.36 24.1579C19.073 23.7019 20.865 23.9349 22.405 24.8249C23.945 25.7149 25.046 27.1479 25.505 28.8609C25.576 29.1289 25.418 29.4019 25.151 29.4739C25.108 29.4849 25.064 29.4909 25.021 29.4909Z" fill="#FFAD00"/>
<path d="M23.5361 29.889C23.3151 29.889 23.1131 29.742 23.0541 29.518C22.4681 27.329 20.2121 26.02 18.0161 26.611C17.7491 26.676 17.4751 26.524 17.4041 26.257C17.3331 25.99 17.4911 25.717 17.7581 25.645C20.4821 24.918 23.2911 26.537 24.0201 29.261C24.0911 29.528 23.9331 29.801 23.6661 29.873C23.6231 29.884 23.5791 29.889 23.5361 29.889Z" fill="#FFAD00"/>
<path d="M10.629 24.125C10.544 24.125 10.458 24.104 10.379 24.058C10.14 23.92 10.058 23.615 10.196 23.375C12.274 19.777 16.89 18.538 20.489 20.617C20.728 20.755 20.81 21.06 20.672 21.3C20.534 21.54 20.227 21.62 19.989 21.483C16.868 19.683 12.863 20.756 11.062 23.876C10.969 24.036 10.801 24.126 10.628 24.126L10.629 24.125Z" fill="#FFAD00"/>
<path d="M11.848 24.8289C11.763 24.8289 11.677 24.8079 11.598 24.7619C11.359 24.6239 11.277 24.3189 11.415 24.0789C13.106 21.1529 16.862 20.1459 19.787 21.8359C20.026 21.9739 20.108 22.2789 19.97 22.5189C19.831 22.7569 19.525 22.8399 19.287 22.7019C16.839 21.2889 13.697 22.1309 12.282 24.5799C12.189 24.7399 12.021 24.8289 11.848 24.8289Z" fill="#FFAD00"/>
<path d="M13.355 25.096C13.25 25.096 13.144 25.063 13.054 24.995C12.833 24.828 12.79 24.515 12.956 24.294C14.388 22.398 17.023 21.865 19.082 23.055C19.321 23.193 19.403 23.498 19.265 23.738C19.126 23.976 18.82 24.058 18.582 23.921C16.957 22.984 14.882 23.404 13.754 24.899C13.656 25.029 13.506 25.096 13.355 25.096Z" fill="#FFAD00"/>
<path d="M30.738 25.8649C30.565 25.8649 30.397 25.7749 30.304 25.6149C29.344 23.9519 27.794 22.7619 25.939 22.2649C24.084 21.7679 22.148 22.0239 20.484 22.9829C20.245 23.1209 19.939 23.0389 19.801 22.7999C19.663 22.5609 19.745 22.2549 19.984 22.1169C21.879 21.0239 24.084 20.7319 26.197 21.2989C28.31 21.8649 30.075 23.2199 31.169 25.1139C31.307 25.3529 31.225 25.6589 30.986 25.7969C30.907 25.8429 30.821 25.8639 30.736 25.8639L30.738 25.8649Z" fill="#FFAD00"/>
<path d="M29.4061 26.6339C29.2331 26.6339 29.0651 26.5439 28.9721 26.3839C28.2191 25.0789 27.0001 24.1459 25.5401 23.7539C24.0801 23.3629 22.5581 23.5629 21.2531 24.3159C21.0131 24.4539 20.7081 24.3729 20.5701 24.1329C20.4321 23.8939 20.5141 23.5879 20.7531 23.4499C22.2881 22.5619 24.0801 22.3249 25.7991 22.7879C27.5161 23.2479 28.9511 24.3479 29.8381 25.8839C29.9761 26.1229 29.8941 26.4289 29.6551 26.5669C29.5761 26.6129 29.4911 26.6339 29.4061 26.6339Z" fill="#FFAD00"/>
<path d="M28.0751 27.4029C27.9021 27.4029 27.7341 27.3129 27.6411 27.1529C26.9091 25.8829 25.5431 25.0969 24.0741 25.0969C24.0681 25.0969 24.0631 25.1059 24.0541 25.0969C23.7791 25.0969 23.5551 24.8739 23.5541 24.5989C23.5541 24.3159 23.7891 24.0919 24.0741 24.0969C25.9001 24.0969 27.5971 25.0749 28.5081 26.6529C28.6461 26.8919 28.5641 27.1979 28.3251 27.3359C28.2461 27.3819 28.1601 27.4029 28.0751 27.4029Z" fill="#FFAD00"/>
<path d="M19.765 28.941C19.592 28.941 19.424 28.851 19.331 28.691C18.371 27.028 16.821 25.838 14.966 25.341C13.111 24.843 11.174 25.1 9.511 26.059C9.272 26.197 8.966 26.115 8.828 25.876C8.69 25.637 8.772 25.331 9.011 25.193C10.905 24.099 13.111 23.808 15.224 24.375C17.337 24.941 19.102 26.296 20.196 28.19C20.334 28.429 20.252 28.735 20.013 28.873C19.934 28.919 19.848 28.94 19.763 28.94L19.765 28.941Z" fill="#FFAD00"/>
<path d="M18.434 29.71C18.261 29.71 18.093 29.62 18 29.46C17.247 28.155 16.028 27.222 14.568 26.83C13.108 26.438 11.586 26.639 10.281 27.392C10.042 27.53 9.73602 27.448 9.59802 27.209C9.46002 26.97 9.54202 26.664 9.78102 26.526C11.316 25.637 13.108 25.402 14.827 25.864C16.544 26.324 17.979 27.424 18.866 28.96C19.004 29.199 18.922 29.505 18.683 29.643C18.604 29.689 18.519 29.71 18.434 29.71Z" fill="#FFAD00"/>
<path d="M15.4339 28.804C15.3489 28.804 15.2619 28.783 15.1829 28.737C13.9059 27.993 12.3229 27.989 11.0499 28.723C10.8109 28.862 10.5049 28.779 10.3669 28.54C10.2289 28.301 10.3109 27.995 10.5499 27.857C12.1329 26.942 14.1009 26.948 15.6859 27.871C15.9249 28.011 16.0059 28.316 15.8669 28.556C15.7739 28.715 15.6069 28.804 15.4339 28.804Z" fill="#FFAD00"/>
<path d="M17.1929 29.417C17.1079 29.563 17.1679 29.745 17.3229 29.81C17.7579 29.994 18.6459 30.283 19.4719 30.009C20.2979 29.735 20.8379 28.973 21.0759 28.565C21.1609 28.419 21.1009 28.237 20.9459 28.172C20.5109 27.988 19.6229 27.699 18.7969 27.973C17.9709 28.247 17.4309 29.009 17.1929 29.417Z" fill="#036D50"/>
<path d="M30.946 27.3239C31.043 27.4619 30.997 27.6479 30.848 27.7269C30.433 27.9439 29.583 28.2979 28.748 28.0949C27.913 27.8919 27.321 27.1869 27.052 26.8029C26.955 26.6649 27.001 26.4789 27.15 26.3999C27.565 26.1829 28.415 25.8289 29.25 26.0319C30.085 26.2349 30.677 26.9399 30.946 27.3239Z" fill="#036D50"/>
<path d="M22.1829 8.89499L36.9959 5.51099C37.4729 5.39499 37.7609 4.90999 37.6339 4.43599L37.4309 3.67699C37.3039 3.20299 36.8119 2.92699 36.3409 3.06499L21.8199 7.53999L22.1829 8.89499Z" fill="#3D3D3D"/>
<path d="M19.34 8.78404C18.722 9.33404 17.981 9.72804 17.179 9.93204L13.977 10.747C13.717 10.813 13.561 11.079 13.63 11.339C13.692 11.571 13.917 11.722 14.155 11.692L19.456 11.026C20.189 10.905 20.515 10.344 20.754 10.011C20.993 9.67804 21.306 9.09104 21.845 8.96004L22.182 8.89504L21.819 7.54004L21.376 7.65904C20.649 7.85404 19.978 8.21604 19.417 8.71604L19.34 8.78404Z" fill="#BABABA"/>
<path d="M18.3789 20.805C18.1029 20.805 17.8789 20.581 17.8789 20.305V9.45801C17.8789 9.18201 18.1029 8.95801 18.3789 8.95801C18.6549 8.95801 18.8789 9.18201 18.8789 9.45801V20.305C18.8789 20.581 18.6549 20.805 18.3789 20.805Z" fill="#FFAD00"/>
<path d="M16.943 20.616C16.667 20.616 16.443 20.392 16.443 20.116V9.93103C16.443 9.65503 16.667 9.43103 16.943 9.43103C17.219 9.43103 17.443 9.65503 17.443 9.93103V20.116C17.443 20.392 17.219 20.616 16.943 20.616Z" fill="#FFAD00"/>
<path d="M15.507 20.6061C15.231 20.6061 15.007 20.3821 15.007 20.1061V10.3571C15.007 10.0811 15.231 9.85706 15.507 9.85706C15.783 9.85706 16.007 10.0811 16.007 10.3571V20.1061C16.007 20.3821 15.783 20.6061 15.507 20.6061Z" fill="#FFAD00"/>
<path d="M24.075 22.6279C24.101 22.4809 24.08 22.3259 24 22.1869C23.917 22.0429 23.786 21.9449 23.64 21.8949C23.64 21.7459 23.592 21.5959 23.489 21.4729C23.382 21.3459 23.236 21.2709 23.084 21.2479C23.058 21.1009 22.985 20.9619 22.862 20.8589C22.734 20.7519 22.578 20.7039 22.424 20.7079C22.373 20.5679 22.277 20.4439 22.138 20.3629C21.994 20.2799 21.832 20.2599 21.68 20.2909C21.606 20.1619 21.49 20.0559 21.339 20.0009C21.183 19.9439 21.019 19.9529 20.876 20.0089C20.78 19.8949 20.648 19.8109 20.49 19.7829C20.326 19.7539 20.167 19.7909 20.035 19.8709C19.921 19.7749 19.776 19.7159 19.615 19.7159C19.449 19.7159 19.298 19.7799 19.182 19.8819C19.053 19.8079 18.9 19.7739 18.742 19.8019C18.578 19.8309 18.441 19.9199 18.345 20.0409C18.205 19.9899 18.048 19.9839 17.897 20.0389C17.741 20.0959 17.621 20.2069 17.547 20.3429C17.4 20.3169 17.245 20.3379 17.106 20.4179C16.962 20.5009 16.864 20.6319 16.814 20.7779C16.665 20.7779 16.515 20.8259 16.392 20.9289C16.264 21.0359 16.19 21.1819 16.167 21.3339C16.02 21.3599 15.881 21.4329 15.778 21.5559C15.671 21.6839 15.623 21.8399 15.627 21.9939C15.487 22.0449 15.363 22.1409 15.282 22.2799C15.199 22.4239 15.179 22.5859 15.209 22.7379C15.08 22.8129 14.919 22.9099 14.919 23.0789C14.919 23.0829 14.922 23.0889 14.923 23.0939H14.917C14.917 24.6069 17.035 25.8339 19.647 25.8339C22.259 25.8339 24.377 24.6069 24.377 23.0939C24.377 22.8669 24.209 22.7019 24.073 22.6279H24.075Z" fill="#CB2C29"/>
</g>
<defs>
<clipPath id="clip0_237_7739">
<rect width="40" height="40" fill="white"/>
</clipPath>
</defs>
</svg>
