<svg width="40" height="40" viewBox="0 0 40 40" fill="none" xmlns="http://www.w3.org/2000/svg">
<g clip-path="url(#clip0_237_7206)">
<path d="M37.1471 19.967L19.9861 2.80603L2.63405 20.158L2.65105 20.175C0.173054 23.009 1.81305 28.895 6.44205 33.523C11.0711 38.151 16.9571 39.792 19.7901 37.314L19.7951 37.319L37.1471 19.967Z" fill="#FFD06C"/>
<path d="M37.1966 19.9353C39.9138 17.1806 38.2476 11.1313 33.475 6.42369C28.7024 1.71613 22.6307 0.133042 19.9135 2.88776C17.1964 5.64247 18.8626 11.6918 23.6352 16.3994C28.4078 21.107 34.4794 22.6901 37.1966 19.9353Z" fill="#FF9C00"/>
<path d="M33.5781 19.0129C33.6861 18.9349 33.7971 18.8609 33.8931 18.7649C35.0201 17.6299 34.8251 15.6099 33.4581 14.2519C33.0661 13.8629 32.6191 13.5829 32.1561 13.3899C32.5911 12.2579 32.2501 10.7969 31.1821 9.73589C30.0911 8.65289 28.5911 8.33389 27.4541 8.81889C27.2611 8.30089 26.9591 7.79789 26.5221 7.36389C25.1551 6.00689 23.1331 5.82589 22.0061 6.96089C21.0301 5.99189 19.7231 5.63389 18.6441 5.91589C18.4011 8.95389 20.2041 13.0029 23.6141 16.3759C27.1021 19.8269 31.2881 21.5989 34.3551 21.2299C34.3591 20.4859 34.0981 19.6959 33.5811 19.0109L33.5781 19.0129ZM23.0631 9.04289C22.6671 9.08789 22.3151 8.80389 22.2771 8.40789C22.2391 8.01189 22.5291 7.65489 22.9251 7.60989C23.3211 7.56489 23.6731 7.84889 23.7111 8.24489C23.7491 8.64089 23.4591 8.99789 23.0631 9.04289ZM24.4151 13.8389C23.9981 13.8869 23.6281 13.5879 23.5881 13.1719C23.5481 12.7559 23.8531 12.3799 24.2701 12.3329C24.6871 12.2849 25.0571 12.5839 25.0971 12.9999C25.1371 13.4159 24.8321 13.7919 24.4151 13.8389ZM28.1441 11.4309C28.0681 11.5469 27.9571 11.6979 27.8171 11.8439C27.9261 12.0069 28.0151 12.1699 28.0681 12.2929C28.1221 12.4189 28.0721 12.5629 27.9501 12.6289C27.6421 12.7969 27.0301 13.0639 26.4951 12.8839C25.9601 12.7039 25.6451 12.1269 25.5081 11.8089C25.4901 11.7679 25.4871 11.7249 25.4911 11.6829C25.4861 11.6639 25.4791 11.6459 25.4781 11.6249C25.4651 11.2769 25.5021 10.6149 25.9051 10.2079C26.3091 9.80189 26.9701 9.75989 27.3191 9.76989C27.4571 9.77389 27.5631 9.87989 27.5681 10.0179C27.5741 10.1979 27.5651 10.4629 27.5011 10.7319C27.7441 10.8339 27.9511 10.9749 28.0881 11.0799C28.1961 11.1629 28.2201 11.3129 28.1441 11.4289V11.4309ZM30.4531 12.5949C30.8701 12.5479 31.2401 12.8459 31.2801 13.2619C31.3201 13.6779 31.0151 14.0539 30.5981 14.1009C30.1811 14.1479 29.8111 13.8499 29.7711 13.4339C29.7311 13.0179 30.0361 12.6419 30.4531 12.5949ZM32.1531 17.3119C31.8301 17.8199 31.1571 18.0119 30.7951 18.0819C30.7481 18.0909 30.7041 18.0839 30.6621 18.0709C30.6411 18.0709 30.6211 18.0749 30.6001 18.0709C30.2401 18.0059 29.5721 17.8199 29.2611 17.3159C28.9501 16.8119 29.0801 16.1249 29.1811 15.7709C29.2211 15.6309 29.3571 15.5449 29.4991 15.5709C29.6851 15.6049 29.9531 15.6739 30.2121 15.7999C30.3801 15.5739 30.5781 15.3939 30.7211 15.2769C30.8351 15.1849 30.9941 15.1939 31.0931 15.2979C31.1921 15.4019 31.3171 15.5489 31.4311 15.7249C31.6261 15.6499 31.8161 15.5949 31.9561 15.5689C32.0991 15.5419 32.2331 15.6259 32.2691 15.7649C32.3611 16.1179 32.4751 16.8039 32.1511 17.3109L32.1531 17.3119Z" fill="#6E4944"/>
<path d="M27.502 10.7339C27.566 10.4649 27.575 10.2009 27.569 10.0199C27.564 9.88289 27.457 9.77589 27.32 9.77189C26.972 9.76189 26.31 9.80289 25.906 10.2099C25.502 10.6159 25.466 11.2779 25.479 11.6269C25.479 11.6479 25.487 11.6659 25.492 11.6849C25.488 11.7269 25.492 11.7689 25.509 11.8109C25.646 12.1289 25.961 12.7069 26.496 12.8859C27.031 13.0649 27.643 12.7989 27.951 12.6309C28.073 12.5639 28.123 12.4199 28.069 12.2949C28.016 12.1719 27.927 12.0089 27.818 11.8459C27.958 11.6989 28.069 11.5479 28.145 11.4329C28.221 11.3169 28.197 11.1669 28.089 11.0839C27.952 10.9789 27.745 10.8379 27.502 10.7359V10.7339Z" fill="#5BC219"/>
<path d="M31.958 15.5699C31.818 15.5969 31.628 15.6509 31.433 15.7259C31.319 15.5499 31.194 15.4019 31.095 15.2989C30.996 15.1949 30.837 15.1859 30.723 15.2779C30.579 15.3939 30.381 15.5749 30.214 15.8009C29.955 15.6749 29.687 15.6059 29.501 15.5719C29.359 15.5459 29.223 15.6319 29.183 15.7719C29.082 16.1259 28.952 16.8129 29.263 17.3169C29.574 17.8209 30.242 18.0069 30.602 18.0719C30.623 18.0759 30.644 18.0719 30.664 18.0719C30.706 18.0849 30.75 18.0919 30.797 18.0829C31.158 18.0139 31.831 17.8209 32.155 17.3129C32.478 16.8049 32.365 16.1199 32.273 15.7669C32.237 15.6269 32.102 15.5429 31.96 15.5709L31.958 15.5699Z" fill="#5BC219"/>
<path d="M30.5991 14.102C31.0161 14.054 31.3211 13.679 31.2811 13.263C31.2411 12.847 30.8711 12.548 30.4541 12.596C30.0371 12.643 29.7321 13.019 29.7721 13.435C29.8121 13.851 30.1821 14.15 30.5991 14.102Z" fill="#FFD06C"/>
<path d="M22.9251 7.61089C22.5291 7.65589 22.2381 8.01289 22.2771 8.40889C22.3161 8.80489 22.6671 9.08889 23.0631 9.04389C23.4591 8.99889 23.7501 8.64189 23.7111 8.24589C23.6721 7.84989 23.3211 7.56589 22.9251 7.61089Z" fill="#FFD06C"/>
<path d="M24.27 12.3329C23.853 12.3799 23.548 12.7559 23.588 13.1719C23.628 13.5879 23.998 13.8869 24.415 13.8389C24.832 13.7919 25.137 13.4159 25.097 12.9999C25.057 12.5839 24.687 12.2849 24.27 12.3329Z" fill="#FFD06C"/>
</g>
<defs>
<clipPath id="clip0_237_7206">
<rect width="40" height="40" fill="white"/>
</clipPath>
</defs>
</svg>
