<svg width="40" height="40" viewBox="0 0 40 40" fill="none" xmlns="http://www.w3.org/2000/svg">
<g clip-path="url(#clip0_237_7340)">
<path d="M37.684 30.423L36.565 28.615L21.436 4.18301C20.62 2.86601 18.697 2.88901 17.913 4.22501L4.92904 26.351L3.36804 29.011L2.29004 30.847C1.67204 31.899 2.07704 33.254 3.16504 33.807C13.866 39.239 26.506 38.966 36.88 33.402C37.955 32.825 38.326 31.46 37.684 30.423Z" fill="#F77F00"/>
<path d="M21.448 4.21804C20.632 2.90104 18.709 2.92404 17.925 4.26004L5.45998 25.499L3.95398 28.065C13.957 33.951 26.333 33.656 35.977 27.684L21.448 4.21804Z" fill="#FFAD00"/>
<path d="M17.459 11.297C17.459 9.91503 16.772 8.69803 15.726 7.95203L11.588 15.004C12.123 15.258 12.714 15.412 13.345 15.412C15.617 15.412 17.459 13.57 17.459 11.298V11.297Z" fill="#EF4452"/>
<path d="M25.308 16.797C25.308 19.069 27.15 20.911 29.422 20.911C30.163 20.911 30.849 20.699 31.45 20.356L27.13 13.38C26.031 14.119 25.307 15.373 25.307 16.797H25.308Z" fill="#EF4452"/>
<path d="M18.4281 17.854C16.1561 17.854 14.3141 19.696 14.3141 21.968C14.3141 24.24 16.1561 26.082 18.4281 26.082C20.7001 26.082 22.5421 24.24 22.5421 21.968C22.5421 19.696 20.7001 17.854 18.4281 17.854Z" fill="#EF4452"/>
<path d="M28.3939 24.5528L26.6314 25.4418C26.2646 25.6268 26.1172 26.0743 26.3022 26.4411L27.1912 28.2036C27.3763 28.5705 27.8237 28.7179 28.1905 28.5329L29.953 27.6439C30.3199 27.4588 30.4673 27.0114 30.2823 26.6445L29.3933 24.882C29.2082 24.5152 28.7608 24.3678 28.3939 24.5528Z" fill="#036D50"/>
<path d="M21.089 13.3431L22.4988 14.0542C22.7922 14.2022 23.15 14.0843 23.298 13.7909L24.0091 12.3811C24.1571 12.0877 24.0392 11.7299 23.7458 11.5819L22.336 10.8708C22.0426 10.7228 21.6848 10.8407 21.5368 11.1341L20.8257 12.5439C20.6777 12.8373 20.7956 13.1951 21.089 13.3431Z" fill="#299C50"/>
<path d="M10.1494 25.5944L11.7259 25.5054C12.054 25.4868 12.3049 25.2058 12.2864 24.8777L12.1973 23.3013C12.1788 22.9732 11.8978 22.7222 11.5697 22.7408L9.9932 22.8299C9.66511 22.8484 9.41417 23.1294 9.43271 23.4575L9.52179 25.034C9.54033 25.362 9.82132 25.613 10.1494 25.5944Z" fill="#45AA1F"/>
</g>
<defs>
<clipPath id="clip0_237_7340">
<rect width="40" height="40" fill="white"/>
</clipPath>
</defs>
</svg>
