<svg width="40" height="40" viewBox="0 0 40 40" fill="none" xmlns="http://www.w3.org/2000/svg">
<g clip-path="url(#clip0_237_8085)">
<path d="M20 37.895C29.8831 37.895 37.895 29.8831 37.895 20C37.895 10.1169 29.8831 2.10501 20 2.10501C10.1168 2.10501 2.10498 10.1169 2.10498 20C2.10498 29.8831 10.1168 37.895 20 37.895Z" fill="#D0D5DA"/>
<path d="M34.933 20.226C34.933 19.403 34.694 18.635 34.283 17.989C33.761 17.169 33.476 16.199 33.578 15.232C33.666 14.392 33.501 13.518 33.046 12.729C32.635 12.017 32.046 11.472 31.368 11.118C30.437 10.632 29.757 9.81402 29.279 8.87902C28.928 8.19202 28.383 7.59602 27.664 7.18102C26.952 6.77002 26.17 6.59302 25.405 6.62502C24.356 6.66902 23.358 6.30102 22.476 5.73002C21.829 5.31102 21.058 5.06702 20.228 5.06702C19.405 5.06702 18.637 5.30602 17.991 5.71702C17.171 6.23902 16.201 6.52402 15.234 6.42202C14.394 6.33402 13.52 6.49902 12.732 6.95402C12.02 7.36502 11.476 7.95402 11.122 8.63202C10.636 9.56302 9.81797 10.243 8.88197 10.721C8.19497 11.072 7.59797 11.617 7.18297 12.336C6.77197 13.048 6.59497 13.83 6.62697 14.595C6.67097 15.644 6.30297 16.643 5.73197 17.524C5.31297 18.172 5.06897 18.942 5.06897 19.772C5.06897 20.595 5.30797 21.363 5.71897 22.009C6.24097 22.829 6.52597 23.798 6.42397 24.766C6.33597 25.606 6.50097 26.48 6.95597 27.269C7.36697 27.981 7.95597 28.525 8.63397 28.879C9.56497 29.365 10.245 30.183 10.724 31.119C11.075 31.806 11.62 32.403 12.339 32.818C13.051 33.229 13.833 33.406 14.598 33.374C15.647 33.33 16.646 33.698 17.527 34.269C18.175 34.688 18.945 34.932 19.775 34.932C20.599 34.932 21.366 34.693 22.013 34.282C22.833 33.76 23.802 33.475 24.769 33.577C25.609 33.665 26.483 33.5 27.272 33.045C27.984 32.634 28.528 32.045 28.882 31.367C29.368 30.436 30.186 29.756 31.122 29.277C31.809 28.926 32.405 28.381 32.82 27.662C33.231 26.95 33.408 26.168 33.376 25.403C33.332 24.354 33.7 23.355 34.271 22.474C34.69 21.826 34.933 21.056 34.933 20.226Z" fill="#03905A"/>
<path d="M17.339 22.795C18.747 24.344 18.632 26.741 17.083 28.149C15.534 29.557 13.137 29.442 11.729 27.893C10.321 26.344 9.33903 22.74 10.888 21.333C12.437 19.925 15.931 21.247 17.338 22.796L17.339 22.795Z" fill="white"/>
<path d="M14.903 27.894C16.0871 27.894 17.047 26.9341 17.047 25.75C17.047 24.5659 16.0871 23.606 14.903 23.606C13.7189 23.606 12.759 24.5659 12.759 25.75C12.759 26.9341 13.7189 27.894 14.903 27.894Z" fill="#FFC261"/>
<path d="M17.8569 18.972C19.2469 21.615 22.5149 22.631 25.1579 21.241C27.8009 19.851 28.8169 16.583 27.4269 13.94L17.8569 18.972Z" fill="#D14141"/>
<path d="M26.0259 14.677C27.0089 16.546 26.2899 18.857 24.4219 19.84C22.5539 20.823 20.2419 20.104 19.2589 18.236L26.0259 14.678V14.677Z" fill="#F25F5F"/>
<path d="M27.475 29.481C29.145 28.178 29.558 25.915 28.396 24.426C27.482 23.254 26.855 24.183 25.815 25.267C25.754 24.958 25.62 24.647 25.403 24.368C24.777 23.565 24.297 24.052 23.639 24.565C22.981 25.078 22.392 25.425 23.018 26.228C23.236 26.507 23.505 26.713 23.79 26.847C22.486 27.591 21.433 27.974 22.347 29.146C23.508 30.635 25.804 30.785 27.474 29.482L27.475 29.481Z" fill="#E5E9EE"/>
<path d="M16.3006 13.0544L14.7309 11.9715C14.2926 11.6692 13.6923 11.7794 13.39 12.2176L12.3071 13.7873C12.0047 14.2255 12.1149 14.8259 12.5531 15.1282L14.1228 16.2111C14.5611 16.5134 15.1614 16.4033 15.4637 15.965L16.5467 14.3953C16.849 13.9571 16.7388 13.3568 16.3006 13.0544Z" fill="#FFD361"/>
<path d="M25.3066 11.6153L25.0992 10.3867C25.0413 10.0436 24.7163 9.81239 24.3732 9.8703L23.1446 10.0777C22.8015 10.1356 22.5703 10.4607 22.6282 10.8038L22.8356 12.0324C22.8935 12.3755 23.2186 12.6066 23.5617 12.5487L24.7903 12.3413C25.1334 12.2834 25.3645 11.9584 25.3066 11.6153Z" fill="#FFD361"/>
</g>
<defs>
<clipPath id="clip0_237_8085">
<rect width="40" height="40" fill="white"/>
</clipPath>
</defs>
</svg>
