<svg width="40" height="40" viewBox="0 0 40 40" fill="none" xmlns="http://www.w3.org/2000/svg">
<g clip-path="url(#clip0_237_8049)">
<path d="M10.635 24.386C11.001 24.386 11.359 24.365 11.711 24.335C11.214 24.165 10.779 23.836 10.475 23.387L10.102 22.835C6.60597 22.688 3.79597 21.121 3.39397 19.125L3.33997 19.108V20.168C3.33997 20.606 3.45497 21.027 3.66897 21.424C4.59397 23.14 7.36297 24.386 10.635 24.386Z" fill="#B83F28"/>
<path d="M30.411 22.8339C30.395 22.8549 30.375 22.8719 30.359 22.8929L29.223 24.3699C29.417 24.3789 29.612 24.3869 29.81 24.3869C33.082 24.3869 35.852 23.1419 36.776 21.4259C36.99 21.0299 37.105 20.6079 37.105 20.1699V18.9579L37.076 18.9699C36.795 21.0269 33.966 22.6659 30.411 22.8339Z" fill="#B83F28"/>
<path d="M20.223 27.873C16.917 27.873 14.176 26.488 13.627 24.668L13.52 24.652V25.409C13.52 27.549 16.521 29.283 20.223 29.283C23.925 29.283 26.926 27.548 26.926 25.409V25.118L26.637 25.124C25.803 26.715 23.248 27.873 20.224 27.873H20.223Z" fill="#B83F28"/>
<path d="M7.38394 20.36L3.39294 19.126C3.79494 21.122 6.60494 22.689 10.1009 22.836L9.27794 21.619C8.77494 21.024 8.11794 20.587 7.38394 20.36Z" fill="#FF5638"/>
<path d="M37.077 18.97L33.633 20.383C32.371 20.901 31.264 21.747 30.412 22.834C33.968 22.666 36.797 21.027 37.077 18.97Z" fill="#FF5638"/>
<path d="M20.223 27.873C23.247 27.873 25.802 26.715 26.636 25.124L24.89 25.161C24.435 25.171 23.997 25.338 23.646 25.636L21.699 27.291C20.775 27.79 19.671 27.79 18.746 27.291L16.789 25.565C16.418 25.238 15.966 25.025 15.483 24.951L13.627 24.667C14.176 26.487 16.917 27.873 20.223 27.873Z" fill="#FF5638"/>
<path d="M7.384 20.36C8.118 20.587 8.775 21.024 9.278 21.619L10.101 22.836L10.474 23.388C10.778 23.837 11.214 24.167 11.71 24.336C11.868 24.39 12.032 24.43 12.2 24.45L13.519 24.652L13.626 24.668L15.482 24.952C15.965 25.026 16.418 25.239 16.788 25.566L18.745 27.292C19.669 27.791 20.773 27.791 21.698 27.292L23.645 25.637C23.996 25.339 24.434 25.172 24.889 25.162L26.635 25.125L26.924 25.119L27.994 25.097C28.441 25.087 28.859 24.866 29.126 24.496L29.222 24.371L30.358 22.894C30.374 22.873 30.393 22.856 30.41 22.835C31.263 21.748 32.37 20.902 33.631 20.384L37.075 18.971L37.104 18.959L37.49 18.801C37.971 18.591 38.147 17.983 37.858 17.536L37.104 16.373V16.867C37.104 16.916 37.078 16.961 37.035 16.984L21.756 25.238C20.794 25.758 19.646 25.758 18.684 25.238L3.408 16.983C3.366 16.96 3.339 16.915 3.339 16.866V16.722L2.446 17.239C1.773 17.629 1.884 18.659 2.623 18.888L3.338 19.109L3.392 19.126L7.384 20.36Z" fill="#188F3D"/>
<path d="M36.7769 22.0079V21.4249C35.8519 23.1409 33.0829 24.3859 29.8109 24.3859C29.6129 24.3859 29.4179 24.3779 29.2239 24.3689L29.1279 24.4939C28.8609 24.8639 28.4429 25.0859 27.9959 25.0949L26.9259 25.1169V25.4079C26.9259 27.5479 23.9249 29.2819 20.2229 29.2819C16.5209 29.2819 13.5199 27.5469 13.5199 25.4079V24.6509L12.2009 24.4489C12.0329 24.4289 11.8689 24.3889 11.7109 24.3349C11.3589 24.3649 11.0019 24.3859 10.6349 24.3859C7.36195 24.3859 4.59295 23.1409 3.66895 21.4249V22.2689C3.66895 22.5539 3.81595 22.8129 4.04895 22.9619C4.06595 22.9729 4.07995 22.9879 4.09795 22.9979L18.7759 30.9269C19.6819 31.4169 20.7649 31.4169 21.6709 30.9269L36.1239 23.1189C36.2039 23.0759 36.2729 23.0179 36.3399 22.9599C36.6109 22.7239 36.7769 22.3819 36.7769 22.0079Z" fill="#FFCA38"/>
<path d="M3.40799 16.9829L18.687 25.2369C19.649 25.7569 20.797 25.7569 21.759 25.2369L37.038 16.9829C37.08 16.9599 37.107 16.9149 37.107 16.8659V15.7209C37.107 15.7209 37.1 15.7269 37.095 15.7299L21.759 24.0149C20.797 24.5349 19.649 24.5349 18.687 24.0149L3.33899 15.7239V16.8669C3.33899 16.9159 3.36499 16.9599 3.40799 16.9829Z" fill="#FFCA38"/>
<path d="M18.685 32.298L2.65796 23.64V26.081C2.65796 26.406 2.83296 26.704 3.11296 26.855L18.687 35.269C19.649 35.789 20.797 35.789 21.759 35.269L37.095 26.985C37.521 26.755 37.788 26.3 37.788 25.805V23.641L21.76 32.299C20.797 32.819 19.648 32.818 18.685 32.298Z" fill="#CF892D"/>
<path d="M18.687 24.0149C19.649 24.5349 20.797 24.5349 21.759 24.0149L37.095 15.7299C37.095 15.7299 37.102 15.7239 37.107 15.7209C37.526 15.4879 37.789 15.0399 37.789 14.5489V12.3849L21.761 21.0429C20.798 21.5629 19.649 21.5629 18.686 21.0429L2.65796 12.3859V14.8269C2.65796 15.1519 2.83296 15.4499 3.11296 15.6009L3.33996 15.7239L18.687 24.0149Z" fill="#CF892D"/>
<path d="M21.67 30.928C20.764 31.418 19.681 31.418 18.775 30.928L4.09696 22.999C4.07896 22.989 4.06496 22.974 4.04796 22.963L2.65796 23.64L18.686 32.298C19.649 32.818 20.798 32.818 21.761 32.298L37.789 23.64L36.341 22.962C36.274 23.021 36.205 23.078 36.125 23.121L21.672 30.929L21.67 30.928Z" fill="#FFA938"/>
<path d="M18.685 21.044C19.648 21.564 20.797 21.564 21.76 21.044L37.788 12.386L21.252 4.64097C20.379 4.23197 19.376 4.24297 18.511 4.66897L2.65796 12.386L18.685 21.044Z" fill="#FFA938"/>
</g>
<defs>
<clipPath id="clip0_237_8049">
<rect width="40" height="40" fill="white"/>
</clipPath>
</defs>
</svg>
