<svg width="40" height="40" viewBox="0 0 40 40" fill="none" xmlns="http://www.w3.org/2000/svg">
<g clip-path="url(#clip0_237_8107)">
<path d="M11.4 17.921L5.789 18.783L3.075 3.09098C3.014 2.73998 3.329 2.42898 3.674 2.51398C5.399 2.94198 9.765 5.28198 11.4 17.921Z" fill="#E60000"/>
<path d="M5.70203 18.691L11.322 19.602L14.608 3.58297C14.726 3.00897 14.167 2.52597 13.62 2.73597C11.626 3.50297 7.68203 6.56197 5.70203 18.691Z" fill="#FF4400"/>
<path d="M23.644 5.18298C25.293 5.49298 26.931 6.06598 28.504 6.92398C35.511 10.747 38.713 19.37 35.936 26.854C32.676 35.641 22.901 38.936 14.378 35.304C9.08699 33.05 5.48799 29.221 4.58299 23.945C4.55999 23.814 4.63499 23.683 4.75799 23.633L11.154 21.05C11.154 21.05 14.216 24.249 16.893 24.952C18.667 25.418 20.566 24.25 21.193 22.472C21.646 21.188 21.214 19.686 20.121 18.875C20.001 18.786 19.879 18.707 19.754 18.637C18.861 18.135 18.48 17.041 18.717 16.045L20.889 6.93698C21.183 5.70498 22.399 4.94898 23.644 5.18298Z" fill="#FF4400"/>
<path d="M11.3699 19.328L11.1549 21.051L4.71594 23.651L5.27194 18.669C5.30994 18.402 5.56394 18.22 5.82994 18.271L11.3699 19.328Z" fill="#E60000"/>
<path d="M20.961 19.857C21.394 20.643 21.5 21.605 21.194 22.472C21.127 22.663 21.039 22.833 20.944 22.997C24.644 24.601 28.474 28.892 29.129 35.101C32.141 33.266 34.6 30.455 35.936 26.854C37.095 23.73 37.199 20.41 36.432 17.32C29.1 14.124 22.989 18.213 20.96 19.857H20.961Z" fill="#FF9C00"/>
<path d="M20.944 22.997C20.16 24.355 18.509 24.772 16.926 24.356C16.48 24.239 16.023 24.068 15.57 23.866C15.029 23.624 14.397 23.743 13.986 24.169C11.996 26.237 10.46 29.611 9.56101 31.951C9.35601 32.484 9.48901 33.094 9.91801 33.469C11.18 34.574 12.634 35.503 14.262 36.197C19.293 38.341 24.79 37.743 29.13 35.1C28.475 28.892 24.644 24.6 20.945 22.996L20.944 22.997Z" fill="#FFB72D"/>
<path d="M28.504 6.92396C26.931 6.06596 25.294 5.49296 23.644 5.18296C22.399 4.94896 21.183 5.70596 20.889 6.93796L18.717 16.046C18.48 17.042 18.861 18.136 19.754 18.638C19.879 18.708 20.001 18.787 20.121 18.876C20.476 19.139 20.753 19.48 20.96 19.858C22.989 18.214 29.1 14.126 36.432 17.321C35.362 13.011 32.585 9.15196 28.503 6.92496L28.504 6.92396Z" fill="#FFB72D"/>
</g>
<defs>
<clipPath id="clip0_237_8107">
<rect width="40" height="40" fill="white"/>
</clipPath>
</defs>
</svg>
