<svg width="40" height="40" viewBox="0 0 40 40" fill="none" xmlns="http://www.w3.org/2000/svg">
<g clip-path="url(#clip0_237_7323)">
<path d="M4.96101 18.8919C5.05301 20.5709 5.96501 22.1259 7.45701 23.4389C7.35201 23.0559 7.28201 22.6659 7.28201 22.2659C7.28201 20.1689 8.78801 18.2799 11.197 16.9329C11.56 16.5389 12.021 16.2289 12.575 16.0809C12.67 16.0559 12.766 16.0499 12.861 16.0349C13.122 14.6949 14.113 13.5519 15.515 13.1759C17.145 12.7389 18.798 13.4859 19.613 14.8779C19.743 14.8759 19.87 14.8669 20.001 14.8669C27.025 14.8669 32.72 18.1799 32.72 22.2669C32.72 22.6669 32.65 23.0569 32.545 23.4399C34.036 22.1269 34.949 20.5719 35.041 18.8929C35.046 18.7989 35.065 18.7069 35.065 18.6119C35.065 17.1339 34.43 15.7439 33.32 14.5229C30.794 11.7439 25.781 9.8479 20.001 9.8479C14.221 9.8479 9.20801 11.7439 6.68201 14.5229C5.57201 15.7439 4.93701 17.1349 4.93701 18.6119C4.93701 18.7069 4.95601 18.7979 4.96101 18.8919Z" fill="#3D3D3D"/>
<path d="M32.719 22.266C32.719 18.179 27.025 14.866 20 14.866C19.869 14.866 19.742 14.875 19.612 14.877C19.777 15.158 19.919 15.456 20.007 15.787C20.01 15.799 20.012 15.811 20.015 15.823C20.127 15.778 20.236 15.726 20.356 15.694C21.975 15.26 23.638 16.227 24.07 17.853C24.073 17.864 24.076 17.876 24.079 17.888C24.227 18.511 23.732 19.107 23.094 19.107H11.591C10.881 19.107 10.367 18.376 10.656 17.725C10.787 17.431 10.978 17.17 11.197 16.932C8.78798 18.278 7.28198 20.168 7.28198 22.265C7.28198 22.665 7.35198 23.055 7.45698 23.438C10.149 25.807 14.752 27.374 20.001 27.374C25.25 27.374 29.853 25.807 32.545 23.438C32.65 23.055 32.72 22.665 32.72 22.265L32.719 22.266ZM12.336 22.254C12.651 21.483 13.406 20.941 14.287 20.941C15.168 20.941 15.923 21.483 16.238 22.254C16.396 22.639 16.082 23.059 15.667 23.059H12.906C12.491 23.059 12.177 22.639 12.335 22.254H12.336ZM24.42 24.893H19.301C18.581 24.893 18.103 24.158 18.37 23.488C18.925 22.099 20.278 21.117 21.86 21.117C23.442 21.117 24.795 22.098 25.35 23.488C25.618 24.159 25.14 24.893 24.42 24.893ZM25.975 20.232C25.56 20.232 25.246 19.812 25.404 19.427C25.719 18.656 26.474 18.114 27.355 18.114C28.236 18.114 28.991 18.656 29.306 19.427C29.464 19.812 29.15 20.232 28.735 20.232H25.975Z" fill="#FFAD00"/>
<path d="M11.59 19.108H23.093C23.731 19.108 24.226 18.512 24.078 17.889C24.075 17.877 24.072 17.865 24.069 17.854C23.637 16.228 21.974 15.261 20.355 15.695C20.235 15.727 20.127 15.779 20.014 15.824C20.011 15.812 20.01 15.8 20.006 15.788C19.918 15.457 19.775 15.159 19.611 14.878C18.796 13.486 17.143 12.739 15.513 13.176C14.111 13.552 13.12 14.695 12.859 16.035C12.763 16.051 12.668 16.056 12.573 16.081C12.019 16.23 11.558 16.54 11.195 16.933C10.976 17.171 10.784 17.431 10.654 17.726C10.365 18.377 10.879 19.108 11.589 19.108H11.59Z" fill="#037F56"/>
<path d="M29.307 19.427C28.992 18.656 28.237 18.114 27.356 18.114C26.475 18.114 25.72 18.656 25.405 19.427C25.247 19.812 25.561 20.232 25.976 20.232H28.737C29.152 20.232 29.466 19.812 29.308 19.427H29.307Z" fill="#F77F00"/>
<path d="M16.239 22.254C15.924 21.483 15.169 20.941 14.288 20.941C13.407 20.941 12.652 21.483 12.337 22.254C12.179 22.639 12.493 23.059 12.908 23.059H15.669C16.084 23.059 16.397 22.639 16.239 22.254Z" fill="#F77F00"/>
<path d="M38.5 18.611C38.5 16.353 36.677 14.522 34.429 14.522H33.319C34.429 15.743 35.064 17.134 35.064 18.611C35.064 18.706 35.045 18.798 35.04 18.892C35.055 18.853 35.064 18.829 35.064 18.829V22.637C37.009 22.329 38.5 20.651 38.5 18.611Z" fill="#C50010"/>
<path d="M4.96098 18.892C4.95598 18.798 4.93698 18.706 4.93698 18.611C4.93698 17.133 5.57198 15.743 6.68198 14.522H5.57198C3.32398 14.522 1.50098 16.353 1.50098 18.611C1.50098 20.651 2.99198 22.328 4.93698 22.636V18.828C4.93698 18.828 4.94598 18.854 4.96098 18.892Z" fill="#C50010"/>
<path d="M25.351 23.4879C24.796 22.0989 23.443 21.1169 21.861 21.1169C20.279 21.1169 18.926 22.0979 18.371 23.4879C18.103 24.1589 18.582 24.8929 19.302 24.8929H24.421C25.141 24.8929 25.618 24.1579 25.351 23.4879Z" fill="#C50010"/>
<path d="M35.0389 18.892C34.9469 20.571 34.0349 22.126 32.5429 23.439C29.8509 25.808 25.2479 27.375 19.9989 27.375C14.7499 27.375 10.1469 25.808 7.45494 23.439C5.96394 22.126 5.05094 20.571 4.95894 18.892C4.94394 18.853 4.93494 18.829 4.93494 18.829V22.707C4.93494 31.063 11.6789 37.838 19.9989 37.838C28.3189 37.838 35.0629 31.064 35.0629 22.707V18.829C35.0629 18.829 35.0539 18.854 35.0389 18.892Z" fill="#C50010"/>
<path d="M25.79 8.96996C24.85 9.13996 23.95 8.76996 23.37 8.08996C23.16 8.17996 22.94 8.24996 22.71 8.28996C21.04 8.57996 19.45 7.44996 19.16 5.76996C18.87 4.08996 19.99 2.49996 21.66 2.20996C23.01 1.97996 24.29 2.66996 24.89 3.81996H24.9C26.32 3.56996 27.67 4.52996 27.91 5.94996C28.16 7.36996 27.2 8.72996 25.79 8.96996Z" fill="#D5D5D5"/>
<path d="M14.259 8.9119C15.478 8.9119 16.466 7.91991 16.466 6.69491C16.466 5.46991 15.478 4.47791 14.259 4.47791C13.04 4.47791 12.052 5.46991 12.052 6.69491C12.052 7.91991 13.04 8.9119 14.259 8.9119Z" fill="#D5D5D5"/>
</g>
<defs>
<clipPath id="clip0_237_7323">
<rect width="40" height="40" fill="white"/>
</clipPath>
</defs>
</svg>
