<svg width="40" height="40" viewBox="0 0 40 40" fill="none" xmlns="http://www.w3.org/2000/svg">
<g clip-path="url(#clip0_237_8100)">
<path d="M25.954 35.802C22.055 35.802 19 31.476 19 25.952V17.043C19 16.49 19.447 16.043 20 16.043C20.553 16.043 21 16.49 21 17.043V25.952C21 30.207 23.269 33.802 25.954 33.802C26.507 33.802 26.954 34.249 26.954 34.802C26.954 35.355 26.507 35.802 25.954 35.802Z" fill="#23B169"/>
<path d="M1.70605 6.48099C4.90205 4.63999 9.50005 4.73199 13.5591 7.07499C17.6171 9.41799 19.9971 13.355 20.0001 17.043C16.8041 18.884 12.2051 18.792 8.14706 16.449C4.08906 14.106 1.70905 10.169 1.70605 6.48099Z" fill="#68C76F"/>
<path d="M38.294 6.48099C35.098 4.63999 30.5 4.73199 26.441 7.07499C22.383 9.41799 20.003 13.355 20 17.043C23.196 18.884 27.795 18.792 31.853 16.449C35.911 14.106 38.291 10.169 38.294 6.48099Z" fill="#68C76F"/>
</g>
<defs>
<clipPath id="clip0_237_8100">
<rect width="40" height="40" fill="white"/>
</clipPath>
</defs>
</svg>
