<?xml version="1.0" encoding="UTF-8"?>
<svg xmlns="http://www.w3.org/2000/svg" xmlns:xlink="http://www.w3.org/1999/xlink" viewBox="0 0 150 150">
  <defs>
    <style>
      .cls-1 {
        fill: url(#linear-gradient);
        stroke: #c3fcd2;
        stroke-width: 3px;
      }

      .cls-1, .cls-2 {
        stroke-miterlimit: 10;
      }

      .cls-2 {
        fill: none;
        stroke: #52ff87;
        stroke-width: 2.04px;
      }
    </style>
    <linearGradient id="linear-gradient" x1="132.33" y1="42.28" x2="15.23" y2="107.84" gradientUnits="userSpaceOnUse">
      <stop offset="0" stop-color="#b6ff93"/>
      <stop offset=".19" stop-color="#56ed86"/>
      <stop offset="1" stop-color="#006833"/>
    </linearGradient>
  </defs>
  <g id="Layer_2" data-name="Layer 2">
    <polygon class="cls-1" points="136.47 111.14 136.47 38.87 73.88 2.73 11.28 38.87 11.28 111.14 73.88 147.28 136.47 111.14"/>
    <path class="cls-2" d="M75.81,50.69c-13.73,.31-27.47,1.63-37.62,11.01-10.52,3.53-10.15,15.58,.03,19.19,.79,.26,1.17,.7,1.21,1.54,4.37,29.73,68.02,29.46,71.06-.81,.07-1.14,.26-1.72,1.53-2.01,7.83-1.21,10.04-15.56,1.16-17.69-10.51-8.01-24.52-11.67-37.37-11.25Z"/>
  </g>
  <g id="Layer_1" data-name="Layer 1">
    <image width="520" height="520" transform="translate(145.26 2) rotate(-180) scale(.27 -.27)" xlink:href="../Emoji_PNG/pot.png"/>
  </g>
</svg>