<?xml version="1.0" encoding="UTF-8"?>
<svg id="Layer_2" data-name="Layer 2" xmlns="http://www.w3.org/2000/svg" xmlns:xlink="http://www.w3.org/1999/xlink" viewBox="0 0 150 150">
  <defs>
    <style>
      .cls-1 {
        fill: url(#linear-gradient);
        stroke: #939393;
        stroke-miterlimit: 10;
        stroke-width: 3px;
      }
    </style>
    <linearGradient id="linear-gradient" x1="133.73" y1="40.95" x2="17.31" y2="108.74" gradientUnits="userSpaceOnUse">
      <stop offset="0" stop-color="#56a186"/>
      <stop offset=".23" stop-color="#578772"/>
      <stop offset="1" stop-color="#58635e"/>
    </linearGradient>
  </defs>
  <polygon class="cls-1" points="137.84 111.14 137.84 38.87 75.25 2.73 12.66 38.87 12.66 111.14 75.25 147.28 137.84 111.14"/>
  <path d="M34.83,88.97c-.17-2.5,.08-5.02,.43-7.49,.39-2.83,1.21-5.58,2.2-8.27,.72-1.95,1.36-3.94,2.29-5.78,.88-1.74,1.75-3.51,2.75-5.2,.76-1.28,1.73-2.45,2.26-3.87,.23-.61,.83-.91,1.19-1.45,.83-1.25,1.61-2.55,2.68-3.64,1.3-1.33,2.31-2.89,3.63-4.21,2.3-2.28,4.56-4.58,7.19-6.51,2.19-1.61,4.49-3,6.95-4.11,2.07-.94,4.28-1.46,6.5-2.01,1.94-.48,3.93-.67,5.89-.97,1.41-.22,2.96-.06,4.42,.1,1.89,.2,3.79,.3,5.66,.67,3.3,.65,6.31,1.98,9.15,3.74,1.12,.69,2.18,1.48,3.16,2.37,.61,.55,1.26,.67,2.11,.62,2.45-.12,4.87,.25,7.21,1.05,4.96,1.71,8.38,5.11,10.79,9.67,1.7,3.23,2.93,6.62,3.31,10.25,.48,4.55-.03,8.92-3.17,12.56-1.3,1.51-3.09,2.41-4.76,3.45-3.3,2.07-6.71,3.96-10.01,6.04-2.97,1.87-6.03,3.59-9.05,5.39-4,2.4-8,4.82-11.99,7.23-4.69,2.83-9.39,5.65-14.07,8.49-4.38,2.66-8.68,5.45-13.23,7.81-2.76,1.43-5.72,1.56-8.73,.9-4.86-1.07-7.88-4.34-10.23-8.46-2.27-3.97-3.55-8.27-4.27-12.75-.3-1.84-.38-3.72-.26-5.61Z"/>
</svg>