<?xml version="1.0" encoding="UTF-8"?>
<svg id="Layer_2" data-name="Layer 2" xmlns="http://www.w3.org/2000/svg" xmlns:xlink="http://www.w3.org/1999/xlink" viewBox="0 0 150 150">
  <defs>
    <style>
      .cls-1 {
        fill: url(#linear-gradient);
        stroke: #939393;
        stroke-miterlimit: 10;
        stroke-width: 3px;
      }
    </style>
    <linearGradient id="linear-gradient" x1="131.7" y1="40.8" x2="15.27" y2="110.12" gradientUnits="userSpaceOnUse">
      <stop offset="0" stop-color="#56a186"/>
      <stop offset=".23" stop-color="#578772"/>
      <stop offset="1" stop-color="#58635e"/>
    </linearGradient>
  </defs>
  <polygon class="cls-1" points="136.84 111.14 136.84 38.87 74.25 2.73 11.66 38.87 11.66 111.14 74.25 147.28 136.84 111.14"/>
  <path d="M98.83,109.26c-3.05,.06-5.64-1.26-7.95-2.98-3.66-2.72-7.27-5.53-10.67-8.57-5.41-4.84-10.78-9.76-15.88-14.92-5.63-5.71-11.7-11-16.54-17.46-2.04-2.72-3.83-5.63-3.5-9.17,.66-7.11,4.92-12.69,12.9-12.33,4.14,.19,7.81,1.99,10.92,4.71,3.57,3.13,7.07,6.34,10.5,9.61,5.18,4.94,10.34,9.89,15.38,14.98,4.75,4.8,9.65,9.46,13.69,14.92,1.76,2.39,3.01,4.98,3.49,7.92,.89,6.88-5.56,13.31-12.32,13.3Z"/>
</svg>