<?xml version="1.0" encoding="UTF-8"?>
<svg xmlns="http://www.w3.org/2000/svg" xmlns:xlink="http://www.w3.org/1999/xlink" viewBox="0 0 150 150">
  <defs>
    <style>
      .cls-1 {
        fill: url(#linear-gradient);
        stroke: #c3fcd2;
        stroke-width: 3px;
      }

      .cls-1, .cls-2 {
        stroke-miterlimit: 10;
      }

      .cls-2 {
        fill: none;
        stroke: #52ff87;
        stroke-width: 2.09px;
      }
    </style>
    <linearGradient id="linear-gradient" x1="132.83" y1="42.28" x2="15.73" y2="107.84" gradientUnits="userSpaceOnUse">
      <stop offset="0" stop-color="#b6ff93"/>
      <stop offset=".19" stop-color="#56ed86"/>
      <stop offset="1" stop-color="#006833"/>
    </linearGradient>
  </defs>
  <g id="Layer_2" data-name="Layer 2">
    <polygon class="cls-1" points="136.97 111.14 136.97 38.87 74.38 2.73 11.78 38.87 11.78 111.14 74.38 147.28 136.97 111.14"/>
    <path class="cls-2" d="M70.7,110.9c-10.19-.44-19.68-3.61-27.86-10.37-3.91-3.23-7.22-6.93-9.34-11.6-.05-.12-.15-.23-.17-.36-.29-1.99-1.35-2.95-3.45-2.86-.88,.04-1.1-.85-.7-1.45,.67-.99,1.41-2.13,2.41-2.66,1.69-.9,1.81-2.09,1.54-3.7-.4-2.39,.33-4.42,2.22-6,.17-.14,.33-.34,.53-.39,1.83-.48,2.4-1.92,2.9-3.52,.55-1.77,2.09-2.45,3.7-2.82,1.18-.27,1.88-.92,2.57-1.85,3.08-4.17,7.15-6.5,12.44-6.53,.47,0,1.03-.4,1.39-.77,3.61-3.66,7.76-6.39,12.95-7.04,2.01-.25,4.09,.08,6.14,.07,.49,0,1.11-.13,1.46-.44,1.79-1.61,3.53-3.28,5.25-4.97,.84-.84,1.56-.84,2.53-.15,1.96,1.41,2.75,1.19,4.26-.7,.73-.92,1.61-1.72,2.45-2.55,.73-.73,1.59-.74,2.41-.19,3.83,2.57,7.5,1.69,11.14-.43,.57-.33,1.14-.68,1.75-.9,.31-.11,.81-.03,1.06,.17,.16,.13,.14,.68,0,.95-.55,1.1-1.25,2.13-1.72,3.26-.18,.44-.1,1.34,.21,1.59,3.65,2.85,5.04,6.98,5.99,11.17,2.14,9.36,1.52,18.62-2.11,27.55-3.75,9.23-10.36,15.97-18.81,21.02-7.02,4.2-14.66,6.24-23.15,6.47Z"/>
  </g>
  <g id="Layer_1" data-name="Layer 1">
    <image width="520" height="520" transform="translate(7 3) scale(.26)" xlink:href="../Emoji_PNG/greek.png"/>
  </g>
</svg>