<?xml version="1.0" encoding="UTF-8"?>
<svg xmlns="http://www.w3.org/2000/svg" xmlns:xlink="http://www.w3.org/1999/xlink" viewBox="0 0 150 150">
  <defs>
    <style>
      .cls-1 {
        fill: url(#linear-gradient);
        stroke: #c3fcd2;
        stroke-width: 3px;
      }

      .cls-1, .cls-2 {
        stroke-miterlimit: 10;
      }

      .cls-2 {
        stroke: #52ff87;
        stroke-width: 2.04px;
      }

      .cls-2, .cls-3 {
        fill: none;
      }
    </style>
    <linearGradient id="linear-gradient" x1="134.7" y1="42.28" x2="17.6" y2="107.84" gradientUnits="userSpaceOnUse">
      <stop offset="0" stop-color="#b6ff93"/>
      <stop offset=".19" stop-color="#56ed86"/>
      <stop offset="1" stop-color="#006833"/>
    </linearGradient>
  </defs>
  <g id="Layer_2" data-name="Layer 2">
    <polygon class="cls-1" points="138.84 111.14 138.84 38.87 76.25 2.73 13.66 38.87 13.66 111.14 76.25 147.28 138.84 111.14"/>
    <rect class="cls-3" x="11.44" y="25.01" width="141.12" height="98.98"/>
    <path class="cls-2" d="M51.23,69.47c-8.92-2.59-10.69-12.23-3.47-17.99,7.65-6.97,18.64-7.62,28.48-7.46,12.69-.25,48.11,8.38,36.5,26.45-1.02,4.81-2.43,7.34-7.89,7.75,8.74,5.41,14.85,12.98,8.7,23.08-.88,2.51-3.56,3.34-4.57,5.82-1.95,2.83-5.96,3.99-9.26,3.86-10.53-1.93-62.67-6.18-61.46-18.69,.05-1.65-2.06-1.66-1.94-3.32-.63-9.45,6.88-16.15,14.91-19.51Z"/>
  </g>
  <g id="Layer_1" data-name="Layer 1">
    <image width="736" height="520" transform="translate(13.33 31.27) scale(.17)" xlink:href="../Emoji_PNG/sushi.png"/>
  </g>
</svg>