<?xml version="1.0" encoding="UTF-8"?>
<svg id="Layer_2" data-name="Layer 2" xmlns="http://www.w3.org/2000/svg" xmlns:xlink="http://www.w3.org/1999/xlink" viewBox="0 0 150 150">
  <defs>
    <style>
      .cls-1 {
        fill: #ada368;
      }

      .cls-2 {
        fill: #dd7d7f;
      }

      .cls-3 {
        fill: #7c8973;
      }

      .cls-4 {
        fill: #533b18;
      }

      .cls-5 {
        fill: #6f6e31;
      }

      .cls-6 {
        fill: #9a7412;
      }

      .cls-7 {
        fill: #2c3d04;
      }

      .cls-8 {
        fill: #3f2508;
      }

      .cls-9 {
        fill: #4f652e;
      }

      .cls-10 {
        fill: #aa9946;
      }

      .cls-11 {
        fill: #e05277;
      }

      .cls-12 {
        fill: #691606;
      }

      .cls-13 {
        fill: #8d9f65;
      }

      .cls-14 {
        fill: #557d11;
      }

      .cls-15 {
        fill: #ba9766;
      }

      .cls-16 {
        fill: url(#linear-gradient);
        stroke: #c3fcd2;
        stroke-width: 3px;
      }

      .cls-16, .cls-17 {
        stroke-miterlimit: 10;
      }

      .cls-18 {
        fill: #d14830;
      }

      .cls-19 {
        fill: #7b2b16;
      }

      .cls-17 {
        fill: none;
        stroke: #52ff87;
        stroke-width: 2.09px;
      }

      .cls-20 {
        fill: #6c9839;
      }

      .cls-21 {
        fill: #85b149;
      }

      .cls-22 {
        fill: #530e04;
      }

      .cls-23 {
        fill: #e5b367;
      }

      .cls-24 {
        fill: #f0cc82;
      }

      .cls-25 {
        fill: #9c6d75;
      }

      .cls-26 {
        fill: #71552c;
      }

      .cls-27 {
        fill: #699a34;
      }

      .cls-28 {
        fill: #6e1603;
      }

      .cls-29 {
        fill: #81b046;
      }

      .cls-30 {
        fill: #9f7e52;
      }

      .cls-31 {
        fill: #89a84a;
      }

      .cls-32 {
        fill: #78b62d;
      }

      .cls-33 {
        fill: #89d045;
      }

      .cls-34 {
        fill: #689532;
      }

      .cls-35 {
        fill: #cca264;
      }

      .cls-36 {
        fill: #c99d5d;
      }

      .cls-37 {
        fill: #9cc56d;
      }

      .cls-38 {
        fill: #5c4124;
      }

      .cls-39 {
        fill: #cca66e;
      }

      .cls-40 {
        fill: #c4a16f;
      }

      .cls-41 {
        fill: #a98152;
      }

      .cls-42 {
        fill: #3d5904;
      }

      .cls-43 {
        fill: #e77383;
      }

      .cls-44 {
        fill: #8e775c;
      }

      .cls-45 {
        fill: #d92418;
      }

      .cls-46 {
        fill: #f86863;
      }

      .cls-47 {
        fill: #426108;
      }

      .cls-48 {
        fill: #f27293;
      }

      .cls-49 {
        fill: #471607;
      }

      .cls-50 {
        fill: #517d10;
      }

      .cls-51 {
        fill: #507811;
      }

      .cls-52 {
        fill: #36300b;
      }

      .cls-53 {
        fill: #79b22e;
      }

      .cls-54 {
        fill: #c1ae93;
      }

      .cls-55 {
        fill: #547d12;
      }

      .cls-56 {
        fill: #e8a8bb;
      }

      .cls-57 {
        fill: #5a8b0e;
      }

      .cls-58 {
        fill: #dccf7f;
      }

      .cls-59 {
        fill: #daaf6f;
      }

      .cls-60 {
        fill: #7f9b45;
      }

      .cls-61 {
        fill: #e65852;
      }

      .cls-62 {
        fill: #a9b2b0;
      }

      .cls-63 {
        fill: #e6cba9;
      }

      .cls-64 {
        fill: #669450;
      }

      .cls-65 {
        fill: #365305;
      }

      .cls-66 {
        fill: #3d290d;
      }

      .cls-67 {
        fill: #8eb558;
      }

      .cls-68 {
        fill: #334f04;
      }

      .cls-69 {
        fill: #8d331d;
      }

      .cls-70 {
        fill: #acda6c;
      }

      .cls-71 {
        fill: #b19937;
      }

      .cls-72 {
        fill: #f577ae;
      }

      .cls-73 {
        fill: #9ac668;
      }

      .cls-74 {
        fill: #c0975a;
      }

      .cls-75 {
        fill: #6b6023;
      }

      .cls-76 {
        fill: #a7db43;
      }

      .cls-77 {
        fill: #a33319;
      }

      .cls-78 {
        fill: #86590a;
      }

      .cls-79 {
        fill: #a2845b;
      }

      .cls-80 {
        fill: #325b13;
      }

      .cls-81 {
        fill: #fa9aca;
      }

      .cls-82 {
        fill: #926e47;
      }

      .cls-83 {
        fill: #596331;
      }

      .cls-84 {
        fill: #8fb55a;
      }

      .cls-85 {
        fill: #252e05;
      }

      .cls-86 {
        fill: #7db136;
      }

      .cls-87 {
        fill: #a0e968;
      }

      .cls-88 {
        fill: #96cb55;
      }

      .cls-89 {
        fill: #61942b;
      }

      .cls-90 {
        fill: #93664b;
      }

      .cls-91 {
        fill: #266609;
      }

      .cls-92 {
        fill: #925b10;
      }

      .cls-93 {
        fill: #9b8261;
      }

      .cls-94 {
        fill: #374c06;
      }

      .cls-95 {
        fill: #ade771;
      }

      .cls-96 {
        fill: #9a8634;
      }

      .cls-97 {
        fill: #79824b;
      }

      .cls-98 {
        fill: #bbe84c;
      }

      .cls-99 {
        fill: #7e1c08;
      }

      .cls-100 {
        fill: #bcad5f;
      }

      .cls-101 {
        fill: #d8c48b;
      }

      .cls-102 {
        fill: #4f4b14;
      }

      .cls-103 {
        fill: #7f5f12;
      }

      .cls-104 {
        fill: #547f24;
      }

      .cls-105 {
        fill: #95cf3e;
      }

      .cls-106 {
        fill: #86b655;
      }

      .cls-107 {
        fill: #978c51;
      }

      .cls-108 {
        fill: #7aa438;
      }

      .cls-109 {
        fill: #446e0b;
      }

      .cls-110 {
        fill: #2c4102;
      }

      .cls-111 {
        fill: #276b07;
      }

      .cls-112 {
        fill: #acc6c7;
      }

      .cls-113 {
        fill: #5a8f21;
      }

      .cls-114 {
        fill: #4d7631;
      }

      .cls-115 {
        fill: #b98648;
      }

      .cls-116 {
        fill: #6ea226;
      }

      .cls-117 {
        fill: #a63d27;
      }

      .cls-118 {
        fill: #ad1a07;
      }

      .cls-119 {
        fill: #bb8644;
      }

      .cls-120 {
        fill: #5d8618;
      }

      .cls-121 {
        fill: #72ac28;
      }

      .cls-122 {
        fill: #9c9996;
      }

      .cls-123 {
        fill: #e8b67a;
      }

      .cls-124 {
        fill: #935725;
      }

      .cls-125 {
        fill: #e45b54;
      }

      .cls-126 {
        fill: #9c7333;
      }

      .cls-127 {
        fill: #fa85ad;
      }

      .cls-128 {
        fill: #b8894e;
      }

      .cls-129 {
        fill: #d25476;
      }

      .cls-130 {
        fill: #e7e8d9;
      }

      .cls-131 {
        fill: #203605;
      }

      .cls-132 {
        fill: #407807;
      }

      .cls-133 {
        fill: #b89560;
      }

      .cls-134 {
        fill: #ac8c64;
      }

      .cls-135 {
        fill: #699636;
      }

      .cls-136 {
        fill: #347327;
      }

      .cls-137 {
        fill: #b7dd83;
      }

      .cls-138 {
        fill: #f558a3;
      }

      .cls-139 {
        fill: #81984b;
      }

      .cls-140 {
        fill: #5b8030;
      }
    </style>
    <linearGradient id="linear-gradient" x1="132.83" y1="42.28" x2="15.73" y2="107.84" gradientUnits="userSpaceOnUse">
      <stop offset="0" stop-color="#b6ff93"/>
      <stop offset=".19" stop-color="#56ed86"/>
      <stop offset="1" stop-color="#006833"/>
    </linearGradient>
  </defs>
  <polygon class="cls-16" points="136.97 111.14 136.97 38.87 74.38 2.73 11.78 38.87 11.78 111.14 74.38 147.28 136.97 111.14"/>
  <path class="cls-17" d="M70.7,110.9c-10.19-.44-19.68-3.61-27.86-10.37-3.91-3.23-7.22-6.93-9.34-11.6-.05-.12-.15-.23-.17-.36-.29-1.99-1.35-2.95-3.45-2.86-.88,.04-1.1-.85-.7-1.45,.67-.99,1.41-2.13,2.41-2.66,1.69-.9,1.81-2.09,1.54-3.7-.4-2.39,.33-4.42,2.22-6,.17-.14,.33-.34,.53-.39,1.83-.48,2.4-1.92,2.9-3.52,.55-1.77,2.09-2.45,3.7-2.82,1.18-.27,1.88-.92,2.57-1.85,3.08-4.17,7.15-6.5,12.44-6.53,.47,0,1.03-.4,1.39-.77,3.61-3.66,7.76-6.39,12.95-7.04,2.01-.25,4.09,.08,6.14,.07,.49,0,1.11-.13,1.46-.44,1.79-1.61,3.53-3.28,5.25-4.97,.84-.84,1.56-.84,2.53-.15,1.96,1.41,2.75,1.19,4.26-.7,.73-.92,1.61-1.72,2.45-2.55,.73-.73,1.59-.74,2.41-.19,3.83,2.57,7.5,1.69,11.14-.43,.57-.33,1.14-.68,1.75-.9,.31-.11,.81-.03,1.06,.17,.16,.13,.14,.68,0,.95-.55,1.1-1.25,2.13-1.72,3.26-.18,.44-.1,1.34,.21,1.59,3.65,2.85,5.04,6.98,5.99,11.17,2.14,9.36,1.52,18.62-2.11,27.55-3.75,9.23-10.36,15.97-18.81,21.02-7.02,4.2-14.66,6.24-23.15,6.47Z"/>
  <g>
    <path class="cls-30" d="M37.65,93.66c-1.7-2.19-3.63-4.25-3.86-7.22,.04-.11,.12-.18,.23-.2,.41-.01,.67,.34,1.03,.44,.68,.26,1.28,.68,1.94,.98,.1,.05,.19,.11,.28,.19,.07,.09,.13,.19,.17,.29,.08,.21,.18,.41,.31,.59,.51,.81,1.2,1.45,1.93,2.05,1.73,1.02,3.72,1.24,5.61,1.37,4.18,.28,8.37,.13,12.48-.86,1.45-.35,2.78-.93,3.94-1.88,.83-.68,1.34-1.57,1.61-2.6,.29-.95,1.01-1.62,1.59-2.38,.18-.26,.41-.48,.66-.66,.64-.37,1-1.15,1.83-1.25,.2,0,.38,.07,.52,.23,.3,.56,.17,1.09-.14,1.58-.91,1.44-.94,2.85-.09,4.37,.7,1.26,.02,4.8-1.05,5.73-.6,.52-.66,1.03-.37,1.71,.21,.47,.45,.93,.59,1.43,.11,.4,.31,.87-.34,1.03-.36-.2-.55-.55-.71-.89-.95-1.98-3.86-2.07-5.42-.96-.8,.57-.77,1.05,.08,1.54,.53,.31,1.13,.38,1.73,.44,1.36,.12,2.73,.24,4.02,.77,.09,1.03-.68,1.08-1.34,1.06-1.36-.05-2.74,.18-4.09-.18-.4-.11-.93-.23-1.2,.18-.32,.5,.27,.72,.51,1.03,.16,.2,.35,.38,.42,.64,.08,.34,.06,.66-.12,.97-.59,.5-1.13,.22-1.63-.15-.57-.43-1.21-.68-1.9-.74-2.21-.21-4.13-1.11-5.93-2.33-.52-.35-1.08-.52-1.69-.56-.57-.04-1.11-.17-1.59-.47-1.14-.72-2.38-.68-3.62-.44-1.31,.25-1.4,.19-1.19-1.21-.71,.33-1.19,0-1.75-.4-1.31-.92-2.2-2.26-3.44-3.24Z"/>
    <path class="cls-44" d="M37.65,93.66c.57-.07,.91,.31,1.15,.7,.72,1.12,2.03,1.59,2.84,2.61,.27,.34,.75,.44,1.08-.09,.14-.22,.37-.43,.62-.17,.24,.24,.28,.54-.06,.76-.34,.22-.51,.55-.25,.87,.28,.35,.51-.16,.77-.17,1.26-.08,2.55-.46,3.74,.36,.53,.36,1.12,.61,1.82,.57,1.52-.11,2.41,1.19,3.64,1.74,1.03,.45,2.05,.88,3.14,1.04,1.15,.17,2.29,.25,3.16,1.19,.18,.19,.65,.12,.98,.17,1.33,.32,2.55,1.01,3.91,1.25,1,.18,1.94,.24,2.88-.27,1.08-.58,2.14-.31,2.98,.48,.89,.84,1.9,1.03,3.08,1.03,5.37,0,10.66-.53,15.86-1.91,1.08-.29,2.17-.5,3.22-.91,.58-.22,1.37-.63,1.65,.47-.18,.74-.87,.93-1.41,1.23-5.89,3.25-12.14,5.19-18.9,5.49-10.81,.48-20.45-2.68-29.04-9.17-.31-.23-.65-.44-.82-.81-2.21-1.76-4.03-3.9-5.92-5.98-.1-.11-.09-.32-.13-.48Z"/>
    <path class="cls-135" d="M103.59,42.54c1.67-.49,3.14-1.38,4.62-2.25,.48-.28,1.07-.65,1.52-.1,.39,.49-.08,.95-.41,1.34-.77-.22-2.39,.36-2.81,.98-.2,.3-.04,.46,.12,.66,.26,.31,.3,.6-.11,.83-.52,.12-1.03-.07-1.54-.02-1.12,.58-1.26,1.71-1.54,2.74-.13,.48-.06,1.03-.56,1.35-.58,.12-1.18,.25-1.64,.65-1.15,1.01-2.77,.96-4,1.79-1.12-.34-2.29-.59-2.96-1.71-.39-2.06,.06-4.09,.22-6.13,.04-.48,.27-.9,.79-1.07,1.21,.05,2.1,.91,3.21,1.26,1.76,.55,3.45,.54,5.1-.34Z"/>
    <path class="cls-34" d="M32.27,82.21c.67-.44,1.35-.88,2.02-1.32,.73-.06,.49,.51,.62,.87-.37-1.4-.29-2.84-.4-4.27-.21-2.6,1.03-4.23,3.21-5.36,.45-.23,.96-.4,1.18-.94,.46-.56,.82-.14,1.17,.13,.4,.31,.7,.75,1.2,.92,.31,.15,.49,.4,.55,.74,1.5,2.39,1.76,5.18,2.49,7.81,.16,.58,.37,1.16-.02,1.74-1.56,.45-2.74-.42-3.97-1.12-.86-.89-1.26-1.97-1.36-3.18-.09-1.08-.26-2.14-.53-3.19-.09-.33-.13-.76-.5-.85-.43-.11-.52,.36-.72,.62-.67,.89-1.04,1.89-.95,3.02,.12,1.53-.35,3.12,.47,4.57,.14,.61-.33,.81-.73,1.02-.73,.41-1.49,.77-2.24,1.15-.61,.32-1.25,.55-1.93,.67-.3,.05-.62,.08-.83-.18-.26-.31-.1-.64,.05-.96,.33-.69,1.15-1.05,1.23-1.9Z"/>
    <path class="cls-100" d="M58.46,57.91c.2-.06,.38-.12,.54-.31,2.61-3.08,5.88-5.21,9.61-6.69,.48-.19,.96-.41,1.5-.22,1.03,.77,1.1,1.49,.18,2.35-.77,.73-1.73,1.22-2.57,1.87-2.87,1.72-5.41,3.82-7.58,6.38-.56,.42-.88,1.04-1.32,1.56-.38,.46-.72,1.06-1.43,.83-.61-.2-.48-.83-.56-1.32-.03-.17-.04-.34-.08-.5-.17-1.17,1.05-1.85,1.05-2.96,.05-.44,.33-.73,.66-.99Z"/>
    <path class="cls-122" d="M43.71,100.12c1.4,.68,2.56,1.74,3.85,2.59,5.62,3.7,11.78,5.92,18.46,6.77,7.94,1.01,15.55-.07,22.85-3.4,1.69-.77,3.31-1.64,4.88-2.62,1.41-1.33,3.14-2.22,4.65-3.43,2.38-1.92,4.43-4.17,6.59-6.31,1.54-1.76,2.76-3.74,4.03-5.68,.25-.39,.4-.88,.96-.96,.05,.03,.11,.06,.16,.09-.97,2.83-2.81,5.11-4.71,7.33-7.45,8.68-16.91,13.85-28.16,15.65-7.3,1.16-14.43,.12-21.33-2.48-4.21-1.59-8.13-3.72-11.64-6.57-.34-.27-.78-.42-.59-.99Z"/>
    <path class="cls-46" d="M44.2,66.1c.47-.31,.78-.76,1.08-1.22,1.55-2.39,3.52-4.31,6.15-5.49,1.03-.29,2.02-.71,3.04-.95,1.05-.25,2.19-.1,3.02,.82-.02,.33-.28,.44-.51,.58-2.49,.62-4.81,1.6-6.81,3.26-1.89,1.57-3.31,3.48-4.3,5.72-.17,.39-.27,.82-.65,1.09q-1.89,.51-1.85-1.64c.02-.2,.06-.39,.13-.57,.31-.49,.31-1.12,.69-1.59Z"/>
    <path class="cls-123" d="M108.02,45.64c.25,.28,.5,.57,.75,.85,1.44,1.52,2.51,3.27,3.38,5.16,.26,.58,.65,1.13,.57,1.81-.11,.08-.3,.17-.35,.11-.9-1.23-2.28-.79-3.47-1.05-.79-.17-1.45-.13-2.06,.36-1.23,1-2.63,1.81-3.6,3.12-.24,.32-.53,.58-.98,.34-.38-1.01,.65-1.56,.8-2.4,.23-.51,.57-.95,.86-1.42,1.44-2.19,2.63-4.53,3.93-6.79,.05-.03,.11-.06,.16-.09Z"/>
    <path class="cls-20" d="M90.34,45.37c1.14-1.28,1.88-2.92,3.41-3.84,.13-.09,.27-.1,.42-.03,.81,.3,.34,.93,.35,1.43,.02,1.58-.51,3.1-.45,4.69,.02,.47-.15,.92-.52,1.27-1.74,.42-3.52,.11-5.27,.34-1.04-.74-.9-1.77-.71-2.82,.17-.37,.49-.41,.84-.36,.76,.1,1.36-.23,1.94-.66Z"/>
    <path class="cls-1" d="M67.56,54.74c.58-.72,1.46-1.02,2.16-1.58,1.14-.9,1.19-1.18,.13-2.18,.09-.09,.18-.19,.26-.28,.71-.51,1.59-.41,2.38-.65,3.53-.2,6.92,.25,10.03,2.07,.3,.17,.6,.34,.67,.73-.64,.94-1.42,.47-2.19,.22-1.68-.56-3.43-1.12-5.15-.66-1.14,.31-2.32,.61-3.45,.99-.31,.12-.62,.23-.94,.33-.89,.18-1.71,.57-2.56,.88-.42,.15-.85,.49-1.33,.13Z"/>
    <path class="cls-54" d="M113.2,53.93c1.09,2.37,1.5,4.94,1.8,7.48,.75,6.31,.05,12.54-1.59,18.66-.64,2.41-1.78,4.64-2.87,6.87-.06,.12-.27,.17-.41,.25,0,0-.12-.03-.12-.03-.29-.56,.11-.98,.32-1.43,1.1-2.38,2.09-4.81,2.54-7.41,.96-3.74,1.38-7.54,1.22-11.4,.14-3.16-.2-6.28-.71-9.38,.01-1.16-.92-2.23-.35-3.45,.05-.05,.11-.1,.16-.15Z"/>
    <path class="cls-29" d="M39.02,71.08c-.21,1.35-1.55,1.51-2.39,2.15-1.25,.96-1.79,2.06-1.78,3.62,.01,2,.07,3.99,.6,6.08-1.26-.38-.44-1.59-1.16-2.03-.07-1.19-.2-2.38-.21-3.57-.03-2.84,1.27-4.69,3.93-5.66,.33-.12,.64-.23,.8-.58,.07-.09,.14-.09,.21,0Z"/>
    <path class="cls-89" d="M44.2,66.1c.02,.6,.08,1.21-.47,1.65-.94,.8-1.59,1.81-2.19,2.87-.24,.42-.5,.9-1.03,1.07-.61-.22-.85-.71-.97-1.3,.19-1.73,1.18-2.9,2.63-3.73,.26-.15,.56-.23,.76-.47,.42-.03,.84-.06,1.27-.09Z"/>
    <path class="cls-73" d="M90.34,45.37c-.59,1.1-1.47,1.26-2.54,.8-.04,0-.09,0-.13,0q-2.25-.96-4.13,.95c-1.19,1.15-2.36,2.32-3.49,3.53-.35,.1-.6-.02-.78-.32-.07-.29,.04-.52,.27-.67,1.98-1.41,3.49-3.31,5.26-4.94,.77-.7,1.49-.81,2.25-.06,.95,.94,2.05,1.15,3.29,.72Z"/>
    <path class="cls-113" d="M106.48,43.95c.16-.17,.3-.41,.05-.53-1.21-.56-.65-.97,.08-1.39,.63-.36,1.25-.73,1.88-1.09,.71-.41,.8,.05,.82,.6-.61,1.2-1.21,2.4-1.82,3.59-.07,.1-.17,.13-.29,.09-.32-.38-.77-.68-.72-1.27Z"/>
    <path class="cls-84" d="M93.95,41.54h-.1s-.1-.01-.1-.01c.52-.67,1.23-.86,1.91-.42,2.46,1.58,5.06,2.17,7.92,1.44-.41,1.1-1.46,.87-2.27,1.01-1.69,.31-3.18-.42-4.65-1.11-.38-.18-.74-.4-1.11-.6-.48-.38-1.12,.05-1.6-.31Z"/>
    <path class="cls-95" d="M107.25,45.2c.08-.03,.15-.06,.23-.08,.18,.17,.35,.34,.53,.51,0,0-.09,.06-.09,.06-1.34,2.16-3.39,3.52-5.52,4.76-1.68,.98-3.22,2.15-4.76,3.32-.22,0-.34-.13-.39-.33,.25-1.05,1.14-1.58,1.88-2.21,.59-.5,1.25-.93,1.94-1.27,2.38-1.19,4.29-2.98,6.19-4.77Z"/>
    <path class="cls-130" d="M79.27,50.32c.25,.07,.51,.14,.76,.21,.99-.24,1.59,.56,2.37,.9,.6,.43,1.35,.71,1.62,1.5-.05,.32-.25,.42-.55,.4-.2-.05-.34-.18-.42-.37-2.22-1.68-4.81-2.31-7.5-2.63-1.02-.12-2.04-.18-3.06-.27,1.72-.45,3.44-.35,5.16-.01,.54,.11,1.05,.38,1.63,.28Z"/>
    <path class="cls-2" d="M57.45,59.27c-1.37-.5-2.74-.88-4.14-.12-.6,.33-1.23,.27-1.87,.24,2.16-1.33,4.52-1.76,7.03-1.48,.03,.43-.38,.64-.5,1-.01,.39,0,.8-.59,.72-.06-.14-.03-.26,.07-.36Z"/>
    <path class="cls-67" d="M32.27,82.21c.59,.45,.2,.74-.14,1.08-.45,.45-1.29,1.04-.96,1.52,.4,.58,1.21-.07,1.84-.23,.21-.05,.39-.17,.59-.27,.17,.08,.32,.18,.32,.4-.31,.63-.98,.64-1.51,.88-.53,.24-1.13,.21-1.67,.4-.8-.08-.82-.56-.63-1.19,.36-1.17,1.22-1.92,2.17-2.59Z"/>
    <path class="cls-63" d="M112.67,53.45c-.97-2.19-1.93-4.38-3.64-6.12-.23-.24-.25-.53-.26-.83,1.23,.61,1.95,1.7,2.54,2.87,.74,1.47,1.63,2.89,1.9,4.57,0,0-.02,.11-.02,.11-.38-.01-.61-.16-.51-.59Z"/>
    <path class="cls-106" d="M42.94,66.19c.26,.62-.31,.56-.59,.71-1.36,.75-2.26,1.84-2.55,3.39-.21,.27-.18,.92-.81,.51,.42-2.02,1.15-3.82,3.33-4.55,.19-.06,.41-.04,.62-.06Z"/>
    <path class="cls-3" d="M30.73,85.98c.38-.58,1.05-.44,1.59-.61,.67,.1,1.69-.37,1.6,.98-.04,.03-.09,.06-.13,.09-.96-.53-2.06-.18-3.06-.46Z"/>
    <path class="cls-86" d="M38.99,70.8c.43,.09,.54-.33,.81-.51,.11,.52,.26,1.03,.79,1.29,.37,.13,.64,.32,.52,.78-.99,.04-1.13-1.3-2.1-1.29-.07,0-.14,0-.21,0-.04-.16,.04-.23,.18-.27Z"/>
    <path class="cls-79" d="M66.52,98.56c.53-1.09-.52-1.77-.75-2.67-.16-.63-.26-1.11,.33-1.42,.95-.51,1.19-1.26,1.26-2.3,.11-1.46,.55-2.91-.37-4.27-.85-1.26-.14-2.41,.38-3.46,.28-.57,.46-1.07,.44-1.67,.83,.07,.73,.71,.77,1.26-.32,1.4-.33,1.43,1.02,1.79,1.78,.47,3.23,1.59,4.78,2.48,.9,.51,1.55,1.36,1.59,2.52,.02,.5,.36,.87,.65,1.24,.6,.77,.57,1.53-.1,2.21-.56,.57-.9,1.24-1.15,1.99-.41,1.2-1.4,1.94-2.25,2.79-.42,.42-.73,.79,.03,1.17,.32,.17,.56,.45,.52,.83-.12,1.03,.45,1.12,1.3,1.26,1.93,.32,3.85,.33,5.79,.35,2.16,.02,4.3,.01,6.38-.75,.46-.17,1.07-.49,1.46,.21-.75,1.06-1.93,1.41-3.06,1.4-2.44-.02-4.68,.99-7.12,1.03-1.92,.03-3.87,.04-5.79,.34-.6,.09-1.19-.1-1.76-.34-.8-.35-1.64-.51-2.51-.53-.13,0-.28,.03-.38-.01-2.35-1.05-4.93-1-7.38-1.59-.12-.03-.22-.13-.32-.21-.52-.53-1.61-.94-1.32-1.7,.31-.83,1.37-.65,2.15-.37,1.32,.47,2.68-.18,4.01,.18,.4,.11,.89-.23,1.12-.71-.18-.41-.05-.75,.26-1.04Z"/>
    <path class="cls-74" d="M68.33,84.05c0-.5-.09-.96-.52-1.28-.19,0-.38-.02-.57-.02-.02-.66,.39-.87,.96-.92,1.34,.24,2.62,.02,3.95-.24,3.81-.74,7.67-1.1,11.55-.47,.46,.07,.75-.02,.95-.42,.18-.35,.33-.7,.49-1.05,.86-1.84,2.45-2.4,4.27-1.5,.72,.36,.91,1.18,.49,2-.2,.39-.63,.59-.76,1.03-.22,.47-.45,.93-.69,1.39-.52,1-1.33,1.6-2.5,1.47-.67-.07-1.18,.09-1.6,.61-.49,.6-1.21,.79-1.89,1.07-1.16,.46-2.28,1.02-3.36,1.67-.54,.17-1.11,.21-1.65,.09-1.93-.41-3.88-.62-5.81-1.02-1.47-.3-2.51-1.18-3.31-2.4Z"/>
    <path class="cls-93" d="M60.29,102.19c1.92-.25,3.97,.11,5.56,.72,1.87,.72,3.94,.4,5.65,1.47,.29,.18,.76,.15,1.14,.13,2.79-.16,5.7,.1,8.32-.65,2.32-.66,4.86-.1,6.98-1.49,.21-.14,.42-.29,.62-.44,.16-.48,.6-.59,1.01-.71,3.68-1.03,7.04-2.79,10.45-4.45,1.58-.77,2.98-1.67,4.26-2.82,.29-.26,.31-.24,.87-.07-3.22,3.7-6.83,6.95-11.03,9.52-.1,.06-.25,.04-.38,.06-.18-.76-.69-.5-1.11-.33-2.48,1-5.08,1.57-7.69,1.99-4.41,.71-8.86,1.18-13.35,.96-.66-.03-.97-.49-1.38-.86-1.32-1.19-1.87-1.26-3.4-.38-.28,.16-.57,.21-.87,.19-2.01-.19-4.02-.41-5.65-1.81,0-.35,0-.69,0-1.04Z"/>
    <path class="cls-14" d="M37.25,88.17c-.03-.07-.05-.14-.06-.21-.03-2.54,1.57-4.01,4.1-3.77,.72,.07,1.46-.08,2.15,.23,1.34,1.07,1.85,1.12,3.21,.32,1.27-.75,1.94-.53,2.53,.8,.68,1.55,.68,1.5,2.46,1.35,1.75-.15,3.5-.32,5.22-.73,1.86-.44,3.58-1.18,5.14-2.31,.94-.68,2.03-1.13,3.09-1.6,.48-.1,.86-.58,1.43-.35,.39,.52,0,.85-.29,1.19-.41,.48-.9,.86-1.35,1.3-.11,.07-.22,.13-.34,.18-1.27,.39-2.26,1.25-3.3,2.01-2.79,2.06-5.82,3.07-9.35,2.55-1.21-.18-2.44-.26-3.62-.6-.22,.16-.43,.33-.73,.3-2.67,0-5.34,0-8,.01-.81,0-1.66,.09-2.26-.66Z"/>
    <path class="cls-9" d="M43.43,84.56c-1.02-.07-2.05,.11-3.07-.18-.74-.21-2.53,1.37-2.76,2.28-.11,.44,0,.96-.41,1.3,0,0,0-.03,0-.03-.6-.73-1.37-1.1-2.33-1.04-.44,.03-.55-.5-.95-.54-.13-.98-1.12-.57-1.6-.98,.52-.26,1.04-.52,1.56-.78,1.19-.92,2.59-1.5,3.78-2.42,1.03-.79,2.16-.88,3.4-.31,1.32,.6,2.7,1.09,4.21,.75,1.09,.92,1.03,1.48-.25,1.94-.51,.18-1.05,.43-1.59,.01Z"/>
    <path class="cls-90" d="M63.66,86.57c-.3,2.82-2.38,3.93-4.67,4.75-2.52,.91-5.2,1.12-7.85,1.25-3.31,.17-6.62,.14-9.86-.73-.76-.2-1.49-.38-1.99-1.05,.46-.47,1.07-.44,1.58-.26,1.6,.57,3.24,.41,4.87,.42,2.42,.02,4.87,.25,7.25-.06,3.45-.44,6.93-1.06,9.52-3.78,.3-.35,.64-.62,1.14-.54Z"/>
    <path class="cls-82" d="M66.52,98.56c.04,.38-.08,.71-.26,1.04-1.82-.25-3.64-.45-5.45-.77-.64-.11-1.44-.42-1.48-1.21-.04-.78,.73-1.12,1.33-1.43,2.48-1.27,4.98-.25,5.86,2.37Z"/>
    <path class="cls-5" d="M62.89,87.12c-.9,1.41-2.35,2.04-3.81,2.66-5.35,2.29-10.98,1.38-16.52,1.49-1.09,.02-2.12-.69-3.28-.48-.76-.55-1.42-1.18-1.8-2.07,.54-.32,.86,.11,1.2,.37,.37,.29,.72,.59,1.2,.66,3.1,1.14,6.29,.98,9.48,.65,3.22,.28,6.32-.35,9.36-1.35,1.1-.47,2.21-.92,3.14-1.7,.29-.25,.6-.51,1.03-.24Z"/>
    <path class="cls-116" d="M39.55,90c-.95,0-1.13-1.24-2.06-1.28-.21-.13-.26-.32-.24-.55,1.28,.49,2.62,.28,3.93,.26,1.87-.03,3.75,.26,5.61-.19,.45-.11,.68,.3,1.02,.45,.37,.87-.26,1-.82,.97-1.67-.11-3.35,.1-5-.16-.9-.14-1.7-.01-2.44,.51Z"/>
    <path class="cls-87" d="M62.89,87.12c-1.3,.74-2.44,1.76-3.91,2.17-.21,.05-.43,.13-.51-.17-.05-.19,.1-.35,.25-.41,2.3-1.05,3.82-3.15,5.96-4.41h.01c.28-.12,.39,.05,.47,.28-.51,.66-1.01,1.33-1.52,1.99-.25,.18-.51,.37-.76,.55Z"/>
    <path class="cls-121" d="M65.17,84.58c-.16-.1-.31-.19-.47-.29,.43-.91,1.63-1.21,1.79-2.33,.09-.81,.6-.97,1.29-.85,.42,.51-.04,.77-.32,1.07-.58,.63-1.24,1.18-1.76,1.87-.18,.18-.36,.36-.53,.53Z"/>
    <path class="cls-52" d="M34.87,86.89c1.29-.43,2.1-.06,2.33,1.04-.92-.03-1.51-.77-2.33-1.04Z"/>
    <path class="cls-14" d="M65.71,84.04c.19-.79,.9-1.17,1.38-1.74,.29-.34,.75-.57,.73-1.11,.36-.07,.4,.18,.42,.44-.03,.12-.09,.23-.19,.3-.27,.27-.53,.54-.8,.81-.63,.3-.87,1.06-1.54,1.3Z"/>
    <path class="cls-120" d="M107.25,45.2c-1.03,1.76-2.59,2.94-4.29,3.98-2.01,1.23-4.15,2.29-5.6,4.25-.22,.71-.56,1.33-1.2,1.75-.87,.83-1.23,1.94-1.63,3.01-.31,.81-.55,1.64-1.05,2.35-.53,.77-.94,.69-1.42-.1-.5-.83-.25-1.77-.52-2.63,.37-1.5,.99-2.92,1.35-4.42,.13-.53,.34-1.01,.74-1.4,.32-.27,.68-.4,1.1-.23,.47,.51,.7,1.16,1.08,1.77,.03-.74-1.31-1.42-.18-2.17-.25-.02-.62,.09-.99-.02-.37-.19-.97-.14-.87-.82,.7-.43,1.41,.05,2.11-.03,.49-.06,1.01,.23,1.47-.13,.19-.31,.3-.75,.74-.73,1.44,.05,2.43-.88,3.54-1.54,.38-.23,.76-.39,1.17-.08,.53-.13,.34-.59,.43-.93,.33-1.19,.63-2.39,1.66-3.22,.55-.45,1.06-.1,1.57,.08,.26,.42,.78,.68,.78,1.26Z"/>
    <path class="cls-111" d="M97.35,50.36c-.64,1-1.58,.36-2.38,.4-.39,.02-.81-.2-1.25-.14-.53,.49-1.2,.35-1.82,.34-1.24,0-2.45,.15-3.61,.6-1.17,.42-2.36,.79-3.46,1.37-.31,.11-.62,.27-.94,.04-.53-.44-1.06-.88-1.59-1.32,.09-.8,.75-1.01,1.33-1.31,1.57-.35,2.99-1.28,4.66-1.28,1.7-.6,3.45-.32,5.19-.29,.39-.18,.7,0,1,.23,.95,.45,1.9,.9,2.86,1.36Z"/>
    <path class="cls-105" d="M94.5,49c-.37,.09-.69-.06-1-.23,.29-2.14,.56-4.29,.9-6.42,.08-.49-.29-.55-.45-.81,.54,.07,1.16-.29,1.6,.31-.76,.02-.7,.62-.76,1.11-.26,2.01-.3,4.02-.29,6.04Z"/>
    <path class="cls-37" d="M104.9,43.86c-.8,1.5-1.57,3.01-1.83,4.74-.32-.17-.22-.41-.26-.6,.35-1.48,.59-3,1.59-4.24,.27-.33,.43-.44,.5,.1Z"/>
    <path class="cls-140" d="M36.74,82.51c-.44-.03-.79-.03-.77-.71,.06-1.54-.01-3.08-.06-4.62-.04-1.46,.97-2.44,1.66-3.55,.31-.51,.64,0,.83,.34,.63,1.16,.74,2.47,.84,3.72,.11,1.28,.48,2.41,1.07,3.51-1.26,.25-2.3,1.1-3.57,1.31Z"/>
    <path class="cls-114" d="M41.11,72.37c-.17-.26-.35-.52-.52-.78,.91-1.31,1.42-2.92,2.83-3.87,.13-.09,.22-.09,.32,.03-.02,.16-.03,.32-.05,.47-.43,1.18,.17,2.33,.13,3.49-.23,1.12,.5,2.13,.36,3.24-.3,.67-.75,.13-1.13,.14-.64-.62-1.3-1.23-1.43-2.19-.08-.26-.25-.43-.5-.54Z"/>
    <path class="cls-70" d="M36.74,82.51c1.17-.48,2.18-1.41,3.57-1.31,1.27,.53,2.48,1.24,3.9,1.29,.2-.22,.47-.35,.74-.46,.57-.2,1.01-.65,1.61-.78,.2-.01,.38,.03,.54,.15,.07,.11,.1,.24,.09,.37-.45,.73-1.09,1.07-1.95,1-1.47,.6-2.79-.02-4.06-.58-1.22-.54-2.26-.44-3.39,.24-1.27,.78-2.51,1.64-3.93,2.17-.09-.09-.19-.19-.28-.28,1.05-.6,2.25-.93,3.14-1.8Z"/>
    <path class="cls-86" d="M45.02,82.26c-.22,.26-.52,.22-.8,.22-.7-2.89-.77-5.95-2.42-8.57-.17-.28-.61-.59-.18-1,.42,.76,.91,1.47,1.54,2.07,.66,.45,.83,1.19,1.02,1.87,.5,1.77,.8,3.57,.84,5.41Z"/>
    <path class="cls-26" d="M67.56,54.74c1.33-.32,2.48-1.19,3.89-1.29,.53,1.03-.21,1.69-.83,2.19-1.24,1.01-2.45,2.03-3.52,3.23-.29,.32-.65,.62-1.07,.7-1.65,.32-2.98,1.33-4.43,2.07-2.18,1.12-2.85,3.22-3.33,5.41-.18,1.06-.38,2.11-.36,3.2,.02,.97,.21,1.7,1.41,1.6,.17-.01,.32,.11,.46,.22,.09,.24-.05,.38-.23,.49-.73,.29-1.52,.05-2.26,.26-.21,.03-.41,0-.61-.09-.1-.09-.17-.21-.2-.35-.02-1.82,0-3.64,.39-5.43,.49-2.29,1.82-4.14,3.18-5.98,2.08-2.59,4.62-4.61,7.5-6.24Z"/>
    <path class="cls-10" d="M60.05,60.98c-1.02,1.96-2.32,3.78-2.88,5.95-.28,.46-.16,1.34-1.04,1.2-.74-.12-1.13-.71-1.31-1.41-.09-.33-.06-.68-.06-1.02,.1-.67,.12-1.37,.63-1.9,.05-.42,.35,.62,.45-.1,.1-.75,.16-1.62,1.08-1.95,.33,.24,.23,.6,.26,.93,.03,.32-.11,.74,.37,.82,.38,.06,.59-.26,.81-.52,.56-.67,.88-1.54,1.69-2Z"/>
    <path class="cls-101" d="M56.92,61.75c-.31,.7-.63,1.4-.94,2.1-.19,.44-.31,.26-.41-.05-.09-1.7,.56-3.07,1.84-4.16,.33-.13,.37-.47,.54-.72,.49,.5-.09,.81-.23,1.17-.23,.57-.75,1-.81,1.66Z"/>
    <path class="cls-134" d="M105.15,93.88c-1.17,.25-1.73,1.36-2.67,1.98-1.28,.84-2.68,1.41-4.01,2.09-3.18,1.62-6.46,3.02-9.91,3.98-3.32,1.19-6.76,1.02-10.21,1.08-1.42,.02-2.75-.6-4.2-.37-.49,.08-1.21-.41-.88-1.21,.27-.66,.13-.92-.56-1.07-.83-.18-.99-.52-.26-1.18,1.24-1.12,2.22-2.36,3.02-3.92,.78-1.53,1.15-2.32,.32-4.14-.8-1.76-1.75-2.68-3.3-3.51-1.32-.7-2.61-1.36-4.06-1.79-1.25-.37-.26-1.15-.1-1.76,.54,.31,1.17,.44,1.42,1.17,.18,.51,.8,.62,1.3,.71,2.71,.49,5.39,1.21,8.17,1.23,2.3,.07,4.36,2.07,4.51,4.28,.09,1.38,.14,2.71-.15,4.1-.39,1.84,.44,2.88,1.96,2.83,.42-.01,.82-.09,.87-.58,.05-.49-.38-.5-.72-.55-.89-.12-1.08-.75-1.09-1.5,0-.73,.13-1.43,.9-1.7,.71-.25,1.25,.08,1.56,.76-.07,.25-.27,.3-.49,.35-.29,.06-.66,.06-.65,.48,.01,.37,.33,.48,.64,.53,.54,.09,.93,.36,1.24,.83,1.29,1.92,3.12,2.05,4.72,.37,.21-.22,.38-.47,.64-.64,.73,.79,1.5,.59,2.3,.11,3.08-1.85,6.5-3.2,9-5.93,1.45-1.59,2.76-3.29,3.83-5.16,.35-.61,.82-1.1,1.43-1.45,.72-1.12,1.45-2.24,1.65-3.59,.2-1.4,.76-2.08,1.79-2.1-.55,3.03-1.83,5.8-3.15,8.55-1.52,2.06-2.75,4.33-4.4,6.3-.13,.16-.31,.28-.47,.42Z"/>
    <path class="cls-69" d="M45.22,69.77c1.97-5.59,5.9-8.94,11.68-10.14,.03,.83-.49,1.4-.95,2-1.38,.69-2.9,1.03-4.23,1.9-3.18,2.08-5.01,4.89-5.28,8.7-.02,.26-.06,.51-.11,.77-.61,1.1-.59,2.49-1.6,3.41-.32,.02-.56-.08-.63-.43,.39-1.33,.21-2.7,.3-4.05,.15-.77,.21-1.57,.82-2.16Z"/>
    <path class="cls-49" d="M55.86,61.46c.46-.55,.8-1.16,1.04-1.83,.18-.12,.37-.24,.55-.36-.01,.12-.02,.24-.03,.36-.78,1.31-1.48,2.66-1.84,4.16-.31,.58-.41,1.2-.49,1.84-.17,.19-.07,.5-.31,.67-.73,.35-1.49,.62-2.16,1.08-.32,.22-.67,.38-1.07,.18-.27-.77,.46-.9,.83-1.2,.56-.45,1.26-.73,1.66-1.37,.28-.38,.5-.8,.62-1.26,.23-.84,.5-1.66,1.2-2.26Z"/>
    <path class="cls-61" d="M45.22,69.77c-.16,.7-.33,1.39-.49,2.09-.18,.26-.16,.69-.64,.69-.48,0-.48-.4-.62-.7-.13-1.22-.13-2.44,.22-3.64,0,.59,0,1.17,0,1.96,.45-.87,1.03-.37,1.53-.41Z"/>
    <path class="cls-59" d="M112.67,53.45c.17,.2,.34,.39,.51,.59-.28,1.18,.58,2.17,.52,3.31-.38,.76-.64,1.59-1.23,2.25-.79,.87-1.52,.95-2.32,.11-.77-.81-1.69-1.45-2.46-2.28-1.43-1.54-3.71-1.47-5.2,.03-.27,.27-.47,.62-.86,.77-.13,.04-.25,.05-.39,.03-.4-.86-.14-1.36,1.03-1.96,.84,.09,.75-.81,1.22-1.16,1.14-.83,2.21-1.77,3.29-2.68,.46-.39,1.12-.56,1.55-.43,.87,.27,1.61,.72,2.48-.05,.32-.28,.57,.22,.72,.52,.25,.47,.51,.91,1.12,.95Z"/>
    <path class="cls-51" d="M97.58,53.67c1.37-1.54,3.15-2.53,4.88-3.58,1.89-1.15,3.68-2.41,5.02-4.21,.08-.11,.29-.13,.44-.19,.07,.79-.47,1.35-.81,1.97-.95,1.69-1.8,3.43-2.97,4.99-1.1,1.24-2.37,2.24-3.95,2.8-.98,.17-1.73,.71-2.31,1.49-.59,.79-1.33,1.45-2,2.17-.3,.32-.59,.78-1.18,.53-.24-.38-.11-.75,.03-1.11,.73-1.75,1.43-3.52,2.85-4.86Z"/>
    <path class="cls-7" d="M100.22,55.26c1.31-.87,2.61-1.73,3.92-2.6-.27,.45-.53,.9-.8,1.36-.75,.58-1.23,1.44-2.02,1.97-1.65,.68-2.22,2.32-3.19,3.6-.79,1.05-1.57,2.13-2.71,2.85-.36,.23-.69,.51-1.15,.48-.65-.39-.15-.73,.08-1.01,1.28-1.55,2.53-3.12,3.61-4.82,.55-.86,1.37-1.39,2.26-1.83Z"/>
    <path class="cls-31" d="M101.29,55.79c.64-.64,.93-1.69,2.05-1.78-.11,.87-.92,1.42-1.06,2.28-.25,.67-1.26,.91-1.07,1.84-.2,.88-.54,1.63-1.58,1.75,.01-1.58,.65-2.92,1.66-4.1Z"/>
    <path class="cls-104" d="M88.31,49.06c-1.53,.59-3.03,1.29-4.68,1.52-.59-1.17-.04-2.42-.26-3.62,.18-.23,.35-.48,.56-.7,1.64-1.73,2.02-1.74,3.87-.1,0,1-.18,2.02,.51,2.9Z"/>
    <path class="cls-38" d="M57.97,66.93c.57-2.6,1.5-4.83,4.26-5.99,1.24-.52,2.4-1.27,3.73-1.66,.97-.29,1.31-1.34,2.06-1.89,.83-.61,1.48-1.42,2.39-1.96,.63-.37,1.06-1.13,1.03-1.98,.26-.09,.52-.18,.77-.27,2.77-.66,5.53-.99,8.3,.02,.48,.17,.99,.27,1.43,.56,.31,.26,.19,.51,0,.77-.16,.14-.35,.23-.55,.3-.35,.07-.6,.33-.89,.51-.9,.55-1.68,1.22-2.88,1.27-.99,.04-1.83,.82-2.45,1.57-2.21,2.7-4.78,4.94-7.85,6.63-1.31,.72-2.66,1.23-4.18,1.17-1.46-.07-2.78,.56-4.17,.84-.33,.07-.64,.29-1,.13Z"/>
    <path class="cls-107" d="M82.15,53.96c-2.35-.47-4.64-1.34-7.11-1.04-.94,.11-1.88,.18-2.82,.27,1.59-.31,3.01-1.41,4.66-1.25,1.5,.15,3.1,.07,4.46,.91,.58,.36,1.12,.3,1.7,.11,.11,.08,.22,.17,.33,.25-.07,.8-.42,1.16-1.23,.75Z"/>
    <path class="cls-35" d="M101.52,58.11c1.93-2.22,4.01-2.79,5.84-1.44,1.01,.74,1.91,1.66,2.76,2.6,.94,1.03,1.44,1,2.33-.11,.47-.58,.46-1.48,1.26-1.81,.68,3.16,.9,6.36,.78,9.58-.35,1.29-.49,2.62-.92,3.9-.68,.61-1.46,.99-2.4,.92-.33-.12-.57-.39-.85-.58-1.19-.8-1.2-.81-.24-1.87,.36-.4,.54-.82,.19-1.27-.36-.46-.78-.15-1.17,.03-.35,.16-.77,.34-.94,.67-.71,1.41-2.08,2.27-2.9,3.57-.29,.46-.64,.82-1.18,.93-1.04,.22-1.62,.9-1.95,1.87-.36,1.06-.85,1.94-2.14,2.15-.82,.13-1.08,.87-1.28,1.62-.18,.67-.06,1.51-.9,1.88-1.68-1.37-2.15-1.36-4.02-.21-1.05,.64-2.25,.68-3.46,.6-.13-.05-.22-.14-.29-.26,.07-1.28,.44-2.51,.53-3.8,.07-1.13,1.07-2.04,2.05-2.71,1.01-.69,1.92-1.46,2.51-2.55,.19-.35,.45-.68,.87-.72,1.47-.12,2.64-1.02,3.99-1.44,.12-.04,.28-.06,.35-.15,1.13-1.51,2.74-2.45,4.22-3.54,.41-.3,.67-.82,.71-1.35,.09-1.12,.21-2.23,.51-3.31,.13-.49-.06-.93-.43-1.29-.28-.27-.65-.47-.83-.81-.45-.88-1.01-1.34-2.05-.86-.3,.14-.69,.07-.94-.23Z"/>
    <path class="cls-133" d="M113.45,70.82c-.08-1.41,.41-2.67,1.04-3.89,.12,3.95-.22,7.86-1.32,11.67-1.11,.29-1.43,1.23-1.47,2.15-.03,.65-.1,1.14-.54,1.59-.37,.38-.56,.85-.56,1.39,0,.51-.25,.8-.77,.83-.57-.81-.03-1.48,.3-2.15,.27-.56,.46-.97-.47-.92-.36,.02-.62-.27-.85-.54-.57-.88-.24-1.69,.51-2.11,1.55-.88,1.82-2.39,2.26-3.87,.44-1.47,.61-3.06,1.88-4.16Z"/>
    <path class="cls-27" d="M83.37,46.96c.88,1.15,.09,2.42,.26,3.62-.44,.35-.87,.71-1.31,1.06-.76-.37-1.52-.75-2.29-1.12,.8-1.48,2.16-2.44,3.34-3.56Z"/>
    <path class="cls-88" d="M97.58,53.67c-.95,1.59-1.92,3.18-2.57,4.93-.4,.06-.41-.24-.46-.5,.37-1.1,.69-2.23,1.53-3.1,.43-.52,.86-1.05,1.28-1.57,.07,.08,.15,.16,.22,.24Z"/>
    <path class="cls-125" d="M82.15,53.96c.59,.04,.96-.27,1.23-.75,.2-.02,.42-.02,.53-.24,.25-.08,.5-.17,.75-.25,.45,.1,.84-.41,1.31-.13,.63,.54,1.39,.5,2.15,.51,.71,.01,1.43-.11,2.12,.19,.22,.16,.23,.35,.02,.52-.21,.17-.47,.2-.73,.23-3.76,.4-6.74,2.26-9.27,4.96-.44,.4-.81,.86-1.21,1.31-.24,.27-.53,.78-.98,.2,.3-1.62,1.61-2.57,2.52-3.79,.91-.47,.55-1.65,1.23-2.24,.11-.17,.22-.34,.33-.5Z"/>
    <path class="cls-36" d="M101.52,58.11c.9,.41,1.71-1.01,2.5-.26,.59,.56,.8,1.48,1.61,1.94,.66,.37,.72,1.1,.49,1.73-.34,.95-.43,1.91-.48,2.9-.05,1.09-.64,1.93-1.64,2.44-1.2,.61-2.07,1.57-3.04,2.48-1.14,1.07-2.78,1.73-4.44,1.96-.65,.09-.98,.3-1.27,.86-.54,1.04-1.43,1.71-2.37,2.41-1.14,.85-2.4,1.8-2.04,3.66,.18,.93-.42,1.82-.74,2.7-.38,.36-.81,.46-1.3,.26,0-.36,.05-.63,.45-.82,.6-.28,.66-.87,.54-1.45-.13-.63-.67-.53-1.13-.59-2.46-.31-2.49-.33-3.58,2.31-.36,.87-.62,1.54-1.65,.73-.16-.12-.4-.17-.61-.18-3.94-.02-7.9-.12-11.73,1.03-1.09,.33-2.07,.12-3.06-.3,.01-.07,.02-.15,.02-.23,.15-.2,.29-.4,.58-.42,1.52-.16,2.86-1.12,4.44-.98,1.66-.42,3.17-1.28,4.81-1.75,1.66-.48,2.81-1.97,4.56-2.27,.3-.05,.48-.35,.67-.59,.62-.77,1.36-1.24,2.37-1.4,1.03-.16,1.84-.72,1.99-1.9,.09-.72,.52-1.2,1.23-1.33,.93-.17,1.55-.7,1.97-1.51,.08-.15,.18-.32,.31-.41,.94-.6,1.48-1.35,1.15-2.54-.05-.18,.15-.39,.26-.58,.73-.97,1.84-1.36,2.89-1.82,1.81-.79,3.16-2,3.86-3.88,.12-.22,.2-.49,.55-.41,.51-.6,1.01-1.2,1.52-1.79,.1,0,.2-.02,.31-.03Z"/>
    <path class="cls-15" d="M88.82,81.19c.4-.25,.84-.29,1.3-.26,0,0,0,0,0,0-.22,1.71,.7,3.17,1.01,4.76,.13,.65,.5,1.2,.55,1.85,.09,1.2,.13,2.39-.28,3.57-.8,2.29,.43,3.78,2.79,3.15,3.96-1.05,7.53-2.88,10.3-6.06,1.91-2.2,3.5-4.56,4.56-7.27,.28,.06,.42,.44,.77,.37,.3-.06,.62-.46,.9-.03,.3,.44-.02,.83-.25,1.16-.45,.65-.68,1.35-.65,2.14-1.54,1.22-2.24,3.08-3.43,4.58-1.76,2.22-3.75,4.12-6.26,5.46-1.75,.93-3.46,1.91-5.21,2.84-.79,.42-1.56,.61-1.69-.69-.76,.12-1.21-.36-1.59-.9-.7-1.01-1.56-1.19-2.7-.77-.62,.23-1.37,.77-1.94-.15-.47-.3-.81-1.02-1.52-.62-.75,.42-.55,1.19-.54,1.86,0,.57,.3,.96,.9,.73,.8-.3,1.12,.14,1.1,.75-.02,.68-.38,1.21-1.24,1.16-1.95-.12-3.1-1.53-2.47-3.46,.54-1.65,.24-3.26,.05-4.81-.16-1.32-1.48-2.12-2.64-2.79-.44-.25-.94-.41-1.42-.6,.74-1.08,2.09-1.11,3.07-1.76,.17-.11,.41-.12,.61-.21,1.31-.58,2.19-1.9,4.03-1.62,1.07,.16,1.28-1.53,1.88-2.37Z"/>
    <path class="cls-128" d="M88.53,79.5c-.03,.35-2.17,2.91-2.46,2.96-.57,.1-1.02-.1-.86-.73,.3-1.17,.8-2.26,1.68-3.13,.28-.28,.62-.32,.92-.05,.31,.28,.7,.52,.71,.96Z"/>
    <path class="cls-68" d="M68.59,81.45c-.18,.09-.35,.17-.53,.26,0-.21-.03-.41-.25-.52-.56,.05-.99,.32-1.32,.77-.5-.01-.76,.57-1.27,.51-.19-.26,.16-.77-.33-.86-.33-.06-.49,.29-.68,.52-.14,.17-.26,.35-.4,.5-1.65,1.81-3.55,1.43-4.4-.89-.23-.62-.15-1.18,.36-1.65,.58-.15,1.07,.19,1.62,.26,1.66,.37,2.81-.55,3.94-1.53,.58-.46,.9-1.12,1.29-1.72,.77-1.2,1.84-1.83,3.26-1.89,.89,.08,1.15,.81,1.48,1.45,.84,1.64,.83,1.63,2.47,.7,.94-.53,1.86-1.08,2.79-1.62,.4-.23,.78-.58,1.3-.28,.14,.74-.5,.92-.92,1.2-1.88,1.26-3.89,2.3-5.82,3.48-.84,.46-1.59,1.1-2.56,1.3Z"/>
    <path class="cls-42" d="M45.25,82.76c.61-.35,1.21-.71,1.82-1.06,.83-.87,1.82-.65,2.76-.32,1.38,.49,2.6,1.33,3.85,2.06,.81,.49,1.57,1.04,1.95,1.95,.24,.59,.92,.58,1.29,.98-1.35,.57-2.81,.55-4.23,.77-.29,.04-.6,0-.9,.02q-2.17,.22-3-1.72c-.48-1.11-1.03-1.18-2.22-.27-1.11,.85-2.49,.58-3.15-.62,.45-.09,.91-.15,1.35-.27,1.14-.31,1.22-.57,.47-1.53Z"/>
    <path class="cls-110" d="M56.93,86.38c-.83,.13-1.4-.14-1.68-1-.27-.83-1.01-1.21-1.69-1.64,.83-1.26,1.45-2.63,2.31-3.87,.3-.42,.56-.88,1.12-1.01,1.15-.03,2.16,.22,2.78,1.32-.36,1.32,.47,2.92,1.71,3.43,.5,.2,.85-.01,1.17-.28,.56-.47,1.04-1.01,1.46-1.61,.25-.35,.53-1.01,1.21-.53,.68,.48,.15,.87-.1,1.29-1.76,.8-3.36,1.88-5.02,2.84-1.01,.59-2.11,.94-3.27,1.07Z"/>
    <path class="cls-121" d="M64.69,84.3c-1.68,1.68-3.34,3.37-5.5,4.45-.28,.14-.27,.15-.2,.55-3.09,1.22-6.27,1.78-9.59,1.47-1.18,0-1.51-.63-1.3-1.7,.06-.28,.02-.59,0-.88,.17-.27,.38-.6,.66-.18,.49,.75,1.21,.68,1.94,.72,1.15,.05,2.31,.29,3.44,.22,2.56-.16,4.85-1.09,6.92-2.64,1.1-.83,2.1-1.92,3.63-2Z"/>
    <path class="cls-33" d="M48.1,88.18c.36,.28,.34,.7,.27,1.05-.17,.88,.28,1.29,1.02,1.53-.98,.09-1.96,.17-2.93,.28-2.4,.27-4.66-.32-6.91-1.04,.15-1.18,1.15-1.13,1.84-.97,1.91,.44,3.85-.07,5.74,.35,.52,.11,.67-.25,.68-.69,.1-.17,.19-.34,.29-.51Z"/>
    <path class="cls-109" d="M96.08,55c-.44,1.03-.87,2.07-1.31,3.1-.33,1.28-.36,2.66-1.37,3.69-.32-.47-.53,.07-.79,.1-1.28-.45-2.52-.94-2.92-2.44,.31-.98,1.21-1.21,2-1.58,.29,.15,.55,.36,.38,.7-.32,.65,0,1.16,.27,1.69,.11,.21,.04,.58,.39,.59,.37,.02,.46-.34,.58-.6,.32-.7,.7-1.39,.88-2.12,.27-1.05,1.01-1.86,1.31-2.89,.05-.16,.24-.51,.57-.24Z"/>
    <path class="cls-76" d="M87.97,51.34c1.84-.92,3.81-.74,5.76-.73,.35,.17,.7,.33,1.05,.5,.35,.27,.49,.54,0,.8-.36-.04-.69,.05-1,.25-.07,0-.15,0-.22,.01-1.44-.11-2.89-.16-4.33-.29-.44-.04-.95-.11-1.26-.54Z"/>
    <path class="cls-139" d="M91.69,57.87c-.41,.75-1.33,.88-1.87,1.48-.75,.87-1.93,.86-2.84,1.4-.45,.17-.76,1.08-1.41,.29-.02-.13-.02-.26,.02-.38,.46-.77,1.26-1.01,2.02-1.31,.56-.22,1.14-.39,1.68-.68,1.27-.68,2.24-1.58,2.51-3.1,.11-.63,.37-1.24,.6-1.85,.05-.12,.13-.23,.22-.32,.18-.11,.36-.13,.55-.02-.33,1.55-.79,3.06-1.49,4.48Z"/>
    <path class="cls-56" d="M93.18,53.39c-.16,.03-.32,.05-.48,.08-.12,.08-.26,.12-.41,.11-.75-.04-1.37-.46-2.07-.67-.45-.14-.77-.47-.22-.93,1.24-.18,2.46-.07,3.68,.18,0,0,.09,0,.09,0-.2,.41-.4,.82-.6,1.23Z"/>
    <path class="cls-32" d="M94.78,51.91c.17-.26,.17-.53,0-.8,.51,0,1.02,0,1.53,0-1.34,.53-.8,1.24-.23,1.94,.24,.29,.33,.61,.2,.95-.05,.14-.2,.26-.34,.33-.05,.02-.26-.12-.27-.21-.11-.81-.92-1.35-.89-2.21Z"/>
    <path class="cls-58" d="M93.69,52.15c-1.28,0-2.57,0-3.85,0-1.32,.66-2.76,.36-4.15,.52-.35-.07-.67,.49-1.03,.05,1.03-.63,2.15-1.06,3.31-1.37,1.87,.53,3.9-.07,5.72,.81Z"/>
    <path class="cls-80" d="M44.24,75.98c.06,.27,.29,.29,.5,.36,.35,.23,.69,.48,1.05,.69,.38-.32,.34-.79,.53-1.15,.95-1.85,2.04-3.6,3.56-5.05,.37-.36,.72-.77,1.32-.68,.26,.08,.48,.2,.61,.46-.03,.39-.32,.6-.59,.81-3.07,2.42-4.7,5.54-4.58,9.5,0,.18-.04,.34-.14,.49-.45,.36-.88,.75-1.48,.87-.5-.75-.47-1.61-.58-2.45-.21-1.67-.68-3.26-1.29-4.83,.47-.56,.52,.18,.78,.25,.3,.17,.36,.43,.31,.74Z"/>
    <path class="cls-18" d="M44.24,75.98c-.1-.25-.21-.5-.31-.74,.09-1.16-.74-2.2-.46-3.38,.42,.66,.84,.58,1.26,0-.11,1.38,.36,2.83-.49,4.12Z"/>
    <path class="cls-60" d="M46.49,81.4c-.48-1.51-.18-2.95,.32-4.39,.92-2.67,2.58-4.8,4.85-6.46,.36-1.06,1.21-1.37,2.21-1.44,.74,.59,.3,1.05-.15,1.52-1.65,.84-2.78,2.25-3.97,3.59-.2,.23-.39,.52-.35,.81,.13,1.03-.11,2.01-.29,3.01,.18,.66-.16,1.23-.38,1.78,.3,.34,.73,.04,.98,.34,.06,.46-.23,.71-.57,.93-.7,.1-1.4,.19-2.08,.36-.19-.02-.38-.04-.57-.05Z"/>
    <path class="cls-98" d="M47.06,81.45c.61-.51,1.34-.52,2.08-.5,.43-.37,.85-.19,1.28,0,3.55,2.23,3.25,1.68,4.73-.99,.15-.26,.34-.5,.53-.73,.36-.44,.74-.84,1.29-1.05,.36-.06,.63,.05,.81,.38,0,.64-.62,.26-.85,.52-1.05,.95-1.56,2.26-2.24,3.45-.28,.5-.55,.97-1.12,1.19-1.17-.64-2.34-1.27-3.5-1.91-.98-.54-1.98-.5-2.99-.12,0-.08,0-.17,0-.25Z"/>
    <path class="cls-4" d="M57.97,66.93c1.32-.77,2.84-1.28,4.27-1.22,3.26,.13,5.62-1.58,8.1-3.22,1.49-.99,2.54-2.42,3.87-3.57,.6-.51,1.03-1.36,1.78-1.86,.74-.49,1.35-1.03,2.43-.89,.59,.07,1.31-.7,1.94-1.14,.31-.22,.54-.57,.99-.52,0,.81-.68,1.15-1.14,1.61-.55,.54-1.11,1.06-1.63,1.63-.88,.37-1.24,1.24-1.84,1.89-1.56,1.46-3.14,2.91-4.55,4.53-1.06,1.22-2.57,1.84-3.89,2.72-1.47,.98-1.73,1.74-1.02,3.34,.62,1.4,.39,2.03-1.04,2.31-.46,.09-.05,.49-.36,.51-.87,.34-1.61-.29-2.43-.3-1.18-.43-2.52,.07-3.66-.6-.04,0-.08-.01-.13-.01-2.16-.05-2.37-.25-2.18-2.46,.08-.92,.32-1.82,.49-2.73Z"/>
    <path class="cls-48" d="M59.79,72.14c1.29,.04,2.6-.08,3.87,.28,1.02,1.09,.98,2.15-.12,3.03-1.09,.22-2.17,.27-3.25-.05-1.28-.97-1.44-1.59-.77-3.04,.09-.07,.18-.15,.27-.22Z"/>
    <path class="cls-127" d="M56.66,72.63c.17,0,.35-.02,.52-.03,.58-.17,1.15-.24,1.34,.51,.21,.82,.6,1.71-.53,2.22-.62,.24-1.3,.29-1.91,.55-.12,.05-.25,.08-.37,.11-.76-.07-1.39,.75-2.2,.33-.41-.71-.36-1.49-.32-2.27,.94-.99,2.13-1.38,3.47-1.43Z"/>
    <path class="cls-96" d="M54.83,66.13c.09-.17,.18-.34,.26-.5,0,.21,.03,.43,.02,.64-.04,.79,.4,1.37,1.04,1.6,.67,.24,.58-.73,1.03-.95-.44,1.79-.13,3.66-.52,5.45-1.43,.46-1.83,.24-1.92-1.18-.05-.9-.22-1.78-.26-2.68,0-.81-.17-1.65,.36-2.38Z"/>
    <path class="cls-97" d="M54.83,68.47c.09,1.05,.34,2.08,.3,3.16-.04,1.19,.96,.59,1.52,.75,0,.08,.01,.17,0,.25-1.11,.57-2.39,.77-3.41,1.53-.29,.45-.64,.79-1.23,.72-.3-.12-.44-.39-.18-.57,1.35-.91,1.56-2.31,1.7-3.75,.13-.42,.86-.71,.29-1.29-.09-.79,.69-.49,.99-.8Z"/>
    <path class="cls-11" d="M57.7,75.17c.64-.25,.88-.6,.65-1.35-.2-.66-.18-1.38-1.17-1.22,.74-.43,1.57-.14,2.34-.25,0,1-.27,2.08,.78,2.78-.56,.66-1.3,.43-2.01,.41-.24-.05-.46-.15-.59-.37Z"/>
    <path class="cls-41" d="M87,94.93c.8,.53,1.5,0,2.17-.28,1.13-.46,1.97-.1,2.55,.79,.4,.6,.91,.97,1.5,1.3-.49,1.12-1.23,1.99-2.53,2.06-1.4,.08-2.68-.2-3.2-1.77-.13-.38-.41-.55-.78-.54-.72,.01-1.37-.09-1.24-1.02,.15-1.09,.99-.44,1.53-.54Z"/>
    <path class="cls-28" d="M54.33,65.12c-.65,1.14-2.02,1.38-2.85,2.3-.33,.78-.89,1.21-1.76,1.16-.03-.03-.06-.06-.08-.1-.17-.37,.25-1.01-.5-1.11-.22-.03-.44,.09-.49,.31-.15,.64,.52,.68,.79,1.01,.14,.63-.36,.92-.71,1.28-.66,.68-1.32,1.36-1.68,2.26-.24,.38-.45,.8-1.02,.7,.1-3.46,1.4-6.35,4.05-8.61,1.69-1.45,3.64-2.34,5.78-2.86-.33,.79-.66,1.58-.99,2.37-.33-.09-.68-.54-1-.1-.45,.62,.22,.95,.46,1.39Z"/>
    <path class="cls-136" d="M46.03,72.93c.26-.27,.51-.54,.77-.81,.45-.59,1.05-.78,1.76-.63,.49,.58-.06,.89-.33,1.28-.7,1-1.5,1.94-1.69,3.2-.15,.53-.29,1.07-.53,1.9-.29-.87-1.25-.7-1.27-1.53,.43-1.14,.86-2.27,1.29-3.41Z"/>
    <path class="cls-91" d="M48.65,71.61c-.62,.17-1.23,.34-1.85,.51,.42-1.48,1.83-2.19,2.63-3.38,.05-.11,.13-.18,.24-.22,.71-.19,1.22-.72,1.81-1.1,.92,.13,1.37-.76,2.14-1.01,.41-.13,.78-.28,1.21-.28,0,.78,0,1.56,0,2.33-.15,.49-.87,.27-.99,.8-.85,.22-1.52,.73-2.18,1.29-.22-.02-.39-.11-.48-.33-.03-.19,.08-.32,.18-.45-.11,.03-.16,.14-.26,.17-.96,.35-1.35,1.53-2.46,1.66Z"/>
    <path class="cls-78" d="M54.33,65.12c-.59-.06-.94-.4-1.01-.96-.07-.53,.25-.92,.73-1.05,.55-.15,.74,.25,.81,.72,.03,.52-.27,.9-.54,1.29Z"/>
    <path class="cls-47" d="M100.22,55.26c-2.43,1.94-3.65,4.89-5.85,7.03-.14,.14-.36,.29-.1,.51-.22,.83-.97,1.25-1.44,1.89-.17,.24-.49,.42-.79,.21-.34-.24-.08-.54,.04-.79,.16-.35,.41-.65,.6-.99,.88-1.04,1.08-2.49,2.07-3.47,1.09-.69,1.82-1.74,2.67-2.67,.77-.85,1.44-1.84,2.8-1.72Z"/>
    <path class="cls-108" d="M94.75,59.65c-.6,1.21-1.21,2.42-1.81,3.63-.25,.06-.34-.09-.41-.28-.03-.56,.14-1.02,.69-1.26,.75-1.11,.9-2.48,1.55-3.63,.03,.19,.03,.39,.24,.49-.09,.35-.18,.7-.27,1.05Z"/>
    <path class="cls-57" d="M92.67,63.03c.09,.08,.18,.16,.27,.25-.28,.46-.56,.93-1,1.64,1.11-.61,1.44-1.69,2.33-2.12,1.55-.76,2.61-2.05,3.64-3.39,.99-.38,1,.73,1.54,1.03-.78,2.6-2.99,3.6-5.18,4.61-.58,.27-1.15,.54-1.58,1.03-.44,.38-.83,.81-1.42,.97-.74,.04-1.21,.55-1.74,.97-.1,.08-.2,.14-.31,.19-.28,.12-.58,.25-.85,.03-.21-.16-.14-.42,0-.57,1.49-1.5,2.78-3.17,4.28-4.66Z"/>
    <path class="cls-132" d="M99.45,60.44c-.92,.27-.71-1.16-1.54-1.03,.56-1.15,1.46-2.05,2.18-3.09,.28-.41,.68-.62,1.2-.54-.5,1.39-1.24,2.69-1.59,4.14-.23,.1-.2,.32-.25,.51Z"/>
    <path class="cls-45" d="M78.42,57.56c.78-1.21,2.07-1.92,2.93-3.06,.16-.01,.31-.03,.47-.04-.3,.8,.15,1.92-1.01,2.35-.61,.35-1.06,.97-1.81,1.06-.24,.03-.62,.24-.57-.31Z"/>
    <path class="cls-40" d="M109.04,80.93c.04,1.23-.53,2.27-1.13,3.24-2.07,3.36-4.58,6.41-8.08,8.26-2.11,1.11-4.35,2.24-6.84,2.44-1.03,.08-2.5-1.72-2.24-2.76,.3-1.2,.94-2.36,.64-3.63-.38-1.61-.09-3.44-1.51-4.73-.3-.27-.3-.67-.14-1.08,.22-.56,.45-1.12,.38-1.75,1.46-.27,3.01,.02,4.27-1.28,.89-.91,2.82-.21,3.5,1.02,.5,0,.35-.39,.39-.65,.09-.56,.37-.97,.93-1.11,.41-.1,.77,.04,1.01,.41,.3,.47,.44,1.06,.05,1.45-1.27,1.27,.14,2.29,.23,3.42,0,.08,.09,.14,.16,.2,.59,.51,3.33,.13,3.73-.56,.8-1.38,1.71-2.61,2.95-3.69,.91-.79,1.29-2.18,1.65-3.41,.41-1.36,.71-2.75,1.29-4.06,.19-.43,.3-.92,.83-1.08,.78-.26,1.55-.52,2.33-.78-1.04,1.93-1.47,4.06-2.1,6.13-.24,.77-.55,1.42-1.43,1.82-.78,.35-1.55,1.06-.87,2.16Z"/>
    <path class="cls-39" d="M111.12,71.6c-.85,1.75-1.24,3.65-1.89,5.45-.53,1.46-.82,3.19-2.51,4.08-1.19,.63-1.49,2.06-2.17,3.14-.41,.65-.79,.99-1.55,.65-.15-.07-.33-.08-.5-.1-.73-.1-1.65,.63-2.17-.16-.57-.85-.53-2.01-1.14-2.91-.25-.37,.36-.49,.57-.71,.44-.46,.62-.91,.3-1.5-.2-.37-.49-.5-.85-.37-.55,.19-.78,.61-.79,1.2,0,.37,.12,.76-.12,1.13-.49-.12-.35-.52-.39-.83,.12-.41,.29-.81,.35-1.23,.22-1.47,.66-2.63,2.47-2.74,.69-.04,.84-.93,1.03-1.52,.4-1.24,1-2.18,2.43-2.3,.12,0,.34-.05,.35-.11,.41-1.45,2.09-1.89,2.61-3.17,.52-1.28,1.59-1.73,2.66-2.26,.42-.21,.64,.07,.8,.4,.29,.57,.52,1.31-.07,1.64-1.36,.77-1.03,1.15,.17,1.58,.19,.07,.28,.42,.41,.63Z"/>
    <path class="cls-117" d="M78.17,60.45c1.02-.05,.98-1.31,1.81-1.58,.69-.26,1.23-.75,1.81-1.17,.25-.18,.53-.35,.8-.08,.3,.3,.22,.66-.05,.91-.62,.56-1,1.26-1.25,2.05-.72,1.47-1.5,2.92-1.75,4.57-.02,.2-.06,.39-.12,.58-.15,.7-.47,1.28-1.14,1.61-.53,.26-.81,.73-1.11,1.2-.28,.44-.61,.88-1.22,.39-.59-2.8-.03-5.41,1.31-7.89,.18-.33,.42-.66,.9-.58Z"/>
    <path class="cls-77" d="M81.04,60.45c.17-.76,.48-1.44,1.09-1.95,.22-.18,.62-.36,.35-.67-.31-.37-.46,.09-.67,.26-.54,.42-1.03,.98-1.83,.79,2.62-2.97,5.78-4.89,9.82-5.18,.2-.01,.39-.14,.58-.22,.67-.59,1.36-.05,2.05-.06,.09,.02,.19,.04,.28,.06,0,.08,0,.15,0,.23-3.1,1.36-5.98,3.13-8.91,4.82-.56,.33-1.06,.73-1.5,1.2-.33,.36-.61,.87-1.25,.72Z"/>
    <path class="cls-118" d="M78.17,60.45c-1.44,1.63-1.83,3.64-2.04,5.7-.1,.94-.01,1.89-.01,2.84,.47,.6,.9,1.19-.26,1.49-.87-.25-.97-1.01-1.1-1.73-.59-3.36-.03-6.49,1.88-9.35,.54-.66,.8-1.6,1.78-1.84,.98,.33,1.51-.75,2.38-.75-.86,1.23-1.95,2.28-2.63,3.64Z"/>
    <path class="cls-43" d="M92.43,53.41c-.68,.02-1.36,.04-2.05,.06-1.06,0-2.12-.05-3.17,0-.7,.03-1.22-.13-1.51-.8,1.31-.76,2.75-.48,4.15-.52,.61,.93,1.83,.64,2.59,1.27Z"/>
    <path class="cls-23" d="M68.59,81.45c.78-.49,1.57-.99,2.35-1.48,1.98-.78,3.99-1.46,5.56-3.04,.58-.58,1.46-.88,2.2-1.3,1.93-1.1,3.87-2.2,5.63-3.54,1.07-.81,2.01-1.8,3.02-2.7,.4-.85,1.35-.9,1.99-1.4h-.01c.51-.34,.95-.84,1.62-.91,.55,.43,.31,.99,.06,1.38-.49,.75-.98,1.54-1.68,2.11-2.73,2.22-5.53,4.37-8.66,5.96-2.6,1.32-4.95,3.08-7.67,4.16-1.32-.27-2.38,.69-3.62,.79-.27,.02-.52,.37-.78-.01Z"/>
    <path class="cls-35" d="M73,80.67c.62-1.05,1.9-1.03,2.77-1.72,2.49-1.95,5.61-2.86,8.14-4.77,1.73-1.31,3.61-2.45,5.2-3.9,.84-.77,2.07-1.57,1.77-3.1-.08-.23,.01-.32,.24-.3,.52-.27,1.04-.53,1.57-.8-.12,.23-.39,.55-.32,.67,.9,1.49-.44,1.86-1.16,2.66-.73,.81-1.08,1.96-2.48,1.95-.57,0-.86,.46-.95,1.04-.21,1.35-.98,2.08-2.34,2.28-.34,.05-.81-.12-.98,.18-.88,1.53-2.65,1.75-3.91,2.72-.73,.56-1.64,.93-2.52,1.27-1.66,.65-3.35,1.21-5.02,1.81Z"/>
    <path class="cls-119" d="M94.54,71.18c-.02,.3,.02,.61-.06,.89-.12,.44-.42,.74-.9,.8-.5,.06-.66-.31-.8-.68-.1-.24-.18-.48-.24-.73-.13-.59-.22-1.19,.3-1.67,.32-.29,.68-.36,1.06-.16,.65,.33,.67,.93,.64,1.55Z"/>
    <path class="cls-50" d="M77.98,75.55c-1.66,.4-2.94,1.53-4.39,2.34-1.49,.83-1.6,.82-2.37-.7-.33-.65-.39-1.57-1.37-1.72q.65-.78,2.29-.46c-.26-.39-.82,.07-1.02-.39,.03-.08,.06-.19,.12-.22,1.4-.75,5.57-.32,6.77,.7,.04,.16,.02,.31-.05,.45Z"/>
    <path class="cls-24" d="M87.43,69.46c.06,.1,.11,.2,.17,.3-1.83,.97-2.83,2.92-4.83,3.81-2.15,.96-4.25,2.25-6.09,3.65-1.74,1.32-3.54,2.18-5.52,2.87-.05,.02-.14-.08-.22-.12,2.29-1.55,4.83-2.72,7.04-4.42,0,0-.03-.02-.03-.02,.22-.36,.58-.53,.91-.75,.52-.34,1.09-.6,1.56-1.02,.62-.44,1.27-.83,1.84-1.33,1.33-.8,2.6-1.68,3.89-2.53,.38-.25,.73-.64,1.28-.44Z"/>
    <path class="cls-21" d="M71.17,74.68c.34,.03,.67,.05,1.01,.08-.77,.27-1.64,.14-2.32,.7-1.41,.13-2.45,.81-3.16,2.05-.33,.57-.6,1.23-1.25,1.56-.15-.13-.2-.3-.21-.49,.02-.8,.76-1.18,1.06-1.81,.12-.2,.23-.4,.38-.59,.2-.22,.41-.43,.63-.63,.5-.4,1.08-.66,1.69-.85,.72-.12,1.44-.57,2.16-.02Z"/>
    <path class="cls-53" d="M56.92,79.1c.26-.15,.51-.3,.77-.45,.62-.48,1.12,0,1.63,.22,.58,.25,1.18,.49,1.75,.77,.35,.18,.74,.18,1.11,.25,.2,.05,.38,.13,.5,.31-.21,.82-.97,.12-1.34,.48-.52-.16-1.05-.32-1.57-.49-.89-.53-1.73-1.18-2.85-1.09Z"/>
    <path class="cls-137" d="M61.34,80.67c.3-.52,.97-.05,1.31-.48,.86-.7,1.77-1.3,2.82-1.68,0,.19,0,.37-.01,.56-1.14,1.12-2.38,1.99-4.11,1.6Z"/>
    <path class="cls-94" d="M86.78,60.5c1.02-.38,2.03-.77,3.05-1.15,.49,1.36,1.79,1.75,2.88,2.4-.38,1.36-.97,2.56-2.37,3.15-.39-.88-1.06-1.46-1.84-2.02-.79-.57-1.72-1.17-1.72-2.37Z"/>
    <path class="cls-85" d="M90.38,64.86c.96-.9,1.58-2.05,2.32-3.12,.1-.16,.16-.38,.41-.32,.06,.02,.07,.2,.11,.31-.18,.43-.37,.86-.55,1.29-1.02,1.97-2.72,3.36-4.25,4.98,.37,.28,.64-.17,.93-.04-.48,.7-1.4,.83-1.92,1.48-1.68,1.1-3.37,2.2-5.05,3.3-.25-.12-.41-.3-.44-.59,.02-.2,.12-.35,.3-.44,1.46-.29,2.33-1.58,3.63-2.16,.68-.4,1.23-.93,1.64-1.61,.74-1.23,1.76-2.21,2.87-3.1Z"/>
    <path class="cls-99" d="M81.04,60.45c1.46-1.67,3.36-2.76,5.26-3.78,1.61-.87,3.18-1.79,4.78-2.67,.52-.28,1.07-.28,1.62-.29-.45,3.18-2.06,5.33-5.32,6.07-.62,.14-1.15,.56-1.64,.98-.16,.07-.29,.19-.36,.34-.56,1.24-1.48,1.76-2.85,1.63-.57-.05-1.26,0-1.24,.9,.02,.17,.03,.35,.02,.52-.17,1.41-1.11,1.21-2.06,.98,.22-1.7,.98-3.19,1.8-4.66Z"/>
    <path class="cls-55" d="M90.38,64.86c-1.51,1.61-2.48,3.69-4.41,4.92-.85,.45-.92-.79-1.59-.74-.13-.14-.17-.31-.17-.49,.05-.44,.33-.76,.54-1.12,.06-.11,.13-.2,.2-.3,.24-.5,.23-1.03-.03-1.49-.63-1.11-.66-2.18,0-3.28,.2-.33,.17-.75,.31-1.11,.1-.17,.21-.33,.45-.28,.69,.58,.68-.46,1.11-.48,.69,.99,1.36,2,2.52,2.54,.75,.35,1.19,.94,1.09,1.82Z"/>
    <path class="cls-12" d="M85.67,60.97c-.08,.08-.16,.16-.24,.24-.29,.66-.41,1.38-.77,2.02-.28,.5-.19,1.06,.04,1.6,.15,.37,.55,.71,.22,1.17-1.48,.82-3.06,1.39-4.63,1.99-1.01,.39-1.51-.03-1.3-1.12,.08-.42-.02-.87,.22-1.26,0-.17,.02-.34,.03-.52,.22-.08,.34-.55,.57-.37,1.03,.8,1.04-.08,1.23-.69,.14-.13,.38-.23,.37-.42,0-.12-.26-.06-.4-.08-.28-.81,.28-1.1,.86-1.1,1.43,.01,2.74-.06,3.36-1.65,.07-.18,.3-.32,.5-.06-.01,.08-.03,.16-.06,.23Z"/>
    <path class="cls-64" d="M48.65,71.61c1.02-.96,2.15-1.76,3.42-2.41-.29,.34-.59,.68-.88,1.02-2.2,1.39-3.36,3.62-4.65,5.75-.35-1.4,.81-2.18,1.34-3.22,.21-.4,.72-.62,.77-1.15Z"/>
    <path class="cls-13" d="M53.55,70.56c.47,1.56,.02,2.81-1.3,3.75-.13,.09-.49,.12-.22,.43,.07,.52-.33,.73-.65,1-.64,.46-1.17,1.01-1.59,1.69-.19,.32-.35,.73-.86,.64-.1-.14-.32-.3-.3-.4,.52-2.13,.67-4.47,2.83-5.77,.71-.43,1.04-1.44,2.08-1.34Z"/>
    <path class="cls-62" d="M50.44,81.2c-.43-.08-.87-.17-1.3-.25,.18-.29,.35-.58,.53-.86-.22-.26-.07-.46,.09-.66,1.33-1.24,2.57-2.63,4.48-3,.51,.1,.24,.78,.68,.93-.1,.56-.66,.63-1,.93-.91,.56-1.64,1.31-2.29,2.15-.3,.38-.55,.89-1.19,.76Z"/>
    <path class="cls-72" d="M49.81,79.64c-.05,.15-.09,.3-.14,.45-.43-.01-.7,.77-1.2,.27-.48-.47,.07-.81,.22-1.2,.13-.35,.17-.72,.25-1.09,.76-.85,1.19-2,2.31-2.53,.42,.77-.39,1.51-.06,2.28-.31,.72-.88,1.25-1.38,1.82Z"/>
    <path class="cls-83" d="M50.44,81.2c1.23-.93,1.88-2.48,3.37-3.14,.46,.04,.76-.35,1.16-.46,.44-.13,.88-.4,1.27,.09,.39,.49,.13,.85-.22,1.21-.12,.12-.13,.31-.16,.48-.52,.88-1.04,1.77-1.57,2.65-.45,.75-1.05,.97-1.82,.45-.66-.45-1.52-.59-2.03-1.27Z"/>
    <path class="cls-102" d="M55.86,79.38c-.06-.1-.17-.22-.16-.31,.08-.42,.88-.74,.28-1.24-.47-.39-.99,0-1.44,.2-.26,.11-.47,.42-.74,.03,.36-.25,.72-.5,1.08-.75,.51-.89,1.42-.87,2.27-.99,2.06-.15,3.28,1.25,4.59,2.49,.35,.34,.55,.77,.37,1.29-.37,.05-.74,.11-1.04-.19-1.05-.72-2.18-1.3-3.4-1.67-.25-.08-.54-.28-.68,.16l-1.13,.98Z"/>
    <path class="cls-131" d="M56.99,78.4c-.28-.49,.27-.51,.39-.48,1.39,.35,2.69,.91,3.69,1.99-1.21-.2-2.13-1.17-3.38-1.27-.23-.08-.46-.16-.7-.24Z"/>
    <path class="cls-66" d="M71.17,74.68c-.77,.12-1.55,.23-2.32,.35-.36-.84-1.29-.9-1.9-1.41-.32-.25-.75-.37-.94-.77-.04-.17-.67-.31,.04-.51,1.51-.43,1.6-.73,.82-2.15-.71-1.29-.35-2.72,.96-3.39,2.64-1.36,4.73-3.36,6.68-5.54,.63-.7,1.42-1.25,2.13-1.87,.05,.83-.54,1.42-.81,2.12-.98,2.48-1.18,5.03-.64,7.62,.09,.43,.14,.96,.66,1.18,.33,.15,.55,.39,.69,.72,.5,1.14,1.22,2.14,2.09,3.04,.23,.24,.49,.5,.35,.89-.3,.27-.62,.49-1.03,.55-.45-1.02-1.43-.74-2.21-.88-1.52-.27-3.05-.4-4.57,.05Z"/>
    <path class="cls-129" d="M66,72.86c.36,.18,.71,.35,1.07,.53,.29,.55,.65,1.07,.13,1.7-.2,.24,.05,.47,.12,.69-.05,.35-.3,.44-.6,.46-1.14-.02-2.23-.21-3.1-1.04,.83-.92,.3-1.85,.03-2.78,.81,0,1.51,.61,2.35,.44Z"/>
    <path class="cls-112" d="M63.62,75.2c1.01,.41,2.14,.47,3.1,1.04,.02,.25-.05,.46-.24,.62-.54,.35-1.08,.15-1.62,.02-1.3-.31-2.6-.58-3.95-.5-1.12-.12-2.21,.12-3.32,.19-.13,.05-.27,.05-.4,0-.82,.1-1.57,.41-2.31,.76-.6,.03-.33-.55-.55-.78,.28-.72,1.04-.53,1.56-.8h-.01c.77-.26,1.59-.31,2.37-.51,.68-.03,1.36-.06,2.05-.09,1.11,.02,2.22,.04,3.32,.06Z"/>
    <path class="cls-81" d="M50.97,77.89c-.28-.83,.13-1.58,.27-2.35,.26-.27,.53-.53,.79-.8,.41-.19,.81-.39,1.22-.58,.39,.66,.29,1.4,.3,2.12-.6,.95-1.52,1.39-2.58,1.62Z"/>
    <path class="cls-25" d="M50.97,77.89c.86-.54,1.72-1.08,2.58-1.62,.81-.04,1.46-.78,2.34-.53-.52,.27-1.04,.53-1.56,.8-1.83,.57-3.05,2.02-4.53,3.1,.25-.68,.7-1.22,1.16-1.74Z"/>
    <path class="cls-25" d="M58.25,75.23c-.75,.36-1.54,.56-2.37,.52,.51-.49,1.18-.49,1.82-.58,.18,.02,.37,.04,.55,.06Z"/>
    <path class="cls-92" d="M49.66,68.52c-.08,.07-.16,.15-.24,.22-.83-.04-1.51-.3-1.1-1.3,.2-.5,.76-.7,1.31-.39,.81,.45,.37,.97,.04,1.47Z"/>
    <path class="cls-126" d="M51.92,65.67c-.06,.22-.19,.39-.42,.37-.35-.02-.52-.27-.49-.59,.02-.24,.22-.34,.46-.29,.27,.06,.44,.21,.45,.51Z"/>
    <path class="cls-85" d="M91.12,66.89c-.08,.1-.16,.2-.24,.3-.56,.18-.92,.75-1.55,.8,.44-.62,.93-1.16,1.79-1.1Z"/>
    <path class="cls-40" d="M102.3,80.16c.06,.06,.12,.13,.19,.16,.62,.25,1.52-.07,1.82,.8,.12,.35-1.9,1.89-2.44,1.85-1.15-.09-1.09-.98-1.12-1.8,.52-.34,.74-1.12,1.55-1.02Z"/>
    <path class="cls-115" d="M102.3,80.16c-.63,.16-.7,1.19-1.55,1.02,0-1.67,.44-2.31,1.78-2.7,.34-.1,.73-.29,.94,.06,.27,.43-.13,.71-.43,.95-.27,.21-.62,.32-.75,.68Z"/>
    <path class="cls-19" d="M78.98,74.97c-1.3-1.37-2.45-2.85-3.13-4.65,1.01-.26,.15-.9,.27-1.34,.09,0,.23,0,.25-.03,.65-1.37,2.28-1.89,2.85-3.33q.03,2.34,2.23,1.56c1.16-.41,2.2-1.14,3.45-1.3,.44,.5,.35,1.02,.06,1.55h-.06c-.97,1.15-2.17,2.03-3.33,2.97-.66,.54-1.04,1.17-.71,2,.25,.62-.06,1.06-.31,1.54-.44,.46-.99,.77-1.57,1.02Z"/>
    <path class="cls-22" d="M80.55,73.95c.01-.61,.24-1.19-.09-1.84-.19-.37-.15-1.04,.33-1.41,1.38-1.07,2.57-2.39,4.11-3.26,.05,.45-.35,.68-.51,1.04-.31,.79-.97,1.29-1.53,1.87-.48,.5-.91,1.01-.78,1.77,.1,.21,.2,.43,.3,.64-.61,.4-1.22,.8-1.83,1.2Z"/>
    <path class="cls-8" d="M60.79,76.03c1.98-.26,3.8,.54,5.69,.83-.13,.68-.83,1.01-1.02,1.65-.84,.72-1.67,1.47-2.82,1.68-.18-.03-.35-.05-.53-.08-1.09-1.95-2.61-3.3-4.92-3.55,.08-.01,.17-.03,.25-.04,1.11-.24,2.23-.35,3.35-.49Z"/>
    <path class="cls-138" d="M67.33,75.78c-.31-.08-.91-.23-.58-.52,.69-.61,.29-1.24,.32-1.86,.52,.28,1.02,.59,1.55,.82,.48,.21,.28,.52,.22,.83-.5,.25-1.01,.5-1.51,.74Z"/>
    <path class="cls-65" d="M84.42,69.03c.26,.03,.64-.9,.78,.1,.06,.44,.35,.63,.77,.66-.86,.63-1.72,1.27-2.59,1.9-.32,.24-.67,.41-1.07,.16-.26-.3-.25-.66,0-.92,.65-.68,1.17-1.53,2.11-1.9Z"/>
    <path class="cls-75" d="M84.42,69.03c-.6,1.02-1.97,1.45-2.11,2.82-.08,.09-.16,.18-.24,.27-.49-.59-.31-1.11,.17-1.58,.7-.69,1.42-1.37,2.14-2.06,.01,.18,.02,.37,.04,.55Z"/>
    <path class="cls-6" d="M85.52,58.27c.49,.11,.58,.53,.65,.87,.1,.53-.25,.78-.75,.79-.4,0-.68-.22-.68-.61,0-.53,.39-.81,.79-1.06Z"/>
    <path class="cls-124" d="M81.01,63.55c.17-.31,.39-.57,.8-.45,.19,.06,.26,.22,.22,.4-.12,.55-.54,.57-.99,.55-.01-.17-.02-.33-.03-.5Z"/>
    <path class="cls-71" d="M83.35,61.37c-.04,.3-.19,.55-.52,.63-.25,.05-.46-.07-.43-.32,.04-.32,.31-.51,.61-.6,.18-.05,.32,.06,.34,.29Z"/>
    <path class="cls-75" d="M84.95,67.44c-.02-.52-.04-1.03-.06-1.55-.82-1.68-.52-3.22,.54-4.68,0,.04,.01,.09,0,.13-.41,1.65-1.04,3.29-.03,4.98,.16,.27,.27,.98-.45,1.12Z"/>
    <path class="cls-103" d="M81.96,65.88c-.31,.02-.6,0-.62-.34-.03-.55,.42-.7,.82-.84,.36-.12,.61,.09,.63,.43,.04,.59-.5,.59-.83,.75Z"/>
    <path class="cls-102" d="M60.79,76.03c-1.1,.28-2.2,.58-3.35,.49,1.08-.43,2.19-.62,3.35-.49Z"/>
  </g>
</svg>