<?xml version="1.0" encoding="UTF-8"?>
<svg xmlns="http://www.w3.org/2000/svg" xmlns:xlink="http://www.w3.org/1999/xlink" viewBox="0 0 150 150">
  <defs>
    <style>
      .cls-1 {
        fill: url(#linear-gradient);
        stroke: #c3fcd2;
        stroke-width: 3px;
      }

      .cls-1, .cls-2 {
        stroke-miterlimit: 10;
      }

      .cls-2 {
        fill: none;
        stroke: #52ff87;
        stroke-width: 2.1px;
      }
    </style>
    <linearGradient id="linear-gradient" x1="134.52" y1="109.96" x2="16.57" y2="40.26" gradientUnits="userSpaceOnUse">
      <stop offset="0" stop-color="#b6ff93"/>
      <stop offset=".19" stop-color="#56ed86"/>
      <stop offset="1" stop-color="#006833"/>
    </linearGradient>
  </defs>
  <g id="Layer_2" data-name="Layer 2">
    <polygon class="cls-1" points="137.97 111.14 137.97 38.87 75.38 2.73 12.78 38.87 12.78 111.14 75.38 147.28 137.97 111.14"/>
    <path class="cls-2" d="M72.28,113c-3.66-.37-8.57-.78-13.45-1.42-1.55-.2-3.07-.86-4.51-1.52-1.54-.71-1.86-1.66-1.68-3.32,.17-1.5,.28-3.02,.3-4.53,.47-12.64,.17-25.25-.91-37.85-.21-3.1-.6-6.18-.93-9.27-.04-.33-.14-.71-.34-.96-1.5-1.89-1.19-4.31,.81-5.83,1.73-1.11,3.77-2.28,4.85-4.07,4.6-8.89,20.44-7.06,27.98-3.27,2.6,1.22,5.15,2.58,7.81,3.64,4.84,1.93,5.85,5.89,5.5,10.08-.1,1.17,.3,1.45,1.25,1.54,1.89,.19,3.81,.26,5.67,.6,5.84,.88,9.01,4.71,10.22,10.35,2.23,8.48,.29,17.22-1.58,25.56-1.8,7.87-10.68,9.68-17.69,9.34-1.55-.02-1.72,.21-1.65,1.77-.04,3.34,.6,5.59-3.23,6.72-6.48,1.89-11.03,2.03-18.42,2.43Zm21.16-26.93c.05,0,.11,0,.16,0,0,1.75,0,3.5,0,5.25,0,1.48,.16,1.66,1.58,1.61,2.72-.3,7,.56,7.89-2.88,1.38-5.3,1.94-10.75,2.11-16.21-.06-3.29,.57-8.58-4.14-8.43-1.59-.03-3.18-.01-4.76,0-1.69,0-1.88,.14-1.96,1.83-.32,6.28-.6,12.55-.9,18.83Z"/>
  </g>
  <g id="Layer_1" data-name="Layer 1">
    <image width="520" height="520" transform="translate(20 16) scale(.23)" xlink:href="../Emoji_PNG/bar.png"/>
  </g>
</svg>