<?xml version="1.0" encoding="UTF-8"?>
<svg xmlns="http://www.w3.org/2000/svg" xmlns:xlink="http://www.w3.org/1999/xlink" viewBox="0 0 150 150">
  <defs>
    <style>
      .cls-1 {
        fill: #aeb0af;
      }

      .cls-2 {
        fill: #7c7c7a;
      }

      .cls-3 {
        fill: #bda16c;
      }

      .cls-4 {
        fill: #cfca9d;
      }

      .cls-5 {
        fill: #c99650;
      }

      .cls-6 {
        fill: #308919;
      }

      .cls-7 {
        fill: #48923c;
      }

      .cls-8 {
        fill: #dbd9b3;
      }

      .cls-9 {
        fill: #276b18;
      }

      .cls-10 {
        fill: #3e9a2f;
      }

      .cls-11 {
        fill: #a1a3a2;
      }

      .cls-12 {
        fill: #8f9092;
      }

      .cls-13 {
        fill: #c5c7c6;
      }

      .cls-14 {
        fill: #6bb945;
      }

      .cls-15 {
        fill: url(#linear-gradient);
        stroke: #c3fcd2;
        stroke-width: 3px;
      }

      .cls-15, .cls-16 {
        stroke-miterlimit: 10;
      }

      .cls-16 {
        fill: none;
        stroke: #52ff87;
        stroke-width: 2.04px;
      }

      .cls-17 {
        fill: #a8a475;
      }

      .cls-18 {
        fill: #e4d5a9;
      }

      .cls-19 {
        fill: #bcbfbe;
      }

      .cls-20 {
        fill: #8a8b89;
      }

      .cls-21 {
        fill: #efecd4;
      }

      .cls-22 {
        fill: #1f5313;
      }

      .cls-23 {
        fill: #dcdacb;
      }

      .cls-24 {
        fill: #cbb26f;
      }

      .cls-25 {
        fill: #bfc1c0;
      }

      .cls-26 {
        fill: #487d40;
      }

      .cls-27 {
        fill: #eddca6;
      }

      .cls-28 {
        fill: #c9c7b6;
      }

      .cls-29 {
        fill: #27850d;
      }

      .cls-30 {
        fill: #8aa393;
      }

      .cls-31 {
        fill: #898a89;
      }

      .cls-32 {
        fill: #e8e8e7;
      }

      .cls-33 {
        fill: #dcd8bc;
      }

      .cls-34 {
        fill: #c1bfad;
      }

      .cls-35 {
        fill: #727271;
      }

      .cls-36 {
        fill: #e1cb99;
      }

      .cls-37 {
        fill: #165a0b;
      }

      .cls-38 {
        fill: #26751b;
      }

      .cls-39 {
        fill: #837245;
      }

      .cls-40 {
        fill: #bc7e43;
      }

      .cls-41 {
        fill: #e2a760;
      }

      .cls-42 {
        fill: #ad7a3a;
      }

      .cls-43 {
        fill: #7e7f81;
      }

      .cls-44 {
        fill: #43ae2c;
      }

      .cls-45 {
        fill: #69876e;
      }

      .cls-46 {
        fill: #f9eec5;
      }

      .cls-47 {
        fill: #bec0c0;
      }

      .cls-48 {
        fill: #7d7d7d;
      }

      .cls-49 {
        fill: #989a99;
      }

      .cls-50 {
        fill: #dad4ad;
      }

      .cls-51 {
        fill: #f37a28;
      }

      .cls-52 {
        fill: #ced0cf;
      }

      .cls-53 {
        fill: #1f6d14;
      }

      .cls-54 {
        fill: #aeb0b1;
      }

      .cls-55 {
        fill: #359126;
      }

      .cls-56 {
        fill: #dddedc;
      }

      .cls-57 {
        fill: #979898;
      }

      .cls-58 {
        fill: #96c06f;
      }

      .cls-59 {
        fill: #d5d5d5;
      }

      .cls-60 {
        fill: #aaacab;
      }

      .cls-61 {
        fill: #8a8b8c;
      }

      .cls-62 {
        fill: #3b2c12;
      }

      .cls-63 {
        fill: #cdcfce;
      }

      .cls-64 {
        fill: #a3a4a5;
      }

      .cls-65 {
        fill: #56b540;
      }

      .cls-66 {
        fill: #d0c287;
      }

      .cls-67 {
        fill: #e66016;
      }

      .cls-68 {
        fill: #a6a58c;
      }

      .cls-69 {
        fill: #df9b4c;
      }

      .cls-70 {
        fill: #f5a542;
      }

      .cls-71 {
        fill: #c38c43;
      }

      .cls-72 {
        fill: #194f09;
      }

      .cls-73 {
        fill: #c1833c;
      }

      .cls-74 {
        fill: #afae9a;
      }

      .cls-75 {
        fill: #246912;
      }

      .cls-76 {
        fill: #cdbc74;
      }

      .cls-77 {
        fill: #bcb989;
      }

      .cls-78 {
        fill: #2a6d18;
      }

      .cls-79 {
        fill: #d4d5d4;
      }

      .cls-80 {
        fill: #2c9117;
      }

      .cls-81 {
        fill: #78764f;
      }

      .cls-82 {
        fill: #e9ddb8;
      }

      .cls-83 {
        fill: #965926;
      }
    </style>
    <linearGradient id="linear-gradient" x1="132.33" y1="42.28" x2="15.23" y2="107.84" gradientUnits="userSpaceOnUse">
      <stop offset="0" stop-color="#b6ff93"/>
      <stop offset=".19" stop-color="#56ed86"/>
      <stop offset="1" stop-color="#006833"/>
    </linearGradient>
  </defs>
  <g id="Layer_2" data-name="Layer 2">
    <polygon class="cls-15" points="136.47 111.14 136.47 38.87 73.88 2.73 11.28 38.87 11.28 111.14 73.88 147.28 136.47 111.14"/>
    <path class="cls-16" d="M75.81,50.69c-13.73,.31-27.47,1.63-37.62,11.01-10.52,3.53-10.15,15.58,.03,19.19,.79,.26,1.17,.7,1.21,1.54,4.37,29.73,68.02,29.46,71.06-.81,.07-1.14,.26-1.72,1.53-2.01,7.83-1.21,10.04-15.56,1.16-17.69-10.51-8.01-24.52-11.67-37.37-11.25Z"/>
  </g>
  <g id="Layer_1" data-name="Layer 1">
    <g>
      <path class="cls-56" d="M87.35,51.57c3.05,.37,6.04,1.04,8.98,1.89,4.07,1.17,8.14,2.49,11.51,5.15,2.26,1.79,4.64,3.21,7.28,4.34,2.23,.95,3.78,3.05,3.58,5.37-.24,2.7,.32,5.73-1.77,8.07-.15,.16-.32,.3-.48,.45-.64,.1-.7-.45-.84-.82-.3-.8-.77-1-1.55-.64-.56,.26-1.16,.43-1.75,.62-.47,.11-.95,.15-1.41,.3-1,.21-2.04-.06-3.03,.24-.7,.15-1.42,.07-2.11,.27-2.65,.77-5.2,1.81-7.83,2.66-.64,.22-1.31,.35-1.95,.56-.97,.31-1.97,.51-2.94,.79-.89,.16-1.77,.31-2.65,.54-.14,.05-.29,.08-.44,.1-2.96,.33-5.89,.96-8.89,.85-3.35,0-6.7,0-10.05,0-.49,0-.98-.02-1.46,.12-.32,.07-.64,.06-.95-.04-.88-.57-1.86-.33-2.81-.34-.76,0-1.52,.04-2.27-.11-1.6-.29-3.22-.51-4.82-.84-.29-.1-.54-.24-.71-.5,.11-.97,.83-.74,1.42-.68,2.07,.22,4.12,.79,6.23,.57,.18-.02,.36,0,.53-.02,.65-.09,1.47,0,1.8-.65,.31-.62-.52-.94-.73-1.45-.27-.64-1.07-1.18-.43-2.02,.84-.26,1.68-.28,2.52,.03,.3,.17,.45,.56,.88,.55,2.45-.06,4.91,.29,7.33-.3,.22-.05,.4-.2,.6-.29,.29-.12,.61-.16,.92-.19,.85-.03,1.71-.01,2.56-.02,.97,.17,1.89-.25,2.84-.24,.54,.03,1.05-.16,1.57-.22,.33,.02,.67-.07,.74-.05-.28-.06-.79-.29-1.3-.54-.11-.07-.21-.15-.3-.25-.2-.33-.5-.69-.12-1.05,.29-.28,.67-.12,.99,.01,.54,.23,1.11,.23,1.68,.22,.36,0,.72,0,1.08-.01,3.13,.07,6.18-.38,9.17-1.27,1.54-.64,3.08-1.3,4.47-2.25,.15-.12,.3-.23,.45-.34,.59-.43,1.31-.69,1.76-1.3,.15-.2,.3-.41,.46-.6,.43-.52,.82-1.08,1.09-1.69,.81-1.84,.69-3.59-.69-5.13-1.32-1.48-2.8-2.76-4.63-3.61-2.4-1.12-4.82-2.18-7.41-2.77-.14-.02-.28-.06-.42-.1-3.62-.76-7.23-1.55-10.94-1.74-.22-.01-.44-.09-.64-.19-.76-.88-1.89-.53-2.82-.82-.47-.15-1.1,.04-1.27-.66,.52-.49,1.16-.34,1.78-.34,2.32-.02,4.58,.7,6.9,.61,.45-.02,.9,.02,1.3-.24Z"/>
      <path class="cls-63" d="M51.05,98.36c-2.26-.98-4.07-2.58-5.71-4.33-1.76-1.88-3.33-3.92-4.38-6.34-.76-1.74-1.35-3.5-1.44-5.38-.04-.87-.32-1.26-1.15-1.5-4.36-1.26-8.31-5.8-7.75-11.35,.23-2.32,1.26-4.37,3.4-5.27,2.83-1.2,5.08-3.09,7.38-5,2.21-1.84,4.79-2.99,7.49-3.91,.49,.19,.76,.5,.46,1.02-.53,.92-1.01,1.81-2.05,2.38-2.04,1.11-3.71,2.64-4.32,5.03-.57,2.25,.68,5.13,2.74,6.31,.37,.12,.75,.24,1.05,.51,.08,.1,.15,.21,.21,.32,.93,1.18,2.33,1.62,3.6,2.24,.4,.19,.9,.21,1.16,.61,.38,.59,.91,.6,1.53,.57,1.4-.07,1.71,.28,1.64,1.71,.49,.08,.79-.38,1.23-.44,.48-.07,.92-.01,1.15,.46,.24,.49-.13,.73-.47,.97-.15,.1-.01-.07-.11,.07-1.77,2.67-4.26,1.1-6.46,1.05-.9-.02-1.78-.18-2.64,.19-2.62-.42-5.29-.28-7.89-.89-1.27-.34-2.59-.5-3.87-.96,1.62,2.26,3.64,3.82,6.49,4.07,.58,.05,1.16-.01,1.73,.14,.93,.32,1.9,.55,2.72,1.13,.57,.4,1.06,.93,.92,1.67-.16,.85-.95,.67-1.54,.71-2.36,.18-3.12,1.35-2.38,3.79,.76,2.5,2.18,4.6,3.96,6.47,.93,.97,1.89,1.91,2.8,2.9,.27,.29,.63,.53,.5,1.02Z"/>
      <path class="cls-54" d="M44.05,80.88c-3.25,.33-5.8-1.04-7.98-3.29-.28-.28-.5-.62-.72-.96-.14-.22-.26-.5,0-.73,.19-.17,.44-.11,.62,.01,1.07,.7,2.38,.67,3.51,1.18-.49,.32-.43,.65-.1,1.09,1.01,1.35,3.42,1.74,5.43,.83,.92-.41,1.78-1.09,2.9-.72,2.63,.03,4.58,1.24,6.03,3.39,.78,1.15,.75,2.28-.21,3.29-1.06,1.11-2.26,2-3.66,2.66-2.33,1.11-2.6,1.96-1.43,4.23,2.02,3.92,5.35,6.37,9.23,8.2,3.2,2.01,6.81,2.49,10.46,2.86,.15,.02,.3,.06,.44,.11,1.76,.4,3.54,.34,5.32,.36,.52,0,1.22-.21,1.37,.64-6.58,.15-12.98-.78-19.11-3.26-4.42-1.99-7.83-5.09-10.21-9.32-.4-.71-.67-1.47-.81-2.27-.3-1.72,.34-2.85,1.97-3.46,.63-.24,1.25-.5,1.84-.8,1.29-.67,1.58-1.97,.7-3.14-.93-1.24-2.39-1.68-3.96-1.19-.54,.17-1.05,.51-1.65,.28Z"/>
      <path class="cls-11" d="M75.27,104.04c-.48-.51-1.09-.26-1.64-.28-1.8-.06-3.63,.16-5.36-.55,1.02-.68,2.13-.38,3.2-.25,1.58,.19,3.16,.22,4.74,0,.53-.12,1.06-.13,1.6-.12,4.66,0,9.12-1.13,13.47-2.66,2.02-.71,4.11-1.3,5.91-2.53,.29-.2,.62-.36,.9-.58,.31-.24,.79-.45,.68-.9-.12-.5-.65-.38-1.03-.38-1.05,0-2.05-.22-3.02-.57-1.63-.59-2.04-1.49-1.48-3.15,.48-1.44,1.21-2.66,2.51-3.55,1.22-.83,2.23-1.94,3.34-2.91,.55-.48,1.03-1.16,1.92-1.08,.5,.41,.16,.81-.05,1.18-.45,.78-.97,1.51-1.62,2.12-1.12,1.06-1.42,2.44-1.57,3.88-.09,.83,.41,1.24,1.1,1.46,1.15,.36,2.27,.77,3.31,1.41,1,.61,1.35-.51,1.95-.93q.88-.77,1.3-.37c-3.03,3.63-7.11,5.69-11.38,7.36-6.02,2.36-12.31,3.44-18.78,3.4Z"/>
      <path class="cls-59" d="M45.68,70.37c-1.81-.73-2.57-2.32-2.94-4.02-.72-3.3,.9-6.29,4.39-7.95,1.18-.56,1.3-1.72,2.09-2.45,.05-.05-.22-.44-.34-.68,1.85-1.04,3.9-1.44,5.91-1.99,4.56-1.23,9.2-1.88,13.9-2.31,5.94-.54,11.83-.14,17.72,.56,.31,.04,.62,.03,.94,.04-.87,.78-1.95,.82-2.96,.6-2.31-.51-4.63-.65-6.98-.63-1.24,.61-2.6,.6-3.91,.61-3.17,.03-6.31,.37-9.45,.75-.18,.02,.02-.07-.13,.01-.17,.1,.03,.18,.08,.27-.15,.66-.74,.55-1.18,.66-3.6,.86-7.24,1.61-10.67,3.07-2.11,.86-4.22,1.71-6.01,3.18-3.29,2.69-3.65,5.49-1.13,8.96,.24,.43,.81,.7,.67,1.33Z"/>
      <path class="cls-47" d="M44.05,80.88c1.1-.32,2.08-1,3.33-.84,1.14,.15,2.69,1.22,3.04,2.32,.41,1.29-.1,2.35-1.39,2.9-.58,.24-1.13,.54-1.72,.75-1.67,.6-2.24,1.77-1.76,3.55,.56,2.04,1.92,3.59,3.13,5.25,1.95,2.67,4.94,4.04,7.47,5.97-1.9-.39-3.55-1.3-5.11-2.41-2.08-2.37-4.62-4.34-6.2-7.14-.81-1.44-1.59-2.9-1.61-4.61-.02-2.04,.67-2.7,2.71-2.79,.52-.02,1.34,.39,1.49-.39,.13-.68-.43-1.23-1.09-1.53-.76-.35-1.54-.68-2.3-1.02Z"/>
      <path class="cls-20" d="M107.73,76.25c1.08-.43,2.21-.15,3.31-.23,.82-.14,1.26,.39,1.56,.99,.31,.63,.76,1.08,1.34,1.43-.37,1-1.4,.71-2.1,1.07-1.38,.32-2.77,.51-4.19,.4-2.49-.44-4.23,.98-5.7,2.61-1.41,1.56-2.78,3.14-4.47,4.42-.79,.6-1.56,1.21-2.56,1.42-.2,.01-.4-.03-.56-.15-.09-.77,.57-.98,1.03-1.22,2.41-1.26,3.51-3.62,4.87-5.75,.46-.71,.26-1.15-.6-1.32-.64-.12-1.36-.11-1.84-.68,2.57-1.03,5.17-1.97,7.84-2.69-.13,1.1-1.45,1.04-1.85,1.88,.27,.29,.6,.16,.87,.07,1.64-.55,3.34-.4,5.03-.43,.22,0,.45,.03,.67,0,.36-.04,.76-.08,.79-.55,.03-.42-.29-.63-.64-.75-.56-.19-1.15-.09-1.72-.14-.39-.03-.82,0-1.08-.38Z"/>
      <path class="cls-52" d="M107.29,79.53c1.52,0,3.04-.01,4.56-.02-.99,.25-1.33,.77-1.42,1.89-.27,3.45-1.13,6.76-3.14,9.68-.15,.22-.29,.45-.57,.54-1-.34-1.13-1.07-.8-1.94,.59-1.55,1.07-3.13,1.62-4.69,.39-1.09,.49-2.17,.45-3.3-.01-.3,.08-.69-.28-.83-.35-.13-.55,.22-.78,.42-.27,.23-.51,.51-.77,.75-.41,.32-.83,.65-1.32,.85-.61,.06-.67-.27-.52-.74,.7-1.19,1.73-2.01,2.96-2.61Z"/>
      <path class="cls-19" d="M104.86,82.75c.2-.48,.69-.58,1.08-.8,1.03-.48,1.41,.21,1.6,.99,.2,.79,.08,1.59-.21,2.37-.58,1.6-1.19,3.19-2.18,4.6-.15,.22-.27,.47-.36,.72-.38,1.02-.17,1.37,.91,1.5,.22,.03,.59-.17,.51,.33-.17,.36-.45,.62-.79,.82-.59-.31-.66,.49-1.1,.52-2.08-.53-2.63-1.73-1.66-3.53,.79-1.46,1.79-2.8,2.49-4.3,.66-1.42,.42-1.74-1.13-1.64-.74,.05-1.54,.13-1.32-1.05,.2-.38,.52-.59,.96-.61,.39,.11,.75,.53,1.19,.1Z"/>
      <path class="cls-25" d="M106.22,92.46c-.67,.13-1.3,.24-1.85-.37-.6-.67-.1-1.21,.19-1.7,.99-1.7,1.88-3.43,2.52-5.29,.26-.76,.26-1.51,.16-2.25-.09-.66-.63-.94-1.3-.9,.59-.7,1.17-1.89,2.07-1.6,.79,.25,.34,1.52,.34,2.32,0,2.04-.98,3.83-1.58,5.72-.34,1.07-1.25,2.14-.02,3.23-.17,.28-.34,.56-.52,.84Z"/>
      <path class="cls-13" d="M112.39,75.75s.05-.08,.09-.09c.86-.31,1.73-.89,2.57-.85,1.01,.05,.64,1.53,1.4,2.04-.44,.56-.85,1.16-1.58,1.38-.55-.03-1.1-.16-1.18-.79-.11-.85-.77-1.2-1.3-1.69Z"/>
      <path class="cls-60" d="M112.39,75.75c.89,.05,1.52,.43,1.49,1.4-.02,.74,.72,.66,.99,1.07-.25,.3-.57,.3-.92,.22-.71,.08-1.2,0-1.41-.89-.16-.7-.72-1.29-1.49-1.53,.38-.4,.89-.18,1.34-.28Z"/>
      <path class="cls-2" d="M68.54,82.18c.28-.02,.56-.04,.84-.05,.64-.07,1.28-.02,1.93-.03,.14,.02,.27,.07,.39,.14,1.29,.73,2.73,.81,4.14,1,.77,.11,1.86,0,2.07,.89,.21,.89-.87,1.17-1.47,1.5-2.15,1.19-4.17,2.62-6.6,3.26-2.21,.58-4.04,1.91-5.89,3.17-1.02,.69-1.01,1.96-.19,2.9,1.28,1.47,2.7,2.8,4.48,3.59,1.86,.83,3.74,1.76,5.89,1.63,1.3-.08,2.57,.31,3.88,.28,1.27-.02,2.5-.12,3.78-.63-1.03-.44-2.03-.7-3.05-.94-.64-.16-1.16-.49-1.3-1.21-.14-.72,0-1.43,.64-1.78,1.36-.75,2.39-1.88,3.51-2.9,2.13-1.95,4.82-2.88,7.31-4.17,.76-.39,1.53-.77,2.19-1.31,.87-.73,.88-1.37,.05-2.13-.53-.49-1.19-.8-1.74-1.26-.79-.65-1.23-1.42-.78-2.47,.43-.63,1.21-.15,1.72-.54h-.01c.58-.24,1.24-.24,1.82-.28,1-.07,1.94,.43,2.34,1.47,.33,.87,.55,1.81,.68,2.73,.17,1.23-.86,1.89-1.57,2.67-1.56,1.18-3.28,2.08-5.05,2.89-3.09,.75-4.61,3.3-6.37,5.57-.53,.69-.1,1.2,.57,1.44,.92,.34,1.83,.71,2.77,.97,.51,.14,1.14,.25,1.16,.92,.02,.62-.51,.89-1.03,1.09-.42,.16-.84,.3-1.25,.49-1.03,.42-2.16,.42-3.22,.72-4.78,.22-9.6,.7-14.23-.92-3.05-1.07-5.71-2.74-7.06-5.96-.73-1.75-.36-3.28,1.3-4.24,2.83-1.64,5.9-2.83,8.62-4.66,.53-.35,1.43-.54,1.28-1.35-.13-.7-.94-.88-1.57-1.11-.55-.2-1.14-.27-1.67-.52-.47-.22-1.05-.38-.97-1.1,.59-.13,1.13,0,1.65,.26Z"/>
      <path class="cls-61" d="M77.95,103.21c-.54,0-1.07,0-1.61,0-2.01,.4-4-.07-5.99-.15-4.47-.18-8.58-1.57-12.37-3.93-1.73-1.08-3.19-2.46-4.52-3.98-.51-.58-.84-1.27-1.07-2-.42-1.34-.17-2.2,.95-3.07,.85-.66,1.81-1.17,2.78-1.63,1.05-.5,2.09-1.04,3.05-1.7,2.28-1.57,2.24-3.25-.09-4.68-.34-.21-.76-.35-.94-.73-.24-.48-.08-.69,.46-.46,1.64,.09,3.25,.41,4.84,.81-.03,.03-.07,.08-.1,.08-.13,0-.14,.07-.02,.1,.96,.25,1.86,.64,2.68,1.21,1.42,.98,1.5,1.82,.35,3.06-.9,.96-1.98,1.67-3.15,2.26-1.64,.83-3.32,1.57-4.89,2.52-1.64,.99-1.92,2.01-.97,3.68,.94,1.67,2.23,3.01,3.88,4,3.45,2.06,7.15,3.15,11.19,3.32,1.92,.08,3.83-.1,5.75,.12,.73,.07,1.51-.16,2.19,.29,.19,.67-.28,.69-.73,.75-.55,.07-1.13-.14-1.66,.14Z"/>
      <path class="cls-43" d="M77.95,102.4c-2.25-.09-4.51-.12-6.76-.28-4.87-.34-9.26-1.88-12.76-5.42-.65-.66-1.2-1.46-1.63-2.28-.83-1.56-.41-2.7,1.11-3.68,1.67-1.07,3.49-1.84,5.24-2.72,1.22-.62,2.25-1.44,3.21-2.39,.81-.8,.57-1.44-.17-2.01-1.06-.82-2.33-1.27-3.58-1.79,.22-.29,.55-.08,.81-.16,.79,0,1.58,.02,2.37,.02,.33,.26,.8-.05,1.12,.27,.25,.49,.73,.64,1.2,.78,.51,.16,1.03,.27,1.54,.44,.9,.29,2.02,.69,2.14,1.6,.1,.73-1.06,1.07-1.72,1.5-2.62,1.71-5.49,2.96-8.25,4.41-2.21,1.16-2.49,2.49-1.26,4.66,2.3,4.06,6.04,5.43,10.35,6,3.42,.45,6.85,.1,10.27,.24,0,.07,.01,.14,.02,.21-.97,.82-2.2,.19-3.25,.59Z"/>
      <path class="cls-79" d="M47.83,78.16c.46-.96,1.33-.52,1.98-.46,1.54,.13,3.06,.42,4.59,.68,.55,.09,.94-.14,1.08-.56,.2-.63,.55-.97,1.18-1.12,.23-.06,.56-.2,.44-.55-.12-.35-.45-.4-.78-.38-.45,.03-.66,.44-1,.63-.37,.21-.83,.31-1.12,0-.28-.3,.16-.52,.32-.76,.6-.9-.3-1.15-.71-1.1-1.08,.14-1.79,.12-2.68-.83-.62-.65-1.96-.86-2.89-1.43-.57-.34-1.48-.42-1.51-1.38,.28-.15,.53-.03,.75,.12,2.7,1.76,5.77,2.58,8.83,3.42,2.71,.68,5.48,1.02,8.22,1.58,.68,.33,1.55-.08,2.15,.57,.48,.79,.77,1.67,1.5,2.34,.86,.79,.68,1.32-.44,1.62-1.68,.45-3.39,.52-5.12,.19-1.31-.25-2.63-.41-3.95-.6-.31-.04-.48,.18-.62,.42-.63,.61-1.32,.25-1.98,.12-.47-.09-.93-.26-1.4-.35-.66-.22-1.31-.46-2-.58-1.52-.62-3.1-1.07-4.69-1.46-.05-.05-.1-.1-.15-.15Z"/>
      <path class="cls-68" d="M93.55,54.79c4.49,1.2,8.79,2.72,12.09,6.25,2.06,2.21,1.78,5.53-.47,7.46-.08,.05-.19,.11-.24,.07-1.47-1.26-3.04-2.44-3.82-4.31,0-.49,.07-.98-.03-1.47-.32-1.62-1.16-2.2-2.77-1.85-.83,.18-1.64,.4-2.5,.39-1.05-.01-1.58-.46-1.53-1.54,.03-.58-.03-1.16,.06-1.73,.44-1.04-.49-1.7-.74-2.55-.08-.24-.19-.47-.05-.72Z"/>
      <path class="cls-57" d="M54.54,80.01c1.19,.03,2.28,.74,3.51,.56,.18,.1,.36,.2,.54,.29-.16,.04-.46,.08-.32,.25,.22,.26,.57,.41,.88,.57,1.07,.56,2.1,1.23,2.09,2.55,0,1.36-.95,2.26-2.06,2.9-1.62,.95-3.28,1.82-4.92,2.73-2.33,1.29-2.2,2.46-.89,4.48,1.45,2.24,3.59,3.82,5.89,5.15,2.61,1.52,5.48,2.54,8.39,3,2.85,.44,5.76,.83,8.69,.7-1.42,.56-2.92,.34-4.34,.2-1.25-.13-2.49-.15-3.73-.2,0,0,0,0,0,0-4.4-.5-8.58-1.69-12.3-4.17-2.48-1.66-4.7-3.59-6.09-6.31-.75-1.47-.6-2.33,.56-3.51,.76-.78,1.67-1.34,2.68-1.75,1.13-.45,2.23-.97,3.16-1.77,1.33-1.14,1.38-1.99,.22-3.31-.44-.51-.94-.96-1.45-1.4-.29-.25-.7-.47-.51-.98Z"/>
      <path class="cls-74" d="M81.44,52.85c4.04,.12,7.98,.81,11.86,1.9-1.25,.94-2.71,1.22-4.21,1.27-.66,.02-1.32-.18-1.99-.14-.53,.18-.68,.72-1,1.09-1.1,.82-2.32,1.18-3.69,1.02-.71-.19-1.38-.51-2.06-.78-.3-.15-.55-.35-.62-.71,.07-.63,.57-1.3-.16-1.86-1.31-.81-2.23,.06-3.21,.73-.45,.31-.72,1.11-1.51,.66-.39-.71-.87-1.36-1.08-2.16-.34-1.3-.2-1.53,1.11-1.59,.9-.04,1.79,0,2.69-.04,1.01-.09,2,.16,3.01,.13,.39-.01,.67,.17,.87,.49Z"/>
      <path class="cls-8" d="M87.71,74.37c-.86,.14-1.67,.01-2.42-.56-.32,.51,.11,.79,.17,1.14-.61,.35-1.01-.12-1.43-.41-2.18-1.51-3.88-3.54-5.76-5.37-.66-.64-.25-.91,.42-.99,.66-.08,1.34-.03,2.01-.05,.29,0,.58,.02,.87,.07,.87,.28,1.77,.16,2.66,.17,2.06,.52,4.14,.14,6.21,.19,.43,.23,.34,.6,.25,.97-.78,1.74-2.06,3.17-2.97,4.83Z"/>
      <path class="cls-43" d="M88.45,90.29c1.61-.9,3.23-1.79,4.84-2.69,.39-.23,.72-.54,1.05-.83,1.31-1.12,1.56-3.73,.58-5.15-.49-.71-1.43-.48-1.96-1.05,.97-.39,1.97-.63,3-.79,1.99-.3,2.63,.33,2.49,2.27-.16,2.19-.93,3.98-2.98,5.04-.76,.39-1.38,.97-2.05,1.49-1.73,1.03-3.58,1.86-5.15,3.15-.95,.79-1.74,1.68-2.16,2.86-.42,1.18-.21,1.74,.89,2.32,.92,.49,1.94,.69,2.96,.83,.54,.07,1.14,.14,1.27,.79,.12,.61-.36,.98-.79,1.3-.43,.32-.93,.55-1.44,.72-1.84,.59-3.73,.96-5.62,1.32-.72,.14-1.52,.27-2.19-.29,0,0,0,0,0,0,.98-.65,2.18-.42,3.23-.81,1.21-.27,2.31-.79,3.51-1.51-.79-.4-1.54-.48-2.24-.67-.65-.18-1.28-.39-1.84-.77-1.17-.78-1.25-1.44-.65-2.71,1.1-2.35,2.97-3.81,5.26-4.84Z"/>
      <path class="cls-69" d="M90.37,69.59c.09-.24,.19-.48,.28-.72,.26-.64,.87-.84,1.43-1.09,1.26,.34,2.53,.63,3.81,.86q-.24,.76-1.5,.61c1.49,.85,2.63,2.1,3.93,3.13,.2,.16,.37,.42,.02,.65-3.14,1.1-6.38,1.46-9.68,1.36-.45-.31-.69-.64-.28-1.2,.51-.7,.75-1.55,1.55-2.09,.35-.24,.46-.95,.44-1.51Z"/>
      <path class="cls-10" d="M86.82,55.56c2.23,.3,4.38-.11,6.48-.81,.08,.02,.17,.03,.25,.04,.07,.17,.13,.35,.2,.52-.31,.37-.82,.3-1.2,.52-.7,.41-1.52,.88-1.18,1.83,.5,1.4-.28,2.16-1.17,2.94-1.55,.88-3.09,1.77-3.52,3.72-.2,.4-.52,.58-.97,.48-.87-.83-.63-1.89-.54-2.89,.07-.76,.25-1.5-.04-2.25,.02-.54,.47-.55,.83-.67,.85-.27,.9-.71,.3-1.3-.04-.12-.01-.23,.07-.33,.91-.4,.19-1.24,.49-1.8Z"/>
      <path class="cls-83" d="M81.76,76.52c-.9,0-1.79,0-2.69,.01-.43-.26-.92,.08-1.35-.15-.23-.1,.44-.39-.22-.57-1.38-.37-2.6-1.15-3.41-2.4,.05-.68-.27-1.29-.38-1.93-.17-1.01-.06-1.93,.9-2.55,.93,.25,.14,.88,.35,1.42,.83-.77,1.66-.5,2.34,.18,1.55,1.56,3.24,2.94,4.92,4.35,.4,.33,.98,.73,.84,1.28-.16,.6-.89,.08-1.29,.36Z"/>
      <path class="cls-4" d="M98.34,73.02c-1.11-1.38-2.63-2.29-3.9-3.49-.12-.12-.27-.21-.53-.42,.78-.1,1.41-.18,2.04-.25,.42-.7,1.19-.62,1.84-.81,.13-.02,.27,0,.4,.04,.37,.92,1.14,.89,1.96,.88,1.69,0,2.13,.31,2.57,1.69-1.28,1.12-2.91,1.58-4.38,2.36Z"/>
      <path class="cls-40" d="M81.76,76.52c.29-.39,.79-.06,1.26-.45-.56-.52-1.06-1.07-1.65-1.52-1.32-.99-2.57-2.06-3.72-3.25-1.41-1.45-1.48-1.44-3.05-.34-.58-.68,.44-1.27,.12-1.94,.21-.37-.58-.51-.21-.91,.21-.17,.47-.23,.73-.29,.66-.14,1.34-.4,1.93,.18,.26,.24-.74,.21-.07,.71,2.69,2,4.72,4.74,7.49,6.66,.33,.23,.67,.56,.07,.91-.98-.05-1.91,.44-2.9,.24Z"/>
      <path class="cls-31" d="M107.73,76.25c.8,.01,1.61,.07,2.41,.03,.94-.04,1.55,.49,1.59,1.28,.04,.88-.81,.89-1.5,.88-1.95-.03-3.9-.19-5.8,.49-.39,.14-1.1,.31-1.32-.24-.28-.69,.48-.67,.85-.91,.59-.38,1.14-.83,1.71-1.24,.64-.44,1.37-.24,2.06-.29Z"/>
      <path class="cls-31" d="M93.29,88.41c1.1-.82,2.19-1.64,3.29-2.45,.89-.67,1.99-4.39,1.48-5.31-.44-.8-1.25-.92-2.1-.86,.56-.38,1.21-.46,1.86-.55,.39,.08,.78,.17,1.17,.25,2.42,.49,2.39,.72,1.08,2.86-1.47,2.4-3.31,4.34-5.7,5.79-.08,.28-.29,.41-.56,.47-.2,.01-.38-.04-.52-.2Z"/>
      <path class="cls-41" d="M84.66,76.28c.29-.39-.03-.53-.29-.71-2.09-1.48-3.88-3.31-5.69-5.1-.57-.56-1.22-1.05-1.82-1.57-.6-.53-.34-.69,.3-.68,1.08-.62,2.2-.44,3.33-.16,.17,.09,.21,.23,.13,.4h-2.67c2.63,2.29,4.51,5.03,7.52,6.51,0,0,.03,0,.03,0,.38,.27,1.19,.21,.81,1.06-.55,.08-1.09,.17-1.64,.25Z"/>
      <path class="cls-32" d="M81.44,52.85c-1.31-.43-2.67-.16-4-.25-1.55-.13-3.09-.36-4.6,.27-.45,.19-.97,.16-1.46,.16-2.02-.03-4.03,0-6.02,.36-.48,.09-.98,.17-1.4-.22h-1.05c4.74-1.48,9.66-1.23,14.5-1.61,.99,.41,2.05,.44,3.1,.52,.55,.04,1,.07,.93,.78Z"/>
      <path class="cls-48" d="M92.96,80.58c2.06,.09,2.42,.42,2.72,2.48,.39,2.61-.12,3.58-2.39,4.55,.35-.4,.72-.79,1.06-1.21,.48-.59,.76-1.22,.32-1.97-.21-.35-.27-.74-.31-1.15-.16-1.59-1.18-2.33-2.84-2.16-.4,.04-.81,0-1.21,0,.85-.33,1.73-.53,2.65-.55Z"/>
      <path class="cls-77" d="M102.72,70.67c-.77-1.53-2.16-1.48-3.54-1.35-.89,.08-1.36-.09-1.05-1.1,.62-1.13,1.24-2.27,2.68-2.56,.57,.21,.32,.58,.11,.84-.7,.84-.25,1.14,.56,1.33,.34,.08,.67,.24,.99,.4,1.47,.71,1.56,1.09,.55,2.2-.1,.08-.2,.16-.3,.24Z"/>
      <path class="cls-17" d="M103.02,70.42c.48-1.4,.46-1.44-1.36-2.19q-1.68-.69-.73-2.23s-.08-.14-.12-.21c-.05-.24,.09-.36,.29-.43,1.79,.67,2.8,2.15,3.76,3.67-.4,.74-1.21,.95-1.84,1.39Z"/>
      <path class="cls-79" d="M78.23,76.58c-.68,.85-1.7,.71-2.58,.76-1.74,.11-3.49,.03-5.24,.04-.57,0-1.12,.03-1.08-.79,.17-.23,.42-.34,.69-.35,2.44-.08,4.89-.1,7.33,.06,.28,.02,.62,.08,.88,.28Z"/>
      <path class="cls-50" d="M78.23,76.58c-2.96,0-5.93,0-8.89,.01-.89,0-1.78,0-2.67,0-.72-.14-1.49,.19-2.17-.25,.83-.73,1.84-.3,2.77-.42,2.59,.02,5.19-.01,7.84,.01-.38-.44-.9-.73-.98-1.34,.12-.47,.5-.39,.71-.21,.88,.73,1.99,1.1,2.84,1.87,.47,.09,.94,.18,1.41,.28-.28,.02-.57,.03-.85,.05Z"/>
      <path class="cls-42" d="M90.37,69.59c.41,.68-.34,1.45,.24,2.05-.47,.47-.61-.73-.95-.11-.48,.89-1.57,1.59-1,2.85-.32,0-.63,0-.95,0-.06-.93,.62-1.52,1.03-2.22,.51-.88,1.08-1.71,1.63-2.56Z"/>
      <path class="cls-79" d="M71.5,82.24c-.71-.04-1.41-.08-2.12-.11,.95-.38,1.93-.15,2.9-.16,2.99-.03,5.97,0,8.96,.01,.04,.18-.02,.31-.18,.41-.3,.16-.63,.21-.96,.2-2.27,.01-4.53,0-6.8,0-.62,0-1.25,.03-1.8-.36Z"/>
      <path class="cls-48" d="M81.13,82.19c.03-.07,.06-.15,.1-.21,3.07,.09,6.06-.64,9.1-.86-.42,.53-1.16,.14-1.61,.57-2.49,.8-4.98,1.43-7.58,.5Z"/>
      <path class="cls-81" d="M104.86,69.03c-1.22-1.2-2.12-2.74-3.75-3.49-.16-.19,.09-.46-.14-.64,0-.24,.02-.44,.33-.42,1.29,1.34,2.58,2.68,3.88,4.02-.1,.18-.21,.35-.31,.53Z"/>
      <path class="cls-79" d="M66.92,81.97c-.37-.1-.8,.02-1.12-.27,.9,.21,1.98-.56,2.74,.47-.57,.2-1.07-.21-1.62-.21Z"/>
      <path class="cls-8" d="M86.3,76.03c.08-.62-.56-.69-.81-1.06,.68-.16,1.06,.5,1.66,.6-.19,.37-.52,.43-.86,.46Z"/>
      <path class="cls-24" d="M45.68,70.37c-.29-.36-.58-.71-.87-1.07-.13-.41-.24-.82,.36-.96,.9,.15,1.34,1.38,2.45,1.02,1.29,.03,2.33,.46,2.98,1.67,.3,.55,.89,.72,1.51,.71,.24,0,.44-.13,.5-.37,.07-.27,0-.55-.2-.74-.24-.23-.37,.06-.55,.14-.78,.35-1.2,.09-1.05-.76,.12-.73,.23-1.49,.59-2.16,1.36,.2,2.47,1.1,3.84,1.34,.77,.13,1.53,.42,2.29,.68,.64,.36,1.61,.23,1.8,1.24,0,.14-.05,.27-.12,.39-1.14,.5-2.19,1.08-2.34,2.52-.03,.3-.33,.5-.69,.48-3.4-.68-6.47-2.18-9.49-3.82-.33-.1-.66-.2-.99-.3Z"/>
      <path class="cls-12" d="M47.82,78.45c-.74-.07-1.43,.08-2.05,.5-1.26,.86-2.67,.93-4.12,.85-1.28-.07-2.16-.68-2.8-1.77-.51-.87-.08-.97,.64-.93,2.76,.53,5.63,.19,8.34,1.06,0,0-.03,.05-.03,.05,.07,.05,.1,.1,.08,.16-.02,.06-.04,.08-.06,.08Z"/>
      <path class="cls-3" d="M46.67,70.68c1.13-.07,2.04,.59,2.9,1.11,2.07,1.26,4.38,1.8,6.6,2.61,.08,.11,.07,.22-.02,.32-3.33-.79-6.58-1.78-9.42-3.8-.01-.08-.03-.16-.06-.24Z"/>
      <path class="cls-11" d="M54.54,80.01c.73,.71,1.5,1.39,2.2,2.13,1.45,1.53,1.32,2.76-.39,4-.98,.71-2.07,1.24-3.19,1.7-.16,.07-.34,.1-.51,.17-3.11,1.41-3.62,3.1-1.68,5.87,2.38,3.41,5.79,5.47,9.51,7.15,2.31,1.04,4.75,1.48,7.21,1.91,.2,.04,.39,.17,.59,.26-3.79-.26-7.53-.68-10.76-2.96-2.2-1.13-4.2-2.53-6.02-4.21-1.35-1.24-2.34-2.7-3.02-4.38-.48-1.18-.11-2.33,.97-3.23,.73-.61,1.57-1.03,2.42-1.45,.97-.48,1.88-1.04,2.65-1.81,1.33-1.34,1.31-2.04,.07-3.42-.68-.76-1.65-1.22-2.19-2.12,0-.02,.04-.07,.07-.1,.06-.06,.14-.05,.23,0,.67-.02,1.3,.13,1.87,.5Z"/>
      <path class="cls-64" d="M52.67,79.52c.83,.79,1.68,1.55,2.47,2.38,1.01,1.06,1,1.98,.03,3.06-.78,.87-1.7,1.57-2.75,2.1-.87,.44-1.76,.89-2.57,1.43-1.31,.88-1.55,2.04-.94,3.48,1.05,2.48,2.94,4.19,4.97,5.84,1.15,.93,2.58,1.38,3.62,2.44-1.64-.43-2.96-1.44-4.28-2.42-2.35-1.76-4.33-3.85-5.48-6.61-.67-1.61-.32-2.76,1.27-3.52,1.5-.72,2.91-1.53,4.11-2.72,1.14-1.13,1.1-2.07,.17-3.39-1.37-1.94-3.29-2.7-5.46-3.12,0-.08,0-.16-.02-.24,1.68,.23,3.3,.68,4.87,1.31Z"/>
      <path class="cls-49" d="M77.95,103.21c.67-.7,1.88,.27,2.43-.8,.64-.41,1.38-.42,2.1-.53,.94,.05,1.85-.09,2.72-.47,1.47-.19,2.85-.69,4.26-1.11,1.95-.38,3.69-1.3,5.45-2.17,.27-.13,.6-.33,.53-.69-.09-.4-.5-.32-.78-.32-.9,0-1.77-.2-2.66-.33-2.09-.29-2.86-1.58-2.29-3.64,.61-2.22,2.26-3.44,4.14-4.47,.35-.19,.75-.3,1.08-.53,2.83-1.37,4.88-3.6,6.91-5.93,1.38-1.58,3.06-3.01,5.48-2.67-.82,.97-1.97,1.61-2.72,2.66-.27,.19-.45,.48-.79,.57-.27,.18-.54,.35-.81,.53-.64,.43-.92,1.36-1.88,1.35-1.17,.34-1.84,1.35-2.72,2.07-.86,.7-1.58,1.62-2.53,2.18-1.47,.87-1.93,2.3-2.45,3.7-.36,.97-.04,1.77,1,2.15,1.18,.42,2.37,.76,3.66,.68,.51-.03,1.18-.19,1.35,.52,.16,.64-.42,.95-.84,1.25-1.71,1.23-3.63,2.04-5.59,2.79-3.41,1.3-6.93,2.25-10.51,2.88-1.46,.26-2.99,.52-4.52,.35Z"/>
      <path class="cls-1" d="M101.1,84.64c.66-.4,1.03-1.2,1.88-1.35-.32,.97,.35,.86,.87,.74,.66-.15,1.39-.48,1.87,.11,.59,.71,.04,1.44-.32,2.1-.73,1.33-1.48,2.64-2.25,3.94-1.02,1.72-1.03,1.71,.45,3.03,.23,.21,.48,.39,.72,.59-.33,.36-.63,.76-.99,1.09-.46,.41-.84,.57-1.44-.03-.79-.8-1.96-1.01-3.04-1.31-1.22-.34-1.64-.95-1.4-2.37,.28-1.65,.92-2.91,2.08-4.06,.68-.68,1.25-1.51,1.55-2.46Z"/>
      <path class="cls-34" d="M63.96,53.15c4-.68,8.04-.59,12.07-.78,.47-.02,.99-.15,1.41,.22-1.18,0-2.37,0-3.74,0,.57,1.01,.36,2.11,1.29,2.76,.26,.18-.04,.49,0,.75-.53,1.31-1.36,2.39-2.46,3.27-1.11,.2-2.21,.12-3.31-.11-.54-.64,.09-.96,.4-1.31,.64-.73,1.1-1.53,1.19-2.5,.04-.45-.04-.94-.5-1.16-.43-.21-.79,.1-1.06,.4-1.14,1.25-2.38,2.45-2.44,4.32-.01,.33-.17,.6-.45,.78-.12,.07-.25,.12-.38,.16-2.42,.57-4.87,1.05-7.27,1.69-.43,.11-.86,.22-1.31,.12-.26-.09-.57-.24-.44-.55,.48-1.18-.33-1.4-1.15-1.6-1.29-.3-2.35-1.07-3.51-1.65-.52-.26-.86-.67-.45-1.3,3.65-1.59,7.51-2.43,11.39-3.23,.26-.05,.54-.03,.72-.27Z"/>
      <path class="cls-28" d="M51.86,56.66c-.02,.48,.07,.86,.6,1.06,1.36,.52,2.52,1.49,4.04,1.71,1.37,.2,1.12,1.15,.74,2.07-.07,.73-.71,.7-1.18,.84-.9,.27-1.8,.53-2.53,1.16-2.24,.33-4.08,1.48-5.77,2.92-.95,.5-1.51,1.45-2.38,2.05-.55,.04-.52,.46-.56,.84-1.82-2.2-2.51-4.64-1-7.23,.9-1.54,2.35-2.67,3.95-3.5,1.33-.7,2.73-1.28,4.09-1.92Z"/>
      <path class="cls-61" d="M94.91,88.14c-.89,.66-1.74,1.36-2.67,1.96-1.42,.91-2.08,2.29-2.41,3.84-.28,1.35,.58,2.4,2.09,2.51,1.11,.08,2.19,.46,3.32,.31,.36-.05,.75,0,.89,.42,.12,.37-.23,.54-.42,.78-.62,.78-1.6,.97-2.44,1.32-1.21,.5-2.34,1.32-3.75,1.24,.27-.79,1.09-.78,1.66-1.12,.61-.36,1.28-.6,1.88-1.16-.63-.58-1.35-.56-2.04-.59-1.26-.07-2.56-.23-3-1.58-.48-1.46-.32-2.99,.79-4.17,1.42-1.5,3.04-2.76,5.02-3.49,.18-.09,.36-.18,.54-.27,.18,0,.36,0,.54,0Z"/>
      <path class="cls-25" d="M103.79,82.76c.15-.35,.42-.53,.79-.57-.08,.27-.23,.59,.28,.56-.35,.54-.71,.9-1.07,0Z"/>
      <path class="cls-35" d="M81.13,82.19c2.56,.29,5.05-.39,7.58-.51-.17,1.23,.39,2.04,1.46,2.6,2.78,1.46,2.64,2.98-.04,4.24-1.73,.81-3.35,1.85-5.15,2.54-1.66,.64-2.87,1.95-4.15,3.08-.7,.62-1.35,1.27-2.18,1.7-.74,.38-1.08,.91-.96,1.72,.13,.86,.82,.92,1.49,1.07,1,.23,1.98,.54,2.96,.81,.23,.06,.47,.15,.47,.4,0,.24-.26,.31-.48,.38-1.82,.55-3.72,.82-5.55,.49-1.6-.28-3.23,.08-4.78-.44-2.18-.72-4.3-1.49-6.16-2.93-1.03-.8-1.64-1.98-2.75-2.71-.56-.37,.02-2.36,.67-2.81,2.62-1.83,5.5-3.08,8.49-4.18,1.92-.71,3.63-2.01,5.43-3.06,.14-.08,.31-.27,.29-.4-.03-.24-.27-.31-.5-.36-1.51-.37-3.1-.32-4.6-.79-.43-.13-.87-.19-1.18-.56,2.43-.3,4.88-.04,7.32-.14,.52-.02,1.07,.15,1.57-.14,.25,0,.5-.01,.75-.02Z"/>
      <path class="cls-48" d="M88.45,90.29c-.13,.31-.38,.49-.68,.6-2.29,.88-3.42,2.87-4.54,4.83-.34,.59-.23,1.13,.41,1.61,1.05,.78,2.25,1.03,3.47,1.28,.52,.11,1.03,.17,1.62,.59-1.33,1-2.78,1.4-4.31,1.59,.4-.4,.98-.39,1.45-.62,.28-.14,.58-.34,.58-.67,0-.39-.4-.45-.67-.54-1.01-.32-2.04-.6-3.05-.93-1.31-.42-1.54-1.16-.69-2.26,1.75-2.27,3.29-4.81,6.42-5.47Z"/>
      <path class="cls-43" d="M80.38,82.21c-.39,.45-.91,.27-1.38,.27-2.5,.02-5,0-7.5,0,0-.08,0-.17,0-.25,2.96-.01,5.92-.02,8.88-.03Z"/>
      <path class="cls-20" d="M93.83,88.41c-1.5,1.11-3.11,2.04-4.44,3.39-.92,.93-1.66,2.9-1.13,4.15,.51,1.21,1.66,1.32,2.82,1.36,.57,.02,1.14,.17,1.71,.25,.34,.05,.81-.04,.86,.42,.04,.41-.23,.72-.65,.91-1.16,.52-2.31,1.09-3.47,1.63-1.46,.26-2.77,1.13-4.3,1.08-.85,.41-1.81,.3-2.69,.54-.7,.22-1.41,.34-2.15,.27-.81,0-1.62,0-2.43,0,1-.58,2.28-.03,3.23-.81,2.72,.15,5.26-.74,7.83-1.4,.46-.12,.91-.38,1.3-.67,.34-.25,.85-.51,.68-1.04-.15-.46-.65-.36-1.04-.4-1.25-.13-2.43-.43-3.54-1.06-.98-.55-1.06-1.26-.77-2.24,.64-2.19,2.33-3.44,4.12-4.54,1.12-.69,2.25-1.43,3.53-1.84,.18,0,.36,0,.54,0Z"/>
      <path class="cls-73" d="M56.14,74.71c0-.11,.02-.21,.02-.32,.32-.13,.51-.37,.51-.71,.02-1.61,1.07-2.09,2.43-2.26,2.15,1.37,4.8,1.9,6.5,3.93,.15-.01,.21-.06,.23-.16,.08-.55-.27-1.41,.41-1.53,.74-.13,.67,.78,.86,1.29,.13,.34,.33,.64,.44,.98,.03,.13,0,.25-.09,.36-.99,.02-1.98,.03-2.97,.05-2.8-.44-5.63-.78-8.35-1.63Z"/>
      <path class="cls-55" d="M101.3,64.48c-.06,.17-.11,.34-.17,.51-.89,1.06-2.05,.59-3.13,.57-1.71-.49-3.39,.02-5.08,.18-.3-.05-.56-.19-.75-.44,.13-1.34,.43-2.58,1.41-3.63,.79-.84,.4-1.93,.31-2.94-.01-.49,.07-.95,.35-1.36,.1-.14,.24-.27,.42-.11,.15,.14,.09,.31,0,.46,0,.62,.04,1.25-.04,1.87-.14,1.12,.3,1.59,1.41,1.4,.57-.09,1.14-.17,1.7-.31,1.04-.27,2.13-.67,2.98,.32,.87,1.01,1.08,2.2,.58,3.48Z"/>
      <path class="cls-44" d="M94.66,57.72c-.07-.09-.08-.46-.24-.18-.21,.36-.23,.83-.33,1.26-.29,1.26-1.49,1.68-2.31,2.46-.16,.16-.43,.14-.62-.02-.25-.22-.15-.48-.02-.73,.29-.53,.93-.81,.99-1.29-1.02,1.09-1.64,2.76-3.33,3.45-.21-.04-.34-.16-.44-.34,.13-1.02,.99-1.39,1.69-1.91,.7-.84,1.58-1.49,.88-2.92-.48-.99,1.1-2.15,2.81-2.2,.21,.84,1.36,1.33,.91,2.42Z"/>
      <path class="cls-51" d="M79.84,54.47c.91,.63,.6,1.26,0,1.89-.4,2.27-1.94,3.64-3.78,4.78-.14,.13-.28,.26-.41,.4-1.65,1.87-3.78,2.93-6.16,3.52-.84-.92-.28-1.52,.47-2.08,1.75,.06,2.66-1.39,3.47-2.43,1.24-1.61,2.6-3.07,4-4.51,.38-.39,.75-.77,1.03-1.23,.35-.57,.81-.65,1.37-.33Z"/>
      <path class="cls-70" d="M79.84,54.47c-.3,.06-.78,.01-.88,.18-1.12,1.97-3.3,3.03-4.38,4.99-.74,1.34-2.06,2.08-2.97,3.23-.44,.56-.95,.59-1.52,.21,.32-1.65,1.53-2.74,2.47-4.01,.81-.99,1.62-1.98,2.43-2.97,.88-.57,1.46-1.52,2.48-1.91,.84-.32,1.67-.58,2.37,.28Z"/>
      <path class="cls-53" d="M75.79,61.07c.08-.11,.13-.27,.23-.32,1.92-.91,2.88-2.64,3.81-4.4,.06,.3,.27,.46,.52,.59,.58,.55,1.23,1.1,.35,1.92-.81-.02-1.15,.34-1.22,1.18-.12,1.46-.48,2.89-1.23,4.18-.22,.39-.49,.83-.99,.77-.48-.06-.52-.59-.57-.96-.13-1.05-.81-1.92-.92-2.96Z"/>
      <path class="cls-45" d="M80.61,58.79c.68-.72-.2-1.23-.25-1.85,.71,.07,1.3,.46,1.92,.75,.42,.82,1.2,1.3,1.84,1.91,.21,1.27,.25,2.54-.02,3.81-.12,.19-.26,.38-.51,.18-.18-.14-.28-.37-.27-.59,.11-1.85-1-2.71-2.56-3.21-.66-.25-.66-.59-.15-1.01Z"/>
      <path class="cls-26" d="M83.85,59.33c-1.41,.31-1.34-.8-1.57-1.63,1.35,.06,2.62-.16,3.71-1.04,.31,.17,.43,.43,.35,.78l-.06,.04c-.9,.51-1.43,1.51-2.44,1.86Z"/>
      <path class="cls-80" d="M86.35,57.43c-.12-.26-.24-.52-.35-.78,.25-.38,.35-.88,.82-1.09,.46,.26,.16,.76,.36,1.16,.45,.87-.35,.69-.83,.7Z"/>
      <path class="cls-72" d="M91.97,67.96c-.34,.45-.73,.81-1.31,.91-2.17,.07-4.35,.33-6.51-.13-.51-.23-1.04-.06-1.56-.11-.21-.02-.49,.05-.59-.18-.12-.28,.08-.51,.29-.68,.79-.63,1.65-1.17,2.42-1.83,1.03-.86,2.04-1.75,3.2-2.45,.73,.1,1.24-.38,1.81-.69,.54-.3,1.15-.79,1.67-.2,.49,.55,0,1.16-.32,1.68-.14,.23-.32,.43-.46,.65-1.27,1.48-3.04,1.87-4.83,2.26-.27,.06-.68-.07-.71,.41-.02,.33,.22,.45,.51,.49,1.19,.19,2.3-.29,3.45-.39,.97-.09,2.05-.73,2.93,.27Z"/>
      <path class="cls-9" d="M80.62,68.45c0-.05,0-.1-.01-.15-.22-.47,.06-.86,.25-1.24,.35-.68,.53-1.39,.53-2.16,0-.47-.08-1.1,.46-1.28,.65-.21,.86,.46,1.16,.87,.19,.25,.33,.53,.65,.63,.25,.07,.47,.19,.61,.42,.08,.18,.1,.37,.07,.57-.67,1.15-1.96,1.55-2.88,2.4-.28-.02-.56-.03-.85-.05Z"/>
      <path class="cls-58" d="M81.46,68.5c.72-1.02,1.96-1.47,2.73-2.45,.13-.17,.06-.44,.27-.57,.11-.03,.22-.02,.32,.03,.17,.16,.33,.32,.16,.57-.84,.88-1.88,1.52-2.94,2.26,.77,.36,1.54-.05,2.14,.39-.9-.03-1.82,.21-2.68-.24Z"/>
      <path class="cls-78" d="M91.97,67.96c-1.13-.17-2.25-.15-3.34,.17-1.13,.33-2.27,.45-3.44,.32-.15-.47-.66-1.1,.22-1.26,2.27-.42,4.43-1.22,6.67-1.73,.21-.05,.44-.08,.64,.05,1.71-.35,3.4-.92,5.16-.24-.5,.68-.8,1.66-1.99,1.31,.48,.17,.99,.19,1.48,.33,.74,.22,1.06,.61,.51,1.33-.57,.41-1.28,.42-1.92,.64-1.45,.22-2.7-.4-3.99-.91Z"/>
      <path class="cls-30" d="M84.67,65.53c-.16,.17-.32,.35-.48,.52-.03-.17-.05-.34-.08-.51-.24-.6-.75-1.17-.24-1.87,0-1.45-.01-2.89-.02-4.34,.72-.75,1.22-1.77,2.44-1.86,.25,.39,1.14,.19,.96,.9-.15,.59-.63,.96-1.29,.99-.27,.01-.54,0-.74,.23-.14,1.31-.2,2.62-.16,3.93,.02,.68,.18,1.42-.39,2Z"/>
      <path class="cls-38" d="M84.67,65.53c-.01-1.52-.03-3.05-.03-4.57,0-.53-.09-1.11,.58-1.36,.63,.48,.53,1.09,.37,1.75-.26,1.12-.28,2.24,.14,3.33-.18,.47-.19,1.15-1.02,.83h-.04Z"/>
      <path class="cls-29" d="M90.06,60.42c-.53,.63-1.06,1.27-1.6,1.9-.15,1.13-1.06,1.47-1.92,1.86-.48-.7,.19-1.1,.5-1.45,.83-.97,1.64-2.03,3.01-2.3Z"/>
      <path class="cls-14" d="M86.55,64.18c.64-.62,1.28-1.24,1.92-1.86,.09,.09,.18,.18,.27,.27,.12,.66-.38,.84-.82,1.06-.99,.81-1.98,1.62-2.96,2.43-.08-.19-.16-.38-.24-.57,.56,0,.55-.72,1.02-.83,.34-.05,.63-.2,.82-.5Z"/>
      <path class="cls-50" d="M74.52,68.26c.31,.19,.8,.33,.2,.76-1.04,.99-.84,2.13-.45,3.33,.1,.3,.76,.75-.06,1.03-.28,.23,0,.74-.44,.89-.57,.07-.86-.36-1.24-.64-1.14-.83-2.04-1.95-3.33-2.6-.28-.14-.51-.36-.49-.72,.04-.89,.09-1.77,.07-2.66-.04-2.12-.04-2.13,1.93-2.64,1.4-.04,2.75-.38,4.11-.7,.54,.26,.36,.71,.13,1-.71,.92-.81,1.89-.43,2.94Z"/>
      <path class="cls-62" d="M73.91,74.18q-.27-.83,.3-.79c1.11,.86,2.18,1.77,3.51,2.28,.68,.26-.04,.39-.05,.59-1.39-.21-2.29-1.35-3.52-1.85-.2,.05-.28-.02-.23-.23Z"/>
      <path class="cls-22" d="M97.87,68.23c.09-.67-.12-1.04-.87-1.1-.74-.06-1.47-.25-2.19-.37-.02-.28,.1-.38,.3-.39,.86-.08,1.91,.26,2.24-1.02,.02-.07,.33-.06,.5-.08,1.08-.1,2.21,.25,3.26-.27,.32,.2,0,.37-.02,.55-.1,.08-.2,.17-.3,.25-1.25,.41-1.69,1.72-2.68,2.42-.08,0-.17,0-.25,0Z"/>
      <path class="cls-6" d="M83.6,65.27c-.07,.37-.25,.69-.49,.16-.28-.61-.56-1.19-1.32-1.88,.07,1.84-.26,3.39-1.18,4.75-1.15-.03-2.3-.06-3.44-.09-.64-.55-1.28-.18-1.93,0-1.12-.58-1.19-1.01-.28-1.81q1.61-1.43,.7-3.45c-.02-.18-.21,.12-.06,.02,.07-.05,.1-.02,.1,.09q-.02,.7-.62,.69c-.43-.94,.11-1.71,.45-2.51,.09-.05,.18-.1,.27-.16,1.08,1,1,2.47,1.53,3.89,1.3-1.55,1.7-3.29,1.82-5.14,.03-.55,.08-1.04,.6-1.37,.47-.31,.61,.15,.87,.33-.04,.33-.41,.78,.31,.81,.21,.34,.54,.62,.56,1.04,.06,.99,.67,1.58,1.37,2.17,.74,.62,1.12,1.45,.75,2.45Z"/>
      <path class="cls-37" d="M75.19,63.88c.6-.29,.2-.89,.44-1.33,.3,.42,.6,.82,.83,1.3,.58,1.18,.4,1.92-.87,2.51-1.28,.59-1.28,1-.36,1.84-.24,.02-.48,.04-.72,.05-.75-.78-1.01-1.55-.17-2.48,.33-.36,.65-.84,.59-1.42-.11-.26-.05-.44,.25-.48Z"/>
      <path class="cls-71" d="M73.91,74.18c.08,.08,.15,.15,.23,.23,.44,.79,1.25,1.18,2.09,1.89-3.06,0-5.92,0-8.77,0,0-.09,0-.18,0-.26,.04-.18,.14-.33,.19-.5,.5-1.85,.54-1.87,2.13-.9,.07-1.03-.57-1.92-1.99-2.77-1.23-.74-1.24-.94-.16-1.88,.19-.07,.38-.08,.57-.04,.26,.08,.48,.2,.61,.45,1.94,.95,3.26,2.73,5.11,3.79Z"/>
      <path class="cls-66" d="M47.54,66.33c1.66-1.63,3.42-3.04,5.93-2.96,1.11-.63,1.77-.07,2.29,.87,.16,1.06,.73,1.98,1.04,2.99-.3-.92-.72-1.8-.99-2.73-.37-1.55-.06-2.11,1.32-2.34,.89-.15,1.14,.11,.92,.99-.26,1.05-.39,2.06,.67,2.78,.59,.03,1.15-.24,1.75-.1,.72,.36,1.51,.65,1.69,1.59-.39,.5-1.06,.43-1.63,.84,.79,.66,1.79,.76,2.63,1.19,.44,.22,1.1,.2,1.1,.94-1.64,.69-3.29,1.32-5.12,.81-.18-.9-1.23-.5-1.62-1.08-2.36-1.34-4.93-2.18-7.49-3.03-.13,0-.25-.03-.37-.07-.45-1-1.45-.3-2.1-.67Z"/>
      <path class="cls-5" d="M59.12,71.19c1.73-.24,3.48-.4,5.12-1.07,.93-.76,2.01-.69,3.11-.54,.22,.1,.42,.21,.39,.51-.53,.58-1.21,1.01,.22,1.49,1.06,.36,1.84,1.39,2.36,2.46,.17,.35,.26,.82-.16,1.08-.36,.22-.66,.01-.9-.32-.2-.28-.42-.68-.84-.53-.49,.18-.4,.59-.28,1.02,.16,.56-.25,.68-.68,.74-.97-.42-.57-1.58-1.16-2.33-.31,.64-.19,1.13,0,1.63,.08,.22,.08,.47-.14,.59-.25,.14-.59,.15-.74-.09-.92-1.52-2.44-2.18-3.99-2.74-.96-.34-1.63-.99-2.32-1.67,0-.08,.01-.16,.02-.24Z"/>
      <path class="cls-3" d="M49.7,66.87c.08,.01,.17,.02,.25,.02,.6,.17,1.26,.26,1.37,1.07,.48,.64,.03,1.17-.17,1.75-.12,.35-.29,.86,.17,1.05,.37,.15,.44-.3,.56-.59,.22-.57,.56-.64,.74-.02,.18,.59,1.1,1.23,.13,1.85-.79,.51-1.8,.17-2.14-.42-.72-1.27-1.72-1.82-3.05-2.01-.13-1.3,.93-2.62,2.15-2.7Z"/>
      <path class="cls-76" d="M49.7,66.87c-1.08,.61-1.8,1.5-2.15,2.7-1.26,.68-1.58-.48-2.17-1.11,.45-.98,1.14-1.72,2.16-2.13,.13,0,.3,.05,.38-.01,.89-.74,1.5-.64,1.78,.55Z"/>
      <path class="cls-27" d="M51.31,67.96c-.46-.36-.91-.71-1.37-1.07,.07-.06,.15-.18,.19-.16,2.41,.9,4.9,1.6,7.14,2.91,.12,.07,.15,.3,.22,.46-2.17-.41-4.27-1.01-6.19-2.14Z"/>
      <path class="cls-61" d="M82.53,102.13c.85-.4,1.78-.44,2.69-.54-.8,.66-1.76,.53-2.69,.54Z"/>
      <path class="cls-46" d="M60.46,66.07c-.63,.09-1.26,.18-1.88,.27-.78-.99-.68-1.79,.32-2.57,1.3-1.01,2.87-1.17,4.41-1.24,1.04-.05,1.78-.1,1.74-1.46-.02-.58,.47-1.14,1.06-1.45,.09,0,.18-.01,.27-.01,.66-.43,1.32-.8,2.13-.39,1.04,1.86-.14,4.94-2.12,5.52-.34,.1-.7,.13-1.04,.26-1.65,.27-3.13,1.31-4.89,1.09Z"/>
      <path class="cls-18" d="M66.11,59.62c-.18,.83-1.18,1.37-.64,2.52,.29,.63-.58,.7-1.12,.71-1.65,.01-3.28,.11-4.78,.88-1.09,.57-1.64,1.37-.99,2.61-.83-.45-1.39-2.28-.96-3.15,.11-.23,.37-.39,.31-.7-1.63-.02-1.76,.11-2.07,2-.07,.11-.15,.11-.23,0-.45-.91-1.19-1.23-2.16-1.12,.39-1,1.39-.99,2.18-1.28,.53-.2,1.13-.2,1.59-.59,2.74-.6,5.47-1.21,8.21-1.81,.22-.05,.44-.05,.66-.07Z"/>
      <path class="cls-82" d="M65.31,64.72c3.17-.66,3.11-2.42,3.23-5.37,0-.46,.23-.44,.55-.27,1.16,0,2.32,0,3.48,0-.5,1.53-1.71,2.63-2.47,4.01-.41,.56-1.2,1.03-.47,1.88,.43-.14,.78-.02,1.06,.32-1.47,.24-1.79,1.02-1.54,2.48,.13,.78,.25,1.82-.34,2.63-.22-.02-.44,0-.55-.26-.52-.46-.36-1.06-.36-1.64,0-.92-.2-1.71-1.25-1.94-.84-.32-1.17-1.02-1.35-1.83Z"/>
      <path class="cls-23" d="M69.08,59.07c-.22,.01-.43,.05-.55,.27-.75-.14-1.43,.26-2.15,.26-.05-2.11,1.18-3.6,2.49-5.02,.44-.48,1.04-1.17,1.67-.72,.71,.49,.77,1.39,.54,2.29-.32,1.23-1.3,1.97-2,2.92Z"/>
      <path class="cls-75" d="M87.91,63.65c.27-.35,.55-.71,.82-1.06,1.39-.99,2.24-2.52,3.6-3.72,.1,1.04-.94,1.39-.88,2.37,.88-.81,1.76-1.63,2.64-2.44,.42,1.24,.66,2.41-.54,3.45-.51,.44-.94,1.08-.8,1.88,.09,.51-.21,.82-.55,1.12-.21,.32-.56,.39-.89,.47-.82,.22-1.11-.13-.95-.93,.22-.33,.51-.63,.65-.99,.13-.34,.51-.77,.15-1.09-.35-.31-.77-.07-1.06,.24-.43,.48-1.14,.48-1.58,.98-.27,.3-.39-.22-.62-.28Z"/>
      <path class="cls-65" d="M90.37,64.79q.56,.83,1.83,.46c.2,.03,.41,.04,.51,.26-2.15,.72-4.29,1.49-6.58,1.68-.8,.07-1.14,.46-.95,1.27-.5-.27-.71-.81-.64-1.24,.11-.6,.75-.23,1.15-.32,1.69-.42,3.42-.72,4.68-2.1Z"/>
      <path class="cls-67" d="M70.69,65.28c-.35-.1-.77-.01-1.06-.32,.23-.8,1.16-.88,1.58-.91,2.05-.11,2.81-2.01,4.32-2.82-.11,.88-.22,1.77-.33,2.65-.08,.16-.17,.32-.25,.48-1.26,1.05-2.79,.84-4.25,.92Z"/>
      <path class="cls-7" d="M83.6,65.27c-.04-.66-.05-1.52-.57-1.82-1.54-.89-1.96-2.26-2.11-3.85,1.95,.35,2.93,1.44,2.71,3.48-.02,.18,.16,.39,.24,.59-.02,.64,.4,1.22,.24,1.87-.17-.09-.34-.18-.51-.27Z"/>
      <path class="cls-21" d="M66.64,66.34c1.33-.18,1.47,.78,1.62,1.71,.11,.69-.23,1.39,0,2.08-.18-.01-.35-.02-.53-.04-.09-.1-.19-.19-.28-.29-1.99-.26-2.43-1.12-1.62-3.16,.21-.25,.47-.38,.81-.31Z"/>
      <path class="cls-33" d="M66.12,66.62c-.67,1.94-.39,2.61,1.33,3.18-1.07,.1-2.14,.21-3.22,.31-1.55-.46-3.08-.96-4.64-1.89,.89-.45,1.65-.74,2.48-.81,1.3-.53,2.58-1.12,4.05-.79Z"/>
      <path class="cls-36" d="M66.12,66.62c-1.36,.22-2.63,.86-4.05,.79-.41-.6-1.08-.88-1.61-1.34,1.63-.39,3.16-1.13,4.84-1.35,.8,.24,.53,1.38,1.34,1.62-.17,.09-.35,.19-.52,.28Z"/>
      <path class="cls-39" d="M55.63,64.49c.08,0,.16,0,.23,0,.84,.96,.85,2.28,1.38,3.38-1.04-.88-1.36-2.11-1.62-3.38Z"/>
    </g>
  </g>
</svg>