<?xml version="1.0" encoding="UTF-8"?>
<svg xmlns="http://www.w3.org/2000/svg" xmlns:xlink="http://www.w3.org/1999/xlink" viewBox="0 0 150 150">
  <defs>
    <style>
      .cls-1 {
        fill: url(#linear-gradient);
        stroke: #c3fcd2;
        stroke-width: 3px;
      }

      .cls-1, .cls-2 {
        stroke-miterlimit: 10;
      }

      .cls-2 {
        fill: none;
        stroke: #52ff87;
        stroke-width: 2.06px;
      }
    </style>
    <linearGradient id="linear-gradient" x1="132.33" y1="42.28" x2="15.23" y2="107.84" gradientUnits="userSpaceOnUse">
      <stop offset="0" stop-color="#b6ff93"/>
      <stop offset=".19" stop-color="#56ed86"/>
      <stop offset="1" stop-color="#006833"/>
    </linearGradient>
  </defs>
  <g id="Layer_2" data-name="Layer 2">
    <polygon class="cls-1" points="136.47 111.14 136.47 38.87 73.88 2.73 11.28 38.87 11.28 111.14 73.88 147.28 136.47 111.14"/>
    <path class="cls-2" d="M95.45,110c-3.08,.07-5.7-1.27-8.04-3.01-3.7-2.75-7.36-5.59-10.79-8.66-5.47-4.9-10.9-9.87-16.06-15.09-5.69-5.77-11.83-11.13-16.73-17.66-2.06-2.75-3.87-5.69-3.54-9.28,.67-7.19,4.97-12.83,13.05-12.47,4.18,.19,7.9,2.01,11.04,4.76,3.61,3.16,7.15,6.41,10.62,9.72,5.23,4.99,10.46,10,15.55,15.14,4.8,4.85,9.76,9.56,13.84,15.09,1.78,2.41,3.04,5.04,3.53,8.01,.9,6.96-5.62,13.46-12.46,13.45Z"/>
  </g>
  <g id="Layer_1" data-name="Layer 1">
    <image width="520" height="520" transform="translate(130.58 20) rotate(-180) scale(.22 -.22)" xlink:href="../Emoji_PNG/baguette.png"/>
  </g>
</svg>