<?xml version="1.0" encoding="UTF-8"?>
<svg id="Layer_2" data-name="Layer 2" xmlns="http://www.w3.org/2000/svg" xmlns:xlink="http://www.w3.org/1999/xlink" viewBox="0 0 150 150">
  <defs>
    <style>
      .cls-1 {
        fill: url(#linear-gradient);
        stroke: #939393;
        stroke-miterlimit: 10;
        stroke-width: 3px;
      }
    </style>
    <linearGradient id="linear-gradient" x1="132.7" y1="40.8" x2="16.27" y2="110.12" gradientUnits="userSpaceOnUse">
      <stop offset="0" stop-color="#56a186"/>
      <stop offset=".23" stop-color="#578772"/>
      <stop offset="1" stop-color="#58635e"/>
    </linearGradient>
  </defs>
  <polygon class="cls-1" points="137.84 111.14 137.84 38.87 75.25 2.73 12.66 38.87 12.66 111.14 75.25 147.28 137.84 111.14"/>
  <path d="M50.23,68.47c-8.92-2.59-10.69-12.23-3.47-17.99,7.65-6.97,18.64-7.62,28.48-7.46,12.69-.25,48.11,8.38,36.5,26.45-1.02,4.81-2.43,7.34-7.89,7.75,8.74,5.41,14.85,12.98,8.7,23.08-.88,2.51-3.56,3.34-4.57,5.82-1.95,2.83-5.96,3.99-9.26,3.86-10.53-1.93-62.67-6.18-61.46-18.69,.05-1.65-2.06-1.66-1.94-3.32-.63-9.45,6.88-16.15,14.91-19.51Z"/>
</svg>