<?xml version="1.0" encoding="UTF-8"?>
<svg id="Layer_2" data-name="Layer 2" xmlns="http://www.w3.org/2000/svg" xmlns:xlink="http://www.w3.org/1999/xlink" viewBox="0 0 150 150">
  <defs>
    <style>
      .cls-1 {
        fill: url(#linear-gradient);
        stroke: #939393;
        stroke-miterlimit: 10;
        stroke-width: 3px;
      }
    </style>
    <linearGradient id="linear-gradient" x1="132.7" y1="41.8" x2="16.27" y2="111.12" gradientUnits="userSpaceOnUse">
      <stop offset="0" stop-color="#56a186"/>
      <stop offset=".23" stop-color="#578772"/>
      <stop offset="1" stop-color="#58635e"/>
    </linearGradient>
  </defs>
  <polygon class="cls-1" points="137.84 112.14 137.84 39.87 75.25 3.73 12.66 39.87 12.66 112.14 75.25 148.28 137.84 112.14"/>
  <path d="M73.47,113.76c-3.55-.36-8.31-.76-13.05-1.37-1.5-.19-2.98-.84-4.37-1.48-1.5-.69-1.81-1.61-1.63-3.22,.16-1.46,.27-2.93,.29-4.4,.45-12.26,.17-24.5-.88-36.72-.2-3.01-.58-6-.9-9-.03-.32-.14-.69-.33-.93-1.45-1.83-1.16-4.18,.79-5.65,1.68-1.08,3.66-2.21,4.7-3.95,4.46-8.62,19.83-6.85,27.15-3.18,2.52,1.19,4.99,2.5,7.58,3.53,4.7,1.87,5.68,5.72,5.33,9.78-.1,1.13,.29,1.41,1.21,1.5,1.84,.18,3.69,.25,5.5,.58,5.67,.85,8.74,4.57,9.91,10.04,2.17,8.22,.28,16.71-1.53,24.8-1.75,7.63-10.36,9.39-17.16,9.06-1.5-.02-1.67,.2-1.61,1.72-.04,3.24,.58,5.42-3.14,6.52-6.29,1.83-10.7,1.97-17.88,2.36Zm20.53-26.12c.05,0,.11,0,.16,0,0,1.7,0,3.39,0,5.09,0,1.43,.15,1.61,1.54,1.56,2.64-.29,6.8,.54,7.66-2.79,1.34-5.14,1.89-10.43,2.05-15.73-.06-3.19,.55-8.32-4.01-8.18-1.54-.03-3.08-.01-4.62,0-1.64,0-1.82,.14-1.9,1.78-.31,6.09-.58,12.18-.87,18.27Z"/>
</svg>