<?xml version="1.0" encoding="UTF-8"?>
<svg id="Layer_2" data-name="Layer 2" xmlns="http://www.w3.org/2000/svg" xmlns:xlink="http://www.w3.org/1999/xlink" viewBox="0 0 150 150">
  <defs>
    <style>
      .cls-1 {
        fill: url(#linear-gradient);
        stroke: #939393;
        stroke-miterlimit: 10;
        stroke-width: 3px;
      }
    </style>
    <linearGradient id="linear-gradient" x1="131.7" y1="40.8" x2="15.27" y2="110.12" gradientUnits="userSpaceOnUse">
      <stop offset="0" stop-color="#56a186"/>
      <stop offset=".23" stop-color="#578772"/>
      <stop offset="1" stop-color="#58635e"/>
    </linearGradient>
  </defs>
  <polygon class="cls-1" points="136.84 111.14 136.84 38.87 74.25 2.73 11.66 38.87 11.66 111.14 74.25 147.28 136.84 111.14"/>
  <path d="M66.17,108.07c-6.82-.14-13.41-1.36-19.39-4.82-3.71-2.15-6.76-5.12-9.26-8.6-.58-.81-.88-1.93-.99-2.94-.17-1.54,.8-2.59,2.37-2.53,1.24,.04,2.49,.38,3.7,.69,2.74,.71,5.43,1.88,8.21,2.17,4.99,.52,9.38-1.16,12.8-4.95,3.5-3.89,5.73-8.55,7.78-13.31,1.8-4.17,3.42-8.45,6.18-12.13,1.58-2.11,3.45-3.86,5.91-4.94,.54-.24,1.04-.64,1.45-1.08,.64-.69,1.34-1.02,2.28-.86,2.25,.37,4.43,.03,6.54-.79,3.81-1.47,4.84-3.47,3.9-7.47-.75-3.2-2.97-4.27-5.94-2.88-1.26,.59-2.08,.07-2.05-1.29,.02-.79,.39-1.22,1.19-1.22,1.16,0,2.33,.01,3.49-.01,2.35-.04,3.95,1.14,5.03,3.11,1.16,2.13,1.56,4.4,1.32,6.83-.44,4.48-.09,8.83,2.57,12.7,.31,.45,.62,.96,.7,1.47,.07,.51-.13,1.08-.25,1.61-.1,.41-.42,.83-.36,1.2,.44,2.91,.04,5.76-.74,8.53-2.37,8.47-6.58,15.93-12.97,22.02-5.75,5.48-12.64,8.69-20.59,9.48-.95,.09-1.91,.01-2.87,.01Z"/>
</svg>