<?xml version="1.0" encoding="UTF-8"?>
<svg xmlns="http://www.w3.org/2000/svg" xmlns:xlink="http://www.w3.org/1999/xlink" viewBox="0 0 150 150">
  <defs>
    <style>
      .cls-1 {
        fill: url(#linear-gradient);
        stroke: #c3fcd2;
        stroke-width: 3px;
      }

      .cls-1, .cls-2 {
        stroke-miterlimit: 10;
      }

      .cls-3, .cls-2 {
        fill: none;
      }

      .cls-2 {
        stroke: #52ff87;
        stroke-width: 2.01px;
      }
    </style>
    <linearGradient id="linear-gradient" x1="135.39" y1="109.92" x2="14.88" y2="39.96" gradientUnits="userSpaceOnUse">
      <stop offset="0" stop-color="#b6ff93"/>
      <stop offset=".19" stop-color="#56ed86"/>
      <stop offset="1" stop-color="#006833"/>
    </linearGradient>
  </defs>
  <g id="Layer_2" data-name="Layer 2">
    <polygon class="cls-1" points="137.84 111.14 137.84 38.87 75.25 2.73 12.66 38.87 12.66 111.14 75.25 147.28 137.84 111.14"/>
    <rect class="cls-3" x="10.44" y="25.01" width="141.12" height="98.98"/>
    <path class="cls-2" d="M113.94,48.37c-.32,1.79-.66,3.29-.85,4.8-.28,2.17-.54,4.35-.65,6.54-.21,4.07,.08,8.21-.55,12.2-1.15,7.26-4.15,13.74-9.5,19.04-4.23,4.2-8.75,8.03-13.92,10.95-5.21,2.94-10.81,4.95-16.83,5.74-4.18,.55-8.29,.03-12.41-.34-3.89-.35-7.66,.01-11.41,.96-1.79,.45-3.57,.93-5.37,1.32-2.73,.6-3.89-.64-3.3-3.35,.59-2.72,1.1-5.45,1.55-8.19,.08-.49-.27-1.06-.43-1.59-.19-.6-.62-1.23-.54-1.8,.52-3.82,1.46-7.54,3.41-10.92,1.23-2.13,2.54-4.22,3.85-6.3,.49-.78,.43-1.29-.35-1.86-2.18-1.6-1.84-1.64-.68-4.06,1.49-3.12,4.27-5.04,6.79-7.21,1.39-1.19,2.67-2.52,3.97-3.82,.59-.59,.71-1.18,.07-1.95-1.38-1.66-1.36-2.49,.32-3.83,2.87-2.3,5.81-4.5,8.79-6.65,1.48-1.07,1.52-.96,1.08-2.77-.08-.33,.17-.99,.45-1.13,1.27-.66,2.58-1.28,3.93-1.75,2.8-.97,5.64-1.85,8.48-2.71,.36-.11,1.09-.03,1.19,.18,.4,.83,1.01,.78,1.68,.59,4.55-1.23,9.24-1.13,13.89-1.31,.48-.02,1.24,.58,1.41,1.06,.31,.88,.81,1.2,1.65,1.41,2.65,.66,5.35,1.23,7.91,2.19,1.99,.74,3.83,1.94,5.65,3.08,.45,.28,.56,1.1,.74,1.49Z"/>
  </g>
  <g id="Layer_1" data-name="Layer 1">
    <image width="520" height="520" transform="translate(136 12) rotate(-180) scale(.23 -.23)" xlink:href="../Emoji_PNG/dimsum.png"/>
  </g>
</svg>