<?xml version="1.0" encoding="UTF-8"?>
<svg id="Layer_2" data-name="Layer 2" xmlns="http://www.w3.org/2000/svg" xmlns:xlink="http://www.w3.org/1999/xlink" viewBox="0 0 150 150">
  <defs>
    <style>
      .cls-1 {
        fill: #837f77;
      }

      .cls-2 {
        fill: #ada99d;
      }

      .cls-3 {
        fill: #5a5752;
      }

      .cls-4 {
        fill: #a6a298;
      }

      .cls-5 {
        fill: #b0aca1;
      }

      .cls-6 {
        fill: #7b6e60;
      }

      .cls-7 {
        fill: #473f3c;
      }

      .cls-8 {
        fill: #cbc8c1;
      }

      .cls-9 {
        fill: #c0beb2;
      }

      .cls-10 {
        fill: #aeaa9c;
      }

      .cls-11 {
        fill: url(#linear-gradient);
        stroke: #c3fcd2;
        stroke-width: 3px;
      }

      .cls-11, .cls-12 {
        stroke-miterlimit: 10;
      }

      .cls-12 {
        stroke: #52ff87;
        stroke-width: 2.04px;
      }

      .cls-12, .cls-13 {
        fill: none;
      }

      .cls-14 {
        fill: #7b786d;
      }

      .cls-15 {
        fill: #b7b3a8;
      }

      .cls-16 {
        fill: #706d65;
      }

      .cls-17 {
        fill: #c2c1ba;
      }

      .cls-18 {
        fill: #dbd8cf;
      }

      .cls-19 {
        fill: #9e9c96;
      }

      .cls-20 {
        fill: #90897e;
      }

      .cls-21 {
        fill: #817e73;
      }

      .cls-22 {
        fill: #cac3b7;
      }

      .cls-23 {
        fill: #918b81;
      }

      .cls-24 {
        fill: #706254;
      }

      .cls-25 {
        fill: #9f9788;
      }

      .cls-26 {
        fill: #7f796c;
      }

      .cls-27 {
        fill: #938d7f;
      }

      .cls-28 {
        fill: #c3c1ba;
      }

      .cls-29 {
        fill: #f1efea;
      }

      .cls-30 {
        fill: #dbd7cf;
      }

      .cls-31 {
        fill: #dbd7ca;
      }

      .cls-32 {
        fill: #a5a092;
      }

      .cls-33 {
        fill: #bab7af;
      }

      .cls-34 {
        fill: #efede7;
      }

      .cls-35 {
        fill: #787671;
      }

      .cls-36 {
        fill: #878174;
      }

      .cls-37 {
        fill: #675647;
      }

      .cls-38 {
        fill: #69665f;
      }

      .cls-39 {
        fill: #b9b2a5;
      }

      .cls-40 {
        fill: #797569;
      }

      .cls-41 {
        fill: #6e6b64;
      }

      .cls-42 {
        fill: #838076;
      }

      .cls-43 {
        fill: #817c76;
      }

      .cls-44 {
        fill: #291d16;
      }

      .cls-45 {
        fill: #2a1d17;
      }

      .cls-46 {
        fill: #8f887b;
      }

      .cls-47 {
        fill: #969287;
      }

      .cls-48 {
        fill: #c1beb2;
      }

      .cls-49 {
        fill: #aaa495;
      }

      .cls-50 {
        fill: #b3aea9;
      }

      .cls-51 {
        fill: #a4a095;
      }

      .cls-52 {
        fill: #9b9586;
      }

      .cls-53 {
        fill: #ceccc4;
      }

      .cls-54 {
        fill: #c8c3b9;
      }

      .cls-55 {
        fill: #6e695d;
      }

      .cls-56 {
        fill: #807a6e;
      }

      .cls-57 {
        fill: #444038;
      }

      .cls-58 {
        fill: #90887e;
      }

      .cls-59 {
        fill: #b7b5ad;
      }

      .cls-60 {
        fill: #503d2a;
      }

      .cls-61 {
        fill: #a49e8e;
      }

      .cls-62 {
        fill: #949187;
      }

      .cls-63 {
        fill: #74685a;
      }

      .cls-64 {
        fill: #a19c91;
      }

      .cls-65 {
        fill: #c3c1bb;
      }

      .cls-66 {
        fill: #a29b8e;
      }

      .cls-67 {
        fill: #aeaba4;
      }

      .cls-68 {
        fill: #928c80;
      }

      .cls-69 {
        fill: #acaba3;
      }

      .cls-70 {
        fill: #77746a;
      }

      .cls-71 {
        fill: #c2beb4;
      }

      .cls-72 {
        fill: #e1ded8;
      }

      .cls-73 {
        fill: #68645a;
      }

      .cls-74 {
        fill: #3a2c22;
      }

      .cls-75 {
        fill: #afaca1;
      }

      .cls-76 {
        fill: #e9e5df;
      }

      .cls-77 {
        fill: #d2cec4;
      }

      .cls-78 {
        fill: #918d84;
      }

      .cls-79 {
        fill: #a09a8f;
      }

      .cls-80 {
        fill: #c9c6bb;
      }

      .cls-81 {
        fill: #150c07;
      }

      .cls-82 {
        fill: #595449;
      }

      .cls-83 {
        fill: #a6a498;
      }

      .cls-84 {
        fill: #3b2612;
      }

      .cls-85 {
        fill: #b9b4aa;
      }

      .cls-86 {
        fill: #98958a;
      }

      .cls-87 {
        fill: #a39e95;
      }

      .cls-88 {
        fill: #b6b2a9;
      }

      .cls-89 {
        fill: #898274;
      }
    </style>
    <linearGradient id="linear-gradient" x1="133.72" y1="107.81" x2="12.69" y2="38.87" gradientUnits="userSpaceOnUse">
      <stop offset="0" stop-color="#b6ff93"/>
      <stop offset=".19" stop-color="#56ed86"/>
      <stop offset="1" stop-color="#006833"/>
    </linearGradient>
  </defs>
  <polygon class="cls-11" points="136.97 110.14 136.97 37.87 74.38 1.73 11.78 37.87 11.78 110.14 74.38 146.28 136.97 110.14"/>
  <rect class="cls-13" x="10.44" y="24.01" width="141.12" height="98.98"/>
  <path class="cls-12" d="M103.11,69.67c-.13,.85-.03,1.21,.74,1.6,5.98,2.98,12.89,8.04,12.66,15.45-.14,3.7-1.85,6.71-4.36,9.33-12.63,12.33-32.05,13.61-48.68,11.48-12.4-1.96-34.05-9.09-29.35-25.29,.52-2.38-2.34-4.34-2.21-6.99-.41-3.51,.32-8.36,4-9.8,4.47-2.23,9.52,2.13,10.23-.28,1.58-12.65,18.09-13.19,28.2-14.01,11.28,.58,33.26,2.21,28.77,18.53Zm-67.55,8.16c1.31,1.42,2.28-1.36,3.4-1.9,1.53-1.19,3.07-2.4,4.73-3.39,3.39-2.23-2.23-5.28-4.59-4.71-5.72-.7-7.47,6.66-3.54,10Z"/>
  <g>
    <path class="cls-9" d="M91.32,106.47h-.07s-.08,.01-.08,.01c-.5,.19-1.09-.07-1.54,.33-.21,0-.43,0-.64,.01-.52,.02-.54-.28-.44-.67,.09-.12,.21-.18,.35-.21,.81,.03,1.53-.27,2.23-.62,2.4-.61,4.79-1.28,7.11-2.17,3.43-1.32,6.68-2.99,9.69-5.1,1.24-.87,2.29-1.96,3.22-3.16-.77,.22-1.33,.78-2.03,1.11-2.53,1.2-5.18,2.02-7.9,2.64-1.17,.27-1.96,0-2.04-1.28-.05-.72-.46-1.33-.97-1.84-.9-.9-1.22-2.06-1.52-3.24-.06-.22-.1-.44-.15-.66-.12-.51-.37-.59-.76-.25-.19,.17-.41,.3-.62,.44-.19,.1-.38,.19-.6,.12-.26-.54,.37-.63,.49-.98,.31-.42,.67-.79,1.09-1.09,.73-.62,1.25-1.39,1.69-2.22,2.06-3.08,3.26-6.51,4.19-10.06,.44-1.68,.87-3.37,1.16-5.08,.07-.44,.21-.92,.85-.78,.18,.04,.38,0,.49,.2-.42,.28-.86,.55-.77,1.17,.04,.8-.16,1.54-.41,2.3-.36,1.11-.46,2.3-.85,3.41-.28,.55-.46,1.13-.53,1.74-.13,.34-.25,.68-.34,1.04-.17,.74-.04,1.3,.56,1.88,.82,.78,1.64,1.56,2.18,2.64,.37,.75,1.27,1.42,2.08,1.55,.72,.11,1.51-.34,2.16,.4,.11,.12,.37-.04,.56-.1,.62-.21,1.25-.34,1.9-.33,.61,.01,1.23,.1,1.63-.57,.17-.28,.52-.18,.77-.05,.62,.32,.86-.01,1.02-.55,.54-1.76,.17-3.45-.43-5.11-.24-.66-.6-1.27-.93-1.89-.17-.33-.46-.68-.15-1.09,1.64,1.65,2.63,3.64,3.05,5.92,.22,2.11-.17,4.12-.94,6.09-1.64,4.22-4.67,7.18-8.46,9.48-1.28,.78-2.53,1.59-3.9,2.19-.58,.11-1.08,.39-1.57,.7-1.26,.65-2.55,1.2-3.92,1.58-1.78,.39-3.45,1.14-5.21,1.58-.33,.08-.45,.42-.72,.56Z"/>
    <path class="cls-76" d="M104.02,71.73c-.57,.11-.62,.56-.68,1.02-.19,1.47-.56,2.9-.97,4.32-.56,1.96-1.15,3.91-1.76,5.86-.18,.58-.48,1.14-.78,1.65-.63,1.09-1.13,2.26-1.92,3.26-.63,.66-.99,1.56-1.8,2.06-.71,.04-.96-.27-.7-1.04,.23-.69,.56-1.35,.83-2.04,.58-1.51,.82-3.1,1.1-4.68,.02-.11-.03,.02,.01-.08,.68-1.93,.86-3.95,1.14-5.96,.17-1.27-.15-2.28-1.31-2.78-.67-.29-1.37-.53-2.13-.49-1.16,.06-2.31-.1-3.44-.34-1.12-.23-2.23-.17-3.36-.02-1.67,.22-3.33,.51-5.01,.65-3.06,.18-6.11,.51-9.18,.4-2.02-.07-4.02-.41-6.04-.48-1.72-.06-3.37-.58-5.08-.72-.31-.03-.61-.11-.86-.31-.16-.61,.59-.5,.71-.89,.69,.05,1.39,.08,1.97,.54-.03,.12-.11,.18-.23,.21,.19,.09,.41,.07,.6,.16,0-.12-.11-.03-.16-.07-.21-.16-.11-.27,.06-.37,.42-.13,.83-.09,1.25,0,1.38,.28,2.77,.4,4.18,.43,2.02,.05,4.03,.47,6.06,.3,2.93-.25,5.88-.28,8.81-.73,2.03-.31,4.01-.77,6-1.24,.34-.08,.64-.21,.93-.37,2-.73,4.03-1.38,5.83-2.57,.42-.28,.78-.64,1.22-.9,.27-.07,.5-.34,.82-.2,.17,.39-.13,.56-.36,.75-.38,.32-.79,.61-1.1,.93,1.14-.82,2.28-1.73,3.33-2.75,.21-.21,.51-.48,.81-.25,.29,.23,.13,.6-.03,.85-.56,.9-1.33,1.61-2.17,2.22-1.49,1.07-3.09,1.96-4.75,2.74-.2,.09-.42,.17-.64,.44,2.27-.22,4.31-.78,6.02-2.24,.39-.33,.76-.67,1.19-.95,.48-.32,.65-.2,.73,.44-.02,.52,.01,1.04-.14,1.56-.25,.86,.45,1.21,.99,1.63Z"/>
    <path class="cls-15" d="M112.99,78.37c.14,1.1,.96,1.89,1.29,2.9,.62,1.86,1.02,3.71,.3,5.65-.22,.6-.49,.7-.99,.39-.49-.31-.86-.38-1.04,.33-.07,.27-.34,.26-.63,.24-1-.06-2-.08-2.95,.41-.32,.17-.75,.22-.96-.33-.15-.41-.47-.56-.83-.15-.21,.24-.57,.32-.77,.19-.78-.49-1.85-.9-2.18-1.62-.51-1.14-1.37-1.88-2.15-2.72-.89-.96-1.03-1.91-.26-3.09,.28,.4,.68,.61,1.1,.86,1.34,.78,2.76,1.37,4.22,1.87,.74,.26,1.45-.07,2.13-.27,.88-.26,1.73-.32,2.63-.16,.52,.09,1.13,.02,1.5-.36,.42-.42,.15-.97-.07-1.43-1.07-2.2-2.47-4.16-4.35-5.76-.33-.28-.8-.47-.72-1.03,1.29,.56,2.27,1.53,3.23,2.52,.42,.39,.85,.76,1.18,1.22,.11,.11,.22,.23,.33,.34Z"/>
    <path class="cls-75" d="M108.25,74.28c.53,.85,1.42,1.33,2.1,2.04,1.39,1.47,2.45,3.13,3.3,4.94,.25,.52,.35,1.22-.09,1.49-.48,.3-1.21,.54-1.8,.29-.66-.27-1.39-.15-1.88,.02-.77,.27-1.61,.22-2.33,.62-.08,.04-.22,.02-.31-.02-1.67-.75-3.33-1.52-5-2.27-.38-.17-.42-.49-.43-.84-.04-.63,.04-1.22,.51-1.7,.23,.12,.44,.25,.67-.03,.36-.43,.7-.27,.97,.11,.3,.42,.61,.56,1.04,.17,.16-.15,.35-.11,.56-.04,.89,.32,1.76,.34,2.54-.31,.16-.13,.36-.26,.54-.17,.77,.4,1.48-.04,2.32-.1-.58-1.14-1.44-1.95-2.32-2.71-1.2-1.03-2.48-1.94-3.77-2.86-.54-.38-.9,.08-1.34,.01,.04-.63,.27-1.06,.99-1.01,1.23,.81,2.62,1.37,3.74,2.35Z"/>
    <path class="cls-69" d="M84.89,107.47c-1.19,.59-2.51,.19-3.74,.5-1.15,.29-2.33,.18-3.5,.23-3.12,.14-6.24-.04-9.32-.43-2.85-.36-5.71-.72-8.54-1.35-2.16-.48-4.3-.98-6.4-1.67-.24-.14-.25-.3,0-.43,.29-.15,.62-.15,.91-.02,.86,.38,1.82,.38,2.67,.79,.45,.21,.94,.13,1.43,.08-2.69-.72-5.27-1.75-7.88-2.69-.93-.34-1.79-.82-2.73-1.15-.27-.09-.68-.23-.42-.7,.19-.09,.39-.06,.58,.01,3.35,1.27,6.79,2.23,10.25,3.15,3.26,.87,6.51,1.9,9.86,2.29,3.26,.39,6.55,.88,9.85,.62,2.57-.21,5.16-.34,7.71-.77,.19-.03,.39-.03,.59-.03,.28,.01,.58-.02,.83,.16,.12,.52-.33,.51-.6,.57-.65,.16-1.32,.26-2.05,.27,.6,.08,1.21-.13,1.74,.32-.42,.34-.88,.04-1.25,.25Z"/>
    <path class="cls-14" d="M35.3,81.39c-.5-1.16-1.48-2.08-1.72-3.37,.37-.09,.46,.25,.66,.43,1.27,1.5,2.44,3.08,3.89,4.43,1.09,1.02,2.19,2.03,3.48,2.79,1.32,.77,2.72,1.44,4.45,1.73-.4-.51-.82-.69-1.15-.97-.21-.18-.61-.25-.46-.68,.11-.07,.23-.1,.35-.11,.69,.09,1.23,.54,1.86,.77,.82,.29,1.64,.56,2.54,.56,.88,0,1.72,.24,2.42,.85,.64,.56,.64,.88-.09,1.55,.5,.16,.95,.13,1.4,0,.32-.09,.64-.24,.98-.08,.15,.12,.26,.25,.15,.45-1.12,.45-2.25,.7-3.44,.19,.54,.23,1.08,.41,1.6,.66,.2,.1,.41,.23,.39,.5-.02,.26-.21,.39-.43,.47-1.71,.64-3.47,.99-5.3,.67-1.37-.24-2.73-.34-4.12-.29-.87,.03-1.61,.49-2.45,.63-.5,.08-.98,.21-1.5,.09-.21-.05-.47-.13-.62,.11-.13,.22,.03,.43,.13,.63,.22,.43,.67,.69,.79,1.19,.01,.14-.02,.27-.11,.38-.98-.37-2.3-2.32-2.26-3.32,.03-.63,.38-1,.96-.93,1.06,.12,2.08-.1,3.11-.24,2.52-.36,5,.1,7.5,.26,.45,.03,.89,.12,1.56-.07-1.65-.65-3.04-1.41-4.52-1.94-1.31-.47-2.45-1.23-3.58-2-.23-.16-.43-.36-.72-.41-1.63-.94-3-2.22-4.31-3.55-.47-.48-.9-.99-1.45-1.39Z"/>
    <path class="cls-88" d="M47.29,100.72c.76,.76,1.84,.9,2.77,1.34,1.2,.58,2.54,.87,3.77,1.4,1.63,.69,3.38,.97,5.2,1.74-.88,.36-1.61,.4-2.32,.05-.86-.42-1.86-.33-2.72-.77-.09-.04-.69-.38-.6,.29-1.51-.42-2.96-.99-4.41-1.61-1.5-.64-2.97-1.34-4.34-2.19-3.33-2.06-6.44-4.39-8.54-7.81-.78-1.28-1.37-2.64-1.69-4.12-.23-1.04-.19-2.02,.39-2.98,.64-1.05,.67-2.38,1.39-3.42,.2-.17,.37-.07,.52,.08,1.07,1.08,2.21,2.08,3.42,3,.21,.16,.4,.34,.3,.64-.1,.29-.37,.33-.63,.33-.84,.02-1.68,.06-2.53,.17-1.3,.17-2.24,1.36-2.06,2.69,.2,1.52,.91,2.83,1.8,4.03,2.26,3.03,5.29,5,8.82,6.23,.08,.01,.16,.03,.24,.05,.15,.05,.29,.12,.43,.21,.27,.21,.6,.33,.79,.64Z"/>
    <path class="cls-34" d="M62.7,71.25c.19,.72-.39,.42-.68,.51-.34,.3-.75,.25-1.12,.13-2.08-.68-4.23-1.08-6.27-1.9-2.3-.92-4.62-1.79-6.47-3.53-.39-.37-.84-.65-1.37-.8,.06-.44,.15-.88,.18-1.33,.18-2.23,1.45-3.95,2.69-5.67,.2-.28,.43-.61,.86-.62,.1,.37-.21,.55-.38,.79-.66,.96-1.3,1.99-1.21,3.16,.09,1.19,.41,2.39,1.36,3.27,.07,.05,.13,.1,.19,.16,2.18,2.38,5.08,3.46,8.03,4.46,.09,.02,.17,.04,.25,.07,.99,.49,2.07,.69,3.14,.93,.3,.07,.62,.1,.82,.37Z"/>
    <path class="cls-29" d="M103.18,68.54c-.1-.56-.31-.54-.73-.23-.68,.49-1.27,1.07-1.96,1.56-1.52,1.07-3.26,1.3-4.98,1.65-.24,.05-.48-.04-.74-.27,2.93-1.74,6.33-2.82,8.05-6.07-1.66,.92-2.81,2.63-4.73,3.12,.7-.64,1.5-1.15,2.05-1.94,.08-.42,.41-.7,.63-1.04,1.42-1.69,1.6-4.04,.2-5.89-.16-.21-.43-.39-.31-.73,1.47,1.13,2.94,2.24,2.88,4.38-.05,1.69,.08,3.39-.18,5.08-.02,.13-.11,.25-.16,.37Z"/>
    <path class="cls-54" d="M45.43,66.52c.39,.03,.72-.11,1.03-.34,.71-.1,1.26,.32,1.75,.7,2.75,2.09,5.97,3.07,9.2,4.07,2.15,.67,4.34,1.11,6.55,1.52,.34,.2,1.04-.13,.99,.66-.38,.29-.76,.07-1.12,0-1.51-.29-3.01-.59-4.52-.84-.09-.02-.18-.05-.27-.08-2.05-.6-4.13-1.11-6.18-1.72-.76-.23-1.52-.41-2.23-.77-.53-.27-.81-.05-.85,.5-.05,.79-.02,1.57,.05,2.36,.13,1.37,.26,2.76-.12,4.11-.12,.41-.2,1.05-.72,1.02-.58-.03-.52-.71-.66-1.15-.07-.22-.06-.45-.06-.67,.04-.5-.03-.99-.26-1.45,.02-1.69-.54-3.3-.79-4.96-.09-.6-.32-1.18-.51-1.77-.11-.37-.39-.6-.74-.76-.21-.1-.52-.09-.53-.44Z"/>
    <path class="cls-30" d="M63.89,72.6c-4.69-.67-9.19-2.02-13.47-4.04-1.4-.66-2.49-1.84-3.96-2.39,.11-.17,.22-.34,.34-.51,.29-.19,.55-.21,.83,.06,2.25,2.26,5.13,3.39,8.04,4.41,1.41,.49,2.84,1,4.36,1.16,.65,.07,1.26,.59,2,.46,1,.62,2.17,.46,3.25,.65,4.43,.78,8.91,.98,13.4,.85,1.56-.05,3.11-.45,4.69-.32,2.04-.11,4.07-.42,6.11-.58,1.7-.13,3.37,.27,5,.68,1.29,.33,2.22,1.2,2.38,2.66,.19,1.71,.34,3.43-.17,5.11-.22,.75,0,1.6-.54,2.27-.58,.04-.42-.42-.4-.69,.05-.65,.16-1.29,.29-1.92,.28-1.44,.13-2.87-.08-4.3-.15-.97-.52-1.89-1.47-2.35-.57-.28-1.26-.24-1.9-.33-1.48-.49-2.97-.5-4.48-.19-.41,.09-.84,.03-1.26,.04-3.28,.15-6.56,.48-9.84,.43-1.93-.03-3.88,.04-5.81-.2-1.17-.15-2.35-.33-3.51-.33-1.32,0-2.51-.46-3.77-.64Z"/>
    <path class="cls-51" d="M45.94,100.04c-1.83-.56-3.53-1.4-5.11-2.49-1.44-.99-2.67-2.2-3.76-3.57-1.07-1.36-1.87-2.84-2.12-4.57-.19-1.26,1.05-2.62,2.32-2.77,.87-.11,1.73-.14,2.6-.15,.17,0,.36,.02,.43-.18,.07-.19-.04-.33-.19-.43-1.4-.95-2.54-2.2-3.83-3.27-.69,0-.7-.65-1.01-1.02,0-.06,.02-.12,.03-.19,.74-.1,.95,.59,1.31,.97,1.34,1.42,2.83,2.66,4.42,3.79,.64,.4,1.25,.86,1.87,1.29,.19,.13,.53,.19,.37,.55-.14,.31-.42,.37-.71,.31-.78-.17-1.55-.21-2.34-.08-1.05,.18-2.12,.21-3.18,.36-.87,.12-1.15,.46-1.21,1.33-.06,.95,.26,1.79,.76,2.54,1.76,2.65,4,4.77,6.97,6.02,.31,.13,.61,.27,.91,.43,.29,.21,.62,.36,.95,.5,.26,.12,.6,.21,.52,.62Z"/>
    <path class="cls-53" d="M102.66,101.9c3.31-1.78,6.58-3.62,9.11-6.49,2.33-2.64,3.75-5.68,4.1-9.2,.06-.64,.22-1.27,.16-1.92,.47,2.1,.28,4.17-.46,6.17-1.34,3.58-3.88,6.19-6.88,8.42-2.67,1.98-5.51,3.69-8.59,4.94-1.81,.74-3.65,1.4-5.57,1.82-.09-.4,.23-.44,.48-.55,.74-.33,1.49-.65,2.23-.99,1.36-.35,2.61-.98,3.89-1.52,.52-.19,1.01-.47,1.52-.68Z"/>
    <path class="cls-35" d="M34.09,78.53c-.17-.17-.34-.34-.51-.51-.11-.23-.23-.45-.34-.68-.18-.49-.15-1.03-.34-1.52h0c-.34-2.21-.21-4.32,1.2-6.19,1.16-1.21,2.41-2.27,4.14-2.58,.56-.1,1.12-.12,1.68-.09,1.18,.06,2.3-.14,3.38-.6,.49-.21,.97-.25,1.47-.03h0c1.46,.8,2.43,1.96,2.62,3.67,.06,.58,.27,1.14,.26,1.73,.02,.18,0,.34-.1,.49-.61,.11-.4-.39-.45-.64-.24-1.19-.5-2.34-1.5-3.19-.82-.69-1.15-.65-1.58,.37-.03,.08-.08,.15-.15,.19-.37,.1-.65-.14-.96-.25-1.9-.65-3.82-.94-5.74-.1-1.06,.46-1.92,1.16-2.43,2.22-.1,.2-.18,.42-.43,.48-.41-.08-.46,.24-.52,.5-.44,1.9-.51,3.78,.24,5.63,.14,.35,.4,.71,.08,1.1Z"/>
    <path class="cls-85" d="M69.12,52.25c.55-.22,1.14-.29,1.72-.29,3.19-.01,6.39-.22,9.55,.06,3.28,.29,6.61,.64,9.78,1.65,2.26,.72,4.58,1.26,6.68,2.45,.98,.56,1.93,1.13,2.76,1.91,1.42,1.16,2.46,2.52,2.36,4.48-.01,.29,.04,.62-.27,.82-.33-.2-.24-.54-.27-.83-.18-1.55-.8-2.86-2.04-3.84-.66-.53-1.25-1.15-2.02-1.51-1.98-1.27-4.13-2.11-6.43-2.6-.31,0-.62-.02-.89-.2-.84-.7-1.91-.59-2.88-.86-.09-.01-.17-.03-.26-.06-1.4-.23-2.78-.55-4.21-.57-.14,0-.28-.03-.42-.06-1.42-.09-2.83-.4-4.26-.18-.37,.06-.73,0-1.08-.09-.75-.19-1.52-.25-2.25-.08-1.79,.41-3.57-.06-5.35,.02-.09-.04-.17-.1-.22-.19Z"/>
    <path class="cls-28" d="M34.24,69.72c-1.11,1.52-1.41,3.26-1.35,5.1,.01,.34,0,.67,0,1.01-.44-.89-.37-1.85-.28-2.79,.07-.77,.3-1.53,.46-2.3,.52-1.56,1.63-2.64,2.95-3.53,1.28-.87,2.47-1.93,4.16-1.88,1.15,0,2.3-.07,3.36,.52-1.19,.09-2.38,.22-3.49,.67-1.41,.58-3,.67-4.25,1.69-.57,.46-1.09,.96-1.56,1.52Z"/>
    <path class="cls-67" d="M52.03,57.18c2.03-1.59,4.44-2.39,6.84-3.17,2.57-.83,5.22-1.29,7.9-1.66,.79-.11,1.57-.07,2.36-.11,0,0,.01,.05,.01,.05-.06,.4-.4,.34-.66,.36-4.39,.29-8.54,1.6-12.64,3.09-1.54,.56-2.91,1.47-4.21,2.46-.81,.62-1.46,1.4-1.89,2.34-.13,.27-.18,.6-.52,.73-.34-.35-.15-.7,0-1.05,.59-1.33,1.55-2.32,2.8-3.06Z"/>
    <path class="cls-19" d="M34.24,69.72c.44-1.01,1.31-1.61,2.21-2.09,1.73-.92,3.66-1.31,5.51-1.92,.55-.18,1.04,.17,1.58,.13,.41,.15,.89,.13,1.22,.49-.67-.1-1.26,.2-1.86,.43-.88,.33-1.78,.49-2.72,.42-2.21-.16-4.06,.58-5.55,2.23-.11,.12-.26,.21-.39,.31Z"/>
    <path class="cls-80" d="M35.27,81.58c.48,.19,.54,.82,1.01,1.02-.4,1.19-.65,2.45-1.25,3.53-.53,.96-.64,1.89-.62,2.91-.51-1.8-.52-3.58,.13-5.35,.26-.7,.48-1.41,.72-2.12Z"/>
    <path class="cls-72" d="M40.18,65.32c-2.14,.37-3.67,1.81-5.31,3.05-.81,.61-1.21,1.57-1.8,2.37,.28-1.39,.78-2.69,1.78-3.71,1.46-1.48,3.36-1.74,5.33-1.71Z"/>
    <path class="cls-59" d="M84.89,107.47c.27-.33,.71,0,1.11-.33h-2.15c.96-.82,2.27-.32,3.24-1,.23-.25,.54-.22,.84-.23,.25,.01,.5,.01,.69,.23-.02,.31,.05,.57,.37,.69-1.31,.54-2.69,.71-4.09,.64Z"/>
    <path class="cls-17" d="M97.25,104.1c-.7,.46-1.4,.93-2.2,1.18-.23,.07-.42,.13-.51,.36-1.05,.37-2.11,.69-3.22,.83,.15-.56,.45-.79,1.09-.9,1-.17,1.95-.62,2.92-.93,.63-.2,1.28-.36,1.91-.53Z"/>
    <path class="cls-4" d="M47.47,71.74c.04-2.28-.96-4.04-2.71-5.42,.25-.03,.46,.08,.67,.19,1.26,.19,1.53,1.08,1.76,2.18,.4,1.91,.99,3.78,.97,5.76,.07,.1,.05,.17-.06,.22-.61-.69-.32-1.58-.54-2.36-.05-.18,.05-.39-.08-.57Z"/>
    <path class="cls-65" d="M52.03,57.18c-.92,.94-2.04,1.7-2.61,2.97-.17,.37-.28,.71-.26,1.1,.34,.38,.22,.85,.22,1.28,0,.51,.05,1,.37,1.42,.15,.32,.4,.58,.55,.89,.08,.23,.05,.44-.11,.63-1.03-.92-1.39-2.18-1.49-3.44-.1-1.31,.58-2.46,1.39-3.49,.14-.17,.28-.34,.42-.51,.48-.34,.91-.75,1.52-.86Z"/>
    <path class="cls-8" d="M101.65,63.29c.37-1.09,.18-2.13-.33-3.11-.43-.82-1.13-1.43-1.7-2.15,.44,.07,.68,.45,1.02,.68,.88,1.05,1.64,2.2,1.49,3.63-.12,1.15-.27,2.36-1.32,3.16-.23-.24-.12-.48,0-.72,.37-.44,.53-1.01,.84-1.49Z"/>
    <path class="cls-9" d="M112.66,78.02c-.47-.34-.9-.71-1.18-1.22,.54,.27,1,.61,1.18,1.22Z"/>
    <path class="cls-28" d="M32.89,75.82c.36,.45,.36,.99,.34,1.52-.35-.45-.34-.99-.34-1.52Z"/>
    <path class="cls-17" d="M89.62,106.82c.39-.68,1.03-.2,1.54-.33-.49,.22-1.02,.24-1.54,.33Z"/>
    <path class="cls-10" d="M95.04,91.74c.08-.19,.27-.27,.43-.39,1.02-.75,1.06-.76,1.3,.46,.33,1.6,.92,3.04,2.1,4.2,.37,.37,.44,.91,.55,1.4,.23,1.07,.67,1.36,1.76,1.07,2.24-.6,4.48-1.21,6.63-2.1,1.01-.42,1.96-.94,2.86-1.57,.25-.17,.53-.55,.77-.27,.23,.27-.09,.6-.32,.85-1.48,1.68-3.18,3.11-5.12,4.2-1.68,.95-3.35,1.92-5.13,2.71-3.01,1.33-6.14,2.3-9.31,3.14-.13,.04-.28,.01-.42,.02-.31,.12-.61,.25-.94,.07-.09-.61,.44-.56,.75-.64,1.56-.4,3.08-.91,4.63-1.32,1.36-.37,2.25-1.19,2.82-2.43,.17-.37-.09-.49-.31-.67-1.62-1.26-2.51-2.92-2.59-4.98-.04-.85-.02-1.69,0-2.54,.02-.48-.11-.88-.47-1.21Z"/>
    <path class="cls-32" d="M95.04,91.74c.6-.02,.67,.4,.68,.85,.01,.9,.07,1.81-.01,2.7-.12,1.4,.53,2.51,1.19,3.61,.38,.64,.8,1.26,1.59,1.53,.39,.13,.58,.47,.15,.83-.33,.28-.44,.68-.63,1.05-.48,.91-1.47,1.12-2.36,1.46-1.8,.68-3.74,.92-5.52,1.69-.03,.03-.07,.07-.1,.1-1.24,.35-2.52,.43-3.8,.58-1.97,.22-3.94,.5-5.92,.63-2.24,.15-4.46,.33-6.73,.11-1.58-.15-3.17-.36-4.77-.43-2.07-.09-4.06-.77-6.08-1.21-2.46-.53-4.9-1.17-7.29-1.9-2.49-.75-5.06-1.32-7.44-2.43-.23-.11-.46-.22-.72-.19-.36-.04-.6-.29-.85-.5,.79-.41,1.43,.17,2.13,.32,1.03,.51,2.19,.49,3.28,.76,2.34,.6,4.7,1.12,7.04,1.72,2.76,.7,5.48,1.55,8.26,2.12,2.47,.5,4.99,.78,7.51,.98,3.62,.29,7.19-.07,10.76-.56,2.79-.39,5.56-.96,8.19-1.99,1.13-.44,1.91-1.36,2.25-2.57,.1-.36,.12-.75-.1-1.07-.45-.65-.62-1.45-1.17-2.04-.45-.49-.27-1.09-.02-1.59,.52-1.03,.34-2.16,.55-3.22,.05-.25-.02-.51-.26-.67-.11-.07-.22-.14-.32-.23-.06-.07-.07-.15-.02-.24,.17-.06,.33-.12,.5-.18Z"/>
    <path class="cls-83" d="M103.52,72.94c.71-.86,1.24-.27,1.89,.16,1.53,1.01,2.98,2.1,4.26,3.4,.53,.55,1.17,1.04,1.45,1.81,.12,.35,.26,.66-.32,.46-.28-.1-.49,.01-.73,.08-.13,.04-.3,.16-.39,.12-1.27-.55-2.23,.78-3.44,.54-.16-.03-.39,.02-.48-.07-.36-.36-.58-.33-.92,.08-.34,.42-.65,.04-.86-.26-.33-.46-.52-.85-1.02-.05-.36,.57-.51-.04-.62-.36,.24-1.14,.38-2.3,.74-3.4,.27-.84,.49-1.65,.46-2.52Z"/>
    <path class="cls-18" d="M96.06,83.1c.46-2.56,1.01-5.11,.5-7.73-.2-1.05-.98-1.77-1.86-2.01-1.91-.54-3.88-.95-5.89-.73-1.82,.2-3.63,.35-5.45,.32,.89-.36,1.86-.16,2.8-.41,1.15-.3,2.38-.3,3.58-.44,1.11-.13,2.17,.26,3.25,.4,.73,.09,1.46,.08,2.18,.11,1.21,.05,2.3,.34,3.14,1.31,.56,.65,.82,1.33,.44,2.15-.32,.69-.15,1.44-.24,2.16-.16,1.24-.58,2.38-.84,3.57-.27,1.22-.43,2.47-.73,3.69-.26,1.06-.61,2.09-1.13,3.06-.12,.22-.21,.47-.24,.71-.07,.55,.13,.76,.67,.46,.11,.11,.09,.22,0,.34-.4,.28-.74,.62-1.02,1.02-.79,.46-1.34,.16-1.37-.75,0-.23,.02-.46,.11-.66,.92-2,1.44-4.13,1.93-6.26,.03-.11,.09-.2,.17-.28Z"/>
    <path class="cls-31" d="M96.06,83.1c-.15,1.97-.81,3.81-1.47,5.65-.14,.4-.36,.76-.48,1.17-.27,.94,.17,1.38,1.1,1.15-.09,.39-.65,.41-.67,.85,0,.05-.02,.1-.02,.15-.07,.2-.24,.26-.43,.26-1.1-.07-1.57-.76-1.17-1.85,.58-1.58,1.1-3.19,1.46-4.83,.55-2.55,1.05-5.11,.94-7.74-.04-.88-.28-1.72-.46-2.56-.15-.7-.62-1.24-1.37-1.48-.32-.1-.75-.11-.81-.59,2.54,.18,3.3,1.05,3.59,3.56,.23,1.9,.02,3.72-.34,5.56-.05,.24-.11,.5,.13,.7Z"/>
    <path class="cls-59" d="M90.13,105.46c.34,0,.68,0,1.02,0-.64,.53-1.38,.73-2.2,.68,.04-.48,.48-.4,.77-.54,.13-.07,.3-.01,.42-.14Z"/>
    <path class="cls-31" d="M96.23,90.04c0-.11,0-.22,0-.34,.67-.53,.96-1.4,1.69-1.86-.45,.82-.94,1.61-1.69,2.2Z"/>
    <path class="cls-69" d="M89.79,105.63c-.19,.32-.62,.24-.85,.51-.11,0-.22,0-.34,0-.23,0-.45,0-.68,0,.54-.48,1.17-.62,1.86-.51Z"/>
    <path class="cls-17" d="M102.66,101.9c-.45,.35-.93,.64-1.52,.68,.45-.36,.93-.64,1.52-.68Z"/>
    <path class="cls-58" d="M100.98,64.82c-.11,.21-.23,.42-.17,.68-.19,.32-.36,.65-.68,.87-.25,.05-.38,.37-.68,.31-.12-.26,.1-.41,.19-.61,.08-.13,.18-.25,.3-.35,.06-.05,.12-.1,.19-.15,.34-.29,.25-.57,0-.88-1.48-1.89-3.28-3.37-5.47-4.4-2.51-1.18-5.17-1.89-7.83-2.58-.41-.11-.84-.1-1.25-.21-2.97-.51-5.94-.99-8.96-.91-.42,.01-.84-.01-1.21,.28-.23,.18-.54,.21-.81,.1-.72-.27-1.44-.23-2.16-.05-.78,.2-1.56,.09-2.34,.02-1.81-.16-3.58,.24-5.35,.53-2.14,.35-4.23,.9-6.25,1.68-2.97,1.06-5.61,2.62-7.68,5.05-.2,.23-.38,.5-.67,.64-.25-.17-.49-.34-.51-.68-.05-.08-.06-.16-.02-.25,.02-.17,.06-.35,.17-.47,1.96-2.21,3.72-4.66,6.93-5.28,1.04-.2,2.04-.63,3.02-1.04,.91-.39,1.82-.57,2.79-.39,.55,.1,1.07,.13,1.44-.41,.06-.09,.16-.21,.26-.2,.96,.08,1.74-.76,2.73-.51,.23,.06,.46,.04,.64-.11,.64-.54,1.19-.3,1.73,.16,.46,.39,.95,.7,1.6,.64,1.45-.15,2.89-.38,4.35-.28,.1-.05,.23-.08,.28-.18,1.31-2.62,3.55-3.41,6.26-3.05,2.47,.33,4.97,.62,7.36,1.44,.91,.31,1.8,.65,2.66,1.06,1.65,.79,3.41,1.29,5.05,2.13,1.59,.82,2.59,2.13,3.38,3.65,.39,.75,.57,1.59,.89,2.37,.2,.49-.02,.93-.17,1.38Z"/>
    <path class="cls-50" d="M62.7,71.25c-1.39-.3-2.84-.4-4.06-1.23,.2-.44,.55-.21,.79-.13,3.39,1.11,6.94,1.38,10.44,1.95,.28,.05,.56,.02,.85,.02,3.04,0,6.08,.02,9.12,0,2.32-.01,4.59-.42,6.86-.78,1.3-.21,2.62-.35,3.87-.82,.66,.08,1.26-.55,1.95-.18-.78,.75-1.87,.71-2.81,.97-1.69,.47-3.43,.75-5.18,.92-.89,.09-1.78,.23-2.67,.29-1.9,.13-3.81,.36-5.71,.32-3.36-.08-6.73-.17-10.06-.77-.38-.07-.79-.04-1.18-.05-.05,.05-.1,.05-.15,0-.68-.17-1.37-.33-2.05-.5Z"/>
    <path class="cls-24" d="M92.51,70.07c-.62-.04-1.13,.52-1.78,.34-.1,.03-.14,0-.13-.11,.06-.12,.16-.19,.28-.24,.53-.18,1.08-.31,1.61-.5,1.18-.46,2.37-.89,3.54-1.38,.76-.32,1.45-.74,2.11-1.22,.07-.05,.14-.08,.21-.12,.55-.07,.73-.9,1.41-.7-.11,.18-.21,.35-.32,.53-2,1.76-4.44,2.64-6.93,3.4Z"/>
    <path class="cls-34" d="M64.75,71.75c.05,0,.1,0,.15,0,.15,.25,.45,.12,.82,.29h-2.01c.36-.43,.74-.22,1.04-.3Z"/>
    <path class="cls-10" d="M89.79,105.63c-.67-.01-1.26,.27-1.86,.51-.28,0-.56,0-.85,0-.28,0-.57,0-.85,0,1.29-.25,2.56-.68,3.9-.68-.07,.14-.2,.17-.34,.17Z"/>
    <path class="cls-16" d="M38.99,94.62c-.34-.51-.88-.87-1.08-1.49-.21-.62-.05-.88,.56-.73,1.15,.27,2.17-.12,3.23-.48,1.3-.44,2.69-.35,3.97-.09,2.21,.46,4.32,.28,6.42-.44,.16-.06,.34-.09,.37-.29,.03-.22-.18-.28-.33-.32-.59-.17-1.11-.55-1.75-.58-.21,0-.46-.06-.46-.28,.01-.34,.33-.19,.53-.23,.03,0,.06,0,.08,0,1.17,.49,2.35,.15,3.52,0,.21,.03,.43,.07,.34,.37-.33,.21-.72,.03-1.06,.16-.14,.04-.28,.04-.4,.14-.05,.05-.06,.11,0,.14,.87,.6,.85,.89-.09,1.37-.72,.37-1.34,.81-1.51,1.69-.1,.49-.54,.78-.86,1.13-.62,.66-.64,1.05-.05,1.75,.34,.4,.8,.61,1.26,.84,1.84,.89,3.86,1.03,5.81,1.43,2.24,.45,4.4,1.22,6.65,1.64,.19,.04,.6,.01,.35,.45-.95,.34-1.84-.07-2.72-.28-2.33-.54-4.65-1.04-7.03-1.36-1.69-.23-3.34-.79-4.86-1.61-.8-.43-1.65-.71-2.58-.67-1.32,.06-2.64-.07-3.96-.03-1.82,.05-3.36-.6-4.35-2.24Z"/>
    <path class="cls-66" d="M54.4,90.05c-.11-.11-.22-.23-.33-.34-.06-.11-.11-.23-.17-.34-.13-.12-.36-.23-.07-.42,.17-.04,.33,0,.57,.1-.55-1.57-.98-3.09-1.11-4.69-.08-.99-.05-1.97,.57-2.83,.23-.31,.24-.66,.19-1.05-.28-2.14-.55-4.29-.55-6.46,0-1.65,.74-2.13,2.41-2.1,2.61,.04,5.1,.8,7.67,1.04,1.42,.32,2.89,.26,4.31,.58,.19,.04,.39,.06,.55,.19,.08,.08,.09,.17,.04,.27-.26,.22-.57,.18-.87,.19-1.1,.06-2.2-.07-3.28-.22-.82-.3-1.71-.18-2.53-.47-.46-.35-1.01-.38-1.53-.37-1.03,0-2.08-.04-3.1,.19-.97,.22-1.41,.87-1.27,1.87,.11,.76,.13,1.51,.11,2.27-.03,1.08,.12,2.12,.35,3.17,.3,1.38,.38,2.79-.05,4.17-.19,.61-.15,1.22,.03,1.83,.85,2.82,2.18,5.35,4.29,7.44,.57,.57,.5,.83-.28,1.06-1.16-.49-2.09-1.31-2.99-2.15-.82-.77-1.68-1.5-2.52-2.25-.21-.19-.51-.32-.42-.69Z"/>
    <path class="cls-40" d="M38.99,94.62c.17,.14,.36,.27,.51,.43,1.35,1.36,2.95,1.56,4.83,1.56,2.03,0,4.14-.27,6.13,.95,1.44,.88,3.2,1.31,4.95,1.47,1.81,.16,3.59,.57,5.35,1.02,1.25,.31,2.48,.69,3.79,.67,.77-.34,1.47,.22,2.22,.17,.21-.02,.44,.09,.67,.1,3.18,.08,6.37,.35,9.55,.15,4.47-.28,8.77-1.16,12.4-4.05,.67-.53,1.44-.99,1.77-1.86,.04-.29,.2-.52,.4-.72,.21-.2,.44-.37,.75-.38,.78,.19,.56,.7,.26,1.08-.62,.8-1.26,1.59-2.02,2.27-2.08,1.83-4.55,2.84-7.16,3.66-3.68,1.17-7.46,1.1-11.23,.96-4.13-.15-8.24-.65-12.29-1.52-1.71-.37-3.41-.7-5.16-.85-1.27-.1-2.46-.61-3.66-.99-1.7-.54-3.46-.42-5.18-.67-1.3-.19-2.66-.08-3.89-.67-1.13-.45-1.99-1.29-2.89-2.07-.11-.09-.16-.22-.1-.37,0-.11,0-.23,0-.34Z"/>
    <path class="cls-41" d="M34.09,78.53c-.05-.96-.71-1.72-.79-2.7-.12-1.55-.1-3.07,.37-4.57,.06-.2,.14-.49,.43-.43,.2,.04,.13,.28,.16,.43,.04,.04,.09,.1,.08,.14-.56,2.06,.18,3.86,1.1,5.62,.65,2.18,2.01,3.82,3.9,5.04,1.66,1.07,3.15,2.38,4.83,3.43,.12,.08,.21,.18,.25,.33,.63,.61,1.56,.87,2.09,1.85-2.44-.38-4.48-1.26-6.27-2.72-.67-.55-1.36-1.08-2-1.67-1.56-1.43-2.88-3.07-4.16-4.74Z"/>
    <path class="cls-42" d="M38.99,94.96c.88,.83,1.79,1.63,2.88,2.2,.31,.25,.69,.35,1.05,.51,.17,.07,.42,.09,.26,.38-.15,.12-.32,.13-.5,.08-1.75-.89-3.3-2.01-4.56-3.54-.53-.65-1.1-1.28-1.53-2.01-.17-.29-.34-.59-.44-.91-.47-1.49-.05-2.05,1.52-2.21,1.32-.13,2.64-.24,3.95-.42,1.44-.2,2.87-.11,4.33,.39-.17-.42-.75-.43-.69-.91,.32-.02,.58,.09,.87,.23,1.24,.63,2.5,1.21,3.82,1.63,.16,.05,.35,.05,.34,.27,0,.17-.16,.2-.29,.26-.4,.19-.83,.17-1.24,.14-1.2-.1-2.4-.2-3.59-.35-2.04-.25-4.06-.08-6.06,.25-.4,.07-.76,.06-1.15-.02-.71-.16-1.05,.19-1,.92,.06,.78,.56,1.34,.97,1.93,.3,.43,.7,.79,1.06,1.18Z"/>
    <path class="cls-62" d="M45.26,88.52c.32,.22,.64,.44,.97,.66,.14,.09,.35,.16,.29,.36-.07,.27-.33,.19-.5,.15-.38-.08-.75-.22-1.14-.31-1.51-.38-3.02-.11-4.52,.02-1.03,.09-2.06,.23-3.09,.3-.85,.06-1.19,.46-1.04,1.3,.41,2.23,2,3.66,3.54,5.07,.86,.78,1.84,1.47,2.94,1.93,.28,.19,.7,.1,.89,.46,.03,.08,.01,.15-.04,.21-2.23-.81-3.99-2.25-5.54-3.99-.91-1.03-1.79-2.08-2.25-3.42-.23-.67-.2-1.34-.13-2,.06-.51,.55-.87,1.02-.88,2-.03,3.96-.83,5.98-.26,.21,.06,.41,.02,.5-.2,.08-.22-.14-.26-.27-.36-.61-.48-1.36-.79-1.85-1.43,.77,.03,1.15,.72,1.76,1.04,.83,.43,1.62,.95,2.48,1.33Z"/>
    <path class="cls-78" d="M53.73,89.03c.06,.11,.11,.23,.17,.34-.98,.19-1.94,.63-2.95,.05-.03-.29,.25-.23,.4-.29,.73-.32,.76-.6,.18-1.12-.58-.52-1.29-.81-1.99-.8-1.65,.03-3.06-.61-4.47-1.31-.1-.05-.21-.06-.32-.09-.98-.53-1.96-1.06-2.54-2.1-.22-.39-.69-.55-1.03-.84-.25-.21-.66-.37-.44-.85,.31-.11,.56,.03,.78,.2,1.15,.86,2.46,1.48,3.42,2.6,.6,.71,1.44,1.06,2.35,1.26,.74,.16,1.49,.3,2.25,.39,1.81,.19,3.27,.94,4.2,2.57Z"/>
    <path class="cls-43" d="M40.69,82.08c.21,.46,.66,.67,1.05,.93,.31,.21,.62,.4,.79,.73,.37,.73,.97,1.21,1.69,1.55,.24,.11,.42,.28,.53,.51-.11,0-.23,0-.34,0-.94-.4-1.71-1.05-2.5-1.68-1.59-1.26-3.46-2.18-4.84-3.72-.85-.94-1.41-2.05-1.8-3.26,.45-.03,.53,.39,.75,.63,.2,.37,.49,.64,.85,.85,1.01,1,2.1,1.91,3.25,2.75,.24,.18,.49,.37,.56,.7Z"/>
    <path class="cls-52" d="M94.18,92.23c.11-.05,.22-.1,.34-.16,.12,0,.24,0,.35,0,.28,.17,.36,.45,.33,.73-.11,1.09-.06,2.2-.59,3.21-.3,.57-.57,1.17-.87,1.74-.49,.9-.5,1.82-.16,2.76,.25,.68-.01,1.21-.51,1.66-1.9,1.7-4.15,2.61-6.64,3.08-2.38,.45-4.76,.8-7.18,.92-2.99,.14-5.92-.08-8.86-.67-3.29-.66-6.57-1.34-9.82-2.15-2.62-.65-5.27-1.19-7.88-1.86-1.37-.35-2.81-.49-4.2-.78-.67-.19-1.32-.51-2.04-.5-.11-.06-.22-.12-.33-.18,.21-.57,.67-.37,1.05-.3,1.48,.29,2.97,.57,4.46,.77,.1,0,.19,.03,.28,.05,1.64,.18,3.22,.7,4.87,.81,2.42,.63,4.9,1.03,7.34,1.58,1.25,.48,2.59,.53,3.88,.68,1.34,.15,2.65,.43,3.98,.64,1.55,.24,3.12,.46,4.68,.56,1.04,.06,2.12-.2,3.18-.25,1.24-.06,2.47-.02,3.67-.42,2.3-.18,4.06-1.25,5.4-3.13,.55-.77,1.27-1.42,2-2.03,1.7-1.42,3.04-3.07,3.38-5.36,.05-.33,.21-.66-.09-.95-.07-.11-.1-.23-.07-.35,.02-.03,.05-.07,.07-.1Z"/>
    <path class="cls-62" d="M51.69,100.72c-1.54-.12-3.04-.47-4.55-.76-.36-.07-.71-.21-1.04,.08-.06,0-.11,0-.17,0-.32-.63-1.21-.38-1.53-1.01,.48-.27,.87,.1,1.31,.19,1.72,.41,3.48,.59,5.22,.93,.35,.07,.76,.04,.76,.57Z"/>
    <path class="cls-7" d="M90.73,70.41c-2.22,.77-4.55,1-6.86,1.33-4.6,.65-9.23,.54-13.83,.27-3.61-.22-7.22-.77-10.69-1.9-.22-.07-.46-.26-.72-.08-.04-.02-.08-.03-.13-.05-.52-.08-.95-.42-1.46-.53-.15-.03-.19-.18-.05-.31,.36-.19,.69-.04,1.05,.04,1.41,.31,2.72,.98,4.17,1.09,1.59,.55,3.28,.62,4.92,.9,.59,.1,1.22,.08,1.82,.18,.25,0,.49,.03,.74,.08,1.4,.25,2.81,.27,4.23,.25,1.42,0,2.84,0,4.26,0,1.15,.06,2.29-.07,3.42-.26,.24-.05,.48-.08,.73-.08,1.79-.11,3.54-.49,5.31-.68,.43-.04,.81-.22,1.22-.32,.57-.12,1.15-.35,1.71,.04,.05,.02,.1,.03,.15,.03Z"/>
    <path class="cls-63" d="M50.15,64.83c.55-1.09,1.53-1.79,2.37-2.6,1.63-1.56,3.68-2.43,5.77-3.18,.15-.12,.32-.08,.49-.05,.09,.46-.33,.46-.56,.57-1.14,.54-2.35,.94-3.43,1.63-.31,.2-.65,.33-.88,.64-.89,.84-1.93,1.53-2.67,2.54-.27,.37-.49,.73-.58,1.17-.12,.05-.23,.03-.34-.04-.05,0-.09,0-.13-.03-.01-.22-.02-.43-.03-.65Z"/>
    <path class="cls-23" d="M50.31,65.51c.11,0,.22,0,.33,0,.13-.01,.23,.04,.33,.11,.83,.61,1.59,1.32,2.52,1.79,.91,.49,1.83,.94,2.8,1.31,.26,.1,.51,.23,.64,.5,.5,.3,1.14,.29,1.57,.75-.81,.18-1.45-.38-2.12-.63-1.91-.69-3.74-1.58-5.27-2.98-.29-.26-.54-.57-.8-.85Z"/>
    <path class="cls-5" d="M40.69,82.08c-1.33-1.09-2.8-2.03-3.93-3.35,.05-.07,.12-.11,.2-.13,.08,0,.16,.01,.24,.04q.79,.51,1.31-.23c.47-.68,1.09-1.22,1.68-1.78,1.4-1.3,2.77-2.64,4.46-3.58,.42-.23,.59-.58,.59-1.04,.05-.25,.12-.49,.36-.64,.39,.06,.34,.4,.39,.65,.16,.81,.42,1.58,.64,2.37,.08,.27,.21,.53,.4,.74,.19,.2,.36,.51,.67,.45,.32-.07,.17-.43,.26-.65,.04-.11,.09-.21,.17-.29,0-.06,.01-.13,.02-.19,.41,.38,.32,.89,.33,1.37-.18,.29-.31,.58-.18,.95,.75,1.98,1.07,4.07,1.67,6.1,.21,.7,.54,1.29,1,1.83,.18,.21,.38,.45,.25,.76-.14,.34-.46,.38-.77,.41-.48,.04-.95-.03-1.43-.12-.35-.07-.7-.19-1.19-.1,.45,.34,.88,.35,1.27,.39,.7,.08,1.4,.17,2.09,.29,.75,.13,.91-.08,.59-.85-.69-1.68-1.13-3.42-1.52-5.18-.21-.94-.24-1.87-.11-2.84,.24-1.76,.09-3.54,.08-5.32,0-1.06,.14-1.15,1.2-1.25,1.92-.18,3.75,.15,5.57,.69,.7,.21,1.44,.25,2.12,.52h0c1.39,.24,2.76,.58,4.16,.77,.15,.02,.27,.06,.24,.25-1.67,0-3.25-.57-4.89-.75-1.27-.14-2.56-.25-3.84-.13-.81,.08-1.1,.63-1.1,1.43,.02,2.36,.2,4.7,.65,7.02,.05,.27,.02,.52-.14,.72-1.07,1.34-.8,2.83-.5,4.32,.26,1.31,.55,2.62,1.28,4-.55-.33-.83-.68-1.28-.7-.15-.07-.37-.09-.44-.21-1.08-1.95-3.05-2.03-4.9-2.32-1.59-.25-2.94-.76-4.1-2.01-.97-1.05-2.26-1.82-3.6-2.41Z"/>
    <path class="cls-77" d="M92.67,73.28c.28,.27,.65,.32,1,.41,.93,.24,1.33,1.01,1.5,1.77,.28,1.24,.47,2.54,.45,3.81-.02,1.37-.32,2.73-.53,4.09-.3,1.96-.83,3.87-1.42,5.77-.11,.35-.22,.7-.38,1.03-.6,1.29-.39,1.79,.89,2.08,0,0,.02,.04,.02,.04-.53,.48-.9,1.17-1.7,1.31-1.59-.47-1.86-1.17-1.12-2.63,.79-1.56,1.28-3.2,1.43-4.98,.15-1.7,.53-3.39,.71-5.1,.13-1.23,.17-2.47,.05-3.71-.23-2.44-1.38-3.5-4.02-3.67-2.27-.14-4.54,.23-6.81,.5-3.48,.15-6.96,.12-10.44,0-2.49-.08-4.96-.42-7.42-.89-.12-.62-.79-.1-1.02-.5,1.95,.21,3.89,.42,5.84,.62,.86,.09,1.73,.21,2.6,.22,2.95,.03,5.9,.14,8.83-.03,2.96-.17,5.94-.2,8.89-.6,.89-.12,1.77,.22,2.63,.47Z"/>
    <path class="cls-33" d="M59.14,72.09c-1.57-.3-3.14-.59-4.7-.92-1.2-.25-2.4,.05-3.6-.08-.4-.04-.41,.36-.41,.62,.06,2.27,.08,4.53-.15,6.82-.15,1.52,.47,3.09,.93,4.59,.28,.91,.62,1.81,.97,2.69,.26,.65,.03,.97-.62,.83-1.15-.25-2.33-.32-3.49-.5-.33-.05-.67-.28-.65-.57,.04-.43,.5-.29,.76-.24,.77,.15,1.53,.37,2.33,.32,.23-.02,.48,0,.58-.25,.1-.23-.1-.37-.24-.49-1.21-1.07-1.39-2.6-1.66-4.02-.25-1.33-.75-2.57-1.09-3.86-.14-.55-.17-.92,.36-1.2,0,.64,.08,1.26,.5,1.87,1.02-1.65,.71-3.38,.59-5.05-.07-.9-.09-1.8-.04-2.69,.04-.61,.34-.91,1.02-.56,1.68,.87,3.58,1.11,5.35,1.71,1.08,.36,2.24,.43,3.25,.99Z"/>
    <path class="cls-33" d="M64.91,73.1c1.49-.07,2.95,.27,4.42,.39,1.17,.09,2.34,.27,3.51,.29,3.34,.04,6.67,.01,10.01,.01,.94-.14,1.89-.1,2.83-.17,.31,.03,.65-.08,.92,.17-.38,.7-1.06,.29-1.59,.42-3.57,.33-7.15,.11-10.72,.15-1.77,.02-3.53-.31-5.3-.35-.2,0-.38-.08-.54-.22-1.66-.08-3.27-.47-4.91-.68-1.35-.28-2.69-.56-4.04-.85-.13-.03-.24-.11-.36-.16,1.76,.14,3.47,.57,5.19,.91,.19,.04,.38,.06,.57,.09Z"/>
    <path class="cls-46" d="M45.6,99.36c-.4-.11-.79-.22-1.19-.34-.28-.11-.56-.23-.84-.34,0-.06,0-.11,0-.17,.2-.2,.45-.19,.7-.14,2.06,.53,4.18,.76,6.28,1.09,1.22,.19,2.45,.29,3.65,.56,2.31,.48,4.64,.85,6.95,1.3,2.34,.46,4.7,.78,7.09,.9,2.8,.14,5.6,.43,8.41,.52,1.57,.05,3.14-.16,4.69-.46,2.42-.47,4.72-1.27,6.87-2.48,1.74-.98,3.26-2.24,4.41-3.87,.53-.76,1.12-1.58,.87-2.64,0-.41,.19-.62,.61-.59,.39,.13,.38,.4,.31,.75-.5,2.4-1.81,4.23-3.77,5.69-1.95,1.46-3.97,2.77-6.26,3.63-.48,.18-.95,.34-1.47,.37-.25,.02-.53,0-.74,.14-.88,.53-1.88,.55-2.85,.66-2.03,.22-4.03,.06-6.03-.33-1.27-.24-2.58-.19-3.87-.26-4.24-.22-8.35-1.18-12.49-1.96-3-.56-5.98-1.26-9.02-1.63-.77-.09-1.53-.26-2.3-.4Z"/>
    <path class="cls-3" d="M44.56,69.58c-.33-.14-.29-.62-.65-.73-.36-.68,.31-.85,.61-1.15,.33-.33,.61,.03,.86,.22,1.26,.96,1.79,2.29,1.91,3.82,.02,.19,0,.4,.16,.54,.34,.78,.42,1.62,.48,2.45,.02,.26,.06,.55-.25,.63-.3,.08-.45-.17-.55-.41-.38-.94-.78-1.88-1.05-2.85-.14-.49-.34-.95-.58-1.39-.24-.44-.6-.77-.93-1.13Z"/>
    <path class="cls-1" d="M45.46,70.55c.85,.66,.87,1.73,1.21,2.62,.22,.58,.69,1.1,.66,1.78,0,.14,.12,.27,.27,.27,.18,0,.2-.17,.2-.31,.02-.56,.04-1.13-.2-1.65-.14-.32-.15-.65-.15-.99,0-.18,0-.35,.01-.53,.48,.91,.37,1.95,.66,2.9-.08,.44,.28,1.12-.32,1.25-.61,.14-.99-.51-1.2-.99-.42-.94-.67-1.95-.84-2.97-.03-.19,.03-.4-.2-.51-.23-.18-.09-.45-.17-.67-.07-.09-.05-.16,.06-.21Z"/>
    <path class="cls-87" d="M49.67,63.96c0,.06-.02,.12-.03,.19-.84-.85-.37-1.92-.49-2.89,1.36-3.41,4.41-4.76,7.47-6.07,1.93-.82,4-1.27,6.01-1.83,1.98-.55,4.03-.92,6.12-.92,.13,0,.25-.09,.38-.14,1.28-.06,2.55-.08,3.84,.07,.81,.09,1.66-.26,2.48-.24,2.2,.06,4.4,.21,6.6,.34,.1,0,.19,.1,.29,.15-.54,.34-1.15,.16-1.72,.16-1.17,0-2.29,.15-3.3,.77-.84,.51-1.51,1.16-1.73,2.17-.04,.2-.17,.35-.32,.48-.36,.09-.74,.2-1.03-.11-.32-.35-.03-.69,.11-1.01,.2-.46,.41-.93,.58-1.41,.07-.21,.17-.46-.07-.62-.22-.15-.43-.02-.63,.09-.34,.19-.54,.49-.62,.87-.09,.42-.33,.79-.4,1.2-.18,.91-.83,1.13-1.6,1.2-.51,.05-.97-.07-1.06-.7-.04-.29-.19-.51-.4-.72-.75-.77-.7-1.08,.22-1.7,.07-.05,.15-.09,.23-.33-.92-.19-1.82-.16-2.71-.03-3.41,.52-6.71,1.5-9.99,2.52-2.46,.76-4.74,1.95-6.62,3.78-1.25,1.21-1.68,2.69-1.55,4.38,0,.13,.01,.26-.08,.37Z"/>
    <path class="cls-64" d="M75.23,56.17c.23-1.32,.94-2.28,2.11-2.93,.78-.44,1.63-.54,2.48-.61,.84-.06,1.68-.01,2.52-.02,.11,0,.22,0,.33,0,1.46,.28,2.94,.4,4.4,.68h0c1.02,.28,2.06,.46,3.05,.85,.24,.28,.56,.12,.85,.17,1.42,.56,2.88,1.01,4.3,1.59,.75,.31,1.41,.78,2.14,1.12,.58-.09,.82,.43,1.18,.69,1.36,.97,2.47,2.13,2.9,3.83,.15,.59,.1,1.16,.14,1.74,.06,.64-.29,1.09-.67,1.53-.23-3.12-1.35-5.8-4.3-7.2-3.94-1.87-7.91-3.75-12.32-4.27-1.79-.21-3.63-.83-5.42-.19-1.3,.47-2.55,1.16-3.05,2.64-.08,.25-.24,.36-.49,.38-.06,.06-.11,.07-.17,0Z"/>
    <path class="cls-87" d="M97.42,57.02c-.83,.03-1.29-.73-2.03-.95-1.23-.37-2.43-.86-3.64-1.31-.28-.1-.63-.1-.77-.45,1.4,.12,2.61,.81,3.89,1.29,.91,.34,1.87,.64,2.54,1.42Z"/>
    <path class="cls-87" d="M87.09,53.29c-1.48-.14-2.98-.16-4.4-.68,1.49,.08,2.97,.24,4.4,.68Z"/>
    <path class="cls-87" d="M90.13,54.14c-1.08-.04-2.05-.49-3.05-.85,1.04,.21,2.17,.09,3.05,.85Z"/>
    <path class="cls-61" d="M48.48,100.72c1.63,.1,3.22,.44,4.81,.74,1.92,.37,3.83,.85,5.74,1.29,1.66,.39,3.33,.79,4.99,1.2,1.99,.48,4.02,.74,6,1.23,1.98,.48,3.97,.84,5.96,.9,1.69,.05,3.42-.1,5.12-.19,2.08-.11,4.1-.59,6.11-1,1.65-.34,3.38-.85,4.69-2.1,.24-.23,.52-.42,.8-.61,.85-.58,.75-.84,.48-1.82-.16-.6-.31-1.4,.04-2.08,.42-.83,.88-1.65,1.24-2.5,.5-1.17,.8-2.39,.41-3.68,.72,.25,.52,.86,.47,1.36-.14,1.19-.16,2.41-.76,3.51-.12,.22-.14,.59,.08,.71,.68,.36,.61,1.16,1.04,1.63,1.02,1.15,.2,2.59-.54,3.42-1.43,1.61-3.46,1.67-5.29,2.19-1.61,.46-3.26,.77-4.94,.95-1.42,.15-2.84,.36-4.26,.42-1.03,.05-2.06,.18-3.1,.19-2.06,.02-4.08-.28-6.12-.44-2.85-.23-5.62-.9-8.36-1.64-2.08-.57-4.16-1.15-6.26-1.62-2.29-.52-4.5-1.34-6.86-1.56-.51-.05-1-.32-1.5-.48Z"/>
    <path class="cls-84" d="M53.38,67.53c-.96-.46-1.79-1.12-2.53-1.87-.19-.37-.12-.66,.14-1,1.46-1.87,3.34-3.17,5.5-4.08,2.92-1.22,5.95-1.99,9.07-2.52,1.37-.23,2.75-.16,4.11-.4,.74-.13,1.47,.09,2.05,.59,.35,.3,.72,.44,1.16,.25,.6-.25,1.01,0,1.41,.44,.66,.7,1.07,.58,1.34-.33,.29-.98,.47-1.17,1.48-1.14,6.15,.16,12.22,.81,17.86,3.53,1.86,.9,3.57,2.05,4.82,3.76,.24,.33,.45,.66,.15,1.07-.06,.1-.13,.21-.19,.31-.56,.11-.75,.79-1.33,.87-.06-.28-.17-.49-.41-.69-2.49-2.17-5.39-3.58-8.51-4.54-4.03-1.24-8.16-1.89-12.38-1.99-.2,0-.43-.07-.59,.02-1.52,.88-3.16-.2-4.7,.3-3.2-.33-6.27,.41-9.32,1.18-3.13,.79-6.14,1.89-8.66,4.03-.32,.27-.67,.51-1.03,.74-.26,.16-.37,.35-.08,.59,.23,.27,.72,.38,.61,.89Z"/>
    <path class="cls-86" d="M75.23,56.17c.06,0,.11,0,.17,0-.12,.06-.26,.18-.36,.16-1.43-.41-2.8,.19-4.21,.18-.5-.15-.83-.42-1.1-.93-.37-.7-1.14-1.12-1.55-1.84-.2-.36-1.18-.14-1.48,.34-.41,.67-.96,.94-1.73,.99-.73,.04-1.29,.64-2.03,.77-1.92,.35-3.79,.92-5.61,1.57-3.14,1.12-5.92,2.79-7.46,5.95-.05,.1-.12,.19-.2,.27-.47-1.28-.08-2.52,.6-3.5,1.5-2.12,3.72-3.35,6.08-4.35,2.55-1.08,5.26-1.6,7.89-2.35,1.81-.52,3.7-.92,5.63-.81,.22,.01,.46,0,.67,.05,.21,.06,.49,.11,.52,.36,.02,.23-.25,.27-.42,.36-1.09,.61-1.1,.69-.13,1.54,.15,.13,.36,.28,.3,.48-.16,.57,.16,.87,.62,.84,.51-.03,1.24,.11,1.4-.63,.14-.63,.55-1.15,.6-1.83,.05-.67,.67-.97,1.25-1.11,.45-.11,.79,.16,.6,.69-.2,.58-.43,1.16-.7,1.72-.48,1.03-.47,1.07,.65,1.09Z"/>
    <path class="cls-60" d="M99.96,65.84c-.12-1.19-1.01-1.84-1.81-2.51-3.14-2.61-6.92-3.75-10.81-4.6-1.72-.38-3.46-.63-5.24-.72-1.71-.09-3.41-.31-5.12-.33-.67,0-1.08,.18-1.08,.94,0,.48-.2,.93-.69,1.05-.49,.13-.83-.19-1.09-.61-.28-.45-.64-.66-1.2-.33-.44,.26-.85,.2-1.25-.26-.57-.64-1.39-.68-2.2-.61-1.84,.16-3.69,.26-5.49,.69-1.14,.27-2.3,.46-3.42,.81-1.85,.57-3.66,1.21-5.4,2.08-1.64,.82-2.93,2.04-4.12,3.41-.21,.24-.19,.51-.2,.79-.07-.05-.13-.1-.2-.15-.17-.37-.06-.64,.19-.97,.81-1.09,1.86-1.92,2.89-2.77,2.99-1.87,6.25-3.02,9.69-3.77,3.18-.69,6.39-.93,9.63-.87,.52,.01,1.01,.05,1.42,.41,.31,.27,.61,.25,.89-.04,.42-.45,.95-.52,1.54-.54,2.12-.07,4.2,.17,6.3,.44,1.25,.16,2.51,.29,3.76,.43,3.54,.74,6.95,1.84,10.01,3.83,1.23,.8,2.26,1.83,3.18,2.99,.35,.44,.35,.8-.04,1.18-.05,.01-.1,.02-.14,.03Z"/>
    <path class="cls-23" d="M49.66,63.63c.52-1.98,1.96-3.24,3.51-4.36,1.76-1.27,3.77-2.02,5.86-2.61,1.48-.42,2.99-.72,4.45-1.2,.75-.24,1.4-.76,2.27-.69,.28,.02,.55-.31,.64-.61,.14-.48,.46-.59,.91-.72,.79-.23,1.25-.07,1.44,.75,.01,.05,.03,.13,.07,.15,.93,.49,1.16,1.62,2.02,2.18-.7,.04-1.22-.32-1.72-.77-.44-.39-.92-.7-1.41-.01-.18,.25-.47,.29-.75,.11-.46-.3-.85-.18-1.18,.22-.13,.15-.28,.28-.51,.2-.61-.22-1.06-.11-1.38,.54-.2,.4-.69,.27-1,.19-1.18-.28-2.22-.02-3.32,.45-1.35,.58-2.84,.84-4.2,1.41-1.46,.61-2.9,1.36-3.65,2.9-.24,.49-.73,.68-1.11,1.01-.39,.34-.6,.81-.92,1.19,0-.11,0-.22,0-.34Z"/>
    <path class="cls-6" d="M58.81,59.06c-.17,0-.34,0-.51,0,2.13-1.03,4.43-1.47,6.74-1.87,1.6-.28,3.19-.63,4.82-.48,1.15,.11,2.32-.21,3.39-.09,1.46,.16,2.8-.34,4.21-.28,2.44,.11,4.86,.29,7.24,.84,.35,.08,.74-.11,1.05,.2-.22,.27-.53,.16-.8,.17-.19,0-.37,0-.56-.02-.67-.14-1.33-.3-2.03-.27-.14,0-.28-.03-.42-.07-1.6-.18-3.22-.26-4.82-.42-.39-.04-.79-.03-1.11,.25-.58,.52-1.19,.75-1.91,.26-.12-.08-.27-.08-.41-.07-3,.06-6.02-.13-8.98,.56-.75-.06-1.42,.27-2.13,.44-1.01,.31-2.04,.54-3.05,.88-.23,.08-.47,.22-.7,0Z"/>
    <path class="cls-24" d="M84.88,57.36c.28,0,.57,0,.85,0,1.12-.04,2.14,.44,3.2,.69,2.84,.68,5.56,1.68,8.02,3.31,1.33,.88,2.41,2.01,3.4,3.25,.43,.54,.34,.91-.24,1.21,.41-.72-.11-1.15-.51-1.6-1.88-2.14-4.29-3.47-6.9-4.5-1.82-.72-3.7-1.24-5.61-1.67-.6-.14-1.2-.25-1.8-.39-.15-.04-.44,.05-.41-.29Z"/>
    <path class="cls-44" d="M52.71,66.84c-.7-.37-.75-.56,.03-1.02,1.4-.82,2.56-2,4.05-2.72,2.98-1.44,6.14-2.3,9.38-2.86,1.35-.23,2.72-.48,4.07-.48,1.06,0,2.11,.06,3.17-.04,.37-.03,.73,.01,1.06,.21,.29,.16,.62,.22,.89,.05,1.15-.72,2.44-.51,3.63-.39,2.55,.26,5.11,.56,7.62,1.15,3.58,.84,7,2.07,10.05,4.19,.65,.45,1.13,1.09,1.85,1.46,.41,.21-.05,.41-.08,.62-.05,.02-.1,.02-.16,.03-.74-.3-1.39-.71-2.01-1.21-2.1-1.72-4.56-2.78-7.11-3.64-2.98-1-6.08-1.44-9.18-1.84-1.15-.15-2.31,0-3.46-.08-.36-.02-.68,.11-.81,.48-.14,.42-.11,.84,.16,1.21,.33,.44,.8,.61,1.33,.6,2.77-.04,5.45,.52,7.99,1.56,1.88,.77,3.78,1.62,4.83,3.6,.62,1.16,.57,1.6-.6,2.21-.29,.15-.39,.37-.48,.64-1.63,.51-3.33,.66-5.02,.84-.53,.06-1.05,.15-1.58,.18-.2-.55,.22-.67,.57-.68,1.05-.03,1.97-.45,2.92-.8,1.07-.4,1.32-1.11,.74-2.11-.59-1.01-1.47-1.72-2.51-2.2-1.96-.9-3.99-1.54-6.17-1.63-.81-.03-1.64-.09-2.39-.48-.31-.16-.65-.15-.99-.06-1.87,.52-3.81,.76-5.68,1.27-1.78,.48-3.37,1.29-4.57,2.73-.8,.97-.42,2.05,.81,2.39,1.13,.31,2.15,.99,3.4,.9,.32-.02,.67,.18,.48,.66-1.87-.06-3.69-.55-5.55-.68-.44-.03-.89-.15-1.23-.48-.04-.42-.42-.4-.69-.5-1.15-.47-1.49-1.31-.8-2.35,1.21-1.83,3.02-2.91,5.04-3.64,2.16-.78,4.44-1.04,6.66-1.53,.36-.08,.73-.1,1.06-.26,.45-.21,.56-.61,.49-1.06-.07-.45-.4-.57-.8-.58-6-.13-11.69,1.03-16.95,4.02-.76,.43-1.44,.98-2.11,1.55-.41,.35-.85,.65-1.38,.79Z"/>
    <path class="cls-81" d="M88.95,70.55c-.41-.45-.31-.68,.28-.84,1.13-.29,1.33-.78,.68-1.76-.75-1.15-1.63-2.1-2.95-2.77-1.72-.87-3.49-1.52-5.35-1.92-1.47-.32-2.97-.57-4.5-.5-1.15,.05-1.76-.65-1.71-1.79,.03-.7,.45-1.03,1.15-1.01,2.67,.05,5.32,.3,7.94,.8,2.57,.49,5.09,1.16,7.48,2.26,1.81,.84,3.61,1.72,5.04,3.16,.37,.37,1.11,.17,1.26,.85-.38,.55-1,.85-1.56,1.09-1.38,.59-2.74,1.23-4.2,1.61-.58,.11-1.19,.16-1.7,.5-.08,.05-.15,.1-.23,.14-.55-.02-1.1,.01-1.63,.17Z"/>
    <path class="cls-74" d="M90.81,70.24c.45-.57,1.07-.53,1.7-.5-.56,.19-1.1,.44-1.7,.5Z"/>
    <path class="cls-73" d="M54.4,90.05c.12,.22,.29,.39,.51,.51,.09,.34,.71,.44,.44,.94-1.09,.44-1.46,.99-1.45,2.19,0,.25,0,.51-.05,.76-.09,.52,.13,.87,.58,1.1,3.81,2.02,7.63,4.05,12.02,4.5,2.57,.27,5.16,.25,7.75,.31,2.75,.06,5.45-.3,8.12-.91,1.07-.25,2.1-.65,3.1-1.11,.11-.05,.16-.15,.11-.28-.03-.08-.03-.15-.02-.23,.37-.4,.9-.53,1.36-.79,.27-.1,.52-.24,.78-.36,.61-.02,1.09-.57,1.74-.45,.49,.31,.39,.62-.02,.91-.8,.58-1.61,1.14-2.5,1.57-3.25,1.55-6.69,2.29-10.28,2.43-3.43,.13-6.86,.03-10.28-.28-1.81-.16-3.59-.65-5.34-1.19-2.42-.75-4.89-1.3-7.38-1.77-.72-.14-1.42-.38-2.06-.74-.96-.52-1.24-1.65-.57-2.51,.34-.44,.56-.87,.63-1.43,.08-.63,.56-1.02,1.1-1.3,.2-.11,.41-.18,.6-.31,.33-.23,.51-.47,.07-.77-.4-.27-.35-.53,.02-.78,.34-.27,.67,.06,1.01,0Z"/>
    <path class="cls-55" d="M53.39,90.05c-.11,.25-.3,.51,.08,.71,.8,.43,.3,.73-.13,.99-.38,.24-.81,.39-1.13,.73-.23,.24-.47,.53-.41,.8,.17,.71-.27,1.06-.67,1.49-.57,.62-.39,1.71,.34,2.1,1.2,.65,2.51,.94,3.85,1.14,.72,.11,1.44,.24,2.14,.43,1.57,.44,3.12,.94,4.68,1.38,1.7,.48,3.44,.72,5.2,.93,2.02,.24,4.04,.13,6.06,.22,2.37,.11,4.76-.05,7.14-.5,2.4-.45,4.67-1.2,6.83-2.29,.67-.34,1.29-.8,1.93-1.2,.38-.24,.38-.46-.02-.67,.42-.83,1.16-1.12,2.04-1.19,.33,.84-.5,1.07-.88,1.4-2.77,2.48-6.09,3.74-9.73,4.41-3.24,.6-6.49,.51-9.74,.41-2.14-.07-4.32,.02-6.41-.63-1.7-.44-3.4-.85-5.09-1.32-2.2-.61-4.52-.69-6.69-1.43-1.13-.38-2.4-.67-2.94-2.02-.18-.44-.2-.71,.13-1.04,.58-.59,1.17-1.12,1.39-2.02,.16-.64,.91-1,1.58-1.26,.23-.09,.52-.2,.49-.5-.03-.24-.33-.27-.53-.36-.2-.09-.59,.06-.57-.32,.02-.26,.36-.21,.56-.3,.15-.07,.33-.06,.49-.09Z"/>
    <path class="cls-20" d="M64.23,73.78c1.13,0,2.25,.29,3.38,.17,.76,.25,1.54,.04,2.31,.13,.09,0,.18,.03,.27,.05,.54,.17,1.09,.06,1.64,.1,.19,0,.38,.02,.56,.07,.79,.2,1.61,.03,2.41,.11,.09,0,.19,.02,.28,.05,1.93,.18,3.86,.32,5.79,.45,1.34,.09,2.7,.13,4.01,.49,1.59,.43,2,1.06,1.81,2.69-.32,2.81-.82,5.57-1.72,8.25-.39,1.18-.44,2.44-.83,3.62-.46,1.41-1.08,2.72-2.07,3.84-.55,.62-.92,1.36-1.18,2.14-.33,1.02,.19,1.79,1.24,1.96,.46,.07,.97-.1,1.39,.23,.01,.43-.34,.38-.59,.42-.67,.1-1.33,.23-1.96,.45-.29,.07-.58,.07-.88,.07-.63-.02-1.27,.04-1.9-.05-1.99-.55-2.04-.68-1.05-2.48,.74-1.36,1.88-2.39,2.88-3.52,1.24-1.41,1.74-3.06,1.98-4.84,.06-.45,.12-.89,.27-1.32,.67-2,1.19-4.04,1.7-6.08,.25-1.01,.26-2,.18-3.01-.07-.92-.34-1.21-1.26-1.45-1.84-.49-3.74-.5-5.61-.74-2.93-.39-5.86-.72-8.81-.92-1.09-.07-2.19-.17-3.27-.37-.34-.06-.75-.04-1-.37,0-.05,0-.09,0-.14Z"/>
    <path class="cls-68" d="M61.85,73.28c.75,.36,1.65,.03,2.37,.5,0,0,0,0,0,0-.6,.4-1.25,.22-1.89,.14-.73-.09-1.46-.14-2.18,.08-.92,.28-1.41,.89-1.45,1.85-.05,1.24-.1,2.5,.21,3.71,.49,1.9,.22,3.82,.33,5.73,.06,1.01,.2,1.99,.61,2.87,.81,1.7,1.63,3.4,3.13,4.67,1.03,.87,1.89,1.94,2.95,2.79,.35,.28,.62,.66,.86,1.04,.3,.48,.11,.83-.46,.82-.36,0-.72-.13-1.09-.09-.41-.01-.83,0-1.22-.19-.31-.19-.65-.32-.98-.46-.27-.12-.58-.26-.56-.65,.08-.23,.07-.45-.13-.61-.58-.46-.93-1.13-1.44-1.65-1.38-1.39-2.27-3.06-3.01-4.83-.71-1.7-1.05-3.44-.63-5.27,.12-.53,.04-1.05-.05-1.59-.36-2.05-.63-4.12-.67-6.2-.04-1.89,.58-2.5,2.4-2.81,.99-.17,1.94-.08,2.89,.14Z"/>
    <path class="cls-47" d="M61.85,73.28c-1.08,.02-2.13-.09-3.24,.11-1.33,.24-1.74,.95-1.82,2.04-.14,1.85,.25,3.68,.48,5.51,.17,1.32,.36,2.6,.08,3.96-.28,1.37,.23,2.7,.74,3.98,.7,1.75,1.57,3.36,2.93,4.72,.62,.62,1.06,1.42,1.8,1.97,.4,.3,.05,.51-.31,.58-.33,.27-.64,.09-.91-.09-.51-.33-1.19-.44-1.45-1.1,.23-.04,.56,.12,.64-.23,.06-.27-.24-.34-.38-.5-.69-.79-1.33-1.64-1.97-2.47-1.16-1.49-1.65-3.22-2.32-4.9-.31-.77-.25-1.55,0-2.38,.35-1.19,.26-2.44,0-3.65-.24-1.1-.43-2.2-.39-3.33,.03-.78,.02-1.56-.13-2.35-.21-1.06,.35-1.81,1.4-2.04,1.35-.29,2.72-.25,4.08-.14,.26,.02,.56,.09,.76,.32Z"/>
    <path class="cls-2" d="M68.46,73.79c4.41,.29,8.82,.41,13.23,.35,1.13-.01,2.24-.11,3.36-.18,.46,.17,.97,.17,1.41,.05,.96-.25,1.85,.02,2.73,.26,.75,.21,1.22,.8,1.45,1.54,.19,.62,.32,1.28,.22,1.92-.26,1.61-.3,3.23-.66,4.84-.33,1.44-.62,2.92-.79,4.4-.19,1.66-.86,3.14-1.64,4.58-.35,.65-.67,1.31-.92,1.99-.35,.95-.2,1.34,.66,1.92,.28,.19,.6,.31,.79,.62,.07,.57-.4,.55-.74,.68-1.94,0-3.01-1.72-2.11-3.41,.91-1.71,1.93-3.4,2.21-5.35,.54-3.69,1.82-7.27,1.74-11.06-.03-1.43-.54-1.92-1.95-2.08-1.43-.16-2.86-.15-4.29-.17-2.72,.03-5.43,.09-8.15-.13-1.14-.19-2.29-.07-3.44-.22-.93-.12-1.88-.28-2.84-.23-.1-.02-.19-.07-.27-.15,0-.06,0-.11,0-.17Z"/>
    <path class="cls-14" d="M60.16,94.96c.79,.4,1.43,1.08,2.37,1.19,.38,.52,1.08,.45,1.52,.85,.07,.08,.06,.15-.01,.22-.25,.15-.49,.05-.72-.05-1.43-.6-2.82-1.26-4.05-2.21-.91-.83-1.91-1.57-2.85-2.36-.1-.06-.19-.13-.27-.21-.22-.34-.62-.55-.73-.97-.13-.31-.52-.45-.51-.84,1.77,1.44,3.32,3.15,5.25,4.4Z"/>
    <path class="cls-47" d="M68.46,73.96c.06,0,.11,0,.17,0,.31,.18,.64,.04,.96,.09,.16,.02,.42-.08,.39,.25-.8-.02-1.63,.12-2.37-.34,.28,0,.57,0,.85,0Z"/>
    <path class="cls-56" d="M43.23,98.01c-.41-.35-1.06-.31-1.35-.85,1.67,.7,3.47,.67,5.21,.79,1.73,.12,3.41,.3,5.02,.9,1.76,.65,3.63,.67,5.44,1.02,2.61,.5,5.22,.98,7.83,1.49,1.5,.29,3.02,.16,4.52,.35,2.29,.3,4.61,.17,6.91,.19,3.02,.03,5.87-.78,8.69-1.73,2.21-.75,4.05-2.04,5.69-3.65,.46-.45,.87-.95,1.25-1.47,.23-.32,.48-.76-.28-.77-.03-.26,.17-.31,.34-.38,.96-.17,1.05-.07,.78,.81-1.9,3.51-5.07,5.32-8.69,6.51-2.71,.89-5.48,1.49-8.35,1.4-2.69-.09-5.38-.26-8.07-.46-3.4-.25-6.74-.88-10.07-1.52-1.4-.27-2.84-.36-4.25-.62-.2-.04-.38-.09-.56-.17-1.43-.55-2.96-.54-4.44-.81-1.84-.34-3.72-.4-5.52-.94-.03-.04-.07-.07-.1-.11Z"/>
    <path class="cls-89" d="M87.6,96.66c.24-.15,.55-.21,.68-.5,.6-.46,1.4-.58,1.97-1.1,.38-.11,.73-.3,1.06-.52,.13-.03,.24-.01,.34,.08-.11,.17-.23,.34-.34,.5-.7,.36-1.44,.65-2.04,1.19-.55,.19-1.04,.62-1.68,.52-.05-.04-.06-.08-.05-.12,.01-.04,.03-.06,.05-.06Z"/>
    <path class="cls-61" d="M91.66,94.62c-.11,0-.22,0-.34,0-.05-.07-.06-.14-.04-.22,.29-.58,.91-.68,1.4-.96,.55-.33,.86-.99,1.53-1.17,0,.11,0,.21-.01,.32-.02,.09-.07,.15-.17,.17-.23,.11-.4,.28-.51,.51-.11,.56-.7,.54-1.02,.84-.14,0-.26,.04-.34,.17-.17,.11-.34,.23-.5,.34Z"/>
    <path class="cls-36" d="M44.24,98.51c-.23,0-.45,0-.68,0-.28-.17-.63-.24-.85-.51,.17,0,.34,0,.51,0,0,0,0,0,0,0,.32,.21,.75,.12,1.04,.4,0,.04-.02,.07-.03,.11Z"/>
    <path class="cls-71" d="M35.92,77.88c.35,.27,.71,.54,1.06,.81-.07,.01-.15,.03-.22,.05-.41-.16-.7-.43-.84-.85Z"/>
    <path class="cls-27" d="M94.03,92.76c.06-.06,.11-.11,.17-.17,.4,.04,.45,.22,.39,.63-.36,2.58-1.73,4.51-3.74,6.07-.65,.51-1.23,1.15-1.73,1.81-.69,.9-1.45,1.75-2.38,2.36-.89,.58-1.96,.79-3.04,.82-2.04,.39-4.11,.41-6.17,.54-2.59,.17-5.09-.47-7.62-.84-1.6-.23-3.2-.46-4.81-.63-.37-.04-.71-.12-1.05-.26-2.46-.36-4.89-.86-7.28-1.52-1.66-.17-3.23-.82-4.91-.85-.06,0-.11,0-.17,0-.44-.57-1.13-.35-1.7-.49-1.45-.36-2.97-.37-4.4-.86,1.27-.02,2.49,.37,3.74,.52,2.3,.28,4.58,.73,6.86,1.16,2.2,.42,4.4,.83,6.6,1.26,1.71,.33,3.4,.66,5.16,.64,1.25-.01,2.5,.32,3.76,.33,1.62,.01,3.2,.44,4.8,.58,.84,.07,1.73-.08,2.59-.09,1.63-.03,3.16-.65,4.7-1.06,2.11-.56,3.98-1.75,5.76-3.03,1.35-.97,2.62-2,3.58-3.4,.64-.94,.75-2.05,1.18-3.05,.09-.22-.22-.3-.31-.46Z"/>
    <path class="cls-62" d="M64.06,103.09c3.37,.53,6.76,.91,10.13,1.46,1.84,.3,3.75,.33,5.65-.05,1.25-.25,2.57-.16,3.86-.23-.76,.26-1.52,.54-2.35,.51-1.46-.04-2.91,.19-4.36,.28-1.1,.07-2.23-.17-3.33-.34-2.95-.45-5.89-.99-8.86-1.3-.29-.03-.55-.11-.74-.34Z"/>
    <path class="cls-62" d="M51.86,100.71c.25-.27,.6-.22,.87-.12,1.31,.48,2.73,.51,4.04,.97-1.67-.06-3.28-.56-4.91-.85Z"/>
    <path class="cls-74" d="M73.89,71.92c-1.43,.02-2.85,.05-4.25-.33,.44-.37,.97-.18,1.49-.28-.94-.23-1.89-.24-2.78-.51-1.44-.43-2.04-1.24-1.81-2.42,.14-.75,.55-1.35,1.2-1.77,.71-.47,1.48-.82,2.28-1.09,1.53-.51,3.12-.75,4.69-1.07,.11-.02,.23-.03,.34-.01,2.63,.45,5.32,.66,7.72,2.02,.5,.28,.95,.6,1.26,1.1,.69,1.14,.47,1.97-.61,2.75-1.14,.82-2.51,.77-3.77,1.13-1.09,.31-2.2,.4-3.34,.26-.8-.1-1.63-.12-2.41,.23Z"/>
    <path class="cls-81" d="M52.71,66.84c1.33-1.04,2.59-2.18,4.09-2.97,3.32-1.74,6.85-2.79,10.55-3.3,1.53-.21,3.04-.52,4.59-.19,.39,.08,.83-.1,1.24-.13,.58-.05,1,.13,1.03,.81,.03,.68-.09,1.23-.88,1.39-1.92,.38-3.84,.78-5.76,1.17-2.2,.45-4.11,1.46-5.81,2.91-.39,.34-.67,.76-.93,1.19-.58,1-.27,1.72,.85,2.02,.22,.06,.46,.08,.64,.2,.35,.24,.19,.4-.14,.48-1.47,.1-2.72-.73-4.1-1-.38-.07-.74-.24-1.14-.2-1.2-.54-2.46-.95-3.57-1.68-.09-.36-.46-.44-.67-.69Z"/>
    <path class="cls-45" d="M73.89,71.92c.67-.76,1.6-.59,2.36-.45,1.13,.2,2.19,.07,3.23-.24,1.2-.36,2.49-.28,3.61-1,1.4-.9,1.48-2.48-.02-3.32-1.64-.92-3.38-1.66-5.31-1.75-.19,0-.39-.07-.58-.11-3.4-.78-6.46,.26-9.4,1.83-.74,.39-1.1,1.12-1.05,1.97,.07,1.07,.99,1.78,2.37,1.91,.88,.08,1.77,.17,2.64,.55-.71,.38-1.42,.27-2.11,.29-.23,0-.45,0-.68-.01-.04-.46-.37-.52-.73-.49-.88,.08-1.66-.15-2.4-.61-.21-.13-.47-.18-.72-.23-1.45-.28-1.98-1.49-1.1-2.63,1.27-1.65,3.03-2.52,5.02-2.97,1.77-.4,3.55-.79,5.32-1.21,.39-.09,.76-.25,1.14-.02,.83,.51,1.77,.47,2.68,.54,2.65,.21,5.14,.93,7.32,2.46,.87,.61,1.59,1.43,1.61,2.63,0,.57-.2,.95-.72,1.1-1.15,.33-2.19,1.05-3.47,.94-.33-.03-.53,.14-.56,.49-.23,0-.45,0-.68,.01-1.12,.19-2.28,.06-3.39,.33-1.46,0-2.93,0-4.39,0Z"/>
    <path class="cls-74" d="M78.28,71.91c1.08-.59,2.26-.27,3.39-.33-1.11,.34-2.25,.36-3.39,.33Z"/>
    <path class="cls-37" d="M84.88,57.36c.7,.35,1.53,.26,2.2,.67-2.14-.25-4.28-.5-6.41-.76-1.49-.18-2.98-.06-4.47-.07-.4,0-.64,.36-.84,.65-.3,.45-.58,.39-.86,.03-.37-.48-.86-.52-1.42-.54-4.27-.16-8.46,.42-12.55,1.59-2.04,.58-4.06,1.3-5.88,2.44-.28,.18-.61,.27-.92,.4,1.01-1,2.32-1.46,3.58-2.02,.5-.22,1-.46,1.5-.69,1.24-.34,2.48-.68,3.72-1.02,.69-.13,1.35-.34,2.03-.51,1.81-.19,3.59-.71,5.42-.49,1.15,.13,2.28,.02,3.42-.01,.25,0,.56-.04,.74,.08,.68,.45,1.22,.18,1.76-.25,.85-.34,1.72-.17,2.58-.07,1.17,.13,2.35,.12,3.52,.24,.11,0,.22,0,.34,0,.67,.13,1.36,.18,2.03,.34,.17,0,.34,0,.51,0Z"/>
    <path class="cls-71" d="M37.13,78.7c.78-.76,1.57-1.51,2.35-2.28,1.53-1.51,3.26-2.72,5.16-3.71,.29-.15,.53-.41,.79-.63,.08,.47-.1,.85-.5,1.07-2.21,1.21-3.96,2.98-5.72,4.74-.22,.22-.42,.45-.58,.71-.58,.95-.75,.97-1.5,.09Z"/>
    <path class="cls-22" d="M92.68,93.44c-.3,.54-.97,.59-1.36,1.01-.11,.1-.25,.14-.39,.12-.26-.05-.47-.19-.69-.32-1.07-.64-1.28-1.31-.64-2.4,.64-1.08,1.13-2.21,1.51-3.39,.55-1.69,.79-3.46,.95-5.21,.12-1.35,.39-2.67,.45-4.03,.04-.91-.04-1.8-.13-2.69-.19-1.73-1.16-2.49-2.81-2.8-1.26-.24-2.55,.08-3.83,.05-.96,0-1.92,0-2.88,0,.61-.4,1.31-.17,1.96-.25,1.71-.22,3.43-.43,5.17-.26,2.47,.24,3.67,1.47,3.87,4,.13,1.64-.11,3.28-.23,4.92-.12,1.65-.58,3.23-.68,4.9-.07,1.28-.53,2.63-1.22,3.8-.89,1.5-.73,1.99,.96,2.55Z"/>
    <path class="cls-39" d="M90.32,95.14c-.53,.63-1.24,.92-2.03,1.01-2.19-1.12-2.23-1.28-1.3-3.56,.49-1.19,1.19-2.27,1.64-3.48,.35-.94,.39-1.92,.66-2.85,.45-1.5,.6-3.07,.86-4.59,.32-1.89,.86-3.87,.29-5.83-.2-.69-.67-1.2-1.42-1.41-.99-.28-1.98-.35-3-.33-.32,0-.68,.13-.96-.16,.51-.08,1.05,.17,1.53-.17,.37-.1,.75-.05,1.12-.14,.75,.1,1.51,.13,2.23,.42,.77,.31,1.27,.8,1.47,1.61,.1,.41,.15,.83,.16,1.25,0,2.23-.04,4.44-.63,6.62-.3,1.11-.4,2.26-.46,3.42-.09,1.76-.73,3.39-1.63,4.91-.1,.17-.19,.34-.28,.52-.83,1.66-.22,2.39,1.66,2.65,.04,.03,.07,.06,.11,.09Z"/>
    <path class="cls-48" d="M87.59,73.79c-.34,0-.68,.14-1.01,0-.28,0-.57,0-.85,0,1.86-.27,3.7-.76,5.52,.35,1.09,.66,1.32,1.66,1.41,2.7,.27,3.17-.38,6.26-.82,9.38-.31,2.16-1.12,4.06-2.14,5.92-.49,.89-.31,1.35,.58,1.87,.24,.14,.48,.29,.71,.44,.04,.56-.36,.56-.75,.59-1.63-.01-2.28-.89-1.77-2.4,.24-.69,.58-1.35,.95-1.97,.67-1.14,1-2.35,1.19-3.65,.25-1.7,.66-3.37,.87-5.07,.24-1.93,.23-3.88,.08-5.81-.08-.99-.64-1.72-1.65-2.03-.76-.24-1.53-.35-2.32-.32Z"/>
    <path class="cls-36" d="M53.39,99.7c.95,.53,2.03,.26,3.03,.48,1.72,.38,3.46,.71,5.2,.91,2.08,.24,4.12,.78,6.23,.83,2.09,.05,4.18,.41,6.28,.44,2.16,.03,4.32,.09,6.5-.37,2.16-.46,4.23-1.06,6.24-1.93,2.5-1.08,4.6-2.66,5.97-5.09,.08-.14,.23-.24,.34-.36,.12,.96-.56,1.55-1.09,2.16-2,2.29-4.59,3.66-7.41,4.68-2.53,.92-5.18,1.34-7.83,1.38-2.03,.03-4.09-.07-6.13-.36-1.22-.17-2.47-.12-3.7-.21-2.97-.24-5.89-.83-8.81-1.43-1.32-.27-2.66-.41-3.98-.63-2.42-.35-4.86-.59-7.26-1.09-.91-.19-1.9-.04-2.74-.6,0,0,0,0,0,0,.77-.32,1.58-.08,2.29,.08,2.27,.52,4.61,.5,6.86,1.11Z"/>
    <path class="cls-89" d="M54.23,100.21c2.06,0,4.05,.54,6.06,.91,3.17,.59,6.34,1.03,9.58,1.18,1.99,.09,4.01,.26,6.01,.4,1.46,.1,2.96-.14,4.44-.33,2.82-.37,5.46-1.32,7.94-2.68,1.73-.95,3.29-2.15,4.41-3.84,.25-.38,.46-.77,.53-1.23,.35-.94-.27-.59-.68-.51,.34-.28,.68-.56,1.02-.84,.59,.04,.4,.42,.3,.73-.58,1.91-1.84,3.32-3.37,4.53-3.21,2.56-6.94,3.76-10.97,4.25-2.94,.36-5.85,.07-8.78-.17-.84-.07-1.68-.17-2.51-.16-2.83,0-5.56-.62-8.31-1.11-1.76-.31-3.52-.63-5.28-.95-.13-.02-.24-.11-.37-.17Z"/>
    <path class="cls-5" d="M45.46,70.55c-.02,.07-.04,.14-.06,.21-.28-.39-.56-.79-.85-1.18,.47,.17,.74,.51,.9,.97Z"/>
    <path class="cls-24" d="M82.01,57.02c-2.04,.08-4.06-.29-6.1-.17,.5-.65,1.22-.36,1.8-.3,1.31,.12,2.61,.34,3.93,.31,.12,0,.25,.1,.37,.16Z"/>
    <path class="cls-63" d="M64.56,57.53c-.63,.38-1.31,.51-2.03,.51,.65-.28,1.3-.54,2.03-.51Z"/>
    <path class="cls-24" d="M84.38,57.36c-.7,.02-1.38-.08-2.03-.34,.7-.02,1.39,.02,2.03,.34Z"/>
    <path class="cls-82" d="M55.42,91.4c.34,.23,.64,.49,.84,.85-.78,.38-.87,.73-.26,1.47,.81,.99,1.85,1.72,2.9,2.44,2.5,1.72,5.18,2.93,8.23,3.29,2.41,.28,4.82,.43,7.24,.43,.19,0,.39-.05,.48,0-.33,0-.77,.03-1.21-.02-.21-.02-.61,.02-.32-.42,.4-.21,.83-.14,1.24-.13,2.39,.08,4.76-.12,7.12-.5,.53-.08,1.02-.32,1.56-.32,.14-.04,.28-.07,.41-.13,.42-.09,.86-.11,1.23-.36,.21-.15,.46-.18,.68,.01,.21,.02,.52-.05,.55,.24,.03,.25-.26,.21-.44,.28-.58,.21-1.14,.48-1.73,.66-2.74,.85-5.52,1.4-8.41,1.37-1.87-.02-3.74-.11-5.6-.1-3.01,.03-5.89-.5-8.72-1.41-2.55-.82-4.78-2.34-7.21-3.45-.23-.11-.49-.31-.44-.57,.17-.91-.14-1.88,.37-2.76,.34-.6,.74-.98,1.47-.87Z"/>
    <path class="cls-49" d="M87.6,96.66c0,.06,0,.12,0,.17-.14,.29-.4,.34-.69,.33-.21,.13-.45,.13-.68,.18-.29,.06-.57,.04-.85-.04-1.71-.95-2.13-2.08-1.15-3.67,1.72-2.78,2.63-5.82,3.28-8.99,.47-2.29,.87-4.58,1.15-6.9,.04-.34,.05-.67,.03-1.01-.05-.87-.37-1.29-1.23-1.48-1.02-.22-2.05-.37-3.09-.4-.38-.01-.81,.07-1.03-.39,1.61-.08,3.22,0,4.81,.24,.95,.14,1.43,.87,1.46,1.85,.1,3-.65,5.87-1.26,8.76-.34,1.61-.41,3.29-1.09,4.81-.46,1.04-.9,2.11-1.51,3.09-.87,1.38-.73,2,.6,2.95,.36,.26,.75,.5,1.23,.49Z"/>
    <path class="cls-89" d="M86.24,97.16c.22,0,.45,0,.67,0-.4,.34-.86,.54-1.35,.68-.12,.1-.24,.08-.37,.01-.02-.79,.68-.48,1.05-.69Z"/>
    <path class="cls-55" d="M85.22,97.83c.11,0,.23,0,.34,0,0,.05,0,.11,0,.16-.66,.02-1.14,.72-1.86,.5,.01-.44,.47-.41,.68-.64,.28-.13,.56-.28,.85-.03Z"/>
    <path class="cls-21" d="M65.24,97.16c.37-.03,.72,.03,1.08,.15,.16,.05,.35,.03,.46-.13,.14-.2-.05-.31-.16-.42-1.43-1.43-2.83-2.88-4.32-4.25-.45-.41-.78-.89-1.09-1.37-1.02-1.58-1.99-3.22-2.21-5.13-.14-1.27-.09-2.57-.01-3.85,.07-1.06-.23-2.06-.39-3.08-.16-.99-.08-1.96-.14-2.94-.11-1.61,.97-2.45,2.49-2.53,1.1-.06,2.17,.28,3.28,.17,.73,.4,1.57,.38,2.36,.47,2.06,.25,4.14,.3,6.19,.56,2.1,.26,4.21,.44,6.31,.75,1.35,.2,2.73,.26,4.07,.57,.81,.19,1.14,.65,1.24,1.47,.23,2-.43,3.82-.82,5.73-.36,1.71-1.19,3.26-1.32,5.06-.15,2.1-1.1,3.96-2.63,5.49-1,1.01-1.94,2.08-2.65,3.34-.47,.84-.4,1.11,.52,1.4,.21,.07,.47,0,.61,.22-.38,.63-1.02,.45-1.53,.37-1.51-.22-3.01-.2-4.52-.14-.39-.01-.78,.02-1.17-.07-.62-.28-1.26-.45-1.95-.48-.87-.03-1.68-.41-2.55-.5-.09,0-.18-.03-.26-.06-.36-.21-.84-.29-.9-.82Z"/>
    <path class="cls-79" d="M83.36,74.46c.91,.34,1.9,.05,2.82,.33,.24,.07,.5,.07,.75,.1,2.13,.23,2.14,1.2,1.94,3.12-.28,2.79-.84,5.53-1.47,8.25-.37,1.6-.69,3.23-1.52,4.7-.62,1.1-1.17,2.23-1.7,3.37-.39,.84-.31,1.63,.52,2.22,.25,.18,.46,.4,.7,.61-.4,.6-.84,.68-1.43,.28-1.31-.89-1.58-2.15-.78-3.68,.14-.27,.3-.54,.49-.79,1.45-1.96,1.85-4.24,2.03-6.58,.78-2.27,1.07-4.64,1.55-6.97,.14-.67,.1-1.34,.1-2.02,0-1.19-.31-1.6-1.5-1.86-1.54-.34-3.1-.47-4.67-.57-2.04-.13-4.08-.15-6.11-.32-.06,0-.11,0-.17,0-.02-.03-.04-.06-.06-.09,.02-.03,.04-.06,.06-.09,2.82,0,5.64,0,8.47,0Z"/>
    <path class="cls-47" d="M75.06,74.63c2.58-.1,5.16,.1,7.74,.19,1.11,.04,2.22,.27,3.31,.5,1.14,.24,1.43,.73,1.49,1.88,.09,1.82-.39,3.55-.71,5.31-.24,1.36-.55,2.68-1,3.97-.21,.76-.41,1.52-.56,2.28-.38,2-1.39,3.68-2.66,5.21-.52,.63-.75,1.32-.78,2.09-.04,.93,.37,1.39,1.3,1.54,.29,.05,.65-.01,.73,.41-.07,.23-.21,.28-.41,.15-.48,0-.96,.03-1.44,0-1.15-.09-1.84-1.14-1.45-2.22,.34-.96,.84-1.82,1.52-2.61,1.26-1.47,1.87-3.26,2.16-5.13,.28-1.78,1-3.44,1.34-5.19,.29-1.48,.5-2.98,.74-4.47,.03-.17-.02-.35,.03-.5,.5-1.33-.17-2.02-1.57-2.4-1.66-.45-3.38-.41-5.08-.57-1.57-.15-3.17-.12-4.72-.44Z"/>
    <path class="cls-55" d="M70.83,98.85c.39,0,.79,0,1.18,0,2.12,.13,4.25,.38,6.38,.14,.58-.07,1.18,.06,1.75-.14,.28,0,.56,0,.84,0,.8-.06,1.53-.58,2.38-.33-.84,.42-1.79,.34-2.66,.55-2.49,.62-5,.39-7.51,.46-.04,0-.08,.02-.13,.02-1,.04-1.94-.35-2.93-.39-.09-.04-.15-.09-.2-.17-.01-.1,.02-.17,.11-.23,.28-.11,.53-.03,.78,.08Z"/>
    <path class="cls-26" d="M80.14,98.85c-.47,.37-1.05,.2-1.54,.22-2.2,.1-4.41,.42-6.59-.23,1.69-.15,3.36,0,5.04,.16,.36,.04,.73,.04,1.06-.16,.68,0,1.36,0,2.03,0Z"/>
    <path class="cls-66" d="M69.98,74.3c-.38-.4-.98,.07-1.35-.34,2-.06,3.97,.48,5.98,.36,.09,0,.19,.1,.28,.15,0,0,0,0,0,0-.85,.13-1.69,.13-2.54,0-.17,0-.34,0-.51,0-.55-.24-1.15,.06-1.69-.17-.06,0-.11,0-.17,0Z"/>
    <path class="cls-26" d="M83.36,98.52c-.82-.11-1.55,.49-2.38,.33,.76-.55,1.73-.3,2.54-.67,.14,0,.27-.03,.34-.17,.17-.15,.34-.15,.51,0-.1,.34-.51,.25-.69,.49-.11,0-.22,0-.33,0Z"/>
    <path class="cls-47" d="M72.35,74.47c.85,0,1.69,0,2.54,0,0,.06,0,.11,0,.17-.84-.09-1.71,.2-2.54-.17Z"/>
    <path class="cls-47" d="M70.15,74.3c.56,.08,1.16-.17,1.69,.17-.56-.08-1.16,.17-1.69-.17Z"/>
    <path class="cls-26" d="M65.24,97.16c.28,.23,.56,.45,.85,.68-.17,.19-.4,.2-.63,.2-.53-.18-1.09-.32-1.41-.85,0-.06,0-.13,0-.19,.37,.23,.79,.15,1.19,.17Z"/>
    <path class="cls-57" d="M64.05,97.18c.45,.22,.91,.44,1.36,.65,1.53,.36,3.07,.7,4.57,1.19h0c1.06,.23,2.14,.39,3.22,.51h0c.64,.4,1.37,0,2.04,.24-.13,.24-.36,.26-.58,.27-3.29,.11-6.56-.07-9.78-.78-2.8-.62-5.14-2.17-7.4-3.84-.55-.4-1.03-.86-1.51-1.34-.27-.27-.45-.56-.56-.92-.09-.3-.21-.58,.01-.88,.28-.38,.56,.01,.84-.02,.06,.06,.12,.11,.17,.17,.91,.85,1.83,1.69,2.89,2.36,1.49,.96,3.01,1.88,4.73,2.4Z"/>
    <path class="cls-82" d="M59.32,94.78c-1.19-.51-2.09-1.37-2.89-2.36,1.04,.7,1.96,1.53,2.89,2.36Z"/>
    <path class="cls-42" d="M53.39,99.7c-1.75-.22-3.51-.35-5.24-.67-1.3-.25-2.6-.36-3.91-.51-.28-.29-.79-.12-1.02-.51,1.67,.31,3.37,.35,5.03,.77,1.15,.29,2.37,.26,3.56,.43,.54,.08,1.08,.23,1.57,.49Z"/>
    <path class="cls-39" d="M90.3,94.96c.34-.01,.53-.24,.68-.51,.11,0,.22,0,.34,0,0,.06,0,.12,0,.17-.21,.42-.57,.55-1,.52,0,0-.02-.02-.02-.02-.05-.04-.07-.07-.05-.11,.02-.04,.04-.05,.06-.05Z"/>
    <path class="cls-33" d="M90.3,94.96c0,.05,0,.11,0,.16-.94,.44-1.55-.23-2.12-.73-.51-.45-.27-1.09,0-1.64,.41-.82,.87-1.63,1.22-2.47,.5-1.21,.82-2.46,.83-3.8,.01-1.4,.44-2.74,.71-4.11,.41-2.07,.52-4.18,.29-6.27-.16-1.42-1.09-2.07-2.67-2.15-.34-.02-.68,.02-.98-.17,2.04-.41,4.31,.56,4.25,2.83-.05,1.98,.1,3.97-.2,5.95-.19,1.27-.43,2.53-.71,3.79-.19,.87-.16,1.77-.49,2.63-.37,.98-.96,1.83-1.35,2.79-.06,.16-.15,.3-.23,.45-.81,1.67-.43,2.4,1.43,2.73Z"/>
    <path class="cls-25" d="M84.38,98.02c-.17,0-.34,0-.51,0-.19-.25-.46-.16-.71-.17-.9-.04-1.39-.42-1.48-1.3-.09-.88,.01-1.78,.63-2.46,1.64-1.8,2.6-3.91,3.05-6.28,.09-.48,.29-.9,.53-1.31-.14,2.47-.65,4.83-2.2,6.83-.53,.69-.69,1.48-.78,2.26-.1,.88,.74,1.27,1.27,1.76,.37,.35,.84,.17,1.2-.19,.28,0,.57,0,.85,0-.32,.25-.86,.17-1.02,.67-.28,.06-.56,.12-.84,.19Z"/>
    <path class="cls-26" d="M62.86,74.21c2.17,.22,4.35,.41,6.51,.65,1.67,.18,3.33,.38,4.99,.63,2.07,.31,4.14,.66,6.21,1.03,.87,.15,1.48,1.16,1.4,2.04-.13,1.56-.34,3.1-.65,4.63-.31,1.51-.72,2.98-1.32,4.4-.22,.53-.3,.98-.1,1.59,.43,1.31-.22,2.41-1.03,3.38-.86,1.04-1.98,1.79-3,2.66-.76,.65-1.59,1.03-2.44,1.4-.92,.4-1.96,.38-2.86-.06-.98-.48-2.02-.8-2.98-1.33-1.35-.75-2.43-1.73-3.46-2.87-.75-.83-1.45-1.66-2.04-2.62-.74-1.21-1.18-2.53-1.42-3.9-.28-1.58-.17-3.21-.42-4.76-.26-1.59-.26-3.18-.41-4.76-.14-1.46,.53-2.02,2-2.02,.34,0,.67,0,1.01,0,0-.03,0-.06,0-.09Z"/>
    <path class="cls-26" d="M70.83,98.85h-.85c-.2,.14-.45,.14-.64,.07-.91-.32-1.88-.4-2.78-.77-.15-.06-.34-.08-.31-.31,1.51,.43,3.15,.22,4.58,1.01Z"/>
    <path class="cls-82" d="M66.25,97.84c1.18,.56,2.46,.79,3.73,1.02,0,.05,0,.11,0,.16-1.61-.06-3.11-.57-4.57-1.19,.23,0,.45,0,.68,0,.05,0,.11,0,.16,0Z"/>
    <path class="cls-82" d="M73.2,99.53c-1.11,.05-2.2-.01-3.22-.51,1.11-.04,2.17,.2,3.22,.51Z"/>
    <path class="cls-70" d="M62.96,74.47c2.47,.27,4.96,.39,7.43,.75,2.13,.31,4.27,.57,6.39,.94,1.3,.23,2.58,.48,3.49,1.58,.28,.34,.53,.71,.27,1.15-.25,.42-.15,.78-.04,1.2,.23,.91,.14,1.85-.29,2.67-.28,.53-.23,1.09-.37,1.62-.26,1.01-.74,1.92-1.11,2.87-.44,1.12-.31,2.18-.2,3.28,.02,.22,0,.39-.1,.56-1.36,2.11-3.17,3.45-5.77,3.74-2.13,.23-4.02-.36-5.78-1.36-1.47-.84-2.48-2.24-3.52-3.56-.97-1.23-1.23-2.71-1.75-4.12-.8-2.17-.67-4.46-1.05-6.69-.18-1.04-.21-2.19,.15-3.32,.25-.79,.54-1.13,1.33-1.19,.3-.02,.6-.14,.91-.11Z"/>
    <path class="cls-38" d="M70.65,92.98c-.33-.01-.63-.11-.92-.23-.59-.23-1.13-.61-1.82-.56-.14,.01-.36-.1-.44-.22-.49-.71-1.22-1.13-1.84-1.7-.65-.59-.92-1.33-.51-2.19,.23-.49,.05-.9-.29-1.22-.6-.57-.92-1.25-.96-2.08,0-.16-.08-.33-.15-.48-1.31-2.53-1.39-5.21-1.03-7.95,.04-.29,.17-.46,.42-.58,.75-.36,1.5-.45,2.35-.4,2.19,.14,4.31,.66,6.47,.96,.9,.12,1.87,.04,2.67,.61,.59,.42,.95,1.14,1.72,1.35,.17,.05,.22,.34,.16,.6-.14,.54-.22,1.1-.33,1.65-.03,.16-.13,.37-.07,.49,.75,1.42-.44,2.64-.43,3.98,0,.5-.4,.99-.9,1.27-.37,.2-.41,.47-.31,.85,.19,.73,.21,1.45-.37,2.04-.18,.18-.08,.26,.05,.4,.28,.32,.55,.63,.91,.86,.35,.23,.31,.46,0,.73-.65,.57-1.26,1.15-2.19,1.28-.74,.1-1.47,.34-2.2,.52Z"/>
  </g>
</svg>