<?xml version="1.0" encoding="UTF-8"?>
<svg xmlns="http://www.w3.org/2000/svg" xmlns:xlink="http://www.w3.org/1999/xlink" viewBox="0 0 150 150">
  <defs>
    <style>
      .cls-1 {
        fill: url(#linear-gradient);
        stroke: #c3fcd2;
        stroke-width: 3px;
      }

      .cls-1, .cls-2 {
        stroke-miterlimit: 10;
      }

      .cls-2 {
        fill: none;
        stroke: #52ff87;
        stroke-width: 2.06px;
      }
    </style>
    <linearGradient id="linear-gradient" x1="136.03" y1="108.55" x2="15" y2="39.62" gradientUnits="userSpaceOnUse">
      <stop offset="0" stop-color="#b6ff93"/>
      <stop offset=".19" stop-color="#56ed86"/>
      <stop offset="1" stop-color="#006833"/>
    </linearGradient>
  </defs>
  <g id="Layer_2" data-name="Layer 2">
    <polygon class="cls-1" points="137.97 110.14 137.97 37.87 75.38 1.73 12.78 37.87 12.78 110.14 75.38 146.28 137.97 110.14"/>
    <path class="cls-2" d="M52.6,55.11c2.89,1.4,4.29-2.68,7.21-2.33,.44,.02,1.03-.75,1.3-.96,1.43,.49,2.44-1.02,3.87-.75,.71-1.89,1.2-.82,2.46-.17,1.73-.26,3.51,.68,5.22-.29,.3-.17,.86,.03,1.27,.14,2.29,1.16,5.19,1.02,7.64,1.71,1.97,1.75,4.48,1.42,6.79,1.67,13.24,1.23,40.04,8.17,32.84,26.17-15.6,30.28-68.04,30.29-83.56-.18-6.53-12.23,9.39-17.18,14.95-25.02Z"/>
  </g>
  <g id="Layer_1" data-name="Layer 1">
    <image width="520" height="520" transform="translate(11 10) scale(.26)" xlink:href="../Emoji_PNG/indian.png"/>
  </g>
</svg>