<?xml version="1.0" encoding="UTF-8"?>
<svg xmlns="http://www.w3.org/2000/svg" xmlns:xlink="http://www.w3.org/1999/xlink" viewBox="0 0 150 150">
  <defs>
    <style>
      .cls-1 {
        fill: url(#linear-gradient);
        stroke: #c3fcd2;
        stroke-width: 3px;
      }

      .cls-1, .cls-2 {
        stroke-miterlimit: 10;
      }

      .cls-2 {
        fill: none;
        stroke: #52ff87;
        stroke-width: 2.07px;
      }
    </style>
    <linearGradient id="linear-gradient" x1="136.71" y1="40.04" x2="11.13" y2="111.63" gradientUnits="userSpaceOnUse">
      <stop offset="0" stop-color="#b6ff93"/>
      <stop offset=".19" stop-color="#56ed86"/>
      <stop offset="1" stop-color="#006833"/>
    </linearGradient>
  </defs>
  <g id="Layer_2" data-name="Layer 2">
    <polygon class="cls-1" points="137.97 111.14 137.97 38.87 75.38 2.73 12.78 38.87 12.78 111.14 75.38 147.28 137.97 111.14"/>
    <path class="cls-2" d="M72.03,109.98c-8.41-.05-18.37-5.43-21.15-13.71-6.17-6.07-8.75-16.9-4.11-24.62,.76-1.41,1.78-3.25,.36-4.61-2-5.35,4.02-13,7.81-16.75,4.12-3.31,9.42-6.97,14.93-6.23,1.91,.76,3.71,.43,5.61-.03,8.73-2.83,18.24-3.48,25.33,3.18,5.99,1.43,9.24,8.32,12,13.36,1.2,2.02,.46,4.4,1.11,6.52,.64,1.28,.52,2.57,.35,3.89,.45,8.63-9.72,14.98-12.52,4.57-.79-1.62-3.47-2.9-5.12-1.74-2.05,1.28-4.48,2.51-6.94,2.09-2.22-.29,.23,6.4-5,8.34-5.24,1.95-5.73,2.9-8.14,7.76-1.08,1.76,1.91,3.05,1.61,5.11,.02,.23,.5,.45,.79,.63,13.22,5.41,2.22,12.68-6.92,12.23Z"/>
  </g>
  <g id="Layer_1" data-name="Layer 1">
    <image width="520" height="520" transform="translate(25 21) scale(.21)" xlink:href="../Emoji_PNG/french.png"/>
  </g>
</svg>