<?xml version="1.0" encoding="UTF-8"?>
<svg xmlns="http://www.w3.org/2000/svg" xmlns:xlink="http://www.w3.org/1999/xlink" viewBox="0 0 150 150">
  <defs>
    <style>
      .cls-1 {
        fill: url(#linear-gradient);
        stroke: #c3fcd2;
        stroke-width: 3px;
      }

      .cls-1, .cls-2 {
        stroke-miterlimit: 10;
      }

      .cls-2 {
        stroke: #52ff87;
        stroke-width: 2.04px;
      }

      .cls-2, .cls-3 {
        fill: none;
      }
    </style>
    <linearGradient id="linear-gradient" x1="133.72" y1="107.81" x2="12.69" y2="38.87" gradientUnits="userSpaceOnUse">
      <stop offset="0" stop-color="#b6ff93"/>
      <stop offset=".19" stop-color="#56ed86"/>
      <stop offset="1" stop-color="#006833"/>
    </linearGradient>
  </defs>
  <g id="Layer_2" data-name="Layer 2">
    <polygon class="cls-1" points="136.97 110.14 136.97 37.87 74.38 1.73 11.78 37.87 11.78 110.14 74.38 146.28 136.97 110.14"/>
    <rect class="cls-3" x="10.44" y="24.01" width="141.12" height="98.98"/>
    <path class="cls-2" d="M103.11,69.67c-.13,.85-.03,1.21,.74,1.6,5.98,2.98,12.89,8.04,12.66,15.45-.14,3.7-1.85,6.71-4.36,9.33-12.63,12.33-32.05,13.61-48.68,11.48-12.4-1.96-34.05-9.09-29.35-25.29,.52-2.38-2.34-4.34-2.21-6.99-.41-3.51,.32-8.36,4-9.8,4.47-2.23,9.52,2.13,10.23-.28,1.58-12.65,18.09-13.19,28.2-14.01,11.28,.58,33.26,2.21,28.77,18.53Zm-67.55,8.16c1.31,1.42,2.28-1.36,3.4-1.9,1.53-1.19,3.07-2.4,4.73-3.39,3.39-2.23-2.23-5.28-4.59-4.71-5.72-.7-7.47,6.66-3.54,10Z"/>
  </g>
  <g id="Layer_1" data-name="Layer 1">
    <image width="520" height="520" transform="translate(118.26 25) rotate(-180) scale(.17 -.17)" xlink:href="../Emoji_PNG/cafe.png"/>
  </g>
</svg>