<?xml version="1.0" encoding="UTF-8"?>
<svg xmlns="http://www.w3.org/2000/svg" xmlns:xlink="http://www.w3.org/1999/xlink" viewBox="0 0 150 150">
  <defs>
    <style>
      .cls-1 {
        fill: none;
        stroke: #52ff87;
        stroke-width: 2.04px;
      }

      .cls-1, .cls-2 {
        stroke-miterlimit: 10;
      }

      .cls-2 {
        fill: url(#linear-gradient);
        stroke: #c3fcd2;
        stroke-width: 3px;
      }
    </style>
    <linearGradient id="linear-gradient" x1="135.96" y1="110.13" x2="14.3" y2="40.18" gradientUnits="userSpaceOnUse">
      <stop offset="0" stop-color="#b6ff93"/>
      <stop offset=".19" stop-color="#56ed86"/>
      <stop offset="1" stop-color="#006833"/>
    </linearGradient>
  </defs>
  <g id="Layer_2" data-name="Layer 2">
    <polygon class="cls-2" points="137.47 111.14 137.47 38.87 74.88 2.73 12.28 38.87 12.28 111.14 74.88 147.28 137.47 111.14"/>
    <path class="cls-1" d="M66.47,50.6c-2.93,1.08-5.36,3.5-8.33,3.55,1.22-3.91,7.13-4.38,9.08-7.92,.9-2.11,2.03-2.41,3.96-1.32,2.31,.89,3.3-2.91,5.7-1.79,.21,.08,.63-.24,.88-.45,3.7-3.62,5.6,1.11,9.14,1.83,.82,.16,1.7,.26,2.42,.64,9.22,3.57,19.25,.04,28.76-.4,2.13-.21,.86,3.22,1.28,4.54,.04,.97-.34,1.46-1.38,1.49-7.74,.02-15.53,.95-23.25,.19-3.18-1.31-6.62-2.11-10.07-2.55-.11,3.16,.12,6.27,.46,9.35-.3,.65-.66,1.82-1.01,1.82-1.09,0-.7-1.06-.79-1.75-.21-1.61-.4-3.21-.55-4.41-5.59-1.59-3.61,3.39-3.88,6.85,1.12,1.66,4.03,.88,5.81,1.46,6.54,1.03,12.64,3.25,18.12,7.02,9.47,5.66,14,18.77,7.09,28.14-8.47,11.81-24.23,15.65-38.06,15.06-17.6-.05-43.84-14.93-32.4-35.26,5.71-9.52,16.38-12.86,26.57-15.14,.97-.25,1.37-.51,1.23-1.66-.42-3.12-.36-6.12-.8-9.27Zm4.65,10.49c2.95-.02,3.12-.21,2.73-3.09-.23-3.25-.87-7.06-3.67-9.02-2.38,.73-.49,8-.88,10.35,.05,1.7,.11,1.77,1.82,1.76Zm4.96-7.21c-.66,1.07-.33,5.56,.49,6.7,.78-1.25,.44-5.88-.49-6.7Zm-.37-3.19l.51-3.19c-.15-.02-.31-.04-.46-.06-.7,1-.25,2.17-.05,3.25Z"/>
  </g>
  <g id="Layer_1" data-name="Layer 1">
    <image width="520" height="520" transform="translate(6 2) scale(.27)" xlink:href="../Emoji_PNG/italian.png"/>
  </g>
</svg>