<?xml version="1.0" encoding="UTF-8"?>
<svg xmlns="http://www.w3.org/2000/svg" xmlns:xlink="http://www.w3.org/1999/xlink" viewBox="0 0 150 150">
  <defs>
    <style>
      .cls-1 {
        fill: url(#linear-gradient);
        stroke: #c3fcd2;
        stroke-width: 3px;
      }

      .cls-1, .cls-2 {
        stroke-miterlimit: 10;
      }

      .cls-2 {
        fill: none;
        stroke: #52ff87;
        stroke-width: 2.1px;
      }
    </style>
    <linearGradient id="linear-gradient" x1="137.14" y1="38.32" x2="7.7" y2="113.38" gradientUnits="userSpaceOnUse">
      <stop offset="0" stop-color="#b6ff93"/>
      <stop offset=".19" stop-color="#56ed86"/>
      <stop offset="1" stop-color="#006833"/>
    </linearGradient>
  </defs>
  <g id="Layer_2" data-name="Layer 2">
    <polygon class="cls-1" points="136.47 111.14 136.47 38.87 73.88 2.73 11.28 38.87 11.28 111.14 73.88 147.28 136.47 111.14"/>
    <path class="cls-2" d="M65.99,108.06c-7.04-.15-13.83-1.4-20-4.97-3.83-2.22-6.97-5.28-9.55-8.87-.6-.83-.9-1.99-1.02-3.03-.17-1.59,.83-2.67,2.45-2.61,1.28,.05,2.57,.39,3.82,.72,2.83,.74,5.6,1.94,8.46,2.24,5.14,.54,9.68-1.2,13.2-5.11,3.61-4.02,5.91-8.82,8.03-13.73,1.85-4.3,3.53-8.71,6.37-12.51,1.63-2.17,3.56-3.99,6.1-5.09,.56-.24,1.08-.66,1.49-1.11,.66-.71,1.38-1.05,2.35-.89,2.32,.38,4.57,.03,6.74-.81,3.93-1.51,4.99-3.57,4.03-7.71-.77-3.3-3.06-4.41-6.12-2.97-1.3,.61-2.15,.07-2.11-1.34,.02-.81,.4-1.26,1.23-1.26,1.2,0,2.4,.01,3.6-.01,2.42-.04,4.08,1.18,5.18,3.21,1.2,2.2,1.61,4.53,1.36,7.05-.45,4.62-.09,9.11,2.65,13.1,.32,.46,.64,.99,.72,1.52,.08,.53-.13,1.11-.26,1.66-.1,.42-.43,.85-.38,1.23,.45,3,.04,5.95-.76,8.8-2.45,8.74-6.78,16.43-13.38,22.71-5.93,5.65-13.04,8.96-21.23,9.77-.98,.1-1.97,.01-2.96,.01Z"/>
  </g>
  <g id="Layer_1" data-name="Layer 1">
    <image width="520" height="520" transform="translate(16 19) scale(.21)" xlink:href="../Emoji_PNG/sambal.png"/>
  </g>
</svg>