<?xml version="1.0" encoding="UTF-8"?>
<svg id="Layer_2" data-name="Layer 2" xmlns="http://www.w3.org/2000/svg" xmlns:xlink="http://www.w3.org/1999/xlink" viewBox="0 0 150 150">
  <defs>
    <style>
      .cls-1 {
        fill: #d9ab73;
      }

      .cls-2 {
        fill: #f8daa0;
      }

      .cls-3 {
        fill: #d2a97b;
      }

      .cls-4 {
        fill: #b78357;
      }

      .cls-5 {
        fill: #f3dcb1;
      }

      .cls-6 {
        fill: #c8996b;
      }

      .cls-7 {
        fill: #d7b084;
      }

      .cls-8 {
        fill: #dfaf75;
      }

      .cls-9 {
        fill: #d0a374;
      }

      .cls-10 {
        fill: url(#linear-gradient);
        stroke: #c3fcd2;
        stroke-miterlimit: 10;
        stroke-width: 3px;
      }

      .cls-11 {
        fill: #d09e68;
      }

      .cls-12 {
        fill: #d3a878;
      }

      .cls-13 {
        fill: #ecc68c;
      }

      .cls-14 {
        fill: #e8c79a;
      }

      .cls-15 {
        fill: #ba8659;
      }

      .cls-16 {
        fill: #fae2b1;
      }

      .cls-17 {
        fill: #e0be93;
      }

      .cls-18 {
        fill: #e9bb7d;
      }

      .cls-19 {
        fill: #deb480;
      }

      .cls-20 {
        fill: #bd8e5e;
      }

      .cls-21 {
        fill: #fbf1cc;
      }

      .cls-22 {
        fill: #ddbc8d;
      }

      .cls-23 {
        fill: #e8bf84;
      }

      .cls-24 {
        fill: #e8c89e;
      }

      .cls-25 {
        fill: #f0cb8f;
      }

      .cls-26 {
        fill: #dcb68a;
      }

      .cls-27 {
        fill: #e3bc82;
      }

      .cls-28 {
        fill: #f0ce9a;
      }

      .cls-29 {
        fill: #be9669;
      }

      .cls-30 {
        fill: #f7d79f;
      }

      .cls-31 {
        fill: #f9e6ba;
      }

      .cls-32 {
        fill: #f5d49f;
      }

      .cls-33 {
        fill: #b98557;
      }

      .cls-34 {
        fill: #f2d29e;
      }

      .cls-35 {
        fill: #e2b981;
      }

      .cls-36 {
        fill: #f3cc91;
      }

      .cls-37 {
        fill: #e9ca9e;
      }

      .cls-38 {
        fill: #e1af74;
      }

      .cls-39 {
        fill: #f6d9a7;
      }

      .cls-40 {
        fill: #eac084;
      }

      .cls-41 {
        fill: #dbb88c;
      }

      .cls-42 {
        fill: #eed1a7;
      }

      .cls-43 {
        fill: #fbedc5;
      }

      .cls-44 {
        fill: #ebc991;
      }

      .cls-45 {
        fill: #f9ddac;
      }

      .cls-46 {
        fill: #f4d49c;
      }

      .cls-47 {
        fill: #e0bc8e;
      }

      .cls-48 {
        fill: #d4a672;
      }

      .cls-49 {
        fill: #a7774e;
      }

      .cls-50 {
        stroke: #52ff87;
        stroke-linecap: round;
        stroke-linejoin: round;
        stroke-width: 2.01px;
      }

      .cls-50, .cls-51 {
        fill: none;
      }

      .cls-52 {
        fill: #d8b585;
      }

      .cls-53 {
        fill: #aa794c;
      }

      .cls-54 {
        fill: #edc893;
      }

      .cls-55 {
        fill: #f8eccf;
      }

      .cls-56 {
        fill: #f5d8b1;
      }

      .cls-57 {
        fill: #a77f56;
      }

      .cls-58 {
        fill: #e4ba84;
      }

      .cls-59 {
        fill: #d9b384;
      }

      .cls-60 {
        fill: #cfa272;
      }

      .cls-61 {
        fill: #fae0b0;
      }

      .cls-62 {
        fill: #c89762;
      }

      .cls-63 {
        fill: #ce9f6b;
      }

      .cls-64 {
        fill: #efd3a8;
      }

      .cls-65 {
        fill: #c59f73;
      }

      .cls-66 {
        fill: #f6dda3;
      }

      .cls-67 {
        fill: #d0ac7c;
      }

      .cls-68 {
        fill: #efd2a6;
      }

      .cls-69 {
        fill: #b17c51;
      }

      .cls-70 {
        fill: #fadfb8;
      }

      .cls-71 {
        fill: #b17d51;
      }

      .cls-72 {
        fill: #c79a6b;
      }

      .cls-73 {
        fill: #c89c73;
      }

      .cls-74 {
        fill: #b6875c;
      }

      .cls-75 {
        fill: #f9d693;
      }

      .cls-76 {
        fill: #bf8d5f;
      }
    </style>
    <linearGradient id="linear-gradient" x1="135.39" y1="109.92" x2="14.88" y2="39.96" gradientUnits="userSpaceOnUse">
      <stop offset="0" stop-color="#b6ff93"/>
      <stop offset=".19" stop-color="#56ed86"/>
      <stop offset="1" stop-color="#006833"/>
    </linearGradient>
  </defs>
  <polygon class="cls-10" points="137.84 111.14 137.84 38.87 75.25 2.73 12.66 38.87 12.66 111.14 75.25 147.28 137.84 111.14"/>
  <rect class="cls-51" x="10.44" y="25.01" width="141.12" height="98.98"/>
  <path class="cls-50" d="M111.96,46.06c1.28,1.03,1.85,2.71,1.54,4.32-1.38,7.17-.84,14.32-1.61,21.53-1.65,13.39-12.3,23.4-23.42,29.99-17.75,10.73-28.27,1.91-46.02,7.68-6.66,1.34-1.56-8.19-1.75-11.55-2.71-7.26,2.58-14.55,6.28-20.61,.49-.78,.43-1.29-.35-1.86-4.85-2.43,3.85-9.42,6.11-11.26,1.39-1.19,2.67-2.52,3.97-3.82,1.88-2.13-3.2-3.29,.39-5.78,2.86-2.3,5.81-4.5,8.79-6.65,1.48-1.07,1.52-.96,1.08-2.77-.08-.33,.17-.99,.45-1.13,3.9-2.07,8.23-3.11,12.41-4.46,.36-.11,1.09-.03,1.19,.18,.4,.83,1.01,.78,1.68,.59,4.55-1.23,9.24-1.13,13.89-1.31,1.52,.13,1.49,2.38,3.06,2.47,3.88,1.15,9.07,1.8,12.32,4.44Z"/>
  <g>
    <path class="cls-16" d="M67.55,46.29c-.69-1.21-.59-1.61,.64-2.09,2.97-1.15,5.9-2.41,9.03-3.11,.74-.17,1.44-.53,2.16-.8,.73-.28,1.36-.62,1.77,.55,.24,.68,1.11,.41,1.66,.22,2.13-.73,4.35-.82,6.55-1.08,2.26-.27,4.53,.04,6.78-.37,1-.18,1.35,.5,1.51,1.34-.25,.12-.5,.05-.75-.02-2.2-.46-4.38-.45-6.6-.02-1.94,.38-3.95,.35-5.91,.69-.85,.21-1.75,.04-2.6,.44-.57,.27-.79,.55-.6,1.13,.03,.11,.05,.22,.07,.33,.03,.27,.04,.54-.01,.81-.22,1.14-1.09,1.62-1.9,.86-1.25-1.19-2.36-.72-3.56-.12-2.37,1.19-4.8,2.33-7.05,3.7-1.93,1.17-3.95,2.23-5.72,3.67-.38,.31-.87,.65-.82,1.18,.05,.5,.77,.62,.9,1.15,.4,1.28,1.42,2.12,2.29,3.05,.89,.95,1.77,1.93,2.66,2.88,.23,.24,.5,.52,.27,.92-.51,.26-.77-.12-1.07-.41-1.03-.98-2.01-2.01-3.06-2.96-1.25-1.13-2.15-1.12-3.3,.12-.62,.67-1.3,1.3-1.74,2.14-.64,1.21-1.82,1.97-2.68,3.01-1.11,1.33-2.42,2.43-3.75,3.51-.7,.57-1,1.23-.67,2.11-.03,.69,.5,.91,.98,1.14,1.61,.76,3.02,1.86,4.59,2.68,.36,.19,.92,.34,.69,.99-.81,.37-1.52,.17-2.09-.45-.5-.54-1.07-.71-1.76-.58-.23,.04-.46,.04-.69-.01-1.35-.27-1.65-.14-2.27,1.14-.32,.66-.76,1.24-1.17,1.85-.22,.33-.49,.6-.93,.58-.26-.29-.48-.63-.86-.79-.17-.61,.28-1.01,.51-1.48,.13-.19,.26-.38,.34-.6,.12-.35,.47-.74,.11-1.05-.38-.33-.69,.09-1,.3-.59,.72-1.15,1.46-1.97,1.94-1.24-1.05-1.29-1.08-.31-2.76,1.22-2.08,2.51-4.17,4.49-5.59,1.7-1.22,3.22-2.63,4.83-3.95,.77-.64,1.44-1.44,1.92-2.37,.26-.51,.21-.9-.17-1.35-1.51-1.78-1.38-2.6,.45-4.05,1.91-1.51,3.76-3.09,5.7-4.55,1.02-.77,2.14-1.43,3.27-2.01,.63-.33,.99-.68,.93-1.39,2.07-.88,4.1-1.85,5.61-2.47-1.08,.56-2.84,1.1-4.47,1.92-.36,.18-.79,.33-1.21,.11Z"/>
    <path class="cls-57" d="M111.36,70.15c-.21,4.68-2,8.88-4.01,13-2.25,4.64-6,8.03-9.78,11.37-1.96,1.73-4.08,3.26-6.24,4.74-.18,.13-.34,.33-.61,.26-.31-.14-.61-.06-.89,.06-2.44,1.06-5.05,1.59-7.56,2.44-1.78,.61-3.29,1.67-4.95,2.46-.9,.43-1.77,.63-2.76,.7-4.4,.31-8.66-.54-12.96-1.26-1.98-.33-4.02-.31-5.99-.05-2,.26-3.65,1.59-5.71,2.38,.55,.22,1.01,.11,1.27,.46-2.17,.54-4.35,1.09-6.52,1.62-.99,.24-1.99,.43-2.99,.64-.2-.28-.03-.46,.18-.62,1.09-.5,2.3-.57,3.41-1.06,1.7-.74,2.91-2.15,4.49-3.02,.87-.48,1.71-1.02,2.46-1.71,.55-.51,1.31-.67,2.04-.73,1.58-.13,3.18-.24,4.73,.02,3.23,.56,6.47,.98,9.72,1.37,3.52,.42,6.99,.35,10.23-1.47,1.69-.95,3.61-1.35,5.48-1.76,3.36-.73,6.26-2.33,8.86-4.51,1.36-1.14,2.82-2.15,4.27-3.15,1.25-.86,2.34-1.86,3.35-2.98,.98-1.08,2.08-2.04,2.92-3.23,.77-1.09,1.61-2.14,1.96-3.47,.11-.49,.35-.93,.49-1.41,1.11-2.66,2.46-5.24,3.11-8.06,.47-2.05,.73-4.14,1-6.24,.49-3.78,.16-7.61,.77-11.37,.14-.84,.31-1.67,.64-2.45,.07-.18,.18-.48,.49-.27,.14,.1,.07,.27,0,.42-.49,2.16-.65,4.34-.76,6.55-.13,2.52,.24,5.03,0,7.55-.22,.92,.08,1.87-.17,2.79Z"/>
    <path class="cls-49" d="M51.18,106.7h-2.01c.07-.23,.07-.4,.13-.42,.89-.35,1.79-.78,2.55-1.29,2.67-1.77,5.62-1.62,8.58-1.54,1.69,.05,3.34,.41,4.98,.79,3.37,.78,6.78,.65,10.19,.56,1.28-.04,2.32-.98,3.4-1.6,1.92-1.1,3.97-1.71,6.05-2.37,1.48-.47,3.04-.73,4.43-1.49,.45-.25,.92-.5,1.26,.17-5.43,3.86-11.5,6.1-18.04,7.19-4.85,.8-9.67,.12-14.49-.3-2.36-.21-4.68,.18-7.02,.31Z"/>
    <path class="cls-19" d="M40.01,107.9c-.66-.71-.27-1.44-.02-2.17,1.14-.72,1.7-1.82,2.02-3.07,.28-1.1,.81-2.14,.8-3.32,0-.44,.23-.8,.72-.91,.31,.02,.52-.03,.75-.34,2.52-3.28,5.64-5.14,9.99-4.55,2.15,.29,4.37,.12,6.51,.66,.84,.28,1.66,.63,2.55,.71,1.51,.13,2.11,1.41,3,2.33,.52,.56,1.11,1.06,1.47,1.75,.18,.34,.58,.67,.17,1.11-1.16,.03-2.2-.41-3.13-1-1.24-.78-2.55-1.43-3.84-2.11-1.38-.72-2.94-.47-4.41-.54-1.1-.05-2.26,.04-3.32-.17-2.72-.54-4.57,.77-6.25,2.6-1.84,1.5-2.97,3.46-3.75,5.67-.56,1.59-1.57,2.8-3.23,3.35Z"/>
    <path class="cls-27" d="M112.72,47.45c.16,.11,.22,.27,.2,.46-1.13,1.54-1.91,3.3-2.97,4.88-.52,.77-1.12,.87-1.71,.2-.87-.99-2-1.56-3.1-2.17-.74-.41-1.28-.95-1.7-1.66-.99-1.7-2.6-2.69-4.25-3.63-.57-.32-.92-.11-1.15,.48-.61,1.54-.2,2.94,.52,4.31,.64,1.34,1.39,2.62,2.04,3.96,.1,.2,.19,.4,.25,.62,.05,.23,.04,.45-.11,.64-.68,.06-.71-.58-1-.93-.31-.39-.49-.87-.82-1.24-.52-.63-.67-1.42-.92-2.17-.75-1.18-1.28-2.45-1.49-3.85-.09-.62-.11-1.23,.16-1.81,.67-1.48,.9-1.97,2.82-1.75,2.21,.26,4.4,.7,6.62,.79,1.28-.19,2.11,.75,3.08,1.28,1.13,.62,2.25,1.25,3.51,1.59Z"/>
    <path class="cls-59" d="M98.37,50.45c-1.06-1.59-1.21-3.26-.46-5.02,.22-.51,.53-.63,1-.37,1.86,1.02,3.76,2.02,4.76,4.01,.6,1.19,1.77,1.54,2.76,2.15,.69,.43,1.37,.82,1.88,1.49,.47,.62,.97,.73,1.41-.06,.45-.8,1.03-1.56,1.34-2.41,.37-1.01,1.18-1.6,1.85-2.32,0,.87,.26,1.75-.16,2.6-.4-.32-.28-.74-.23-1.15-.13,.74-.36,1.45-.64,2.14-1.31,3.2-1.55,6.52-1.45,9.95,.11,3.48,.19,7-.93,10.39-.15,.29-.29,.58-.65,.66-.34-.18-.32-.5-.29-.81,.02-.12,.05-.23,.1-.34,.39-.69,.26-1.44,.28-2.18,0-.3,.02-.59,.09-.88,.5-2.87,.65-5.73-.12-8.58-.33-1.24-.61-1.33-1.46-.41-1.19,1.27-2.03,2.8-2.99,4.24-.51,.76-1.02,.89-1.64,.16-.43-1.34-1.09-2.62-.9-4.09,.43-.39,.52,.05,.62,.29,.22,.57,.38,1.17,.55,1.76,.08,.28,.05,.69,.44,.73,.31,.03,.41-.3,.55-.52,.42-.65,.88-1.27,1.19-1.98,.48-1.1,1.03-2.13,1.84-3.04,.75-.85,.52-1.79-.48-2.58-.94-.74-2.01-1.28-2.95-2.03-.99-.78-1.78-1.69-2.34-2.81-.33-.65-.74-1.26-1.18-1.85-.35-.46-.75-1.04-1.39-.82-.75,.25-.54,1.01-.55,1.6,0,.39,.14,.76,.23,1.13,.09,.33,.21,.67-.08,.98Z"/>
    <path class="cls-65" d="M109.25,71.98c.93-3.2,1.12-6.5,.88-9.78-.2-2.74,.07-5.41,.54-8.07,.31-1.79,1.18-3.42,2.02-5.06,.03,.48,.05,.96,.08,1.44-.02,.94-.11,1.88-.47,2.76-.1-.29-.15-.47-.28,0-.77,2.76-.85,5.58-.93,8.43-.12,4.35-.46,8.71-1.73,12.88-.72,2.36-1.7,4.68-2.88,6.88-1.65,2.8-3.58,5.37-5.9,7.66-1.07,1.06-2.12,2.15-3.38,2.95-2.15,1.36-4.19,2.86-6.12,4.53-1.73,1.5-3.9,2.16-6.06,2.72-2.17,.56-4.3,1.2-6.38,2.02-3.01,1.18-6.11,1.34-9.3,.96-2.31-.28-4.5-1.01-6.75-1.53-.57-.13-.56-.16-.66-.7,.77-.36,1.52-.08,2.26,.1,2.5,.6,4.98,1.35,7.6,1.34,1.5,0,2.99-.24,4.45-.56,1.5-.31,2.84-1.07,4.26-1.6,.43-.16,.86-.31,1.32-.34,.8,.03,1.52-.29,2.25-.54,.1-.04,.21-.08,.31-.11,3.12-.73,5.9-2.07,8.01-4.57,.86-.85,1.93-1.4,2.94-2.03,3.25-2.04,5.78-4.81,8.12-7.79,2.15-2.74,3.37-5.96,4.82-9.05,.43-.92,.6-1.98,1-2.93Z"/>
    <path class="cls-60" d="M76.38,101.14c-2.59,.79-5.2,.81-7.87,.38-2.25-.36-4.38-1.36-6.71-1.31-.34,.32-.72,.16-1.09,.09-2.9-.57-5.85-.92-8.75-1.48-1.24-.24-2.22,.16-3.04,.97-1.55,1.52-3.27,2.89-4.2,4.98-.61,1.38-1.71,2.44-2.97,3.32-.39,.28-.78,.47-1.26,.47-.27-.15-.46-.35-.48-.67,.04-.11,.04-.29,.11-.32,2.11-.78,2.69-2.69,3.41-4.52,.67-1.71,1.69-3.18,3.23-4.24,.42-.28,.73-.67,1.11-1,1.32-1.18,2.81-1.61,4.58-1.3,2,.36,4.06,.24,6.07,.66,2.58,.54,5.01,1.51,7.41,2.55,2.95,1.28,6.01,1.51,9.16,1.17,.46-.05,.92-.15,1.3,.23Z"/>
    <path class="cls-29" d="M40.49,108.57c2.13-1.22,3.72-2.93,4.63-5.22,.23-.57,.67-.94,1.04-1.36,.8-.88,1.73-1.64,2.56-2.49,1.28-1.3,2.81-1.13,4.39-.84,2.89,.53,5.79,1.04,8.69,1.55,2.83,.78,5.65,1.54,8.59,1.9,3.91,.48,7.41-.74,10.94-2.05,.79-.29,1.6-.55,2.42-.72,3.37-.71,6.44-2,8.94-4.45,1.49-1.47,3.46-2.28,5.05-3.61,2.86-2.4,5.46-5.04,7.37-8.28,.36-.61,.76-1.15,1.36-1.53-.15,.39-.31,.77-.46,1.16-1.19,2.98-3.5,5.09-5.65,7.33-2.15,2.24-4.99,3.61-7.24,5.69-3.4,3.14-7.67,4.06-11.88,5.23-.71,.2-1.42,.4-2.06,.72-2.94,1.47-6.04,1.56-9.25,1.36-3.74-.23-7.22-1.56-10.86-2.18-2.35-.4-4.69-.92-7.09-.96-.93-.02-1.74,.23-2.43,.87-1.67,1.52-3.56,2.83-4.51,5.02-.32,.74-.98,1.28-1.67,1.72-.52,.33-1.05,.65-1.47,1.11-.18,.09-.22,.24-.23,.42-.48,.11-.86-.04-1.18-.39Z"/>
    <path class="cls-54" d="M43.52,98.59c-.37,.17-.46,.47-.47,.85-.04,1.85-.79,3.49-1.49,5.14-.29,.69-.78,1.14-1.57,1.15,.55-3.14,1.11-6.28,1.66-9.43-1.23-1.24-1.2-2.42,.1-3.72,.22-.22,.46-.43,.8-.3,.32,.13,.45,.41,.43,.74-.04,.69-.07,1.38-.22,2.05-.23,1.01-.36,2.04-.31,3.25,.49-1.4,.65-2.74,1.14-3.98,.75-1.51,1.88-2.31,3.62-2.68,2.05-.43,4.12-.53,6.17-.79,.77-.1,1.53,.07,2.28,.29,1.01,.56,2.16,.73,3.2,1.2,.51,.27,1.03,.5,1.57,.72,.3,.12,.84,.11,.66,.71-.48,.32-.98,.12-1.46,0-1.88-.47-3.8-.65-5.71-.87-2.01-.23-3.9,.12-5.64,1.23-1.61,1.02-3.16,2.06-4.06,3.82-.15,.29-.43,.43-.69,.6Z"/>
    <path class="cls-39" d="M43.75,94.42c-.39,1.57-.47,3.23-1.53,4.79-.13-1.15-.15-2.13,0-3.12,.16-1.01,.3-2.03,.48-3.04,.04-.25,.04-.45-.19-.59-.15-.09-.35-.07-.41,.07-.36,.81-1.19,1.36-1.17,2.41,.01,.65,.74,.78,.71,1.36-.95-.39-1.34-1.1-1.15-2.11,.24-1.31,.47-2.63,.71-3.94,.27-.23,.45-.51,.57-.84,.11-.29,.3-.68,.56-.69,1.58-.07,2.97-1.63,4.71-.55,.72,.45,1.56,.54,2.44,.43,1.31-.16,2.37,.73,3.59,.99,.17,.04,.26,.26,.2,.48-.59,.59-1.35,.7-2.12,.72-2.03,.05-3.85,.96-5.79,1.39-1.05,.23-1.21,1.38-1.6,2.24Z"/>
    <path class="cls-31" d="M53.23,90.03c-1.49-.36-2.78-1.58-4.48-1.01-.62,.21-1.08-.31-1.62-.45-1.11-.28-2.26-1.26-3.16,.36-.05,.09-.33,.18-.4,.13-1.08-.77-1.36,.1-1.72,.81-.13,.26-.36,.38-.66,.39,.38-2.53,1.37-4.88,2.68-7.01,1.26-2.04,2.52-4.07,3.72-6.14,.23-.39,.35-.75,.3-1.19,.21-.17,.45-.23,.71-.24,.78-.32,1.01-.08,.69,.69,.13,.67-.43,1.02-.71,1.49-.49,.82-.99,1.64-1.42,2.5-.88,1.67-1.96,3.21-2.91,4.84-.57,.98-.52,1.08,.59,1.35,.3,.07,.6,.15,.91,.18,.99,.12,1.88,.58,2.84,.78,1.2,.29,2.35,.76,3.54,1.07,1,.35,2.02,.65,3.03,.96,1.15,.29,2.25,.76,3.42,.98,1.66,.44,3.32,.87,4.89,1.59,.12,.68-.35,.72-.78,.62-2.84-.67-5.73-1.16-8.5-2.11-.36-.12-.73-.25-.97-.59Z"/>
    <path class="cls-5" d="M112.72,47.45c-1.82,.07-3.08-1.2-4.57-1.93-.62-.3-1.16-.75-1.9-.63-.85-.37-1.78-.45-2.65-.74-1.52-.67-3.16-.75-4.78-.92-.55-.06-1.04-.21-1.48-.54-.41-.41-.45-.91-.4-1.45,.03-.2,.12-.37,.27-.51,.15,.08,.29,.15,.44,.23,0,.62,.07,1.12,.91,1.16,2.58,.15,5.02,.9,7.44,1.73,2.44,.84,4.35,2.63,6.71,3.59Z"/>
    <path class="cls-75" d="M48.61,75.68c-.13,.39-.39,.4-.71,.24-.46-.39-1.07-.59-1.39-1.15,.4-.89,1.24-1.4,1.86-2.1,1.14-.07,1.25,.13,.92,1.62-.23,.46-.46,.93-.69,1.39Z"/>
    <path class="cls-36" d="M67.55,46.29c2.34-.93,4.68-1.87,7.01-2.8,.04,.09,.08,.18,.11,.27-1.58,.86-3.21,1.64-4.9,2.28-.7,.27-1.21,1.19-2.15,.7-.02-.15-.05-.3-.07-.45Z"/>
    <path class="cls-65" d="M111.36,70.15c.03-.93-.19-1.88,.17-2.79,.03,.94,.17,1.88-.17,2.79Z"/>
    <path class="cls-45" d="M46.98,80.31c.51-1.47,1.47-2.67,2.32-3.93,1.02-.59,1.44-1.65,1.98-2.6,.15-.26,.12-.62,.43-.79,.62-.34,1.09-1.43,2.01-.38,.12,.14,.6,.03,.88-.06,.58-.19,1.32-.03,1.48,.3,.51,1.04,1.36,.99,2.25,.98,1.08,0,1.93,.66,2.77,1.17,1.41,.86,3.01,1.28,4.4,2.14,.56,.13,.88,.57,1.27,.93,.23,.23,.43,.48,.61,.75,.15,.24,.34,.46,.33,.77-.17,.49-.48,.27-.73,.12-1.57-.93-3.34-1.37-5-2.06-.54-.22-.99-.2-1.44,.29-1.95,2.15-4.98,2.79-7.79,1.71-.87-.46-1.85-.49-2.77-.79-.77-.25-1.28,.32-1.8,.79-.34,.3-.51,.94-1.18,.65Z"/>
    <path class="cls-28" d="M97.44,42.58c1.29,.46,2.67,.46,4,.66,.82,.12,1.55,.32,2.25,.73-.19,.23-.48,.33-.72,.25-1.33-.4-2.74-.1-4.09-.49-1.49-.43-3.19,1.27-2.79,2.79,.46,1.74,1.14,3.41,2.27,4.86,.08,.67,.39,1.26,.7,1.85,.3,.69,.94,1.5,.07,2.05-.89,.56-1.35-.38-1.8-.96-1.02-1.31-1.94-2.68-2.79-4.11-.65-1.1-1.48-2.07-2.75-2.52-2.53-1.69-5.38-2.63-8.27-3.47-.71-.21-1.41-.35-2.15-.34-.19-.06-.25-.23-.36-.37,0-.08,0-.15,0-.23-.19-.89,.37-1.04,1.05-1.03,.96,.01,1.91,.19,2.84,.41,1.32,.32,2.66,.32,4,.39,1.13,.06,2.24-.22,3.21-.78,1.88-1.08,3.62-.96,5.33,.32Z"/>
    <path class="cls-2" d="M81.01,43.51c.08,.08,.16,.16,.23,.24,.5,.84,.66,1.8,.89,2.73,.04,.71,.43,1.35,.43,2.07-.23,.56-.54,.46-.85,.08-.22-.27-.45-.52-.66-.8-1.94-2.55-3.75-1.9-6.31-1.04-2.77,.93-5.07,2.71-7.36,4.47-.43,.33-.87,.68-1.11,1.16-.57,1.19-1.44,2.18-2.07,3.32-.78,.21-.99-.39-1.26-.9-.07-.09-.11-.21-.2-.28-1.21-.93-1.14-1.6,.17-2.48,3.92-2.65,8.06-4.92,12.27-7.05,.65-.33,1.34-.58,1.99-.89,.64-.3,1.19-.23,1.65,.32,.41,.49,.98,.97,1.56,.76,.7-.25,.61-1.06,.61-1.72Z"/>
    <path class="cls-66" d="M51.85,69.19c-1-1.87,.73-2.62,1.69-3.29,1.34-.94,2.14-2.33,3.39-3.3,1.41-1.09,2.19-2.71,3.33-4.04,.64-.75,1.5-1.02,2.22-1.54,.41-.3,.91,0,1.3,.41,1.3,1.34,2.64,2.63,3.98,3.93,.12,.12,.34,.14,.52,.21,.33,.22,.38,.43-.03,.61-.44,.07-.72-.21-1.02-.44-.61-.47-1.2-.97-1.81-1.44-1.84-1.43-3.46-1.28-5.05,.44-1.13,1.23-1.91,2.7-2.86,4.05-1.26,1.79-2.7,3.44-4.03,5.18-.74,.15-1.27-.12-1.64-.77Z"/>
    <path class="cls-30" d="M97.44,42.58c-.45-.02-.93,.1-1.32-.27-.81-.76-1.62-.71-2.62-.26-1.1,.49-2.2,1.09-3.45,1.23-1.79,.2-3.56,0-5.32-.33-.9-.17-1.82-.21-2.71-.39-.68-.14-.92,.14-1.02,.72-.39-1.09,.18-1.74,1.65-1.84,.53-.04,1.06,0,1.59,0,3.92-.2,7.84-.22,11.75-.64,.48-.05,.93-.09,1.22,.41,0,.48-.04,.96,.23,1.39Z"/>
    <path class="cls-43" d="M68.29,62.03c.25-.16,0-.31-.01-.46-.69-1.35-1.85-2.35-2.91-3.33-.9-.83-1.29-2.1-2.45-2.67-.3-.15-.05-.48,.05-.72,.39,.31,.77,.62,1.16,.93,.48,.11,.73,.53,1.08,.82,.53,.48,.93,1.06,1.39,1.6,.37,.36,.67,.78,.98,1.19,.93,1.01,1.94,1.95,2.91,2.93,.46,.49,.94,.96,1.42,1.43,.25,.26,.52,.52,.77,.79,.89,1.22,1.82,2.42,2.47,3.8-.11,.73-.57,.47-.76,.16-1.01-1.68-2.84-2.61-3.93-4.18-.61-.88-1.59-1.38-2.14-2.29Z"/>
    <path class="cls-61" d="M97.21,41.19c-.31-.16-.63-.3-.99-.18-1.41,.49-2.88,.46-4.33,.4-2.16-.08-4.28,.41-6.44,.24-.41-.03-.86,.15-1.2-.23,1.44-.31,2.87-.66,4.36-.59,.62,.03,1.2-.14,1.79-.26,2.28-.48,4.56-.52,6.81,.16,0,.15,0,.31,0,.46Z"/>
    <path class="cls-21" d="M51.85,69.19c.54,.23,1.01,.62,1.62,.7,.77,.07,1.28,.68,1.97,.93,.53,.33,1.04,.69,1.57,1.01,.59,.43,1.24,.75,1.85,1.15,.52,.34,1.1,.58,1.63,.91,.55,.32,1.13,.58,1.7,.86,.89,.5,1.77,1.01,2.61,1.59,.33,.23,.76,.39,.73,.92-.12,.18-.25,.25-.47,.14-2.24-1.19-4.48-2.38-6.73-3.57-1.72-1.29-3.6-2.31-5.47-3.34-.49-.27-1.27-.41-1-1.3Z"/>
    <path class="cls-45" d="M49.3,74.29c0-.72,.18-1.54-.92-1.62,.32-.46,.77-.86,1.3-.56,.62,.36,.25,.93,.02,1.39-.13,.26-.1,.61-.39,.79Z"/>
    <path class="cls-20" d="M41.9,108.54c.08-.66,.57-.98,1.1-1.23,.9-.45,1.64-1.15,1.97-2.03,.79-2.08,2.66-3.11,4.07-4.59,1.52-1.59,3.41-1.25,5.28-1,3.3,.45,6.59,1.01,9.79,1.94,2.99,.87,6.01,1.11,9.08,1.12,1.94,0,3.78-.47,5.56-1.28,2.25-1.01,4.69-1.44,7.04-2.14,1.94-.58,3.82-1.28,5.44-2.44,.94-.67,1.79-1.5,2.75-2.2,2.24-1.66,4.61-3.17,6.52-5.26,1.86-2.02,4.05-3.77,5.1-6.43,.06-.16,.27-.26,.41-.38,.02,.32,.14,.6-.12,.96-1.02,1.42-1.75,3.15-3.01,4.29-1.3,1.18-2.27,2.73-3.73,3.68-3.25,2.12-6.11,4.78-9.44,6.77-1.79,1.07-3.79,1.65-5.82,2.11-2.11,.47-4.13,1.16-6.06,2.17-1.41,.74-2.97,1.02-4.55,1.09-3.78,.17-7.48-.53-11.19-1.07-2.8-.41-5.6-.91-8.46-.36-1.5,.29-2.25,1.66-3.56,2.21-1.69,.71-2.82,2.29-4.55,3.04-1.19,.52-2.42,.69-3.62,1.05Z"/>
    <path class="cls-47" d="M43.52,98.59c1.15-2.54,3.26-4.04,5.65-5.26,1.65-.84,3.38-.82,5.16-.67,2.29,.19,4.52,.74,6.78,1.07,2.34,.19,4.65,.64,6.92,1.2,1.89,.47,3.75,.86,5.69,.28,.78-.24,1.29,.2,1.73,.82,.95,1.35,.99,1.4,2.53,.86,3.78-1.33,7.52-2.76,10.65-5.39,1.42-1.19,3.11-1.86,4.84-2.4,1.33-.42,2.39-1.19,3.08-2.31,1.88-3.01,4.7-5.19,6.83-7.95,2.09-2.71,4.5-5.32,5.02-8.95,.09-.65,.04-1.32,.29-1.94,.11-.27,.07-.77,.62-.58,.03,.3,.11,.61-.08,.89,0,.31,0,.62,0,.92-.23,.76-.1,1.58-.46,2.31h0c-.23,1.08-.47,2.16-.95,3.16-.05,.11-.1,.21-.17,.3-1.33,2.03-2.63,4.07-4.1,6.01-.16,.21-.27,.48-.48,.65-2.46,1.86-4.11,4.46-6.13,6.73-.78,.87-1.71,1.65-2.81,1.97-2.72,.77-4.87,2.46-7.06,4.08-1.45,1.06-3.06,1.79-4.65,2.54-1.22,.57-2.4,1.22-3.66,1.69-2.19,.82-4.39,1.46-6.71,.38-.52-.24-1.12-.29-1.68-.4-.86-.17-1.5-.61-2.15-1.23-1.45-1.38-3.29-2.09-5.24-2.46-.71-.14-1.41-.32-2.11-.5-2.41-.44-4.88-.33-7.3-.68-3.06-.44-5.4,1.09-7.65,2.8-.64,.48-1.28,1.02-1.49,1.85-.19,.77-.59,.24-.92,.19Z"/>
    <path class="cls-67" d="M76.38,101.14c-1.3,.01-2.59,.24-3.9,.26-3.01,.05-5.72-.92-8.43-2.06-2.65-1.11-5.34-2.08-8.28-2.16-1.22-.03-2.43-.23-3.65-.4-1.67-.23-3.12,.17-4.35,1.35-.3,.29-.53,.68-1.02,.68,1.24-1.87,4.11-3.45,6.16-2.9,1.24,.33,2.62,.24,3.96,.16,2.64-.15,5.04,.73,7.19,2.19,1.24,.84,2.58,1.31,3.98,1.71,1.05-.32,2.01,.27,3.03,.34,3.09,.22,6.06,0,8.86-1.49,1.29-.68,2.75-1,4.12-1.49,2.99-1.07,5.45-2.99,7.98-4.8,.91-.66,1.94-1.09,2.9-1.67,2.05-1.23,3.61-2.98,5.3-4.61,1.38-1.13,2.58-2.42,3.47-3.97,1.56-2.43,2.93-4.96,4.17-7.56,.02-.1,.05-.21,.1-.3,.29-.55,.47-1.14,.63-1.74,.04-.1,.11-.18,.19-.24,.15-.15,.31-.31,.46-.46-.1,2.12-1.18,3.91-1.97,5.8-1.96,4.69-5,8.57-8.73,11.97-1.6,1.45-3.49,2.47-5.28,3.64-.26,.17-.56,.26-.68,.58-1.59,1.2-3.04,2.57-4.89,3.42-1.12,.52-2.33,.7-3.44,1.2h0c-.77,.25-1.57,.39-2.31,.69-1.35,.14-2.49,.86-3.71,1.34-.59,.23-1.18,.52-1.85,.51Z"/>
    <path class="cls-52" d="M108.09,74.52c.05,.49-.2,.89-.42,1.3-1.21,2.21-2.25,4.52-3.74,6.57-1.11,1.35-2.27,2.66-3.47,3.93-1.96,2.3-4.15,4.31-6.9,5.65-1.04,.51-1.99,1.16-2.87,1.89-2.03,1.7-4.35,2.89-6.79,3.84-2.28,.89-4.56,1.85-6.92,2.52-2.96,.84-5.98,.65-8.93-.25-.41-1-1.21-1.72-1.85-2.54,.4-.29,.74-.05,1.06,.14,4.12,2.44,8.31,2.63,12.65,.54,2.66-1.29,5.56-2.16,7.85-4.07,2.44-2.03,5.45-3,8.04-4.7,1.53-1,2.5-2.59,3.72-3.91,.68-.74,1.32-1.52,2.11-2.13,.88-.67,1.52-1.52,2.15-2.39,1.41-1.97,2.63-4.06,3.85-6.16,.12-.14,.21-.36,.46-.23Z"/>
    <path class="cls-22" d="M107.63,74.75c-1.47,3.31-3.21,6.4-5.95,8.89-1.47,1.34-2.75,2.89-4.04,4.41-1.34,1.58-3.15,2.43-4.95,3.29-1.29,.62-2.44,1.38-3.61,2.2-2.15,1.52-4.36,3.01-6.9,3.85-1.86,.62-3.48,1.82-5.45,2.14-3.36,.54-6.58,.3-9.5-1.64-.32-.21-.64-.43-1.04-.46-1.17-2.06-3.44-2.21-5.32-3.01,2.51,.22,4.89,.84,7.05,2.16,.13,.08,.29,.17,.35,.29,.52,1.14,1.65,1.17,2.63,1.58,3.58,1.5,6.69,.41,9.99-1.11,3.34-1.55,6.41-3.43,9.37-5.56,.79-.57,1.63-1.03,2.57-1.27,2.34-.59,3.92-2.17,5.31-4.01,1.32-1.75,2.71-3.41,4.43-4.82,.78-.63,1.29-1.6,1.88-2.45,.87-1.26,1.82-2.48,2.51-3.86,.14-.28,.37-.49,.66-.63Z"/>
    <path class="cls-63" d="M98.37,50.45c-.05-.92-.6-1.74-.48-2.7,.07-.55,.09-1.14,.64-1.38,.61-.26,1.15,.12,1.51,.58,.56,.72,1.12,1.47,1.52,2.29,.79,1.63,2.1,2.7,3.55,3.66,.64,.42,1.32,.8,1.92,1.26,.91,.71,1.23,1.91,.5,2.63-1.56,1.53-1.94,3.72-3.27,5.36-.27,.34-.43,.77-.9,.73-.54-.05-.36-.61-.48-.93-.31-.81-.54-1.65-.81-2.48-.85-1.18-.99-2.6-1.38-3.94,0-.23,0-.46-.01-.69,.6-.1,.66,.41,.84,.76,.69,1.31,.84,2.79,1.37,4.16,.12,.3,.09,.79,.55,.77,.4-.02,.47-.46,.58-.78,.28-.8,.5-1.62,.69-2.44,.24-1.02-.05-1.9-.8-2.63-.92-.89-1.97-1.6-3.01-2.33-.21-.15-.48-.38-.73-.19-.28,.22,0,.49,.08,.72,.16,.49,.62,.93,.19,1.49-.82-1.24-1.5-2.56-2.08-3.94Z"/>
    <path class="cls-14" d="M100.69,55.54c.88,1.17,.96,2.61,1.38,3.94,0,1.46,.69,2.76,.93,4.16,.13,.15,.14,.29,0,.44-.39,.12-.47-.2-.62-.42-.04-.1-.07-.21-.1-.32-.02-.11-.03-.23-.06-.34-.14-.51-.21-1.25-.81-1.24-.59,0-.55,.78-.6,1.23-.15,1.32-1.11,1.87-2.11,2.39-.41,.21-.87,.31-1.3,.47-.1,.04-.21,.07-.32,.09-.37,.09-.76,.06-1.13,.2q-1.52,.62-2.69-.67c-.07-.1-.11-.21-.13-.32,0-.18,.04-.35,.24-.41,.92,.63,1.81,.6,2.76,.02,.43-.26,.97-.21,1.47-.27,1.66-.17,2.33-1.1,2.16-2.74-.23-2.27-.9-4.36-2.25-6.22-.37-.89-.95-1.64-1.64-2.31-.22-.18-.39-.38-.49-.64-.59-1.64-1.99-2.69-2.96-4.06-.23-.33-.69-.54-.54-1.06,1.33,.34,2.14,1.37,2.78,2.42,.96,1.57,1.97,3.09,3.1,4.55,.33,.43,.64,1.03,1.23,.73,.53-.27,.29-.87,.13-1.35-.06-.18-.05-.38-.07-.57,.78,.61,.94,1.64,1.63,2.31Z"/>
    <path class="cls-15" d="M100.45,54.39c.05-.7-.43-1.21-.67-1.81-.11-.28-.34-.55,0-.82,.25-.2,.52-.14,.75,.02,1.43,.96,2.91,1.85,4.02,3.2,.4,.49,.6,1.04,.53,1.7-.13,1.35-.6,2.6-1.04,3.86-.11,.32-.4,.59-.81,.51-.37-.07-.39-.4-.49-.69-.56-1.62-.81-3.35-1.59-4.91-.12-.25-.21-.49-.48-.6-.19-.1-.22-.28-.23-.47Z"/>
    <path class="cls-14" d="M98.37,51.38c-1.51-1.52-2.3-3.42-2.73-5.46-.24-1.11,1.98-2.93,3.07-2.55,1.63,.56,3.34,.31,4.99,.6,.91,.14,1.83,.26,2.55,.92-2.29-.04-4.52-.75-6.82-.73-.58,0-1.27-.55-1.7,.08-.55,.81-1.14,1.67-.96,2.76,.21,1.29,.55,2.55,1.28,3.66,.15,.23,.34,.42,.33,.71Z"/>
    <path class="cls-22" d="M103,64.11c0-.15,0-.31,0-.46,.5,.36,.79,.46,1.23-.24,1.04-1.64,1.95-3.4,3.41-4.75,.56-.52,1.08-.68,1.36,.24,.95,3.1,.99,6.24,.24,9.39,0-.31,0-.62,0-.93-.3-.3-.3-.68-.3-1.06,0-.24,.03-.48,.08-.71,.33-1.32,.22-2.61-.37-3.83-.46-.94-.87-1.04-1.72-.44-1.03,.72-1.78,1.67-2.33,2.82-.49,1.03-.97,1.04-1.61,.15,0-.06,0-.11,0-.17Z"/>
    <path class="cls-22" d="M108.09,74.52c-.15,.08-.31,.15-.46,.23,.24-1.13,.65-2.2,1.16-3.24,0,.31,0,.62,0,.93,0,.08,0,.15,0,.23-.3,.59-.41,1.25-.69,1.85h0Z"/>
    <path class="cls-22" d="M108.79,71.51c-.02-.81,.12-1.58,.46-2.31-.08,.79,.26,1.66-.46,2.31Z"/>
    <path class="cls-60" d="M84.25,98.59c.19-.27,.48-.38,.78-.44,2.34-.53,4.31-1.74,6.09-3.3,.43-.38,.86-.77,1.45-.88-2.21,2.56-5.02,4.05-8.33,4.63Z"/>
    <path class="cls-60" d="M81.94,99.29c.66-.59,1.5-.62,2.31-.69-.71,.43-1.47,.69-2.31,.69Z"/>
    <path class="cls-42" d="M53.23,90.03c2.51,.78,5.04,1.45,7.62,1.97,.63,.13,1.26,.29,1.88,.48,.35,.1,.61,.13,.67-.32,.72-.44,1.34,.16,2.01,.2,.32,.11,.65,.17,.98,.25,.31,.1,.63,.16,.95,.24,.46,.17,.93,.14,1.4,.03,.17-.01,.32,.02,.45,.13,.33,.76,.88,1.02,1.66,.73,.28-.1,.64-.24,.5-.63-.12-.33-.45-.17-.7-.11-.49,.12-.99,.5-1.47-.03,0-.64,.48-.97,.92-1.24,.8-.5,1.15-1.17,1.2-2.09,.03-.61,.17-1.22,.39-1.8,.41-1.05,1.04-1.27,1.98-.65,.8,.53,1.58,1.1,2.51,1.41,.69,.23,1.4,.32,1.96-.22,.6-.58,.64-1.3,.44-2.13-.6-2.51-2.14-4.4-3.82-6.23-.43-.46-1-.97-.31-1.54,.53-.44,1.25-.61,1.76,.18-.39,.43-.39,.82,.14,1.12,2.55,1.47,2.93,4.14,3.46,6.61,.47,2.21-1.96,3.95-4.04,3.1-.43-.18-.83-.41-1.24-.62-.64-.33-.83-.05-.79,.58,.13,1.95,.94,2.54,2.89,2.24,1.78-.27,3.15-.96,3.58-2.89,.07-.33,.24-.65,.42-.95,.39-.64,.88-.69,1.45-.25,.37,.28,.7,.61,.95,1,.58,.89,1.39,1.01,2.33,.75,.91-.24,1.74-.64,2.4-1.32,.78-.79,1.71-1.39,2.77-1.59,2.08-.38,3.74-1.32,4.93-3.08,.51-.23,.97-.53,1.34-.97,.3-.35,.63-.78,1.2-.4-.77,2.75-2.18,5.05-5.03,5.96-2.27,.73-4.36,1.7-6.25,3.15-1.51,1.16-3.08,1.59-4.68,.08-.46-.43-.93-.27-1.32,.14-.71,.74-1.63,.88-2.58,1.14-1.53,.42-3.15,.67-4.43,1.8-1.37,1.22-3,1.01-4.6,.58-2.08-.56-4.14-1.12-6.28-1.46-2.42-.39-4.73-1.25-7.06-1.99-3.2-.48-6.31,.17-9.43,.75-1.41,.26-1.76,1.48-2.6,2.26,.13-1.97,.63-2.25,2.49-2.83,2.3-.72,4.68-.98,7-1.57Z"/>
    <path class="cls-14" d="M109.25,66.19c0,.39,0,.77,0,1.16-.34,.4-.42,.93-.44,1.4-.07,3.01-1.5,5.42-3.24,7.71-.97,1.28-1.74,2.73-2.94,3.81-2.38,2.15-4.39,4.6-6.22,7.21-.93,1.32-2.37,1.84-3.79,2.26-2.21,.65-3.94,2.05-5.72,3.37-.94,.7-1.87,1.33-2.97,1.72-2.09,.74-4.08,1.75-6.18,2.5-1.3,.46-1.92,.09-2.38-.87-.49-1.03-1.14-1.2-2.14-.86-1.45,.49-2.88,.19-4.31-.15-2.2-.52-4.39-1.06-6.66-1.27-.41-.04-.84-.13-1.16-.45-.7-.53-1.69-.47-2.31-1.16,.41-.35,.86-.08,1.2,.05,2.57,.95,5.33,1.05,7.95,1.78,.52,.14,1,.37,1.54,.48,1.87,.37,3.61,.08,5.17-1.01,2-1.39,4.12-1.61,6.36-.79,1.63,.6,2.98,.05,4.35-.79,2.32-1.42,4.49-3.12,7.18-3.85,2.13-.58,3.47-2.1,4.51-3.9,1.01-1.75,2.23-3.24,3.88-4.49,1.71-1.31,2.86-3.2,3.93-5.08,.4-.71,.88-1.34,1.46-1.92,.79-.79,1.12-1.83,1.24-2.92,.13-1.21,.64-2.29,1.04-3.41,.1-.27,.23-.6,.65-.52Z"/>
    <path class="cls-37" d="M109.25,66.19c-.72,1.11-1.14,2.36-1.34,3.63-.24,1.52-.61,2.85-1.85,3.92-.64,.55-1.03,1.43-1.44,2.21-.79,1.52-1.95,2.75-3.05,4.02-.49,.56-1.21,.92-1.81,1.4-1.49,1.18-2.12,2.97-3.18,4.46-1.03,1.44-2.3,2.46-3.98,2.93-2.67,.75-4.82,2.45-7.13,3.86-1.37,.83-2.74,1.45-4.45,.81-2.14-.81-4.19-.71-6.2,.7-1.82,1.27-3.96,1.3-6.09,.74-1.85-.49-3.73-.81-5.62-1.15-1.46-.26-2.88-.75-4.32-1.13-1.01-.38-2.16-.37-3.01-1.16,1.62,.06,3.12,.68,4.64,1.11,2.47,.7,5.04,.88,7.48,1.66,.76,.24,1.54,.44,2.32,.61,1.23,.28,2.42,.11,3.35-.75,1.43-1.33,3.27-1.51,5.02-1.92,.78-.18,1.45-.44,1.97-1.07,.59-.73,1.15-.7,1.82-.03,1.1,1.1,2.14,1.14,3.51,.28,1.77-1.12,3.36-2.57,5.46-3.11,.67-.17,1.33-.37,1.96-.64,2.53-1.06,3.57-3.34,4.58-5.63,.19-.68,.76-1.04,1.25-1.46,1.76-1.55,3.53-3.05,4.43-5.35,.42-1.06,1.39-1.85,1.87-2.89,.92-1.98,1.72-4.01,2.8-5.91,.35-.62,.26-1.35,.22-2.04-.07-1.12-.69-1.47-1.72-1.01-.39,.18-.7,.47-1.04,.72-.27,.2-.52,.65-.96,.26,.16-1.46,1.12-2.28,2.36-2.79,.75-.31,1.58,.18,1.89,1.04,.35,.98,.52,1.98,.25,3.01,0,.23,0,.46,0,.69Z"/>
    <path class="cls-71" d="M65.5,92.58c-.74,.08-1.37-.41-2.09-.43-1.68-.27-3.23-.97-4.87-1.39-.48-.22-.99-.35-1.44-.62-1.63-.99-1.66-2.76-.07-3.82,1.7-1.13,3.33-1.02,5.21,.45,.82,.64,1.62,1.29,2.43,1.94,1.09,.87,1.51,2.57,1.04,3.86-.02,.05-.12,.04-.21,.02Z"/>
    <path class="cls-35" d="M52.08,88.85l-3.48-1.13c-1.12-.53-1.35-.99-1.04-2.17,.52-2,1.44-2.71,3.52-2.8,1.12-.05,2.22,.17,3.32,.23,1.73,0,3.45-.02,5.18-.1,2.06-.09,4.18,.03,6.09,.88,2.97,1.33,3.95,3.25,3.59,6.48-.08,.69-.26,1.36-.47,2.02-.14,.44-.3,.9-.92,.85-.51-.99,0-1.94,.17-2.89,.24-1.25,0-2.33-.64-3.41-.91-1.54-2.45-1.9-3.98-2.24-2.6-.59-5.18-.42-7.73,.34-1.01,.17-2.03,.33-3.01,.64-1.39,.44-1.63,1.13-.87,2.35,.18,.29,.41,.56,.25,.94Z"/>
    <path class="cls-44" d="M54.39,83.32c-1.18-.05-2.35-.3-3.55-.24-1.86,.1-3.19,1.44-3.16,3.26,.01,.65,.49,1,.91,1.39-1.06,0-1.95-.7-3-.71-.52-1.61,.2-2.9,1.09-4.11,1.41-1.91,3.37-2.26,5.56-1.85,1.13,.21,2.28,.31,3.42,.49,1.48,.23,2.91-.03,4.31-.48,.65-.14,1.24-.42,1.68-.93,.77-.89,1.7-.91,2.73-.53,1.18,.43,2.08,1.3,3.12,1.95,.55,.34,1.08,.59,1.72,.3,.6,.1,.7,.6,.84,1.07-.22,1.04-.71,1.26-1.69,.62-.96-.63-1.89-1.31-2.81-2-1.04-.79-1.98-.84-3.04-.06-1.99,1.47-4.36,1.54-6.69,1.73-.49,.04-.99-.14-1.46,.11Z"/>
    <path class="cls-6" d="M65.5,92.58c.3-2.01-.3-3.48-2.19-4.54-.97-.54-1.74-1.47-2.82-1.93-1.23-.52-2.92-.19-3.81,.82-.86,.99-.82,1.64,.1,2.6,.51,.53,1.22,.74,1.76,1.22-1.2-.17-2.32-.62-3.46-.99-1.64-1.48-1.57-2.78,.2-4,.32-.22,.64-.42,.98-.6,1.96-.87,3.94-1.02,5.96-.22,1.39,.55,2.88,.89,4.06,1.91,.88,.76,1.38,1.64,1.22,2.83-.1,.73-.07,1.46,.01,2.19,.1,.87-.18,1.27-1.1,.95-.31-.04-.67,.07-.91-.24Z"/>
    <path class="cls-46" d="M60.18,81.23c-2.19,1.08-4.46,.66-6.72,.34-.72-.1-1.43-.25-2.14-.34-3.37-.43-5.65,2.53-5.72,5.78-2.38-.6-2.41-.62-1.2-2.66,.81-1.38,1.72-2.7,2.58-4.04,.68-.2,.89-.9,1.4-1.3,.62-.49,1.24-.76,2-.35,.75,.4,1.69,.15,2.39,.72,1.79,1,3.67,1.67,5.76,1.58,.56-.02,1.16-.18,1.65,.27Z"/>
    <path class="cls-1" d="M56.24,85.4c-.05,.06-.09,.13-.15,.17q-2.32,1.68-1.01,4.2c-1-.3-2-.61-3.01-.91-.18-.29-.34-.61-.55-.87-.84-1.03-.59-2.12,.67-2.57,1.08-.38,2.2-.62,3.35-.71,.3,.16,.83,.1,.69,.69Z"/>
    <path class="cls-4" d="M65.52,77.26c-1.02-.97-2.33-1.52-3.48-2.31-.08-.44,.25-.6,.53-.8,1.59-1.17,3.37-2,5.12-2.88,1.42-.72,3.75,.15,4.55,1.54,.5,.87,.33,1.51-.53,2.05-.8,.5-1.69,.43-2.58,.43-2,.01-2.23,.24-2.23,2.22,0,.27-.02,.54-.25,.73-.38-.33-.76-.65-1.13-.98Z"/>
    <path class="cls-64" d="M60.18,81.23c-2.08,.38-4.05-.18-6.01-.73-.61-.17-1.08-.56-1.39-1.12,2.42,.8,4.72,.61,6.84-.88,.19-.13,.44-.26,.5-.44,.44-1.32,1.29-.98,2.21-.62,1.32,.52,2.64,1.01,3.98,1.47,.4,.14,.62,.44,.91,.67,.24,.19,.33,.07,.35-.17,.91,.39,1.64,1.5,1.64,2.49-.35,.86-.87,.49-1.36,.18-1.02-.66-1.99-1.42-3.05-1.99-1.48-.79-1.93-.68-3.11,.44-.43,.41-.89,.72-1.51,.69Z"/>
    <path class="cls-73" d="M69.22,81.91c-.42-.92-.96-1.75-1.64-2.49-.2-.12-.38-.26-.43-.51,.31-.42,.24-.85,.1-1.31-.42-1.4,.16-2.24,1.66-2.37,.57-.05,1.15,0,1.72-.02,.54-.02,1.07-.1,1.56-.35,.79-.41,.92-.93,.42-1.68-.25-.37-.68-.64-.69-1.16,.51-.44,.85,.06,1.25,.23,.15,.1,.28,.21,.41,.33,.4,.41,.85,.78,1.19,1.25,.61,.83,.44,1.44-.54,1.77-1.09,.36-2.21,.65-3.38,.6-.72-.03-1.68-.16-1.99,.55-.3,.68,.41,1.37,.88,1.87,1.31,1.4,2.49,2.92,3.92,4.22,.49,.45,.85,.98,1.08,1.61,.31,.83,.16,1.36-.83,1.43-1.33-.38-2.26-1.42-3.42-2.07-.39-.2-.4-.63-.6-.95-.32-.25-.23-.79-.68-.94Z"/>
    <path class="cls-62" d="M71.98,71.97c.17,.21,.33,.42,.5,.62,.44,.51,1.11,.93,.72,1.76-.37,.78-1.1,1.02-1.89,1.09-.61,.05-1.23,.03-1.84,0-.52-.02-.97,.12-1.43,.34-.75,.35-1.02,.74-.61,1.61,.19,.39,1.12,1.3-.3,1.52-.16-.22-.33-.45-.49-.67,0-.08,0-.15,0-.23-.12-2.99-.08-3.02,3-3.03,.53,0,1.06,.05,1.59-.2,1.27-.59,1.41-1.45,.34-2.38-1.48-1.28-2.88-1.48-4.55-.49-1.67,1-3.55,1.67-5,3.03-.58-.23-1.15-.49-1.63-.9-.08-.43,.26-.62,.52-.83,1.95-1.57,4.11-2.76,6.61-3.11,1.77-.25,3.29,.45,4.45,1.85Z"/>
    <path class="cls-40" d="M91.89,47.44c.94,1.14,1.9,2.27,2.83,3.42,.4,.49,.9,.95,.87,1.67-.57,.15-.79-.35-1.11-.62-.52-.43-.89-1.05-1.59-1.25-2.81-.73-5.35-2.01-7.83-3.51-.89-.54-1.93-1.18-3.12-.64-.29-.91-.75-1.78-.69-2.77,1.63-.55,2.95,.53,4.41,.84,2.28,.48,4.28,1.63,6.23,2.86Z"/>
    <path class="cls-32" d="M65.04,56.7c-.39-.22-.71-.53-.93-.92,.74-1.76,1.58-3.51,3.07-4.72,1.6-1.3,3.24-2.59,5.11-3.5,2.01-.98,4.06-1.94,6.42-1.75,.58,.05,1.07,.16,1.4,.63,.57,.81,1.57,1.24,1.93,2.24,.06,.16,.26,.07,.36-.07,.75,.15,.6,.88,.87,1.34,.12,.59,.34,1.16,.56,1.72,.27,.75,.63,1.45,1.05,2.12,.49,.61,.86,1.31,1.4,1.89,.66,.74,1.26,1.51,1.85,2.3,.22,.3,.53,.58,.34,1.01-.21,.18-.42,.09-.63,.01-.89-.51-1.32-1.43-1.98-2.15-.6-.84-1.26-1.63-1.83-2.49-1.08-1.72-2.12-3.47-3.47-5.01-1-1.14-2.19-1.36-3.55-1.06-1.28,.28-2.57,.46-3.87,.62-1.2,.14-2.1,.9-3.01,1.6-1.75,1.34-3.22,2.94-4.53,4.71-.35,.47-.29,1.02-.58,1.47Z"/>
    <path class="cls-8" d="M83.08,50c-.23-.47-.46-.93-.68-1.4-.14-.7-.63-1.32-.46-2.08,.05-.45,.31-.84,.74-.62,.93,.46,1.99,.53,2.87,1.15,1.74,1.21,3.64,2.11,5.64,2.82,.61,.22,1.24,.39,1.86,.59,1.49,1.23,2.83,2.6,3.69,4.37,.22,.46,.63,.92,.2,1.48-.86-.11-1.14-.87-1.52-1.45-1-1.5-2.27-2.35-4.12-2.55-2.43-.27-4.79-.95-7.14-1.64-.42-.12-.74-.39-1.07-.65Z"/>
    <path class="cls-34" d="M55.32,71.03c-.67-.29-1.32-.62-1.86-1.14-.02-.4,.07-.78,.36-1.06,1.85-1.8,3.29-3.9,4.63-6.09,.48-.78,1.07-1.5,1.68-2.18,1.88-2.09,3.67-2.08,6.04-.07,.66,.56,1.24,1.25,2.11,1.53,1.59,.6,2.17,2.26,3.41,3.23,1.13,.89,2.15,1.89,2.88,3.16,.16,.27,.37,.23,.41-.13,.05-.02,.1-.04,.15-.06,.73,.22,.93,.97,1.42,1.43,.54,.81,1.4,1.41,1.69,2.4,0,.54,.51,1.2-.11,1.6-.59,.39-1.06-.21-1.53-.5-.89-.54-1.73-1.14-2.46-1.89-2.51-2.32-4.46-5.16-6.92-7.54-1.91-1.85-5.62-2.23-7.49,.65-.98,1.52-2.22,2.84-3.22,4.35-.48,.73-1.01,1.42-1.19,2.3Z"/>
    <path class="cls-72" d="M78.01,71.96c-.41-.86-1.3-1.39-1.65-2.29,.56-.23,.84,.2,1.18,.49,1.03,.88,2.06,1.75,3.36,2.2,1.33,.46,2.57,.37,3.63-.68,.84-.83,1.05-1.77,.18-2.53-2.1-1.81-3.87-3.95-6-5.71-.58-.48-1.18-1-1.97-1.17-1.08-.35-2.06-.2-3.03,.44-.62,.41-1.18,.97-1.95,1.13-.55-.38-1-.85-1.39-1.39,.43-.57,1.26-.55,1.67-1.15,1.48-1.25,3.15-1.68,5.07-1.3,1.44,.29,2.73,.06,3.62-1.36,.49-.79,1.34-1.01,2.25-.66,1.45,.56,2.98,2.96,2.94,4.54-.02,.87-.36,1.54-1.08,2.06-1.06,.76-1.07,.99-.16,1.96,.74,.79,1.57,1.49,2.21,2.37,.88,1.21,.84,2.08-.17,3.2-2.14,2.36-4.84,2.67-7.44,.85-.35-.24-.65-.55-1.01-.77-.09-.07-.18-.14-.27-.22Z"/>
    <path class="cls-25" d="M65.04,56.7c-.29-.67-.12-1.15,.4-1.72,1.29-1.39,2.37-2.92,3.87-4.17,1.7-1.43,3.45-2.35,5.64-2.42,.59-.02,1.14-.17,1.69-.31,1.65-.41,3.06-.27,4.24,1.17,1.3,1.6,2.52,3.24,3.37,5.14,.08,.19,0,.33-.13,.46-.11,.07-.22,.08-.33,.03-.45-.3-.84-.68-1.18-1.1-1.88-2.31-4.34-2.5-7.03-2.02-3.56,.64-6.24,2.68-8.55,5.34-.32,.37-.21,.91-.6,1.22-.46-.54-.92-1.09-1.38-1.63Z"/>
    <path class="cls-38" d="M71.99,61.56c-.29,.74-.95,.83-1.61,.9-1.13-.87-2.1-1.9-3.02-2.98-.09-.12-.08-.23,.02-.34,.87-.42,1.63-.97,2.37-1.59,1.43-1.21,3.2-1.29,4.91-1.08,1.87,.23,3.53,.12,5.13-1.03,1.2-.86,2.49-.51,3.61,.39,.22,.25,.36,.51,.22,.85-.31,.29-.66,.17-.97,.05-.92-.34-1.68-.06-2.25,.66-1.22,1.54-2.85,2.24-4.75,2.45-1.4,.16-2.67,.66-3.66,1.71Z"/>
    <path class="cls-23" d="M67.36,59.25c0,.08,0,.15,0,.23-.31-.38-.62-.77-.93-1.15-.27-1.49,1.03-2.09,1.79-2.89,1.77-1.85,3.94-3.09,6.46-3.79,3.9-1.08,6.98-.05,9.34,3.2,.35,.33,.49,.72,.28,1.18-.4,.27-.69,0-1-.19-1.66-1.34-3.56-1.52-5.57-1.09-.85,.18-1.62,.06-2.47-.12-2.45-.51-4.64,.11-6.34,2.08-.1,.12,.04-.01-.07,.09-.75,.66-1.5,1.33-1.49,2.46Z"/>
    <path class="cls-53" d="M75,68.29c-.86-1.23-1.71-2.46-2.57-3.69-.03-.08,0-.21,.01-.2,1.06,.37,1.63-.34,2.32-.93,.62-.54,1.41-.41,2.06-.01,2.07,1.28,3.97,2.77,5.15,4.99,.22,.41,.37,.85,.44,1.31,.19,1.28-.17,1.72-1.51,1.82-1.39-.18-2.45-.95-3.43-1.91-.7-.69-1.37-1.46-2.48-1.48-.02,.04-.02,.08,0,.12Z"/>
    <path class="cls-33" d="M80.78,71.28c1.35-.04,1.68-.4,1.32-1.67-.46-1.64-1.53-2.89-2.77-4-.59-.53-1.27-.98-1.89-1.48-1.28-1.02-2.16-.99-3.17,.3-.62,.79-1.22,.21-1.84,.17-.28-.2-.53-.43-.66-.75,1.47-1.23,2.87-2.66,5.08-1.82,2.13,1.5,3.72,3.52,5.37,5.48,.77,.91,1.05,2.03,.91,3.23-.06,.5-.29,.92-.81,.98-.54,.06-1.23,.41-1.53-.44Z"/>
    <path class="cls-13" d="M55.32,71.03c-.14-.67,0-1.19,.46-1.78,1.34-1.67,2.6-3.41,3.8-5.18,1.87-2.77,5.74-2.52,7.65-.72,2.55,2.4,4.54,5.29,7.06,7.7-.5,.34-.77-.11-1.09-.34-1.06-.76-1.96-1.74-3.18-2.28-.58-.3-1.14-.65-1.68-1.02-1.79-1.24-3.66-1.22-5.6-.52-1.85,.67-3.47,1.62-4.49,3.4-.36,.63-.8,1.22-1.34,1.71-.62-.18-1.07-.64-1.6-.97Z"/>
    <path class="cls-58" d="M56.92,72.01c1.26-2.88,3.35-4.7,6.43-5.62,2.77-.83,4.76,.41,6.78,1.89,.67,.43,1.25,.98,1.88,1.47,.34,.26,.9,.53,.63,1.17-.16,.09-.33,.11-.5,.08-1.1-.55-2.09-1.28-3.24-1.76-1.17-.49-2.32-.57-3.48-.18-1.12,.38-2.38,.35-3.33,1.19-1.23,.83-2.21,1.95-3.31,2.93-.66-.31-1.34-.59-1.84-1.16Z"/>
    <path class="cls-48" d="M58.77,73.16c.64-1.38,1.91-2.14,3.04-3.04,3.07-1.27,6.13-2.08,9.13,.22,.48,.37,1.04,.65,1.54,1,.37,.25,.79,.53,.67,1.1-.39-.15-.77-.31-1.16-.46-1.39-.79-2.69-1.91-4.43-1.59-2.34,.42-4.4,1.49-6.28,2.93-.3,.23-.58,.5-.87,.74-.58-.24-1.21-.38-1.65-.9Z"/>
    <path class="cls-59" d="M100.45,86.32c.97-1.48,2.09-2.82,3.47-3.93-.85,1.58-2.02,2.88-3.47,3.93Z"/>
    <path class="cls-59" d="M108.09,74.52c.07-.68,.2-1.33,.69-1.85-.07,.68-.2,1.33-.69,1.85Z"/>
    <path class="cls-56" d="M95.59,83.55c-1,1.73-2.47,2.71-4.47,3.04-1.26,.21-2.39,.81-3.28,1.8-.75,.84-1.79,1.18-2.85,1.39-.88,.17-1.69,0-2.15-.92-.1-.2-.27-.37-.43-.54-1.07-1.15-1.4-1.13-1.84,.42-.87,3.09-2.65,3.17-5.4,3.36-.83,.06-1.24-.53-1.41-1.27-.19-.8-.85-1.75-.17-2.39,.63-.6,1.26,.37,1.88,.65,1.08,.48,2.13,.78,3.06-.22,.89-.95,1.26-1.98,.83-3.36-.36-1.13-.87-2.2-1.17-3.35-.32-1.26-1.52-1.65-2.39-2.37-.23-.19-.56-.32-.42-.72,.13-.37,.43-.39,.75-.38,.43-.4,.92-.28,1.42-.19,1.5,.27,2.98,.05,4.45-.2,.63-.11,1.04-.45,1.04-1.16,0-.57,.17-1.1,.71-1.35,1.57-.71,3.01-1.68,4.56-2.43,.34-.08,.67-.16,1-.28,1.83-.67,2.51-2.41,1.58-4.1-.52-.95-1-1.91-1.38-2.91-.21-.55-.28-1.12-.24-1.7,.11-1.4,1.07-1.88,2.23-1.06,.73,.51,1.36,1.13,1.76,1.95h0c.23,.35,.48,.68,.75,1,.48,.55,1,.72,1.54,.14,.46-.49,1.09-.46,1.64-.68h0c.34-.16,.7-.17,1.06-.11,.29,.63-.27,.7-.6,.79-.85,.23-1.25,.74-1.45,1.59-.24,1.01-.66,1.09-1.46,.42-1.12-.95-1.96-2.17-3-3.2-.23-.23-.46-.66-.84-.41-.32,.21-.15,.65-.06,.97,.24,.86,.8,1.57,1.19,2.37,.79,1.62,.76,3.27,.32,4.96-.24,.93-.83,1.33-1.81,1.16-2.14-.37-3.61,1.03-5.25,1.99-.36,.21-.33,.58-.1,.91,.11,.16,.25,.29,.4,.42,.45,.4,1.14,.75,.81,1.48-.35,.78-1.16,.9-1.9,.76-2.33-.43-4.68,.09-7.16-.32,.33,.6,.81,.74,1.23,.95,1.12,.58,2.05,1.33,2.59,2.53,.61,1.33,1.91,2.08,2.83,3.16,.54,.63,1.38,.41,2-.1,1.05-.87,2.2-1.54,3.49-2,.77-.27,1.45-.71,1.88-1.46,.18-.3,.45-.53,.75-.71,2.18-1.31,4.17-2.91,6.37-4.19,1.17-.68,1.87-1.71,1.8-3.12-.05-.89-.24-1.65-1.42-1.72-.64-.04-1.12-.55-1.17-1.25-.05-.79,.62-.87,1.16-1.04,1.55-.49,1.57-.5,2.21,.91,.25,.54,.57,.53,1.02,.34,1.15-.47,1.79-1.95,1.17-3.09-.75-1.39-1.51-2.76-1.67-4.47-1.16,.46-1.69,1.89-3.06,1.49-.06-.34,.19-.46,.42-.6,.95-.55,1.77-1.17,1.82-2.42,.02-.41,.35-.66,.79-.67,.42,0,.57,.3,.74,.61,.13,.24,0,.54,.21,.75,0,.08,0,.15,0,.23,.58,1.5,1.05,3.03,1.82,4.47,.88,1.63,.87,3.33-.35,4.87-.78,.98-1.12,2.19-1.65,3.29-.64,1.33-1.56,2.42-2.79,3.16-1.51,.9-2.57,2.17-3.51,3.59-.13,.19-.3,.35-.45,.52Z"/>
    <path class="cls-68" d="M95.59,83.55c.52-1.59,1.53-2.89,2.91-3.72,2.05-1.24,3.43-2.92,4.24-5.12,.23-.62,.5-1.21,.91-1.72,1.5-1.84,1.15-3.66,.05-5.54-.68-1.16-1.15-2.42-1.17-3.8,.15,.15,.31,.31,.46,.46,0,0,0,0,0,0,.3,.64,.56,1.3,1.09,1.9,.49-.49,0-1.39,.76-1.67,.7-.46,1.19-1.19,2.03-1.48,1.08-.37,1.83,.09,1.9,1.23,.07,1.13,.03,2.24-.67,3.2-1.48,2.06-1.87,4.65-3.41,6.71-1.43,1.91-2.28,4.25-4.27,5.77-.88,.67-1.69,1.44-2.53,2.16-.97,.25-1.17,1.61-2.31,1.62Z"/>
    <path class="cls-26" d="M96.98,56.24c-.59-1.81-1.56-3.37-2.94-4.68-.36-.34-.66-.73-.99-1.1,1.14,.33,1.57,1.55,2.55,2.08,.09,.22,.24,.37,.46,.46,.4,.87,1.05,1.56,1.62,2.31,1.71,2.02,2.15,4.51,2.51,7.01,.18,1.21-1.04,2.42-2.49,2.47-.91,.03-1.73,.22-2.49,.73-.97,.67-1.29-.46-1.93-.72-.82-.36-1.32-1.05-1.78-1.77-.03-.17-.02-.34,.06-.49,.07-.09,.17-.14,.29-.14,.05,.02,.11,.03,.16,.05,.6,.4,1.04,.97,1.56,1.45,.08,.07,.15,.15,.23,.23,.14,.06-.06,.03,.09,.07,1.58,.44,2.76-.65,4-1.24,.84-.4,.73-1.52,.51-2.42-.29-1.19-.52-2.41-1.24-3.45-.17-.25-.33-.53-.17-.86Z"/>
    <path class="cls-68" d="M91.66,62.95c.54,.62,1.08,1.24,1.62,1.85,0,.15,0,.31,0,.46-.59-.55-1.17-1.11-1.78-1.64-.42-.36-.95-.63-1.49-.35-.46,.23-.43,.76-.44,1.24-.05,1.51,.73,2.73,1.4,3.97,1.45,2.66,.5,4.63-2.56,5.12-.05-.16-.04-.33,.08-.43,2.07-1.58,1.32-3.64,.84-5.56-.35-1.38-.87-2.71-.75-4.16,.07-.9,.46-1.54,1.46-1.62,.69,.15,1.23,.52,1.61,1.12Z"/>
    <path class="cls-68" d="M102.54,63.41c-.16-.3-.27-.64-.49-.89-.36-.43-.99-.32-1,.09-.04,1.71-1.55,2.15-2.45,3.12-.08,.07-.15,.07-.23,0-.39,0-.77,0-1.16,0,.31-.32,.76-.32,1.14-.49,1.15-.51,2.15-1.11,2.27-2.57,.05-.55,.04-1.46,.81-1.43,.69,.03,.82,.91,1.07,1.5,.08,.2,.03,.45,.04,.68Z"/>
    <path class="cls-68" d="M97.21,65.73c-.56,.37-1.22,.56-1.7,1.09-.58,.63-1.08,.19-1.54-.28-.35-.36-.64-.75-.69-1.28,.28,.24,.6,.46,.84,.74,.4,.45,.85,.52,1.28,.15,.55-.48,1.17-.43,1.81-.42Z"/>
    <path class="cls-40" d="M97.68,55.31c-.79-.6-1.5-1.25-1.62-2.31,.66,.69,1.32,1.38,1.62,2.31Z"/>
    <path class="cls-14" d="M104.85,64.34c-.31,.48-.22,1.02-.23,1.55,0,.23-.02,.49-.26,.59-.26,.11-.41-.14-.55-.3-.53-.59-.74-1.3-.81-2.07,.75,.84,.99,.82,1.39-.15,.58-1.41,1.61-2.4,2.84-3.24,.52-.35,.93-.28,1.27,.22,.96,1.4,1.28,2.91,.75,4.56,.05-.85-.02-1.68-.26-2.5-.38-1.32-1.33-1.62-2.51-.91-.88,.53-1.41,1.27-1.63,2.25Z"/>
    <path class="cls-17" d="M69.9,82.86c.23,.23,.46,.46,.69,.69,.88,1.16,2.22,1.82,3.15,2.92,.1,.14,.16,.3,.15,.47-.05,.1-.14,.17-.25,.2-.52-.15-.96-.46-1.42-.73-.79-.44-1.17-.16-1.25,.65-.14,1.38-.84,2.63-.87,4.05-.02,.86-.78,1.37-1.36,1.93-.46,.35-.93,.34-1.4,0,.15-.15,.31-.15,.47,0,1.1-.6,.99-1.79,1.1-2.72,.44-3.81-.82-5.51-4.26-6.6-1.55-.49-3.37-.81-5.08-.56-1.74,.25-3.46,.06-5.18,.16,1.61-.42,3.28-.48,4.91-.83,1.21-.26,2.23-.72,3.22-1.37,1.28-.84,1.86-.81,3.1,.1,.92,.68,1.91,1.24,2.79,2,.81,.7,1.29,.5,1.49-.37Z"/>
    <path class="cls-24" d="M68.75,93.04c1.48-1.85,1.39-4.21,1.96-6.34,.28-1.03,.58-1.12,1.46-.66,.58,.3,.98,.89,1.66,.98,.97,.31,1.67,1.21,2.85,1.1,1.22-.11,1.56-.45,1.37-1.69-.26-1.7-1.08-3.11-2.26-4.33-.83-.86-1.64-1.73-2.6-2.46-.4-.31-.79-.7-.62-1.26,.19-.65,.77-.67,1.32-.69,1.66-.07,3.29,.34,4.95,.24,1.21-.07,2.28-.21,2.86-1.5,.26-.57,.85-.93,1.45-1.08,1.95-.49,3.62-1.49,5.17-2.72,.15-.12,.33-.2,.5-.29,.61-.38,.54-.94,.58-1.59,.16-2.49-1.35-4.71-1.07-7.21,.07-.62,.05-1.26,.54-1.7,.49-.45,1.04-.72,1.4,.17-1,.06-1.37,.63-1.4,1.59-.04,1.33,.2,2.6,.76,3.78,.71,1.48,.34,3.02,.36,4.53,.01,.98-1.17,1-1.58,1.68-1.47,.79-2.85,1.77-4.43,2.36-.48,.18-.67,.57-.66,1.09,.02,1.14-.4,1.44-1.6,1.65-1.87,.33-3.72,.17-5.58-.02-.3-.36-.71-.21-1.08-.22-.33-.02-.62,.09-.72,.45-.09,.31,.12,.48,.33,.67,1.15,1.02,2,2.29,2.89,3.53,.75,1.04,.99,2.24,1.35,3.4,.48,1.53-.84,2.91-2.39,2.52-1.13-.29-2.1-.91-3.04-1.59-.86-.63-1.22-.49-1.56,.54-.17,.51-.39,1.04-.36,1.55,.07,1.24-.48,2.01-1.53,2.57-.35,.19-.57,.61-.84,.93,0,0,0,0,0,0-.15,0-.31,0-.46,0Z"/>
    <path class="cls-3" d="M67.82,93.04c-.16,0-.31,0-.47,0-.32-.04-.68,.07-.94-.22,.7,.09,1.01-.19,.82-.89-.18-.64-.22-1.33-.08-1.94,.5-2.13-1.11-3.09-2.52-3.83-.77-.41-1.66-.58-2.47-.93-2.01-.86-3.96-.49-5.92,.16-.23-.23-.46-.46-.69-.69,3.34-1.19,6.67-1.02,9.96,.14,2.14,.75,3.33,3.07,2.86,5.26-.21,.97-.37,1.95-.55,2.93Z"/>
    <path class="cls-55" d="M69.21,93.04c.6,.09,1.09-.27,1.63-.42,.35-.09,.86-.2,.97,.28,.09,.38-.03,.85-.51,1.03-.65,.24-1.3,.42-1.96-.02-.4-.27-.31-.55-.13-.87,0,0,0,0,0,0Z"/>
    <path class="cls-7" d="M73.6,86.56c-1.04-.96-2.42-1.59-3.01-3.01,1.08,.69,2.16,1.39,3.25,2.08,.42,.27,.82,.21,1.12-.16,.29-.35-.04-.64-.18-.94-.25-.52-.54-1.01-.99-1.39-1.56-1.33-2.62-3.11-4.13-4.48-.23-.21-.35-.5-.49-.77-.56-1.07-.23-1.7,.99-1.72,1.69-.03,3.33-.47,5.02-.56,.27-.01,.56-.04,.67-.34,.12-.31-.1-.51-.31-.69-.73-.62-1.38-1.33-2.16-1.9-.08-.08-.16-.15-.23-.23-2.8-2.5-5.21-4.01-8.57-2.93-.88,.29-1.87,.3-2.77,.61,.16-.16,.3-.39,.49-.46,1.36-.52,2.76-.96,4.2-1.14,2.06-.25,3.65,.92,5.26,1.95,.16,.1,.31,.23,.46,.34,1.55,.67,2.72,1.95,4.24,2.67,.38,.18,.73,.42,1.1,.62,.1,.06,.2,.12,.29,.19,.49,.43,1.06,.77,1.49,1.27,.28,.33,.57,.67,.39,1.13-.18,.44-.6,.58-1.03,.63-1.55,.19-3.07-.06-4.58-.31-.91-.15-1.76,.08-2.62,.19-.62,.08-.75,.5-.34,.99,.49,.59,1.06,1.11,1.65,1.6,1.28,1.06,2.45,2.21,3.45,3.54,.33,.44,.57,.91,.69,1.44,.19,.84,.44,1.76-.49,2.27-.86,.47-1.78,.41-2.56-.31-.08-.08-.19-.13-.28-.2Z"/>
    <path class="cls-48" d="M73.37,72.67c1.04,.44,1.78,1.29,2.67,1.94,.21,.16,.41,.51,.27,.83-.15,.36-.52,.46-.87,.46-1.73,0-3.43,.29-5.14,.47-1.33,.14-1.7,.75-.74,1.75,1.41,1.47,2.5,3.22,4.01,4.59,.57,.52,1.11,1.07,1.49,1.75,.22,.38,.63,.79,.16,1.23-.45,.43-.95,.49-1.39-.06,.67,0,1.05-.16,.69-.96-.27-.6-.57-1.14-1.05-1.61-1.71-1.69-3.44-3.38-4.75-5.43-.6-.93-.5-1.22,.57-1.54,1.4-.41,2.91,.02,4.3-.58,.45-.19,1.11-.13,1.26-.64,.18-.57-.39-.94-.74-1.33-.26-.28-.5-.58-.75-.86Z"/>
    <path class="cls-17" d="M88.88,72.67c-.99,.65-1.97,1.32-2.98,1.94-.66,.4-1.38,.65-2.14,.85-.95,.25-1.76,.65-2.15,1.71-.39,1.08-1.49,.94-2.37,1.04-1.69,.18-3.37-.2-5.06-.21-.5,0-1.2-.27-1.42,.41-.2,.64,.47,.86,.86,1.21,1.94,1.79,4.05,3.47,4.63,6.28,.17,.81,.51,1.71-.24,2.25-.73,.53-1.72,.37-2.55,.08-.63-.22-1.26-.59-1.62-1.23,0,0,0,0,0,0,.7-.14,1.29,.33,1.97,.36,1.07,.05,1.41-.23,1.41-1.3,0-1.45-.75-2.56-1.66-3.56-.95-1.05-2-2.02-3.13-2.89-.12-.09-.26-.17-.36-.29-.38-.47-.94-.87-.72-1.59,.24-.79,.96-.67,1.54-.71,1.04-.08,2.07,.06,3.09,.29,1.19,.26,2.37,.16,3.54-.12,.31-.07,.6-.18,.68-.54,.08-.36-.16-.58-.42-.75-.76-.52-1.48-1.1-2.24-1.61h0c-1.28-1.01-2.87-1.54-4.07-2.67-.27-.26-.62-.43-.79-.8-.63-1.07-1.94-1.45-2.55-2.55,1.37,.37,2.2,1.53,3.31,2.28,.28,.19,.47,.5,.85,.49,.84,.79,1.77,1.47,2.75,2.06,.3,.18,.59,.66,1,.38,.38-.26-.03-.63-.04-.95,0-.19,0-.38,0-.58,.07,0,.15,0,.22,0,.4,.24,.61,.67,.93,.99,2,2.53,2.41,2.65,5.45,1.55,1.17-.42,2.21-1.08,3.13-1.91,.77-.69,1.04-1.56,.66-2.51-.94-2.34-1.08-4.79-.97-7.26,.08-1.81-.46-3.27-1.67-4.62-.58-.65-1.47-1.16-1.51-2.2-.08-.39-.16-.77-.23-1.16,0,0,0,0,0,0,.63-.09,.81,.47,1.07,.82,.29,.4,.6,.75,1,1.04,.66,.66,1.05,1.56,1.86,2.08,1.2,.76,1.22,1.81,.77,3-.58,1.54-.42,3.13-.01,4.64,.42,1.53,.54,3.09,.83,4.63,.13,.67-.17,1.19-.66,1.62Z"/>
    <path class="cls-69" d="M88.46,59.01c-.58-1.23-1.65-2.1-2.37-3.22-.02-.18,.07-.31,.24-.31,1.5-.01,2.99-.41,4.49-.22,2.15,.27,3.86,1.28,5.04,3.11,.7,1.09,.56,2.01-.43,2.87-.44,.38-.87,.77-1.33,1.11-.71,.52-1.44,.75-2.22,.13h0c-.54-.45-.96-1.04-1.56-1.42-.73-.59-1.41-1.22-1.86-2.06Z"/>
    <path class="cls-76" d="M91.89,62.49c1.31,.18,3.44-1.03,4.01-2.23,.33-.71,.03-1.29-.33-1.82-1.7-2.49-4.19-3.21-7.02-2.84-.82,.11-1.64,.08-2.46,.18-.6-.52-.92-1.25-1.37-1.88-.22-.36-.05-.55,.3-.48,1.69,.35,3.37-.15,5.06-.08,3.32,.13,7.12,3.38,7.62,6.67,.09,.58,.14,1.25-.28,1.66-1.1,1.11-2.26,2.18-3.91,2.42-.63-.45-1.17-.99-1.62-1.62Z"/>
    <path class="cls-11" d="M93.51,64.11c1.04-.64,2.09-1.25,3.11-1.91,.87-.57,1.01-1.45,.74-2.35-.84-2.8-3.86-6.61-7.76-6.17-1.02,.12-2.09-.11-3.08,.25-.62,.23-1.2-.46-1.8-.02-.53-.6-.76-1.38-1.14-2.07,.78-.88,1.63-1.09,2.77-.6,1.53,.65,3.24,.51,4.85,.92,1.79,.47,3.3,1.22,4.3,2.84,.82,1.34,1.83,2.57,2.27,4.13,.59,2.08,.23,3.03-1.6,4.12-.43,.26-.83,.56-1.27,.8-.45,.24-.92,.44-1.4,.06,0,0,0,0,0,0Z"/>
    <path class="cls-9" d="M93.51,64.11c1.57-.06,2.64-1.17,3.8-1.97,.71-.49,.47-1.6,.32-2.41-.84-4.45-4.97-7.84-9.52-7.89-.23,0-.48,.05-.69-.02-1.28-.44-2.56-.85-3.83,.03-.13-.62-.61-1.15-.5-1.84,1.76,.49,3.51,1.03,5.28,1.46,1.22,.29,2.47,.41,3.71,.62,1.3,.22,2.32,.9,3.11,1.95,.57,.75,.98,1.64,1.79,2.21,.94,1.35,1.42,2.88,1.77,4.47,.34,1.57-.24,2.57-1.74,3.06-.69,.23-1.34,.58-2.01,.87-.65,.28-1.2,.24-1.49-.52Z"/>
    <path class="cls-14" d="M88.46,59.01c.8,.48,1.28,1.3,1.99,1.88,.36,.57,1.12,.82,1.21,1.59,0,.15,0,.31,0,.46-.51-.24-.99-.53-1.39-.93-.96-.45-1.52-.19-1.59,.87-.09,1.41-.23,2.88,.47,4.19,.75,1.41,.21,2.96,.61,4.41,.13,.47-.29,1-.88,1.18,.49-.8,.51-1.6,.3-2.53-.41-1.82-.7-3.67-.96-5.52-.1-.71-.11-1.48,.05-2.18,.29-1.28,.79-2.52-.31-3.66,.17,.07,.34,.15,.51,.22Z"/>
    <path class="cls-14" d="M86.09,56.71c-1.08-.19-1.16-1.48-2.07-1.86,.08-.15,.15-.31,.23-.46,.75,.67,1.22,1.55,1.84,2.32Z"/>
    <path class="cls-74" d="M80.78,71.28c1.66,.6,2.17,.26,2.08-1.37-.07-1.26-.74-2.22-1.57-3.1-1.49-1.59-2.96-3.19-4.45-4.79,1.84,.66,3.22,1.96,4.38,3.42,.76,.96,1.69,1.68,2.59,2.44,1.67,1.42,2.1,2.22,1.46,3.41-.7,1.32-2.49,1.93-4.13,1.45-1.52-.45-2.72-1.39-3.84-2.45-.29-.27-.59-.48-.95-.63-.62-.35-.81-1.09-1.36-1.5,.35-.5,.73-.26,1.09-.03,.62,.39,1.18,.85,1.67,1.39,.82,.89,1.81,1.52,3.02,1.75Z"/>
    <path class="cls-12" d="M78.93,72.9c-.42-.18-.5-.59-.69-.94,.98,.29,1.63,1.13,2.56,1.55,2.41,1.08,5.26-.49,6.31-2.43,.31-.57,.21-1.13-.21-1.71-.76-1.04-1.72-1.87-2.59-2.79-1.02-1.08-.97-1.44,.28-2.18,1.07-.63,1.43-1.83,.91-3.13-.46-1.13-1.22-2.06-2.17-2.81-.82-.65-1.96-.53-2.41,.39-.8,1.64-2.24,1.75-3.63,1.49-1.88-.35-3.5-.13-4.95,1.14-.08,.07-.22,.05-.33,.07,1.06-1.73,2.95-1.87,4.62-2.21,1.26-.26,2.28-.68,3.03-1.65,1.07-1.38,2.31-1.81,3.91-1,.2-.08,.4-.03,.53,.11,2.13,2.2,3.86,4.55,2.98,7.88-.35,1.34-.12,2.55,.56,3.76,1.31,2.32,1.01,3.54-1.19,5.08-1.48,1.03-3.05,1.72-4.96,1.26-1.17-.28-1.75-1.19-2.55-1.89Z"/>
    <path class="cls-18" d="M67.36,59.25c.09-.67-.16-1.28-.5-2.04,1.75,.69,1.96-1.02,2.8-1.65,2-1.5,4.03-1.72,6.33-1.01,1,.31,2-.28,3.01-.31,1.64-.05,3.21,.09,4.32,1.53,.06,.05,.08,.1,.06,.16-.02,.05-.04,.08-.06,.08-1.4-.84-2.69-1.03-4.11,.16-1.14,.96-2.65,.9-4.09,.7-2.24-.32-4.36-.2-6,1.66-.46,.53-1.1,.67-1.76,.73Z"/>
    <path class="cls-41" d="M83.32,56.01c0-.08,0-.16,0-.23,.31,.08,.62,.16,.93,.23,.93,1.12,1.87,2.23,2.78,3.37,.46,.58,.67,1.29,.69,2.04,.05,1.84-.06,3.68,.19,5.53,.11,.86,.34,1.64,.61,2.43,.67,1.98,.53,2.64-1.07,3.9-1.5,1.18-3.26,1.86-5.15,2.16-1.06,.17-1.91-.15-2.42-1.13-.26-.51-.92-.74-.95-1.4,.4-.01,.61,.28,.86,.51,1.42,1.33,3.2,1.68,4.94,.81,.84-.42,1.63-.92,2.32-1.64,1.82-1.87,1.24-2.33,.4-3.82-.79-1.4-1.09-2.74-.66-4.27,.65-2.33-.16-4.3-1.63-6.03-.51-.6-.89-1.35-1.6-1.77-.08-.23-.15-.46-.23-.7Z"/>
    <path class="cls-41" d="M72.68,70.82c1.29,.98,2.59,1.96,4.04,2.71,.35,.18,.65,.4,.82,.76-1.99-.83-3.72-2.05-5.32-3.47,.15,0,.31,0,.46,0Z"/>
    <path class="cls-70" d="M98.37,65.73c.08,0,.15,0,.23,0,1.06-.18,1.75-.91,2.45-1.63,.44-.46,.71-.55,.84,.24,.24,1.45,.78,2.76,1.57,4.03,.96,1.55,.17,3.27-1.54,3.87-.64,.23-.96,.21-1.1-.57-.07-.4,0-1.2-.51-1.17-.77,.05-1.57,.35-2.26,.73-.45,.24,.14,1.24,.86,1.42,.47,.12,1.16-.21,1.37,.33,.26,.7,.47,1.53,.34,2.24-.2,1.04-.71,2.06-1.71,2.6-2.37,1.29-4.86,2.63-6.64,4.51-1.88,1.97-4.58,2.25-6.36,4.15-.68,.73-1.87,.43-2.52-.46-.96-1.32-2.35-2.24-3.05-3.84-.48-1.09-1.88-1.36-2.87-2.01-.3-.2-.84-.32-.66-.78,.17-.41,.68-.27,1.04-.18,1.78,.43,3.58-.02,5.37,.13,.78,.07,1.54,.49,2.37,.09,.81-.39,.93-.74,.24-1.31-.18-.15-.4-.24-.57-.39-.99-.84-.94-1.31,.15-1.98,.85-.52,1.72-.99,2.62-1.44,.86-.43,1.68-.67,2.65-.34,.8,.28,1.2-.21,1.4-.95,.62-2.22,.19-4.26-1.04-6.16-.13-.19-.3-.37-.37-.58-.21-.69-.63-1.58,0-2.04,.62-.46,1,.48,1.4,.87,1.04,1.03,1.99,2.13,3,3.19,.18,.19,.65,.6,.67,.12,.07-1.76,1.35-2.2,2.62-2.72Z"/>
    <path class="cls-76" d="M91.66,62.49c-.29-.61-1.02-.9-1.21-1.59,.65,.38,1.24,.81,1.44,1.6-.08,0-.15,0-.23,0Z"/>
    <path class="cls-41" d="M77.54,74.29c.87,.48,1.75,.94,2.61,1.43,.36,.2,.58,.55,.54,.95-.05,.47-.42,.77-.86,.82-1.32,.15-2.64,.5-3.99,.08-1.03-.32-2.12-.32-3.2-.27-.38,.02-.8-.07-1.02,.36-.24,.46,.05,.81,.31,1.15,.55,.7,1.29,1.18,1.95,1.76,1.5,1.32,3.01,2.63,3.57,4.67,.01,.04,.03,.07,.04,.11,.02,.71,.35,1.51-.28,2.08-.66,.61-1.45,.26-2.18,.04-.4-.12-.79-.29-1.18-.44-.08-.15-.15-.31-.23-.46,.67,.12,1.25,.55,1.99,.48,.98-.1,1.36-.51,1.24-1.5-.17-1.28-.85-2.28-1.74-3.15-1.29-1.26-2.63-2.46-3.92-3.72-.33-.33-.96-.61-.72-1.19,.25-.6,.92-.52,1.48-.66,2.01-.51,3.93,.43,5.91,.26,.31-.03,.62,0,.92-.02,.31-.03,.63-.12,.77-.42,.17-.35-.15-.54-.33-.79-.45-.64-1.29-.85-1.67-1.55Z"/>
  </g>
</svg>