<?xml version="1.0" encoding="UTF-8"?>
<svg id="Layer_2" data-name="Layer 2" xmlns="http://www.w3.org/2000/svg" xmlns:xlink="http://www.w3.org/1999/xlink" viewBox="0 0 150 150">
  <defs>
    <style>
      .cls-1 {
        fill: url(#linear-gradient);
        stroke: #939393;
        stroke-miterlimit: 10;
        stroke-width: 3px;
      }
    </style>
    <linearGradient id="linear-gradient" x1="131.7" y1="41.8" x2="15.27" y2="111.12" gradientUnits="userSpaceOnUse">
      <stop offset="0" stop-color="#56a186"/>
      <stop offset=".23" stop-color="#578772"/>
      <stop offset="1" stop-color="#58635e"/>
    </linearGradient>
  </defs>
  <polygon class="cls-1" points="136.84 112.14 136.84 39.87 74.25 3.73 11.66 39.87 11.66 112.14 74.25 148.28 136.84 112.14"/>
  <path d="M112.22,48.61c-.32,1.78-.65,3.27-.85,4.77-.28,2.16-.53,4.33-.65,6.5-.21,4.04,.08,8.16-.55,12.13-1.15,7.22-4.13,13.66-9.44,18.93-4.21,4.17-8.7,7.99-13.84,10.89-5.18,2.92-10.75,4.92-16.73,5.71-4.16,.55-8.24,.03-12.34-.34-3.86-.35-7.62,.01-11.35,.96-1.78,.45-3.55,.92-5.34,1.31-2.72,.59-3.86-.64-3.28-3.34,.58-2.7,1.09-5.42,1.54-8.15,.08-.49-.27-1.06-.43-1.58-.19-.6-.62-1.23-.54-1.79,.51-3.8,1.45-7.5,3.39-10.86,1.23-2.12,2.52-4.2,3.83-6.27,.49-.78,.43-1.28-.35-1.85-2.17-1.59-1.83-1.63-.68-4.03,1.48-3.1,4.24-5.01,6.75-7.17,1.38-1.19,2.65-2.51,3.94-3.8,.59-.59,.7-1.18,.07-1.94-1.37-1.65-1.35-2.47,.32-3.81,2.85-2.28,5.77-4.48,8.74-6.61,1.48-1.06,1.51-.95,1.07-2.75-.08-.33,.17-.98,.45-1.13,1.26-.66,2.56-1.28,3.9-1.74,2.79-.96,5.61-1.83,8.43-2.69,.36-.11,1.08-.03,1.18,.18,.4,.83,1,.77,1.67,.59,4.53-1.22,9.19-1.12,13.81-1.31,.47-.02,1.24,.58,1.41,1.05,.31,.87,.8,1.19,1.64,1.4,2.64,.66,5.32,1.23,7.86,2.17,1.98,.74,3.81,1.93,5.62,3.06,.45,.28,.56,1.1,.74,1.48Z"/>
</svg>