<?xml version="1.0" encoding="UTF-8"?>
<svg id="Layer_2" data-name="Layer 2" xmlns="http://www.w3.org/2000/svg" xmlns:xlink="http://www.w3.org/1999/xlink" viewBox="0 0 150 150">
  <defs>
    <style>
      .cls-1 {
        fill: #9c2e08;
      }

      .cls-2 {
        fill: #9a9212;
      }

      .cls-3 {
        fill: #f94b33;
      }

      .cls-4 {
        fill: #f7f0de;
      }

      .cls-5 {
        fill: #e25e20;
      }

      .cls-6 {
        fill: #89522f;
      }

      .cls-7 {
        fill: #cbc6b7;
      }

      .cls-8 {
        fill: #fa5c44;
      }

      .cls-9 {
        fill: #e3e0d2;
      }

      .cls-10 {
        fill: #8d5322;
      }

      .cls-11 {
        fill: #a2a29d;
      }

      .cls-12 {
        fill: #a36637;
      }

      .cls-13 {
        fill: #bb4503;
      }

      .cls-14 {
        fill: #dddcce;
      }

      .cls-15 {
        fill: url(#linear-gradient);
        stroke: #c3fcd2;
        stroke-width: 3px;
      }

      .cls-15, .cls-16 {
        stroke-miterlimit: 10;
      }

      .cls-17 {
        fill: #82541d;
      }

      .cls-18 {
        fill: #bf9349;
      }

      .cls-19 {
        fill: #d81b08;
      }

      .cls-20 {
        fill: #f7f4de;
      }

      .cls-21 {
        fill: #eae7d8;
      }

      .cls-22 {
        fill: #a08472;
      }

      .cls-23 {
        fill: #94897b;
      }

      .cls-24 {
        fill: #c6c0b3;
      }

      .cls-25 {
        fill: #80481f;
      }

      .cls-26 {
        fill: #aaaaa6;
      }

      .cls-27 {
        fill: #b07c2a;
      }

      .cls-28 {
        fill: #a4950f;
      }

      .cls-29 {
        fill: #b7b1a5;
      }

      .cls-30 {
        fill: #a59110;
      }

      .cls-31 {
        fill: #e1d7c5;
      }

      .cls-32 {
        fill: #fc712d;
      }

      .cls-33 {
        fill: #fa8939;
      }

      .cls-34 {
        fill: #bbb00d;
      }

      .cls-35 {
        fill: #bbaf0e;
      }

      .cls-36 {
        fill: #f1e1c6;
      }

      .cls-37 {
        fill: #cbac6a;
      }

      .cls-38 {
        fill: #fd883b;
      }

      .cls-39 {
        fill: #9b6717;
      }

      .cls-40 {
        fill: #ec5f29;
      }

      .cls-41 {
        fill: #c9c8bc;
      }

      .cls-42 {
        fill: #e2170d;
      }

      .cls-43 {
        fill: #999014;
      }

      .cls-44 {
        fill: #996127;
      }

      .cls-16 {
        fill: none;
        stroke: #52ff87;
        stroke-width: 2.06px;
      }

      .cls-45 {
        fill: #92928e;
      }

      .cls-46 {
        fill: #fb8531;
      }

      .cls-47 {
        fill: #dbd5c5;
      }

      .cls-48 {
        fill: #efe1c1;
      }

      .cls-49 {
        fill: #8a4006;
      }

      .cls-50 {
        fill: #dedbcc;
      }

      .cls-51 {
        fill: #b5ad9f;
      }

      .cls-52 {
        fill: #ccd8b3;
      }

      .cls-53 {
        fill: #c3beb1;
      }

      .cls-54 {
        fill: #c0b5aa;
      }

      .cls-55 {
        fill: #a89415;
      }

      .cls-56 {
        fill: #86290c;
      }

      .cls-57 {
        fill: #c89d38;
      }

      .cls-58 {
        fill: #cfc9b8;
      }

      .cls-59 {
        fill: #aa6f24;
      }

      .cls-60 {
        fill: #854814;
      }

      .cls-61 {
        fill: #825436;
      }

      .cls-62 {
        fill: #936133;
      }

      .cls-63 {
        fill: #663a0a;
      }

      .cls-64 {
        fill: #cfc6b5;
      }

      .cls-65 {
        fill: #c9ba0d;
      }

      .cls-66 {
        fill: #a67544;
      }

      .cls-67 {
        fill: #702b06;
      }

      .cls-68 {
        fill: #d1cfc3;
      }

      .cls-69 {
        fill: #c6b70b;
      }

      .cls-70 {
        fill: #ed6128;
      }

      .cls-71 {
        fill: #b3b2ad;
      }

      .cls-72 {
        fill: #b19a87;
      }

      .cls-73 {
        fill: #915535;
      }

      .cls-74 {
        fill: #a7793b;
      }

      .cls-75 {
        fill: #c6ba0a;
      }

      .cls-76 {
        fill: #a68654;
      }

      .cls-77 {
        fill: #ee520a;
      }

      .cls-78 {
        fill: #9a6135;
      }

      .cls-79 {
        fill: #bebeb4;
      }

      .cls-80 {
        fill: #c0883a;
      }

      .cls-81 {
        fill: #c9c8bd;
      }

      .cls-82 {
        fill: #afaca0;
      }

      .cls-83 {
        fill: #f0ebd9;
      }

      .cls-84 {
        fill: #8e5739;
      }

      .cls-85 {
        fill: #d0c7b1;
      }
    </style>
    <linearGradient id="linear-gradient" x1="136.03" y1="108.55" x2="15" y2="39.62" gradientUnits="userSpaceOnUse">
      <stop offset="0" stop-color="#b6ff93"/>
      <stop offset=".19" stop-color="#56ed86"/>
      <stop offset="1" stop-color="#006833"/>
    </linearGradient>
  </defs>
  <polygon class="cls-15" points="137.97 110.14 137.97 37.87 75.38 1.73 12.78 37.87 12.78 110.14 75.38 146.28 137.97 110.14"/>
  <path class="cls-16" d="M52.6,55.11c2.89,1.4,4.29-2.68,7.21-2.33,.44,.02,1.03-.75,1.3-.96,1.43,.49,2.44-1.02,3.87-.75,.71-1.89,1.2-.82,2.46-.17,1.73-.26,3.51,.68,5.22-.29,.3-.17,.86,.03,1.27,.14,2.29,1.16,5.19,1.02,7.64,1.71,1.97,1.75,4.48,1.42,6.79,1.67,13.24,1.23,40.04,8.17,32.84,26.17-15.6,30.28-68.04,30.29-83.56-.18-6.53-12.23,9.39-17.18,14.95-25.02Z"/>
  <g>
    <path class="cls-50" d="M54.6,55.69c1.96-1.03,3.44-3.07,5.99-2.88,.27,.02,.56-.07,.66-.33,.33-.83,.91-.64,1.49-.4,.62,.25,1.12,.29,1.24-.53,.08-.52,.35-.5,.73-.35,.12,.05,.3,.1,.38,.04,1.65-1.22,3.38,.75,5.11-.16,.51-.27,1.4,.28,2.14,.17,.29,.77-.32,.78-.75,.82-.58,.07-1.1,.19-1.53,.62-.61,.6-1.11,0-1.69-.14,.82,.31,1.34,.84,1.45,1.73,.09,.75,.59,1.23,1.2,1.62,.36,.23,.76,.43,1.09,.71,.32,.27,.55,.63,.33,1.03-.27,.5-.73,.36-1.15,.2-.16-.06-.32-.14-.46-.24-.73-.53-1.21-.28-1.93,.24-.98,.71-.99,1.25-.55,2.29,.61,1.47,.88,3.08,1.64,4.51,.38,.71-.05,1.19-.7,1.4-.62,.21-1.2-.01-1.28-.7-.1-.83-.57-1.55-.58-2.39-.01-.59-.34-.67-.76-.3-.37,.33-.72,.56-1.28,.47-.85-.14-.93,.49-.6,.96,.75,1.09,.64,1.91-.45,2.64-.39,.26-.31,.6-.04,.89,.58,.62,.52,1.31,.37,2.07-.23,1.12,0,1.46,1.12,1.48,.71,.01,1.03,.33,1.23,.92,.4,1.22,1.03,2.18,2.45,2.39,.48,.07,.77,.54,1.14,.83,.8,.64,1.63,1.16,2.73,.86,.35-.09,.69,0,1.02,.12,.91,.32,1.62,.36,2.1-.76,.31-.74,1.01-.65,1.64-.17,.57,.43,1.29,.76,.52,1.6-.12,.13-.26,.3-.23,.46,.22,1.2-.71,1.51-1.48,1.96-.11,.14-.25,.25-.43,.3-.8-.17-1.43,.3-2.12,.54-.44,.03-.69-.28-1.01-.51-.79-.57-1.74-.43-2.19,.27-.19,.3-.52,.45-.86,.55-.67,.14-1.35,.09-2.03,.08-.63-.06-1.18-.35-1.73-.63-.28-.17-.55-.36-.66-.7-.08-.56,.27-.76,.73-.85,.95-.19,.86-.64,.32-1.21-.76-.43-1.55-.73-1.27-1.95,.11-.48-.51-.67-1.07-.42-1.61,.71-4.21,.18-5.44-1.1-.25-.26-.55-.41-.85-.58-.58-.32-.85-.79-.86-1.48-.03-1.3-.2-1.37-1.39-.66,.03,.09,.08,.14,.16,.19,.41,.28,1.09,.37,1.03,1.01-.06,.6-.65,.76-1.15,.89-.66,.18-1.06-.19-1.34-.75-.06-.12-.13-.22-.21-.33-.65-.97-1.34-1.88-2.37-2.53-.98-.62-1.55-1.53-1.59-2.8-.03-1.03-.26-2.06-.38-3.09-.05-.46,.01-.87,.46-1.11,.43-.23,.84-.15,1.23,.08,.65,.37,.93,1,1.2,1.65,.1,.24,.2,.52,.5,.54,.34,.03,.34-.32,.49-.52,.73-1.03,.15-2.12,.06-3.15-.11-1.31-.44-2.52,1.29-3.02,.47-.14,.36-.62,.09-.98-.33-.45-.8-.8-.98-1.36Z"/>
    <path class="cls-21" d="M76.87,79.22c-.41-.6,.17-.52,.43-.56,.42-.05,.84-.08,.77-.63-.08-.65,.03-1.03,.52-1.61,.61-.72-.73-.55-1.04-1.04-.33-.53-.9-.02-.93,.35-.16,1.62-1.22,1.24-2.05,.87-.97-.43-1.99,.44-2.89-.29-.19-.16-.51-.16-.71-.32-.78-.61-1.43-1.28-2.55-1.5-1.11-.22-1.46-1.48-1.78-2.49-.18-.56-.34-.63-.9-.52-1.19,.23-1.85-.6-1.44-1.78,.28-.81,.38-1.47-.45-2.05-.52-.37-.56-.89,.12-1.21,1.03-.49,1.67-.98,.46-2.04-.44-.38-.24-1.07,.06-1.58,.29-.5,.63-.28,.98-.04,.59,.4,.71-.16,.98-.47,.25-.3,.56-.61,.99-.37,.32,.18,.54,.49,.39,.88-.38,.99,.8,1.67,.5,2.7-.09,.31,.6,.45,.97,.26,.37-.19,.87-.47,.47-.99-1.36-1.74-1.08-4.15-2.42-5.89-.06-.08-.08-.27-.02-.35,.42-.65,1.34-.54,1.78-1.36,.46-.83,1.26-.27,1.91,.15,.35,.23,.87,.79,1.2,.18,.32-.58-.4-.74-.79-.97-1.03-.6-2.02-1.19-2.02-2.62,0-.5-.34-.88-.95-.85-.38,.01-.69-.13-.78-.54-.05-.23,.03-.44,.22-.57,.42-.28,.65,.07,.87,.31,.48,.51,.88,.7,1.28-.08,.24-.47,.72-.4,1.15-.42,.43-.03,1.02,.21,1.13-.53,.63-.51,1.25-1.05,1.87,.01,.07,.12,.3,.25,.42,.23,2.35-.42,4.35,1.28,6.65,1.08,.17-.01,.46,0,.49,.07,.53,1.32,1.89,.67,2.77,1.18,.61,.36,1.41,.36,2.15,.31,.7,.33,1.42,.6,2.19,.74,.56,.1,1.15,.2,1.57,.56,.91,.78,1.86,1.35,3.09,1.42,.28,.01,.76,.16,.67,.61-.07,.34-.47,.31-.77,.32-.13,0-.25-.03-.38-.06-1.36-.05-2.69-.43-4.05-.49,.8,.06,1.72-.14,2.08,.92,.14,.29,.27,.59,.11,.91-.37,.3-.83,.29-1.24,.21-1.19-.24-2.39-.39-3.61-.43-.57-.02-1.07-.28-1.54-.63-.79-.59-1.67-.54-2.08,.3-.53,1.08-1.35,1.22-2.36,1.17-.56-.02-1.13,.03-1.69-.04-.51-.06-.88,.01-1.2,.51-.57,.87-1.69,.52-2.53,1.04,.28,.38,.76,.76,.65,1.35-.11,.63-.7,.7-1.16,.91-.16,.07-.32,.16-.43,.29-.4,.5-.83,.98-1.38,1.59,1.15,.18,1.9-.04,2.26-1,.22-.58,.57-.87,1.17-.77,.55,.09,1.01-.03,1.47-.35,.36-.25,.74-.17,1.08,.12,.34,.3,.41,.66,.18,1.05-.29,.48-.27,.95-.11,1.49,.17,.59,.11,1.32-.48,1.61-.57,.28-.88-.37-1.24-.73-.15-.15-.28-.33-.68-.38,.27,1.05,.74,2,.89,3.03,.07,.49,.18,.9-.24,1.31-.67,.66-.5,1.69,.34,2.1,.35,.17,.72,.29,1.09,.42,.63,.24,1.09,.49,.75,1.33-.22,.54,.18,1.04,.52,1.4,.65,.67,.61,1.32,.16,2.03,.02,.18-.02,.35-.14,.49-.41,.26-.95,.25-1.31,.62-.48,.25-.96,.51-1.49,.12Z"/>
    <path class="cls-83" d="M117.5,65.34c2.91,2.68,4.84,5.87,4.66,9.95-.1,2.14-1.05,4.09-2.26,5.85-1.68,2.45-3.27,4.96-5.26,7.17-.41,.02-.83,.06-1.1-.33-1.17,.24-2,1.11-3.01,1.64-.93,.48-1.76,.97-2.92,.78-.93-.15-1.84,.4-2.74,.7-1.69,.56-3.37,1.16-5.13,1.47-.42,.07-.85,.24-1.27,0-.17-.13-.23-.43-.44-.44-1.32-.03-1.98-1.01-2.75-1.84,.19-.5,.67-.5,1.07-.59,1.98-.46,3.92-1.02,5.86-1.62,1.13-.32,2.14-.93,3.23-1.34,2.17-.52,4.02-1.7,5.9-2.82,.57-.38,1.06-.91,1.78-1.03,.44,.15,.79,.38,1.3-.07,2.95-2.58,5.2-5.58,5.74-9.57,.28-2.07-.31-3.91-1.6-5.59-.5-.66-1.47-1.21-1.03-2.32Z"/>
    <path class="cls-53" d="M41,65.83c1.59-2.06,3.77-3.38,5.92-4.75,1.04-.67,1.9-1.65,3.25-1.75-.51,1.64-.58,3.22-.15,4.96,.22,.89-.22,2.11-.48,3.15-.16,.61,0,.93,.62,.96,.82,.05,1.34,.53,1.76,1.17,.31,.47,.66,.96,1.12,1.25,1.14,.73,1.74,1.69,1.61,3.06,.53,.53,.91,.16,1.33-.2,1.21-1.02,3.1-.57,3.78,.88,.2,.42,0,.65-.31,.87-.35,.24-.84,.19-1.17,.43,.03,.55,.45,.79,.67,1.15,.16,.27,.33,.55,.09,.84-.26,.31-.61,.29-.96,.17-.34-.11-.65-.33-.8-.64-.54-1.1-1.29-.97-2.11-.4-.79,.55-1.51,.64-2.14-.22-.13-.43-.28-.83-.78-.96-.95-.3-1.63-1.21-2.7-1.23-.43-.05-.85,.02-1.27,.13-.47,.09-.9,.03-1.29-.26-.63-.54-1.16-1.12-.91-2.06,.2-.73-.39-.43-.69-.51-.52-.08-.99-.27-1.31-.72-.05-.81,.48-1.58-.04-2.45-.22-.38,.39-.93,.81-1.2,.83-.53,.94-1.13,.38-1.9-.09-.39-.02-.77,.11-1.14,.09-.27,.35-.6-.03-.8-.32-.16-.56,.13-.78,.33-1.33,1.27-2.47,2.63-2.73,4.57-.1,.73-.15,1.57-.91,2.04-.86-.98-.47-2.1-.29-3.17,.09-.54,.32-1.07,.39-1.62Z"/>
    <path class="cls-14" d="M38.42,70.02c0-.27-.07-.56,.19-.77,.95-.91,1.04-.88,1.56,.29,.61,1.4,.99,2.76,.81,4.37-.21,1.9,.71,3.61,1.78,5.17,1.58,2.28,3.67,4,6.06,5.37,.19,.11,.42,.1,.63,.15,2.39,1.1,4.69,2.39,7.2,3.24,1.31,.44,2.64,.82,3.98,1.17,.5,.13,1.01,.24,1.39,.64,.18,.19,.37,.34,.65,.39,2.88,.58,5.62,1.78,8.6,1.87,.32,.01,.78,.04,.78,.5,0,.41-.38,.54-.73,.61-.64,.13-1.3,.04-2.07,.1,.9,.34,1.74,.27,2.55,.32,.75,.05,.75,.07,.96,.73-.62,.35-1.31,.19-1.97,.23-1.65-.03-3.23-.58-4.89-.53-3.47-.54-6.88-1.33-10.21-2.45-.41-.14-.84-.25-1.13-.61-.21-1.18-.96-1.7-2.06-2.19-3.8-1.71-7.53-3.61-10.66-6.4-1.41-1.26-2.65-2.72-3.14-4.68-.29-1.17-.63-2.34-1.17-3.44-.41-.83,.04-1.62,.22-2.39,.14-.57,.32-1.17,.65-1.69Z"/>
    <path class="cls-47" d="M117.5,65.34c.03,.77,.58,1.24,1.01,1.76,2.67,3.25,2.55,6.68,.68,10.21-1.2,2.26-2.64,4.34-4.78,5.86-.53,.38-.95,.82-1.35-.09-.14-.45,.25-.6,.48-.81,1.09-1.02,2.1-2.13,3.09-3.25,1.13-.42,1.48-1.48,2.02-2.4,1.68-3.2,.76-6.11-.98-8.93-.95-1.54-2.3-2.67-3.74-3.74-3.28-2.44-6.71-4.57-10.72-5.66,.1,.77,.1,.77,.9,1.3,.57,.38,1.14,.77,.35,1.48-.2,.06-.39,.06-.59,.02-2.77-.89-5.48-1.93-8.34-2.53-.74-.43-1.84-.06-2.31-1.06,.25-.01,.5-.03,.8-.05-.07-.11-.1-.2-.14-.21-1.33-.24-2.61-.46-3.62-1.56-.5-.55-1.46-.43-2.19-.66-.51-.16-1.09-.33-1.37-.9,4.09,.33,8.14,.99,12.14,1.9,5.32,1.2,10.31,3.21,14.89,6.16,1.37,.89,2.8,1.76,3.76,3.15Z"/>
    <path class="cls-26" d="M89.05,101.07c-2.3,.38-4.61,.61-6.92,.87-2.14,.24-4.25,.09-6.35-.11-4.92-.45-9.79-1.22-14.48-2.84-6.06-2.08-11.63-5.01-16.07-9.74-2.34-2.49-4.12-5.42-6.06-8.22-.05-.21,.03-.34,.25-.3,.33,.05,.55,.29,.69,.55,1.43,2.58,4.09,3.67,6.35,5.23,.82,.57,1.73,1,2.3,1.88,.21,.25,.45,.48,.6,.78,.12,.29,.05,.55-.24,.63-1.11,.29-.8,.65-.15,1.22,2.71,2.43,5.68,4.44,9.13,5.65,3.28,1.14,6.54,2.38,9.97,2.97,1.43,.25,2.65,1.01,4.12,1.16,3.04,.31,6.07,.24,9.11,.1,.98-.05,2,.2,2.9-.47,.58-.42,1.16-.77,1.01-1.64-.08-.46,.13-.91,.53-1.12,1.57-.83,3.17-1.59,5.03-1.41,.33,.63-.26,.69-.57,.85-.91,.49-1.21,1.13-.71,2.1,.37,.72,.4,1.41-.45,1.85Z"/>
    <path class="cls-41" d="M54.34,74.22c-.06-.06-.16-.12-.17-.19-.08-.49-1.13-2.79-1.55-3.16-.49-.44-.91-.91-1.23-1.48-.35-.63-.94-.66-1.57-.66-.78,0-.97-.27-.77-1.15,.37-1.6,1.17-3.23,.28-4.92-.71-1.36,.44-2.25,.84-3.34,.61-.9,1.2-1.8,1.83-2.68,.64-.91,1.37-1.65,2.6-.95,.76,.24,1.14,.94,1.54,1.5,.49,.68,.03,1.3-.75,1.34-1.01,.06-1.26,.68-1,1.39,.38,1.03,.07,2.11,.5,3.17,.21,.52-.38,1.66-.93,2.13-.54,.46-.95-.34-1.12-.87-.22-.68-.47-1.3-1.15-1.65-.35-.18-.64-.19-.97,.03-.32,.23-.2,.49-.16,.8,.17,1.27,.32,2.55,.43,3.83,.08,.96,.83,1.5,1.47,1.85,1.14,.63,1.74,1.64,2.41,2.63,.3,.89,.24,1.69-.52,2.35Z"/>
    <path class="cls-81" d="M48.61,88.57c-1.83-1.84-4.17-2.96-6.31-4.35-1.17-.77-1.58-2-2.52-2.86-.18-.17-.17-.67-.62-.34-2.2-2.67-2.74-7.68-1.13-10.67,.08-.14,.26-.23,.39-.34,0,.04,.01,.09,0,.13-1.61,3.17,.14,6,1.18,8.74,.77,2,2.64,3.46,4.5,4.7,2.99,1.99,6.07,3.79,9.45,5.05,.79,.3,1.52,.91,1.06,2-.43,.42-.87,.16-1.31,0-1.63-.55-3.18-1.27-4.69-2.07Z"/>
    <path class="cls-79" d="M103.9,96.38c-2.86,1.61-5.89,2.79-9.12,3.42-.28-.33-.49-.71-.74-1.07-1.13-1.6-1.12-1.78,.26-3.32,1.34-.53,2.73-.83,4.15-.97,1.35,.75,2.84,1.05,4.34,1.33,.42,.08,1.02-.09,1.11,.61Z"/>
    <path class="cls-68" d="M103.9,96.38c-1.47-.46-3.06-.43-4.48-1.09-.35-.16-.93-.07-.97-.69,.7-.77,1.71-.78,2.6-1.05,1.74-.53,3.34-1.44,5.13-1.82,.74,.01,1.43-.2,2.14-.36,1.29-.29,2.05,.14,2.1,1.09-2.1,1.43-4.01,3.18-6.53,3.92Z"/>
    <path class="cls-7" d="M49.43,84.88c-1.82-.35-3.17-1.57-4.43-2.74-2.17-2.03-4.03-4.35-4.39-7.5-.04-.34-.14-.73-.02-1.02,.71-1.74-.5-3.09-.94-4.56-.21-.69-.65,.24-1.03,.18,.62-1.27,1.32-2.47,2.38-3.43,.36,.34,.53,.59,.18,1.16-.67,1.11-.6,2.36-.15,3.57,.43,1.08,.89,2.15,1.4,3.19,.06,.11,.11,.23,.14,.35,.14,.85,.09,1.73,.55,2.51,.78,2.46,2.12,4.52,4.26,6.02,.57,.85,1.87,1.05,2.04,2.26Z"/>
    <path class="cls-71" d="M94.27,95.62c-1.12,1.27-.68,2.37,.39,3.38,.27,.26,.28,.5,.13,.8-1.87,.6-3.77,1.09-5.74,1.27,.27-.52,.57-.97,.23-1.65-.77-1.57-.55-2.03,1.05-2.72,.19-.08,.36-.2,.54-.3,.96-1,2.14-1.07,3.4-.77Z"/>
    <path class="cls-9" d="M110.43,92.46c-.4-1.29-1.45-.78-2.23-.7-.64,.07-1.25,.46-1.93,.2,.05-.35,.29-.56,.56-.74,2.46-.73,4.47-2.36,6.75-3.43,.23,.41,.83,.09,1.05,.52-1.1,1.69-2.54,3.03-4.2,4.15Z"/>
    <path class="cls-25" d="M66.6,79.68c.53,.21,1.07,.41,1.6,.62,1.03,.23,2.14-.24,3.14,.31,.65,.25,1.28,.19,1.83-.2,.38-.27,.76-.38,1.2-.31,.58,.14,1.15,.3,1.65,.66,.05,.11,.06,.23,.03,.35-.12,.28-.37,.48-.51,.74-.57,1.04-.1,1.77,1.25,1.92,1.04-.13,1.98-.37,2.2-1.62,.59-.62,1.37-.44,2.09-.5,.62,.23,1.07,.59,1.05,1.33-.05,.13-.14,.22-.27,.27-.12,.03-.25,.04-.38,.03-1.99-.24-2.67,.65-2.26,2.96-.09,.18-.22,.3-.41,.34-.27,0-.42-.32-.81-.24,.4,.98,1.01,1.97,.46,3.04-.52,1.01-1.51,1.55-2.43,2.11-.85,.52-2.16-.18-2.86-1.36-.04-.26-.02-.5,.13-.73,.49-.29,.8,.14,1.16,.31,.75,.37,1.48,.46,2.21-.02,.79-.41,1.13-.99,.78-1.89-.45-1.14-1.3-1.66-2.6-1.53-.23,.06-.46,.12-.71,.09-.43-.23-.83-.4-1.3-.04-.3,.23-.65,.45-1.06,.18-.13-1.71-.47-2.23-1.55-2.48-.91-.21-1.45,.42-2.09,.83-.58,.19-.84,.65-1.06,1.17-.46,.22-.93-.05-1.39,.05-1.04,.13-1.32,1.4-2.34,1.58-.57-.21-1.19-.29-1.75-.5-.5-.19-1.14-.32-1.09-1.09,.51-.45,.94,.06,1.41,.11,1.89,.19,2.82-.48,2.88-2.09-.05-.29,.64-.72-.3-.86-.92-.14-1.05-.79-.35-1.45,.45-.43,.62-1.18,1.36-1.3,.68-.08,1.35-.08,2.08,.33-.48-.37-1.1-.41-.98-1.12Z"/>
    <path class="cls-58" d="M54.34,74.22c.12-.79,.63-1.5,.52-2.35,.74,1.3,.8,1.31,2.24,.3-.36-.79-1.4-.56-1.85-1.21,.27-.53,.85-.42,1.23-.68,.32-.21,.73-.39,1.08-.1,.35,.29,.48,.69,.29,1.17-.33,.83,.04,1.32,.83,1.58,.33,.11,.67,.2,.82,.56,.47,1.11,1.26,1.44,2.4,1.04,.37-.13,.77-.06,1.13,.14,.52,.28,.95,.5,1.37-.26,.21-.38,.92-.34,1.28,0,.3,.29,.78,.63,.45,1.22-.12,.22-.19,.47-.31,.77,.51,.15,1.41-.43,1.28,.69-.77,.07-1.34,.58-2.01,.88-.87-.45-1.56-.33-2.47,.22-.94,.56-2.19,.6-3.29,.59,.31,.29,1-.38,1.28,.33-.73,.7-1.61,.4-2.45,.37-.17-.04-.35-.07-.47-.19-1.01-1.09-2.25-1.43-3.68-1.17-.54-.17-1.04-.44-1.42-.85-.39-.42-.36-.76,.35-.73,.83,.94,1.66,.47,2.45-.03,.87-.56,1.57-.77,1.93,.52,.06,.22,.32,.4,.51,.57,.27,.25,.66,.42,.93,.16,.38-.36-.1-.59-.3-.81-1.02-1.17-1.02-1.17,.47-1.64,.24-.08,.57-.06,.65-.34,.13-.43-.32-.42-.52-.61-.19-.18-.38-.35-.57-.52-.84-.79-1.65-.91-2.37,.15-.52,.77-1.12,.84-1.81,.23Z"/>
    <path class="cls-10" d="M81.22,81.78c-.61,.53-1.51-.05-2.11,.55-.91-.17-1.2-.96-1.62-1.63,.09-.54,.64-.33,.92-.57-.49-.6-1.51,.37-1.86-.62,.11-.09,.22-.19,.32-.28,.49-.12,.99-.23,1.48-.35,.6-.45,1.13,.16,1.72,.12,.04-.31-.34-.37-.36-.63,0-.16-.01-.32-.02-.48,.24-.31,.64-.41,.93-.3,1.19,.48,2.24,.02,3.31-.4,.22,.04,.41,.13,.55,.29,.56,.64,1.09,.87,1.67,.02,.05-.08,.24-.03,.37,0,.94,.47,1.99,.29,2.98,.53,.19,.73,.82,1.23,1.01,1.97-.02,.12-.08,.23-.17,.31-.57,.2-.86-.22-1.23-.52-.77-.62-1.28-.51-1.7,.41-.23,.51-.36,1.06-.81,1.45-.37,.31-.84,.76-1.24,.61-1.36-.52-2.83,.25-4.14-.46Z"/>
    <path class="cls-39" d="M66.6,79.68c.33,.69,1.16,.69,1.83,1.35-1.11,.2-1.96-.57-2.87-.3-1.42-.12-2.88-.47-4.06,.77-.2,.21-.54,.27-.84,.29-.51,.04-1.12,.17-1.4-.36-.3-.56,.15-.95,.57-1.28,1.06-.24,2.05-.64,2.89-1.37,.93,0,1.83-.31,2.76-.29,.35,.12,.45,.44,.56,.74,.19,.15,.38,.29,.56,.44Z"/>
    <path class="cls-57" d="M74.43,80.2c-.91-.08-1.3,1.09-2.28,.93-.28-.05-.58,0-.86-.13-.14-.41-.54-.58-.82-.85,1.06-.28,.3-.96,.31-1.48,1.17,.62,2.78,0,3.65,1.35,0,.06,0,.11,0,.17Z"/>
    <path class="cls-59" d="M74.43,80.2c0-.06,0-.11,0-.17,.58-.67,1.24-1.03,2.11-.53,.43,.35,.87,.14,1.33,.06,.47-.08,1.11,0,1.16,.47,.06,.68-.54,.56-1.02,.48-.13-.02-.29,.12-.44,.19-.47,.44-1,.52-1.58,.26-.44-.42-1.25-.09-1.56-.77Z"/>
    <path class="cls-85" d="M66.04,79.25c-.17-.19-.34-.38-.52-.57-.03-.28-.26-.51-.22-.81,.38-.81,.9-1.26,1.83-.78,.42,.21,.9,.38,.73,1.01-.14,.53-.58,.57-1.01,.55-.44-.01-.75,.11-.81,.6Z"/>
    <path class="cls-21" d="M67.92,75.04c.35,.17,.88,.2,.93,.73,.03,.37-.3,.72-.64,.67-.44-.07-.63-.54-.76-.94-.1-.31,.12-.47,.47-.45Z"/>
    <path class="cls-39" d="M70.48,80.16c.55,.01,.88,.24,.82,.85-.87-.93-2.12-.23-3.1-.7,.76-.05,1.52-.1,2.27-.15Z"/>
    <path class="cls-4" d="M84.06,77.36c-.24,.1-.5,.17-.71,.31-.67,.46-1.25,1.03-2.15,.27-.31-.26-1-.06-1.51-.07-.16,0-.41,.07-.46,0-.16-.22-.03-.46,.21-.48,.75-.09,.58-.43,.28-.85-.53-.74-1.61-1.24-.79-2.53,.21-.33-.94-.68-1.29-.7-1.33-.04-1.21-1.29-1.8-1.91-.3-.31,.07-.75,.52-.82,.78-.12,.67-.5,.51-1.11-.26-.98-.47-1.96-1-2.84-.17-.28-.18-.61,.12-.81,.26-.17,.52,.01,.71,.16,.23,.19,.41,.44,.6,.67,.23,.29,.35,.72,.86,.65-.13-.5,.59-.9,.21-1.39-.47-.61-.36-1.12,.12-1.61,.27-.28,.29-.51-.01-.76-.3-.25-.59-.38-.9-.01-.03,.03-.05,.07-.07,.11-.54,1.08-1.94-.51-2.19,.54-.24,1.05-.83,1.31-1.63,1.55-.51,.15-1.11,.37-1.42-.17-.33-.58,.38-.72,.68-1.05,.63-.68,1.04-1.51,2.16-1.67,.58-.09,.17-.71-.02-1.07-.23-.42-.89-.36-1.13-1.04,.99,.34,1.74-.32,2.61-.33,.17,0,.47-.04,.48-.1,.38-2.06,1.91-.59,2.84-.91,.43-.15,.95-.03,1.43-.03,.42,0,.86-.11,.87-.59,.03-.9,.77-.91,1.3-1.23,.77-.46,1.1-.04,1.59,.5,.46,.51,1.24,.57,1.95,.53,1.38-.09,2.68,.45,4.04,.53,1.15,.29,2.02,1.31,3.34,1.22,.45-.03,.62,.53,.64,.99,0,.12,0,.25-.03,.37-.64,1.27,.55,2.07,.82,3.11,.08,.3,.4,.54,.48,.88,.11,.39-.02,.86,.53,1.07,.6,.23,.85,.74,.67,1.35-.21,.71-.84,1.12-1.48,.97-1.14-.26-1.44,.37-1.67,1.21-.28,.47-1.11-.35-1.14,.39-.04,1.04-1.71,1.4-1.04,2.67,.31,1.06-.48,1.31-1.19,1.6-.23,.07-.5-.05-.72,.12-.06,.54,1.1,.69,.44,1.41-1.13-.1-2.27-.19-3.4-.3-.55-.05-1.11-.11-1.63,.16-.6,.27-.77,1.21-1.64,1.05Z"/>
    <path class="cls-8" d="M94.79,61.43c-.02-.45-.05-1.02-.64-.91-1.41,.26-2.18-.67-3.06-1.44-.1-.27-.19-.54-.29-.81-.14-.56-.02-.94,.66-.88,.58,.05,1.19-.14,1.76,.13,0,0,0,0,0,0,.79,.26,1.58,.53,2.38,.79,.87,.26,1.59,.84,2.34,1.3,1.88,1.13,4,.79,5.97,1.27,.18,.01,.35,.02,.53,.03,1,.04,1.79,.53,2.48,1.21,.09,.1,.16,.21,.22,.33,.27,.61,.69,1.21,.2,1.9-.96,.11-1.76-.58-2.74-.51-.82,.06-1.61,.09-2.33,.54-1.15-.27-1.49-1.34-2.1-2.15-.1-.13-.12-.32-.26-.43,.06,.17,.04,.34-.01,.51-.15,.31-.46,.49-.74,.39-1.44-.51-3.22,.21-4.38-1.27Z"/>
    <path class="cls-50" d="M68.87,70.78c-.53-.69-1.4-.34-2.12-.59-.3-.1-.45-.41-.48-.73-.03-.34,.25-.39,.51-.47,1.05-.3,1.02-.75,.21-1.36-.23-.17-.41-.44-.57-.7-.09-.15-.04-.36,.15-.43,.09-.03,.29,.02,.34,.1,.71,1.11,2.16,1.62,2.43,3.1,.09,.48,.2,.84-.46,1.07Z"/>
    <path class="cls-47" d="M93.22,57.52c-.56-.01-1.13,0-1.69-.04-.64-.06-.71,.33-.73,.8-.21-.52-.52-.84-1.16-.77-.49,.05-1.01,.12-1.55-.16,1.02-.5,3.6-.39,5.12,.18Z"/>
    <path class="cls-4" d="M79.71,78.37c.47,.21,1.38,.3,1.16,.84-.23,.55-1.04,.24-1.54-.11-.31-.22-.65-.16-.98-.22,.21-.82,.9-.35,1.36-.51Z"/>
    <path class="cls-20" d="M72.87,94.04c-1.26-.53-2.66-.06-3.93-.51-.22-.08-.6,.07-.62-.3-.02-.4,.34-.44,.64-.48,.96-.11,1.96,.2,3.19-.36-1.22-.31-2.2-.25-3.13-.37-2.34-.3-4.45-1.5-6.81-1.67-.24-.02-.55-.14-.29-.51,.4-.29,.82-.06,1.24-.05,1.37,.23,2.74,.41,4.11,.63,1.76,.24,3.51,.48,5.28,.62,.13,0,.26,0,.39,.02,3.67,.75,7.38-.01,11.06,.27,.62,.05,1.19-.22,1.79-.25,2.55-.06,5.06-.47,7.57-.88,.63-.1,1.28-.32,1.86,.16,.49,.06,1-.04,1.18,.71,.16,.67,.84,.64,1.41,.63,.55,0,1.03,.02,.61,.77-.63,.83-1.62,.71-2.47,.85-.89,.14-1.78,.28-2.64,.55-2.46,.58-4.98,.71-7.47,.78-3.97,.12-7.95,.29-11.91-.24-.39-.05-.78-.04-1.07-.37Z"/>
    <path class="cls-66" d="M107.3,64.3c.16-.69-.27-1.24-.45-1.86,.35-.23,.68-.07,.98,.09,4.34,2.25,7.66,5.42,9.16,10.22,.51,3.46-.97,6.21-3.09,8.74-.76,.92-1.83,1.57-2.43,2.65-1.87,1.22-3.73,2.45-5.99,2.88-.03-1.01,.67-1.59,1.31-2.2,1.68-.04,2.25-1.62,3.35-2.46,1.36-1.03,2.22-2.53,3.11-3.94,.8-1.27,.78-2.8,.75-4.28-.02-.24-.06-.47-.14-.7-.53-1.55-2.06-2.03-3.16-2.97-.08-.09-.14-.19-.19-.31-.61-.87-1.24-1.74-1.67-2.72-.33-.75-1.05-1.08-1.64-1.56-.08-.53,.01-1.06,.07-1.58Z"/>
    <path class="cls-12" d="M95.24,90.36c-2.55,.35-5.1,.71-7.65,1.04-.55,.07-1.11,.03-1.67,.05-1.33-.13-2.66,.08-3.99-.01-.37-.03-.91,.09-.95-.42-.03-.43,.44-.63,.84-.66,2.2-.18,4.31-1.1,6.57-.86,.43,.04,.9,.07,1.29-.09,2.29-.95,4.76-.93,7.13-1.41,.98-.2,1.92-.55,2.86-.88,1.08-.02,1.99,.37,2.69,1.21-2.28,1.03-4.77,1.29-7.13,2.04Z"/>
    <path class="cls-49" d="M102.37,88.32c-.79-.35-1.58-.7-2.37-1.05-1.08-.98-1.25-1.95-.47-2.74,.13,.01,.25,.06,.35,.14,.88,1.18,1.92,2.16,3.46,2.38,.53-.19,1.05-.41,1.44-.85,2.18-2.09,2.01-3.09-.75-4.39-.47-.22-.96-.37-1.47-.48-.18-.04-.35-.1-.51-.2-.53-.74-1.37-.77-2.15-.94-.17-.46,0-.85,.25-1.23,.86-.28,1.81-.2,2.61-.7,2.68,.8,5.05-.39,7.5-1.13,.23-.12,.47-.22,.74-.23,.87,.18,.48,.65,.2,1.01-.57,.72-1.32,1.24-2.1,1.71-1.31,.79-2.74,1.24-4.19,1.48,2.45,1.49,2.89,2.37,1.89,3.83-.44,.7-.87,1.39-1.31,2.09-.99,.56-2.03,1-3.13,1.3Z"/>
    <path class="cls-68" d="M93.48,93.52c1.58-.67,3.35-.5,4.96-1.06,2.9-.35,5.57-1.49,8.33-2.33,.16-.05,.34-.23,.47-.19,2.55,.74,3.94-1.46,5.86-2.3,.3-.13,.57-.32,.88-.49,.07,.41-.19,.51-.4,.64-2.14,1.45-4.23,2.98-6.79,3.64-2.25,.99-4.52,1.96-6.96,2.41-1.72,.15-3.44-.07-5.16,.04-.43,.03-.87,0-1.19-.36Z"/>
    <path class="cls-22" d="M111.48,84.13c.12-1.34,1.31-1.81,2.1-2.61,1.66-1.13,2.45-2.85,3.15-4.63,.13-.32,.17-.68,.31-.99,.12-.27,.24-.65,.58-.61,.45,.05,.38,.49,.42,.83-.26,1.1-.46,2.22-1.32,3.06-.96,1.54-2.26,2.77-3.64,3.92-.53,.35-1.06,.69-1.59,1.04Z"/>
    <path class="cls-60" d="M60.03,80.2c-.21,.39-.87,.91-.51,1.15,.65,.44,1.64,.33,2.13-.3,1.05-1.35,2.28-.72,3.5-.56,.15,.02,.28,.17,.43,.25-.73,.28-.85,1.16-1.55,1.56-.4,.23,.24,.77,.51,.72,2.14-.42,.54,.69,.5,1.16-.56,.07-.83-.38-1.19-.66-.4-.31-.84-.4-1.33-.33-.82,.19-1.22,.86-1.64,1.48-.21,.3-.23,.74-.65,.89-.5,.03-.61-.41-.84-.7-.9-1.14-2.07-2.04-3.52-1.88-2.45,.28-4.29-.96-6.22-2.06,.02-2-1.27-3.22-2.6-4.43-.54-.49-1.01-1,.21-1.26,.44-.1,.58-.71,1.06-.85,.41-.34,.89-.12,1.34-.16-.4,1.34,.05,1.82,1.62,1.81,.52,0,.88-.28,1.3-.49,.34,.25,.89,.4,.42,.99-.47,.07-.67,.27-.21,.61,.41,.3,.88,.53,1.32,.79,.12,.12,.23,.25,.3,.41,.32,.6,.86,.62,1.43,.54,.76-.13,1.44,.25,2.17,.33,.86-.19,1.79,.19,2.62-.3,.39-.52,.88-.63,1.47-.39,.29,.67-.34,.76-.67,.99-.42,.29-.85,.61-1.38,.68Z"/>
    <path class="cls-62" d="M48.29,74.38c-.72,.36-.06,.73,.07,1.12-.58,.23-1.16-.19-1.73,.24,.83,.65,1.47,1.47,2.19,2.16,.91,.86,1.24,1.7,.82,2.85,1.1,.73,2.17,1.56,3.33,2.15,2.32,1.19,4.27,2.92,6.51,4.22,.45,.26,1.03,.54,.85,1.27-.28,.19-.57,.17-.87,.07-2.38-.82-4.76-1.68-6.85-3.09-2.69-1.82-5.43-3.64-6.93-6.71-.82-1.67-1.55-3.39-2.5-5-.07-.2-.11-.41-.11-.62,.02-1.55,.61-1.92,2.03-1.28,.48,.3,.27,.73,.23,1.14-.14,1.4,.42,1.82,1.72,1.3,.37,.3,.79,.32,1.23,.2Z"/>
    <path class="cls-23" d="M45.48,65.6c.67,.72,1.1,1.31-.18,1.98-.41,.21-2.14,.94-.26,1.84,.26,.12-.06,.44-.22,.63-.27,.32-.68,.55-.66,1.05-.86,.14-1.19,.71-1.24,1.52-.03,.46,.05,.94-.25,1.35-.11,.08-.22,.08-.33,0h0c-.29-.77-.59-1.53-.84-2.28-.57-1.75,.27-3.29,1.1-4.76,.36-.63,.97-1.1,1.52-1.58,.56-.49,1.01-.38,1.36,.25Z"/>
    <path class="cls-76" d="M42.57,73.96c.12-1.03-.23-2.11,.7-3.02,.53-.52,.61,0,.88,.14,.43,.17,.87,.35,1.3,.52,.06,.24-.02,.33-.26,.26-1.7-.53-1.82-.41-1.81,1.83,.65,1.28,.61,2.77,1.23,4.07,.59,1.26,1.35,2.4,2.18,3.5,.33,.45,.91,.88,.49,1.59-2.28-1.43-3.58-3.57-4.43-6.04-.14-.95-.61-1.86-.28-2.85Z"/>
    <path class="cls-82" d="M45.48,65.6c-.33-.07-.49-.54-1.01-.18-2.3,1.59-3.21,4.44-2.24,7.12,.15,.43,.08,.94,.11,1.41-.67-1.04-1.46-2.03-1.3-3.38,.37-2.7,1.2-5.18,3.44-6.97,.36-.29,.64-.77,1.2-.35,.53,.4,.33,.83,.02,1.23-.26,.35-.21,.73-.21,1.12Z"/>
    <path class="cls-51" d="M52.55,75.54c-.73,1.09-3.02,1.04-3.81-.07-.22-.31-.06-.49,.16-.63,.28-.18,.67-.2,.73-.63,1.18-.02,1.8,1.19,2.92,1.32Z"/>
    <path class="cls-17" d="M45.2,71.87c.09-.09,.17-.17,.26-.26,.37-.06,.74-.11,1.27-.19-.31,1-.87,2.04,.32,2.77-.32,.42-.9,1.13-1.17,.82-.45-.52-1.31-1.05-.93-2.04,.13-.35,.17-.74,.25-1.11Z"/>
    <path class="cls-45" d="M48.61,88.57c1.75,.15,3.11,1.36,4.78,1.76,.41,.1,.77,.37,1.23,.3,3.62,1.4,7.41,2.2,11.21,2.89,1.3,.32,2.66,.24,3.93,.69,4.46,1.4,9.07,1.31,13.67,1.31,.65,0,1.31-.03,1.96,.03,.44,.04,.93,.11,1.03,.62,.11,.54-.38,.73-.78,.89-1.46,.59-2.98,.94-4.53,1.21-2.01,.34-4.03,.65-6.01,1.17-1.99,.53-4.03,.22-5.95-.18-3.82-.8-7.7-1.45-11.25-3.24-.7-.35-1.38-.74-2-1.22-.41-.31-.92-.63-.77-1.24,.14-.58,.72-.54,1.19-.59,.13-.01,.25-.04,.34-.21-.09-.58-.62-.64-1.05-.75-1.66-.4-3.15-1.25-4.75-1.79-.68-.23-1.22-.64-1.72-1.13-.24-.1-.42-.27-.51-.52Z"/>
    <path class="cls-74" d="M47.28,82.86c-.21-1.07-1.05-1.74-1.63-2.57-1.39-1.99-2.17-4.17-2.26-6.59,.73,.44,.88,1.27,1.21,1.94,1.09,2.2,1.99,4.52,3.92,6.18,2.78,2.38,5.71,4.54,9.28,5.58,.87,.25,1.58,.94,2.54,.9,1.03-.26,1.9,.28,2.81,.59,.68,.52,.27,.86-.19,1.2-.41,.21-.65-.33-1.03-.25-1.65-.51-3.31-.98-4.94-1.53-2.63-.89-5.13-2.09-7.56-3.43-.72-.68-1.43-1.35-2.15-2.03Z"/>
    <path class="cls-24" d="M93.48,93.52c2.18,0,4.35,0,6.53,0,.02,.51-.42,.52-.71,.59-3.32,.81-6.65,1.65-10.11,1.61-3.73-.14-7.45-.12-11.18-.12-.15,0-.3-.02-.45-.04-2.07-.51-4.2-.71-6.31-1-.15-.01-.28-.06-.41-.13-.13-.11-.15-.23-.07-.38,.7,0,1.4,0,2.09-.01,3.24,.33,6.5,.25,9.75,.28,3.64,.04,7.25-.34,10.86-.8Z"/>
    <path class="cls-29" d="M70.78,94.05c0,.09,0,.17,0,.26-.35,.28-.7,.17-1.05,0-1.27-.42-2.68-.2-3.91-.79,1.68-.09,3.29,.49,4.96,.53Z"/>
    <path class="cls-54" d="M116.71,79.18l1.04-3.14c.22-1.3-.17-2.42-1.05-3.39-1.78-4.86-5.17-8.16-9.85-10.22-.02-.07-.04-.15-.05-.23,1.16-1.47,2.14-1.67,3.63-.64,2.13,1.48,4.39,2.82,6.18,4.74,2.54,2.73,3.99,6.94,2.19,10.52-.45,1-.72,2.16-2.09,2.35Z"/>
    <path class="cls-64" d="M118.79,76.83c.17-.84,.46-1.68,.5-2.52,.16-3.29-.99-6.01-3.46-8.27-1.79-1.63-3.85-2.86-5.73-4.34-.73-.58-1.32-.7-2.08-.14-.37,.27-.82,.44-1.23,.65-.79-.43-1.58-.87-2.37-1.3,.43-.69,0-.93-.58-1.05-.71-.14-.97-.69-1.18-1.27-.1-.28-.17-.65,.07-.87,.34-.31,.5,.16,.75,.25,1.79,.63,3.52,1.35,5.22,2.23,1.77,.92,3.39,2.04,5.01,3.16,2.23,1.54,4.14,3.4,5.24,5.95,.9,2.09,1.24,4.23,.49,6.45-.14,.4-.16,.88-.65,1.06Z"/>
    <path class="cls-18" d="M103.91,60.88c-2.29,.22-4.53,0-6.59-1.07-.65-.34-1.15-.99-1.71-1.49,2.87,.52,5.62,1.44,8.31,2.57Z"/>
    <path class="cls-11" d="M69.74,94.31c.35,0,.7,0,1.05,0,.09,0,.17,0,.26,0,2.17,.38,4.35,.69,6.53,1.04h0c1.28,.29,2.58,.13,3.86,.12,2.63-.03,5.26,.19,7.88-.12,3.37,0,6.64-.74,9.91-1.45,.28-.06,.61-.08,.8-.38,1.89-.3,3.67-.97,5.44-1.68,.44-.18,.84-.46,1.35-.42-.17,.18-.35,.35-.52,.53-2.6,.91-5.11,2.07-7.81,2.63-1.4,.34-2.79,.68-4.19,1.02-1.13,.26-2.27,.52-3.4,.77-1.63,.09-3.11,.7-4.6,1.29-.62,.24-1.18,.65-.61,1.49,.3,.44-.06,.71-.39,.94-1.02,.72-2.01,1.13-3.41,1.13-1.84,0-3.71,.06-5.57,.1-2.46,.05-4.8-.29-7.21-1.07-2.18-.71-4.5-1.15-6.73-1.8-3.8-1.11-7.51-2.47-10.76-4.8-1.18-.85-2.13-2.02-3.39-2.8-.32-.2-.6-.6-.49-.99,.12-.44,.59-.22,.91-.25,.35-.03,.77,.06,.52-.53,2.4,.94,4.7,2.14,7.23,2.73,.59,.14,1.1,.59,1,1.19-.14,.82-.78,.36-1.26,.28-.3-.05-.67-.07-.78,.28-.11,.35,.24,.53,.46,.71,1.22,1.01,2.63,1.75,4.09,2.21,4.49,1.4,9,2.74,13.78,2.78,1.55,.01,2.94-.64,4.43-.88,2.41-.39,4.9-.62,7.19-1.59,.34-.15,1.07-.03,.93-.63-.11-.5-.74-.3-1.15-.3-2.13-.01-4.26,.1-6.38-.04-1.98-.12-3.99-.03-5.92-.52-1.02-.26-2.14-.3-3.01-1.01Z"/>
    <path class="cls-82" d="M42.57,73.96c.09,.95,.19,1.9,.28,2.85-.55-.88-.55-1.86-.51-2.85,.08,0,.15,0,.23,0Z"/>
    <path class="cls-73" d="M99.97,80.2c1.06-.67,1.67-.14,2.12,.8,.1,.51-.33,.67-.63,.86-1.03,.66-1.75,1.5-1.75,2.8-.92,.24-.22,.8-.24,1.21-.02,.53,.34,.94,.52,1.4-1.84,1.09-3.92,1.3-5.97,1.52-1,.11-1.98,.16-2.88,.6-1.35,.66-2.8,.44-4.22,.49-1.96,.06-3.77,.94-5.76,.88,0,.14,.02,.28,.03,.42,1.08,0,2.17-.02,3.25,0,.5,.01,1.05-.2,1.48,.26-6.32,.55-12.6,.41-18.85-.76,.06-.8,.37-1.42,1.23-1.61,1.8-.15,3.38,.71,5.07,1.07,1.33,1.5,2.11,1.51,3.97,.06,1.24-.97,1.41-1.99,.42-3.34-.34-.46-.37-.74,.07-1.04,.86-.59,.54,.65,1.01,.67,.17,.02,.33,.09,.47,.19,1.59,1.1,2.33,.97,3.5-.58,.46-1.2,.04-2.16-.81-3.01,0-.6-.61-.82-.8-1.3,.05-.27,.26-.64,.46-.34,.6,.91,1.13,.42,1.72,.05,.28-.18,.51-.17,.82,.05,1.05,.74,2.29,.33,2.72-.87,.75-2.07,1.11-2.17,2.72-.76,.2,.18,.42,.3,.69,.31,1.57,.48,2.79,1.65,4.35,2.16,.45,.14,.85,.42,1.35,.3,.3-.02,.59,.06,.88,.05,1-.12,1.23-1.12,1.89-1.64,.38-.3,.51-.94,1.16-.88Z"/>
    <path class="cls-6" d="M63.21,89.09c-.96-.26-1.91-.52-2.87-.78-.61-1.03-1.76-1.36-2.67-1.97-1.45-.97-2.79-2.1-4.38-2.91-1.34-.68-2.62-1.55-3.65-2.69,.24,.09,.53,.12,.72,.27,1.94,1.54,4.28,1.5,6.56,1.81,1.36,.18,2.38,1.08,2.98,2.38,.06,.12,.28,.16,.43,.24,.23,.09,.38,.24,.27,.51,.25,.85,1,.99,1.69,1.03,.52,.04,.87,.22,1.2,.57,.29,.27,.27,.61,.23,.95-.07,.28-.21,.5-.51,.59Z"/>
    <path class="cls-61" d="M73.37,90.14c-1.14,.62-2.02-.38-3.04-.51-.72-.1-1.42-.34-2.17-.28,.45-1.3,.06-2.35-.98-3.2-.03-.05-.06-.1-.09-.15-.29-.78,.19-1.1,.8-1.34,.21,.16,.33,.38,.44,.61,.51,1.04,1.25,1.58,2.47,1.15,.31-.11,.66-.21,.97,.05,.53,.06,.89-.33,1.21-.6,.66-.57,.9-.16,1.16,.35,.16,.32-.12,.41-.3,.55-.31,.34-1.22,.4-.52,1.18,.13,.46,.43,.92,.06,1.41,0,.26,0,.52-.01,.79Z"/>
    <path class="cls-65" d="M74.71,85.98c1.43-.32,2.56,.35,3.1,1.79,.4,1.07,.02,1.74-1.02,2.11-1.42,.35-2.15-.06-2.39-1.43-.15-.84-.23-1.71,.31-2.47Z"/>
    <path class="cls-35" d="M71.78,86.47c-2.74,1.07-3.48,.05-3.88-1.81,.94-.79,1.88-1.54,3.19-.64,.94,.64,1.41,1.37,.69,2.46Z"/>
    <path class="cls-75" d="M65.59,85.74c.53-.12,1.02,.07,1.5,.25,0,0,.02-.02,.02-.02,.88,.66,1.54,1.46,1.23,2.63-.22,.83-1.5,1.48-2.65,1.48-1.37-1.03-1.4-2.54-.1-4.34Z"/>
    <path class="cls-34" d="M62.44,82.84c1.25-.31,1.82,.7,2.58,1.34,.51,.98-.11,1.54-.84,1.91-.68,.34-1.41,.81-2.25,.37-.94-1.61-.83-2.38,.52-3.62Z"/>
    <path class="cls-34" d="M75.99,80.97c.5-.26,1.05-.23,1.58-.26,.7,.36,.98,1.11,1.53,1.62,.16,1.81-1.4,1.37-2.32,1.78-1.07-.58-1.35-1.67-.79-3.11v-.02Z"/>
    <path class="cls-69" d="M81.49,83.08c.08,.01,.16,.02,.24,.02,1.45,.8,1.75,1.62,1.18,3.2-.22,.45-.66,.5-1.07,.6-1.37-.38-2.06-1.27-1.98-2.55,.07-1.11,.45-1.4,1.64-1.26Z"/>
    <path class="cls-30" d="M81.49,83.08c-.69-.06-1.18,.15-1.29,.92-.14,1.02,.13,1.87,1.03,2.44,.21,.14,.48,.19,.72,.28-.74,1.07-1.97,.85-2.82-.5-.34-.8-1.04-1.55-.06-2.42,.72-.64,1.33-1.43,2.43-.72Z"/>
    <path class="cls-28" d="M74.71,85.98c0,.61-.02,1.21-.01,1.82,.02,1.61,.46,2.04,2.09,2.08-1.33,1.1-2.36,.25-3.41-.53-.1-.52-.19-1.04-.29-1.56-.16-.6,.33-.9,.6-1.3,.2-.01,.37-.07,.45-.27,.19-.08,.38-.16,.56-.23Z"/>
    <path class="cls-55" d="M65.59,85.74c-.18,.7-.36,1.39-.55,2.09-.21,.77-.05,1.44,.54,1.99-1.15,.37-1.63,.08-2.1-1.26,0-.34,.01-.68,.02-1.02,.59-.73,1.06-1.59,2.1-1.8Z"/>
    <path class="cls-43" d="M62.44,82.84c-1.01,1.09-.76,2.35-.52,3.62-.51,.02-.88-.34-1.32-.52-.09-.17-.18-.34-.27-.51,.14-1.32,.9-2.14,2.1-2.59Z"/>
    <path class="cls-2" d="M75.99,81c.07,1.09-.06,2.23,.79,3.11-.86,.17-1.49-.24-1.75-.97-.34-.94,.09-1.67,.96-2.14Z"/>
    <path class="cls-63" d="M79.12,86.22c.84,.74,1.72,1.23,2.82,.5,.29-.17,.59-.33,.88-.5,.08-.11,.15-.1,.22,0-1,1.94-2.73,2.05-4.19,.26,.09-.09,.17-.18,.26-.27Z"/>
    <path class="cls-73" d="M77.92,84.69c-1.06,.37-2.05,1.08-3.39,.57,1.11-.72,2.27-.54,3.39-.57Z"/>
    <path class="cls-10" d="M83.05,86.23h-.11s-.11,0-.11,0c.68-1.41-.21-2.26-1.09-3.12,.1,0,.19,0,.29-.01,1.41,.67,1.66,1.42,1.03,3.14Z"/>
    <path class="cls-50" d="M62.15,78.7c-.54-.15-1.02,.16-1.53,.22-.51,0-1.02,0-1.53,0,1.07-.15,1.97-.95,3.1-.81,.15,.02,.4-.05,.47-.16,.85-1.46,1.75-.71,2.65-.09,.3,.21,.75,.38,.22,.81-.94,.16-1.85,.71-2.84,.22-.22,.03-.38-.06-.53-.2Z"/>
    <path class="cls-27" d="M57.99,79.22c-.79,.54-1.55-.32-2.33-.05-.36-.58-1.16-.32-1.56-.81,0-.14,0-.28,0-.42,1.66-.65,2.88,0,3.9,1.28Z"/>
    <path class="cls-50" d="M64.96,76.49c-.26-.12-.61-.17-.64-.54-.03-.35,.24-.42,.51-.41,.32,.01,.62,.12,.64,.49,.02,.31-.2,.44-.5,.45Z"/>
    <path class="cls-32" d="M96.87,83.05c-.27-.06-.53-.12-.8-.18-2.15-.51-4.03-1.55-5.72-2.96-.22-.6-1.57-.73-.75-1.78,.15-.78,.84-1.03,1.39-1.42,.73-.52,1.48-1.02,2.24-1.48,.42-.25,.85-.66,1.37-.15,.73,2.66,1.84,5.22,2.27,7.97Z"/>
    <path class="cls-44" d="M94.55,75.24c-.48-.41-.82,.02-1.13,.24-1.29,.86-2.55,1.77-3.81,2.66-1.11,.08-2.25,.38-3.18-.57-.22-.28-.04-.84-.69-.84-.35,0-.63-.25-.31-.67,1.5-.56,3-.05,4.5,.03,.29,.02,.57,.12,.86,.19,.21-.3,.4-.64,.82-.71-.05-.46-.9-.2-.72-.83,.32-.48,1.57-.18,1.09-1.32-.16-.95,.21-1.35,1.05-1.11,.44,.13,.84,.38,1.19,.69,.02,.77,.11,1.46,1.01,1.76,.29,.09,.54,.43,.33,.84-.44,.2-.74-.02-.99-.35Z"/>
    <path class="cls-48" d="M85.43,76.06c-.03,.26-.09,.61,.32,.48,1.59-.52,.99,.34,.68,1.04-.04,0-.11,0-.12,.01-1,1.27-1.05,1.26-2.24-.22,.6-.29,.86-.92,1.36-1.31Z"/>
    <path class="cls-56" d="M90.36,79.91c1.86,1.08,3.73,2.13,5.72,2.96-.29,.31-.62,.26-.94,.1-1.65-.82-3.38-1.5-4.79-2.75,0-.1,0-.2,.01-.31Z"/>
    <path class="cls-37" d="M62.15,78.7c.23-.07,.42-.03,.53,.2-.57,1.07-1.51,1.4-2.65,1.3,.6-.65,1.38-1.05,2.12-1.51Z"/>
    <path class="cls-84" d="M95.52,75.61c-.13-.6-.6-.71-1.1-.93-.68-.3-1.02-.84-.15-1.41-.03-.56-.37-1.21,.48-1.52,.36-.13,.8-.31,.74-.78-.07-.6-.66-.41-1.04-.53-.08-.03-.15-.07-.22-.14,.04-.38,0-.8,.14-1.13,.2-.43,.42-.99,1.15-.54,.72,.45,1.43,.13,1.72-.54,.34-.77-.09-1.05-.95-1.18-.71-.1-.07-.85-.16-1.3,.62,.45,1.18,.87,2.02,.33,.46-.29,1.01-.05,1.39,.38,1.93,2.17,3.37,1.82,6.45,.66,.43-.41,.58-1.17,1.38-1.14,.74-.05,1.13,.42,1.46,.99,.61,1.07,1.23,2.14,1.85,3.2-.21,.21-.41,.45-.71,.54-1.24,.37-2.25,.88-1.83,2.48,.02,.09-.16,.18-.28,.22-.88-.12-1.42-.78-2.04-1.3-.78-.64-1.57-1.24-2.62-1.31-1.82,.27-3.15,1.33-4.34,2.64-.4,.44-.62,.93-.62,1.52-.05,.76-.19,1.47-1.01,1.8-.74-.07-1.44-.21-1.72-1.04Z"/>
    <path class="cls-3" d="M107.39,65.85c-.53,.3-.69,.9-1.1,1.3-1.14,.58-2.4,.57-3.63,.72-.58,.07-.97-.28-1.36-.63-.48-.45-.83-.99-1.26-1.48-.41-.47-.69-.88-1.39-.17-.89,.9-1.77,.74-2.46-.34-.69-1.08-1.24-2.24-1.42-3.54,0-.09,0-.18,0-.27,.26-.24,.45-.47,.71,.06,.32,.68,.93,.87,1.63,.59,.49-.2,.92-.07,1.35,.14,.42,.21,.86,.46,1.28-.02,.73,.07,.55,.89,.99,1.21,.44,.33,.75,.83,1.37,.87,.71-.81,2.74-1.1,4.03-.57,.4,.17,.77,.38,1.16,.57,.51,.49,.18,1.03,.09,1.56Z"/>
    <path class="cls-21" d="M83.04,73.18l-.77-.52c-.61-.57-1.23,.37-1.83-.02-.22-1.05-.91-.86-1.59-.56-.35,.15-.65,.43-.98,.64-.22,.13-.42,.01-.59-.12-.15-.13-.13-.28-.04-.46,.31-.68,.43-2.29,.19-2.94-.14-.4-.08-.69,.3-.87,.39-.19,.65,.04,.86,.36,.27,.42,.33,.93,.81,1.29,1.24,.93,1.21,.97,2.58,.44-.29,1.04-.15,1.63,1.14,1.52,.81-.07,1.1,.61,.74,1.25-.26,.02-.53,.06-.79,0Z"/>
    <path class="cls-19" d="M94.79,61.7c.39,.86,.75,1.73,1.19,2.57,.34,.66,.48,1.56,1.5,1.59,.95,.03,1.26-.73,1.69-1.48,.55,.57,1.2,1.02,1.52,1.64,1.13,2.19,2.98,1.48,4.71,1.3,.3-.03,.59-.12,.89-.18-1.78,1.53-5.07,1.47-6.59-.18-.61-.66-1.04-1.14-2.03-.45-.79,.55-1.32-.07-1.53-.89-1.08-.57-.79-2.03-1.78-2.73-.3-.21,.21-.8,.42-1.19Z"/>
    <path class="cls-36" d="M94.24,70.31c.29-.06,.58-.18,.87-.17,.43,0,.69,.31,.86,.67,.16,.32,.05,.67-.22,.78-.79,.33-1.46,.71-1.48,1.69-.41-.21-.81-.47-1.25-.62-.66-.23-1.16-.13-1.05,.76-.58-.3-.6-.87-.2-1.15,.93-.64,1.01-1.72,1.57-2.55,.41,0,.44,.64,.9,.59Z"/>
    <path class="cls-31" d="M83.04,73.18c.26-.33,.53-.34,.79,0-.16,.38-.11,.59,.37,.46,.23-.06,.52-.28,.61,.13,.08,.32-.22,.42-.43,.56-.57,.37-1.2,.45-1.86,.41-.29-.02-.66,.04-.72-.37-.05-.35,.18-.57,.52-.64,.34-.07,.71-.08,.72-.56Z"/>
    <path class="cls-80" d="M90.88,74.73c.32,.51,1.34,.06,1.32,.74-.02,.71-1.03,.35-1.42,.8-.12-.17-.23-.35-.36-.51-.25-.3-.99-.27-.78-.84,.23-.61,.8-.26,1.24-.18Z"/>
    <path class="cls-31" d="M80.43,72.64c.61,.08,1.24-1.15,1.83,.02-.54,.11-1.06,.24-1.51,.57-.18,.13-.39,.21-.52-.05-.11-.22,0-.4,.19-.54Z"/>
    <path class="cls-42" d="M102.12,64.29c.07,.3,.23,.68-.33,.34-.96-.57-1.75-1.29-2.03-2.43,.01-.17-.04-.41,.06-.49,.31-.29,.45,.08,.55,.25,.5,.84,1.1,1.61,1.76,2.33Z"/>
    <path class="cls-25" d="M63.48,88.56c.55,.68,1.06,1.42,2.1,1.26,1.05,.13,1.94-.29,2.44-1.12,.67-1.13-.4-1.88-.91-2.73,1.55,.65,1.99,2.03,1.05,3.37-.32,.36-1.34,.56-.26,1.25-.28,.03-.56,.06-.84,.09-1.41,.06-2.74-.41-4.11-.59-.09-.38,.63-.56,.25-1.01,.09-.17,.18-.35,.27-.52Z"/>
    <path class="cls-38" d="M103.15,70.34c1.45,.03,2.38,.99,3.38,1.86,.42,.36,.87,.69,1.31,1.03,.6,.04,1,.47,1.44,.8,.4-1.28,.7-2.58,1.42-3.71,1.42,.72,2.99,1.27,3.41,3.09-.41,1.14-1.51,1.32-2.43,1.73-.45,.2-.97,.32-.5,.97,.16,.35,.26,.7-.16,.95l-.56,.26c-.81-.22-1.61-.13-2.41,.08-1.09,.28-2.18,.57-3.3,.72-.71,.1-1.4,.1-1.82-.65-.36-2.39-.7-4.79,.23-7.14Z"/>
    <path class="cls-78" d="M111,77.07c.16-.26,.13-.53,.03-.81,.73-1.3,2.11-1.69,3.3-2.33,.34,3.22-1.07,5.68-3.23,7.92-.8,.83-1.76,1.49-2.42,2.49-.34,.52-1.02,1.15-1.88,.58,.47-1.86,.32-2.09-2.8-4.09,2.39-.16,4.41-.97,6.19-2.35,.77-.59,.96-.94,.81-1.41Z"/>
    <path class="cls-72" d="M116.7,72.65c1.34,.59,1.67,1.66,1.05,3.39-.03-.17,0-.45-.09-.48-.31-.11-.32,.24-.34,.37-.18,1.13-.68,2.14-1.22,3.13-.47,.88-1.07,1.67-1.79,2.36-.22,.21-.44,.48-.74,.09,.71-1.07,1.48-2.11,2.12-3.22,1-1.75,1.15-3.68,1.01-5.64Z"/>
    <path class="cls-40" d="M110.69,70.32c.01,1.52-1.21,2.69-1.08,4.39-.69-.57-1.23-1.03-1.78-1.48q.18-2.37,2.87-3.18c0,.09,0,.18,0,.27Z"/>
    <path class="cls-1" d="M114.34,73.93c-.93,1.02-2.28,1.44-3.3,2.33-.21-.31-.62-.49-.71-.93,1.31-.54,2.73-.87,3.77-1.92,.22,.11,.25,.3,.24,.52Z"/>
    <path class="cls-46" d="M95.52,75.61c.41,.54,1.15,.51,1.61,.96,1.37,.36,2.68,.78,3.16,2.34-.11,.43-.21,.86-.32,1.29-.61,.72-1.24,1.44-1.83,2.17-.33,.41-.62,.86-1.26,.68-1.04-2.53-1.88-5.11-2.32-7.81,.32,.12,.65,.25,.97,.37Z"/>
    <path class="cls-33" d="M102.64,81.04c1.08,.09,1.94,.67,2.8,1.24,1.62,1.08,1.68,2.33,.18,3.61-.23,.19-.46,.37-.7,.55-1.79,.54-2.33,.19-2.41-1.6-.04-.82-.03-1.65-.17-2.46-.09-.48-.09-.96,.3-1.34Z"/>
    <path class="cls-5" d="M102.64,81.04c0,1.46,.3,2.9,.28,4.38-.02,1.49,1.27,.81,2.01,1.02-.35,.56-.97,.64-1.52,.85-.13,.04-.3,.06-.36-.04-.76-1.24-2.17-1.59-3.27-2.36-.01-.08-.03-.16-.06-.23-.72-1.3,.23-1.98,1.03-2.69,.41-.36,.9-.65,1.35-.97,.18,.01,.36,.03,.54,.04Z"/>
    <path class="cls-77" d="M103.14,77.6c1.08,.64,2.11,0,3.15-.14,1.07-.15,2.07-.63,3.17-.64,.45,0,.85-.03,.99,.52-1.94,1-4.07,1.27-6.17,1.66-.64,.12-1.01-.65-1.65-.58-.17,.15-.41,.26-.59,.15-1.48-.91-2.95-1.84-3.66-3.56,.21-.26,.58-.48,.78-.26,1.05,1.16,2.62,1.52,3.75,2.54,.09,.08,.15,.21,.23,.32Z"/>
    <path class="cls-67" d="M98.38,75.02c1.33,1.24,2.38,2.83,4.25,3.4,.02,.08,.07,.23,.06,.24-.77,.36-1.56,.46-2.39,.26-.82-1.09-2.09-1.59-3.16-2.34,.59-.46,.87-1.06,.79-1.82,.29-.16,.39,.02,.45,.26Z"/>
    <path class="cls-13" d="M99.78,84.89c1.57,.25,2.82,.99,3.63,2.4-.15,.07-.37,.24-.44,.19-1.14-.77-2.6-1.15-3.19-2.59Z"/>
    <path class="cls-52" d="M54.1,78.36c.53,.25,1.66-.65,1.56,.81-.75,.18-1.35,.05-1.56-.81Z"/>
    <path class="cls-25" d="M63.64,81.74c-.22,.44-.6,.27-.91,.29-.22,.01-.49-.08-.43-.33,.09-.41,.45-.46,.81-.41,.28,.03,.45,.19,.52,.45Z"/>
    <path class="cls-29" d="M89.31,95.35c-.22,.28-.52,.26-.83,.26-3.36,0-6.73,0-10.09,0-.3,0-.61,.02-.82-.26,3.91,0,7.83,0,11.74,0Z"/>
    <path class="cls-29" d="M77.57,95.35c-2.24,.09-4.4-.37-6.53-1.04,1.92-.26,3.72,.72,5.64,.56,.32-.03,.66,.18,.88,.48Z"/>
    <path class="cls-25" d="M73.69,86.49c-.2,.43-.4,.87-.6,1.3-.43,.19-.6,0-.4-.38,.21-.41,.54-.76,1-.93Z"/>
    <path class="cls-70" d="M98.38,75.02c-.15-.09-.3-.17-.45-.26,.53-2.35,2.38-3.34,4.35-4.18,.27-.12,.58-.16,.87-.24-.2,2.42-.16,4.84,0,7.26-1.34-.88-3.02-1.23-4.04-2.62-.08-.11-.47,.02-.72,.04Z"/>
  </g>
</svg>