<svg xmlns="http://www.w3.org/2000/svg" width="97" height="97" viewBox="0 0 97 97" fill="none">
  <g clip-path="url(#clip0_237_7799)">
    <path d="M59.3689 85.0763L77.7116 85.1418C85.297 85.1684 87.4407 74.7604 80.4591 71.7897L79.249 71.2756C75.0659 69.0592 76.2057 62.776 80.9005 62.1722L89.0679 61.1197C92.2034 60.7148 93.6681 57.0191 91.6578 54.5771L90.5956 53.287C89.4074 51.8441 88.7866 50.0229 88.8351 48.1533C88.8448 47.8089 88.8472 47.4646 88.8472 47.1202C88.8472 23.622 68.5039 4.87427 44.4673 7.52965C26.0082 9.56907 11.1647 24.6235 9.35812 43.1068C9.13744 45.3694 9.10592 47.6003 9.24899 49.7829C9.37994 51.7811 8.70822 53.7453 7.42054 55.2803L6.53057 56.3401C2.44687 61.2095 4.53722 68.6615 10.5585 70.6936L21.3522 74.3384C23.1879 74.9592 24.1821 76.9404 23.5807 78.781L23.3673 79.4358C21.1436 86.2427 28.4647 92.2155 34.6872 88.675L36.472 87.6589C38.8097 86.3276 41.419 85.5419 44.1059 85.3916C47.159 85.2218 52.0454 85.0569 59.3665 85.0811L59.3689 85.0763Z" fill="#FFC84D"/>
    <path d="M61.9564 64.6383C62.0994 64.585 62.0994 64.3983 61.9466 64.3837C57.9357 64.2164 54.1721 63.9981 51.7811 63.4816C43.1287 61.5683 36.2465 56.9923 33.8458 48.9001L33.0916 46.3611C32.9437 45.8591 33.6978 45.4081 33.9282 45.8785C36.4041 50.9468 50.3843 61.0615 68.0431 63.8235C68.0431 63.8235 69.7115 65.4798 61.6896 67.4319C59.5386 67.9557 56.8275 68.4141 55.1009 68.6832C54.6304 68.756 54.5601 69.4035 55.0039 69.5805C58.5686 71.3507 65.5914 72.653 71.5885 73.6036C66.3165 73.606 63.3507 74.1492 56.8614 72.6069C54.0533 71.7945 52.6783 71.2659 51.0002 70.0364C48.9365 68.5232 50.0084 66.8645 51.4076 66.5783C54.3152 65.9866 59.1991 65.6471 61.9564 64.6383Z" fill="#FF6D00"/>
    <path d="M46.8431 36.2137C48.5214 33.0576 47.9178 29.4546 45.4949 28.1662C43.0719 26.8777 39.7472 28.3917 38.0689 31.5478C36.3906 34.7038 36.9942 38.3068 39.4171 39.5953C41.84 40.8837 45.1648 39.3697 46.8431 36.2137Z" fill="black"/>
    <path d="M67.0065 47.4802C67.9275 44.0263 66.5245 40.6532 63.8729 39.9462C61.2214 39.2392 58.3253 41.466 57.4043 44.9199C56.4834 48.3738 57.8863 51.7469 60.5379 52.4539C63.1895 53.1609 66.0856 50.9341 67.0065 47.4802Z" fill="black"/>
  </g>
  <defs>
    <clipPath id="clip0_237_7799">
      <rect width="97" height="97" fill="white"/>
    </clipPath>
  </defs>
</svg>