<svg width="34" height="34" viewBox="0 0 34 34" fill="none" xmlns="http://www.w3.org/2000/svg">
<path d="M31.4998 33.5C30.9878 33.5 30.4768 33.305 30.0858 32.914L21.1048 23.933C20.3238 23.152 20.3238 21.886 21.1048 21.105C21.8858 20.324 23.1518 20.324 23.9328 21.105L32.9138 30.086C33.6948 30.867 33.6948 32.133 32.9138 32.914C32.5228 33.305 32.0118 33.5 31.4998 33.5Z" fill="#4E5968"/>
<path d="M26.1298 13.815C26.1298 7.025 20.6058 1.5 13.8148 1.5C10.4198 1.5 7.34084 2.881 5.11084 5.111L22.5178 22.519C24.7478 20.289 26.1298 17.21 26.1298 13.815Z" fill="#E5E9EE"/>
<path d="M22.519 22.519L5.111 5.11096C2.881 7.34096 1.5 10.42 1.5 13.815C1.5 20.605 7.025 26.13 13.815 26.13C17.21 26.13 20.289 24.749 22.519 22.519Z" fill="#F0F3F6"/>
<path d="M13.814 27.629C6.197 27.629 0 21.432 0 13.815C0 6.198 6.197 0 13.814 0C21.431 0 27.629 6.197 27.629 13.815C27.629 21.433 21.432 27.629 13.814 27.629ZM13.814 3C7.851 3 3 7.852 3 13.815C3 19.778 7.852 24.629 13.814 24.629C19.776 24.629 24.629 19.777 24.629 13.815C24.629 7.853 19.777 3 13.814 3Z" fill="#A3ADB7"/>
</svg>
