<?xml version="1.0" encoding="UTF-8"?>
<svg id="Layer_2" data-name="Layer 2" xmlns="http://www.w3.org/2000/svg" xmlns:xlink="http://www.w3.org/1999/xlink" viewBox="0 0 150 150">
  <defs>
    <style>
      .cls-1 {
        fill: url(#linear-gradient);
        stroke: #939393;
        stroke-miterlimit: 10;
        stroke-width: 3px;
      }
    </style>
    <linearGradient id="linear-gradient" x1="131.7" y1="40.8" x2="15.27" y2="110.12" gradientUnits="userSpaceOnUse">
      <stop offset="0" stop-color="#56a186"/>
      <stop offset=".23" stop-color="#578772"/>
      <stop offset="1" stop-color="#58635e"/>
    </linearGradient>
  </defs>
  <polygon class="cls-1" points="136.84 111.14 136.84 38.87 74.25 2.73 11.66 38.87 11.66 111.14 74.25 147.28 136.84 111.14"/>
  <path d="M75.68,50.69c-13.73,.31-27.47,1.63-37.62,11.01-10.52,3.53-10.15,15.58,.03,19.19,.79,.26,1.17,.7,1.21,1.54,4.37,29.73,68.02,29.46,71.06-.81,.07-1.14,.26-1.72,1.53-2.01,7.83-1.21,10.04-15.56,1.16-17.69-10.51-8.01-24.52-11.67-37.37-11.25Z"/>
</svg>